{
  "header": {
    "keySignatures": [
      {
        "key": "C",
        "scale": "major",
        "ticks": 0
      }
    ],
    "meta": [],
    "name": "",
    "ppq": 120,
    "tempos": [
      {
        "bpm": 120,
        "ticks": 0
      }
    ],
    "timeSignatures": [
      {
        "ticks": 0,
        "timeSignature": [
          4,
          4
        ],
        "measures": 0
      }
    ]
  },
  "tracks": [
    {
      "channel": 0,
      "controlChanges": {},
      "pitchBends": [],
      "instrument": {
        "family": "piano",
        "number": 0,
        "name": "acoustic grand piano"
      },
      "name": "",
      "notes": [
        {
          "duration": 0.25,
          "durationTicks": 60,
          "midi": 79,
          "name": "G5",
          "ticks": 887,
          "time": 3.6958333333333333,
          "velocity": 0.12598425196850394
        },
        {
          "duration": 0.25,
          "durationTicks": 60,
          "midi": 81,
          "name": "A5",
          "ticks": 952,
          "time": 3.966666666666667,
          "velocity": 0.15748031496062992
        },
        {
          "duration": 0.15000000000000036,
          "durationTicks": 36,
          "midi": 84,
          "name": "C6",
          "ticks": 1017,
          "time": 4.2375,
          "velocity": 0.2047244094488189
        },
        {
          "duration": 0.12083333333333357,
          "durationTicks": 29,
          "midi": 91,
          "name": "G6",
          "ticks": 1276,
          "time": 5.316666666666666,
          "velocity": 0.2755905511811024
        },
        {
          "duration": 0.15000000000000036,
          "durationTicks": 36,
          "midi": 86,
          "name": "D6",
          "ticks": 1343,
          "time": 5.595833333333333,
          "velocity": 0.30708661417322836
        },
        {
          "duration": 0.12916666666666643,
          "durationTicks": 31,
          "midi": 91,
          "name": "G6",
          "ticks": 1540,
          "time": 6.416666666666667,
          "velocity": 0.33070866141732286
        },
        {
          "duration": 0.5,
          "durationTicks": 120,
          "midi": 52,
          "name": "E3",
          "ticks": 1619,
          "time": 6.745833333333334,
          "velocity": 0.3700787401574803
        },
        {
          "duration": 0.7291666666666661,
          "durationTicks": 175,
          "midi": 50,
          "name": "D3",
          "ticks": 2145,
          "time": 8.9375,
          "velocity": 0.31496062992125984
        },
        {
          "duration": 0.25,
          "durationTicks": 60,
          "midi": 91,
          "name": "G6",
          "ticks": 2325,
          "time": 9.6875,
          "velocity": 0.28346456692913385
        },
        {
          "duration": 0.12916666666666643,
          "durationTicks": 31,
          "midi": 84,
          "name": "C6",
          "ticks": 2488,
          "time": 10.366666666666667,
          "velocity": 0.2755905511811024
        },
        {
          "duration": 0.15000000000000036,
          "durationTicks": 36,
          "midi": 86,
          "name": "D6",
          "ticks": 2522,
          "time": 10.508333333333333,
          "velocity": 0.25196850393700787
        },
        {
          "duration": 0.25833333333333286,
          "durationTicks": 62,
          "midi": 91,
          "name": "G6",
          "ticks": 2587,
          "time": 10.779166666666667,
          "velocity": 0.33858267716535434
        },
        {
          "duration": 1.3083333333333336,
          "durationTicks": 314,
          "midi": 48,
          "name": "C3",
          "ticks": 2671,
          "time": 11.129166666666666,
          "velocity": 0.30708661417322836
        },
        {
          "duration": 1.3208333333333329,
          "durationTicks": 317,
          "midi": 69,
          "name": "A4",
          "ticks": 3052,
          "time": 12.716666666666667,
          "velocity": 0.31496062992125984
        },
        {
          "duration": 0.13333333333333464,
          "durationTicks": 32,
          "midi": 91,
          "name": "G6",
          "ticks": 3371,
          "time": 14.045833333333333,
          "velocity": 0.2755905511811024
        },
        {
          "duration": 0.2666666666666657,
          "durationTicks": 64,
          "midi": 86,
          "name": "D6",
          "ticks": 3439,
          "time": 14.329166666666667,
          "velocity": 0.28346456692913385
        },
        {
          "duration": 0.1208333333333318,
          "durationTicks": 29,
          "midi": 84,
          "name": "C6",
          "ticks": 3537,
          "time": 14.7375,
          "velocity": 0.2677165354330709
        },
        {
          "duration": 0.27083333333333215,
          "durationTicks": 65,
          "midi": 86,
          "name": "D6",
          "ticks": 3568,
          "time": 14.866666666666667,
          "velocity": 0.25196850393700787
        },
        {
          "duration": 0.2708333333333339,
          "durationTicks": 65,
          "midi": 91,
          "name": "G6",
          "ticks": 3633,
          "time": 15.1375,
          "velocity": 0.33070866141732286
        },
        {
          "duration": 0.8583333333333325,
          "durationTicks": 206,
          "midi": 52,
          "name": "E3",
          "ticks": 3715,
          "time": 15.479166666666666,
          "velocity": 0.3543307086614173
        },
        {
          "duration": 0.5375000000000014,
          "durationTicks": 129,
          "midi": 81,
          "name": "A5",
          "ticks": 3962,
          "time": 16.508333333333333,
          "velocity": 0.16535433070866143
        },
        {
          "duration": 0.5499999999999972,
          "durationTicks": 132,
          "midi": 64,
          "name": "E4",
          "ticks": 4103,
          "time": 17.095833333333335,
          "velocity": 0.29133858267716534
        },
        {
          "duration": 0.7416666666666671,
          "durationTicks": 178,
          "midi": 50,
          "name": "D3",
          "ticks": 4240,
          "time": 17.666666666666668,
          "velocity": 0.33858267716535434
        },
        {
          "duration": 0.14166666666666572,
          "durationTicks": 34,
          "midi": 84,
          "name": "C6",
          "ticks": 4420,
          "time": 18.416666666666668,
          "velocity": 0.2204724409448819
        },
        {
          "duration": 0.7583333333333329,
          "durationTicks": 182,
          "midi": 52,
          "name": "E3",
          "ticks": 4502,
          "time": 18.758333333333333,
          "velocity": 0.30708661417322836
        },
        {
          "duration": 0.1999999999999993,
          "durationTicks": 48,
          "midi": 57,
          "name": "A3",
          "ticks": 5087,
          "time": 21.195833333333333,
          "velocity": 0.7322834645669292
        },
        {
          "duration": 0.25,
          "durationTicks": 60,
          "midi": 59,
          "name": "B3",
          "ticks": 5157,
          "time": 21.4875,
          "velocity": 0.6771653543307087
        },
        {
          "duration": 0.12916666666666643,
          "durationTicks": 31,
          "midi": 60,
          "name": "C4",
          "ticks": 5222,
          "time": 21.758333333333333,
          "velocity": 0.7637795275590551
        },
        {
          "duration": 0.18333333333333357,
          "durationTicks": 44,
          "midi": 55,
          "name": "G3",
          "ticks": 5291,
          "time": 22.045833333333334,
          "velocity": 0.6535433070866141
        },
        {
          "duration": 0.5416666666666679,
          "durationTicks": 130,
          "midi": 57,
          "name": "A3",
          "ticks": 5344,
          "time": 22.266666666666666,
          "velocity": 0.8110236220472441
        },
        {
          "duration": 0.03750000000000142,
          "durationTicks": 9,
          "midi": 31,
          "name": "G1",
          "ticks": 5479,
          "time": 22.829166666666666,
          "velocity": 0.14173228346456693
        },
        {
          "duration": 0.05000000000000071,
          "durationTicks": 12,
          "midi": 54,
          "name": "F#3",
          "ticks": 5488,
          "time": 22.866666666666667,
          "velocity": 0.6535433070866141
        },
        {
          "duration": 0.09166666666666501,
          "durationTicks": 22,
          "midi": 55,
          "name": "G3",
          "ticks": 5505,
          "time": 22.9375,
          "velocity": 0.5905511811023622
        },
        {
          "duration": 0.0416666666666643,
          "durationTicks": 10,
          "midi": 55,
          "name": "G3",
          "ticks": 5529,
          "time": 23.0375,
          "velocity": 0.44881889763779526
        },
        {
          "duration": 0.408333333333335,
          "durationTicks": 98,
          "midi": 55,
          "name": "G3",
          "ticks": 5553,
          "time": 23.1375,
          "velocity": 0.7480314960629921
        },
        {
          "duration": 0.07083333333333286,
          "durationTicks": 17,
          "midi": 55,
          "name": "G3",
          "ticks": 5654,
          "time": 23.558333333333334,
          "velocity": 0.6141732283464567
        },
        {
          "duration": 0.22083333333333144,
          "durationTicks": 53,
          "midi": 55,
          "name": "G3",
          "ticks": 5680,
          "time": 23.666666666666668,
          "velocity": 0.8110236220472441
        },
        {
          "duration": 0.14166666666666572,
          "durationTicks": 34,
          "midi": 52,
          "name": "E3",
          "ticks": 5747,
          "time": 23.945833333333333,
          "velocity": 0.7244094488188977
        },
        {
          "duration": 0.05833333333333357,
          "durationTicks": 14,
          "midi": 55,
          "name": "G3",
          "ticks": 5786,
          "time": 24.108333333333334,
          "velocity": 0.2125984251968504
        },
        {
          "duration": 0.4624999999999986,
          "durationTicks": 111,
          "midi": 52,
          "name": "E3",
          "ticks": 5819,
          "time": 24.245833333333334,
          "velocity": 0.7244094488188977
        },
        {
          "duration": 0.03749999999999787,
          "durationTicks": 9,
          "midi": 51,
          "name": "D#3",
          "ticks": 5935,
          "time": 24.729166666666668,
          "velocity": 0.6062992125984252
        },
        {
          "duration": 0.04999999999999716,
          "durationTicks": 12,
          "midi": 52,
          "name": "E3",
          "ticks": 5949,
          "time": 24.7875,
          "velocity": 0.6692913385826772
        },
        {
          "duration": 0.04166666666666785,
          "durationTicks": 10,
          "midi": 50,
          "name": "D3",
          "ticks": 5973,
          "time": 24.8875,
          "velocity": 0.4330708661417323
        },
        {
          "duration": 0.08749999999999858,
          "durationTicks": 21,
          "midi": 52,
          "name": "E3",
          "ticks": 5995,
          "time": 24.979166666666668,
          "velocity": 0.5590551181102362
        },
        {
          "duration": 0.2375000000000007,
          "durationTicks": 57,
          "midi": 57,
          "name": "A3",
          "ticks": 6134,
          "time": 25.558333333333334,
          "velocity": 0.7165354330708661
        },
        {
          "duration": 0.1999999999999993,
          "durationTicks": 48,
          "midi": 59,
          "name": "B3",
          "ticks": 6211,
          "time": 25.879166666666666,
          "velocity": 0.6456692913385826
        },
        {
          "duration": 0.13333333333333286,
          "durationTicks": 32,
          "midi": 60,
          "name": "C4",
          "ticks": 6263,
          "time": 26.095833333333335,
          "velocity": 0.7795275590551181
        },
        {
          "duration": 0.04999999999999716,
          "durationTicks": 12,
          "midi": 59,
          "name": "B3",
          "ticks": 6309,
          "time": 26.2875,
          "velocity": 0.2283464566929134
        },
        {
          "duration": 0.2083333333333357,
          "durationTicks": 50,
          "midi": 55,
          "name": "G3",
          "ticks": 6333,
          "time": 26.3875,
          "velocity": 0.7716535433070866
        },
        {
          "duration": 1.0208333333333357,
          "durationTicks": 245,
          "midi": 57,
          "name": "A3",
          "ticks": 6393,
          "time": 26.6375,
          "velocity": 0.8503937007874016
        },
        {
          "duration": 0.20833333333333215,
          "durationTicks": 50,
          "midi": 59,
          "name": "B3",
          "ticks": 6645,
          "time": 27.6875,
          "velocity": 0.6456692913385826
        },
        {
          "duration": 0.09166666666666856,
          "durationTicks": 22,
          "midi": 62,
          "name": "D4",
          "ticks": 6695,
          "time": 27.895833333333332,
          "velocity": 0.33858267716535434
        },
        {
          "duration": 0.2375000000000007,
          "durationTicks": 57,
          "midi": 78,
          "name": "F#5",
          "ticks": 6722,
          "time": 28.008333333333333,
          "velocity": 0.6456692913385826
        },
        {
          "duration": 0.10833333333333428,
          "durationTicks": 26,
          "midi": 60,
          "name": "C4",
          "ticks": 6787,
          "time": 28.279166666666665,
          "velocity": 0.5984251968503937
        },
        {
          "duration": 0.10833333333333073,
          "durationTicks": 26,
          "midi": 59,
          "name": "B3",
          "ticks": 6818,
          "time": 28.408333333333335,
          "velocity": 0.3779527559055118
        },
        {
          "duration": 0.75,
          "durationTicks": 180,
          "midi": 60,
          "name": "C4",
          "ticks": 6856,
          "time": 28.566666666666666,
          "velocity": 0.7007874015748031
        },
        {
          "duration": 0.37916666666667,
          "durationTicks": 91,
          "midi": 52,
          "name": "E3",
          "ticks": 7192,
          "time": 29.966666666666665,
          "velocity": 0.7559055118110236
        },
        {
          "duration": 0.3874999999999993,
          "durationTicks": 93,
          "midi": 55,
          "name": "G3",
          "ticks": 7315,
          "time": 30.479166666666668,
          "velocity": 0.7874015748031497
        },
        {
          "duration": 0.1875,
          "durationTicks": 45,
          "midi": 57,
          "name": "A3",
          "ticks": 7418,
          "time": 30.908333333333335,
          "velocity": 0.6929133858267716
        },
        {
          "duration": 0.2375000000000007,
          "durationTicks": 57,
          "midi": 56,
          "name": "G#3",
          "ticks": 7483,
          "time": 31.179166666666667,
          "velocity": 0.7795275590551181
        },
        {
          "duration": 0.05833333333333357,
          "durationTicks": 14,
          "midi": 55,
          "name": "G3",
          "ticks": 7545,
          "time": 31.4375,
          "velocity": 0.2992125984251969
        },
        {
          "duration": 0.22083333333333144,
          "durationTicks": 53,
          "midi": 57,
          "name": "A3",
          "ticks": 7571,
          "time": 31.545833333333334,
          "velocity": 0.7322834645669292
        },
        {
          "duration": 0.220833333333335,
          "durationTicks": 53,
          "midi": 59,
          "name": "B3",
          "ticks": 7643,
          "time": 31.845833333333335,
          "velocity": 0.6377952755905512
        },
        {
          "duration": 0.14999999999999858,
          "durationTicks": 36,
          "midi": 52,
          "name": "E3",
          "ticks": 7723,
          "time": 32.17916666666667,
          "velocity": 0.5669291338582677
        },
        {
          "duration": 0.09999999999999432,
          "durationTicks": 24,
          "midi": 52,
          "name": "E3",
          "ticks": 7773,
          "time": 32.3875,
          "velocity": 0.5984251968503937
        },
        {
          "duration": 0.07083333333333286,
          "durationTicks": 17,
          "midi": 52,
          "name": "E3",
          "ticks": 7811,
          "time": 32.545833333333334,
          "velocity": 0.07874015748031496
        },
        {
          "duration": 0.07083333333333997,
          "durationTicks": 17,
          "midi": 59,
          "name": "B3",
          "ticks": 7919,
          "time": 32.99583333333333,
          "velocity": 0.5905511811023622
        },
        {
          "duration": 0.17083333333333428,
          "durationTicks": 41,
          "midi": 60,
          "name": "C4",
          "ticks": 7941,
          "time": 33.0875,
          "velocity": 0.5275590551181102
        },
        {
          "duration": 0.34166666666666856,
          "durationTicks": 82,
          "midi": 59,
          "name": "B3",
          "ticks": 8001,
          "time": 33.3375,
          "velocity": 0.7007874015748031
        },
        {
          "duration": 0.19166666666666998,
          "durationTicks": 46,
          "midi": 60,
          "name": "C4",
          "ticks": 8087,
          "time": 33.69583333333333,
          "velocity": 0.7716535433070866
        },
        {
          "duration": 0.08749999999999858,
          "durationTicks": 21,
          "midi": 60,
          "name": "C4",
          "ticks": 8162,
          "time": 34.00833333333333,
          "velocity": 0.7086614173228346
        },
        {
          "duration": 0.15833333333333144,
          "durationTicks": 38,
          "midi": 62,
          "name": "D4",
          "ticks": 8191,
          "time": 34.12916666666667,
          "velocity": 0.7244094488188977
        },
        {
          "duration": 0.03750000000000142,
          "durationTicks": 9,
          "midi": 62,
          "name": "D4",
          "ticks": 8234,
          "time": 34.30833333333333,
          "velocity": 0.4409448818897638
        },
        {
          "duration": 0.11249999999999716,
          "durationTicks": 27,
          "midi": 59,
          "name": "B3",
          "ticks": 8255,
          "time": 34.395833333333336,
          "velocity": 0.7322834645669292
        },
        {
          "duration": 0.29999999999999716,
          "durationTicks": 72,
          "midi": 60,
          "name": "C4",
          "ticks": 8287,
          "time": 34.52916666666667,
          "velocity": 0.6377952755905512
        },
        {
          "duration": 0.13333333333333286,
          "durationTicks": 32,
          "midi": 59,
          "name": "B3",
          "ticks": 8363,
          "time": 34.84583333333333,
          "velocity": 0.7401574803149606
        },
        {
          "duration": 0.03750000000000142,
          "durationTicks": 9,
          "midi": 60,
          "name": "C4",
          "ticks": 8402,
          "time": 35.00833333333333,
          "velocity": 0.11023622047244094
        },
        {
          "duration": 0.5708333333333329,
          "durationTicks": 137,
          "midi": 57,
          "name": "A3",
          "ticks": 8423,
          "time": 35.09583333333333,
          "velocity": 0.7559055118110236
        },
        {
          "duration": 0.07083333333333997,
          "durationTicks": 17,
          "midi": 56,
          "name": "G#3",
          "ticks": 8594,
          "time": 35.80833333333333,
          "velocity": 0.11811023622047244
        },
        {
          "duration": 0.2291666666666643,
          "durationTicks": 55,
          "midi": 57,
          "name": "A3",
          "ticks": 8625,
          "time": 35.9375,
          "velocity": 0.7322834645669292
        },
        {
          "duration": 0.26249999999999574,
          "durationTicks": 63,
          "midi": 55,
          "name": "G3",
          "ticks": 8711,
          "time": 36.295833333333334,
          "velocity": 0.6771653543307087
        },
        {
          "duration": 0.5708333333333329,
          "durationTicks": 137,
          "midi": 57,
          "name": "A3",
          "ticks": 8783,
          "time": 36.59583333333333,
          "velocity": 0.7874015748031497
        },
        {
          "duration": 0.16250000000000142,
          "durationTicks": 39,
          "midi": 59,
          "name": "B3",
          "ticks": 8927,
          "time": 37.19583333333333,
          "velocity": 0.6456692913385826
        },
        {
          "duration": 0.17083333333333428,
          "durationTicks": 41,
          "midi": 55,
          "name": "G3",
          "ticks": 9023,
          "time": 37.59583333333333,
          "velocity": 0.8110236220472441
        },
        {
          "duration": 0.3291666666666657,
          "durationTicks": 79,
          "midi": 57,
          "name": "A3",
          "ticks": 9076,
          "time": 37.81666666666667,
          "velocity": 0.7559055118110236
        },
        {
          "duration": 0.19166666666666288,
          "durationTicks": 46,
          "midi": 57,
          "name": "A3",
          "ticks": 9275,
          "time": 38.645833333333336,
          "velocity": 0.7874015748031497
        },
        {
          "duration": 0.23749999999999716,
          "durationTicks": 57,
          "midi": 59,
          "name": "B3",
          "ticks": 9343,
          "time": 38.92916666666667,
          "velocity": 0.8503937007874016
        },
        {
          "duration": 0.07916666666666572,
          "durationTicks": 19,
          "midi": 60,
          "name": "C4",
          "ticks": 9405,
          "time": 39.1875,
          "velocity": 0.7874015748031497
        },
        {
          "duration": 0.12916666666666998,
          "durationTicks": 31,
          "midi": 55,
          "name": "G3",
          "ticks": 9477,
          "time": 39.4875,
          "velocity": 0.7716535433070866
        },
        {
          "duration": 0.2916666666666714,
          "durationTicks": 70,
          "midi": 57,
          "name": "A3",
          "ticks": 9520,
          "time": 39.666666666666664,
          "velocity": 0.8503937007874016
        },
        {
          "duration": 0.1666666666666643,
          "durationTicks": 40,
          "midi": 57,
          "name": "A3",
          "ticks": 9607,
          "time": 40.02916666666667,
          "velocity": 0.6929133858267716
        },
        {
          "duration": 0.20000000000000284,
          "durationTicks": 48,
          "midi": 55,
          "name": "G3",
          "ticks": 9657,
          "time": 40.2375,
          "velocity": 0.7401574803149606
        },
        {
          "duration": 0.46666666666666146,
          "durationTicks": 112,
          "midi": 55,
          "name": "G3",
          "ticks": 9727,
          "time": 40.52916666666667,
          "velocity": 0.8582677165354331
        },
        {
          "duration": 0.5791666666666657,
          "durationTicks": 139,
          "midi": 55,
          "name": "G3",
          "ticks": 9842,
          "time": 41.00833333333333,
          "velocity": 0.8346456692913385
        },
        {
          "duration": 0.4791666666666643,
          "durationTicks": 115,
          "midi": 52,
          "name": "E3",
          "ticks": 10005,
          "time": 41.6875,
          "velocity": 0.8976377952755905
        },
        {
          "duration": 0.0416666666666643,
          "durationTicks": 10,
          "midi": 52,
          "name": "E3",
          "ticks": 10151,
          "time": 42.295833333333334,
          "velocity": 0.6062992125984252
        },
        {
          "duration": 0.15833333333333144,
          "durationTicks": 38,
          "midi": 51,
          "name": "D#3",
          "ticks": 10166,
          "time": 42.358333333333334,
          "velocity": 0.6220472440944882
        },
        {
          "duration": 0.12083333333333712,
          "durationTicks": 29,
          "midi": 79,
          "name": "G5",
          "ticks": 10283,
          "time": 42.84583333333333,
          "velocity": 0.31496062992125984
        },
        {
          "duration": 0.10000000000000142,
          "durationTicks": 24,
          "midi": 34,
          "name": "A#1",
          "ticks": 10322,
          "time": 43.00833333333333,
          "velocity": 0.4645669291338583
        },
        {
          "duration": 0.09999999999999432,
          "durationTicks": 24,
          "midi": 57,
          "name": "A3",
          "ticks": 10351,
          "time": 43.12916666666667,
          "velocity": 0.7165354330708661
        },
        {
          "duration": 0.2083333333333357,
          "durationTicks": 50,
          "midi": 59,
          "name": "B3",
          "ticks": 10394,
          "time": 43.30833333333333,
          "velocity": 0.7637795275590551
        },
        {
          "duration": 0.15833333333333144,
          "durationTicks": 38,
          "midi": 60,
          "name": "C4",
          "ticks": 10449,
          "time": 43.5375,
          "velocity": 0.8503937007874016
        },
        {
          "duration": 0.15833333333333144,
          "durationTicks": 38,
          "midi": 55,
          "name": "G3",
          "ticks": 10531,
          "time": 43.87916666666667,
          "velocity": 0.7559055118110236
        },
        {
          "duration": 0.7166666666666686,
          "durationTicks": 172,
          "midi": 57,
          "name": "A3",
          "ticks": 10579,
          "time": 44.079166666666666,
          "velocity": 0.84251968503937
        },
        {
          "duration": 0.13749999999999574,
          "durationTicks": 33,
          "midi": 57,
          "name": "A3",
          "ticks": 10790,
          "time": 44.958333333333336,
          "velocity": 0.7165354330708661
        },
        {
          "duration": 0.25833333333333286,
          "durationTicks": 62,
          "midi": 59,
          "name": "B3",
          "ticks": 10833,
          "time": 45.1375,
          "velocity": 0.7322834645669292
        },
        {
          "duration": 0.25,
          "durationTicks": 60,
          "midi": 59,
          "name": "B3",
          "ticks": 10907,
          "time": 45.44583333333333,
          "velocity": 0.7401574803149606
        },
        {
          "duration": 0.19166666666666288,
          "durationTicks": 46,
          "midi": 60,
          "name": "C4",
          "ticks": 10972,
          "time": 45.71666666666667,
          "velocity": 0.5984251968503937
        },
        {
          "duration": 0.56666666666667,
          "durationTicks": 136,
          "midi": 79,
          "name": "G5",
          "ticks": 11035,
          "time": 45.979166666666664,
          "velocity": 0.6771653543307087
        },
        {
          "duration": 0.03750000000000142,
          "durationTicks": 9,
          "midi": 59,
          "name": "B3",
          "ticks": 11234,
          "time": 46.80833333333333,
          "velocity": 0.4566929133858268
        },
        {
          "duration": 0.04999999999999716,
          "durationTicks": 12,
          "midi": 60,
          "name": "C4",
          "ticks": 11246,
          "time": 46.858333333333334,
          "velocity": 0.5905511811023622
        },
        {
          "duration": 0.13333333333333286,
          "durationTicks": 32,
          "midi": 36,
          "name": "C2",
          "ticks": 11267,
          "time": 46.94583333333333,
          "velocity": 0.4409448818897638
        },
        {
          "duration": 0.12916666666666288,
          "durationTicks": 31,
          "midi": 79,
          "name": "G5",
          "ticks": 11306,
          "time": 47.108333333333334,
          "velocity": 0.2125984251968504
        },
        {
          "duration": 0.13333333333333286,
          "durationTicks": 32,
          "midi": 88,
          "name": "E6",
          "ticks": 11363,
          "time": 47.34583333333333,
          "velocity": 0.41732283464566927
        },
        {
          "duration": 0.28333333333333854,
          "durationTicks": 68,
          "midi": 52,
          "name": "E3",
          "ticks": 11399,
          "time": 47.49583333333333,
          "velocity": 0.6692913385826772
        },
        {
          "duration": 0.42916666666666714,
          "durationTicks": 103,
          "midi": 55,
          "name": "G3",
          "ticks": 11500,
          "time": 47.916666666666664,
          "velocity": 0.889763779527559
        },
        {
          "duration": 0.12916666666666288,
          "durationTicks": 31,
          "midi": 57,
          "name": "A3",
          "ticks": 11613,
          "time": 48.3875,
          "velocity": 0.7086614173228346
        },
        {
          "duration": 0.09166666666666856,
          "durationTicks": 22,
          "midi": 57,
          "name": "A3",
          "ticks": 11649,
          "time": 48.5375,
          "velocity": 0.6850393700787402
        },
        {
          "duration": 0.25,
          "durationTicks": 60,
          "midi": 56,
          "name": "G#3",
          "ticks": 11675,
          "time": 48.645833333333336,
          "velocity": 0.7795275590551181
        },
        {
          "duration": 0.44166666666667,
          "durationTicks": 106,
          "midi": 57,
          "name": "A3",
          "ticks": 11757,
          "time": 48.9875,
          "velocity": 0.8661417322834646
        },
        {
          "duration": 0.04999999999999716,
          "durationTicks": 12,
          "midi": 59,
          "name": "B3",
          "ticks": 11870,
          "time": 49.458333333333336,
          "velocity": 0.6850393700787402
        },
        {
          "duration": 0.0416666666666643,
          "durationTicks": 10,
          "midi": 51,
          "name": "D#3",
          "ticks": 11915,
          "time": 49.645833333333336,
          "velocity": 0.6614173228346457
        },
        {
          "duration": 0.14999999999999858,
          "durationTicks": 36,
          "midi": 52,
          "name": "E3",
          "ticks": 11932,
          "time": 49.71666666666667,
          "velocity": 0.7559055118110236
        },
        {
          "duration": 0.12083333333333002,
          "durationTicks": 29,
          "midi": 30,
          "name": "F#1",
          "ticks": 12026,
          "time": 50.108333333333334,
          "velocity": 0.4015748031496063
        },
        {
          "duration": 0.3708333333333371,
          "durationTicks": 89,
          "midi": 60,
          "name": "C4",
          "ticks": 12083,
          "time": 50.34583333333333,
          "velocity": 0.7952755905511811
        },
        {
          "duration": 0.3500000000000014,
          "durationTicks": 84,
          "midi": 59,
          "name": "B3",
          "ticks": 12177,
          "time": 50.7375,
          "velocity": 0.8110236220472441
        },
        {
          "duration": 0.24166666666666714,
          "durationTicks": 58,
          "midi": 60,
          "name": "C4",
          "ticks": 12280,
          "time": 51.166666666666664,
          "velocity": 0.7874015748031497
        },
        {
          "duration": 0.0625,
          "durationTicks": 15,
          "midi": 60,
          "name": "C4",
          "ticks": 12347,
          "time": 51.44583333333333,
          "velocity": 0.6771653543307087
        },
        {
          "duration": 0.19999999999999574,
          "durationTicks": 48,
          "midi": 62,
          "name": "D4",
          "ticks": 12371,
          "time": 51.545833333333334,
          "velocity": 0.8188976377952756
        },
        {
          "duration": 0.09166666666666856,
          "durationTicks": 22,
          "midi": 59,
          "name": "B3",
          "ticks": 12448,
          "time": 51.86666666666667,
          "velocity": 0.6929133858267716
        },
        {
          "duration": 0.30000000000000426,
          "durationTicks": 72,
          "midi": 60,
          "name": "C4",
          "ticks": 12477,
          "time": 51.9875,
          "velocity": 0.8188976377952756
        },
        {
          "duration": 0.11249999999999716,
          "durationTicks": 27,
          "midi": 59,
          "name": "B3",
          "ticks": 12551,
          "time": 52.295833333333334,
          "velocity": 0.8188976377952756
        },
        {
          "duration": 0.05000000000000426,
          "durationTicks": 12,
          "midi": 88,
          "name": "E6",
          "ticks": 12595,
          "time": 52.479166666666664,
          "velocity": 0.31496062992125984
        },
        {
          "duration": 0.20000000000000284,
          "durationTicks": 48,
          "midi": 57,
          "name": "A3",
          "ticks": 12614,
          "time": 52.55833333333333,
          "velocity": 0.8110236220472441
        },
        {
          "duration": 0.2083333333333357,
          "durationTicks": 50,
          "midi": 57,
          "name": "A3",
          "ticks": 12679,
          "time": 52.829166666666666,
          "velocity": 0.8740157480314961
        },
        {
          "duration": 0.04999999999999716,
          "durationTicks": 12,
          "midi": 38,
          "name": "D2",
          "ticks": 12729,
          "time": 53.0375,
          "velocity": 0.6299212598425197
        },
        {
          "duration": 0.1875,
          "durationTicks": 45,
          "midi": 57,
          "name": "A3",
          "ticks": 12806,
          "time": 53.358333333333334,
          "velocity": 0.84251968503937
        },
        {
          "duration": 0.2874999999999943,
          "durationTicks": 69,
          "midi": 55,
          "name": "G3",
          "ticks": 12890,
          "time": 53.708333333333336,
          "velocity": 0.7007874015748031
        },
        {
          "duration": 0.3499999999999943,
          "durationTicks": 84,
          "midi": 57,
          "name": "A3",
          "ticks": 12976,
          "time": 54.06666666666667,
          "velocity": 0.8031496062992126
        },
        {
          "duration": 0.13750000000000284,
          "durationTicks": 33,
          "midi": 57,
          "name": "A3",
          "ticks": 13075,
          "time": 54.479166666666664,
          "velocity": 0.8267716535433071
        },
        {
          "duration": 0.19166666666666288,
          "durationTicks": 46,
          "midi": 59,
          "name": "B3",
          "ticks": 13115,
          "time": 54.645833333333336,
          "velocity": 0.7795275590551181
        },
        {
          "duration": 0.12916666666666998,
          "durationTicks": 31,
          "midi": 55,
          "name": "G3",
          "ticks": 13204,
          "time": 55.016666666666666,
          "velocity": 0.8267716535433071
        },
        {
          "duration": 0.7000000000000028,
          "durationTicks": 168,
          "midi": 57,
          "name": "A3",
          "ticks": 13247,
          "time": 55.19583333333333,
          "velocity": 0.8503937007874016
        },
        {
          "duration": 0.0625,
          "durationTicks": 15,
          "midi": 52,
          "name": "E3",
          "ticks": 13439,
          "time": 55.99583333333333,
          "velocity": 0.28346456692913385
        },
        {
          "duration": 0.08749999999999858,
          "durationTicks": 21,
          "midi": 55,
          "name": "G3",
          "ticks": 13478,
          "time": 56.15833333333333,
          "velocity": 0.6929133858267716
        },
        {
          "duration": 0.29999999999999716,
          "durationTicks": 72,
          "midi": 57,
          "name": "A3",
          "ticks": 13511,
          "time": 56.295833333333334,
          "velocity": 0.7716535433070866
        },
        {
          "duration": 0.37916666666667,
          "durationTicks": 91,
          "midi": 59,
          "name": "B3",
          "ticks": 13598,
          "time": 56.65833333333333,
          "velocity": 0.7795275590551181
        },
        {
          "duration": 0.17916666666666714,
          "durationTicks": 43,
          "midi": 60,
          "name": "C4",
          "ticks": 13694,
          "time": 57.05833333333333,
          "velocity": 0.7952755905511811
        },
        {
          "duration": 0.07083333333333997,
          "durationTicks": 17,
          "midi": 60,
          "name": "C4",
          "ticks": 13754,
          "time": 57.30833333333333,
          "velocity": 0.6771653543307087
        },
        {
          "duration": 0.26249999999999574,
          "durationTicks": 63,
          "midi": 59,
          "name": "B3",
          "ticks": 13775,
          "time": 57.395833333333336,
          "velocity": 0.7165354330708661
        },
        {
          "duration": 0.2666666666666657,
          "durationTicks": 64,
          "midi": 60,
          "name": "C4",
          "ticks": 13843,
          "time": 57.67916666666667,
          "velocity": 0.6850393700787402
        },
        {
          "duration": 0.3583333333333343,
          "durationTicks": 86,
          "midi": 62,
          "name": "D4",
          "ticks": 13915,
          "time": 57.979166666666664,
          "velocity": 0.8976377952755905
        },
        {
          "duration": 0.21249999999999858,
          "durationTicks": 51,
          "midi": 55,
          "name": "G3",
          "ticks": 14008,
          "time": 58.36666666666667,
          "velocity": 0.8110236220472441
        },
        {
          "duration": 0.4166666666666643,
          "durationTicks": 100,
          "midi": 55,
          "name": "G3",
          "ticks": 14071,
          "time": 58.62916666666667,
          "velocity": 0.6535433070866141
        },
        {
          "duration": 0.19999999999999574,
          "durationTicks": 48,
          "midi": 64,
          "name": "E4",
          "ticks": 14171,
          "time": 59.045833333333334,
          "velocity": 0.7244094488188977
        },
        {
          "duration": 0.09166666666666856,
          "durationTicks": 22,
          "midi": 65,
          "name": "F4",
          "ticks": 14224,
          "time": 59.266666666666666,
          "velocity": 0.6614173228346457
        },
        {
          "duration": 0.07916666666666572,
          "durationTicks": 19,
          "midi": 62,
          "name": "D4",
          "ticks": 14282,
          "time": 59.50833333333333,
          "velocity": 0.7401574803149606
        },
        {
          "duration": 0.0833333333333357,
          "durationTicks": 20,
          "midi": 40,
          "name": "E2",
          "ticks": 14303,
          "time": 59.59583333333333,
          "velocity": 0.5669291338582677
        },
        {
          "duration": 0.2291666666666643,
          "durationTicks": 55,
          "midi": 62,
          "name": "D4",
          "ticks": 14325,
          "time": 59.6875,
          "velocity": 0.84251968503937
        },
        {
          "duration": 0.11249999999999716,
          "durationTicks": 27,
          "midi": 62,
          "name": "D4",
          "ticks": 14392,
          "time": 59.96666666666667,
          "velocity": 0.8582677165354331
        },
        {
          "duration": 0.14166666666666572,
          "durationTicks": 34,
          "midi": 60,
          "name": "C4",
          "ticks": 14452,
          "time": 60.21666666666667,
          "velocity": 0.8582677165354331
        },
        {
          "duration": 0.5625,
          "durationTicks": 135,
          "midi": 57,
          "name": "A3",
          "ticks": 14500,
          "time": 60.416666666666664,
          "velocity": 0.8346456692913385
        },
        {
          "duration": 0.4583333333333357,
          "durationTicks": 110,
          "midi": 59,
          "name": "B3",
          "ticks": 14642,
          "time": 61.00833333333333,
          "velocity": 0.8740157480314961
        },
        {
          "duration": 0.11666666666666714,
          "durationTicks": 28,
          "midi": 60,
          "name": "C4",
          "ticks": 14755,
          "time": 61.479166666666664,
          "velocity": 0.7559055118110236
        },
        {
          "duration": 0.30000000000000426,
          "durationTicks": 72,
          "midi": 59,
          "name": "B3",
          "ticks": 14815,
          "time": 61.729166666666664,
          "velocity": 0.7716535433070866
        },
        {
          "duration": 0.16250000000000142,
          "durationTicks": 39,
          "midi": 60,
          "name": "C4",
          "ticks": 14891,
          "time": 62.045833333333334,
          "velocity": 0.84251968503937
        },
        {
          "duration": 0.19999999999999574,
          "durationTicks": 48,
          "midi": 62,
          "name": "D4",
          "ticks": 14966,
          "time": 62.358333333333334,
          "velocity": 0.889763779527559
        },
        {
          "duration": 0.0416666666666643,
          "durationTicks": 10,
          "midi": 54,
          "name": "F#3",
          "ticks": 15035,
          "time": 62.645833333333336,
          "velocity": 0.6377952755905512
        },
        {
          "duration": 0.2874999999999943,
          "durationTicks": 69,
          "midi": 55,
          "name": "G3",
          "ticks": 15050,
          "time": 62.708333333333336,
          "velocity": 0.8503937007874016
        },
        {
          "duration": 0.15833333333333144,
          "durationTicks": 38,
          "midi": 64,
          "name": "E4",
          "ticks": 15122,
          "time": 63.00833333333333,
          "velocity": 0.3858267716535433
        },
        {
          "duration": 0.21249999999999858,
          "durationTicks": 51,
          "midi": 64,
          "name": "E4",
          "ticks": 15227,
          "time": 63.44583333333333,
          "velocity": 0.7244094488188977
        },
        {
          "duration": 0.10833333333333428,
          "durationTicks": 26,
          "midi": 65,
          "name": "F4",
          "ticks": 15283,
          "time": 63.67916666666667,
          "velocity": 0.5118110236220472
        },
        {
          "duration": 0.1874999999999929,
          "durationTicks": 45,
          "midi": 62,
          "name": "D4",
          "ticks": 15331,
          "time": 63.87916666666667,
          "velocity": 0.6614173228346457
        },
        {
          "duration": 0.4583333333333286,
          "durationTicks": 110,
          "midi": 64,
          "name": "E4",
          "ticks": 15386,
          "time": 64.10833333333333,
          "velocity": 0.8346456692913385
        },
        {
          "duration": 0.05833333333333712,
          "durationTicks": 14,
          "midi": 48,
          "name": "C3",
          "ticks": 15513,
          "time": 64.6375,
          "velocity": 0.2204724409448819
        },
        {
          "duration": 0.10833333333333428,
          "durationTicks": 26,
          "midi": 55,
          "name": "G3",
          "ticks": 15561,
          "time": 64.8375,
          "velocity": 0.7559055118110236
        },
        {
          "duration": 0.3291666666666657,
          "durationTicks": 79,
          "midi": 57,
          "name": "A3",
          "ticks": 15602,
          "time": 65.00833333333334,
          "velocity": 0.7244094488188977
        },
        {
          "duration": 0.38333333333333997,
          "durationTicks": 92,
          "midi": 59,
          "name": "B3",
          "ticks": 15695,
          "time": 65.39583333333333,
          "velocity": 0.8188976377952756
        },
        {
          "duration": 0.32083333333333997,
          "durationTicks": 77,
          "midi": 60,
          "name": "C4",
          "ticks": 15789,
          "time": 65.7875,
          "velocity": 0.889763779527559
        },
        {
          "duration": 0.30000000000001137,
          "durationTicks": 72,
          "midi": 59,
          "name": "B3",
          "ticks": 15868,
          "time": 66.11666666666666,
          "velocity": 0.84251968503937
        },
        {
          "duration": 0.24166666666666003,
          "durationTicks": 58,
          "midi": 60,
          "name": "C4",
          "ticks": 15945,
          "time": 66.4375,
          "velocity": 0.7322834645669292
        },
        {
          "duration": 0.32083333333333997,
          "durationTicks": 77,
          "midi": 62,
          "name": "D4",
          "ticks": 16010,
          "time": 66.70833333333333,
          "velocity": 0.8740157480314961
        },
        {
          "duration": 0.6083333333333343,
          "durationTicks": 146,
          "midi": 55,
          "name": "G3",
          "ticks": 16089,
          "time": 67.0375,
          "velocity": 0.7637795275590551
        },
        {
          "duration": 0.1916666666666771,
          "durationTicks": 46,
          "midi": 64,
          "name": "E4",
          "ticks": 16269,
          "time": 67.7875,
          "velocity": 0.8582677165354331
        },
        {
          "duration": 0.14166666666666572,
          "durationTicks": 34,
          "midi": 65,
          "name": "F4",
          "ticks": 16319,
          "time": 67.99583333333334,
          "velocity": 0.7874015748031497
        },
        {
          "duration": 0.10000000000000853,
          "durationTicks": 24,
          "midi": 62,
          "name": "D4",
          "ticks": 16377,
          "time": 68.2375,
          "velocity": 0.8503937007874016
        },
        {
          "duration": 0.17916666666667425,
          "durationTicks": 43,
          "midi": 62,
          "name": "D4",
          "ticks": 16418,
          "time": 68.40833333333333,
          "velocity": 0.7795275590551181
        },
        {
          "duration": 0.12083333333333712,
          "durationTicks": 29,
          "midi": 62,
          "name": "D4",
          "ticks": 16490,
          "time": 68.70833333333333,
          "velocity": 0.7716535433070866
        },
        {
          "duration": 0.04166666666665719,
          "durationTicks": 10,
          "midi": 40,
          "name": "E2",
          "ticks": 16521,
          "time": 68.8375,
          "velocity": 0.4015748031496063
        },
        {
          "duration": 0.5,
          "durationTicks": 120,
          "midi": 60,
          "name": "C4",
          "ticks": 16540,
          "time": 68.91666666666667,
          "velocity": 0.8740157480314961
        },
        {
          "duration": 0.0625,
          "durationTicks": 15,
          "midi": 86,
          "name": "D6",
          "ticks": 16703,
          "time": 69.59583333333333,
          "velocity": 0.13385826771653545
        },
        {
          "duration": 0.15000000000000568,
          "durationTicks": 36,
          "midi": 59,
          "name": "B3",
          "ticks": 16744,
          "time": 69.76666666666667,
          "velocity": 0.6850393700787402
        },
        {
          "duration": 0.34166666666666856,
          "durationTicks": 82,
          "midi": 57,
          "name": "A3",
          "ticks": 16804,
          "time": 70.01666666666667,
          "velocity": 0.7795275590551181
        },
        {
          "duration": 0.15833333333333144,
          "durationTicks": 38,
          "midi": 78,
          "name": "F#5",
          "ticks": 16898,
          "time": 70.40833333333333,
          "velocity": 0.7480314960629921
        },
        {
          "duration": 0.17083333333333428,
          "durationTicks": 41,
          "midi": 60,
          "name": "C4",
          "ticks": 16994,
          "time": 70.80833333333334,
          "velocity": 0.8346456692913385
        },
        {
          "duration": 0.1875,
          "durationTicks": 45,
          "midi": 57,
          "name": "A3",
          "ticks": 17054,
          "time": 71.05833333333334,
          "velocity": 0.7874015748031497
        },
        {
          "duration": 0.1291666666666771,
          "durationTicks": 31,
          "midi": 59,
          "name": "B3",
          "ticks": 17109,
          "time": 71.2875,
          "velocity": 0.6929133858267716
        },
        {
          "duration": 0.14999999999999147,
          "durationTicks": 36,
          "midi": 40,
          "name": "E2",
          "ticks": 17174,
          "time": 71.55833333333334,
          "velocity": 0.5748031496062992
        },
        {
          "duration": 0.23333333333332007,
          "durationTicks": 56,
          "midi": 57,
          "name": "A3",
          "ticks": 17267,
          "time": 71.94583333333334,
          "velocity": 0.8031496062992126
        },
        {
          "duration": 0.10000000000000853,
          "durationTicks": 24,
          "midi": 55,
          "name": "G3",
          "ticks": 17337,
          "time": 72.2375,
          "velocity": 0.7952755905511811
        },
        {
          "duration": 0.18333333333333712,
          "durationTicks": 44,
          "midi": 57,
          "name": "A3",
          "ticks": 17375,
          "time": 72.39583333333333,
          "velocity": 0.7559055118110236
        },
        {
          "duration": 0.6166666666666742,
          "durationTicks": 148,
          "midi": 57,
          "name": "A3",
          "ticks": 17431,
          "time": 72.62916666666666,
          "velocity": 0.8503937007874016
        },
        {
          "duration": 0.04999999999999716,
          "durationTicks": 12,
          "midi": 33,
          "name": "A1",
          "ticks": 17582,
          "time": 73.25833333333334,
          "velocity": 0.47244094488188976
        },
        {
          "duration": 0.0625,
          "durationTicks": 15,
          "midi": 55,
          "name": "G3",
          "ticks": 17608,
          "time": 73.36666666666666,
          "velocity": 0.10236220472440945
        },
        {
          "duration": 0.04999999999999716,
          "durationTicks": 12,
          "midi": 27,
          "name": "D#1",
          "ticks": 17632,
          "time": 73.46666666666667,
          "velocity": 0.3779527559055118
        },
        {
          "duration": 0.10833333333333428,
          "durationTicks": 26,
          "midi": 55,
          "name": "G3",
          "ticks": 17654,
          "time": 73.55833333333334,
          "velocity": 0.6850393700787402
        },
        {
          "duration": 0.11666666666666003,
          "durationTicks": 28,
          "midi": 57,
          "name": "A3",
          "ticks": 17695,
          "time": 73.72916666666667,
          "velocity": 0.6771653543307087
        },
        {
          "duration": 0.037500000000008527,
          "durationTicks": 9,
          "midi": 30,
          "name": "F#1",
          "ticks": 17731,
          "time": 73.87916666666666,
          "velocity": 0.36220472440944884
        },
        {
          "duration": 0.037499999999994316,
          "durationTicks": 9,
          "midi": 35,
          "name": "B1",
          "ticks": 17755,
          "time": 73.97916666666667,
          "velocity": 0.25196850393700787
        },
        {
          "duration": 0.40833333333333144,
          "durationTicks": 98,
          "midi": 59,
          "name": "B3",
          "ticks": 17779,
          "time": 74.07916666666667,
          "velocity": 0.84251968503937
        },
        {
          "duration": 0.1875,
          "durationTicks": 45,
          "midi": 60,
          "name": "C4",
          "ticks": 17882,
          "time": 74.50833333333334,
          "velocity": 0.8267716535433071
        },
        {
          "duration": 0.0625,
          "durationTicks": 15,
          "midi": 60,
          "name": "C4",
          "ticks": 17944,
          "time": 74.76666666666667,
          "velocity": 0.7244094488188977
        },
        {
          "duration": 0.28333333333333144,
          "durationTicks": 68,
          "midi": 59,
          "name": "B3",
          "ticks": 17963,
          "time": 74.84583333333333,
          "velocity": 0.8582677165354331
        },
        {
          "duration": 0.20000000000000284,
          "durationTicks": 48,
          "midi": 60,
          "name": "C4",
          "ticks": 18050,
          "time": 75.20833333333333,
          "velocity": 0.6614173228346457
        },
        {
          "duration": 0.2916666666666714,
          "durationTicks": 70,
          "midi": 62,
          "name": "D4",
          "ticks": 18105,
          "time": 75.4375,
          "velocity": 0.8740157480314961
        },
        {
          "duration": 0.3708333333333229,
          "durationTicks": 89,
          "midi": 55,
          "name": "G3",
          "ticks": 18182,
          "time": 75.75833333333334,
          "velocity": 0.7952755905511811
        },
        {
          "duration": 0.25,
          "durationTicks": 60,
          "midi": 64,
          "name": "E4",
          "ticks": 18350,
          "time": 76.45833333333333,
          "velocity": 0.8740157480314961
        },
        {
          "duration": 0.07916666666666572,
          "durationTicks": 19,
          "midi": 62,
          "name": "D4",
          "ticks": 18475,
          "time": 76.97916666666667,
          "velocity": 0.7401574803149606
        },
        {
          "duration": 0.17083333333333428,
          "durationTicks": 41,
          "midi": 62,
          "name": "D4",
          "ticks": 18518,
          "time": 77.15833333333333,
          "velocity": 0.7322834645669292
        },
        {
          "duration": 0.12083333333333712,
          "durationTicks": 29,
          "midi": 62,
          "name": "D4",
          "ticks": 18585,
          "time": 77.4375,
          "velocity": 0.8503937007874016
        },
        {
          "duration": 0.15000000000000568,
          "durationTicks": 36,
          "midi": 60,
          "name": "C4",
          "ticks": 18638,
          "time": 77.65833333333333,
          "velocity": 0.7480314960629921
        },
        {
          "duration": 0.5416666666666714,
          "durationTicks": 130,
          "midi": 57,
          "name": "A3",
          "ticks": 18688,
          "time": 77.86666666666666,
          "velocity": 0.7559055118110236
        },
        {
          "duration": 0.20000000000000284,
          "durationTicks": 48,
          "midi": 59,
          "name": "B3",
          "ticks": 18837,
          "time": 78.4875,
          "velocity": 0.7480314960629921
        },
        {
          "duration": 0.12916666666666288,
          "durationTicks": 31,
          "midi": 59,
          "name": "B3",
          "ticks": 18897,
          "time": 78.7375,
          "velocity": 0.8346456692913385
        },
        {
          "duration": 0.20000000000000284,
          "durationTicks": 48,
          "midi": 60,
          "name": "C4",
          "ticks": 18933,
          "time": 78.8875,
          "velocity": 0.7480314960629921
        },
        {
          "duration": 0.32083333333332575,
          "durationTicks": 77,
          "midi": 59,
          "name": "B3",
          "ticks": 19000,
          "time": 79.16666666666667,
          "velocity": 0.7637795275590551
        },
        {
          "duration": 0.2291666666666572,
          "durationTicks": 55,
          "midi": 60,
          "name": "C4",
          "ticks": 19094,
          "time": 79.55833333333334,
          "velocity": 0.7401574803149606
        },
        {
          "duration": 0.17916666666667425,
          "durationTicks": 43,
          "midi": 62,
          "name": "D4",
          "ticks": 19159,
          "time": 79.82916666666667,
          "velocity": 0.7322834645669292
        },
        {
          "duration": 0.20000000000000284,
          "durationTicks": 48,
          "midi": 55,
          "name": "G3",
          "ticks": 19252,
          "time": 80.21666666666667,
          "velocity": 0.7401574803149606
        },
        {
          "duration": 0.2291666666666714,
          "durationTicks": 55,
          "midi": 67,
          "name": "G4",
          "ticks": 19348,
          "time": 80.61666666666666,
          "velocity": 0.44881889763779526
        },
        {
          "duration": 0.14166666666666572,
          "durationTicks": 34,
          "midi": 64,
          "name": "E4",
          "ticks": 19415,
          "time": 80.89583333333333,
          "velocity": 0.7874015748031497
        },
        {
          "duration": 0.08749999999999147,
          "durationTicks": 21,
          "midi": 65,
          "name": "F4",
          "ticks": 19454,
          "time": 81.05833333333334,
          "velocity": 0.7244094488188977
        },
        {
          "duration": 0.12916666666666288,
          "durationTicks": 31,
          "midi": 62,
          "name": "D4",
          "ticks": 19521,
          "time": 81.3375,
          "velocity": 0.8346456692913385
        },
        {
          "duration": 0.42916666666666003,
          "durationTicks": 103,
          "midi": 64,
          "name": "E4",
          "ticks": 19562,
          "time": 81.50833333333334,
          "velocity": 0.7322834645669292
        },
        {
          "duration": 0.05833333333332291,
          "durationTicks": 14,
          "midi": 48,
          "name": "C3",
          "ticks": 19701,
          "time": 82.0875,
          "velocity": 0.28346456692913385
        },
        {
          "duration": 0.041666666666671404,
          "durationTicks": 10,
          "midi": 56,
          "name": "G#3",
          "ticks": 19751,
          "time": 82.29583333333333,
          "velocity": 0.6141732283464567
        },
        {
          "duration": 0.037499999999994316,
          "durationTicks": 9,
          "midi": 55,
          "name": "G3",
          "ticks": 19766,
          "time": 82.35833333333333,
          "velocity": 0.48031496062992124
        },
        {
          "duration": 0.13750000000000284,
          "durationTicks": 33,
          "midi": 57,
          "name": "A3",
          "ticks": 19790,
          "time": 82.45833333333333,
          "velocity": 0.7401574803149606
        },
        {
          "duration": 0.10000000000000853,
          "durationTicks": 24,
          "midi": 57,
          "name": "A3",
          "ticks": 19843,
          "time": 82.67916666666666,
          "velocity": 0.4409448818897638
        },
        {
          "duration": 0.38750000000000284,
          "durationTicks": 93,
          "midi": 59,
          "name": "B3",
          "ticks": 19879,
          "time": 82.82916666666667,
          "velocity": 0.7480314960629921
        },
        {
          "duration": 0.22083333333333144,
          "durationTicks": 53,
          "midi": 60,
          "name": "C4",
          "ticks": 19977,
          "time": 83.2375,
          "velocity": 0.8346456692913385
        },
        {
          "duration": 0.07083333333332575,
          "durationTicks": 17,
          "midi": 60,
          "name": "C4",
          "ticks": 20042,
          "time": 83.50833333333334,
          "velocity": 0.7637795275590551
        },
        {
          "duration": 0.23333333333333428,
          "durationTicks": 56,
          "midi": 59,
          "name": "B3",
          "ticks": 20063,
          "time": 83.59583333333333,
          "velocity": 0.8503937007874016
        },
        {
          "duration": 0.25,
          "durationTicks": 60,
          "midi": 60,
          "name": "C4",
          "ticks": 20128,
          "time": 83.86666666666666,
          "velocity": 0.6692913385826772
        },
        {
          "duration": 0.25833333333333997,
          "durationTicks": 62,
          "midi": 62,
          "name": "D4",
          "ticks": 20198,
          "time": 84.15833333333333,
          "velocity": 0.9212598425196851
        },
        {
          "duration": 0.36249999999999716,
          "durationTicks": 87,
          "midi": 55,
          "name": "G3",
          "ticks": 20267,
          "time": 84.44583333333334,
          "velocity": 0.7480314960629921
        },
        {
          "duration": 0.09166666666666856,
          "durationTicks": 22,
          "midi": 60,
          "name": "C4",
          "ticks": 20464,
          "time": 85.26666666666667,
          "velocity": 0.6850393700787402
        },
        {
          "duration": 0.22083333333333144,
          "durationTicks": 53,
          "midi": 62,
          "name": "D4",
          "ticks": 20498,
          "time": 85.40833333333333,
          "velocity": 0.6456692913385826
        },
        {
          "duration": 0.3083333333333371,
          "durationTicks": 74,
          "midi": 60,
          "name": "C4",
          "ticks": 20577,
          "time": 85.7375,
          "velocity": 0.6456692913385826
        },
        {
          "duration": 0.3499999999999943,
          "durationTicks": 84,
          "midi": 62,
          "name": "D4",
          "ticks": 20666,
          "time": 86.10833333333333,
          "velocity": 0.8031496062992126
        },
        {
          "duration": 0.15833333333333144,
          "durationTicks": 38,
          "midi": 64,
          "name": "E4",
          "ticks": 20757,
          "time": 86.4875,
          "velocity": 0.7952755905511811
        },
        {
          "duration": 0.0625,
          "durationTicks": 15,
          "midi": 59,
          "name": "B3",
          "ticks": 20831,
          "time": 86.79583333333333,
          "velocity": 0.6062992125984252
        },
        {
          "duration": 0.07916666666667993,
          "durationTicks": 19,
          "midi": 79,
          "name": "G5",
          "ticks": 20848,
          "time": 86.86666666666666,
          "velocity": 0.6377952755905512
        },
        {
          "duration": 0.13749999999998863,
          "durationTicks": 33,
          "midi": 59,
          "name": "B3",
          "ticks": 20875,
          "time": 86.97916666666667,
          "velocity": 0.6220472440944882
        },
        {
          "duration": 0.07083333333332575,
          "durationTicks": 17,
          "midi": 60,
          "name": "C4",
          "ticks": 20913,
          "time": 87.1375,
          "velocity": 0.7637795275590551
        },
        {
          "duration": 0.09999999999999432,
          "durationTicks": 24,
          "midi": 59,
          "name": "B3",
          "ticks": 20935,
          "time": 87.22916666666667,
          "velocity": 0.8031496062992126
        },
        {
          "duration": 0.041666666666671404,
          "durationTicks": 10,
          "midi": 55,
          "name": "G3",
          "ticks": 20975,
          "time": 87.39583333333333,
          "velocity": 0.6062992125984252
        },
        {
          "duration": 0.49166666666666003,
          "durationTicks": 118,
          "midi": 57,
          "name": "A3",
          "ticks": 20992,
          "time": 87.46666666666667,
          "velocity": 0.7716535433070866
        },
        {
          "duration": 0.15833333333333144,
          "durationTicks": 38,
          "midi": 57,
          "name": "A3",
          "ticks": 21199,
          "time": 88.32916666666667,
          "velocity": 0.7716535433070866
        },
        {
          "duration": 0.42916666666666003,
          "durationTicks": 103,
          "midi": 55,
          "name": "G3",
          "ticks": 21247,
          "time": 88.52916666666667,
          "velocity": 0.8582677165354331
        },
        {
          "duration": 0.47083333333333144,
          "durationTicks": 113,
          "midi": 57,
          "name": "A3",
          "ticks": 21359,
          "time": 88.99583333333334,
          "velocity": 0.8031496062992126
        },
        {
          "duration": 0.12916666666666288,
          "durationTicks": 31,
          "midi": 59,
          "name": "B3",
          "ticks": 21482,
          "time": 89.50833333333334,
          "velocity": 0.7637795275590551
        },
        {
          "duration": 0.14166666666666572,
          "durationTicks": 34,
          "midi": 55,
          "name": "G3",
          "ticks": 21580,
          "time": 89.91666666666667,
          "velocity": 0.7716535433070866
        },
        {
          "duration": 0.4208333333333343,
          "durationTicks": 101,
          "midi": 57,
          "name": "A3",
          "ticks": 21623,
          "time": 90.09583333333333,
          "velocity": 0.8031496062992126
        },
        {
          "duration": 0.09166666666666856,
          "durationTicks": 22,
          "midi": 57,
          "name": "A3",
          "ticks": 21743,
          "time": 90.59583333333333,
          "velocity": 0.5511811023622047
        },
        {
          "duration": 0.09999999999999432,
          "durationTicks": 24,
          "midi": 64,
          "name": "E4",
          "ticks": 21782,
          "time": 90.75833333333334,
          "velocity": 0.11023622047244094
        },
        {
          "duration": 0.037499999999994316,
          "durationTicks": 9,
          "midi": 56,
          "name": "G#3",
          "ticks": 21842,
          "time": 91.00833333333334,
          "velocity": 0.6771653543307087
        },
        {
          "duration": 0.16250000000000853,
          "durationTicks": 39,
          "midi": 57,
          "name": "A3",
          "ticks": 21856,
          "time": 91.06666666666666,
          "velocity": 0.6456692913385826
        },
        {
          "duration": 0.2291666666666714,
          "durationTicks": 55,
          "midi": 59,
          "name": "B3",
          "ticks": 21907,
          "time": 91.27916666666667,
          "velocity": 0.7952755905511811
        },
        {
          "duration": 0.20000000000000284,
          "durationTicks": 48,
          "midi": 60,
          "name": "C4",
          "ticks": 21979,
          "time": 91.57916666666667,
          "velocity": 0.7559055118110236
        },
        {
          "duration": 0.17083333333333428,
          "durationTicks": 41,
          "midi": 55,
          "name": "G3",
          "ticks": 22043,
          "time": 91.84583333333333,
          "velocity": 0.7086614173228346
        },
        {
          "duration": 0.22083333333333144,
          "durationTicks": 53,
          "midi": 57,
          "name": "A3",
          "ticks": 22096,
          "time": 92.06666666666666,
          "velocity": 0.8110236220472441
        },
        {
          "duration": 0.04999999999999716,
          "durationTicks": 12,
          "midi": 56,
          "name": "G#3",
          "ticks": 22156,
          "time": 92.31666666666666,
          "velocity": 0.6535433070866141
        },
        {
          "duration": 0.1916666666666771,
          "durationTicks": 46,
          "midi": 57,
          "name": "A3",
          "ticks": 22175,
          "time": 92.39583333333333,
          "velocity": 0.8503937007874016
        },
        {
          "duration": 0.14999999999999147,
          "durationTicks": 36,
          "midi": 55,
          "name": "G3",
          "ticks": 22233,
          "time": 92.6375,
          "velocity": 0.7007874015748031
        },
        {
          "duration": 0.40833333333333144,
          "durationTicks": 98,
          "midi": 55,
          "name": "G3",
          "ticks": 22298,
          "time": 92.90833333333333,
          "velocity": 0.6850393700787402
        },
        {
          "duration": 0.26666666666667993,
          "durationTicks": 64,
          "midi": 55,
          "name": "G3",
          "ticks": 22423,
          "time": 93.42916666666666,
          "velocity": 0.8818897637795275
        },
        {
          "duration": 0.6916666666666629,
          "durationTicks": 166,
          "midi": 52,
          "name": "E3",
          "ticks": 22504,
          "time": 93.76666666666667,
          "velocity": 0.7086614173228346
        },
        {
          "duration": 0.15000000000000568,
          "durationTicks": 36,
          "midi": 52,
          "name": "E3",
          "ticks": 22684,
          "time": 94.51666666666667,
          "velocity": 0.5905511811023622
        },
        {
          "duration": 0.2916666666666714,
          "durationTicks": 70,
          "midi": 64,
          "name": "E4",
          "ticks": 22751,
          "time": 94.79583333333333,
          "velocity": 0.3228346456692913
        },
        {
          "duration": 0.07916666666666572,
          "durationTicks": 19,
          "midi": 60,
          "name": "C4",
          "ticks": 22852,
          "time": 95.21666666666667,
          "velocity": 0.2047244094488189
        },
        {
          "duration": 0.037499999999994316,
          "durationTicks": 9,
          "midi": 64,
          "name": "E4",
          "ticks": 22886,
          "time": 95.35833333333333,
          "velocity": 0.2440944881889764
        },
        {
          "duration": 0.1916666666666771,
          "durationTicks": 46,
          "midi": 57,
          "name": "A3",
          "ticks": 22895,
          "time": 95.39583333333333,
          "velocity": 0.6850393700787402
        },
        {
          "duration": 0.20000000000000284,
          "durationTicks": 48,
          "midi": 59,
          "name": "B3",
          "ticks": 22951,
          "time": 95.62916666666666,
          "velocity": 0.84251968503937
        },
        {
          "duration": 0.14999999999999147,
          "durationTicks": 36,
          "midi": 60,
          "name": "C4",
          "ticks": 23013,
          "time": 95.8875,
          "velocity": 0.8031496062992126
        },
        {
          "duration": 0.17083333333333428,
          "durationTicks": 41,
          "midi": 55,
          "name": "G3",
          "ticks": 23090,
          "time": 96.20833333333333,
          "velocity": 0.8110236220472441
        },
        {
          "duration": 0.7083333333333428,
          "durationTicks": 170,
          "midi": 57,
          "name": "A3",
          "ticks": 23143,
          "time": 96.42916666666666,
          "velocity": 0.8582677165354331
        },
        {
          "duration": 0.14999999999999147,
          "durationTicks": 36,
          "midi": 57,
          "name": "A3",
          "ticks": 23347,
          "time": 97.27916666666667,
          "velocity": 0.84251968503937
        },
        {
          "duration": 0.20000000000000284,
          "durationTicks": 48,
          "midi": 59,
          "name": "B3",
          "ticks": 23392,
          "time": 97.46666666666667,
          "velocity": 0.7244094488188977
        },
        {
          "duration": 0.06666666666667709,
          "durationTicks": 16,
          "midi": 31,
          "name": "G1",
          "ticks": 23443,
          "time": 97.67916666666666,
          "velocity": 0.5118110236220472
        },
        {
          "duration": 0.25,
          "durationTicks": 60,
          "midi": 59,
          "name": "B3",
          "ticks": 23476,
          "time": 97.81666666666666,
          "velocity": 0.8582677165354331
        },
        {
          "duration": 0.22083333333333144,
          "durationTicks": 53,
          "midi": 60,
          "name": "C4",
          "ticks": 23541,
          "time": 98.0875,
          "velocity": 0.6535433070866141
        },
        {
          "duration": 0.6416666666666799,
          "durationTicks": 154,
          "midi": 60,
          "name": "C4",
          "ticks": 23608,
          "time": 98.36666666666666,
          "velocity": 0.7165354330708661
        },
        {
          "duration": 0.05833333333333712,
          "durationTicks": 14,
          "midi": 59,
          "name": "B3",
          "ticks": 23767,
          "time": 99.02916666666667,
          "velocity": 0.5275590551181102
        },
        {
          "duration": 0.04999999999999716,
          "durationTicks": 12,
          "midi": 60,
          "name": "C4",
          "ticks": 23786,
          "time": 99.10833333333333,
          "velocity": 0.5669291338582677
        },
        {
          "duration": 0.3791666666666771,
          "durationTicks": 91,
          "midi": 36,
          "name": "C2",
          "ticks": 23836,
          "time": 99.31666666666666,
          "velocity": 0.3937007874015748
        },
        {
          "duration": 0.24166666666667425,
          "durationTicks": 58,
          "midi": 52,
          "name": "E3",
          "ticks": 23956,
          "time": 99.81666666666666,
          "velocity": 0.7086614173228346
        },
        {
          "duration": 0.3791666666666629,
          "durationTicks": 91,
          "midi": 55,
          "name": "G3",
          "ticks": 24064,
          "time": 100.26666666666667,
          "velocity": 0.7874015748031497
        },
        {
          "duration": 0.1833333333333229,
          "durationTicks": 44,
          "midi": 57,
          "name": "A3",
          "ticks": 24167,
          "time": 100.69583333333334,
          "velocity": 0.7086614173228346
        },
        {
          "duration": 0.04166666666665719,
          "durationTicks": 10,
          "midi": 55,
          "name": "G3",
          "ticks": 24239,
          "time": 100.99583333333334,
          "velocity": 0.6299212598425197
        },
        {
          "duration": 0.25,
          "durationTicks": 60,
          "midi": 56,
          "name": "G#3",
          "ticks": 24263,
          "time": 101.09583333333333,
          "velocity": 0.7480314960629921
        },
        {
          "duration": 0.1875,
          "durationTicks": 45,
          "midi": 57,
          "name": "A3",
          "ticks": 24326,
          "time": 101.35833333333333,
          "velocity": 0.7401574803149606
        },
        {
          "duration": 0.17083333333333428,
          "durationTicks": 41,
          "midi": 57,
          "name": "A3",
          "ticks": 24383,
          "time": 101.59583333333333,
          "velocity": 0.7007874015748031
        },
        {
          "duration": 0.05833333333332291,
          "durationTicks": 14,
          "midi": 59,
          "name": "B3",
          "ticks": 24434,
          "time": 101.80833333333334,
          "velocity": 0.6299212598425197
        },
        {
          "duration": 0.2708333333333286,
          "durationTicks": 65,
          "midi": 52,
          "name": "E3",
          "ticks": 24472,
          "time": 101.96666666666667,
          "velocity": 0.6850393700787402
        },
        {
          "duration": 0.11249999999999716,
          "durationTicks": 27,
          "midi": 52,
          "name": "E3",
          "ticks": 24556,
          "time": 102.31666666666666,
          "velocity": 0.3700787401574803
        },
        {
          "duration": 0.037500000000008527,
          "durationTicks": 9,
          "midi": 74,
          "name": "D5",
          "ticks": 24583,
          "time": 102.42916666666666,
          "velocity": 0.28346456692913385
        },
        {
          "duration": 0.29999999999999716,
          "durationTicks": 72,
          "midi": 60,
          "name": "C4",
          "ticks": 24655,
          "time": 102.72916666666667,
          "velocity": 0.8346456692913385
        },
        {
          "duration": 0.29999999999999716,
          "durationTicks": 72,
          "midi": 59,
          "name": "B3",
          "ticks": 24760,
          "time": 103.16666666666667,
          "velocity": 0.6850393700787402
        },
        {
          "duration": 0.15833333333333144,
          "durationTicks": 38,
          "midi": 60,
          "name": "C4",
          "ticks": 24847,
          "time": 103.52916666666667,
          "velocity": 0.7637795275590551
        },
        {
          "duration": 0.06666666666666288,
          "durationTicks": 16,
          "midi": 60,
          "name": "C4",
          "ticks": 24919,
          "time": 103.82916666666667,
          "velocity": 0.7716535433070866
        },
        {
          "duration": 0.17083333333333428,
          "durationTicks": 41,
          "midi": 62,
          "name": "D4",
          "ticks": 24945,
          "time": 103.9375,
          "velocity": 0.7795275590551181
        },
        {
          "duration": 0.041666666666671404,
          "durationTicks": 10,
          "midi": 60,
          "name": "C4",
          "ticks": 24995,
          "time": 104.14583333333333,
          "velocity": 0.48031496062992124
        },
        {
          "duration": 0.07083333333333997,
          "durationTicks": 17,
          "midi": 59,
          "name": "B3",
          "ticks": 25017,
          "time": 104.2375,
          "velocity": 0.7086614173228346
        },
        {
          "duration": 0.1875,
          "durationTicks": 45,
          "midi": 60,
          "name": "C4",
          "ticks": 25039,
          "time": 104.32916666666667,
          "velocity": 0.7716535433070866
        },
        {
          "duration": 0.04999999999999716,
          "durationTicks": 12,
          "midi": 60,
          "name": "C4",
          "ticks": 25113,
          "time": 104.6375,
          "velocity": 0.7480314960629921
        },
        {
          "duration": 0.07916666666666572,
          "durationTicks": 19,
          "midi": 59,
          "name": "B3",
          "ticks": 25130,
          "time": 104.70833333333333,
          "velocity": 0.6456692913385826
        },
        {
          "duration": 0.22083333333333144,
          "durationTicks": 53,
          "midi": 57,
          "name": "A3",
          "ticks": 25156,
          "time": 104.81666666666666,
          "velocity": 0.8188976377952756
        },
        {
          "duration": 0.14999999999999147,
          "durationTicks": 36,
          "midi": 57,
          "name": "A3",
          "ticks": 25274,
          "time": 105.30833333333334,
          "velocity": 0.8346456692913385
        },
        {
          "duration": 0.0625,
          "durationTicks": 15,
          "midi": 57,
          "name": "A3",
          "ticks": 25348,
          "time": 105.61666666666666,
          "velocity": 0.4330708661417323
        },
        {
          "duration": 0.041666666666671404,
          "durationTicks": 10,
          "midi": 59,
          "name": "B3",
          "ticks": 25377,
          "time": 105.7375,
          "velocity": 0.8188976377952756
        },
        {
          "duration": 0.13750000000000284,
          "durationTicks": 33,
          "midi": 57,
          "name": "A3",
          "ticks": 25394,
          "time": 105.80833333333334,
          "velocity": 0.6692913385826772
        },
        {
          "duration": 0.3083333333333371,
          "durationTicks": 74,
          "midi": 55,
          "name": "G3",
          "ticks": 25449,
          "time": 106.0375,
          "velocity": 0.7716535433070866
        },
        {
          "duration": 0.3291666666666657,
          "durationTicks": 79,
          "midi": 57,
          "name": "A3",
          "ticks": 25538,
          "time": 106.40833333333333,
          "velocity": 0.7322834645669292
        },
        {
          "duration": 0.12916666666666288,
          "durationTicks": 31,
          "midi": 57,
          "name": "A3",
          "ticks": 25639,
          "time": 106.82916666666667,
          "velocity": 0.8346456692913385
        },
        {
          "duration": 0.16249999999999432,
          "durationTicks": 39,
          "midi": 59,
          "name": "B3",
          "ticks": 25679,
          "time": 106.99583333333334,
          "velocity": 0.7086614173228346
        },
        {
          "duration": 0.15833333333333144,
          "durationTicks": 38,
          "midi": 55,
          "name": "G3",
          "ticks": 25773,
          "time": 107.3875,
          "velocity": 0.6929133858267716
        },
        {
          "duration": 2.620833333333323,
          "durationTicks": 629,
          "midi": 57,
          "name": "A3",
          "ticks": 25821,
          "time": 107.5875,
          "velocity": 0.7322834645669292
        },
        {
          "duration": 0.2291666666666714,
          "durationTicks": 55,
          "midi": 92,
          "name": "G#6",
          "ticks": 26479,
          "time": 110.32916666666667,
          "velocity": 0.2283464566929134
        },
        {
          "duration": 0.11250000000001137,
          "durationTicks": 27,
          "midi": 100,
          "name": "E7",
          "ticks": 26548,
          "time": 110.61666666666666,
          "velocity": 0.4645669291338583
        },
        {
          "duration": 0.23749999999999716,
          "durationTicks": 57,
          "midi": 92,
          "name": "G#6",
          "ticks": 26678,
          "time": 111.15833333333333,
          "velocity": 0.5196850393700787
        },
        {
          "duration": 0.17916666666666003,
          "durationTicks": 43,
          "midi": 92,
          "name": "G#6",
          "ticks": 26745,
          "time": 111.4375,
          "velocity": 0.14173228346456693
        },
        {
          "duration": 0.041666666666671404,
          "durationTicks": 10,
          "midi": 35,
          "name": "B1",
          "ticks": 26788,
          "time": 111.61666666666666,
          "velocity": 0.25196850393700787
        },
        {
          "duration": 0.07916666666666572,
          "durationTicks": 19,
          "midi": 57,
          "name": "A3",
          "ticks": 26851,
          "time": 111.87916666666666,
          "velocity": 0.5196850393700787
        },
        {
          "duration": 0.22083333333333144,
          "durationTicks": 53,
          "midi": 92,
          "name": "G#6",
          "ticks": 26939,
          "time": 112.24583333333334,
          "velocity": 0.5275590551181102
        },
        {
          "duration": 0.22083333333333144,
          "durationTicks": 53,
          "midi": 100,
          "name": "E7",
          "ticks": 27071,
          "time": 112.79583333333333,
          "velocity": 0.4409448818897638
        },
        {
          "duration": 0.05833333333333712,
          "durationTicks": 14,
          "midi": 57,
          "name": "A3",
          "ticks": 27158,
          "time": 113.15833333333333,
          "velocity": 0.11023622047244094
        },
        {
          "duration": 0.04166666666665719,
          "durationTicks": 10,
          "midi": 35,
          "name": "B1",
          "ticks": 27179,
          "time": 113.24583333333334,
          "velocity": 0.2440944881889764
        },
        {
          "duration": 0.24166666666666003,
          "durationTicks": 58,
          "midi": 92,
          "name": "G#6",
          "ticks": 27201,
          "time": 113.3375,
          "velocity": 0.5275590551181102
        },
        {
          "duration": 0.1291666666666771,
          "durationTicks": 31,
          "midi": 92,
          "name": "G#6",
          "ticks": 27268,
          "time": 113.61666666666666,
          "velocity": 0.14960629921259844
        },
        {
          "duration": 0.14166666666666572,
          "durationTicks": 34,
          "midi": 43,
          "name": "G2",
          "ticks": 27304,
          "time": 113.76666666666667,
          "velocity": 0.47244094488188976
        },
        {
          "duration": 0.15000000000000568,
          "durationTicks": 36,
          "midi": 43,
          "name": "G2",
          "ticks": 27386,
          "time": 114.10833333333333,
          "velocity": 0.6299212598425197
        },
        {
          "duration": 0.1875,
          "durationTicks": 45,
          "midi": 43,
          "name": "G2",
          "ticks": 27482,
          "time": 114.50833333333334,
          "velocity": 0.5669291338582677
        },
        {
          "duration": 0.22083333333333144,
          "durationTicks": 53,
          "midi": 62,
          "name": "D4",
          "ticks": 27597,
          "time": 114.9875,
          "velocity": 0.4645669291338583
        },
        {
          "duration": 0.15833333333334565,
          "durationTicks": 38,
          "midi": 69,
          "name": "A4",
          "ticks": 27729,
          "time": 115.5375,
          "velocity": 0.5511811023622047
        },
        {
          "duration": 0.0625,
          "durationTicks": 15,
          "midi": 93,
          "name": "A6",
          "ticks": 27767,
          "time": 115.69583333333334,
          "velocity": 0.1732283464566929
        },
        {
          "duration": 0.09999999999999432,
          "durationTicks": 24,
          "midi": 72,
          "name": "C5",
          "ticks": 27791,
          "time": 115.79583333333333,
          "velocity": 0.23622047244094488
        },
        {
          "duration": 0.09999999999999432,
          "durationTicks": 24,
          "midi": 96,
          "name": "C7",
          "ticks": 27866,
          "time": 116.10833333333333,
          "velocity": 0.7401574803149606
        },
        {
          "duration": 0.037499999999994316,
          "durationTicks": 9,
          "midi": 41,
          "name": "F2",
          "ticks": 27914,
          "time": 116.30833333333334,
          "velocity": 0.6456692913385826
        },
        {
          "duration": 0.0833333333333286,
          "durationTicks": 20,
          "midi": 41,
          "name": "F2",
          "ticks": 27947,
          "time": 116.44583333333334,
          "velocity": 0.47244094488188976
        },
        {
          "duration": 0.1875,
          "durationTicks": 45,
          "midi": 41,
          "name": "F2",
          "ticks": 28015,
          "time": 116.72916666666667,
          "velocity": 0.5511811023622047
        },
        {
          "duration": 0.12916666666666288,
          "durationTicks": 31,
          "midi": 64,
          "name": "E4",
          "ticks": 28144,
          "time": 117.26666666666667,
          "velocity": 0.6220472440944882
        },
        {
          "duration": 0.07083333333333997,
          "durationTicks": 17,
          "midi": 64,
          "name": "E4",
          "ticks": 28197,
          "time": 117.4875,
          "velocity": 0.11811023622047244
        },
        {
          "duration": 0.15833333333333144,
          "durationTicks": 38,
          "midi": 60,
          "name": "C4",
          "ticks": 28250,
          "time": 117.70833333333333,
          "velocity": 0.6456692913385826
        },
        {
          "duration": 0.10833333333333428,
          "durationTicks": 26,
          "midi": 92,
          "name": "G#6",
          "ticks": 28317,
          "time": 117.9875,
          "velocity": 0.11811023622047244
        },
        {
          "duration": 0.05833333333333712,
          "durationTicks": 14,
          "midi": 37,
          "name": "C#2",
          "ticks": 28353,
          "time": 118.1375,
          "velocity": 0.25984251968503935
        },
        {
          "duration": 0.12916666666666288,
          "durationTicks": 31,
          "midi": 100,
          "name": "E7",
          "ticks": 28382,
          "time": 118.25833333333334,
          "velocity": 0.44881889763779526
        },
        {
          "duration": 0.22083333333333144,
          "durationTicks": 53,
          "midi": 64,
          "name": "E4",
          "ticks": 28514,
          "time": 118.80833333333334,
          "velocity": 0.5118110236220472
        },
        {
          "duration": 0.12916666666666288,
          "durationTicks": 31,
          "midi": 100,
          "name": "E7",
          "ticks": 28641,
          "time": 119.3375,
          "velocity": 0.4566929133858268
        },
        {
          "duration": 0.30000000000001137,
          "durationTicks": 72,
          "midi": 35,
          "name": "B1",
          "ticks": 28749,
          "time": 119.7875,
          "velocity": 0.5275590551181102
        },
        {
          "duration": 0.18333333333333712,
          "durationTicks": 44,
          "midi": 92,
          "name": "G#6",
          "ticks": 28835,
          "time": 120.14583333333333,
          "velocity": 0.14173228346456693
        },
        {
          "duration": 0.10833333333333428,
          "durationTicks": 26,
          "midi": 60,
          "name": "C4",
          "ticks": 28903,
          "time": 120.42916666666666,
          "velocity": 0.13385826771653545
        },
        {
          "duration": 0.09166666666666856,
          "durationTicks": 22,
          "midi": 57,
          "name": "A3",
          "ticks": 28943,
          "time": 120.59583333333333,
          "velocity": 0.5826771653543307
        },
        {
          "duration": 0.07916666666666572,
          "durationTicks": 19,
          "midi": 64,
          "name": "E4",
          "ticks": 28977,
          "time": 120.7375,
          "velocity": 0.11811023622047244
        },
        {
          "duration": 0.22083333333333144,
          "durationTicks": 53,
          "midi": 64,
          "name": "E4",
          "ticks": 29037,
          "time": 120.9875,
          "velocity": 0.5196850393700787
        },
        {
          "duration": 0.2708333333333286,
          "durationTicks": 65,
          "midi": 33,
          "name": "A1",
          "ticks": 29164,
          "time": 121.51666666666667,
          "velocity": 0.5275590551181102
        },
        {
          "duration": 0.04999999999999716,
          "durationTicks": 12,
          "midi": 57,
          "name": "A3",
          "ticks": 29251,
          "time": 121.87916666666666,
          "velocity": 0.07874015748031496
        },
        {
          "duration": 0.037499999999994316,
          "durationTicks": 9,
          "midi": 35,
          "name": "B1",
          "ticks": 29275,
          "time": 121.97916666666667,
          "velocity": 0.2283464566929134
        },
        {
          "duration": 0.4208333333333343,
          "durationTicks": 101,
          "midi": 92,
          "name": "G#6",
          "ticks": 29294,
          "time": 122.05833333333334,
          "velocity": 0.5354330708661418
        },
        {
          "duration": 0.19166666666666288,
          "durationTicks": 46,
          "midi": 43,
          "name": "G2",
          "ticks": 29399,
          "time": 122.49583333333334,
          "velocity": 0.49606299212598426
        },
        {
          "duration": 0.041666666666671404,
          "durationTicks": 10,
          "midi": 43,
          "name": "G2",
          "ticks": 29452,
          "time": 122.71666666666667,
          "velocity": 0.30708661417322836
        },
        {
          "duration": 0.10833333333333428,
          "durationTicks": 26,
          "midi": 43,
          "name": "G2",
          "ticks": 29481,
          "time": 122.8375,
          "velocity": 0.5905511811023622
        },
        {
          "duration": 0.19166666666666288,
          "durationTicks": 46,
          "midi": 43,
          "name": "G2",
          "ticks": 29577,
          "time": 123.2375,
          "velocity": 0.5669291338582677
        },
        {
          "duration": 0.25,
          "durationTicks": 60,
          "midi": 43,
          "name": "G2",
          "ticks": 29675,
          "time": 123.64583333333333,
          "velocity": 0.48031496062992124
        },
        {
          "duration": 0.09999999999999432,
          "durationTicks": 24,
          "midi": 67,
          "name": "G4",
          "ticks": 29762,
          "time": 124.00833333333334,
          "velocity": 0.2440944881889764
        },
        {
          "duration": 0.15000000000000568,
          "durationTicks": 36,
          "midi": 69,
          "name": "A4",
          "ticks": 29824,
          "time": 124.26666666666667,
          "velocity": 0.5590551181102362
        },
        {
          "duration": 0.041666666666671404,
          "durationTicks": 10,
          "midi": 67,
          "name": "G4",
          "ticks": 29865,
          "time": 124.4375,
          "velocity": 0.11811023622047244
        },
        {
          "duration": 0.04999999999999716,
          "durationTicks": 12,
          "midi": 88,
          "name": "E6",
          "ticks": 29875,
          "time": 124.47916666666667,
          "velocity": 0.2204724409448819
        },
        {
          "duration": 0.05833333333333712,
          "durationTicks": 14,
          "midi": 72,
          "name": "C5",
          "ticks": 29889,
          "time": 124.5375,
          "velocity": 0.14173228346456693
        },
        {
          "duration": 0.041666666666671404,
          "durationTicks": 10,
          "midi": 96,
          "name": "C7",
          "ticks": 29903,
          "time": 124.59583333333333,
          "velocity": 0.1968503937007874
        },
        {
          "duration": 0.09166666666665435,
          "durationTicks": 22,
          "midi": 96,
          "name": "C7",
          "ticks": 29961,
          "time": 124.8375,
          "velocity": 0.7559055118110236
        },
        {
          "duration": 0.14166666666666572,
          "durationTicks": 34,
          "midi": 71,
          "name": "B4",
          "ticks": 29985,
          "time": 124.9375,
          "velocity": 0.5118110236220472
        },
        {
          "duration": 0.19166666666666288,
          "durationTicks": 46,
          "midi": 41,
          "name": "F2",
          "ticks": 30107,
          "time": 125.44583333333334,
          "velocity": 0.5433070866141733
        },
        {
          "duration": 0.10833333333333428,
          "durationTicks": 26,
          "midi": 71,
          "name": "B4",
          "ticks": 30218,
          "time": 125.90833333333333,
          "velocity": 0.5275590551181102
        },
        {
          "duration": 0.10833333333333428,
          "durationTicks": 26,
          "midi": 43,
          "name": "G2",
          "ticks": 30266,
          "time": 126.10833333333333,
          "velocity": 0.5826771653543307
        },
        {
          "duration": 0.12083333333332291,
          "durationTicks": 29,
          "midi": 69,
          "name": "A4",
          "ticks": 30314,
          "time": 126.30833333333334,
          "velocity": 0.23622047244094488
        },
        {
          "duration": 0.21666666666666856,
          "durationTicks": 52,
          "midi": 43,
          "name": "G2",
          "ticks": 30367,
          "time": 126.52916666666667,
          "velocity": 0.5354330708661418
        },
        {
          "duration": 0.041666666666671404,
          "durationTicks": 10,
          "midi": 33,
          "name": "A1",
          "ticks": 30455,
          "time": 126.89583333333333,
          "velocity": 0.5196850393700787
        },
        {
          "duration": 0.36250000000001137,
          "durationTicks": 87,
          "midi": 57,
          "name": "A3",
          "ticks": 30515,
          "time": 127.14583333333333,
          "velocity": 0.48031496062992124
        },
        {
          "duration": 0.2291666666666714,
          "durationTicks": 55,
          "midi": 57,
          "name": "A3",
          "ticks": 30616,
          "time": 127.56666666666666,
          "velocity": 0.4566929133858268
        },
        {
          "duration": 0.0625,
          "durationTicks": 15,
          "midi": 98,
          "name": "D7",
          "ticks": 30748,
          "time": 128.11666666666667,
          "velocity": 0.4251968503937008
        },
        {
          "duration": 0.04166666666665719,
          "durationTicks": 10,
          "midi": 84,
          "name": "C6",
          "ticks": 30803,
          "time": 128.34583333333333,
          "velocity": 0.2125984251968504
        },
        {
          "duration": 0.35000000000002274,
          "durationTicks": 84,
          "midi": 57,
          "name": "A3",
          "ticks": 30851,
          "time": 128.54583333333332,
          "velocity": 0.6141732283464567
        },
        {
          "duration": 0.05833333333333712,
          "durationTicks": 14,
          "midi": 31,
          "name": "G1",
          "ticks": 30950,
          "time": 128.95833333333334,
          "velocity": 0.14960629921259844
        },
        {
          "duration": 0.2666666666666515,
          "durationTicks": 64,
          "midi": 33,
          "name": "A1",
          "ticks": 30967,
          "time": 129.02916666666667,
          "velocity": 0.48031496062992124
        },
        {
          "duration": 0.13333333333335418,
          "durationTicks": 32,
          "midi": 69,
          "name": "A4",
          "ticks": 31031,
          "time": 129.29583333333332,
          "velocity": 0.47244094488188976
        },
        {
          "duration": 0.05833333333333712,
          "durationTicks": 14,
          "midi": 81,
          "name": "A5",
          "ticks": 31063,
          "time": 129.42916666666667,
          "velocity": 0.25196850393700787
        },
        {
          "duration": 0.3833333333333542,
          "durationTicks": 92,
          "midi": 69,
          "name": "A4",
          "ticks": 31091,
          "time": 129.54583333333332,
          "velocity": 0.3543307086614173
        },
        {
          "duration": 0.06666666666666288,
          "durationTicks": 16,
          "midi": 88,
          "name": "E6",
          "ticks": 31183,
          "time": 129.92916666666667,
          "velocity": 0.4094488188976378
        },
        {
          "duration": 0.22083333333333144,
          "durationTicks": 53,
          "midi": 76,
          "name": "E5",
          "ticks": 31202,
          "time": 130.00833333333333,
          "velocity": 0.49606299212598426
        },
        {
          "duration": 0.26666666666667993,
          "durationTicks": 64,
          "midi": 33,
          "name": "A1",
          "ticks": 31255,
          "time": 130.22916666666666,
          "velocity": 0.47244094488188976
        },
        {
          "duration": 0.09999999999999432,
          "durationTicks": 24,
          "midi": 91,
          "name": "G6",
          "ticks": 31322,
          "time": 130.50833333333333,
          "velocity": 0.33858267716535434
        },
        {
          "duration": 0.24166666666667425,
          "durationTicks": 58,
          "midi": 76,
          "name": "E5",
          "ticks": 31391,
          "time": 130.79583333333332,
          "velocity": 0.36220472440944884
        },
        {
          "duration": 0.15833333333333144,
          "durationTicks": 38,
          "midi": 76,
          "name": "E5",
          "ticks": 31459,
          "time": 131.07916666666668,
          "velocity": 0.33858267716535434
        },
        {
          "duration": 0.09166666666666856,
          "durationTicks": 22,
          "midi": 43,
          "name": "G2",
          "ticks": 31497,
          "time": 131.2375,
          "velocity": 0.4409448818897638
        },
        {
          "duration": 0.10833333333332007,
          "durationTicks": 26,
          "midi": 43,
          "name": "G2",
          "ticks": 31579,
          "time": 131.57916666666668,
          "velocity": 0.5748031496062992
        },
        {
          "duration": 0.16666666666668561,
          "durationTicks": 40,
          "midi": 43,
          "name": "G2",
          "ticks": 31675,
          "time": 131.97916666666666,
          "velocity": 0.5511811023622047
        },
        {
          "duration": 0.22083333333333144,
          "durationTicks": 53,
          "midi": 76,
          "name": "E5",
          "ticks": 31725,
          "time": 132.1875,
          "velocity": 0.49606299212598426
        },
        {
          "duration": 0.09166666666666856,
          "durationTicks": 22,
          "midi": 91,
          "name": "G6",
          "ticks": 31845,
          "time": 132.6875,
          "velocity": 0.3464566929133858
        },
        {
          "duration": 0.26249999999998863,
          "durationTicks": 63,
          "midi": 81,
          "name": "A5",
          "ticks": 31912,
          "time": 132.96666666666667,
          "velocity": 0.4566929133858268
        },
        {
          "duration": 0.05000000000001137,
          "durationTicks": 12,
          "midi": 96,
          "name": "C7",
          "ticks": 31975,
          "time": 133.22916666666666,
          "velocity": 0.6692913385826772
        },
        {
          "duration": 0.04166666666665719,
          "durationTicks": 10,
          "midi": 41,
          "name": "F2",
          "ticks": 32104,
          "time": 133.76666666666668,
          "velocity": 0.6614173228346457
        },
        {
          "duration": 0.09166666666666856,
          "durationTicks": 22,
          "midi": 41,
          "name": "F2",
          "ticks": 32135,
          "time": 133.89583333333334,
          "velocity": 0.48031496062992124
        },
        {
          "duration": 0.07083333333335418,
          "durationTicks": 17,
          "midi": 83,
          "name": "B5",
          "ticks": 32162,
          "time": 134.00833333333333,
          "velocity": 0.3700787401574803
        },
        {
          "duration": 0.17916666666667425,
          "durationTicks": 43,
          "midi": 41,
          "name": "F2",
          "ticks": 32205,
          "time": 134.1875,
          "velocity": 0.5511811023622047
        },
        {
          "duration": 0.1666666666666572,
          "durationTicks": 40,
          "midi": 41,
          "name": "F2",
          "ticks": 32299,
          "time": 134.57916666666668,
          "velocity": 0.44881889763779526
        },
        {
          "duration": 0.24166666666664582,
          "durationTicks": 58,
          "midi": 72,
          "name": "C5",
          "ticks": 32428,
          "time": 135.11666666666667,
          "velocity": 0.5905511811023622
        },
        {
          "duration": 0.15000000000000568,
          "durationTicks": 36,
          "midi": 76,
          "name": "E5",
          "ticks": 32505,
          "time": 135.4375,
          "velocity": 0.30708661417322836
        },
        {
          "duration": 0.11250000000001137,
          "durationTicks": 27,
          "midi": 88,
          "name": "E6",
          "ticks": 32543,
          "time": 135.59583333333333,
          "velocity": 0.28346456692913385
        },
        {
          "duration": 0.15000000000000568,
          "durationTicks": 36,
          "midi": 74,
          "name": "D5",
          "ticks": 32575,
          "time": 135.72916666666666,
          "velocity": 0.3937007874015748
        },
        {
          "duration": 0.07916666666665151,
          "durationTicks": 19,
          "midi": 91,
          "name": "G6",
          "ticks": 32632,
          "time": 135.96666666666667,
          "velocity": 0.31496062992125984
        },
        {
          "duration": 0.04166666666665719,
          "durationTicks": 10,
          "midi": 79,
          "name": "G5",
          "ticks": 32661,
          "time": 136.0875,
          "velocity": 0.12598425196850394
        },
        {
          "duration": 0.09999999999999432,
          "durationTicks": 24,
          "midi": 74,
          "name": "D5",
          "ticks": 32671,
          "time": 136.12916666666666,
          "velocity": 0.11811023622047244
        },
        {
          "duration": 0.1708333333333485,
          "durationTicks": 41,
          "midi": 36,
          "name": "C2",
          "ticks": 32726,
          "time": 136.35833333333332,
          "velocity": 0.4251968503937008
        },
        {
          "duration": 0.13749999999998863,
          "durationTicks": 33,
          "midi": 74,
          "name": "D5",
          "ticks": 32767,
          "time": 136.52916666666667,
          "velocity": 0.47244094488188976
        },
        {
          "duration": 0.22916666666668561,
          "durationTicks": 55,
          "midi": 74,
          "name": "D5",
          "ticks": 32829,
          "time": 136.7875,
          "velocity": 0.3700787401574803
        },
        {
          "duration": 0.2916666666666572,
          "durationTicks": 70,
          "midi": 35,
          "name": "B1",
          "ticks": 32937,
          "time": 137.2375,
          "velocity": 0.5275590551181102
        },
        {
          "duration": 0.20000000000001705,
          "durationTicks": 48,
          "midi": 64,
          "name": "E4",
          "ticks": 33031,
          "time": 137.62916666666666,
          "velocity": 0.33070866141732286
        },
        {
          "duration": 0.17916666666667425,
          "durationTicks": 43,
          "midi": 69,
          "name": "A4",
          "ticks": 33115,
          "time": 137.97916666666666,
          "velocity": 0.48031496062992124
        },
        {
          "duration": 0.15000000000000568,
          "durationTicks": 36,
          "midi": 76,
          "name": "E5",
          "ticks": 33223,
          "time": 138.42916666666667,
          "velocity": 0.3464566929133858
        },
        {
          "duration": 0.15000000000000568,
          "durationTicks": 36,
          "midi": 33,
          "name": "A1",
          "ticks": 33266,
          "time": 138.60833333333332,
          "velocity": 0.5118110236220472
        },
        {
          "duration": 0.27916666666666856,
          "durationTicks": 67,
          "midi": 33,
          "name": "A1",
          "ticks": 33350,
          "time": 138.95833333333334,
          "velocity": 0.5354330708661418
        },
        {
          "duration": 0.07916666666665151,
          "durationTicks": 19,
          "midi": 91,
          "name": "G6",
          "ticks": 33417,
          "time": 139.2375,
          "velocity": 0.33858267716535434
        },
        {
          "duration": 0.06666666666666288,
          "durationTicks": 16,
          "midi": 74,
          "name": "D5",
          "ticks": 33463,
          "time": 139.42916666666667,
          "velocity": 0.2440944881889764
        },
        {
          "duration": 0.1875,
          "durationTicks": 45,
          "midi": 76,
          "name": "E5",
          "ticks": 33487,
          "time": 139.52916666666667,
          "velocity": 0.3858267716535433
        },
        {
          "duration": 0.15833333333333144,
          "durationTicks": 38,
          "midi": 88,
          "name": "E6",
          "ticks": 33542,
          "time": 139.75833333333333,
          "velocity": 0.48031496062992124
        },
        {
          "duration": 0.17083333333332007,
          "durationTicks": 41,
          "midi": 43,
          "name": "G2",
          "ticks": 33590,
          "time": 139.95833333333334,
          "velocity": 0.41732283464566927
        },
        {
          "duration": 0.11250000000001137,
          "durationTicks": 27,
          "midi": 43,
          "name": "G2",
          "ticks": 33671,
          "time": 140.29583333333332,
          "velocity": 0.6141732283464567
        },
        {
          "duration": 0.17083333333332007,
          "durationTicks": 41,
          "midi": 43,
          "name": "G2",
          "ticks": 33770,
          "time": 140.70833333333334,
          "velocity": 0.5748031496062992
        },
        {
          "duration": 0.22083333333333144,
          "durationTicks": 53,
          "midi": 76,
          "name": "E5",
          "ticks": 33815,
          "time": 140.89583333333334,
          "velocity": 0.48031496062992124
        },
        {
          "duration": 0.12083333333333712,
          "durationTicks": 29,
          "midi": 43,
          "name": "G2",
          "ticks": 33868,
          "time": 141.11666666666667,
          "velocity": 0.4881889763779528
        },
        {
          "duration": 0.037499999999994316,
          "durationTicks": 9,
          "midi": 42,
          "name": "F#2",
          "ticks": 33967,
          "time": 141.52916666666667,
          "velocity": 0.16535433070866143
        },
        {
          "duration": 0.05000000000001137,
          "durationTicks": 12,
          "midi": 81,
          "name": "A5",
          "ticks": 34007,
          "time": 141.69583333333333,
          "velocity": 0.4330708661417323
        },
        {
          "duration": 0.04999999999998295,
          "durationTicks": 12,
          "midi": 96,
          "name": "C7",
          "ticks": 34070,
          "time": 141.95833333333334,
          "velocity": 0.6456692913385826
        },
        {
          "duration": 0.21249999999997726,
          "durationTicks": 51,
          "midi": 41,
          "name": "F2",
          "ticks": 34115,
          "time": 142.14583333333334,
          "velocity": 0.5039370078740157
        },
        {
          "duration": 0.13750000000001705,
          "durationTicks": 33,
          "midi": 83,
          "name": "B5",
          "ticks": 34171,
          "time": 142.37916666666666,
          "velocity": 0.5196850393700787
        },
        {
          "duration": 0.08750000000000568,
          "durationTicks": 21,
          "midi": 84,
          "name": "C6",
          "ticks": 34243,
          "time": 142.67916666666667,
          "velocity": 0.2677165354330709
        },
        {
          "duration": 0.17916666666667425,
          "durationTicks": 43,
          "midi": 41,
          "name": "F2",
          "ticks": 34300,
          "time": 142.91666666666666,
          "velocity": 0.5433070866141733
        },
        {
          "duration": 0.15000000000000568,
          "durationTicks": 36,
          "midi": 43,
          "name": "G2",
          "ticks": 34375,
          "time": 143.22916666666666,
          "velocity": 0.4409448818897638
        },
        {
          "duration": 0.12916666666666288,
          "durationTicks": 31,
          "midi": 43,
          "name": "G2",
          "ticks": 34456,
          "time": 143.56666666666666,
          "velocity": 0.5748031496062992
        },
        {
          "duration": 0.22916666666668561,
          "durationTicks": 55,
          "midi": 43,
          "name": "G2",
          "ticks": 34555,
          "time": 143.97916666666666,
          "velocity": 0.5275590551181102
        },
        {
          "duration": 0.25,
          "durationTicks": 60,
          "midi": 33,
          "name": "A1",
          "ticks": 34639,
          "time": 144.32916666666668,
          "velocity": 0.48031496062992124
        },
        {
          "duration": 0.20000000000001705,
          "durationTicks": 48,
          "midi": 84,
          "name": "C6",
          "ticks": 34727,
          "time": 144.69583333333333,
          "velocity": 0.6220472440944882
        },
        {
          "duration": 0.07083333333332575,
          "durationTicks": 17,
          "midi": 98,
          "name": "D7",
          "ticks": 34790,
          "time": 144.95833333333334,
          "velocity": 0.7322834645669292
        },
        {
          "duration": 0.05833333333333712,
          "durationTicks": 14,
          "midi": 100,
          "name": "E7",
          "ticks": 34855,
          "time": 145.22916666666666,
          "velocity": 0.7165354330708661
        },
        {
          "duration": 0.04999999999998295,
          "durationTicks": 12,
          "midi": 98,
          "name": "D7",
          "ticks": 34919,
          "time": 145.49583333333334,
          "velocity": 0.5748031496062992
        },
        {
          "duration": 0.12083333333333712,
          "durationTicks": 29,
          "midi": 86,
          "name": "D6",
          "ticks": 34943,
          "time": 145.59583333333333,
          "velocity": 0.28346456692913385
        },
        {
          "duration": 0.04166666666665719,
          "durationTicks": 10,
          "midi": 98,
          "name": "D7",
          "ticks": 34979,
          "time": 145.74583333333334,
          "velocity": 0.6299212598425197
        },
        {
          "duration": 0.15833333333333144,
          "durationTicks": 38,
          "midi": 84,
          "name": "C6",
          "ticks": 34989,
          "time": 145.7875,
          "velocity": 0.44881889763779526
        },
        {
          "duration": 0.04166666666665719,
          "durationTicks": 10,
          "midi": 57,
          "name": "A3",
          "ticks": 35039,
          "time": 145.99583333333334,
          "velocity": 0.2125984251968504
        },
        {
          "duration": 0.037499999999994316,
          "durationTicks": 9,
          "midi": 32,
          "name": "G#1",
          "ticks": 35054,
          "time": 146.05833333333334,
          "velocity": 0.5196850393700787
        },
        {
          "duration": 0.2333333333333485,
          "durationTicks": 56,
          "midi": 32,
          "name": "G#1",
          "ticks": 35123,
          "time": 146.34583333333333,
          "velocity": 0.18110236220472442
        },
        {
          "duration": 0.04999999999998295,
          "durationTicks": 12,
          "midi": 96,
          "name": "C7",
          "ticks": 35248,
          "time": 146.86666666666667,
          "velocity": 0.1732283464566929
        },
        {
          "duration": 0.037499999999994316,
          "durationTicks": 9,
          "midi": 57,
          "name": "A3",
          "ticks": 35491,
          "time": 147.87916666666666,
          "velocity": 0.48031496062992124
        },
        {
          "duration": 0.041666666666685614,
          "durationTicks": 10,
          "midi": 102,
          "name": "F#7",
          "ticks": 35589,
          "time": 148.2875,
          "velocity": 0.2125984251968504
        },
        {
          "duration": 0.15000000000000568,
          "durationTicks": 36,
          "midi": 55,
          "name": "G3",
          "ticks": 35663,
          "time": 148.59583333333333,
          "velocity": 0.5354330708661418
        },
        {
          "duration": 0.5374999999999943,
          "durationTicks": 129,
          "midi": 57,
          "name": "A3",
          "ticks": 35714,
          "time": 148.80833333333334,
          "velocity": 0.7874015748031497
        },
        {
          "duration": 0.041666666666685614,
          "durationTicks": 10,
          "midi": 54,
          "name": "F#3",
          "ticks": 35860,
          "time": 149.41666666666666,
          "velocity": 0.6377952755905512
        },
        {
          "duration": 0.10000000000002274,
          "durationTicks": 24,
          "midi": 55,
          "name": "G3",
          "ticks": 35875,
          "time": 149.47916666666666,
          "velocity": 0.5984251968503937
        },
        {
          "duration": 0.4791666666666572,
          "durationTicks": 115,
          "midi": 55,
          "name": "G3",
          "ticks": 35923,
          "time": 149.67916666666667,
          "velocity": 0.7086614173228346
        },
        {
          "duration": 0.22083333333333144,
          "durationTicks": 53,
          "midi": 55,
          "name": "G3",
          "ticks": 36047,
          "time": 150.19583333333333,
          "velocity": 0.8188976377952756
        },
        {
          "duration": 0.1416666666666515,
          "durationTicks": 34,
          "midi": 52,
          "name": "E3",
          "ticks": 36117,
          "time": 150.4875,
          "velocity": 0.7322834645669292
        },
        {
          "duration": 0.4791666666666572,
          "durationTicks": 115,
          "midi": 52,
          "name": "E3",
          "ticks": 36184,
          "time": 150.76666666666668,
          "velocity": 0.8188976377952756
        },
        {
          "duration": 0.04166666666665719,
          "durationTicks": 10,
          "midi": 51,
          "name": "D#3",
          "ticks": 36304,
          "time": 151.26666666666668,
          "velocity": 0.6377952755905512
        },
        {
          "duration": 0.037499999999994316,
          "durationTicks": 9,
          "midi": 52,
          "name": "E3",
          "ticks": 36319,
          "time": 151.32916666666668,
          "velocity": 0.6377952755905512
        },
        {
          "duration": 0.05000000000001137,
          "durationTicks": 12,
          "midi": 50,
          "name": "D3",
          "ticks": 36340,
          "time": 151.41666666666666,
          "velocity": 0.4330708661417323
        },
        {
          "duration": 0.09166666666664014,
          "durationTicks": 22,
          "midi": 52,
          "name": "E3",
          "ticks": 36364,
          "time": 151.51666666666668,
          "velocity": 0.5669291338582677
        },
        {
          "duration": 0.24166666666667425,
          "durationTicks": 58,
          "midi": 57,
          "name": "A3",
          "ticks": 36501,
          "time": 152.0875,
          "velocity": 0.7637795275590551
        },
        {
          "duration": 0.20000000000001705,
          "durationTicks": 48,
          "midi": 59,
          "name": "B3",
          "ticks": 36580,
          "time": 152.41666666666666,
          "velocity": 0.6692913385826772
        },
        {
          "duration": 0.1916666666666913,
          "durationTicks": 46,
          "midi": 60,
          "name": "C4",
          "ticks": 36633,
          "time": 152.6375,
          "velocity": 0.7874015748031497
        },
        {
          "duration": 0.20833333333331439,
          "durationTicks": 50,
          "midi": 55,
          "name": "G3",
          "ticks": 36703,
          "time": 152.92916666666667,
          "velocity": 0.7716535433070866
        },
        {
          "duration": 1.0083333333333258,
          "durationTicks": 242,
          "midi": 57,
          "name": "A3",
          "ticks": 36763,
          "time": 153.17916666666667,
          "velocity": 0.8976377952755905
        },
        {
          "duration": 0.30000000000001137,
          "durationTicks": 72,
          "midi": 59,
          "name": "B3",
          "ticks": 37012,
          "time": 154.21666666666667,
          "velocity": 0.6850393700787402
        },
        {
          "duration": 0.12916666666666288,
          "durationTicks": 31,
          "midi": 60,
          "name": "C4",
          "ticks": 37156,
          "time": 154.81666666666666,
          "velocity": 0.6299212598425197
        },
        {
          "duration": 0.7375000000000114,
          "durationTicks": 177,
          "midi": 60,
          "name": "C4",
          "ticks": 37226,
          "time": 155.10833333333332,
          "velocity": 0.7007874015748031
        },
        {
          "duration": 0.07083333333335418,
          "durationTicks": 17,
          "midi": 64,
          "name": "E4",
          "ticks": 37526,
          "time": 156.35833333333332,
          "velocity": 0.3543307086614173
        },
        {
          "duration": 0.38333333333332575,
          "durationTicks": 92,
          "midi": 52,
          "name": "E3",
          "ticks": 37559,
          "time": 156.49583333333334,
          "velocity": 0.7795275590551181
        },
        {
          "duration": 0.3916666666666515,
          "durationTicks": 94,
          "midi": 55,
          "name": "G3",
          "ticks": 37684,
          "time": 157.01666666666668,
          "velocity": 0.7716535433070866
        },
        {
          "duration": 0.17916666666664582,
          "durationTicks": 43,
          "midi": 57,
          "name": "A3",
          "ticks": 37790,
          "time": 157.45833333333334,
          "velocity": 0.7244094488188977
        },
        {
          "duration": 0.23750000000001137,
          "durationTicks": 57,
          "midi": 56,
          "name": "G#3",
          "ticks": 37855,
          "time": 157.72916666666666,
          "velocity": 0.7795275590551181
        },
        {
          "duration": 0.25,
          "durationTicks": 60,
          "midi": 57,
          "name": "A3",
          "ticks": 37943,
          "time": 158.09583333333333,
          "velocity": 0.7637795275590551
        },
        {
          "duration": 0.19166666666666288,
          "durationTicks": 46,
          "midi": 59,
          "name": "B3",
          "ticks": 38015,
          "time": 158.39583333333334,
          "velocity": 0.6535433070866141
        },
        {
          "duration": 0.15000000000000568,
          "durationTicks": 36,
          "midi": 52,
          "name": "E3",
          "ticks": 38092,
          "time": 158.71666666666667,
          "velocity": 0.6377952755905512
        },
        {
          "duration": 0.2291666666666572,
          "durationTicks": 55,
          "midi": 52,
          "name": "E3",
          "ticks": 38143,
          "time": 158.92916666666667,
          "velocity": 0.5905511811023622
        },
        {
          "duration": 0.23749999999998295,
          "durationTicks": 57,
          "midi": 59,
          "name": "B3",
          "ticks": 38203,
          "time": 159.17916666666667,
          "velocity": 0.2755905511811024
        },
        {
          "duration": 0.07083333333332575,
          "durationTicks": 17,
          "midi": 59,
          "name": "B3",
          "ticks": 38289,
          "time": 159.5375,
          "velocity": 0.6062992125984252
        },
        {
          "duration": 0.15833333333333144,
          "durationTicks": 38,
          "midi": 60,
          "name": "C4",
          "ticks": 38311,
          "time": 159.62916666666666,
          "velocity": 0.5196850393700787
        },
        {
          "duration": 0.34166666666666856,
          "durationTicks": 82,
          "midi": 59,
          "name": "B3",
          "ticks": 38368,
          "time": 159.86666666666667,
          "velocity": 0.6929133858267716
        },
        {
          "duration": 0.20000000000001705,
          "durationTicks": 48,
          "midi": 60,
          "name": "C4",
          "ticks": 38455,
          "time": 160.22916666666666,
          "velocity": 0.7322834645669292
        },
        {
          "duration": 0.09999999999999432,
          "durationTicks": 24,
          "midi": 60,
          "name": "C4",
          "ticks": 38529,
          "time": 160.5375,
          "velocity": 0.7401574803149606
        },
        {
          "duration": 0.12083333333333712,
          "durationTicks": 29,
          "midi": 62,
          "name": "D4",
          "ticks": 38560,
          "time": 160.66666666666666,
          "velocity": 0.7244094488188977
        },
        {
          "duration": 0.10833333333332007,
          "durationTicks": 26,
          "midi": 59,
          "name": "B3",
          "ticks": 38625,
          "time": 160.9375,
          "velocity": 0.7244094488188977
        },
        {
          "duration": 0.29999999999998295,
          "durationTicks": 72,
          "midi": 60,
          "name": "C4",
          "ticks": 38654,
          "time": 161.05833333333334,
          "velocity": 0.6614173228346457
        },
        {
          "duration": 0.09166666666666856,
          "durationTicks": 22,
          "midi": 59,
          "name": "B3",
          "ticks": 38733,
          "time": 161.3875,
          "velocity": 0.7401574803149606
        },
        {
          "duration": 0.5999999999999943,
          "durationTicks": 144,
          "midi": 57,
          "name": "A3",
          "ticks": 38791,
          "time": 161.62916666666666,
          "velocity": 0.7165354330708661
        },
        {
          "duration": 0.19999999999998863,
          "durationTicks": 48,
          "midi": 57,
          "name": "A3",
          "ticks": 38997,
          "time": 162.4875,
          "velocity": 0.7244094488188977
        },
        {
          "duration": 0.24166666666667425,
          "durationTicks": 58,
          "midi": 55,
          "name": "G3",
          "ticks": 39083,
          "time": 162.84583333333333,
          "velocity": 0.6771653543307087
        },
        {
          "duration": 0.5666666666666629,
          "durationTicks": 136,
          "midi": 57,
          "name": "A3",
          "ticks": 39151,
          "time": 163.12916666666666,
          "velocity": 0.7952755905511811
        },
        {
          "duration": 0.14999999999997726,
          "durationTicks": 36,
          "midi": 59,
          "name": "B3",
          "ticks": 39297,
          "time": 163.7375,
          "velocity": 0.6220472440944882
        },
        {
          "duration": 0.1666666666666572,
          "durationTicks": 40,
          "midi": 55,
          "name": "G3",
          "ticks": 39391,
          "time": 164.12916666666666,
          "velocity": 0.8188976377952756
        },
        {
          "duration": 0.34166666666666856,
          "durationTicks": 82,
          "midi": 57,
          "name": "A3",
          "ticks": 39443,
          "time": 164.34583333333333,
          "velocity": 0.7401574803149606
        },
        {
          "duration": 0.17916666666667425,
          "durationTicks": 43,
          "midi": 57,
          "name": "A3",
          "ticks": 39645,
          "time": 165.1875,
          "velocity": 0.7874015748031497
        },
        {
          "duration": 0.24166666666667425,
          "durationTicks": 58,
          "midi": 59,
          "name": "B3",
          "ticks": 39712,
          "time": 165.46666666666667,
          "velocity": 0.8346456692913385
        },
        {
          "duration": 0.07916666666667993,
          "durationTicks": 19,
          "midi": 60,
          "name": "C4",
          "ticks": 39775,
          "time": 165.72916666666666,
          "velocity": 0.7952755905511811
        },
        {
          "duration": 0.15833333333333144,
          "durationTicks": 38,
          "midi": 55,
          "name": "G3",
          "ticks": 39842,
          "time": 166.00833333333333,
          "velocity": 0.7795275590551181
        },
        {
          "duration": 0.2708333333333428,
          "durationTicks": 65,
          "midi": 57,
          "name": "A3",
          "ticks": 39892,
          "time": 166.21666666666667,
          "velocity": 0.84251968503937
        },
        {
          "duration": 0.15000000000000568,
          "durationTicks": 36,
          "midi": 57,
          "name": "A3",
          "ticks": 39981,
          "time": 166.5875,
          "velocity": 0.8031496062992126
        },
        {
          "duration": 0.22916666666668561,
          "durationTicks": 55,
          "midi": 55,
          "name": "G3",
          "ticks": 40029,
          "time": 166.7875,
          "velocity": 0.7637795275590551
        },
        {
          "duration": 0.4625000000000057,
          "durationTicks": 111,
          "midi": 55,
          "name": "G3",
          "ticks": 40096,
          "time": 167.06666666666666,
          "velocity": 0.8267716535433071
        },
        {
          "duration": 0.2708333333333428,
          "durationTicks": 65,
          "midi": 55,
          "name": "G3",
          "ticks": 40214,
          "time": 167.55833333333334,
          "velocity": 0.7795275590551181
        },
        {
          "duration": 0.037499999999994316,
          "durationTicks": 9,
          "midi": 51,
          "name": "D#3",
          "ticks": 40298,
          "time": 167.90833333333333,
          "velocity": 0.6929133858267716
        },
        {
          "duration": 0.17083333333332007,
          "durationTicks": 41,
          "midi": 52,
          "name": "E3",
          "ticks": 40310,
          "time": 167.95833333333334,
          "velocity": 0.7401574803149606
        },
        {
          "duration": 0.4583333333333144,
          "durationTicks": 110,
          "midi": 52,
          "name": "E3",
          "ticks": 40377,
          "time": 168.2375,
          "velocity": 0.8661417322834646
        },
        {
          "duration": 0.037499999999994316,
          "durationTicks": 9,
          "midi": 76,
          "name": "E5",
          "ticks": 40490,
          "time": 168.70833333333334,
          "velocity": 0.28346456692913385
        },
        {
          "duration": 0.15833333333333144,
          "durationTicks": 38,
          "midi": 51,
          "name": "D#3",
          "ticks": 40533,
          "time": 168.8875,
          "velocity": 0.5354330708661418
        },
        {
          "duration": 0.07916666666667993,
          "durationTicks": 19,
          "midi": 52,
          "name": "E3",
          "ticks": 40576,
          "time": 169.06666666666666,
          "velocity": 0.47244094488188976
        },
        {
          "duration": 0.27916666666666856,
          "durationTicks": 67,
          "midi": 64,
          "name": "E4",
          "ticks": 40636,
          "time": 169.31666666666666,
          "velocity": 0.4094488188976378
        },
        {
          "duration": 0.12083333333333712,
          "durationTicks": 29,
          "midi": 57,
          "name": "A3",
          "ticks": 40718,
          "time": 169.65833333333333,
          "velocity": 0.7401574803149606
        },
        {
          "duration": 0.20833333333331439,
          "durationTicks": 50,
          "midi": 59,
          "name": "B3",
          "ticks": 40761,
          "time": 169.8375,
          "velocity": 0.7637795275590551
        },
        {
          "duration": 0.15833333333333144,
          "durationTicks": 38,
          "midi": 60,
          "name": "C4",
          "ticks": 40819,
          "time": 170.07916666666668,
          "velocity": 0.8346456692913385
        },
        {
          "duration": 0.19166666666666288,
          "durationTicks": 46,
          "midi": 55,
          "name": "G3",
          "ticks": 40895,
          "time": 170.39583333333334,
          "velocity": 0.7480314960629921
        },
        {
          "duration": 0.7291666666666572,
          "durationTicks": 175,
          "midi": 57,
          "name": "A3",
          "ticks": 40948,
          "time": 170.61666666666667,
          "velocity": 0.8346456692913385
        },
        {
          "duration": 0.1416666666666515,
          "durationTicks": 34,
          "midi": 57,
          "name": "A3",
          "ticks": 41159,
          "time": 171.49583333333334,
          "velocity": 0.6929133858267716
        },
        {
          "duration": 0.20000000000001705,
          "durationTicks": 48,
          "midi": 59,
          "name": "B3",
          "ticks": 41200,
          "time": 171.66666666666666,
          "velocity": 0.7007874015748031
        },
        {
          "duration": 0.25,
          "durationTicks": 60,
          "midi": 59,
          "name": "B3",
          "ticks": 41275,
          "time": 171.97916666666666,
          "velocity": 0.7795275590551181
        },
        {
          "duration": 0.22083333333333144,
          "durationTicks": 53,
          "midi": 60,
          "name": "C4",
          "ticks": 41339,
          "time": 172.24583333333334,
          "velocity": 0.6456692913385826
        },
        {
          "duration": 0.8083333333333371,
          "durationTicks": 194,
          "midi": 60,
          "name": "C4",
          "ticks": 41407,
          "time": 172.52916666666667,
          "velocity": 0.7716535433070866
        },
        {
          "duration": 0.04999999999998295,
          "durationTicks": 12,
          "midi": 60,
          "name": "C4",
          "ticks": 41615,
          "time": 173.39583333333334,
          "velocity": 0.5275590551181102
        },
        {
          "duration": 0.14999999999997726,
          "durationTicks": 36,
          "midi": 36,
          "name": "C2",
          "ticks": 41637,
          "time": 173.4875,
          "velocity": 0.5118110236220472
        },
        {
          "duration": 0.12083333333333712,
          "durationTicks": 29,
          "midi": 88,
          "name": "E6",
          "ticks": 41733,
          "time": 173.8875,
          "velocity": 0.4566929133858268
        },
        {
          "duration": 0.25,
          "durationTicks": 60,
          "midi": 52,
          "name": "E3",
          "ticks": 41767,
          "time": 174.02916666666667,
          "velocity": 0.6850393700787402
        },
        {
          "duration": 0.4333333333333371,
          "durationTicks": 104,
          "midi": 55,
          "name": "G3",
          "ticks": 41867,
          "time": 174.44583333333333,
          "velocity": 0.8976377952755905
        },
        {
          "duration": 0.20000000000001705,
          "durationTicks": 48,
          "midi": 57,
          "name": "A3",
          "ticks": 41980,
          "time": 174.91666666666666,
          "velocity": 0.7086614173228346
        },
        {
          "duration": 0.25,
          "durationTicks": 60,
          "midi": 56,
          "name": "G#3",
          "ticks": 42047,
          "time": 175.19583333333333,
          "velocity": 0.7874015748031497
        },
        {
          "duration": 0.04166666666665719,
          "durationTicks": 10,
          "midi": 31,
          "name": "G1",
          "ticks": 42119,
          "time": 175.49583333333334,
          "velocity": 0.2677165354330709
        },
        {
          "duration": 0.42916666666667425,
          "durationTicks": 103,
          "midi": 57,
          "name": "A3",
          "ticks": 42129,
          "time": 175.5375,
          "velocity": 0.9212598425196851
        },
        {
          "duration": 0.04999999999998295,
          "durationTicks": 12,
          "midi": 59,
          "name": "B3",
          "ticks": 42239,
          "time": 175.99583333333334,
          "velocity": 0.6850393700787402
        },
        {
          "duration": 0.13750000000001705,
          "durationTicks": 33,
          "midi": 52,
          "name": "E3",
          "ticks": 42302,
          "time": 176.25833333333333,
          "velocity": 0.7401574803149606
        },
        {
          "duration": 0.05000000000001137,
          "durationTicks": 12,
          "midi": 57,
          "name": "A3",
          "ticks": 42371,
          "time": 176.54583333333332,
          "velocity": 0.09448818897637795
        },
        {
          "duration": 0.05000000000001137,
          "durationTicks": 12,
          "midi": 59,
          "name": "B3",
          "ticks": 42429,
          "time": 176.7875,
          "velocity": 0.44881889763779526
        },
        {
          "duration": 0.3708333333333371,
          "durationTicks": 89,
          "midi": 60,
          "name": "C4",
          "ticks": 42453,
          "time": 176.8875,
          "velocity": 0.8110236220472441
        },
        {
          "duration": 0.34166666666664014,
          "durationTicks": 82,
          "midi": 59,
          "name": "B3",
          "ticks": 42544,
          "time": 177.26666666666668,
          "velocity": 0.8110236220472441
        },
        {
          "duration": 0.3499999999999943,
          "durationTicks": 84,
          "midi": 60,
          "name": "C4",
          "ticks": 42647,
          "time": 177.69583333333333,
          "velocity": 0.7637795275590551
        },
        {
          "duration": 0.29999999999998295,
          "durationTicks": 72,
          "midi": 62,
          "name": "D4",
          "ticks": 42739,
          "time": 178.07916666666668,
          "velocity": 0.8346456692913385
        },
        {
          "duration": 0.09999999999999432,
          "durationTicks": 24,
          "midi": 59,
          "name": "B3",
          "ticks": 42818,
          "time": 178.40833333333333,
          "velocity": 0.7086614173228346
        },
        {
          "duration": 0.2874999999999943,
          "durationTicks": 69,
          "midi": 60,
          "name": "C4",
          "ticks": 42847,
          "time": 178.52916666666667,
          "velocity": 0.8031496062992126
        },
        {
          "duration": 0.10833333333332007,
          "durationTicks": 26,
          "midi": 59,
          "name": "B3",
          "ticks": 42921,
          "time": 178.8375,
          "velocity": 0.8188976377952756
        },
        {
          "duration": 0.1708333333333485,
          "durationTicks": 41,
          "midi": 57,
          "name": "A3",
          "ticks": 42983,
          "time": 179.09583333333333,
          "velocity": 0.7795275590551181
        },
        {
          "duration": 0.19166666666666288,
          "durationTicks": 46,
          "midi": 57,
          "name": "A3",
          "ticks": 43048,
          "time": 179.36666666666667,
          "velocity": 0.7165354330708661
        },
        {
          "duration": 0.04999999999998295,
          "durationTicks": 12,
          "midi": 38,
          "name": "D2",
          "ticks": 43101,
          "time": 179.5875,
          "velocity": 0.6220472440944882
        },
        {
          "duration": 0.05000000000001137,
          "durationTicks": 12,
          "midi": 59,
          "name": "B3",
          "ticks": 43149,
          "time": 179.7875,
          "velocity": 0.4566929133858268
        },
        {
          "duration": 0.1875,
          "durationTicks": 45,
          "midi": 57,
          "name": "A3",
          "ticks": 43178,
          "time": 179.90833333333333,
          "velocity": 0.7795275590551181
        },
        {
          "duration": 0.27916666666666856,
          "durationTicks": 67,
          "midi": 55,
          "name": "G3",
          "ticks": 43262,
          "time": 180.25833333333333,
          "velocity": 0.7322834645669292
        },
        {
          "duration": 0.27916666666666856,
          "durationTicks": 67,
          "midi": 57,
          "name": "A3",
          "ticks": 43346,
          "time": 180.60833333333332,
          "velocity": 0.8346456692913385
        },
        {
          "duration": 0.1416666666666515,
          "durationTicks": 34,
          "midi": 57,
          "name": "A3",
          "ticks": 43444,
          "time": 181.01666666666668,
          "velocity": 0.8267716535433071
        },
        {
          "duration": 0.18333333333333712,
          "durationTicks": 44,
          "midi": 59,
          "name": "B3",
          "ticks": 43487,
          "time": 181.19583333333333,
          "velocity": 0.7795275590551181
        },
        {
          "duration": 0.14166666666667993,
          "durationTicks": 34,
          "midi": 55,
          "name": "G3",
          "ticks": 43571,
          "time": 181.54583333333332,
          "velocity": 0.7480314960629921
        },
        {
          "duration": 0.7083333333333144,
          "durationTicks": 170,
          "midi": 57,
          "name": "A3",
          "ticks": 43617,
          "time": 181.7375,
          "velocity": 0.8582677165354331
        },
        {
          "duration": 0.10833333333332007,
          "durationTicks": 26,
          "midi": 52,
          "name": "E3",
          "ticks": 43807,
          "time": 182.52916666666667,
          "velocity": 0.47244094488188976
        },
        {
          "duration": 0.10833333333334849,
          "durationTicks": 26,
          "midi": 74,
          "name": "D5",
          "ticks": 43838,
          "time": 182.65833333333333,
          "velocity": 0.6771653543307087
        },
        {
          "duration": 0.13749999999998863,
          "durationTicks": 33,
          "midi": 57,
          "name": "A3",
          "ticks": 43903,
          "time": 182.92916666666667,
          "velocity": 0.6062992125984252
        },
        {
          "duration": 0.3708333333333371,
          "durationTicks": 89,
          "midi": 59,
          "name": "B3",
          "ticks": 43967,
          "time": 183.19583333333333,
          "velocity": 0.7401574803149606
        },
        {
          "duration": 0.16249999999999432,
          "durationTicks": 39,
          "midi": 60,
          "name": "C4",
          "ticks": 44068,
          "time": 183.61666666666667,
          "velocity": 0.8031496062992126
        },
        {
          "duration": 0.041666666666685614,
          "durationTicks": 10,
          "midi": 59,
          "name": "B3",
          "ticks": 44111,
          "time": 183.79583333333332,
          "velocity": 0.5511811023622047
        },
        {
          "duration": 0.07083333333332575,
          "durationTicks": 17,
          "midi": 60,
          "name": "C4",
          "ticks": 44128,
          "time": 183.86666666666667,
          "velocity": 0.7401574803149606
        },
        {
          "duration": 0.22083333333333144,
          "durationTicks": 53,
          "midi": 59,
          "name": "B3",
          "ticks": 44157,
          "time": 183.9875,
          "velocity": 0.7874015748031497
        },
        {
          "duration": 0.27916666666666856,
          "durationTicks": 67,
          "midi": 60,
          "name": "C4",
          "ticks": 44215,
          "time": 184.22916666666666,
          "velocity": 0.7401574803149606
        },
        {
          "duration": 0.2874999999999943,
          "durationTicks": 69,
          "midi": 62,
          "name": "D4",
          "ticks": 44287,
          "time": 184.52916666666667,
          "velocity": 1
        },
        {
          "duration": 0.04166666666665719,
          "durationTicks": 10,
          "midi": 54,
          "name": "F#3",
          "ticks": 44361,
          "time": 184.8375,
          "velocity": 0.7007874015748031
        },
        {
          "duration": 0.17916666666667425,
          "durationTicks": 43,
          "midi": 55,
          "name": "G3",
          "ticks": 44378,
          "time": 184.90833333333333,
          "velocity": 0.7322834645669292
        },
        {
          "duration": 0.25833333333332575,
          "durationTicks": 62,
          "midi": 55,
          "name": "G3",
          "ticks": 44445,
          "time": 185.1875,
          "velocity": 0.6062992125984252
        },
        {
          "duration": 0.19166666666666288,
          "durationTicks": 46,
          "midi": 64,
          "name": "E4",
          "ticks": 44541,
          "time": 185.5875,
          "velocity": 0.7401574803149606
        },
        {
          "duration": 0.10000000000002274,
          "durationTicks": 24,
          "midi": 65,
          "name": "F4",
          "ticks": 44591,
          "time": 185.79583333333332,
          "velocity": 0.7480314960629921
        },
        {
          "duration": 0.07083333333335418,
          "durationTicks": 17,
          "midi": 62,
          "name": "D4",
          "ticks": 44651,
          "time": 186.04583333333332,
          "velocity": 0.7716535433070866
        },
        {
          "duration": 0.22083333333333144,
          "durationTicks": 53,
          "midi": 62,
          "name": "D4",
          "ticks": 44692,
          "time": 186.21666666666667,
          "velocity": 0.7795275590551181
        },
        {
          "duration": 0.09999999999999432,
          "durationTicks": 24,
          "midi": 62,
          "name": "D4",
          "ticks": 44762,
          "time": 186.50833333333333,
          "velocity": 0.7795275590551181
        },
        {
          "duration": 0.14999999999997726,
          "durationTicks": 36,
          "midi": 60,
          "name": "C4",
          "ticks": 44817,
          "time": 186.7375,
          "velocity": 0.8031496062992126
        },
        {
          "duration": 0.5500000000000114,
          "durationTicks": 132,
          "midi": 57,
          "name": "A3",
          "ticks": 44872,
          "time": 186.96666666666667,
          "velocity": 0.8582677165354331
        },
        {
          "duration": 0.4375,
          "durationTicks": 105,
          "midi": 59,
          "name": "B3",
          "ticks": 45019,
          "time": 187.57916666666668,
          "velocity": 0.9606299212598425
        },
        {
          "duration": 0.21666666666666856,
          "durationTicks": 52,
          "midi": 60,
          "name": "C4",
          "ticks": 45127,
          "time": 188.02916666666667,
          "velocity": 0.6850393700787402
        },
        {
          "duration": 0.32083333333332575,
          "durationTicks": 77,
          "midi": 59,
          "name": "B3",
          "ticks": 45184,
          "time": 188.26666666666668,
          "velocity": 0.8740157480314961
        },
        {
          "duration": 0.2083333333333428,
          "durationTicks": 50,
          "midi": 60,
          "name": "C4",
          "ticks": 45266,
          "time": 188.60833333333332,
          "velocity": 0.8110236220472441
        },
        {
          "duration": 0.1875,
          "durationTicks": 45,
          "midi": 62,
          "name": "D4",
          "ticks": 45338,
          "time": 188.90833333333333,
          "velocity": 0.9448818897637795
        },
        {
          "duration": 0.27916666666666856,
          "durationTicks": 67,
          "midi": 55,
          "name": "G3",
          "ticks": 45417,
          "time": 189.2375,
          "velocity": 0.8188976377952756
        },
        {
          "duration": 0.05000000000001137,
          "durationTicks": 12,
          "midi": 30,
          "name": "F#1",
          "ticks": 45549,
          "time": 189.7875,
          "velocity": 0.3779527559055118
        },
        {
          "duration": 0.22916666666668561,
          "durationTicks": 55,
          "midi": 64,
          "name": "E4",
          "ticks": 45595,
          "time": 189.97916666666666,
          "velocity": 0.8740157480314961
        },
        {
          "duration": 0.09999999999999432,
          "durationTicks": 24,
          "midi": 65,
          "name": "F4",
          "ticks": 45652,
          "time": 190.21666666666667,
          "velocity": 0.5984251968503937
        },
        {
          "duration": 0.23333333333332007,
          "durationTicks": 56,
          "midi": 62,
          "name": "D4",
          "ticks": 45695,
          "time": 190.39583333333334,
          "velocity": 0.7795275590551181
        },
        {
          "duration": 0.6000000000000227,
          "durationTicks": 144,
          "midi": 64,
          "name": "E4",
          "ticks": 45753,
          "time": 190.6375,
          "velocity": 0.9291338582677166
        },
        {
          "duration": 0.10833333333334849,
          "durationTicks": 26,
          "midi": 55,
          "name": "G3",
          "ticks": 45931,
          "time": 191.37916666666666,
          "velocity": 0.7716535433070866
        },
        {
          "duration": 0.34166666666666856,
          "durationTicks": 82,
          "midi": 57,
          "name": "A3",
          "ticks": 45969,
          "time": 191.5375,
          "velocity": 0.7244094488188977
        },
        {
          "duration": 0.3708333333333371,
          "durationTicks": 89,
          "midi": 59,
          "name": "B3",
          "ticks": 46065,
          "time": 191.9375,
          "velocity": 0.937007874015748
        },
        {
          "duration": 0.3291666666666515,
          "durationTicks": 79,
          "midi": 60,
          "name": "C4",
          "ticks": 46159,
          "time": 192.32916666666668,
          "velocity": 0.9606299212598425
        },
        {
          "duration": 0.30000000000001137,
          "durationTicks": 72,
          "midi": 59,
          "name": "B3",
          "ticks": 46240,
          "time": 192.66666666666666,
          "velocity": 0.8740157480314961
        },
        {
          "duration": 0.24166666666664582,
          "durationTicks": 58,
          "midi": 60,
          "name": "C4",
          "ticks": 46317,
          "time": 192.9875,
          "velocity": 0.8740157480314961
        },
        {
          "duration": 0.19166666666666288,
          "durationTicks": 46,
          "midi": 98,
          "name": "D7",
          "ticks": 46377,
          "time": 193.2375,
          "velocity": 0.8110236220472441
        },
        {
          "duration": 0.6291666666666629,
          "durationTicks": 151,
          "midi": 55,
          "name": "G3",
          "ticks": 46459,
          "time": 193.57916666666668,
          "velocity": 0.8818897637795275
        },
        {
          "duration": 0.17916666666664582,
          "durationTicks": 43,
          "midi": 64,
          "name": "E4",
          "ticks": 46639,
          "time": 194.32916666666668,
          "velocity": 0.8346456692913385
        },
        {
          "duration": 0.15000000000000568,
          "durationTicks": 36,
          "midi": 65,
          "name": "F4",
          "ticks": 46687,
          "time": 194.52916666666667,
          "velocity": 0.7716535433070866
        },
        {
          "duration": 0.07083333333332575,
          "durationTicks": 17,
          "midi": 62,
          "name": "D4",
          "ticks": 46754,
          "time": 194.80833333333334,
          "velocity": 0.8346456692913385
        },
        {
          "duration": 0.25,
          "durationTicks": 60,
          "midi": 62,
          "name": "D4",
          "ticks": 46773,
          "time": 194.8875,
          "velocity": 0.8818897637795275
        },
        {
          "duration": 0.22083333333333144,
          "durationTicks": 53,
          "midi": 62,
          "name": "D4",
          "ticks": 46857,
          "time": 195.2375,
          "velocity": 0.8661417322834646
        },
        {
          "duration": 0.48749999999998295,
          "durationTicks": 117,
          "midi": 60,
          "name": "C4",
          "ticks": 46910,
          "time": 195.45833333333334,
          "velocity": 0.8110236220472441
        },
        {
          "duration": 0.19166666666666288,
          "durationTicks": 46,
          "midi": 59,
          "name": "B3",
          "ticks": 47109,
          "time": 196.2875,
          "velocity": 0.8110236220472441
        },
        {
          "duration": 0.3375000000000057,
          "durationTicks": 81,
          "midi": 57,
          "name": "A3",
          "ticks": 47174,
          "time": 196.55833333333334,
          "velocity": 0.8503937007874016
        },
        {
          "duration": 0.3375000000000057,
          "durationTicks": 81,
          "midi": 59,
          "name": "B3",
          "ticks": 47275,
          "time": 196.97916666666666,
          "velocity": 0.8267716535433071
        },
        {
          "duration": 0.1708333333333485,
          "durationTicks": 41,
          "midi": 60,
          "name": "C4",
          "ticks": 47366,
          "time": 197.35833333333332,
          "velocity": 0.7952755905511811
        },
        {
          "duration": 0.1416666666666515,
          "durationTicks": 34,
          "midi": 57,
          "name": "A3",
          "ticks": 47435,
          "time": 197.64583333333334,
          "velocity": 0.7165354330708661
        },
        {
          "duration": 0.1875,
          "durationTicks": 45,
          "midi": 59,
          "name": "B3",
          "ticks": 47479,
          "time": 197.82916666666668,
          "velocity": 0.7401574803149606
        },
        {
          "duration": 0.09166666666666856,
          "durationTicks": 22,
          "midi": 55,
          "name": "G3",
          "ticks": 47531,
          "time": 198.04583333333332,
          "velocity": 0.47244094488188976
        },
        {
          "duration": 0.05000000000001137,
          "durationTicks": 12,
          "midi": 40,
          "name": "E2",
          "ticks": 47553,
          "time": 198.1375,
          "velocity": 0.5748031496062992
        },
        {
          "duration": 0.04166666666665719,
          "durationTicks": 10,
          "midi": 28,
          "name": "E1",
          "ticks": 47577,
          "time": 198.2375,
          "velocity": 0.5826771653543307
        },
        {
          "duration": 0.21250000000000568,
          "durationTicks": 51,
          "midi": 57,
          "name": "A3",
          "ticks": 47632,
          "time": 198.46666666666667,
          "velocity": 0.8818897637795275
        },
        {
          "duration": 0.12083333333333712,
          "durationTicks": 29,
          "midi": 55,
          "name": "G3",
          "ticks": 47702,
          "time": 198.75833333333333,
          "velocity": 0.7244094488188977
        },
        {
          "duration": 0.1875,
          "durationTicks": 45,
          "midi": 57,
          "name": "A3",
          "ticks": 47743,
          "time": 198.92916666666667,
          "velocity": 0.7007874015748031
        },
        {
          "duration": 0.6083333333333485,
          "durationTicks": 146,
          "midi": 57,
          "name": "A3",
          "ticks": 47798,
          "time": 199.15833333333333,
          "velocity": 0.8582677165354331
        },
        {
          "duration": 0.09999999999999432,
          "durationTicks": 24,
          "midi": 55,
          "name": "G3",
          "ticks": 48023,
          "time": 200.09583333333333,
          "velocity": 0.7401574803149606
        },
        {
          "duration": 0.15000000000000568,
          "durationTicks": 36,
          "midi": 57,
          "name": "A3",
          "ticks": 48059,
          "time": 200.24583333333334,
          "velocity": 0.7716535433070866
        },
        {
          "duration": 0.4625000000000057,
          "durationTicks": 111,
          "midi": 59,
          "name": "B3",
          "ticks": 48148,
          "time": 200.61666666666667,
          "velocity": 0.9291338582677166
        },
        {
          "duration": 0.12083333333333712,
          "durationTicks": 29,
          "midi": 60,
          "name": "C4",
          "ticks": 48268,
          "time": 201.11666666666667,
          "velocity": 0.7637795275590551
        },
        {
          "duration": 0.08333333333334281,
          "durationTicks": 20,
          "midi": 60,
          "name": "C4",
          "ticks": 48311,
          "time": 201.29583333333332,
          "velocity": 0.7086614173228346
        },
        {
          "duration": 0.26249999999998863,
          "durationTicks": 63,
          "midi": 59,
          "name": "B3",
          "ticks": 48335,
          "time": 201.39583333333334,
          "velocity": 0.8346456692913385
        },
        {
          "duration": 0.041666666666685614,
          "durationTicks": 10,
          "midi": 76,
          "name": "E5",
          "ticks": 48400,
          "time": 201.66666666666666,
          "velocity": 0.47244094488188976
        },
        {
          "duration": 0.22083333333333144,
          "durationTicks": 53,
          "midi": 60,
          "name": "C4",
          "ticks": 48417,
          "time": 201.7375,
          "velocity": 0.7795275590551181
        },
        {
          "duration": 0.27916666666666856,
          "durationTicks": 67,
          "midi": 62,
          "name": "D4",
          "ticks": 48477,
          "time": 201.9875,
          "velocity": 0.7480314960629921
        },
        {
          "duration": 0.3333333333333428,
          "durationTicks": 80,
          "midi": 55,
          "name": "G3",
          "ticks": 48551,
          "time": 202.29583333333332,
          "velocity": 0.8661417322834646
        },
        {
          "duration": 0.23333333333332007,
          "durationTicks": 56,
          "midi": 55,
          "name": "G3",
          "ticks": 48659,
          "time": 202.74583333333334,
          "velocity": 0.4409448818897638
        },
        {
          "duration": 0.19166666666666288,
          "durationTicks": 46,
          "midi": 64,
          "name": "E4",
          "ticks": 48717,
          "time": 202.9875,
          "velocity": 0.8661417322834646
        },
        {
          "duration": 0.1708333333333485,
          "durationTicks": 41,
          "midi": 65,
          "name": "F4",
          "ticks": 48782,
          "time": 203.25833333333333,
          "velocity": 0.49606299212598426
        },
        {
          "duration": 0.08333333333334281,
          "durationTicks": 20,
          "midi": 98,
          "name": "D7",
          "ticks": 48839,
          "time": 203.49583333333334,
          "velocity": 0.7244094488188977
        },
        {
          "duration": 0.18333333333333712,
          "durationTicks": 44,
          "midi": 62,
          "name": "D4",
          "ticks": 48887,
          "time": 203.69583333333333,
          "velocity": 0.7637795275590551
        },
        {
          "duration": 0.10833333333332007,
          "durationTicks": 26,
          "midi": 62,
          "name": "D4",
          "ticks": 48957,
          "time": 203.9875,
          "velocity": 0.8031496062992126
        },
        {
          "duration": 0.03750000000002274,
          "durationTicks": 9,
          "midi": 40,
          "name": "E2",
          "ticks": 48986,
          "time": 204.10833333333332,
          "velocity": 0.3543307086614173
        },
        {
          "duration": 0.10833333333334849,
          "durationTicks": 26,
          "midi": 60,
          "name": "C4",
          "ticks": 49015,
          "time": 204.22916666666666,
          "velocity": 0.7559055118110236
        },
        {
          "duration": 0.16249999999999432,
          "durationTicks": 39,
          "midi": 57,
          "name": "A3",
          "ticks": 49055,
          "time": 204.39583333333334,
          "velocity": 0.6771653543307087
        },
        {
          "duration": 0.30000000000001137,
          "durationTicks": 72,
          "midi": 57,
          "name": "A3",
          "ticks": 49103,
          "time": 204.59583333333333,
          "velocity": 0.8031496062992126
        },
        {
          "duration": 0.20000000000001705,
          "durationTicks": 48,
          "midi": 59,
          "name": "B3",
          "ticks": 49202,
          "time": 205.00833333333333,
          "velocity": 0.8110236220472441
        },
        {
          "duration": 0.12916666666666288,
          "durationTicks": 31,
          "midi": 59,
          "name": "B3",
          "ticks": 49264,
          "time": 205.26666666666668,
          "velocity": 0.8267716535433071
        },
        {
          "duration": 0.1708333333333485,
          "durationTicks": 41,
          "midi": 60,
          "name": "C4",
          "ticks": 49300,
          "time": 205.41666666666666,
          "velocity": 0.8188976377952756
        },
        {
          "duration": 0.29999999999998295,
          "durationTicks": 72,
          "midi": 59,
          "name": "B3",
          "ticks": 49370,
          "time": 205.70833333333334,
          "velocity": 0.7401574803149606
        },
        {
          "duration": 0.2083333333333428,
          "durationTicks": 50,
          "midi": 60,
          "name": "C4",
          "ticks": 49466,
          "time": 206.10833333333332,
          "velocity": 0.8267716535433071
        },
        {
          "duration": 0.3499999999999943,
          "durationTicks": 84,
          "midi": 62,
          "name": "D4",
          "ticks": 49528,
          "time": 206.36666666666667,
          "velocity": 0.984251968503937
        },
        {
          "duration": 0.2291666666666572,
          "durationTicks": 55,
          "midi": 55,
          "name": "G3",
          "ticks": 49617,
          "time": 206.7375,
          "velocity": 0.8188976377952756
        },
        {
          "duration": 0.3708333333333371,
          "durationTicks": 89,
          "midi": 55,
          "name": "G3",
          "ticks": 49689,
          "time": 207.0375,
          "velocity": 0.44881889763779526
        },
        {
          "duration": 0.14166666666667993,
          "durationTicks": 34,
          "midi": 64,
          "name": "E4",
          "ticks": 49787,
          "time": 207.44583333333333,
          "velocity": 0.7637795275590551
        },
        {
          "duration": 0.07083333333332575,
          "durationTicks": 17,
          "midi": 65,
          "name": "F4",
          "ticks": 49823,
          "time": 207.59583333333333,
          "velocity": 0.8267716535433071
        },
        {
          "duration": 0.12083333333333712,
          "durationTicks": 29,
          "midi": 64,
          "name": "E4",
          "ticks": 49847,
          "time": 207.69583333333333,
          "velocity": 0.3937007874015748
        },
        {
          "duration": 0.1416666666666515,
          "durationTicks": 34,
          "midi": 62,
          "name": "D4",
          "ticks": 49888,
          "time": 207.86666666666667,
          "velocity": 0.7716535433070866
        },
        {
          "duration": 0.4416666666666913,
          "durationTicks": 106,
          "midi": 64,
          "name": "E4",
          "ticks": 49931,
          "time": 208.04583333333332,
          "velocity": 0.7165354330708661
        },
        {
          "duration": 0.10833333333332007,
          "durationTicks": 26,
          "midi": 48,
          "name": "C3",
          "ticks": 50085,
          "time": 208.6875,
          "velocity": 0.3228346456692913
        },
        {
          "duration": 0.037499999999994316,
          "durationTicks": 9,
          "midi": 75,
          "name": "D#5",
          "ticks": 50114,
          "time": 208.80833333333334,
          "velocity": 0.4881889763779528
        },
        {
          "duration": 0.05000000000001137,
          "durationTicks": 12,
          "midi": 79,
          "name": "G5",
          "ticks": 50126,
          "time": 208.85833333333332,
          "velocity": 0.33858267716535434
        },
        {
          "duration": 0.19166666666666288,
          "durationTicks": 46,
          "midi": 57,
          "name": "A3",
          "ticks": 50157,
          "time": 208.9875,
          "velocity": 0.6929133858267716
        },
        {
          "duration": 0.09999999999999432,
          "durationTicks": 24,
          "midi": 42,
          "name": "F#2",
          "ticks": 50203,
          "time": 209.17916666666667,
          "velocity": 0.25984251968503935
        },
        {
          "duration": 0.38750000000001705,
          "durationTicks": 93,
          "midi": 59,
          "name": "B3",
          "ticks": 50246,
          "time": 209.35833333333332,
          "velocity": 0.7716535433070866
        },
        {
          "duration": 0.25,
          "durationTicks": 60,
          "midi": 60,
          "name": "C4",
          "ticks": 50342,
          "time": 209.75833333333333,
          "velocity": 0.8740157480314961
        },
        {
          "duration": 0.09166666666666856,
          "durationTicks": 22,
          "midi": 60,
          "name": "C4",
          "ticks": 50411,
          "time": 210.04583333333332,
          "velocity": 0.7401574803149606
        },
        {
          "duration": 0.17083333333332007,
          "durationTicks": 41,
          "midi": 59,
          "name": "B3",
          "ticks": 50445,
          "time": 210.1875,
          "velocity": 0.7874015748031497
        },
        {
          "duration": 0.2874999999999943,
          "durationTicks": 69,
          "midi": 60,
          "name": "C4",
          "ticks": 50491,
          "time": 210.37916666666666,
          "velocity": 0.8267716535433071
        },
        {
          "duration": 0.17083333333332007,
          "durationTicks": 41,
          "midi": 62,
          "name": "D4",
          "ticks": 50570,
          "time": 210.70833333333334,
          "velocity": 0.8503937007874016
        },
        {
          "duration": 0.3333333333333428,
          "durationTicks": 80,
          "midi": 55,
          "name": "G3",
          "ticks": 50639,
          "time": 210.99583333333334,
          "velocity": 0.7244094488188977
        },
        {
          "duration": 0.10000000000002274,
          "durationTicks": 24,
          "midi": 60,
          "name": "C4",
          "ticks": 50831,
          "time": 211.79583333333332,
          "velocity": 0.8188976377952756
        },
        {
          "duration": 0.21250000000000568,
          "durationTicks": 51,
          "midi": 62,
          "name": "D4",
          "ticks": 50867,
          "time": 211.94583333333333,
          "velocity": 0.5275590551181102
        },
        {
          "duration": 0.3083333333333371,
          "durationTicks": 74,
          "midi": 60,
          "name": "C4",
          "ticks": 50947,
          "time": 212.27916666666667,
          "velocity": 0.6220472440944882
        },
        {
          "duration": 0.3583333333333485,
          "durationTicks": 86,
          "midi": 62,
          "name": "D4",
          "ticks": 51033,
          "time": 212.6375,
          "velocity": 0.8031496062992126
        },
        {
          "duration": 0.1416666666666515,
          "durationTicks": 34,
          "midi": 64,
          "name": "E4",
          "ticks": 51124,
          "time": 213.01666666666668,
          "velocity": 0.7716535433070866
        },
        {
          "duration": 0.07083333333332575,
          "durationTicks": 17,
          "midi": 78,
          "name": "F#5",
          "ticks": 51194,
          "time": 213.30833333333334,
          "velocity": 0.6220472440944882
        },
        {
          "duration": 0.07083333333332575,
          "durationTicks": 17,
          "midi": 79,
          "name": "G5",
          "ticks": 51218,
          "time": 213.40833333333333,
          "velocity": 0.6220472440944882
        },
        {
          "duration": 0.12916666666666288,
          "durationTicks": 31,
          "midi": 59,
          "name": "B3",
          "ticks": 51244,
          "time": 213.51666666666668,
          "velocity": 0.6456692913385826
        },
        {
          "duration": 0.07916666666667993,
          "durationTicks": 19,
          "midi": 60,
          "name": "C4",
          "ticks": 51280,
          "time": 213.66666666666666,
          "velocity": 0.7322834645669292
        },
        {
          "duration": 0.09999999999999432,
          "durationTicks": 24,
          "midi": 59,
          "name": "B3",
          "ticks": 51304,
          "time": 213.76666666666668,
          "velocity": 0.8661417322834646
        },
        {
          "duration": 0.4791666666666572,
          "durationTicks": 115,
          "midi": 57,
          "name": "A3",
          "ticks": 51364,
          "time": 214.01666666666668,
          "velocity": 0.8110236220472441
        },
        {
          "duration": 0.20000000000001705,
          "durationTicks": 48,
          "midi": 57,
          "name": "A3",
          "ticks": 51566,
          "time": 214.85833333333332,
          "velocity": 0.889763779527559
        },
        {
          "duration": 0.45000000000001705,
          "durationTicks": 108,
          "midi": 55,
          "name": "G3",
          "ticks": 51616,
          "time": 215.06666666666666,
          "velocity": 0.9133858267716536
        },
        {
          "duration": 0.47083333333333144,
          "durationTicks": 113,
          "midi": 57,
          "name": "A3",
          "ticks": 51729,
          "time": 215.5375,
          "velocity": 0.8267716535433071
        },
        {
          "duration": 0.12083333333333712,
          "durationTicks": 29,
          "midi": 59,
          "name": "B3",
          "ticks": 51854,
          "time": 216.05833333333334,
          "velocity": 0.8267716535433071
        },
        {
          "duration": 0.12083333333333712,
          "durationTicks": 29,
          "midi": 55,
          "name": "G3",
          "ticks": 51950,
          "time": 216.45833333333334,
          "velocity": 0.7007874015748031
        },
        {
          "duration": 0.4375,
          "durationTicks": 105,
          "midi": 57,
          "name": "A3",
          "ticks": 51991,
          "time": 216.62916666666666,
          "velocity": 0.7086614173228346
        },
        {
          "duration": 0.09999999999999432,
          "durationTicks": 24,
          "midi": 57,
          "name": "A3",
          "ticks": 52187,
          "time": 217.44583333333333,
          "velocity": 0.5039370078740157
        },
        {
          "duration": 0.09999999999999432,
          "durationTicks": 24,
          "midi": 55,
          "name": "G3",
          "ticks": 52221,
          "time": 217.5875,
          "velocity": 0.7007874015748031
        },
        {
          "duration": 0.17083333333332007,
          "durationTicks": 41,
          "midi": 57,
          "name": "A3",
          "ticks": 52257,
          "time": 217.7375,
          "velocity": 0.6929133858267716
        },
        {
          "duration": 0.40833333333333144,
          "durationTicks": 98,
          "midi": 59,
          "name": "B3",
          "ticks": 52339,
          "time": 218.07916666666668,
          "velocity": 0.8740157480314961
        },
        {
          "duration": 0.19166666666666288,
          "durationTicks": 46,
          "midi": 60,
          "name": "C4",
          "ticks": 52439,
          "time": 218.49583333333334,
          "velocity": 0.8031496062992126
        },
        {
          "duration": 0.09166666666666856,
          "durationTicks": 22,
          "midi": 60,
          "name": "C4",
          "ticks": 52499,
          "time": 218.74583333333334,
          "velocity": 0.7637795275590551
        },
        {
          "duration": 0.22083333333333144,
          "durationTicks": 53,
          "midi": 59,
          "name": "B3",
          "ticks": 52533,
          "time": 218.8875,
          "velocity": 0.7401574803149606
        },
        {
          "duration": 0.21666666666666856,
          "durationTicks": 52,
          "midi": 60,
          "name": "C4",
          "ticks": 52603,
          "time": 219.17916666666667,
          "velocity": 0.6929133858267716
        },
        {
          "duration": 0.3208333333333542,
          "durationTicks": 77,
          "midi": 62,
          "name": "D4",
          "ticks": 52660,
          "time": 219.41666666666666,
          "velocity": 0.889763779527559
        },
        {
          "duration": 0.04166666666665719,
          "durationTicks": 10,
          "midi": 54,
          "name": "F#3",
          "ticks": 52737,
          "time": 219.7375,
          "velocity": 0.7244094488188977
        },
        {
          "duration": 0.4833333333333485,
          "durationTicks": 116,
          "midi": 55,
          "name": "G3",
          "ticks": 52751,
          "time": 219.79583333333332,
          "velocity": 0.8582677165354331
        },
        {
          "duration": 0.20000000000001705,
          "durationTicks": 48,
          "midi": 64,
          "name": "E4",
          "ticks": 52915,
          "time": 220.47916666666666,
          "velocity": 0.8267716535433071
        },
        {
          "duration": 0.09166666666666856,
          "durationTicks": 22,
          "midi": 65,
          "name": "F4",
          "ticks": 52967,
          "time": 220.69583333333333,
          "velocity": 0.7795275590551181
        },
        {
          "duration": 0.07916666666667993,
          "durationTicks": 19,
          "midi": 62,
          "name": "D4",
          "ticks": 53025,
          "time": 220.9375,
          "velocity": 0.7007874015748031
        },
        {
          "duration": 0.21666666666666856,
          "durationTicks": 52,
          "midi": 62,
          "name": "D4",
          "ticks": 53071,
          "time": 221.12916666666666,
          "velocity": 0.8740157480314961
        },
        {
          "duration": 0.17083333333332007,
          "durationTicks": 41,
          "midi": 62,
          "name": "D4",
          "ticks": 53135,
          "time": 221.39583333333334,
          "velocity": 0.905511811023622
        },
        {
          "duration": 0.1416666666666515,
          "durationTicks": 34,
          "midi": 60,
          "name": "C4",
          "ticks": 53195,
          "time": 221.64583333333334,
          "velocity": 0.8346456692913385
        },
        {
          "duration": 0.5500000000000114,
          "durationTicks": 132,
          "midi": 57,
          "name": "A3",
          "ticks": 53246,
          "time": 221.85833333333332,
          "velocity": 0.84251968503937
        },
        {
          "duration": 0.45000000000001705,
          "durationTicks": 108,
          "midi": 59,
          "name": "B3",
          "ticks": 53387,
          "time": 222.44583333333333,
          "velocity": 0.8976377952755905
        },
        {
          "duration": 0.12916666666666288,
          "durationTicks": 31,
          "midi": 60,
          "name": "C4",
          "ticks": 53500,
          "time": 222.91666666666666,
          "velocity": 0.6141732283464567
        },
        {
          "duration": 0.29999999999998295,
          "durationTicks": 72,
          "midi": 59,
          "name": "B3",
          "ticks": 53563,
          "time": 223.17916666666667,
          "velocity": 0.889763779527559
        },
        {
          "duration": 0.16249999999999432,
          "durationTicks": 39,
          "midi": 60,
          "name": "C4",
          "ticks": 53639,
          "time": 223.49583333333334,
          "velocity": 0.8267716535433071
        },
        {
          "duration": 0.3375000000000057,
          "durationTicks": 81,
          "midi": 62,
          "name": "D4",
          "ticks": 53714,
          "time": 223.80833333333334,
          "velocity": 0.889763779527559
        },
        {
          "duration": 0.2291666666666572,
          "durationTicks": 55,
          "midi": 55,
          "name": "G3",
          "ticks": 53798,
          "time": 224.15833333333333,
          "velocity": 0.84251968503937
        },
        {
          "duration": 0.05000000000001137,
          "durationTicks": 12,
          "midi": 64,
          "name": "E4",
          "ticks": 53920,
          "time": 224.66666666666666,
          "velocity": 0.5433070866141733
        },
        {
          "duration": 0.10833333333334849,
          "durationTicks": 26,
          "midi": 64,
          "name": "E4",
          "ticks": 53935,
          "time": 224.72916666666666,
          "velocity": 0.5905511811023622
        },
        {
          "duration": 0.21666666666666856,
          "durationTicks": 52,
          "midi": 64,
          "name": "E4",
          "ticks": 53971,
          "time": 224.87916666666666,
          "velocity": 0.8661417322834646
        },
        {
          "duration": 0.09166666666666856,
          "durationTicks": 22,
          "midi": 65,
          "name": "F4",
          "ticks": 54028,
          "time": 225.11666666666667,
          "velocity": 0.5590551181102362
        },
        {
          "duration": 0.25,
          "durationTicks": 60,
          "midi": 62,
          "name": "D4",
          "ticks": 54071,
          "time": 225.29583333333332,
          "velocity": 0.8267716535433071
        },
        {
          "duration": 0.11249999999998295,
          "durationTicks": 27,
          "midi": 55,
          "name": "G3",
          "ticks": 54304,
          "time": 226.26666666666668,
          "velocity": 0.8031496062992126
        },
        {
          "duration": 0.17916666666664582,
          "durationTicks": 43,
          "midi": 57,
          "name": "A3",
          "ticks": 54343,
          "time": 226.42916666666667,
          "velocity": 0.6850393700787402
        },
        {
          "duration": 0.39166666666667993,
          "durationTicks": 94,
          "midi": 59,
          "name": "B3",
          "ticks": 54436,
          "time": 226.81666666666666,
          "velocity": 0.9212598425196851
        },
        {
          "duration": 0.3375000000000057,
          "durationTicks": 81,
          "midi": 60,
          "name": "C4",
          "ticks": 54535,
          "time": 227.22916666666666,
          "velocity": 0.889763779527559
        },
        {
          "duration": 0.19166666666666288,
          "durationTicks": 46,
          "midi": 59,
          "name": "B3",
          "ticks": 54645,
          "time": 227.6875,
          "velocity": 0.7322834645669292
        },
        {
          "duration": 0.24166666666667425,
          "durationTicks": 58,
          "midi": 60,
          "name": "C4",
          "ticks": 54693,
          "time": 227.8875,
          "velocity": 0.7086614173228346
        },
        {
          "duration": 0.2708333333333428,
          "durationTicks": 65,
          "midi": 62,
          "name": "D4",
          "ticks": 54758,
          "time": 228.15833333333333,
          "velocity": 0.9448818897637795
        },
        {
          "duration": 0.19166666666666288,
          "durationTicks": 46,
          "midi": 64,
          "name": "E4",
          "ticks": 55012,
          "time": 229.21666666666667,
          "velocity": 0.8503937007874016
        },
        {
          "duration": 0.15000000000000568,
          "durationTicks": 36,
          "midi": 65,
          "name": "F4",
          "ticks": 55063,
          "time": 229.42916666666667,
          "velocity": 0.8031496062992126
        },
        {
          "duration": 0.11250000000001137,
          "durationTicks": 27,
          "midi": 62,
          "name": "D4",
          "ticks": 55120,
          "time": 229.66666666666666,
          "velocity": 0.8110236220472441
        },
        {
          "duration": 0.19166666666666288,
          "durationTicks": 46,
          "midi": 62,
          "name": "D4",
          "ticks": 55163,
          "time": 229.84583333333333,
          "velocity": 0.8188976377952756
        },
        {
          "duration": 0.15833333333333144,
          "durationTicks": 38,
          "midi": 62,
          "name": "D4",
          "ticks": 55233,
          "time": 230.1375,
          "velocity": 0.7165354330708661
        },
        {
          "duration": 0.5,
          "durationTicks": 120,
          "midi": 60,
          "name": "C4",
          "ticks": 55283,
          "time": 230.34583333333333,
          "velocity": 0.84251968503937
        },
        {
          "duration": 0.2291666666666572,
          "durationTicks": 55,
          "midi": 33,
          "name": "A1",
          "ticks": 55423,
          "time": 230.92916666666667,
          "velocity": 0.5196850393700787
        },
        {
          "duration": 0.15833333333333144,
          "durationTicks": 38,
          "midi": 59,
          "name": "B3",
          "ticks": 55485,
          "time": 231.1875,
          "velocity": 0.7401574803149606
        },
        {
          "duration": 0.25,
          "durationTicks": 60,
          "midi": 57,
          "name": "A3",
          "ticks": 55547,
          "time": 231.44583333333333,
          "velocity": 0.8267716535433071
        },
        {
          "duration": 0.34166666666666856,
          "durationTicks": 82,
          "midi": 78,
          "name": "F#5",
          "ticks": 55643,
          "time": 231.84583333333333,
          "velocity": 0.7322834645669292
        },
        {
          "duration": 0.15833333333333144,
          "durationTicks": 38,
          "midi": 60,
          "name": "C4",
          "ticks": 55742,
          "time": 232.25833333333333,
          "velocity": 0.8188976377952756
        },
        {
          "duration": 0.17916666666667425,
          "durationTicks": 43,
          "midi": 57,
          "name": "A3",
          "ticks": 55802,
          "time": 232.50833333333333,
          "velocity": 0.8188976377952756
        },
        {
          "duration": 0.12916666666666288,
          "durationTicks": 31,
          "midi": 59,
          "name": "B3",
          "ticks": 55857,
          "time": 232.7375,
          "velocity": 0.6692913385826772
        },
        {
          "duration": 0.04999999999998295,
          "durationTicks": 12,
          "midi": 62,
          "name": "D4",
          "ticks": 55984,
          "time": 233.26666666666668,
          "velocity": 0.5039370078740157
        },
        {
          "duration": 0.19166666666666288,
          "durationTicks": 46,
          "midi": 57,
          "name": "A3",
          "ticks": 56008,
          "time": 233.36666666666667,
          "velocity": 0.8188976377952756
        },
        {
          "duration": 0.04166666666665719,
          "durationTicks": 10,
          "midi": 57,
          "name": "A3",
          "ticks": 56056,
          "time": 233.56666666666666,
          "velocity": 0.6377952755905512
        },
        {
          "duration": 0.10000000000002274,
          "durationTicks": 24,
          "midi": 55,
          "name": "G3",
          "ticks": 56080,
          "time": 233.66666666666666,
          "velocity": 0.8267716535433071
        },
        {
          "duration": 0.17083333333332007,
          "durationTicks": 41,
          "midi": 57,
          "name": "A3",
          "ticks": 56121,
          "time": 233.8375,
          "velocity": 0.7480314960629921
        },
        {
          "duration": 0.6374999999999886,
          "durationTicks": 153,
          "midi": 57,
          "name": "A3",
          "ticks": 56174,
          "time": 234.05833333333334,
          "velocity": 0.8582677165354331
        },
        {
          "duration": 0.09999999999999432,
          "durationTicks": 24,
          "midi": 55,
          "name": "G3",
          "ticks": 56399,
          "time": 234.99583333333334,
          "velocity": 0.6692913385826772
        },
        {
          "duration": 0.32083333333332575,
          "durationTicks": 77,
          "midi": 57,
          "name": "A3",
          "ticks": 56435,
          "time": 235.14583333333334,
          "velocity": 0.7637795275590551
        },
        {
          "duration": 0.4375,
          "durationTicks": 105,
          "midi": 59,
          "name": "B3",
          "ticks": 56522,
          "time": 235.50833333333333,
          "velocity": 0.8503937007874016
        },
        {
          "duration": 0.17916666666664582,
          "durationTicks": 43,
          "midi": 60,
          "name": "C4",
          "ticks": 56630,
          "time": 235.95833333333334,
          "velocity": 0.84251968503937
        },
        {
          "duration": 0.07083333333335418,
          "durationTicks": 17,
          "midi": 60,
          "name": "C4",
          "ticks": 56687,
          "time": 236.19583333333333,
          "velocity": 0.7480314960629921
        },
        {
          "duration": 0.2708333333333428,
          "durationTicks": 65,
          "midi": 59,
          "name": "B3",
          "ticks": 56709,
          "time": 236.2875,
          "velocity": 0.8740157480314961
        },
        {
          "duration": 0.27916666666664014,
          "durationTicks": 67,
          "midi": 60,
          "name": "C4",
          "ticks": 56779,
          "time": 236.57916666666668,
          "velocity": 0.7165354330708661
        },
        {
          "duration": 0.25833333333332575,
          "durationTicks": 62,
          "midi": 62,
          "name": "D4",
          "ticks": 56851,
          "time": 236.87916666666666,
          "velocity": 0.8031496062992126
        },
        {
          "duration": 0.3083333333333371,
          "durationTicks": 74,
          "midi": 55,
          "name": "G3",
          "ticks": 56930,
          "time": 237.20833333333334,
          "velocity": 0.7795275590551181
        },
        {
          "duration": 0.25,
          "durationTicks": 60,
          "midi": 64,
          "name": "E4",
          "ticks": 57093,
          "time": 237.8875,
          "velocity": 0.8818897637795275
        },
        {
          "duration": 0.08333333333331439,
          "durationTicks": 20,
          "midi": 98,
          "name": "D7",
          "ticks": 57215,
          "time": 238.39583333333334,
          "velocity": 0.7480314960629921
        },
        {
          "duration": 0.16249999999999432,
          "durationTicks": 39,
          "midi": 62,
          "name": "D4",
          "ticks": 57263,
          "time": 238.59583333333333,
          "velocity": 0.7874015748031497
        },
        {
          "duration": 0.12916666666666288,
          "durationTicks": 31,
          "midi": 62,
          "name": "D4",
          "ticks": 57328,
          "time": 238.86666666666667,
          "velocity": 0.8503937007874016
        },
        {
          "duration": 0.04166666666665719,
          "durationTicks": 10,
          "midi": 40,
          "name": "E2",
          "ticks": 57364,
          "time": 239.01666666666668,
          "velocity": 0.3858267716535433
        },
        {
          "duration": 0.15833333333333144,
          "durationTicks": 38,
          "midi": 60,
          "name": "C4",
          "ticks": 57381,
          "time": 239.0875,
          "velocity": 0.7637795275590551
        },
        {
          "duration": 0.5708333333333542,
          "durationTicks": 137,
          "midi": 57,
          "name": "A3",
          "ticks": 57431,
          "time": 239.29583333333332,
          "velocity": 0.8031496062992126
        },
        {
          "duration": 0.2083333333333428,
          "durationTicks": 50,
          "midi": 59,
          "name": "B3",
          "ticks": 57578,
          "time": 239.90833333333333,
          "velocity": 0.8031496062992126
        },
        {
          "duration": 0.12083333333333712,
          "durationTicks": 29,
          "midi": 59,
          "name": "B3",
          "ticks": 57640,
          "time": 240.16666666666666,
          "velocity": 0.7716535433070866
        },
        {
          "duration": 0.1875,
          "durationTicks": 45,
          "midi": 60,
          "name": "C4",
          "ticks": 57674,
          "time": 240.30833333333334,
          "velocity": 0.84251968503937
        },
        {
          "duration": 0.3375000000000057,
          "durationTicks": 81,
          "midi": 59,
          "name": "B3",
          "ticks": 57746,
          "time": 240.60833333333332,
          "velocity": 0.7480314960629921
        },
        {
          "duration": 0.23333333333332007,
          "durationTicks": 56,
          "midi": 60,
          "name": "C4",
          "ticks": 57839,
          "time": 240.99583333333334,
          "velocity": 0.7401574803149606
        },
        {
          "duration": 0.17916666666664582,
          "durationTicks": 43,
          "midi": 62,
          "name": "D4",
          "ticks": 57904,
          "time": 241.26666666666668,
          "velocity": 0.8740157480314961
        },
        {
          "duration": 0.21249999999997726,
          "durationTicks": 51,
          "midi": 55,
          "name": "G3",
          "ticks": 57995,
          "time": 241.64583333333334,
          "velocity": 0.8346456692913385
        },
        {
          "duration": 0.13333333333332575,
          "durationTicks": 32,
          "midi": 64,
          "name": "E4",
          "ticks": 58163,
          "time": 242.34583333333333,
          "velocity": 0.7637795275590551
        },
        {
          "duration": 0.09166666666666856,
          "durationTicks": 22,
          "midi": 65,
          "name": "F4",
          "ticks": 58199,
          "time": 242.49583333333334,
          "velocity": 0.7480314960629921
        },
        {
          "duration": 0.1208333333333087,
          "durationTicks": 29,
          "midi": 62,
          "name": "D4",
          "ticks": 58264,
          "time": 242.76666666666668,
          "velocity": 0.8267716535433071
        },
        {
          "duration": 0.19166666666666288,
          "durationTicks": 46,
          "midi": 64,
          "name": "E4",
          "ticks": 58305,
          "time": 242.9375,
          "velocity": 0.7480314960629921
        },
        {
          "duration": 0.07083333333332575,
          "durationTicks": 17,
          "midi": 64,
          "name": "E4",
          "ticks": 58425,
          "time": 243.4375,
          "velocity": 0.33070866141732286
        },
        {
          "duration": 0.05000000000001137,
          "durationTicks": 12,
          "midi": 56,
          "name": "G#3",
          "ticks": 58492,
          "time": 243.71666666666667,
          "velocity": 0.6929133858267716
        },
        {
          "duration": 0.041666666666685614,
          "durationTicks": 10,
          "midi": 55,
          "name": "G3",
          "ticks": 58509,
          "time": 243.7875,
          "velocity": 0.6692913385826772
        },
        {
          "duration": 0.1875,
          "durationTicks": 45,
          "midi": 57,
          "name": "A3",
          "ticks": 58531,
          "time": 243.87916666666666,
          "velocity": 0.6850393700787402
        },
        {
          "duration": 0.4000000000000057,
          "durationTicks": 96,
          "midi": 59,
          "name": "B3",
          "ticks": 58622,
          "time": 244.25833333333333,
          "velocity": 0.7637795275590551
        },
        {
          "duration": 0.20833333333331439,
          "durationTicks": 50,
          "midi": 60,
          "name": "C4",
          "ticks": 58723,
          "time": 244.67916666666667,
          "velocity": 0.7874015748031497
        },
        {
          "duration": 0.09999999999999432,
          "durationTicks": 24,
          "midi": 60,
          "name": "C4",
          "ticks": 58785,
          "time": 244.9375,
          "velocity": 0.7086614173228346
        },
        {
          "duration": 0.17916666666664582,
          "durationTicks": 43,
          "midi": 59,
          "name": "B3",
          "ticks": 58819,
          "time": 245.07916666666668,
          "velocity": 0.7874015748031497
        },
        {
          "duration": 0.27916666666666856,
          "durationTicks": 67,
          "midi": 60,
          "name": "C4",
          "ticks": 58867,
          "time": 245.27916666666667,
          "velocity": 0.7007874015748031
        },
        {
          "duration": 0.28333333333333144,
          "durationTicks": 68,
          "midi": 62,
          "name": "D4",
          "ticks": 58943,
          "time": 245.59583333333333,
          "velocity": 0.889763779527559
        },
        {
          "duration": 0.35000000000002274,
          "durationTicks": 84,
          "midi": 55,
          "name": "G3",
          "ticks": 59013,
          "time": 245.8875,
          "velocity": 0.7401574803149606
        },
        {
          "duration": 0.20000000000001705,
          "durationTicks": 48,
          "midi": 59,
          "name": "B3",
          "ticks": 59147,
          "time": 246.44583333333333,
          "velocity": 0.5511811023622047
        },
        {
          "duration": 0.09999999999999432,
          "durationTicks": 24,
          "midi": 60,
          "name": "C4",
          "ticks": 59205,
          "time": 246.6875,
          "velocity": 0.8031496062992126
        },
        {
          "duration": 0.22083333333333144,
          "durationTicks": 53,
          "midi": 62,
          "name": "D4",
          "ticks": 59241,
          "time": 246.8375,
          "velocity": 0.6771653543307087
        },
        {
          "duration": 0.3083333333333371,
          "durationTicks": 74,
          "midi": 60,
          "name": "C4",
          "ticks": 59323,
          "time": 247.17916666666667,
          "velocity": 0.6535433070866141
        },
        {
          "duration": 0.3499999999999943,
          "durationTicks": 84,
          "midi": 62,
          "name": "D4",
          "ticks": 59409,
          "time": 247.5375,
          "velocity": 0.8031496062992126
        },
        {
          "duration": 0.27916666666666856,
          "durationTicks": 67,
          "midi": 64,
          "name": "E4",
          "ticks": 59500,
          "time": 247.91666666666666,
          "velocity": 0.8031496062992126
        },
        {
          "duration": 0.05833333333333712,
          "durationTicks": 14,
          "midi": 78,
          "name": "F#5",
          "ticks": 59570,
          "time": 248.20833333333334,
          "velocity": 0.6141732283464567
        },
        {
          "duration": 0.08333333333334281,
          "durationTicks": 20,
          "midi": 79,
          "name": "G5",
          "ticks": 59591,
          "time": 248.29583333333332,
          "velocity": 0.6535433070866141
        },
        {
          "duration": 0.12916666666666288,
          "durationTicks": 31,
          "midi": 59,
          "name": "B3",
          "ticks": 59620,
          "time": 248.41666666666666,
          "velocity": 0.6141732283464567
        },
        {
          "duration": 0.07083333333332575,
          "durationTicks": 17,
          "midi": 60,
          "name": "C4",
          "ticks": 59656,
          "time": 248.56666666666666,
          "velocity": 0.7165354330708661
        },
        {
          "duration": 0.10000000000002274,
          "durationTicks": 24,
          "midi": 59,
          "name": "B3",
          "ticks": 59680,
          "time": 248.66666666666666,
          "velocity": 0.84251968503937
        },
        {
          "duration": 0.35000000000002274,
          "durationTicks": 84,
          "midi": 57,
          "name": "A3",
          "ticks": 59740,
          "time": 248.91666666666666,
          "velocity": 0.7716535433070866
        },
        {
          "duration": 0.17916666666667425,
          "durationTicks": 43,
          "midi": 57,
          "name": "A3",
          "ticks": 59942,
          "time": 249.75833333333333,
          "velocity": 0.84251968503937
        },
        {
          "duration": 0.4000000000000057,
          "durationTicks": 96,
          "midi": 55,
          "name": "G3",
          "ticks": 59995,
          "time": 249.97916666666666,
          "velocity": 0.8582677165354331
        },
        {
          "duration": 0.47083333333333144,
          "durationTicks": 113,
          "midi": 57,
          "name": "A3",
          "ticks": 60105,
          "time": 250.4375,
          "velocity": 0.7952755905511811
        },
        {
          "duration": 0.09166666666666856,
          "durationTicks": 22,
          "midi": 59,
          "name": "B3",
          "ticks": 60227,
          "time": 250.94583333333333,
          "velocity": 0.8110236220472441
        },
        {
          "duration": 0.13333333333332575,
          "durationTicks": 32,
          "midi": 55,
          "name": "G3",
          "ticks": 60323,
          "time": 251.34583333333333,
          "velocity": 0.7559055118110236
        },
        {
          "duration": 0.44999999999998863,
          "durationTicks": 108,
          "midi": 57,
          "name": "A3",
          "ticks": 60364,
          "time": 251.51666666666668,
          "velocity": 0.7244094488188977
        },
        {
          "duration": 0.12916666666666288,
          "durationTicks": 31,
          "midi": 57,
          "name": "A3",
          "ticks": 60489,
          "time": 252.0375,
          "velocity": 0.5669291338582677
        },
        {
          "duration": 0.04166666666665719,
          "durationTicks": 10,
          "midi": 56,
          "name": "G#3",
          "ticks": 60585,
          "time": 252.4375,
          "velocity": 0.6929133858267716
        },
        {
          "duration": 0.17083333333332007,
          "durationTicks": 41,
          "midi": 57,
          "name": "A3",
          "ticks": 60599,
          "time": 252.49583333333334,
          "velocity": 0.6771653543307087
        },
        {
          "duration": 0.20833333333331439,
          "durationTicks": 50,
          "midi": 59,
          "name": "B3",
          "ticks": 60650,
          "time": 252.70833333333334,
          "velocity": 0.7952755905511811
        },
        {
          "duration": 0.2083333333333428,
          "durationTicks": 50,
          "midi": 60,
          "name": "C4",
          "ticks": 60722,
          "time": 253.00833333333333,
          "velocity": 0.7559055118110236
        },
        {
          "duration": 0.15000000000000568,
          "durationTicks": 36,
          "midi": 55,
          "name": "G3",
          "ticks": 60794,
          "time": 253.30833333333334,
          "velocity": 0.7086614173228346
        },
        {
          "duration": 0.23333333333332007,
          "durationTicks": 56,
          "midi": 57,
          "name": "A3",
          "ticks": 60839,
          "time": 253.49583333333334,
          "velocity": 0.8031496062992126
        },
        {
          "duration": 0.04166666666665719,
          "durationTicks": 10,
          "midi": 56,
          "name": "G#3",
          "ticks": 60904,
          "time": 253.76666666666668,
          "velocity": 0.6535433070866141
        },
        {
          "duration": 0.19166666666666288,
          "durationTicks": 46,
          "midi": 57,
          "name": "A3",
          "ticks": 60921,
          "time": 253.8375,
          "velocity": 0.8346456692913385
        },
        {
          "duration": 0.037499999999994316,
          "durationTicks": 9,
          "midi": 32,
          "name": "G#1",
          "ticks": 60967,
          "time": 254.02916666666667,
          "velocity": 0.1968503937007874
        },
        {
          "duration": 0.14999999999997726,
          "durationTicks": 36,
          "midi": 55,
          "name": "G3",
          "ticks": 60979,
          "time": 254.07916666666668,
          "velocity": 0.7086614173228346
        },
        {
          "duration": 0.4833333333333485,
          "durationTicks": 116,
          "midi": 55,
          "name": "G3",
          "ticks": 61043,
          "time": 254.34583333333333,
          "velocity": 0.6535433070866141
        },
        {
          "duration": 0.2708333333333144,
          "durationTicks": 65,
          "midi": 55,
          "name": "G3",
          "ticks": 61168,
          "time": 254.86666666666667,
          "velocity": 0.905511811023622
        },
        {
          "duration": 0.6916666666666629,
          "durationTicks": 166,
          "midi": 52,
          "name": "E3",
          "ticks": 61247,
          "time": 255.19583333333333,
          "velocity": 0.8582677165354331
        },
        {
          "duration": 0.16666666666668561,
          "durationTicks": 40,
          "midi": 52,
          "name": "E3",
          "ticks": 61423,
          "time": 255.92916666666667,
          "velocity": 0.7716535433070866
        },
        {
          "duration": 0.20833333333331439,
          "durationTicks": 50,
          "midi": 64,
          "name": "E4",
          "ticks": 61502,
          "time": 256.2583333333333,
          "velocity": 0.4881889763779528
        },
        {
          "duration": 0.1875,
          "durationTicks": 45,
          "midi": 57,
          "name": "A3",
          "ticks": 61639,
          "time": 256.82916666666665,
          "velocity": 0.7165354330708661
        },
        {
          "duration": 0.20833333333331439,
          "durationTicks": 50,
          "midi": 59,
          "name": "B3",
          "ticks": 61694,
          "time": 257.05833333333334,
          "velocity": 0.8503937007874016
        },
        {
          "duration": 0.14999999999997726,
          "durationTicks": 36,
          "midi": 60,
          "name": "C4",
          "ticks": 61756,
          "time": 257.31666666666666,
          "velocity": 0.7716535433070866
        },
        {
          "duration": 0.1708333333333485,
          "durationTicks": 41,
          "midi": 55,
          "name": "G3",
          "ticks": 61833,
          "time": 257.6375,
          "velocity": 0.8110236220472441
        },
        {
          "duration": 0.6875,
          "durationTicks": 165,
          "midi": 57,
          "name": "A3",
          "ticks": 61886,
          "time": 257.85833333333335,
          "velocity": 0.7874015748031497
        },
        {
          "duration": 0.15833333333335986,
          "durationTicks": 38,
          "midi": 57,
          "name": "A3",
          "ticks": 62090,
          "time": 258.7083333333333,
          "velocity": 0.8110236220472441
        },
        {
          "duration": 0.19999999999998863,
          "durationTicks": 48,
          "midi": 59,
          "name": "B3",
          "ticks": 62138,
          "time": 258.90833333333336,
          "velocity": 0.7244094488188977
        },
        {
          "duration": 0.07916666666665151,
          "durationTicks": 19,
          "midi": 31,
          "name": "G1",
          "ticks": 62191,
          "time": 259.12916666666666,
          "velocity": 0.49606299212598426
        },
        {
          "duration": 0.25,
          "durationTicks": 60,
          "midi": 59,
          "name": "B3",
          "ticks": 62222,
          "time": 259.2583333333333,
          "velocity": 0.8031496062992126
        },
        {
          "duration": 0.2125000000000341,
          "durationTicks": 51,
          "midi": 60,
          "name": "C4",
          "ticks": 62284,
          "time": 259.51666666666665,
          "velocity": 0.6299212598425197
        },
        {
          "duration": 0.6499999999999773,
          "durationTicks": 156,
          "midi": 60,
          "name": "C4",
          "ticks": 62351,
          "time": 259.79583333333335,
          "velocity": 0.7637795275590551
        },
        {
          "duration": 0.05000000000001137,
          "durationTicks": 12,
          "midi": 59,
          "name": "B3",
          "ticks": 62512,
          "time": 260.46666666666664,
          "velocity": 0.5196850393700787
        },
        {
          "duration": 0.05000000000001137,
          "durationTicks": 12,
          "midi": 60,
          "name": "C4",
          "ticks": 62527,
          "time": 260.52916666666664,
          "velocity": 0.5984251968503937
        },
        {
          "duration": 0.18333333333328028,
          "durationTicks": 44,
          "midi": 91,
          "name": "G6",
          "ticks": 62543,
          "time": 260.59583333333336,
          "velocity": 0.2755905511811024
        },
        {
          "duration": 0.20000000000004547,
          "durationTicks": 48,
          "midi": 64,
          "name": "E4",
          "ticks": 62601,
          "time": 260.8375,
          "velocity": 0.25196850393700787
        },
        {
          "duration": 0.25,
          "durationTicks": 60,
          "midi": 52,
          "name": "E3",
          "ticks": 62699,
          "time": 261.24583333333334,
          "velocity": 0.7086614173228346
        },
        {
          "duration": 0.3708333333333371,
          "durationTicks": 89,
          "midi": 55,
          "name": "G3",
          "ticks": 62810,
          "time": 261.7083333333333,
          "velocity": 0.7795275590551181
        },
        {
          "duration": 0.19999999999998863,
          "durationTicks": 48,
          "midi": 57,
          "name": "A3",
          "ticks": 62908,
          "time": 262.1166666666667,
          "velocity": 0.7559055118110236
        },
        {
          "duration": 0.05000000000001137,
          "durationTicks": 12,
          "midi": 55,
          "name": "G3",
          "ticks": 62985,
          "time": 262.4375,
          "velocity": 0.6062992125984252
        },
        {
          "duration": 0.26249999999998863,
          "durationTicks": 63,
          "midi": 56,
          "name": "G#3",
          "ticks": 63004,
          "time": 262.51666666666665,
          "velocity": 0.7322834645669292
        },
        {
          "duration": 0.18333333333333712,
          "durationTicks": 44,
          "midi": 57,
          "name": "A3",
          "ticks": 63071,
          "time": 262.79583333333335,
          "velocity": 0.84251968503937
        },
        {
          "duration": 0.17083333333329165,
          "durationTicks": 41,
          "midi": 57,
          "name": "A3",
          "ticks": 63131,
          "time": 263.04583333333335,
          "velocity": 0.6850393700787402
        },
        {
          "duration": 0.0625,
          "durationTicks": 15,
          "midi": 59,
          "name": "B3",
          "ticks": 63179,
          "time": 263.24583333333334,
          "velocity": 0.6062992125984252
        },
        {
          "duration": 0.24166666666667425,
          "durationTicks": 58,
          "midi": 52,
          "name": "E3",
          "ticks": 63225,
          "time": 263.4375,
          "velocity": 0.6850393700787402
        },
        {
          "duration": 0.10833333333334849,
          "durationTicks": 26,
          "midi": 52,
          "name": "E3",
          "ticks": 63302,
          "time": 263.7583333333333,
          "velocity": 0.3543307086614173
        },
        {
          "duration": 0.05833333333333712,
          "durationTicks": 14,
          "midi": 59,
          "name": "B3",
          "ticks": 63350,
          "time": 263.9583333333333,
          "velocity": 0.29133858267716534
        },
        {
          "duration": 0.2708333333333144,
          "durationTicks": 65,
          "midi": 60,
          "name": "C4",
          "ticks": 63400,
          "time": 264.1666666666667,
          "velocity": 0.8346456692913385
        },
        {
          "duration": 0.29166666666662877,
          "durationTicks": 70,
          "midi": 59,
          "name": "B3",
          "ticks": 63503,
          "time": 264.59583333333336,
          "velocity": 0.6850393700787402
        },
        {
          "duration": 0.1708333333333485,
          "durationTicks": 41,
          "midi": 60,
          "name": "C4",
          "ticks": 63590,
          "time": 264.9583333333333,
          "velocity": 0.7795275590551181
        },
        {
          "duration": 0.05833333333333712,
          "durationTicks": 14,
          "midi": 60,
          "name": "C4",
          "ticks": 63662,
          "time": 265.2583333333333,
          "velocity": 0.7401574803149606
        },
        {
          "duration": 0.14999999999997726,
          "durationTicks": 36,
          "midi": 62,
          "name": "D4",
          "ticks": 63688,
          "time": 265.3666666666667,
          "velocity": 0.7795275590551181
        },
        {
          "duration": 0.07916666666665151,
          "durationTicks": 19,
          "midi": 59,
          "name": "B3",
          "ticks": 63760,
          "time": 265.6666666666667,
          "velocity": 0.7165354330708661
        },
        {
          "duration": 0.16250000000002274,
          "durationTicks": 39,
          "midi": 60,
          "name": "C4",
          "ticks": 63784,
          "time": 265.76666666666665,
          "velocity": 0.7795275590551181
        },
        {
          "duration": 0.05000000000001137,
          "durationTicks": 12,
          "midi": 60,
          "name": "C4",
          "ticks": 63856,
          "time": 266.06666666666666,
          "velocity": 0.7952755905511811
        },
        {
          "duration": 0.07916666666665151,
          "durationTicks": 19,
          "midi": 59,
          "name": "B3",
          "ticks": 63873,
          "time": 266.1375,
          "velocity": 0.6377952755905512
        },
        {
          "duration": 0.21249999999997726,
          "durationTicks": 51,
          "midi": 57,
          "name": "A3",
          "ticks": 63899,
          "time": 266.24583333333334,
          "velocity": 0.8346456692913385
        },
        {
          "duration": 0.12083333333333712,
          "durationTicks": 29,
          "midi": 57,
          "name": "A3",
          "ticks": 63976,
          "time": 266.56666666666666,
          "velocity": 0.6456692913385826
        },
        {
          "duration": 0.12083333333333712,
          "durationTicks": 29,
          "midi": 57,
          "name": "A3",
          "ticks": 64017,
          "time": 266.7375,
          "velocity": 0.7716535433070866
        },
        {
          "duration": 0.19999999999998863,
          "durationTicks": 48,
          "midi": 38,
          "name": "D2",
          "ticks": 64046,
          "time": 266.85833333333335,
          "velocity": 0.6062992125984252
        },
        {
          "duration": 0.07916666666665151,
          "durationTicks": 19,
          "midi": 38,
          "name": "D2",
          "ticks": 64106,
          "time": 267.10833333333335,
          "velocity": 0.3228346456692913
        },
        {
          "duration": 0.13333333333332575,
          "durationTicks": 32,
          "midi": 57,
          "name": "A3",
          "ticks": 64139,
          "time": 267.24583333333334,
          "velocity": 0.6692913385826772
        },
        {
          "duration": 0.21666666666664014,
          "durationTicks": 52,
          "midi": 55,
          "name": "G3",
          "ticks": 64195,
          "time": 267.4791666666667,
          "velocity": 0.84251968503937
        },
        {
          "duration": 0.3333333333333144,
          "durationTicks": 80,
          "midi": 57,
          "name": "A3",
          "ticks": 64283,
          "time": 267.84583333333336,
          "velocity": 0.7322834645669292
        },
        {
          "duration": 0.10833333333334849,
          "durationTicks": 26,
          "midi": 57,
          "name": "A3",
          "ticks": 64387,
          "time": 268.27916666666664,
          "velocity": 0.8267716535433071
        },
        {
          "duration": 0.14999999999997726,
          "durationTicks": 36,
          "midi": 59,
          "name": "B3",
          "ticks": 64423,
          "time": 268.4291666666667,
          "velocity": 0.7244094488188977
        },
        {
          "duration": 0.16250000000002274,
          "durationTicks": 39,
          "midi": 55,
          "name": "G3",
          "ticks": 64516,
          "time": 268.81666666666666,
          "velocity": 0.6850393700787402
        },
        {
          "duration": 2.212500000000034,
          "durationTicks": 531,
          "midi": 57,
          "name": "A3",
          "ticks": 64564,
          "time": 269.01666666666665,
          "velocity": 0.7559055118110236
        },
        {
          "duration": 0.283333333333303,
          "durationTicks": 68,
          "midi": 57,
          "name": "A3",
          "ticks": 65111,
          "time": 271.29583333333335,
          "velocity": 0.49606299212598426
        },
        {
          "duration": 0.14166666666670835,
          "durationTicks": 34,
          "midi": 34,
          "name": "A#1",
          "ticks": 65181,
          "time": 271.5875,
          "velocity": 0.33858267716535434
        },
        {
          "duration": 0.037499999999965894,
          "durationTicks": 9,
          "midi": 57,
          "name": "A3",
          "ticks": 65215,
          "time": 271.7291666666667,
          "velocity": 0.30708661417322836
        },
        {
          "duration": 0.23750000000001137,
          "durationTicks": 57,
          "midi": 76,
          "name": "E5",
          "ticks": 65234,
          "time": 271.80833333333334,
          "velocity": 0.4015748031496063
        },
        {
          "duration": 0.25833333333332575,
          "durationTicks": 62,
          "midi": 33,
          "name": "A1",
          "ticks": 65294,
          "time": 272.05833333333334,
          "velocity": 0.48031496062992124
        },
        {
          "duration": 0.07916666666670835,
          "durationTicks": 19,
          "midi": 91,
          "name": "G6",
          "ticks": 65359,
          "time": 272.32916666666665,
          "velocity": 0.2755905511811024
        },
        {
          "duration": 0.08333333333331439,
          "durationTicks": 20,
          "midi": 88,
          "name": "E6",
          "ticks": 65423,
          "time": 272.59583333333336,
          "velocity": 0.28346456692913385
        },
        {
          "duration": 0.10833333333329165,
          "durationTicks": 26,
          "midi": 43,
          "name": "G2",
          "ticks": 65529,
          "time": 273.0375,
          "velocity": 0.4566929133858268
        },
        {
          "duration": 0.14999999999997726,
          "durationTicks": 36,
          "midi": 43,
          "name": "G2",
          "ticks": 65611,
          "time": 273.37916666666666,
          "velocity": 0.6377952755905512
        },
        {
          "duration": 0.19166666666666288,
          "durationTicks": 46,
          "midi": 43,
          "name": "G2",
          "ticks": 65709,
          "time": 273.7875,
          "velocity": 0.5905511811023622
        },
        {
          "duration": 0.1500000000000341,
          "durationTicks": 36,
          "midi": 43,
          "name": "G2",
          "ticks": 65810,
          "time": 274.2083333333333,
          "velocity": 0.3858267716535433
        },
        {
          "duration": 0.07916666666665151,
          "durationTicks": 19,
          "midi": 91,
          "name": "G6",
          "ticks": 65882,
          "time": 274.5083333333333,
          "velocity": 0.29133858267716534
        },
        {
          "duration": 0.0625,
          "durationTicks": 15,
          "midi": 67,
          "name": "G4",
          "ticks": 65903,
          "time": 274.59583333333336,
          "velocity": 0.08661417322834646
        },
        {
          "duration": 0.25,
          "durationTicks": 60,
          "midi": 81,
          "name": "A5",
          "ticks": 65949,
          "time": 274.7875,
          "velocity": 0.48031496062992124
        },
        {
          "duration": 0.05000000000001137,
          "durationTicks": 12,
          "midi": 96,
          "name": "C7",
          "ticks": 66011,
          "time": 275.04583333333335,
          "velocity": 0.6614173228346457
        },
        {
          "duration": 0.22916666666662877,
          "durationTicks": 55,
          "midi": 41,
          "name": "F2",
          "ticks": 66057,
          "time": 275.2375,
          "velocity": 0.5196850393700787
        },
        {
          "duration": 0.05000000000001137,
          "durationTicks": 12,
          "midi": 41,
          "name": "F2",
          "ticks": 66139,
          "time": 275.57916666666665,
          "velocity": 0.6299212598425197
        },
        {
          "duration": 0.09166666666669698,
          "durationTicks": 22,
          "midi": 41,
          "name": "F2",
          "ticks": 66172,
          "time": 275.71666666666664,
          "velocity": 0.49606299212598426
        },
        {
          "duration": 0.19166666666666288,
          "durationTicks": 46,
          "midi": 41,
          "name": "F2",
          "ticks": 66239,
          "time": 275.99583333333334,
          "velocity": 0.5433070866141733
        },
        {
          "duration": 0.07916666666670835,
          "durationTicks": 19,
          "midi": 88,
          "name": "E6",
          "ticks": 66307,
          "time": 276.27916666666664,
          "velocity": 0.25984251968503935
        },
        {
          "duration": 0.15833333333330302,
          "durationTicks": 38,
          "midi": 41,
          "name": "F2",
          "ticks": 66338,
          "time": 276.40833333333336,
          "velocity": 0.4330708661417323
        },
        {
          "duration": 0.13750000000004547,
          "durationTicks": 33,
          "midi": 74,
          "name": "D5",
          "ticks": 66410,
          "time": 276.7083333333333,
          "velocity": 0.4094488188976378
        },
        {
          "duration": 0.19999999999998863,
          "durationTicks": 48,
          "midi": 41,
          "name": "F2",
          "ticks": 66451,
          "time": 276.87916666666666,
          "velocity": 0.5196850393700787
        },
        {
          "duration": 0.19999999999998863,
          "durationTicks": 48,
          "midi": 64,
          "name": "E4",
          "ticks": 66542,
          "time": 277.2583333333333,
          "velocity": 0.2440944881889764
        },
        {
          "duration": 0.1500000000000341,
          "durationTicks": 36,
          "midi": 74,
          "name": "D5",
          "ticks": 66604,
          "time": 277.51666666666665,
          "velocity": 0.3464566929133858
        },
        {
          "duration": 0.04166666666662877,
          "durationTicks": 10,
          "midi": 35,
          "name": "B1",
          "ticks": 66640,
          "time": 277.6666666666667,
          "velocity": 0.30708661417322836
        },
        {
          "duration": 0.07916666666670835,
          "durationTicks": 19,
          "midi": 91,
          "name": "G6",
          "ticks": 66667,
          "time": 277.77916666666664,
          "velocity": 0.2204724409448819
        },
        {
          "duration": 0.16666666666668561,
          "durationTicks": 40,
          "midi": 36,
          "name": "C2",
          "ticks": 66763,
          "time": 278.1791666666667,
          "velocity": 0.44881889763779526
        },
        {
          "duration": 0.10833333333329165,
          "durationTicks": 26,
          "midi": 76,
          "name": "E5",
          "ticks": 66835,
          "time": 278.4791666666667,
          "velocity": 0.31496062992125984
        },
        {
          "duration": 0.22916666666662877,
          "durationTicks": 55,
          "midi": 74,
          "name": "D5",
          "ticks": 66866,
          "time": 278.60833333333335,
          "velocity": 0.3937007874015748
        },
        {
          "duration": 0.279166666666697,
          "durationTicks": 67,
          "midi": 35,
          "name": "B1",
          "ticks": 66976,
          "time": 279.06666666666666,
          "velocity": 0.5275590551181102
        },
        {
          "duration": 0.0625,
          "durationTicks": 15,
          "midi": 88,
          "name": "E6",
          "ticks": 67060,
          "time": 279.4166666666667,
          "velocity": 0.2755905511811024
        },
        {
          "duration": 0.14999999999997726,
          "durationTicks": 36,
          "midi": 69,
          "name": "A4",
          "ticks": 67163,
          "time": 279.84583333333336,
          "velocity": 0.3700787401574803
        },
        {
          "duration": 0.037499999999965894,
          "durationTicks": 9,
          "midi": 57,
          "name": "A3",
          "ticks": 67243,
          "time": 280.1791666666667,
          "velocity": 0.10236220472440945
        },
        {
          "duration": 0.14999999999997726,
          "durationTicks": 36,
          "midi": 33,
          "name": "A1",
          "ticks": 67303,
          "time": 280.4291666666667,
          "velocity": 0.5354330708661418
        },
        {
          "duration": 0.26249999999998863,
          "durationTicks": 63,
          "midi": 33,
          "name": "A1",
          "ticks": 67391,
          "time": 280.79583333333335,
          "velocity": 0.5354330708661418
        },
        {
          "duration": 0.07916666666665151,
          "durationTicks": 19,
          "midi": 91,
          "name": "G6",
          "ticks": 67454,
          "time": 281.05833333333334,
          "velocity": 0.28346456692913385
        },
        {
          "duration": 0.041666666666685614,
          "durationTicks": 10,
          "midi": 35,
          "name": "B1",
          "ticks": 67499,
          "time": 281.24583333333334,
          "velocity": 0.23622047244094488
        },
        {
          "duration": 0.24166666666667425,
          "durationTicks": 58,
          "midi": 76,
          "name": "E5",
          "ticks": 67521,
          "time": 281.3375,
          "velocity": 0.31496062992125984
        },
        {
          "duration": 0.17916666666667425,
          "durationTicks": 43,
          "midi": 43,
          "name": "G2",
          "ticks": 67624,
          "time": 281.76666666666665,
          "velocity": 0.4645669291338583
        },
        {
          "duration": 0.14999999999997726,
          "durationTicks": 36,
          "midi": 43,
          "name": "G2",
          "ticks": 67703,
          "time": 282.09583333333336,
          "velocity": 0.6062992125984252
        },
        {
          "duration": 0.17916666666667425,
          "durationTicks": 43,
          "midi": 43,
          "name": "G2",
          "ticks": 67804,
          "time": 282.51666666666665,
          "velocity": 0.5590551181102362
        },
        {
          "duration": 0.14999999999997726,
          "durationTicks": 36,
          "midi": 43,
          "name": "G2",
          "ticks": 67903,
          "time": 282.9291666666667,
          "velocity": 0.4881889763779528
        },
        {
          "duration": 0.0999999999999659,
          "durationTicks": 24,
          "midi": 91,
          "name": "G6",
          "ticks": 67975,
          "time": 283.2291666666667,
          "velocity": 0.2755905511811024
        },
        {
          "duration": 0.03750000000002274,
          "durationTicks": 9,
          "midi": 79,
          "name": "G5",
          "ticks": 68030,
          "time": 283.4583333333333,
          "velocity": 0.1889763779527559
        },
        {
          "duration": 0.25,
          "durationTicks": 60,
          "midi": 81,
          "name": "A5",
          "ticks": 68044,
          "time": 283.51666666666665,
          "velocity": 0.44881889763779526
        },
        {
          "duration": 0.05000000000001137,
          "durationTicks": 12,
          "midi": 96,
          "name": "C7",
          "ticks": 68107,
          "time": 283.77916666666664,
          "velocity": 0.6614173228346457
        },
        {
          "duration": 0.23750000000001137,
          "durationTicks": 57,
          "midi": 41,
          "name": "F2",
          "ticks": 68150,
          "time": 283.9583333333333,
          "velocity": 0.5196850393700787
        },
        {
          "duration": 0.13750000000004547,
          "durationTicks": 33,
          "midi": 83,
          "name": "B5",
          "ticks": 68210,
          "time": 284.2083333333333,
          "velocity": 0.44881889763779526
        },
        {
          "duration": 0.1875,
          "durationTicks": 45,
          "midi": 41,
          "name": "F2",
          "ticks": 68335,
          "time": 284.7291666666667,
          "velocity": 0.5354330708661418
        },
        {
          "duration": 0.13749999999998863,
          "durationTicks": 33,
          "midi": 43,
          "name": "G2",
          "ticks": 68491,
          "time": 285.37916666666666,
          "velocity": 0.5984251968503937
        },
        {
          "duration": 0.22083333333330302,
          "durationTicks": 53,
          "midi": 43,
          "name": "G2",
          "ticks": 68589,
          "time": 285.7875,
          "velocity": 0.5511811023622047
        },
        {
          "duration": 0.12916666666666288,
          "durationTicks": 31,
          "midi": 33,
          "name": "A1",
          "ticks": 68680,
          "time": 286.1666666666667,
          "velocity": 0.5118110236220472
        },
        {
          "duration": 0.05000000000001137,
          "durationTicks": 12,
          "midi": 96,
          "name": "C7",
          "ticks": 68759,
          "time": 286.49583333333334,
          "velocity": 0.7322834645669292
        },
        {
          "duration": 0.1500000000000341,
          "durationTicks": 36,
          "midi": 98,
          "name": "D7",
          "ticks": 68824,
          "time": 286.76666666666665,
          "velocity": 0.7322834645669292
        },
        {
          "duration": 0.12083333333333712,
          "durationTicks": 29,
          "midi": 100,
          "name": "E7",
          "ticks": 68891,
          "time": 287.04583333333335,
          "velocity": 0.6614173228346457
        },
        {
          "duration": 0.0625,
          "durationTicks": 15,
          "midi": 98,
          "name": "D7",
          "ticks": 68956,
          "time": 287.31666666666666,
          "velocity": 0.7007874015748031
        },
        {
          "duration": 0.049999999999954525,
          "durationTicks": 12,
          "midi": 96,
          "name": "C7",
          "ticks": 69023,
          "time": 287.59583333333336,
          "velocity": 0.7480314960629921
        },
        {
          "duration": 0.14999999999997726,
          "durationTicks": 36,
          "midi": 83,
          "name": "B5",
          "ticks": 69091,
          "time": 287.87916666666666,
          "velocity": 0.4409448818897638
        },
        {
          "duration": 0.05833333333333712,
          "durationTicks": 14,
          "midi": 98,
          "name": "D7",
          "ticks": 69134,
          "time": 288.05833333333334,
          "velocity": 0.08661417322834646
        },
        {
          "duration": 0.08333333333337123,
          "durationTicks": 20,
          "midi": 88,
          "name": "E6",
          "ticks": 69155,
          "time": 288.1458333333333,
          "velocity": 0.33070866141732286
        },
        {
          "duration": 0.04166666666662877,
          "durationTicks": 10,
          "midi": 30,
          "name": "F#1",
          "ticks": 69177,
          "time": 288.2375,
          "velocity": 0.3228346456692913
        },
        {
          "duration": 0.041666666666685614,
          "durationTicks": 10,
          "midi": 35,
          "name": "B1",
          "ticks": 69201,
          "time": 288.3375,
          "velocity": 0.2440944881889764
        },
        {
          "duration": 0.17916666666667425,
          "durationTicks": 43,
          "midi": 69,
          "name": "A4",
          "ticks": 69247,
          "time": 288.52916666666664,
          "velocity": 0.5196850393700787
        },
        {
          "duration": 0.22083333333335986,
          "durationTicks": 53,
          "midi": 57,
          "name": "A3",
          "ticks": 69362,
          "time": 289.0083333333333,
          "velocity": 0.41732283464566927
        },
        {
          "duration": 0.05833333333333712,
          "durationTicks": 14,
          "midi": 76,
          "name": "E5",
          "ticks": 69422,
          "time": 289.2583333333333,
          "velocity": 0.3700787401574803
        },
        {
          "duration": 0.283333333333303,
          "durationTicks": 68,
          "midi": 33,
          "name": "A1",
          "ticks": 69479,
          "time": 289.49583333333334,
          "velocity": 0.49606299212598426
        },
        {
          "duration": 0.09166666666664014,
          "durationTicks": 22,
          "midi": 91,
          "name": "G6",
          "ticks": 69549,
          "time": 289.7875,
          "velocity": 0.29133858267716534
        },
        {
          "duration": 0.04166666666662877,
          "durationTicks": 10,
          "midi": 79,
          "name": "G5",
          "ticks": 69611,
          "time": 290.04583333333335,
          "velocity": 0.3464566929133858
        },
        {
          "duration": 0.049999999999954525,
          "durationTicks": 12,
          "midi": 76,
          "name": "E5",
          "ticks": 69683,
          "time": 290.34583333333336,
          "velocity": 0.4015748031496063
        },
        {
          "duration": 0.1500000000000341,
          "durationTicks": 36,
          "midi": 43,
          "name": "G2",
          "ticks": 69722,
          "time": 290.5083333333333,
          "velocity": 0.4566929133858268
        },
        {
          "duration": 0.12916666666666288,
          "durationTicks": 31,
          "midi": 43,
          "name": "G2",
          "ticks": 69801,
          "time": 290.8375,
          "velocity": 0.6141732283464567
        },
        {
          "duration": 0.18333333333333712,
          "durationTicks": 44,
          "midi": 43,
          "name": "G2",
          "ticks": 69899,
          "time": 291.24583333333334,
          "velocity": 0.5354330708661418
        },
        {
          "duration": 0.09166666666664014,
          "durationTicks": 22,
          "midi": 76,
          "name": "E5",
          "ticks": 69945,
          "time": 291.4375,
          "velocity": 0.3543307086614173
        },
        {
          "duration": 0.1416666666666515,
          "durationTicks": 34,
          "midi": 76,
          "name": "E5",
          "ticks": 69976,
          "time": 291.56666666666666,
          "velocity": 0.4330708661417323
        },
        {
          "duration": 0.07916666666670835,
          "durationTicks": 19,
          "midi": 91,
          "name": "G6",
          "ticks": 70070,
          "time": 291.9583333333333,
          "velocity": 0.3543307086614173
        },
        {
          "duration": 0.0625,
          "durationTicks": 15,
          "midi": 67,
          "name": "G4",
          "ticks": 70091,
          "time": 292.04583333333335,
          "velocity": 0.08661417322834646
        },
        {
          "duration": 0.1416666666666515,
          "durationTicks": 34,
          "midi": 81,
          "name": "A5",
          "ticks": 70139,
          "time": 292.24583333333334,
          "velocity": 0.3858267716535433
        },
        {
          "duration": 0.03750000000002274,
          "durationTicks": 9,
          "midi": 96,
          "name": "C7",
          "ticks": 70202,
          "time": 292.5083333333333,
          "velocity": 0.6141732283464567
        },
        {
          "duration": 0.04166666666662877,
          "durationTicks": 10,
          "midi": 41,
          "name": "F2",
          "ticks": 70331,
          "time": 293.04583333333335,
          "velocity": 0.6456692913385826
        },
        {
          "duration": 0.09166666666664014,
          "durationTicks": 22,
          "midi": 41,
          "name": "F2",
          "ticks": 70360,
          "time": 293.1666666666667,
          "velocity": 0.4881889763779528
        },
        {
          "duration": 0.1708333333333485,
          "durationTicks": 41,
          "midi": 41,
          "name": "F2",
          "ticks": 70432,
          "time": 293.46666666666664,
          "velocity": 0.5590551181102362
        },
        {
          "duration": 0.07083333333332575,
          "durationTicks": 17,
          "midi": 76,
          "name": "E5",
          "ticks": 70499,
          "time": 293.74583333333334,
          "velocity": 0.2677165354330709
        },
        {
          "duration": 0.15833333333330302,
          "durationTicks": 38,
          "midi": 41,
          "name": "F2",
          "ticks": 70526,
          "time": 293.85833333333335,
          "velocity": 0.4330708661417323
        },
        {
          "duration": 0.19999999999998863,
          "durationTicks": 48,
          "midi": 41,
          "name": "F2",
          "ticks": 70639,
          "time": 294.32916666666665,
          "velocity": 0.5118110236220472
        },
        {
          "duration": 0.1500000000000341,
          "durationTicks": 36,
          "midi": 76,
          "name": "E5",
          "ticks": 70730,
          "time": 294.7083333333333,
          "velocity": 0.36220472440944884
        },
        {
          "duration": 0.037499999999965894,
          "durationTicks": 9,
          "midi": 37,
          "name": "C#2",
          "ticks": 70766,
          "time": 294.85833333333335,
          "velocity": 0.25984251968503935
        },
        {
          "duration": 0.19166666666671972,
          "durationTicks": 46,
          "midi": 74,
          "name": "D5",
          "ticks": 70792,
          "time": 294.96666666666664,
          "velocity": 0.49606299212598426
        },
        {
          "duration": 0.07083333333332575,
          "durationTicks": 17,
          "midi": 91,
          "name": "G6",
          "ticks": 70857,
          "time": 295.2375,
          "velocity": 0.25984251968503935
        },
        {
          "duration": 0.10833333333334849,
          "durationTicks": 26,
          "midi": 74,
          "name": "D5",
          "ticks": 70893,
          "time": 295.3875,
          "velocity": 0.23622047244094488
        },
        {
          "duration": 0.15833333333335986,
          "durationTicks": 38,
          "midi": 36,
          "name": "C2",
          "ticks": 70953,
          "time": 295.6375,
          "velocity": 0.4330708661417323
        },
        {
          "duration": 0.1624999999999659,
          "durationTicks": 39,
          "midi": 74,
          "name": "D5",
          "ticks": 70991,
          "time": 295.79583333333335,
          "velocity": 0.47244094488188976
        },
        {
          "duration": 0.14999999999997726,
          "durationTicks": 36,
          "midi": 74,
          "name": "D5",
          "ticks": 71056,
          "time": 296.06666666666666,
          "velocity": 0.41732283464566927
        },
        {
          "duration": 0.28750000000002274,
          "durationTicks": 69,
          "midi": 35,
          "name": "B1",
          "ticks": 71162,
          "time": 296.5083333333333,
          "velocity": 0.5275590551181102
        },
        {
          "duration": 0.1708333333333485,
          "durationTicks": 41,
          "midi": 69,
          "name": "A4",
          "ticks": 71342,
          "time": 297.2583333333333,
          "velocity": 0.5275590551181102
        },
        {
          "duration": 0.12916666666666288,
          "durationTicks": 31,
          "midi": 69,
          "name": "A4",
          "ticks": 71421,
          "time": 297.5875,
          "velocity": 0.29133858267716534
        },
        {
          "duration": 0.1624999999999659,
          "durationTicks": 39,
          "midi": 33,
          "name": "A1",
          "ticks": 71488,
          "time": 297.8666666666667,
          "velocity": 0.47244094488188976
        },
        {
          "duration": 0.2874999999999659,
          "durationTicks": 69,
          "midi": 33,
          "name": "A1",
          "ticks": 71575,
          "time": 298.2291666666667,
          "velocity": 0.5275590551181102
        },
        {
          "duration": 0.1875,
          "durationTicks": 45,
          "midi": 76,
          "name": "E5",
          "ticks": 71714,
          "time": 298.80833333333334,
          "velocity": 0.36220472440944884
        },
        {
          "duration": 0.05833333333333712,
          "durationTicks": 14,
          "midi": 88,
          "name": "E6",
          "ticks": 71767,
          "time": 299.02916666666664,
          "velocity": 0.3700787401574803
        },
        {
          "duration": 0.11666666666667425,
          "durationTicks": 28,
          "midi": 43,
          "name": "G2",
          "ticks": 71815,
          "time": 299.2291666666667,
          "velocity": 0.4330708661417323
        },
        {
          "duration": 0.11250000000001137,
          "durationTicks": 27,
          "midi": 43,
          "name": "G2",
          "ticks": 71896,
          "time": 299.56666666666666,
          "velocity": 0.5748031496062992
        },
        {
          "duration": 0.19166666666671972,
          "durationTicks": 46,
          "midi": 43,
          "name": "G2",
          "ticks": 71992,
          "time": 299.96666666666664,
          "velocity": 0.5354330708661418
        },
        {
          "duration": 0.24166666666667425,
          "durationTicks": 58,
          "midi": 76,
          "name": "E5",
          "ticks": 72040,
          "time": 300.1666666666667,
          "velocity": 0.5039370078740157
        },
        {
          "duration": 0.17083333333329165,
          "durationTicks": 41,
          "midi": 74,
          "name": "D5",
          "ticks": 72098,
          "time": 300.40833333333336,
          "velocity": 0.4251968503937008
        },
        {
          "duration": 0.09166666666664014,
          "durationTicks": 22,
          "midi": 91,
          "name": "G6",
          "ticks": 72165,
          "time": 300.6875,
          "velocity": 0.2992125984251969
        },
        {
          "duration": 0.17916666666667425,
          "durationTicks": 43,
          "midi": 79,
          "name": "G5",
          "ticks": 72196,
          "time": 300.81666666666666,
          "velocity": 0.36220472440944884
        },
        {
          "duration": 0.049999999999954525,
          "durationTicks": 12,
          "midi": 96,
          "name": "C7",
          "ticks": 72295,
          "time": 301.2291666666667,
          "velocity": 0.6614173228346457
        },
        {
          "duration": 0.25,
          "durationTicks": 60,
          "midi": 41,
          "name": "F2",
          "ticks": 72340,
          "time": 301.4166666666667,
          "velocity": 0.5196850393700787
        },
        {
          "duration": 0.11666666666667425,
          "durationTicks": 28,
          "midi": 84,
          "name": "C6",
          "ticks": 72463,
          "time": 301.9291666666667,
          "velocity": 0.14960629921259844
        },
        {
          "duration": 0.12083333333333712,
          "durationTicks": 29,
          "midi": 81,
          "name": "A5",
          "ticks": 72494,
          "time": 302.05833333333334,
          "velocity": 0.3543307086614173
        },
        {
          "duration": 0.17916666666667425,
          "durationTicks": 43,
          "midi": 41,
          "name": "F2",
          "ticks": 72525,
          "time": 302.1875,
          "velocity": 0.5433070866141733
        },
        {
          "duration": 0.1500000000000341,
          "durationTicks": 36,
          "midi": 43,
          "name": "G2",
          "ticks": 72602,
          "time": 302.5083333333333,
          "velocity": 0.44881889763779526
        },
        {
          "duration": 0.12916666666666288,
          "durationTicks": 31,
          "midi": 43,
          "name": "G2",
          "ticks": 72681,
          "time": 302.8375,
          "velocity": 0.6220472440944882
        },
        {
          "duration": 0.09166666666669698,
          "durationTicks": 22,
          "midi": 81,
          "name": "A5",
          "ticks": 72813,
          "time": 303.3875,
          "velocity": 0.5196850393700787
        },
        {
          "duration": 0.2416666666666174,
          "durationTicks": 58,
          "midi": 33,
          "name": "A1",
          "ticks": 72863,
          "time": 303.59583333333336,
          "velocity": 0.4645669291338583
        },
        {
          "duration": 0.20000000000004547,
          "durationTicks": 48,
          "midi": 84,
          "name": "C6",
          "ticks": 72952,
          "time": 303.96666666666664,
          "velocity": 0.6141732283464567
        },
        {
          "duration": 0.11666666666667425,
          "durationTicks": 28,
          "midi": 98,
          "name": "D7",
          "ticks": 73015,
          "time": 304.2291666666667,
          "velocity": 0.6771653543307087
        },
        {
          "duration": 0.13333333333332575,
          "durationTicks": 32,
          "midi": 100,
          "name": "E7",
          "ticks": 73079,
          "time": 304.49583333333334,
          "velocity": 0.7007874015748031
        },
        {
          "duration": 0.03750000000002274,
          "durationTicks": 9,
          "midi": 98,
          "name": "D7",
          "ticks": 73147,
          "time": 304.77916666666664,
          "velocity": 0.5984251968503937
        },
        {
          "duration": 0.11250000000001137,
          "durationTicks": 27,
          "midi": 98,
          "name": "D7",
          "ticks": 73175,
          "time": 304.8958333333333,
          "velocity": 0.3228346456692913
        },
        {
          "duration": 0.05000000000001137,
          "durationTicks": 12,
          "midi": 96,
          "name": "C7",
          "ticks": 73211,
          "time": 305.04583333333335,
          "velocity": 0.6456692913385826
        },
        {
          "duration": 0.1624999999999659,
          "durationTicks": 39,
          "midi": 83,
          "name": "B5",
          "ticks": 73283,
          "time": 305.34583333333336,
          "velocity": 0.5196850393700787
        },
        {
          "duration": 0.05000000000001137,
          "durationTicks": 12,
          "midi": 100,
          "name": "E7",
          "ticks": 73341,
          "time": 305.5875,
          "velocity": 0.1889763779527559
        },
        {
          "duration": 0.05000000000001137,
          "durationTicks": 12,
          "midi": 98,
          "name": "D7",
          "ticks": 73408,
          "time": 305.8666666666667,
          "velocity": 0.1968503937007874
        },
        {
          "duration": 0.05833333333333712,
          "durationTicks": 14,
          "midi": 96,
          "name": "C7",
          "ticks": 73473,
          "time": 306.1375,
          "velocity": 0.14960629921259844
        }
      ],
      "endOfTrackTicks": 73487
    },
    {
      "channel": 0,
      "controlChanges": {},
      "pitchBends": [],
      "instrument": {
        "family": "piano",
        "number": 0,
        "name": "acoustic grand piano"
      },
      "name": "",
      "notes": [
        {
          "duration": 1.0083333333333337,
          "durationTicks": 242,
          "midi": 48,
          "name": "C3",
          "ticks": 1099,
          "time": 4.579166666666667,
          "velocity": 0.25984251968503935
        },
        {
          "duration": 0.6791666666666671,
          "durationTicks": 163,
          "midi": 41,
          "name": "F2",
          "ticks": 1111,
          "time": 4.629166666666666,
          "velocity": 0.25984251968503935
        },
        {
          "duration": 0.4791666666666661,
          "durationTicks": 115,
          "midi": 50,
          "name": "D3",
          "ticks": 1360,
          "time": 5.666666666666667,
          "velocity": 0.28346456692913385
        },
        {
          "duration": 0.12083333333333268,
          "durationTicks": 29,
          "midi": 84,
          "name": "C6",
          "ticks": 1442,
          "time": 6.008333333333334,
          "velocity": 0.2755905511811024
        },
        {
          "duration": 0.2625000000000002,
          "durationTicks": 63,
          "midi": 86,
          "name": "D6",
          "ticks": 1475,
          "time": 6.145833333333333,
          "velocity": 0.25984251968503935
        },
        {
          "duration": 0.25833333333333375,
          "durationTicks": 62,
          "midi": 86,
          "name": "D6",
          "ticks": 1737,
          "time": 7.2375,
          "velocity": 0.2992125984251969
        },
        {
          "duration": 0.37916666666666643,
          "durationTicks": 91,
          "midi": 69,
          "name": "A4",
          "ticks": 2059,
          "time": 8.579166666666667,
          "velocity": 0.2992125984251969
        },
        {
          "duration": 0.11666666666666714,
          "durationTicks": 28,
          "midi": 84,
          "name": "C6",
          "ticks": 2227,
          "time": 9.279166666666667,
          "velocity": 0.1968503937007874
        },
        {
          "duration": 0.1416666666666675,
          "durationTicks": 34,
          "midi": 86,
          "name": "D6",
          "ticks": 2260,
          "time": 9.416666666666666,
          "velocity": 0.2047244094488189
        },
        {
          "duration": 0.1999999999999993,
          "durationTicks": 48,
          "midi": 86,
          "name": "D6",
          "ticks": 2383,
          "time": 9.929166666666667,
          "velocity": 0.2677165354330709
        },
        {
          "duration": 0.7708333333333339,
          "durationTicks": 185,
          "midi": 62,
          "name": "D4",
          "ticks": 2399,
          "time": 9.995833333333334,
          "velocity": 0.2204724409448819
        },
        {
          "duration": 0.12083333333333357,
          "durationTicks": 29,
          "midi": 88,
          "name": "E6",
          "ticks": 2651,
          "time": 11.045833333333333,
          "velocity": 0.25984251968503935
        },
        {
          "duration": 0.15000000000000036,
          "durationTicks": 36,
          "midi": 89,
          "name": "F6",
          "ticks": 2783,
          "time": 11.595833333333333,
          "velocity": 0.2677165354330709
        },
        {
          "duration": 0.5083333333333346,
          "durationTicks": 122,
          "midi": 76,
          "name": "E5",
          "ticks": 2853,
          "time": 11.8875,
          "velocity": 0.2283464566929134
        },
        {
          "duration": 0.25,
          "durationTicks": 60,
          "midi": 79,
          "name": "G5",
          "ticks": 2983,
          "time": 12.429166666666667,
          "velocity": 0.14173228346456693
        },
        {
          "duration": 0.05000000000000071,
          "durationTicks": 12,
          "midi": 81,
          "name": "A5",
          "ticks": 3047,
          "time": 12.695833333333333,
          "velocity": 0.14173228346456693
        },
        {
          "duration": 0.7374999999999989,
          "durationTicks": 177,
          "midi": 53,
          "name": "F3",
          "ticks": 3194,
          "time": 13.308333333333334,
          "velocity": 0.29133858267716534
        },
        {
          "duration": 0.5124999999999993,
          "durationTicks": 123,
          "midi": 62,
          "name": "D4",
          "ticks": 3448,
          "time": 14.366666666666667,
          "velocity": 0.15748031496062992
        },
        {
          "duration": 0.3125,
          "durationTicks": 75,
          "midi": 88,
          "name": "E6",
          "ticks": 3700,
          "time": 15.416666666666666,
          "velocity": 0.2677165354330709
        },
        {
          "duration": 0.09999999999999964,
          "durationTicks": 24,
          "midi": 84,
          "name": "C6",
          "ticks": 3799,
          "time": 15.829166666666667,
          "velocity": 0.1732283464566929
        },
        {
          "duration": 0.20833333333333215,
          "durationTicks": 50,
          "midi": 84,
          "name": "C6",
          "ticks": 3825,
          "time": 15.9375,
          "velocity": 0.1889763779527559
        },
        {
          "duration": 0.10833333333333428,
          "durationTicks": 26,
          "midi": 88,
          "name": "E6",
          "ticks": 4094,
          "time": 17.058333333333334,
          "velocity": 0.23622047244094488
        },
        {
          "duration": 0.11666666666666714,
          "durationTicks": 28,
          "midi": 69,
          "name": "A4",
          "ticks": 4219,
          "time": 17.579166666666666,
          "velocity": 0.25984251968503935
        },
        {
          "duration": 0.8916666666666657,
          "durationTicks": 214,
          "midi": 69,
          "name": "A4",
          "ticks": 4269,
          "time": 17.7875,
          "velocity": 0.14173228346456693
        },
        {
          "duration": 1.0374999999999979,
          "durationTicks": 249,
          "midi": 62,
          "name": "D4",
          "ticks": 4495,
          "time": 18.729166666666668,
          "velocity": 0.1889763779527559
        },
        {
          "duration": 0.7583333333333364,
          "durationTicks": 182,
          "midi": 52,
          "name": "E3",
          "ticks": 4761,
          "time": 19.8375,
          "velocity": 0.33070866141732286
        },
        {
          "duration": 2.1000000000000014,
          "durationTicks": 504,
          "midi": 45,
          "name": "A2",
          "ticks": 4771,
          "time": 19.879166666666666,
          "velocity": 0.4409448818897638
        },
        {
          "duration": 0.48749999999999716,
          "durationTicks": 117,
          "midi": 52,
          "name": "E3",
          "ticks": 4958,
          "time": 20.658333333333335,
          "velocity": 0.2677165354330709
        },
        {
          "duration": 0.05000000000000071,
          "durationTicks": 12,
          "midi": 74,
          "name": "D5",
          "ticks": 5284,
          "time": 22.016666666666666,
          "velocity": 0.31496062992125984
        },
        {
          "duration": 0.07083333333333286,
          "durationTicks": 17,
          "midi": 37,
          "name": "C#2",
          "ticks": 5325,
          "time": 22.1875,
          "velocity": 0.28346456692913385
        },
        {
          "duration": 0.0625,
          "durationTicks": 15,
          "midi": 36,
          "name": "C2",
          "ticks": 5351,
          "time": 22.295833333333334,
          "velocity": 0.4015748031496063
        },
        {
          "duration": 0.03750000000000142,
          "durationTicks": 9,
          "midi": 30,
          "name": "F#1",
          "ticks": 5510,
          "time": 22.958333333333332,
          "velocity": 0.11811023622047244
        },
        {
          "duration": 0.05000000000000071,
          "durationTicks": 12,
          "midi": 60,
          "name": "C4",
          "ticks": 5527,
          "time": 23.029166666666665,
          "velocity": 0.3858267716535433
        },
        {
          "duration": 0.12916666666666643,
          "durationTicks": 31,
          "midi": 79,
          "name": "G5",
          "ticks": 5563,
          "time": 23.179166666666667,
          "velocity": 0.4015748031496063
        },
        {
          "duration": 0.07916666666666572,
          "durationTicks": 19,
          "midi": 50,
          "name": "D3",
          "ticks": 5649,
          "time": 23.5375,
          "velocity": 0.15748031496062992
        },
        {
          "duration": 0.03749999999999787,
          "durationTicks": 9,
          "midi": 55,
          "name": "G3",
          "ticks": 5755,
          "time": 23.979166666666668,
          "velocity": 0.3700787401574803
        },
        {
          "duration": 0.03749999999999787,
          "durationTicks": 9,
          "midi": 79,
          "name": "G5",
          "ticks": 5798,
          "time": 24.158333333333335,
          "velocity": 0.10236220472440945
        },
        {
          "duration": 0.25833333333333286,
          "durationTicks": 62,
          "midi": 45,
          "name": "A2",
          "ticks": 5851,
          "time": 24.379166666666666,
          "velocity": 0.2755905511811024
        },
        {
          "duration": 0.09166666666666501,
          "durationTicks": 22,
          "midi": 45,
          "name": "A2",
          "ticks": 5925,
          "time": 24.6875,
          "velocity": 0.28346456692913385
        },
        {
          "duration": 0.15000000000000213,
          "durationTicks": 36,
          "midi": 45,
          "name": "A2",
          "ticks": 5961,
          "time": 24.8375,
          "velocity": 0.2440944881889764
        },
        {
          "duration": 0.908333333333335,
          "durationTicks": 218,
          "midi": 45,
          "name": "A2",
          "ticks": 6007,
          "time": 25.029166666666665,
          "velocity": 0.31496062992125984
        },
        {
          "duration": 0.04166666666666785,
          "durationTicks": 10,
          "midi": 52,
          "name": "E3",
          "ticks": 6035,
          "time": 25.145833333333332,
          "velocity": 0.14960629921259844
        },
        {
          "duration": 0.2375000000000007,
          "durationTicks": 57,
          "midi": 64,
          "name": "E4",
          "ticks": 6067,
          "time": 25.279166666666665,
          "velocity": 0.25984251968503935
        },
        {
          "duration": 0.0625,
          "durationTicks": 15,
          "midi": 98,
          "name": "D7",
          "ticks": 6263,
          "time": 26.095833333333335,
          "velocity": 0.33858267716535434
        },
        {
          "duration": 0.17083333333333428,
          "durationTicks": 41,
          "midi": 45,
          "name": "A2",
          "ticks": 6287,
          "time": 26.195833333333333,
          "velocity": 0.09448818897637795
        },
        {
          "duration": 0.23333333333333428,
          "durationTicks": 56,
          "midi": 50,
          "name": "D3",
          "ticks": 6335,
          "time": 26.395833333333332,
          "velocity": 0.3779527559055118
        },
        {
          "duration": 0.15000000000000213,
          "durationTicks": 36,
          "midi": 76,
          "name": "E5",
          "ticks": 6590,
          "time": 27.458333333333332,
          "velocity": 0.5275590551181102
        },
        {
          "duration": 0.10000000000000142,
          "durationTicks": 24,
          "midi": 55,
          "name": "G3",
          "ticks": 6693,
          "time": 27.8875,
          "velocity": 0.1889763779527559
        },
        {
          "duration": 0.22916666666666785,
          "durationTicks": 55,
          "midi": 59,
          "name": "B3",
          "ticks": 6727,
          "time": 28.029166666666665,
          "velocity": 0.6220472440944882
        },
        {
          "duration": 0.07083333333333286,
          "durationTicks": 17,
          "midi": 79,
          "name": "G5",
          "ticks": 6782,
          "time": 28.258333333333333,
          "velocity": 0.49606299212598426
        },
        {
          "duration": 0.10833333333333073,
          "durationTicks": 26,
          "midi": 55,
          "name": "G3",
          "ticks": 6818,
          "time": 28.408333333333335,
          "velocity": 0.09448818897637795
        },
        {
          "duration": 0.33333333333333215,
          "durationTicks": 80,
          "midi": 79,
          "name": "G5",
          "ticks": 6863,
          "time": 28.595833333333335,
          "velocity": 0.5354330708661418
        },
        {
          "duration": 0.22916666666666785,
          "durationTicks": 55,
          "midi": 60,
          "name": "C4",
          "ticks": 7087,
          "time": 29.529166666666665,
          "velocity": 0.16535433070866143
        },
        {
          "duration": 0.17083333333333428,
          "durationTicks": 41,
          "midi": 54,
          "name": "F#3",
          "ticks": 7264,
          "time": 30.266666666666666,
          "velocity": 0.5669291338582677
        },
        {
          "duration": 0.07916666666666927,
          "durationTicks": 19,
          "midi": 79,
          "name": "G5",
          "ticks": 7310,
          "time": 30.458333333333332,
          "velocity": 0.36220472440944884
        },
        {
          "duration": 0.09166666666666856,
          "durationTicks": 22,
          "midi": 79,
          "name": "G5",
          "ticks": 7372,
          "time": 30.716666666666665,
          "velocity": 0.5275590551181102
        },
        {
          "duration": 0.07083333333333286,
          "durationTicks": 17,
          "midi": 84,
          "name": "C6",
          "ticks": 7497,
          "time": 31.2375,
          "velocity": 0.3228346456692913
        },
        {
          "duration": 0.04166666666666785,
          "durationTicks": 10,
          "midi": 53,
          "name": "F3",
          "ticks": 7552,
          "time": 31.466666666666665,
          "velocity": 0.1889763779527559
        },
        {
          "duration": 0.06666666666666998,
          "durationTicks": 16,
          "midi": 81,
          "name": "A5",
          "ticks": 7567,
          "time": 31.529166666666665,
          "velocity": 0.25196850393700787
        },
        {
          "duration": 0.09166666666666856,
          "durationTicks": 22,
          "midi": 55,
          "name": "G3",
          "ticks": 7607,
          "time": 31.695833333333333,
          "velocity": 0.13385826771653545
        },
        {
          "duration": 0.17083333333333428,
          "durationTicks": 41,
          "midi": 78,
          "name": "F#5",
          "ticks": 7636,
          "time": 31.816666666666666,
          "velocity": 0.5433070866141733
        },
        {
          "duration": 0.07083333333333286,
          "durationTicks": 17,
          "midi": 55,
          "name": "G3",
          "ticks": 7742,
          "time": 32.25833333333333,
          "velocity": 0.2677165354330709
        },
        {
          "duration": 1.1499999999999986,
          "durationTicks": 276,
          "midi": 45,
          "name": "A2",
          "ticks": 7912,
          "time": 32.96666666666667,
          "velocity": 0.3700787401574803
        },
        {
          "duration": 0.05833333333333002,
          "durationTicks": 14,
          "midi": 81,
          "name": "A5",
          "ticks": 8186,
          "time": 34.108333333333334,
          "velocity": 0.3858267716535433
        },
        {
          "duration": 0.16249999999999432,
          "durationTicks": 39,
          "midi": 64,
          "name": "E4",
          "ticks": 8296,
          "time": 34.56666666666667,
          "velocity": 0.3858267716535433
        },
        {
          "duration": 0.07916666666666572,
          "durationTicks": 19,
          "midi": 64,
          "name": "E4",
          "ticks": 8347,
          "time": 34.77916666666667,
          "velocity": 0.2677165354330709
        },
        {
          "duration": 0.09999999999999432,
          "durationTicks": 24,
          "midi": 50,
          "name": "D3",
          "ticks": 8433,
          "time": 35.1375,
          "velocity": 0.36220472440944884
        },
        {
          "duration": 0.03750000000000142,
          "durationTicks": 9,
          "midi": 79,
          "name": "G5",
          "ticks": 8678,
          "time": 36.15833333333333,
          "velocity": 0.13385826771653545
        },
        {
          "duration": 0.10833333333333428,
          "durationTicks": 26,
          "midi": 62,
          "name": "D4",
          "ticks": 8683,
          "time": 36.17916666666667,
          "velocity": 0.28346456692913385
        },
        {
          "duration": 0.4624999999999986,
          "durationTicks": 111,
          "midi": 52,
          "name": "E3",
          "ticks": 8692,
          "time": 36.21666666666667,
          "velocity": 0.3937007874015748
        },
        {
          "duration": 0.10833333333333428,
          "durationTicks": 26,
          "midi": 76,
          "name": "E5",
          "ticks": 8882,
          "time": 37.00833333333333,
          "velocity": 0.48031496062992124
        },
        {
          "duration": 0.04999999999999716,
          "durationTicks": 12,
          "midi": 97,
          "name": "C#7",
          "ticks": 8925,
          "time": 37.1875,
          "velocity": 0.3858267716535433
        },
        {
          "duration": 2.0791666666666657,
          "durationTicks": 499,
          "midi": 45,
          "name": "A2",
          "ticks": 8961,
          "time": 37.3375,
          "velocity": 0.49606299212598426
        },
        {
          "duration": 0.42916666666666714,
          "durationTicks": 103,
          "midi": 52,
          "name": "E3",
          "ticks": 9158,
          "time": 38.15833333333333,
          "velocity": 0.33070866141732286
        },
        {
          "duration": 0.07083333333333286,
          "durationTicks": 17,
          "midi": 59,
          "name": "B3",
          "ticks": 9441,
          "time": 39.3375,
          "velocity": 0.29133858267716534
        },
        {
          "duration": 0.0625,
          "durationTicks": 15,
          "midi": 41,
          "name": "F2",
          "ticks": 9491,
          "time": 39.545833333333334,
          "velocity": 0.5433070866141733
        },
        {
          "duration": 0.17916666666666714,
          "durationTicks": 43,
          "midi": 29,
          "name": "F1",
          "ticks": 9566,
          "time": 39.858333333333334,
          "velocity": 0.5039370078740157
        },
        {
          "duration": 0.10000000000000142,
          "durationTicks": 24,
          "midi": 41,
          "name": "F2",
          "ticks": 9667,
          "time": 40.27916666666667,
          "velocity": 0.33070866141732286
        },
        {
          "duration": 0.17916666666666714,
          "durationTicks": 43,
          "midi": 29,
          "name": "F1",
          "ticks": 9698,
          "time": 40.40833333333333,
          "velocity": 0.5511811023622047
        },
        {
          "duration": 0.4125000000000014,
          "durationTicks": 99,
          "midi": 31,
          "name": "G1",
          "ticks": 9779,
          "time": 40.74583333333333,
          "velocity": 0.6141732283464567
        },
        {
          "duration": 0.037499999999994316,
          "durationTicks": 9,
          "midi": 51,
          "name": "D#3",
          "ticks": 9931,
          "time": 41.37916666666667,
          "velocity": 0.6614173228346457
        },
        {
          "duration": 0.15833333333333144,
          "durationTicks": 38,
          "midi": 52,
          "name": "E3",
          "ticks": 9945,
          "time": 41.4375,
          "velocity": 0.7480314960629921
        },
        {
          "duration": 0.05833333333333002,
          "durationTicks": 14,
          "midi": 74,
          "name": "D5",
          "ticks": 9991,
          "time": 41.62916666666667,
          "velocity": 0.2755905511811024
        },
        {
          "duration": 0.07083333333333286,
          "durationTicks": 17,
          "midi": 57,
          "name": "A3",
          "ticks": 10022,
          "time": 41.75833333333333,
          "velocity": 0.33858267716535434
        },
        {
          "duration": 0.12083333333333712,
          "durationTicks": 29,
          "midi": 32,
          "name": "G#1",
          "ticks": 10041,
          "time": 41.8375,
          "velocity": 0.3858267716535433
        },
        {
          "duration": 0.0416666666666643,
          "durationTicks": 10,
          "midi": 60,
          "name": "C4",
          "ticks": 10072,
          "time": 41.96666666666667,
          "velocity": 0.30708661417322836
        },
        {
          "duration": 0.10000000000000142,
          "durationTicks": 24,
          "midi": 57,
          "name": "A3",
          "ticks": 10099,
          "time": 42.079166666666666,
          "velocity": 0.5748031496062992
        },
        {
          "duration": 0.10000000000000142,
          "durationTicks": 24,
          "midi": 64,
          "name": "E4",
          "ticks": 10185,
          "time": 42.4375,
          "velocity": 0.4566929133858268
        },
        {
          "duration": 0.0625,
          "durationTicks": 15,
          "midi": 52,
          "name": "E3",
          "ticks": 10228,
          "time": 42.61666666666667,
          "velocity": 0.3464566929133858
        },
        {
          "duration": 0.13750000000000284,
          "durationTicks": 33,
          "midi": 60,
          "name": "C4",
          "ticks": 10279,
          "time": 42.829166666666666,
          "velocity": 0.25984251968503935
        },
        {
          "duration": 0.16249999999999432,
          "durationTicks": 39,
          "midi": 45,
          "name": "A2",
          "ticks": 10336,
          "time": 43.06666666666667,
          "velocity": 0.44881889763779526
        },
        {
          "duration": 0.10000000000000142,
          "durationTicks": 24,
          "midi": 64,
          "name": "E4",
          "ticks": 10382,
          "time": 43.25833333333333,
          "velocity": 0.3779527559055118
        },
        {
          "duration": 0.07916666666666572,
          "durationTicks": 19,
          "midi": 98,
          "name": "D7",
          "ticks": 10447,
          "time": 43.52916666666667,
          "velocity": 0.5669291338582677
        },
        {
          "duration": 0.0625,
          "durationTicks": 15,
          "midi": 45,
          "name": "A2",
          "ticks": 10468,
          "time": 43.61666666666667,
          "velocity": 0.29133858267716534
        },
        {
          "duration": 0.17083333333333428,
          "durationTicks": 41,
          "midi": 33,
          "name": "A1",
          "ticks": 10485,
          "time": 43.6875,
          "velocity": 0.5590551181102362
        },
        {
          "duration": 0.10833333333333428,
          "durationTicks": 26,
          "midi": 74,
          "name": "D5",
          "ticks": 10521,
          "time": 43.8375,
          "velocity": 0.4881889763779528
        },
        {
          "duration": 0.1875,
          "durationTicks": 45,
          "midi": 38,
          "name": "D2",
          "ticks": 10550,
          "time": 43.958333333333336,
          "velocity": 0.5511811023622047
        },
        {
          "duration": 0.07083333333333286,
          "durationTicks": 17,
          "midi": 38,
          "name": "D2",
          "ticks": 10631,
          "time": 44.295833333333334,
          "velocity": 0.6771653543307087
        },
        {
          "duration": 0.0625,
          "durationTicks": 15,
          "midi": 76,
          "name": "E5",
          "ticks": 10679,
          "time": 44.49583333333333,
          "velocity": 0.48031496062992124
        },
        {
          "duration": 0.10000000000000142,
          "durationTicks": 24,
          "midi": 76,
          "name": "E5",
          "ticks": 10708,
          "time": 44.61666666666667,
          "velocity": 0.48031496062992124
        },
        {
          "duration": 0.17916666666666714,
          "durationTicks": 43,
          "midi": 38,
          "name": "D2",
          "ticks": 10735,
          "time": 44.729166666666664,
          "velocity": 0.6614173228346457
        },
        {
          "duration": 0.04999999999999716,
          "durationTicks": 12,
          "midi": 76,
          "name": "E5",
          "ticks": 10783,
          "time": 44.92916666666667,
          "velocity": 0.4409448818897638
        },
        {
          "duration": 0.12916666666666288,
          "durationTicks": 31,
          "midi": 31,
          "name": "G1",
          "ticks": 10828,
          "time": 45.11666666666667,
          "velocity": 0.5984251968503937
        },
        {
          "duration": 0.15833333333333144,
          "durationTicks": 38,
          "midi": 78,
          "name": "F#5",
          "ticks": 10910,
          "time": 45.458333333333336,
          "velocity": 0.7244094488188977
        },
        {
          "duration": 0.13333333333333997,
          "durationTicks": 32,
          "midi": 30,
          "name": "F#1",
          "ticks": 10979,
          "time": 45.74583333333333,
          "velocity": 0.4251968503937008
        },
        {
          "duration": 0.04999999999999716,
          "durationTicks": 12,
          "midi": 62,
          "name": "D4",
          "ticks": 11013,
          "time": 45.8875,
          "velocity": 0.11023622047244094
        },
        {
          "duration": 0.8000000000000043,
          "durationTicks": 192,
          "midi": 60,
          "name": "C4",
          "ticks": 11039,
          "time": 45.99583333333333,
          "velocity": 0.6771653543307087
        },
        {
          "duration": 0.0416666666666643,
          "durationTicks": 10,
          "midi": 78,
          "name": "F#5",
          "ticks": 11231,
          "time": 46.795833333333334,
          "velocity": 0.2992125984251969
        },
        {
          "duration": 0.07083333333333286,
          "durationTicks": 17,
          "midi": 79,
          "name": "G5",
          "ticks": 11243,
          "time": 46.84583333333333,
          "velocity": 0.4645669291338583
        },
        {
          "duration": 0.10833333333333428,
          "durationTicks": 26,
          "midi": 91,
          "name": "G6",
          "ticks": 11330,
          "time": 47.208333333333336,
          "velocity": 0.12598425196850394
        },
        {
          "duration": 0.0416666666666643,
          "durationTicks": 10,
          "midi": 79,
          "name": "G5",
          "ticks": 11356,
          "time": 47.31666666666667,
          "velocity": 0.14960629921259844
        },
        {
          "duration": 0.10833333333333428,
          "durationTicks": 26,
          "midi": 55,
          "name": "G3",
          "ticks": 11378,
          "time": 47.40833333333333,
          "velocity": 0.31496062992125984
        },
        {
          "duration": 0.20000000000000284,
          "durationTicks": 48,
          "midi": 88,
          "name": "E6",
          "ticks": 11457,
          "time": 47.7375,
          "velocity": 0.33070866141732286
        },
        {
          "duration": 0.12083333333333002,
          "durationTicks": 29,
          "midi": 74,
          "name": "D5",
          "ticks": 11555,
          "time": 48.145833333333336,
          "velocity": 0.6062992125984252
        },
        {
          "duration": 0.05000000000000426,
          "durationTicks": 12,
          "midi": 41,
          "name": "F2",
          "ticks": 11584,
          "time": 48.266666666666666,
          "velocity": 0.5433070866141733
        },
        {
          "duration": 0.19999999999999574,
          "durationTicks": 48,
          "midi": 29,
          "name": "F1",
          "ticks": 11656,
          "time": 48.56666666666667,
          "velocity": 0.5275590551181102
        },
        {
          "duration": 0.07083333333333286,
          "durationTicks": 17,
          "midi": 53,
          "name": "F3",
          "ticks": 11771,
          "time": 49.045833333333334,
          "velocity": 0.28346456692913385
        },
        {
          "duration": 0.17916666666666003,
          "durationTicks": 43,
          "midi": 29,
          "name": "F1",
          "ticks": 11791,
          "time": 49.12916666666667,
          "velocity": 0.5748031496062992
        },
        {
          "duration": 0.04999999999999716,
          "durationTicks": 12,
          "midi": 93,
          "name": "A6",
          "ticks": 11836,
          "time": 49.31666666666667,
          "velocity": 0.31496062992125984
        },
        {
          "duration": 0.3291666666666657,
          "durationTicks": 79,
          "midi": 31,
          "name": "G1",
          "ticks": 11875,
          "time": 49.479166666666664,
          "velocity": 0.6220472440944882
        },
        {
          "duration": 0.05833333333333712,
          "durationTicks": 14,
          "midi": 76,
          "name": "E5",
          "ticks": 11954,
          "time": 49.80833333333333,
          "velocity": 0.25196850393700787
        },
        {
          "duration": 0.11249999999999716,
          "durationTicks": 27,
          "midi": 32,
          "name": "G#1",
          "ticks": 12028,
          "time": 50.11666666666667,
          "velocity": 0.3779527559055118
        },
        {
          "duration": 0.11249999999999716,
          "durationTicks": 27,
          "midi": 31,
          "name": "G1",
          "ticks": 12071,
          "time": 50.295833333333334,
          "velocity": 0.5039370078740157
        },
        {
          "duration": 0.05833333333333712,
          "durationTicks": 14,
          "midi": 32,
          "name": "G#1",
          "ticks": 12134,
          "time": 50.55833333333333,
          "velocity": 0.33070866141732286
        },
        {
          "duration": 0.14166666666666572,
          "durationTicks": 34,
          "midi": 64,
          "name": "E4",
          "ticks": 12184,
          "time": 50.766666666666666,
          "velocity": 0.4094488188976378
        },
        {
          "duration": 0.12083333333333002,
          "durationTicks": 29,
          "midi": 34,
          "name": "A#1",
          "ticks": 12290,
          "time": 51.208333333333336,
          "velocity": 0.4409448818897638
        },
        {
          "duration": 0.10000000000000142,
          "durationTicks": 24,
          "midi": 98,
          "name": "D7",
          "ticks": 12345,
          "time": 51.4375,
          "velocity": 0.6614173228346457
        },
        {
          "duration": 0.0416666666666643,
          "durationTicks": 10,
          "midi": 96,
          "name": "C7",
          "ticks": 12369,
          "time": 51.5375,
          "velocity": 0.5748031496062992
        },
        {
          "duration": 0.14166666666666572,
          "durationTicks": 34,
          "midi": 86,
          "name": "D6",
          "ticks": 12407,
          "time": 51.69583333333333,
          "velocity": 0.3700787401574803
        },
        {
          "duration": 0.07916666666666572,
          "durationTicks": 19,
          "midi": 99,
          "name": "D#7",
          "ticks": 12448,
          "time": 51.86666666666667,
          "velocity": 0.4566929133858268
        },
        {
          "duration": 0.07083333333333286,
          "durationTicks": 17,
          "midi": 98,
          "name": "D7",
          "ticks": 12482,
          "time": 52.00833333333333,
          "velocity": 0.4881889763779528
        },
        {
          "duration": 0.07916666666666572,
          "durationTicks": 19,
          "midi": 84,
          "name": "C6",
          "ticks": 12549,
          "time": 52.2875,
          "velocity": 0.30708661417322836
        },
        {
          "duration": 0.12916666666666998,
          "durationTicks": 31,
          "midi": 86,
          "name": "D6",
          "ticks": 12578,
          "time": 52.40833333333333,
          "velocity": 0.2047244094488189
        },
        {
          "duration": 0.2666666666666657,
          "durationTicks": 64,
          "midi": 38,
          "name": "D2",
          "ticks": 12643,
          "time": 52.67916666666667,
          "velocity": 0.5984251968503937
        },
        {
          "duration": 0.15833333333333144,
          "durationTicks": 38,
          "midi": 69,
          "name": "A4",
          "ticks": 12739,
          "time": 53.079166666666666,
          "velocity": 0.14960629921259844
        },
        {
          "duration": 0.0416666666666643,
          "durationTicks": 10,
          "midi": 81,
          "name": "A5",
          "ticks": 12755,
          "time": 53.145833333333336,
          "velocity": 0.13385826771653545
        },
        {
          "duration": 0.06666666666666288,
          "durationTicks": 16,
          "midi": 64,
          "name": "E4",
          "ticks": 12787,
          "time": 53.27916666666667,
          "velocity": 0.3779527559055118
        },
        {
          "duration": 0.17916666666666714,
          "durationTicks": 43,
          "midi": 38,
          "name": "D2",
          "ticks": 12830,
          "time": 53.458333333333336,
          "velocity": 0.6771653543307087
        },
        {
          "duration": 0.30000000000000426,
          "durationTicks": 72,
          "midi": 40,
          "name": "E2",
          "ticks": 12895,
          "time": 53.729166666666664,
          "velocity": 0.6062992125984252
        },
        {
          "duration": 0.03750000000000142,
          "durationTicks": 9,
          "midi": 59,
          "name": "B3",
          "ticks": 13046,
          "time": 54.358333333333334,
          "velocity": 0.09448818897637795
        },
        {
          "duration": 0.04999999999999716,
          "durationTicks": 12,
          "midi": 76,
          "name": "E5",
          "ticks": 13070,
          "time": 54.458333333333336,
          "velocity": 0.4881889763779528
        },
        {
          "duration": 0.20000000000000284,
          "durationTicks": 48,
          "midi": 40,
          "name": "E2",
          "ticks": 13094,
          "time": 54.55833333333333,
          "velocity": 0.5905511811023622
        },
        {
          "duration": 0.09166666666666856,
          "durationTicks": 22,
          "midi": 45,
          "name": "A2",
          "ticks": 13149,
          "time": 54.7875,
          "velocity": 0.4566929133858268
        },
        {
          "duration": 0.17916666666666003,
          "durationTicks": 43,
          "midi": 33,
          "name": "A1",
          "ticks": 13171,
          "time": 54.87916666666667,
          "velocity": 0.5511811023622047
        },
        {
          "duration": 0.0416666666666643,
          "durationTicks": 10,
          "midi": 64,
          "name": "E4",
          "ticks": 13233,
          "time": 55.1375,
          "velocity": 0.25984251968503935
        },
        {
          "duration": 0.13333333333333286,
          "durationTicks": 32,
          "midi": 45,
          "name": "A2",
          "ticks": 13247,
          "time": 55.19583333333333,
          "velocity": 0.41732283464566927
        },
        {
          "duration": 0.03750000000000142,
          "durationTicks": 9,
          "midi": 64,
          "name": "E4",
          "ticks": 13279,
          "time": 55.329166666666666,
          "velocity": 0.2677165354330709
        },
        {
          "duration": 0.11666666666666714,
          "durationTicks": 28,
          "midi": 64,
          "name": "E4",
          "ticks": 13315,
          "time": 55.479166666666664,
          "velocity": 0.49606299212598426
        },
        {
          "duration": 0.07083333333333286,
          "durationTicks": 17,
          "midi": 52,
          "name": "E3",
          "ticks": 13346,
          "time": 55.608333333333334,
          "velocity": 0.4015748031496063
        },
        {
          "duration": 0.07083333333333286,
          "durationTicks": 17,
          "midi": 69,
          "name": "A4",
          "ticks": 13389,
          "time": 55.7875,
          "velocity": 0.25984251968503935
        },
        {
          "duration": 0.1666666666666643,
          "durationTicks": 40,
          "midi": 79,
          "name": "G5",
          "ticks": 13471,
          "time": 56.12916666666667,
          "velocity": 0.6535433070866141
        },
        {
          "duration": 0.06666666666666288,
          "durationTicks": 16,
          "midi": 64,
          "name": "E4",
          "ticks": 13567,
          "time": 56.52916666666667,
          "velocity": 0.2125984251968504
        },
        {
          "duration": 0.05833333333333002,
          "durationTicks": 14,
          "midi": 78,
          "name": "F#5",
          "ticks": 13591,
          "time": 56.62916666666667,
          "velocity": 0.5433070866141733
        },
        {
          "duration": 0.18333333333333712,
          "durationTicks": 44,
          "midi": 62,
          "name": "D4",
          "ticks": 13607,
          "time": 56.69583333333333,
          "velocity": 0.4409448818897638
        },
        {
          "duration": 0.2708333333333357,
          "durationTicks": 65,
          "midi": 64,
          "name": "E4",
          "ticks": 13658,
          "time": 56.90833333333333,
          "velocity": 0.5984251968503937
        },
        {
          "duration": 0.05833333333333002,
          "durationTicks": 14,
          "midi": 98,
          "name": "D7",
          "ticks": 13723,
          "time": 57.17916666666667,
          "velocity": 0.5196850393700787
        },
        {
          "duration": 0.2916666666666714,
          "durationTicks": 70,
          "midi": 62,
          "name": "D4",
          "ticks": 13761,
          "time": 57.3375,
          "velocity": 0.5826771653543307
        },
        {
          "duration": 0.12083333333333712,
          "durationTicks": 29,
          "midi": 57,
          "name": "A3",
          "ticks": 13857,
          "time": 57.7375,
          "velocity": 0.47244094488188976
        },
        {
          "duration": 0.15000000000000568,
          "durationTicks": 36,
          "midi": 98,
          "name": "D7",
          "ticks": 13917,
          "time": 57.9875,
          "velocity": 0.5354330708661418
        },
        {
          "duration": 0.04999999999999716,
          "durationTicks": 12,
          "midi": 54,
          "name": "F#3",
          "ticks": 13991,
          "time": 58.295833333333334,
          "velocity": 0.6377952755905512
        },
        {
          "duration": 0.3291666666666657,
          "durationTicks": 79,
          "midi": 62,
          "name": "D4",
          "ticks": 14085,
          "time": 58.6875,
          "velocity": 0.48031496062992124
        },
        {
          "duration": 0.13333333333333286,
          "durationTicks": 32,
          "midi": 76,
          "name": "E5",
          "ticks": 14183,
          "time": 59.09583333333333,
          "velocity": 0.7086614173228346
        },
        {
          "duration": 0.07916666666666572,
          "durationTicks": 19,
          "midi": 96,
          "name": "C7",
          "ticks": 14222,
          "time": 59.25833333333333,
          "velocity": 0.5984251968503937
        },
        {
          "duration": 0.09166666666666856,
          "durationTicks": 22,
          "midi": 98,
          "name": "D7",
          "ticks": 14277,
          "time": 59.4875,
          "velocity": 0.6850393700787402
        },
        {
          "duration": 0.20000000000000284,
          "durationTicks": 48,
          "midi": 98,
          "name": "D7",
          "ticks": 14323,
          "time": 59.67916666666667,
          "velocity": 0.6141732283464567
        },
        {
          "duration": 0.13750000000000284,
          "durationTicks": 33,
          "midi": 59,
          "name": "B3",
          "ticks": 14378,
          "time": 59.90833333333333,
          "velocity": 0.5118110236220472
        },
        {
          "duration": 0.10000000000000142,
          "durationTicks": 24,
          "midi": 40,
          "name": "E2",
          "ticks": 14414,
          "time": 60.05833333333333,
          "velocity": 0.4015748031496063
        },
        {
          "duration": 0.05000000000000426,
          "durationTicks": 12,
          "midi": 55,
          "name": "G3",
          "ticks": 14421,
          "time": 60.0875,
          "velocity": 0.36220472440944884
        },
        {
          "duration": 0.07083333333333286,
          "durationTicks": 17,
          "midi": 52,
          "name": "E3",
          "ticks": 14462,
          "time": 60.25833333333333,
          "velocity": 0.30708661417322836
        },
        {
          "duration": 0.14999999999999858,
          "durationTicks": 36,
          "midi": 45,
          "name": "A2",
          "ticks": 14491,
          "time": 60.37916666666667,
          "velocity": 0.41732283464566927
        },
        {
          "duration": 0.22083333333333854,
          "durationTicks": 53,
          "midi": 81,
          "name": "A5",
          "ticks": 14543,
          "time": 60.59583333333333,
          "velocity": 0.6141732283464567
        },
        {
          "duration": 0.17083333333333428,
          "durationTicks": 41,
          "midi": 78,
          "name": "F#5",
          "ticks": 14627,
          "time": 60.94583333333333,
          "velocity": 0.7007874015748031
        },
        {
          "duration": 0.0416666666666643,
          "durationTicks": 10,
          "midi": 97,
          "name": "C#7",
          "ticks": 14716,
          "time": 61.31666666666667,
          "velocity": 0.5275590551181102
        },
        {
          "duration": 0.08750000000000568,
          "durationTicks": 21,
          "midi": 79,
          "name": "G5",
          "ticks": 14894,
          "time": 62.05833333333333,
          "velocity": 0.5984251968503937
        },
        {
          "duration": 0.12916666666666288,
          "durationTicks": 31,
          "midi": 38,
          "name": "D2",
          "ticks": 14932,
          "time": 62.21666666666667,
          "velocity": 0.4566929133858268
        },
        {
          "duration": 0.07083333333333286,
          "durationTicks": 17,
          "midi": 67,
          "name": "G4",
          "ticks": 14963,
          "time": 62.34583333333333,
          "velocity": 0.47244094488188976
        },
        {
          "duration": 0.4124999999999943,
          "durationTicks": 99,
          "midi": 31,
          "name": "G1",
          "ticks": 15016,
          "time": 62.56666666666667,
          "velocity": 0.5984251968503937
        },
        {
          "duration": 0.05000000000000426,
          "durationTicks": 12,
          "midi": 60,
          "name": "C4",
          "ticks": 15139,
          "time": 63.079166666666666,
          "velocity": 0.15748031496062992
        },
        {
          "duration": 0.1666666666666643,
          "durationTicks": 40,
          "midi": 59,
          "name": "B3",
          "ticks": 15163,
          "time": 63.17916666666667,
          "velocity": 0.3700787401574803
        },
        {
          "duration": 0.10833333333333428,
          "durationTicks": 26,
          "midi": 98,
          "name": "D7",
          "ticks": 15230,
          "time": 63.458333333333336,
          "velocity": 0.6062992125984252
        },
        {
          "duration": 0.04999999999999716,
          "durationTicks": 12,
          "midi": 55,
          "name": "G3",
          "ticks": 15307,
          "time": 63.77916666666667,
          "velocity": 0.3543307086614173
        },
        {
          "duration": 0.0416666666666643,
          "durationTicks": 10,
          "midi": 31,
          "name": "G1",
          "ticks": 15316,
          "time": 63.81666666666667,
          "velocity": 0.2755905511811024
        },
        {
          "duration": 0.2291666666666714,
          "durationTicks": 55,
          "midi": 81,
          "name": "A5",
          "ticks": 15326,
          "time": 63.858333333333334,
          "velocity": 0.6456692913385826
        },
        {
          "duration": 0.3583333333333343,
          "durationTicks": 86,
          "midi": 92,
          "name": "G#6",
          "ticks": 15381,
          "time": 64.0875,
          "velocity": 0.6062992125984252
        },
        {
          "duration": 0.08749999999999147,
          "durationTicks": 21,
          "midi": 67,
          "name": "G4",
          "ticks": 15487,
          "time": 64.52916666666667,
          "velocity": 0.2204724409448819
        },
        {
          "duration": 0.09166666666666856,
          "durationTicks": 22,
          "midi": 91,
          "name": "G6",
          "ticks": 15525,
          "time": 64.6875,
          "velocity": 0.1968503937007874
        },
        {
          "duration": 0.037499999999994316,
          "durationTicks": 9,
          "midi": 74,
          "name": "D5",
          "ticks": 15554,
          "time": 64.80833333333334,
          "velocity": 0.6062992125984252
        },
        {
          "duration": 0.13749999999998863,
          "durationTicks": 33,
          "midi": 76,
          "name": "E5",
          "ticks": 15595,
          "time": 64.97916666666667,
          "velocity": 0.4094488188976378
        },
        {
          "duration": 0.16250000000000853,
          "durationTicks": 39,
          "midi": 62,
          "name": "D4",
          "ticks": 15635,
          "time": 65.14583333333333,
          "velocity": 0.18110236220472442
        },
        {
          "duration": 0.04999999999999716,
          "durationTicks": 12,
          "midi": 31,
          "name": "G1",
          "ticks": 15674,
          "time": 65.30833333333334,
          "velocity": 0.2283464566929134
        },
        {
          "duration": 0.09166666666666856,
          "durationTicks": 22,
          "midi": 64,
          "name": "E4",
          "ticks": 15717,
          "time": 65.4875,
          "velocity": 0.5905511811023622
        },
        {
          "duration": 0.09166666666666856,
          "durationTicks": 22,
          "midi": 78,
          "name": "F#5",
          "ticks": 15760,
          "time": 65.66666666666667,
          "velocity": 0.5354330708661418
        },
        {
          "duration": 0.17083333333333428,
          "durationTicks": 41,
          "midi": 98,
          "name": "D7",
          "ticks": 15815,
          "time": 65.89583333333333,
          "velocity": 0.5433070866141733
        },
        {
          "duration": 0.10000000000000853,
          "durationTicks": 24,
          "midi": 29,
          "name": "F1",
          "ticks": 15856,
          "time": 66.06666666666666,
          "velocity": 0.5275590551181102
        },
        {
          "duration": 0.22083333333333144,
          "durationTicks": 53,
          "midi": 62,
          "name": "D4",
          "ticks": 15880,
          "time": 66.16666666666667,
          "velocity": 0.5196850393700787
        },
        {
          "duration": 0.05833333333333712,
          "durationTicks": 14,
          "midi": 98,
          "name": "D7",
          "ticks": 15950,
          "time": 66.45833333333333,
          "velocity": 0.4881889763779528
        },
        {
          "duration": 0.04999999999999716,
          "durationTicks": 12,
          "midi": 48,
          "name": "C3",
          "ticks": 15964,
          "time": 66.51666666666667,
          "velocity": 0.3700787401574803
        },
        {
          "duration": 0.13333333333332575,
          "durationTicks": 32,
          "midi": 98,
          "name": "D7",
          "ticks": 16007,
          "time": 66.69583333333334,
          "velocity": 0.5669291338582677
        },
        {
          "duration": 0.40833333333333144,
          "durationTicks": 98,
          "midi": 31,
          "name": "G1",
          "ticks": 16065,
          "time": 66.9375,
          "velocity": 0.5826771653543307
        },
        {
          "duration": 0.2708333333333286,
          "durationTicks": 65,
          "midi": 30,
          "name": "F#1",
          "ticks": 16226,
          "time": 67.60833333333333,
          "velocity": 0.47244094488188976
        },
        {
          "duration": 0.05833333333333712,
          "durationTicks": 14,
          "midi": 67,
          "name": "G4",
          "ticks": 16245,
          "time": 67.6875,
          "velocity": 0.1968503937007874
        },
        {
          "duration": 0.08749999999999147,
          "durationTicks": 21,
          "midi": 96,
          "name": "C7",
          "ticks": 16322,
          "time": 68.00833333333334,
          "velocity": 0.5669291338582677
        },
        {
          "duration": 0.0833333333333286,
          "durationTicks": 20,
          "midi": 98,
          "name": "D7",
          "ticks": 16367,
          "time": 68.19583333333334,
          "velocity": 0.7401574803149606
        },
        {
          "duration": 0.037500000000008527,
          "durationTicks": 9,
          "midi": 28,
          "name": "E1",
          "ticks": 16423,
          "time": 68.42916666666666,
          "velocity": 0.5433070866141733
        },
        {
          "duration": 0.25833333333332575,
          "durationTicks": 62,
          "midi": 59,
          "name": "B3",
          "ticks": 16454,
          "time": 68.55833333333334,
          "velocity": 0.5354330708661418
        },
        {
          "duration": 0.29999999999999716,
          "durationTicks": 72,
          "midi": 64,
          "name": "E4",
          "ticks": 16540,
          "time": 68.91666666666667,
          "velocity": 0.5118110236220472
        },
        {
          "duration": 0.05833333333333712,
          "durationTicks": 14,
          "midi": 72,
          "name": "C5",
          "ticks": 16665,
          "time": 69.4375,
          "velocity": 0.2440944881889764
        },
        {
          "duration": 0.07916666666666572,
          "durationTicks": 19,
          "midi": 78,
          "name": "F#5",
          "ticks": 16735,
          "time": 69.72916666666667,
          "velocity": 0.5669291338582677
        },
        {
          "duration": 0.07916666666666572,
          "durationTicks": 19,
          "midi": 93,
          "name": "A6",
          "ticks": 16821,
          "time": 70.0875,
          "velocity": 0.3228346456692913
        },
        {
          "duration": 0.20000000000000284,
          "durationTicks": 48,
          "midi": 59,
          "name": "B3",
          "ticks": 16903,
          "time": 70.42916666666666,
          "velocity": 0.7086614173228346
        },
        {
          "duration": 0.1666666666666714,
          "durationTicks": 40,
          "midi": 53,
          "name": "F3",
          "ticks": 17011,
          "time": 70.87916666666666,
          "velocity": 0.5669291338582677
        },
        {
          "duration": 0.2291666666666572,
          "durationTicks": 55,
          "midi": 28,
          "name": "E1",
          "ticks": 17114,
          "time": 71.30833333333334,
          "velocity": 0.47244094488188976
        },
        {
          "duration": 0.04166666666665719,
          "durationTicks": 10,
          "midi": 28,
          "name": "E1",
          "ticks": 17207,
          "time": 71.69583333333334,
          "velocity": 0.5748031496062992
        },
        {
          "duration": 0.11249999999999716,
          "durationTicks": 27,
          "midi": 28,
          "name": "E1",
          "ticks": 17236,
          "time": 71.81666666666666,
          "velocity": 0.3543307086614173
        },
        {
          "duration": 0.037500000000008527,
          "durationTicks": 9,
          "midi": 32,
          "name": "G#1",
          "ticks": 17258,
          "time": 71.90833333333333,
          "velocity": 0.25196850393700787
        },
        {
          "duration": 0.2291666666666714,
          "durationTicks": 55,
          "midi": 40,
          "name": "E2",
          "ticks": 17277,
          "time": 71.9875,
          "velocity": 0.49606299212598426
        },
        {
          "duration": 0.07083333333332575,
          "durationTicks": 17,
          "midi": 79,
          "name": "G5",
          "ticks": 17327,
          "time": 72.19583333333334,
          "velocity": 0.3228346456692913
        },
        {
          "duration": 0.20000000000000284,
          "durationTicks": 48,
          "midi": 33,
          "name": "A1",
          "ticks": 17356,
          "time": 72.31666666666666,
          "velocity": 0.5748031496062992
        },
        {
          "duration": 0.037499999999994316,
          "durationTicks": 9,
          "midi": 31,
          "name": "G1",
          "ticks": 17522,
          "time": 73.00833333333334,
          "velocity": 0.2992125984251969
        },
        {
          "duration": 0.25,
          "durationTicks": 60,
          "midi": 45,
          "name": "A2",
          "ticks": 17534,
          "time": 73.05833333333334,
          "velocity": 0.4251968503937008
        },
        {
          "duration": 0.08749999999999147,
          "durationTicks": 21,
          "midi": 64,
          "name": "E4",
          "ticks": 17594,
          "time": 73.30833333333334,
          "velocity": 0.09448818897637795
        },
        {
          "duration": 0.07916666666666572,
          "durationTicks": 19,
          "midi": 83,
          "name": "B5",
          "ticks": 17630,
          "time": 73.45833333333333,
          "velocity": 0.2755905511811024
        },
        {
          "duration": 0.07916666666666572,
          "durationTicks": 19,
          "midi": 74,
          "name": "D5",
          "ticks": 17644,
          "time": 73.51666666666667,
          "velocity": 0.5826771653543307
        },
        {
          "duration": 0.12083333333333712,
          "durationTicks": 29,
          "midi": 76,
          "name": "E5",
          "ticks": 17704,
          "time": 73.76666666666667,
          "velocity": 0.36220472440944884
        },
        {
          "duration": 0.05833333333333712,
          "durationTicks": 14,
          "midi": 64,
          "name": "E4",
          "ticks": 17750,
          "time": 73.95833333333333,
          "velocity": 0.1968503937007874
        },
        {
          "duration": 0.05833333333333712,
          "durationTicks": 14,
          "midi": 32,
          "name": "G#1",
          "ticks": 17769,
          "time": 74.0375,
          "velocity": 0.6456692913385826
        },
        {
          "duration": 0.037500000000008527,
          "durationTicks": 9,
          "midi": 32,
          "name": "G#1",
          "ticks": 17798,
          "time": 74.15833333333333,
          "velocity": 0.47244094488188976
        },
        {
          "duration": 0.09166666666666856,
          "durationTicks": 22,
          "midi": 62,
          "name": "D4",
          "ticks": 17812,
          "time": 74.21666666666667,
          "velocity": 0.4566929133858268
        },
        {
          "duration": 0.04999999999999716,
          "durationTicks": 12,
          "midi": 32,
          "name": "G#1",
          "ticks": 17841,
          "time": 74.3375,
          "velocity": 0.5826771653543307
        },
        {
          "duration": 0.07916666666666572,
          "durationTicks": 19,
          "midi": 98,
          "name": "D7",
          "ticks": 17906,
          "time": 74.60833333333333,
          "velocity": 0.36220472440944884
        },
        {
          "duration": 0.05000000000001137,
          "durationTicks": 12,
          "midi": 41,
          "name": "F2",
          "ticks": 17930,
          "time": 74.70833333333333,
          "velocity": 0.25196850393700787
        },
        {
          "duration": 0.2916666666666714,
          "durationTicks": 70,
          "midi": 67,
          "name": "G4",
          "ticks": 17951,
          "time": 74.79583333333333,
          "velocity": 0.5826771653543307
        },
        {
          "duration": 0.2291666666666714,
          "durationTicks": 55,
          "midi": 64,
          "name": "E4",
          "ticks": 18028,
          "time": 75.11666666666666,
          "velocity": 0.5511811023622047
        },
        {
          "duration": 0.14166666666666572,
          "durationTicks": 34,
          "midi": 98,
          "name": "D7",
          "ticks": 18105,
          "time": 75.4375,
          "velocity": 0.5354330708661418
        },
        {
          "duration": 0.15000000000000568,
          "durationTicks": 36,
          "midi": 31,
          "name": "G1",
          "ticks": 18158,
          "time": 75.65833333333333,
          "velocity": 0.5039370078740157
        },
        {
          "duration": 0.2083333333333286,
          "durationTicks": 50,
          "midi": 31,
          "name": "G1",
          "ticks": 18206,
          "time": 75.85833333333333,
          "velocity": 0.5275590551181102
        },
        {
          "duration": 0.04999999999999716,
          "durationTicks": 12,
          "midi": 74,
          "name": "D5",
          "ticks": 18297,
          "time": 76.2375,
          "velocity": 0.30708661417322836
        },
        {
          "duration": 0.1875,
          "durationTicks": 45,
          "midi": 43,
          "name": "G2",
          "ticks": 18319,
          "time": 76.32916666666667,
          "velocity": 0.44881889763779526
        },
        {
          "duration": 0.10833333333333428,
          "durationTicks": 26,
          "midi": 30,
          "name": "F#1",
          "ticks": 18319,
          "time": 76.32916666666667,
          "velocity": 0.4251968503937008
        },
        {
          "duration": 0.15000000000000568,
          "durationTicks": 36,
          "midi": 92,
          "name": "G#6",
          "ticks": 18364,
          "time": 76.51666666666667,
          "velocity": 0.5984251968503937
        },
        {
          "duration": 0.1666666666666572,
          "durationTicks": 40,
          "midi": 65,
          "name": "F4",
          "ticks": 18415,
          "time": 76.72916666666667,
          "velocity": 0.41732283464566927
        },
        {
          "duration": 0.08750000000000568,
          "durationTicks": 21,
          "midi": 98,
          "name": "D7",
          "ticks": 18470,
          "time": 76.95833333333333,
          "velocity": 0.7165354330708661
        },
        {
          "duration": 0.17083333333333428,
          "durationTicks": 41,
          "midi": 98,
          "name": "D7",
          "ticks": 18515,
          "time": 77.14583333333333,
          "velocity": 0.6535433070866141
        },
        {
          "duration": 0.04166666666665719,
          "durationTicks": 10,
          "midi": 90,
          "name": "F#6",
          "ticks": 18580,
          "time": 77.41666666666667,
          "velocity": 0.3464566929133858
        },
        {
          "duration": 0.0625,
          "durationTicks": 15,
          "midi": 40,
          "name": "E2",
          "ticks": 18611,
          "time": 77.54583333333333,
          "velocity": 0.2440944881889764
        },
        {
          "duration": 0.04999999999999716,
          "durationTicks": 12,
          "midi": 79,
          "name": "G5",
          "ticks": 18633,
          "time": 77.6375,
          "velocity": 0.5984251968503937
        },
        {
          "duration": 0.09166666666666856,
          "durationTicks": 22,
          "midi": 62,
          "name": "D4",
          "ticks": 18683,
          "time": 77.84583333333333,
          "velocity": 0.36220472440944884
        },
        {
          "duration": 0.05833333333332291,
          "durationTicks": 14,
          "midi": 45,
          "name": "A2",
          "ticks": 18741,
          "time": 78.0875,
          "velocity": 0.47244094488188976
        },
        {
          "duration": 0.24166666666666003,
          "durationTicks": 58,
          "midi": 62,
          "name": "D4",
          "ticks": 18765,
          "time": 78.1875,
          "velocity": 0.4881889763779528
        },
        {
          "duration": 0.19166666666666288,
          "durationTicks": 46,
          "midi": 55,
          "name": "G3",
          "ticks": 18832,
          "time": 78.46666666666667,
          "velocity": 0.5275590551181102
        },
        {
          "duration": 0.1666666666666714,
          "durationTicks": 40,
          "midi": 62,
          "name": "D4",
          "ticks": 18883,
          "time": 78.67916666666666,
          "velocity": 0.5039370078740157
        },
        {
          "duration": 0.8583333333333343,
          "durationTicks": 206,
          "midi": 26,
          "name": "D1",
          "ticks": 18955,
          "time": 78.97916666666667,
          "velocity": 0.5196850393700787
        },
        {
          "duration": 0.12916666666666288,
          "durationTicks": 31,
          "midi": 81,
          "name": "A5",
          "ticks": 19161,
          "time": 79.8375,
          "velocity": 0.4881889763779528
        },
        {
          "duration": 0.3999999999999915,
          "durationTicks": 96,
          "midi": 31,
          "name": "G1",
          "ticks": 19207,
          "time": 80.02916666666667,
          "velocity": 0.5905511811023622
        },
        {
          "duration": 0.05833333333333712,
          "durationTicks": 14,
          "midi": 53,
          "name": "F3",
          "ticks": 19226,
          "time": 80.10833333333333,
          "velocity": 0.5590551181102362
        },
        {
          "duration": 0.3499999999999943,
          "durationTicks": 84,
          "midi": 55,
          "name": "G3",
          "ticks": 19322,
          "time": 80.50833333333334,
          "velocity": 0.4330708661417323
        },
        {
          "duration": 0.0625,
          "durationTicks": 15,
          "midi": 88,
          "name": "E6",
          "ticks": 19415,
          "time": 80.89583333333333,
          "velocity": 0.4881889763779528
        },
        {
          "duration": 0.0625,
          "durationTicks": 15,
          "midi": 89,
          "name": "F6",
          "ticks": 19456,
          "time": 81.06666666666666,
          "velocity": 0.3228346456692913
        },
        {
          "duration": 0.10833333333333428,
          "durationTicks": 26,
          "midi": 64,
          "name": "E4",
          "ticks": 19483,
          "time": 81.17916666666666,
          "velocity": 0.3543307086614173
        },
        {
          "duration": 0.10000000000000853,
          "durationTicks": 24,
          "midi": 81,
          "name": "A5",
          "ticks": 19523,
          "time": 81.34583333333333,
          "velocity": 0.6062992125984252
        },
        {
          "duration": 0.13333333333332575,
          "durationTicks": 32,
          "midi": 92,
          "name": "G#6",
          "ticks": 19631,
          "time": 81.79583333333333,
          "velocity": 0.5905511811023622
        },
        {
          "duration": 0.041666666666671404,
          "durationTicks": 10,
          "midi": 59,
          "name": "B3",
          "ticks": 19696,
          "time": 82.06666666666666,
          "velocity": 0.11811023622047244
        },
        {
          "duration": 0.09166666666666856,
          "durationTicks": 22,
          "midi": 91,
          "name": "G6",
          "ticks": 19713,
          "time": 82.1375,
          "velocity": 0.1732283464566929
        },
        {
          "duration": 0.04999999999999716,
          "durationTicks": 12,
          "midi": 75,
          "name": "D#5",
          "ticks": 19744,
          "time": 82.26666666666667,
          "velocity": 0.5039370078740157
        },
        {
          "duration": 0.04166666666665719,
          "durationTicks": 10,
          "midi": 74,
          "name": "D5",
          "ticks": 19761,
          "time": 82.3375,
          "velocity": 0.33858267716535434
        },
        {
          "duration": 0.07916666666666572,
          "durationTicks": 19,
          "midi": 85,
          "name": "C#6",
          "ticks": 19785,
          "time": 82.4375,
          "velocity": 0.4015748031496063
        },
        {
          "duration": 0.04999999999999716,
          "durationTicks": 12,
          "midi": 62,
          "name": "D4",
          "ticks": 19855,
          "time": 82.72916666666667,
          "velocity": 0.33070866141732286
        },
        {
          "duration": 0.05833333333332291,
          "durationTicks": 14,
          "midi": 67,
          "name": "G4",
          "ticks": 19881,
          "time": 82.8375,
          "velocity": 0.3937007874015748
        },
        {
          "duration": 0.2083333333333286,
          "durationTicks": 50,
          "midi": 30,
          "name": "F#1",
          "ticks": 19898,
          "time": 82.90833333333333,
          "velocity": 0.4566929133858268
        },
        {
          "duration": 0.24166666666666003,
          "durationTicks": 58,
          "midi": 64,
          "name": "E4",
          "ticks": 19960,
          "time": 83.16666666666667,
          "velocity": 0.47244094488188976
        },
        {
          "duration": 0.19999999999998863,
          "durationTicks": 48,
          "midi": 29,
          "name": "F1",
          "ticks": 20035,
          "time": 83.47916666666667,
          "velocity": 0.5354330708661418
        },
        {
          "duration": 0.13750000000000284,
          "durationTicks": 33,
          "midi": 98,
          "name": "D7",
          "ticks": 20198,
          "time": 84.15833333333333,
          "velocity": 0.5275590551181102
        },
        {
          "duration": 0.40833333333333144,
          "durationTicks": 98,
          "midi": 31,
          "name": "G1",
          "ticks": 20253,
          "time": 84.3875,
          "velocity": 0.6377952755905512
        },
        {
          "duration": 0.2291666666666572,
          "durationTicks": 55,
          "midi": 30,
          "name": "F#1",
          "ticks": 20414,
          "time": 85.05833333333334,
          "velocity": 0.47244094488188976
        },
        {
          "duration": 0.23333333333333428,
          "durationTicks": 56,
          "midi": 28,
          "name": "E1",
          "ticks": 20519,
          "time": 85.49583333333334,
          "velocity": 0.4881889763779528
        },
        {
          "duration": 0.22083333333333144,
          "durationTicks": 53,
          "midi": 40,
          "name": "E2",
          "ticks": 20555,
          "time": 85.64583333333333,
          "velocity": 0.5511811023622047
        },
        {
          "duration": 0.04999999999999716,
          "durationTicks": 12,
          "midi": 28,
          "name": "E1",
          "ticks": 20611,
          "time": 85.87916666666666,
          "velocity": 0.5669291338582677
        },
        {
          "duration": 0.10833333333333428,
          "durationTicks": 26,
          "midi": 86,
          "name": "D6",
          "ticks": 20673,
          "time": 86.1375,
          "velocity": 0.5354330708661418
        },
        {
          "duration": 0.09166666666666856,
          "durationTicks": 22,
          "midi": 40,
          "name": "E2",
          "ticks": 20699,
          "time": 86.24583333333334,
          "velocity": 0.4409448818897638
        },
        {
          "duration": 0.12083333333332291,
          "durationTicks": 29,
          "midi": 62,
          "name": "D4",
          "ticks": 20781,
          "time": 86.5875,
          "velocity": 0.4094488188976378
        },
        {
          "duration": 0.06666666666666288,
          "durationTicks": 16,
          "midi": 78,
          "name": "F#5",
          "ticks": 20827,
          "time": 86.77916666666667,
          "velocity": 0.6062992125984252
        },
        {
          "duration": 0.07083333333332575,
          "durationTicks": 17,
          "midi": 60,
          "name": "C4",
          "ticks": 20853,
          "time": 86.8875,
          "velocity": 0.5669291338582677
        },
        {
          "duration": 0.07083333333333997,
          "durationTicks": 17,
          "midi": 78,
          "name": "F#5",
          "ticks": 20870,
          "time": 86.95833333333333,
          "velocity": 0.49606299212598426
        },
        {
          "duration": 0.06666666666666288,
          "durationTicks": 16,
          "midi": 64,
          "name": "E4",
          "ticks": 20887,
          "time": 87.02916666666667,
          "velocity": 0.28346456692913385
        },
        {
          "duration": 0.041666666666671404,
          "durationTicks": 10,
          "midi": 55,
          "name": "G3",
          "ticks": 20908,
          "time": 87.11666666666666,
          "velocity": 0.36220472440944884
        },
        {
          "duration": 0.1291666666666771,
          "durationTicks": 31,
          "midi": 67,
          "name": "G4",
          "ticks": 20930,
          "time": 87.20833333333333,
          "velocity": 0.4409448818897638
        },
        {
          "duration": 0.04999999999999716,
          "durationTicks": 12,
          "midi": 59,
          "name": "B3",
          "ticks": 20997,
          "time": 87.4875,
          "velocity": 0.47244094488188976
        },
        {
          "duration": 0.037499999999994316,
          "durationTicks": 9,
          "midi": 69,
          "name": "A4",
          "ticks": 21115,
          "time": 87.97916666666667,
          "velocity": 0.2204724409448819
        },
        {
          "duration": 0.04999999999999716,
          "durationTicks": 12,
          "midi": 57,
          "name": "A3",
          "ticks": 21131,
          "time": 88.04583333333333,
          "velocity": 0.10236220472440945
        },
        {
          "duration": 0.037499999999994316,
          "durationTicks": 9,
          "midi": 61,
          "name": "C#4",
          "ticks": 21146,
          "time": 88.10833333333333,
          "velocity": 0.14173228346456693
        },
        {
          "duration": 0.26250000000000284,
          "durationTicks": 63,
          "midi": 38,
          "name": "D2",
          "ticks": 21184,
          "time": 88.26666666666667,
          "velocity": 0.5039370078740157
        },
        {
          "duration": 0.2291666666666714,
          "durationTicks": 55,
          "midi": 28,
          "name": "E1",
          "ticks": 21304,
          "time": 88.76666666666667,
          "velocity": 0.49606299212598426
        },
        {
          "duration": 0.23749999999999716,
          "durationTicks": 57,
          "midi": 40,
          "name": "E2",
          "ticks": 21367,
          "time": 89.02916666666667,
          "velocity": 0.6299212598425197
        },
        {
          "duration": 0.14166666666666572,
          "durationTicks": 34,
          "midi": 28,
          "name": "E1",
          "ticks": 21424,
          "time": 89.26666666666667,
          "velocity": 0.44881889763779526
        },
        {
          "duration": 0.041666666666671404,
          "durationTicks": 10,
          "midi": 47,
          "name": "B2",
          "ticks": 21472,
          "time": 89.46666666666667,
          "velocity": 0.25984251968503935
        },
        {
          "duration": 0.23749999999999716,
          "durationTicks": 57,
          "midi": 55,
          "name": "G3",
          "ticks": 21487,
          "time": 89.52916666666667,
          "velocity": 0.4409448818897638
        },
        {
          "duration": 0.17083333333333428,
          "durationTicks": 41,
          "midi": 57,
          "name": "A3",
          "ticks": 21518,
          "time": 89.65833333333333,
          "velocity": 0.3464566929133858
        },
        {
          "duration": 0.23749999999999716,
          "durationTicks": 57,
          "midi": 33,
          "name": "A1",
          "ticks": 21547,
          "time": 89.77916666666667,
          "velocity": 0.49606299212598426
        },
        {
          "duration": 0.24166666666666003,
          "durationTicks": 58,
          "midi": 33,
          "name": "A1",
          "ticks": 21647,
          "time": 90.19583333333334,
          "velocity": 0.5039370078740157
        },
        {
          "duration": 0.037499999999994316,
          "durationTicks": 9,
          "midi": 52,
          "name": "E3",
          "ticks": 21722,
          "time": 90.50833333333334,
          "velocity": 0.2677165354330709
        },
        {
          "duration": 0.2291666666666714,
          "durationTicks": 55,
          "midi": 45,
          "name": "A2",
          "ticks": 21724,
          "time": 90.51666666666667,
          "velocity": 0.4645669291338583
        },
        {
          "duration": 0.05000000000001137,
          "durationTicks": 12,
          "midi": 33,
          "name": "A1",
          "ticks": 21770,
          "time": 90.70833333333333,
          "velocity": 0.4094488188976378
        },
        {
          "duration": 0.07916666666666572,
          "durationTicks": 19,
          "midi": 33,
          "name": "A1",
          "ticks": 21835,
          "time": 90.97916666666667,
          "velocity": 0.4645669291338583
        },
        {
          "duration": 0.0833333333333286,
          "durationTicks": 20,
          "midi": 33,
          "name": "A1",
          "ticks": 21899,
          "time": 91.24583333333334,
          "velocity": 0.48031496062992124
        },
        {
          "duration": 0.2291666666666572,
          "durationTicks": 55,
          "midi": 33,
          "name": "A1",
          "ticks": 21940,
          "time": 91.41666666666667,
          "velocity": 0.5511811023622047
        },
        {
          "duration": 0.08750000000000568,
          "durationTicks": 21,
          "midi": 41,
          "name": "F2",
          "ticks": 22058,
          "time": 91.90833333333333,
          "velocity": 0.3858267716535433
        },
        {
          "duration": 0.10833333333333428,
          "durationTicks": 26,
          "midi": 29,
          "name": "F1",
          "ticks": 22087,
          "time": 92.02916666666667,
          "velocity": 0.5118110236220472
        },
        {
          "duration": 0.04999999999999716,
          "durationTicks": 12,
          "midi": 29,
          "name": "F1",
          "ticks": 22135,
          "time": 92.22916666666667,
          "velocity": 0.4094488188976378
        },
        {
          "duration": 0.04999999999999716,
          "durationTicks": 12,
          "midi": 34,
          "name": "A#1",
          "ticks": 22161,
          "time": 92.3375,
          "velocity": 0.1968503937007874
        },
        {
          "duration": 0.15000000000000568,
          "durationTicks": 36,
          "midi": 85,
          "name": "C#6",
          "ticks": 22171,
          "time": 92.37916666666666,
          "velocity": 0.2992125984251969
        },
        {
          "duration": 0.16250000000000853,
          "durationTicks": 39,
          "midi": 29,
          "name": "F1",
          "ticks": 22276,
          "time": 92.81666666666666,
          "velocity": 0.5275590551181102
        },
        {
          "duration": 0.17916666666667425,
          "durationTicks": 43,
          "midi": 31,
          "name": "G1",
          "ticks": 22336,
          "time": 93.06666666666666,
          "velocity": 0.5590551181102362
        },
        {
          "duration": 0.04999999999999716,
          "durationTicks": 12,
          "midi": 62,
          "name": "D4",
          "ticks": 22394,
          "time": 93.30833333333334,
          "velocity": 0.5511811023622047
        },
        {
          "duration": 0.16250000000000853,
          "durationTicks": 39,
          "midi": 62,
          "name": "D4",
          "ticks": 22408,
          "time": 93.36666666666666,
          "velocity": 0.5984251968503937
        },
        {
          "duration": 0.1291666666666771,
          "durationTicks": 31,
          "midi": 62,
          "name": "D4",
          "ticks": 22483,
          "time": 93.67916666666666,
          "velocity": 0.48031496062992124
        },
        {
          "duration": 0.21666666666666856,
          "durationTicks": 52,
          "midi": 31,
          "name": "G1",
          "ticks": 22531,
          "time": 93.87916666666666,
          "velocity": 0.5511811023622047
        },
        {
          "duration": 0.17916666666667425,
          "durationTicks": 43,
          "midi": 33,
          "name": "A1",
          "ticks": 22598,
          "time": 94.15833333333333,
          "velocity": 0.5354330708661418
        },
        {
          "duration": 0.07083333333332575,
          "durationTicks": 17,
          "midi": 45,
          "name": "A2",
          "ticks": 22672,
          "time": 94.46666666666667,
          "velocity": 0.41732283464566927
        },
        {
          "duration": 0.4124999999999943,
          "durationTicks": 99,
          "midi": 55,
          "name": "G3",
          "ticks": 22744,
          "time": 94.76666666666667,
          "velocity": 0.2677165354330709
        },
        {
          "duration": 0.04999999999999716,
          "durationTicks": 12,
          "midi": 83,
          "name": "B5",
          "ticks": 22864,
          "time": 95.26666666666667,
          "velocity": 0.18110236220472442
        },
        {
          "duration": 0.1666666666666714,
          "durationTicks": 40,
          "midi": 45,
          "name": "A2",
          "ticks": 22903,
          "time": 95.42916666666666,
          "velocity": 0.4015748031496063
        },
        {
          "duration": 0.04999999999999716,
          "durationTicks": 12,
          "midi": 33,
          "name": "A1",
          "ticks": 22951,
          "time": 95.62916666666666,
          "velocity": 0.4566929133858268
        },
        {
          "duration": 0.4333333333333371,
          "durationTicks": 104,
          "midi": 33,
          "name": "A1",
          "ticks": 23003,
          "time": 95.84583333333333,
          "velocity": 0.5826771653543307
        },
        {
          "duration": 0.22083333333334565,
          "durationTicks": 53,
          "midi": 38,
          "name": "D2",
          "ticks": 23109,
          "time": 96.2875,
          "velocity": 0.5984251968503937
        },
        {
          "duration": 0.15000000000000568,
          "durationTicks": 36,
          "midi": 38,
          "name": "D2",
          "ticks": 23203,
          "time": 96.67916666666666,
          "velocity": 0.5984251968503937
        },
        {
          "duration": 0.12916666666666288,
          "durationTicks": 31,
          "midi": 76,
          "name": "E5",
          "ticks": 23239,
          "time": 96.82916666666667,
          "velocity": 0.5433070866141733
        },
        {
          "duration": 0.2916666666666572,
          "durationTicks": 70,
          "midi": 38,
          "name": "D2",
          "ticks": 23301,
          "time": 97.0875,
          "velocity": 0.6220472440944882
        },
        {
          "duration": 0.15833333333334565,
          "durationTicks": 38,
          "midi": 31,
          "name": "G1",
          "ticks": 23383,
          "time": 97.42916666666666,
          "velocity": 0.5354330708661418
        },
        {
          "duration": 0.04999999999999716,
          "durationTicks": 12,
          "midi": 56,
          "name": "G#3",
          "ticks": 23452,
          "time": 97.71666666666667,
          "velocity": 0.3228346456692913
        },
        {
          "duration": 0.07083333333332575,
          "durationTicks": 17,
          "midi": 53,
          "name": "F3",
          "ticks": 23546,
          "time": 98.10833333333333,
          "velocity": 0.3228346456692913
        },
        {
          "duration": 0.2083333333333428,
          "durationTicks": 50,
          "midi": 31,
          "name": "G1",
          "ticks": 23577,
          "time": 98.2375,
          "velocity": 0.5196850393700787
        },
        {
          "duration": 0.2874999999999943,
          "durationTicks": 69,
          "midi": 36,
          "name": "C2",
          "ticks": 23635,
          "time": 98.47916666666667,
          "velocity": 0.5905511811023622
        },
        {
          "duration": 0.04999999999999716,
          "durationTicks": 12,
          "midi": 67,
          "name": "G4",
          "ticks": 23779,
          "time": 99.07916666666667,
          "velocity": 0.36220472440944884
        },
        {
          "duration": 0.25,
          "durationTicks": 60,
          "midi": 91,
          "name": "G6",
          "ticks": 23798,
          "time": 99.15833333333333,
          "velocity": 0.31496062992125984
        },
        {
          "duration": 0.13333333333332575,
          "durationTicks": 32,
          "midi": 88,
          "name": "E6",
          "ticks": 23927,
          "time": 99.69583333333334,
          "velocity": 0.2755905511811024
        },
        {
          "duration": 0.3916666666666657,
          "durationTicks": 94,
          "midi": 36,
          "name": "C2",
          "ticks": 23963,
          "time": 99.84583333333333,
          "velocity": 0.33858267716535434
        },
        {
          "duration": 0.20000000000000284,
          "durationTicks": 48,
          "midi": 42,
          "name": "F#2",
          "ticks": 24016,
          "time": 100.06666666666666,
          "velocity": 0.29133858267716534
        },
        {
          "duration": 0.037499999999994316,
          "durationTicks": 9,
          "midi": 62,
          "name": "D4",
          "ticks": 24067,
          "time": 100.27916666666667,
          "velocity": 0.29133858267716534
        },
        {
          "duration": 0.17916666666667425,
          "durationTicks": 43,
          "midi": 42,
          "name": "F#2",
          "ticks": 24076,
          "time": 100.31666666666666,
          "velocity": 0.36220472440944884
        },
        {
          "duration": 0.09999999999999432,
          "durationTicks": 24,
          "midi": 55,
          "name": "G3",
          "ticks": 24191,
          "time": 100.79583333333333,
          "velocity": 0.5118110236220472
        },
        {
          "duration": 0.0833333333333286,
          "durationTicks": 20,
          "midi": 57,
          "name": "A3",
          "ticks": 24227,
          "time": 100.94583333333334,
          "velocity": 0.5984251968503937
        },
        {
          "duration": 0.04999999999999716,
          "durationTicks": 12,
          "midi": 53,
          "name": "F3",
          "ticks": 24333,
          "time": 101.3875,
          "velocity": 0.3543307086614173
        },
        {
          "duration": 0.12083333333333712,
          "durationTicks": 29,
          "midi": 41,
          "name": "F2",
          "ticks": 24345,
          "time": 101.4375,
          "velocity": 0.4251968503937008
        },
        {
          "duration": 0.11249999999999716,
          "durationTicks": 27,
          "midi": 29,
          "name": "F1",
          "ticks": 24371,
          "time": 101.54583333333333,
          "velocity": 0.5433070866141733
        },
        {
          "duration": 0.3291666666666657,
          "durationTicks": 79,
          "midi": 31,
          "name": "G1",
          "ticks": 24429,
          "time": 101.7875,
          "velocity": 0.5433070866141733
        },
        {
          "duration": 0.037500000000008527,
          "durationTicks": 9,
          "midi": 80,
          "name": "G#5",
          "ticks": 24518,
          "time": 102.15833333333333,
          "velocity": 0.2755905511811024
        },
        {
          "duration": 0.17083333333333428,
          "durationTicks": 41,
          "midi": 59,
          "name": "B3",
          "ticks": 24590,
          "time": 102.45833333333333,
          "velocity": 0.25196850393700787
        },
        {
          "duration": 0.09166666666666856,
          "durationTicks": 22,
          "midi": 50,
          "name": "D3",
          "ticks": 24599,
          "time": 102.49583333333334,
          "velocity": 0.12598425196850394
        },
        {
          "duration": 0.17916666666666003,
          "durationTicks": 43,
          "midi": 31,
          "name": "G1",
          "ticks": 24626,
          "time": 102.60833333333333,
          "velocity": 0.5275590551181102
        },
        {
          "duration": 0.10833333333333428,
          "durationTicks": 26,
          "midi": 45,
          "name": "A2",
          "ticks": 24669,
          "time": 102.7875,
          "velocity": 0.3700787401574803
        },
        {
          "duration": 0.22083333333333144,
          "durationTicks": 53,
          "midi": 33,
          "name": "A1",
          "ticks": 24695,
          "time": 102.89583333333333,
          "velocity": 0.5433070866141733
        },
        {
          "duration": 0.14166666666666572,
          "durationTicks": 34,
          "midi": 45,
          "name": "A2",
          "ticks": 24765,
          "time": 103.1875,
          "velocity": 0.3858267716535433
        },
        {
          "duration": 0.0625,
          "durationTicks": 15,
          "midi": 91,
          "name": "G6",
          "ticks": 24839,
          "time": 103.49583333333334,
          "velocity": 0.4330708661417323
        },
        {
          "duration": 0.04999999999999716,
          "durationTicks": 12,
          "midi": 52,
          "name": "E3",
          "ticks": 24861,
          "time": 103.5875,
          "velocity": 0.2283464566929134
        },
        {
          "duration": 0.04999999999999716,
          "durationTicks": 12,
          "midi": 98,
          "name": "D7",
          "ticks": 24916,
          "time": 103.81666666666666,
          "velocity": 0.5275590551181102
        },
        {
          "duration": 0.05000000000001137,
          "durationTicks": 12,
          "midi": 55,
          "name": "G3",
          "ticks": 24928,
          "time": 103.86666666666666,
          "velocity": 0.36220472440944884
        },
        {
          "duration": 0.10000000000000853,
          "durationTicks": 24,
          "midi": 98,
          "name": "D7",
          "ticks": 24938,
          "time": 103.90833333333333,
          "velocity": 0.5590551181102362
        },
        {
          "duration": 0.07916666666666572,
          "durationTicks": 19,
          "midi": 33,
          "name": "A1",
          "ticks": 24976,
          "time": 104.06666666666666,
          "velocity": 0.4566929133858268
        },
        {
          "duration": 0.07083333333332575,
          "durationTicks": 17,
          "midi": 99,
          "name": "D#7",
          "ticks": 25012,
          "time": 104.21666666666667,
          "velocity": 0.3700787401574803
        },
        {
          "duration": 0.07916666666666572,
          "durationTicks": 19,
          "midi": 86,
          "name": "D6",
          "ticks": 25039,
          "time": 104.32916666666667,
          "velocity": 0.4015748031496063
        },
        {
          "duration": 0.10000000000000853,
          "durationTicks": 24,
          "midi": 86,
          "name": "D6",
          "ticks": 25077,
          "time": 104.4875,
          "velocity": 0.2755905511811024
        },
        {
          "duration": 0.04999999999999716,
          "durationTicks": 12,
          "midi": 98,
          "name": "D7",
          "ticks": 25106,
          "time": 104.60833333333333,
          "velocity": 0.33858267716535434
        },
        {
          "duration": 0.1291666666666771,
          "durationTicks": 31,
          "midi": 45,
          "name": "A2",
          "ticks": 25130,
          "time": 104.70833333333333,
          "velocity": 0.36220472440944884
        },
        {
          "duration": 0.29999999999999716,
          "durationTicks": 72,
          "midi": 38,
          "name": "D2",
          "ticks": 25204,
          "time": 105.01666666666667,
          "velocity": 0.5905511811023622
        },
        {
          "duration": 0.11250000000001137,
          "durationTicks": 27,
          "midi": 57,
          "name": "A3",
          "ticks": 25235,
          "time": 105.14583333333333,
          "velocity": 0.5748031496062992
        },
        {
          "duration": 0.17916666666666003,
          "durationTicks": 43,
          "midi": 38,
          "name": "D2",
          "ticks": 25300,
          "time": 105.41666666666667,
          "velocity": 0.5511811023622047
        },
        {
          "duration": 0.20000000000000284,
          "durationTicks": 48,
          "midi": 38,
          "name": "D2",
          "ticks": 25396,
          "time": 105.81666666666666,
          "velocity": 0.5984251968503937
        },
        {
          "duration": 0.27916666666666856,
          "durationTicks": 67,
          "midi": 40,
          "name": "E2",
          "ticks": 25466,
          "time": 106.10833333333333,
          "velocity": 0.5354330708661418
        },
        {
          "duration": 0.2708333333333286,
          "durationTicks": 65,
          "midi": 40,
          "name": "E2",
          "ticks": 25562,
          "time": 106.50833333333334,
          "velocity": 0.4330708661417323
        },
        {
          "duration": 0.34166666666666856,
          "durationTicks": 82,
          "midi": 40,
          "name": "E2",
          "ticks": 25655,
          "time": 106.89583333333333,
          "velocity": 0.5984251968503937
        },
        {
          "duration": 0.19999999999998863,
          "durationTicks": 48,
          "midi": 33,
          "name": "A1",
          "ticks": 25735,
          "time": 107.22916666666667,
          "velocity": 0.5275590551181102
        },
        {
          "duration": 0.15833333333333144,
          "durationTicks": 38,
          "midi": 45,
          "name": "A2",
          "ticks": 25814,
          "time": 107.55833333333334,
          "velocity": 0.4330708661417323
        },
        {
          "duration": 0.17916666666666003,
          "durationTicks": 43,
          "midi": 45,
          "name": "A2",
          "ticks": 25912,
          "time": 107.96666666666667,
          "velocity": 0.5275590551181102
        },
        {
          "duration": 0.1666666666666714,
          "durationTicks": 40,
          "midi": 45,
          "name": "A2",
          "ticks": 26011,
          "time": 108.37916666666666,
          "velocity": 0.5039370078740157
        },
        {
          "duration": 0.12083333333333712,
          "durationTicks": 29,
          "midi": 45,
          "name": "A2",
          "ticks": 26109,
          "time": 108.7875,
          "velocity": 0.3700787401574803
        },
        {
          "duration": 0.04999999999999716,
          "durationTicks": 12,
          "midi": 33,
          "name": "A1",
          "ticks": 26157,
          "time": 108.9875,
          "velocity": 0.4330708661417323
        },
        {
          "duration": 0.12083333333333712,
          "durationTicks": 29,
          "midi": 45,
          "name": "A2",
          "ticks": 26176,
          "time": 109.06666666666666,
          "velocity": 0.2677165354330709
        },
        {
          "duration": 0.05833333333333712,
          "durationTicks": 14,
          "midi": 38,
          "name": "D2",
          "ticks": 26251,
          "time": 109.37916666666666,
          "velocity": 0.1889763779527559
        },
        {
          "duration": 0.05833333333332291,
          "durationTicks": 14,
          "midi": 37,
          "name": "C#2",
          "ticks": 26275,
          "time": 109.47916666666667,
          "velocity": 0.16535433070866143
        },
        {
          "duration": 0.06666666666666288,
          "durationTicks": 16,
          "midi": 36,
          "name": "C2",
          "ticks": 26299,
          "time": 109.57916666666667,
          "velocity": 0.11811023622047244
        },
        {
          "duration": 0.05833333333333712,
          "durationTicks": 14,
          "midi": 35,
          "name": "B1",
          "ticks": 26325,
          "time": 109.6875,
          "velocity": 0.10236220472440945
        },
        {
          "duration": 0.05833333333333712,
          "durationTicks": 14,
          "midi": 34,
          "name": "A#1",
          "ticks": 26349,
          "time": 109.7875,
          "velocity": 0.09448818897637795
        },
        {
          "duration": 0.0625,
          "durationTicks": 15,
          "midi": 33,
          "name": "A1",
          "ticks": 26375,
          "time": 109.89583333333333,
          "velocity": 0.13385826771653545
        },
        {
          "duration": 0.19166666666666288,
          "durationTicks": 46,
          "midi": 62,
          "name": "D4",
          "ticks": 26553,
          "time": 110.6375,
          "velocity": 0.3937007874015748
        },
        {
          "duration": 0.2083333333333428,
          "durationTicks": 50,
          "midi": 64,
          "name": "E4",
          "ticks": 26683,
          "time": 111.17916666666666,
          "velocity": 0.4094488188976378
        },
        {
          "duration": 0.04166666666665719,
          "durationTicks": 10,
          "midi": 52,
          "name": "E3",
          "ticks": 26860,
          "time": 111.91666666666667,
          "velocity": 0.3937007874015748
        },
        {
          "duration": 0.10833333333333428,
          "durationTicks": 26,
          "midi": 64,
          "name": "E4",
          "ticks": 26949,
          "time": 112.2875,
          "velocity": 0.30708661417322836
        },
        {
          "duration": 0.10000000000000853,
          "durationTicks": 24,
          "midi": 57,
          "name": "A3",
          "ticks": 26975,
          "time": 112.39583333333333,
          "velocity": 0.29133858267716534
        },
        {
          "duration": 0.10833333333333428,
          "durationTicks": 26,
          "midi": 64,
          "name": "E4",
          "ticks": 27043,
          "time": 112.67916666666666,
          "velocity": 0.2992125984251969
        },
        {
          "duration": 0.17916666666667425,
          "durationTicks": 43,
          "midi": 62,
          "name": "D4",
          "ticks": 27079,
          "time": 112.82916666666667,
          "velocity": 0.3858267716535433
        },
        {
          "duration": 0.21250000000000568,
          "durationTicks": 51,
          "midi": 64,
          "name": "E4",
          "ticks": 27208,
          "time": 113.36666666666666,
          "velocity": 0.4015748031496063
        },
        {
          "duration": 0.07083333333333997,
          "durationTicks": 17,
          "midi": 90,
          "name": "F#6",
          "ticks": 27364,
          "time": 114.01666666666667,
          "velocity": 0.16535433070866143
        },
        {
          "duration": 0.07916666666666572,
          "durationTicks": 19,
          "midi": 59,
          "name": "B3",
          "ticks": 27374,
          "time": 114.05833333333334,
          "velocity": 0.5039370078740157
        },
        {
          "duration": 0.34166666666666856,
          "durationTicks": 82,
          "midi": 92,
          "name": "G#6",
          "ticks": 27460,
          "time": 114.41666666666667,
          "velocity": 0.5196850393700787
        },
        {
          "duration": 0.0625,
          "durationTicks": 15,
          "midi": 64,
          "name": "E4",
          "ticks": 27527,
          "time": 114.69583333333334,
          "velocity": 0.1732283464566929
        },
        {
          "duration": 0.2291666666666572,
          "durationTicks": 55,
          "midi": 100,
          "name": "E7",
          "ticks": 27595,
          "time": 114.97916666666667,
          "velocity": 0.4409448818897638
        },
        {
          "duration": 0.041666666666671404,
          "durationTicks": 10,
          "midi": 81,
          "name": "A5",
          "ticks": 27729,
          "time": 115.5375,
          "velocity": 0.29133858267716534
        },
        {
          "duration": 0.041666666666671404,
          "durationTicks": 10,
          "midi": 96,
          "name": "C7",
          "ticks": 27808,
          "time": 115.86666666666666,
          "velocity": 0.15748031496062992
        },
        {
          "duration": 0.09166666666666856,
          "durationTicks": 22,
          "midi": 84,
          "name": "C6",
          "ticks": 27856,
          "time": 116.06666666666666,
          "velocity": 0.5669291338582677
        },
        {
          "duration": 0.07083333333333997,
          "durationTicks": 17,
          "midi": 83,
          "name": "B5",
          "ticks": 27890,
          "time": 116.20833333333333,
          "velocity": 0.3937007874015748
        },
        {
          "duration": 0.12083333333333712,
          "durationTicks": 29,
          "midi": 71,
          "name": "B4",
          "ticks": 27892,
          "time": 116.21666666666667,
          "velocity": 0.5669291338582677
        },
        {
          "duration": 0.09999999999999432,
          "durationTicks": 24,
          "midi": 71,
          "name": "B4",
          "ticks": 27959,
          "time": 116.49583333333334,
          "velocity": 0.36220472440944884
        },
        {
          "duration": 0.041666666666671404,
          "durationTicks": 10,
          "midi": 60,
          "name": "C4",
          "ticks": 27971,
          "time": 116.54583333333333,
          "velocity": 0.15748031496062992
        },
        {
          "duration": 0.041666666666671404,
          "durationTicks": 10,
          "midi": 31,
          "name": "G1",
          "ticks": 27983,
          "time": 116.59583333333333,
          "velocity": 0.3543307086614173
        },
        {
          "duration": 0.21666666666666856,
          "durationTicks": 52,
          "midi": 67,
          "name": "G4",
          "ticks": 27991,
          "time": 116.62916666666666,
          "velocity": 0.5196850393700787
        },
        {
          "duration": 0.07083333333333997,
          "durationTicks": 17,
          "midi": 79,
          "name": "G5",
          "ticks": 28058,
          "time": 116.90833333333333,
          "velocity": 0.10236220472440945
        },
        {
          "duration": 0.14166666666666572,
          "durationTicks": 34,
          "midi": 64,
          "name": "E4",
          "ticks": 28089,
          "time": 117.0375,
          "velocity": 0.36220472440944884
        },
        {
          "duration": 0.17916666666667425,
          "durationTicks": 43,
          "midi": 41,
          "name": "F2",
          "ticks": 28111,
          "time": 117.12916666666666,
          "velocity": 0.4881889763779528
        },
        {
          "duration": 0.04999999999999716,
          "durationTicks": 12,
          "midi": 88,
          "name": "E6",
          "ticks": 28173,
          "time": 117.3875,
          "velocity": 0.3937007874015748
        },
        {
          "duration": 0.041666666666671404,
          "durationTicks": 10,
          "midi": 74,
          "name": "D5",
          "ticks": 28192,
          "time": 117.46666666666667,
          "velocity": 0.10236220472440945
        },
        {
          "duration": 0.22083333333333144,
          "durationTicks": 53,
          "midi": 41,
          "name": "F2",
          "ticks": 28226,
          "time": 117.60833333333333,
          "velocity": 0.5118110236220472
        },
        {
          "duration": 0.10833333333333428,
          "durationTicks": 26,
          "midi": 64,
          "name": "E4",
          "ticks": 28329,
          "time": 118.0375,
          "velocity": 0.09448818897637795
        },
        {
          "duration": 0.2083333333333286,
          "durationTicks": 50,
          "midi": 62,
          "name": "D4",
          "ticks": 28387,
          "time": 118.27916666666667,
          "velocity": 0.44881889763779526
        },
        {
          "duration": 0.23333333333333428,
          "durationTicks": 56,
          "midi": 92,
          "name": "G#6",
          "ticks": 28511,
          "time": 118.79583333333333,
          "velocity": 0.49606299212598426
        },
        {
          "duration": 0.05000000000001137,
          "durationTicks": 12,
          "midi": 55,
          "name": "G3",
          "ticks": 28610,
          "time": 119.20833333333333,
          "velocity": 0.11023622047244094
        },
        {
          "duration": 0.2708333333333286,
          "durationTicks": 65,
          "midi": 62,
          "name": "D4",
          "ticks": 28634,
          "time": 119.30833333333334,
          "velocity": 0.44881889763779526
        },
        {
          "duration": 0.22083333333333144,
          "durationTicks": 53,
          "midi": 59,
          "name": "B3",
          "ticks": 28778,
          "time": 119.90833333333333,
          "velocity": 0.5039370078740157
        },
        {
          "duration": 0.04999999999999716,
          "durationTicks": 12,
          "midi": 83,
          "name": "B5",
          "ticks": 28821,
          "time": 120.0875,
          "velocity": 0.11811023622047244
        },
        {
          "duration": 0.07083333333333997,
          "durationTicks": 17,
          "midi": 64,
          "name": "E4",
          "ticks": 28898,
          "time": 120.40833333333333,
          "velocity": 0.10236220472440945
        },
        {
          "duration": 0.037499999999994316,
          "durationTicks": 9,
          "midi": 34,
          "name": "A#1",
          "ticks": 28939,
          "time": 120.57916666666667,
          "velocity": 0.3700787401574803
        },
        {
          "duration": 0.04166666666665719,
          "durationTicks": 10,
          "midi": 52,
          "name": "E3",
          "ticks": 28953,
          "time": 120.6375,
          "velocity": 0.3464566929133858
        },
        {
          "duration": 0.15000000000000568,
          "durationTicks": 36,
          "midi": 33,
          "name": "A1",
          "ticks": 29075,
          "time": 121.14583333333333,
          "velocity": 0.5118110236220472
        },
        {
          "duration": 0.11666666666666003,
          "durationTicks": 28,
          "midi": 100,
          "name": "E7",
          "ticks": 29167,
          "time": 121.52916666666667,
          "velocity": 0.4409448818897638
        },
        {
          "duration": 0.22083333333333144,
          "durationTicks": 53,
          "midi": 64,
          "name": "E4",
          "ticks": 29301,
          "time": 122.0875,
          "velocity": 0.41732283464566927
        },
        {
          "duration": 0.0625,
          "durationTicks": 15,
          "midi": 90,
          "name": "F#6",
          "ticks": 29459,
          "time": 122.74583333333334,
          "velocity": 0.14173228346456693
        },
        {
          "duration": 0.08749999999999147,
          "durationTicks": 21,
          "midi": 59,
          "name": "B3",
          "ticks": 29467,
          "time": 122.77916666666667,
          "velocity": 0.5433070866141733
        },
        {
          "duration": 0.3291666666666657,
          "durationTicks": 79,
          "midi": 92,
          "name": "G#6",
          "ticks": 29558,
          "time": 123.15833333333333,
          "velocity": 0.5118110236220472
        },
        {
          "duration": 0.05833333333333712,
          "durationTicks": 14,
          "midi": 55,
          "name": "G3",
          "ticks": 29666,
          "time": 123.60833333333333,
          "velocity": 0.2204724409448819
        },
        {
          "duration": 0.20000000000000284,
          "durationTicks": 48,
          "midi": 62,
          "name": "D4",
          "ticks": 29697,
          "time": 123.7375,
          "velocity": 0.4566929133858268
        },
        {
          "duration": 0.037499999999994316,
          "durationTicks": 9,
          "midi": 81,
          "name": "A5",
          "ticks": 29822,
          "time": 124.25833333333334,
          "velocity": 0.3464566929133858
        },
        {
          "duration": 0.10000000000000853,
          "durationTicks": 24,
          "midi": 93,
          "name": "A6",
          "ticks": 29836,
          "time": 124.31666666666666,
          "velocity": 0.2440944881889764
        },
        {
          "duration": 0.07916666666666572,
          "durationTicks": 19,
          "midi": 84,
          "name": "C6",
          "ticks": 29887,
          "time": 124.52916666666667,
          "velocity": 0.10236220472440945
        },
        {
          "duration": 0.09166666666666856,
          "durationTicks": 22,
          "midi": 84,
          "name": "C6",
          "ticks": 29949,
          "time": 124.7875,
          "velocity": 0.5590551181102362
        },
        {
          "duration": 0.07083333333333997,
          "durationTicks": 17,
          "midi": 83,
          "name": "B5",
          "ticks": 29985,
          "time": 124.9375,
          "velocity": 0.3543307086614173
        },
        {
          "duration": 0.09999999999999432,
          "durationTicks": 24,
          "midi": 71,
          "name": "B4",
          "ticks": 30055,
          "time": 125.22916666666667,
          "velocity": 0.2677165354330709
        },
        {
          "duration": 0.10833333333333428,
          "durationTicks": 26,
          "midi": 69,
          "name": "A4",
          "ticks": 30086,
          "time": 125.35833333333333,
          "velocity": 0.5039370078740157
        },
        {
          "duration": 0.08750000000000568,
          "durationTicks": 21,
          "midi": 83,
          "name": "B5",
          "ticks": 30151,
          "time": 125.62916666666666,
          "velocity": 0.11811023622047244
        },
        {
          "duration": 0.07083333333332575,
          "durationTicks": 17,
          "midi": 59,
          "name": "B3",
          "ticks": 30167,
          "time": 125.69583333333334,
          "velocity": 0.11023622047244094
        },
        {
          "duration": 0.15000000000000568,
          "durationTicks": 36,
          "midi": 43,
          "name": "G2",
          "ticks": 30184,
          "time": 125.76666666666667,
          "velocity": 0.49606299212598426
        },
        {
          "duration": 0.1291666666666771,
          "durationTicks": 31,
          "midi": 69,
          "name": "A4",
          "ticks": 30249,
          "time": 126.0375,
          "velocity": 0.5275590551181102
        },
        {
          "duration": 0.05833333333333712,
          "durationTicks": 14,
          "midi": 79,
          "name": "G5",
          "ticks": 30345,
          "time": 126.4375,
          "velocity": 0.2677165354330709
        },
        {
          "duration": 0.13750000000000284,
          "durationTicks": 33,
          "midi": 67,
          "name": "G4",
          "ticks": 30350,
          "time": 126.45833333333333,
          "velocity": 0.5196850393700787
        },
        {
          "duration": 0.041666666666671404,
          "durationTicks": 10,
          "midi": 32,
          "name": "G#1",
          "ticks": 30412,
          "time": 126.71666666666667,
          "velocity": 0.2677165354330709
        },
        {
          "duration": 0.11249999999999716,
          "durationTicks": 27,
          "midi": 57,
          "name": "A3",
          "ticks": 30419,
          "time": 126.74583333333334,
          "velocity": 0.25984251968503935
        },
        {
          "duration": 0.20000000000000284,
          "durationTicks": 48,
          "midi": 57,
          "name": "A3",
          "ticks": 30451,
          "time": 126.87916666666666,
          "velocity": 0.5196850393700787
        },
        {
          "duration": 0.09999999999999432,
          "durationTicks": 24,
          "midi": 71,
          "name": "B4",
          "ticks": 30479,
          "time": 126.99583333333334,
          "velocity": 0.48031496062992124
        },
        {
          "duration": 0.21666666666666856,
          "durationTicks": 52,
          "midi": 45,
          "name": "A2",
          "ticks": 30535,
          "time": 127.22916666666667,
          "velocity": 0.2992125984251969
        },
        {
          "duration": 0.04166666666665719,
          "durationTicks": 10,
          "midi": 98,
          "name": "D7",
          "ticks": 30621,
          "time": 127.5875,
          "velocity": 0.31496062992125984
        },
        {
          "duration": 0.13333333333332575,
          "durationTicks": 32,
          "midi": 100,
          "name": "E7",
          "ticks": 30671,
          "time": 127.79583333333333,
          "velocity": 0.16535433070866143
        },
        {
          "duration": 0.09999999999999432,
          "durationTicks": 24,
          "midi": 83,
          "name": "B5",
          "ticks": 30712,
          "time": 127.96666666666667,
          "velocity": 0.31496062992125984
        },
        {
          "duration": 0.09166666666666856,
          "durationTicks": 22,
          "midi": 86,
          "name": "D6",
          "ticks": 30743,
          "time": 128.09583333333333,
          "velocity": 0.3858267716535433
        },
        {
          "duration": 0.06666666666666288,
          "durationTicks": 16,
          "midi": 76,
          "name": "E5",
          "ticks": 30811,
          "time": 128.37916666666666,
          "velocity": 0.1968503937007874
        },
        {
          "duration": 0.07916666666667993,
          "durationTicks": 19,
          "midi": 51,
          "name": "D#3",
          "ticks": 30842,
          "time": 128.50833333333333,
          "velocity": 0.28346456692913385
        },
        {
          "duration": 0.21666666666666856,
          "durationTicks": 52,
          "midi": 83,
          "name": "B5",
          "ticks": 30871,
          "time": 128.62916666666666,
          "velocity": 0.3937007874015748
        },
        {
          "duration": 0.07083333333335418,
          "durationTicks": 17,
          "midi": 76,
          "name": "E5",
          "ticks": 30926,
          "time": 128.85833333333332,
          "velocity": 0.33070866141732286
        },
        {
          "duration": 0.09999999999999432,
          "durationTicks": 24,
          "midi": 57,
          "name": "A3",
          "ticks": 31003,
          "time": 129.17916666666667,
          "velocity": 0.2992125984251969
        },
        {
          "duration": 0.09166666666666856,
          "durationTicks": 22,
          "midi": 57,
          "name": "A3",
          "ticks": 31036,
          "time": 129.31666666666666,
          "velocity": 0.3937007874015748
        },
        {
          "duration": 0.20833333333331439,
          "durationTicks": 50,
          "midi": 57,
          "name": "A3",
          "ticks": 31137,
          "time": 129.7375,
          "velocity": 0.29133858267716534
        },
        {
          "duration": 0.07083333333332575,
          "durationTicks": 17,
          "midi": 81,
          "name": "A5",
          "ticks": 31204,
          "time": 130.01666666666668,
          "velocity": 0.11023622047244094
        },
        {
          "duration": 0.15000000000000568,
          "durationTicks": 36,
          "midi": 88,
          "name": "E6",
          "ticks": 31223,
          "time": 130.09583333333333,
          "velocity": 0.3779527559055118
        },
        {
          "duration": 0.16249999999999432,
          "durationTicks": 39,
          "midi": 74,
          "name": "D5",
          "ticks": 31259,
          "time": 130.24583333333334,
          "velocity": 0.3543307086614173
        },
        {
          "duration": 0.14166666666667993,
          "durationTicks": 34,
          "midi": 64,
          "name": "E4",
          "ticks": 31329,
          "time": 130.5375,
          "velocity": 0.2283464566929134
        },
        {
          "duration": 0.10000000000002274,
          "durationTicks": 24,
          "midi": 74,
          "name": "D5",
          "ticks": 31360,
          "time": 130.66666666666666,
          "velocity": 0.15748031496062992
        },
        {
          "duration": 0.06666666666666288,
          "durationTicks": 16,
          "midi": 88,
          "name": "E6",
          "ticks": 31387,
          "time": 130.77916666666667,
          "velocity": 0.2440944881889764
        },
        {
          "duration": 0.12083333333333712,
          "durationTicks": 29,
          "midi": 57,
          "name": "A3",
          "ticks": 31420,
          "time": 130.91666666666666,
          "velocity": 0.2204724409448819
        },
        {
          "duration": 0.12083333333333712,
          "durationTicks": 29,
          "midi": 67,
          "name": "G4",
          "ticks": 31468,
          "time": 131.11666666666667,
          "velocity": 0.12598425196850394
        },
        {
          "duration": 0.07916666666667993,
          "durationTicks": 19,
          "midi": 76,
          "name": "E5",
          "ticks": 31531,
          "time": 131.37916666666666,
          "velocity": 0.14960629921259844
        },
        {
          "duration": 0.15833333333333144,
          "durationTicks": 38,
          "midi": 71,
          "name": "B4",
          "ticks": 31557,
          "time": 131.4875,
          "velocity": 0.5275590551181102
        },
        {
          "duration": 0.1916666666666913,
          "durationTicks": 46,
          "midi": 76,
          "name": "E5",
          "ticks": 31653,
          "time": 131.8875,
          "velocity": 0.41732283464566927
        },
        {
          "duration": 0.041666666666685614,
          "durationTicks": 10,
          "midi": 88,
          "name": "E6",
          "ticks": 31713,
          "time": 132.1375,
          "velocity": 0.2440944881889764
        },
        {
          "duration": 0.15000000000000568,
          "durationTicks": 36,
          "midi": 88,
          "name": "E6",
          "ticks": 31747,
          "time": 132.27916666666667,
          "velocity": 0.4330708661417323
        },
        {
          "duration": 0.15000000000000568,
          "durationTicks": 36,
          "midi": 74,
          "name": "D5",
          "ticks": 31783,
          "time": 132.42916666666667,
          "velocity": 0.4015748031496063
        },
        {
          "duration": 0.07083333333332575,
          "durationTicks": 17,
          "midi": 79,
          "name": "G5",
          "ticks": 31898,
          "time": 132.90833333333333,
          "velocity": 0.3464566929133858
        },
        {
          "duration": 0.2916666666666572,
          "durationTicks": 70,
          "midi": 84,
          "name": "C6",
          "ticks": 31977,
          "time": 133.2375,
          "velocity": 0.4409448818897638
        },
        {
          "duration": 0.24166666666667425,
          "durationTicks": 58,
          "midi": 41,
          "name": "F2",
          "ticks": 32020,
          "time": 133.41666666666666,
          "velocity": 0.5196850393700787
        },
        {
          "duration": 0.1416666666666515,
          "durationTicks": 34,
          "midi": 83,
          "name": "B5",
          "ticks": 32075,
          "time": 133.64583333333334,
          "velocity": 0.5669291338582677
        },
        {
          "duration": 0.08750000000000568,
          "durationTicks": 21,
          "midi": 57,
          "name": "A3",
          "ticks": 32083,
          "time": 133.67916666666667,
          "velocity": 0.3700787401574803
        },
        {
          "duration": 0.23749999999998295,
          "durationTicks": 57,
          "midi": 31,
          "name": "G1",
          "ticks": 32174,
          "time": 134.05833333333334,
          "velocity": 0.2992125984251969
        },
        {
          "duration": 0.09999999999999432,
          "durationTicks": 24,
          "midi": 60,
          "name": "C4",
          "ticks": 32179,
          "time": 134.07916666666668,
          "velocity": 0.2755905511811024
        },
        {
          "duration": 0.05833333333333712,
          "durationTicks": 14,
          "midi": 79,
          "name": "G5",
          "ticks": 32234,
          "time": 134.30833333333334,
          "velocity": 0.12598425196850394
        },
        {
          "duration": 0.12916666666666288,
          "durationTicks": 31,
          "midi": 79,
          "name": "G5",
          "ticks": 32272,
          "time": 134.46666666666667,
          "velocity": 0.3543307086614173
        },
        {
          "duration": 0.05833333333333712,
          "durationTicks": 14,
          "midi": 76,
          "name": "E5",
          "ticks": 32275,
          "time": 134.47916666666666,
          "velocity": 0.3464566929133858
        },
        {
          "duration": 0.18333333333333712,
          "durationTicks": 44,
          "midi": 74,
          "name": "D5",
          "ticks": 32375,
          "time": 134.89583333333334,
          "velocity": 0.4015748031496063
        },
        {
          "duration": 0.1875,
          "durationTicks": 45,
          "midi": 41,
          "name": "F2",
          "ticks": 32414,
          "time": 135.05833333333334,
          "velocity": 0.4881889763779528
        },
        {
          "duration": 0.03750000000002274,
          "durationTicks": 9,
          "midi": 72,
          "name": "C5",
          "ticks": 32486,
          "time": 135.35833333333332,
          "velocity": 0.16535433070866143
        },
        {
          "duration": 0.07916666666667993,
          "durationTicks": 19,
          "midi": 88,
          "name": "E6",
          "ticks": 32500,
          "time": 135.41666666666666,
          "velocity": 0.2047244094488189
        },
        {
          "duration": 0.10000000000002274,
          "durationTicks": 24,
          "midi": 86,
          "name": "D6",
          "ticks": 32546,
          "time": 135.60833333333332,
          "velocity": 0.25196850393700787
        },
        {
          "duration": 0.04166666666665719,
          "durationTicks": 10,
          "midi": 64,
          "name": "E4",
          "ticks": 32685,
          "time": 136.1875,
          "velocity": 0.08661417322834646
        },
        {
          "duration": 0.10833333333334849,
          "durationTicks": 26,
          "midi": 76,
          "name": "E5",
          "ticks": 32702,
          "time": 136.25833333333333,
          "velocity": 0.3464566929133858
        },
        {
          "duration": 0.07916666666667993,
          "durationTicks": 19,
          "midi": 55,
          "name": "G3",
          "ticks": 32740,
          "time": 136.41666666666666,
          "velocity": 0.4094488188976378
        },
        {
          "duration": 0.12916666666666288,
          "durationTicks": 31,
          "midi": 76,
          "name": "E5",
          "ticks": 32798,
          "time": 136.65833333333333,
          "velocity": 0.4566929133858268
        },
        {
          "duration": 0.08333333333334281,
          "durationTicks": 20,
          "midi": 59,
          "name": "B3",
          "ticks": 32807,
          "time": 136.69583333333333,
          "velocity": 0.1968503937007874
        },
        {
          "duration": 0.05000000000001137,
          "durationTicks": 12,
          "midi": 86,
          "name": "D6",
          "ticks": 32827,
          "time": 136.77916666666667,
          "velocity": 0.2283464566929134
        },
        {
          "duration": 0.17916666666667425,
          "durationTicks": 43,
          "midi": 72,
          "name": "C5",
          "ticks": 32896,
          "time": 137.06666666666666,
          "velocity": 0.41732283464566927
        },
        {
          "duration": 0.06666666666666288,
          "durationTicks": 16,
          "midi": 59,
          "name": "B3",
          "ticks": 32911,
          "time": 137.12916666666666,
          "velocity": 0.1889763779527559
        },
        {
          "duration": 0.12083333333333712,
          "durationTicks": 29,
          "midi": 71,
          "name": "B4",
          "ticks": 32963,
          "time": 137.34583333333333,
          "velocity": 0.4409448818897638
        },
        {
          "duration": 0.08333333333334281,
          "durationTicks": 20,
          "midi": 88,
          "name": "E6",
          "ticks": 33023,
          "time": 137.59583333333333,
          "velocity": 0.25984251968503935
        },
        {
          "duration": 0.037499999999994316,
          "durationTicks": 9,
          "midi": 81,
          "name": "A5",
          "ticks": 33122,
          "time": 138.00833333333333,
          "velocity": 0.30708661417322836
        },
        {
          "duration": 0.1708333333333485,
          "durationTicks": 41,
          "midi": 31,
          "name": "G1",
          "ticks": 33218,
          "time": 138.40833333333333,
          "velocity": 0.2992125984251969
        },
        {
          "duration": 0.27916666666666856,
          "durationTicks": 67,
          "midi": 76,
          "name": "E5",
          "ticks": 33290,
          "time": 138.70833333333334,
          "velocity": 0.4330708661417323
        },
        {
          "duration": 0.08750000000000568,
          "durationTicks": 21,
          "midi": 88,
          "name": "E6",
          "ticks": 33482,
          "time": 139.50833333333333,
          "velocity": 0.29133858267716534
        },
        {
          "duration": 0.23749999999998295,
          "durationTicks": 57,
          "midi": 76,
          "name": "E5",
          "ticks": 33554,
          "time": 139.80833333333334,
          "velocity": 0.4094488188976378
        },
        {
          "duration": 0.15000000000000568,
          "durationTicks": 36,
          "midi": 71,
          "name": "B4",
          "ticks": 33652,
          "time": 140.21666666666667,
          "velocity": 0.5275590551181102
        },
        {
          "duration": 0.04166666666665719,
          "durationTicks": 10,
          "midi": 83,
          "name": "B5",
          "ticks": 33688,
          "time": 140.36666666666667,
          "velocity": 0.14960629921259844
        },
        {
          "duration": 0.26249999999998863,
          "durationTicks": 63,
          "midi": 31,
          "name": "G1",
          "ticks": 33743,
          "time": 140.59583333333333,
          "velocity": 0.36220472440944884
        },
        {
          "duration": 0.0625,
          "durationTicks": 15,
          "midi": 88,
          "name": "E6",
          "ticks": 33808,
          "time": 140.86666666666667,
          "velocity": 0.4330708661417323
        },
        {
          "duration": 0.07083333333332575,
          "durationTicks": 17,
          "midi": 88,
          "name": "E6",
          "ticks": 33854,
          "time": 141.05833333333334,
          "velocity": 0.36220472440944884
        },
        {
          "duration": 0.2874999999999943,
          "durationTicks": 69,
          "midi": 31,
          "name": "G1",
          "ticks": 33871,
          "time": 141.12916666666666,
          "velocity": 0.4094488188976378
        },
        {
          "duration": 0.09999999999999432,
          "durationTicks": 24,
          "midi": 91,
          "name": "G6",
          "ticks": 33938,
          "time": 141.40833333333333,
          "velocity": 0.3464566929133858
        },
        {
          "duration": 0.10000000000002274,
          "durationTicks": 24,
          "midi": 67,
          "name": "G4",
          "ticks": 33955,
          "time": 141.47916666666666,
          "velocity": 0.15748031496062992
        },
        {
          "duration": 0.23749999999998295,
          "durationTicks": 57,
          "midi": 31,
          "name": "G1",
          "ticks": 34003,
          "time": 141.67916666666667,
          "velocity": 0.2204724409448819
        },
        {
          "duration": 0.19166666666666288,
          "durationTicks": 46,
          "midi": 81,
          "name": "A5",
          "ticks": 34029,
          "time": 141.7875,
          "velocity": 0.2992125984251969
        },
        {
          "duration": 0.27916666666666856,
          "durationTicks": 67,
          "midi": 84,
          "name": "C6",
          "ticks": 34075,
          "time": 141.97916666666666,
          "velocity": 0.4251968503937008
        },
        {
          "duration": 0.04999999999998295,
          "durationTicks": 12,
          "midi": 84,
          "name": "C6",
          "ticks": 34154,
          "time": 142.30833333333334,
          "velocity": 0.36220472440944884
        },
        {
          "duration": 0.05833333333333712,
          "durationTicks": 14,
          "midi": 72,
          "name": "C5",
          "ticks": 34183,
          "time": 142.42916666666667,
          "velocity": 0.33070866141732286
        },
        {
          "duration": 0.05000000000001137,
          "durationTicks": 12,
          "midi": 96,
          "name": "C7",
          "ticks": 34245,
          "time": 142.6875,
          "velocity": 0.18110236220472442
        },
        {
          "duration": 0.3083333333333371,
          "durationTicks": 74,
          "midi": 83,
          "name": "B5",
          "ticks": 34334,
          "time": 143.05833333333334,
          "velocity": 0.4251968503937008
        },
        {
          "duration": 0.09999999999999432,
          "durationTicks": 24,
          "midi": 67,
          "name": "G4",
          "ticks": 34348,
          "time": 143.11666666666667,
          "velocity": 0.09448818897637795
        },
        {
          "duration": 0.037499999999994316,
          "durationTicks": 9,
          "midi": 71,
          "name": "B4",
          "ticks": 34411,
          "time": 143.37916666666666,
          "velocity": 0.1968503937007874
        },
        {
          "duration": 0.1666666666666572,
          "durationTicks": 40,
          "midi": 81,
          "name": "A5",
          "ticks": 34423,
          "time": 143.42916666666667,
          "velocity": 0.5039370078740157
        },
        {
          "duration": 0.21250000000000568,
          "durationTicks": 51,
          "midi": 81,
          "name": "A5",
          "ticks": 34487,
          "time": 143.69583333333333,
          "velocity": 0.36220472440944884
        },
        {
          "duration": 0.04999999999998295,
          "durationTicks": 12,
          "midi": 83,
          "name": "B5",
          "ticks": 34514,
          "time": 143.80833333333334,
          "velocity": 0.2047244094488189
        },
        {
          "duration": 0.09166666666666856,
          "durationTicks": 22,
          "midi": 81,
          "name": "A5",
          "ticks": 34588,
          "time": 144.11666666666667,
          "velocity": 0.4645669291338583
        },
        {
          "duration": 0.16249999999999432,
          "durationTicks": 39,
          "midi": 81,
          "name": "A5",
          "ticks": 34619,
          "time": 144.24583333333334,
          "velocity": 0.3779527559055118
        },
        {
          "duration": 0.17916666666664582,
          "durationTicks": 43,
          "midi": 83,
          "name": "B5",
          "ticks": 34663,
          "time": 144.42916666666667,
          "velocity": 0.48031496062992124
        },
        {
          "duration": 0.12916666666666288,
          "durationTicks": 31,
          "midi": 72,
          "name": "C5",
          "ticks": 34699,
          "time": 144.57916666666668,
          "velocity": 0.25196850393700787
        },
        {
          "duration": 0.09999999999999432,
          "durationTicks": 24,
          "midi": 98,
          "name": "D7",
          "ticks": 34816,
          "time": 145.06666666666666,
          "velocity": 0.29133858267716534
        },
        {
          "duration": 0.2291666666666572,
          "durationTicks": 55,
          "midi": 33,
          "name": "A1",
          "ticks": 34838,
          "time": 145.15833333333333,
          "velocity": 0.5039370078740157
        },
        {
          "duration": 0.09166666666666856,
          "durationTicks": 22,
          "midi": 100,
          "name": "E7",
          "ticks": 34871,
          "time": 145.29583333333332,
          "velocity": 0.44881889763779526
        },
        {
          "duration": 0.1291666666666913,
          "durationTicks": 31,
          "midi": 98,
          "name": "D7",
          "ticks": 34946,
          "time": 145.60833333333332,
          "velocity": 0.2677165354330709
        },
        {
          "duration": 0.04166666666665719,
          "durationTicks": 10,
          "midi": 30,
          "name": "F#1",
          "ticks": 35008,
          "time": 145.86666666666667,
          "velocity": 0.36220472440944884
        },
        {
          "duration": 0.15833333333333144,
          "durationTicks": 38,
          "midi": 83,
          "name": "B5",
          "ticks": 35054,
          "time": 146.05833333333334,
          "velocity": 0.5039370078740157
        },
        {
          "duration": 0.0625,
          "durationTicks": 15,
          "midi": 100,
          "name": "E7",
          "ticks": 35116,
          "time": 146.31666666666666,
          "velocity": 0.14173228346456693
        },
        {
          "duration": 0.10833333333334849,
          "durationTicks": 26,
          "midi": 96,
          "name": "C7",
          "ticks": 35162,
          "time": 146.50833333333333,
          "velocity": 0.18110236220472442
        },
        {
          "duration": 0.27916666666666856,
          "durationTicks": 67,
          "midi": 41,
          "name": "F2",
          "ticks": 35666,
          "time": 148.60833333333332,
          "velocity": 0.4645669291338583
        },
        {
          "duration": 0.09999999999999432,
          "durationTicks": 24,
          "midi": 41,
          "name": "F2",
          "ticks": 35769,
          "time": 149.0375,
          "velocity": 0.33070866141732286
        },
        {
          "duration": 0.15833333333333144,
          "durationTicks": 38,
          "midi": 41,
          "name": "F2",
          "ticks": 35865,
          "time": 149.4375,
          "velocity": 0.31496062992125984
        },
        {
          "duration": 0.19999999999998863,
          "durationTicks": 48,
          "midi": 43,
          "name": "G2",
          "ticks": 35925,
          "time": 149.6875,
          "velocity": 0.5118110236220472
        },
        {
          "duration": 0.11250000000001137,
          "durationTicks": 27,
          "midi": 59,
          "name": "B3",
          "ticks": 36011,
          "time": 150.04583333333332,
          "velocity": 0.31496062992125984
        },
        {
          "duration": 0.1875,
          "durationTicks": 45,
          "midi": 55,
          "name": "G3",
          "ticks": 36122,
          "time": 150.50833333333333,
          "velocity": 0.3779527559055118
        },
        {
          "duration": 0.05000000000001137,
          "durationTicks": 12,
          "midi": 44,
          "name": "G#2",
          "ticks": 36167,
          "time": 150.69583333333333,
          "velocity": 0.1968503937007874
        },
        {
          "duration": 0.17083333333332007,
          "durationTicks": 41,
          "midi": 60,
          "name": "C4",
          "ticks": 36177,
          "time": 150.7375,
          "velocity": 0.3779527559055118
        },
        {
          "duration": 0.2708333333333428,
          "durationTicks": 65,
          "midi": 55,
          "name": "G3",
          "ticks": 36280,
          "time": 151.16666666666666,
          "velocity": 0.4094488188976378
        },
        {
          "duration": 0.04166666666665719,
          "durationTicks": 10,
          "midi": 52,
          "name": "E3",
          "ticks": 36405,
          "time": 151.6875,
          "velocity": 0.3228346456692913
        },
        {
          "duration": 0.23749999999998295,
          "durationTicks": 57,
          "midi": 64,
          "name": "E4",
          "ticks": 36439,
          "time": 151.82916666666668,
          "velocity": 0.3700787401574803
        },
        {
          "duration": 0.47083333333333144,
          "durationTicks": 113,
          "midi": 45,
          "name": "A2",
          "ticks": 36515,
          "time": 152.14583333333334,
          "velocity": 0.44881889763779526
        },
        {
          "duration": 0.17916666666667425,
          "durationTicks": 43,
          "midi": 45,
          "name": "A2",
          "ticks": 36645,
          "time": 152.6875,
          "velocity": 0.33858267716535434
        },
        {
          "duration": 0.06666666666666288,
          "durationTicks": 16,
          "midi": 60,
          "name": "C4",
          "ticks": 36703,
          "time": 152.92916666666667,
          "velocity": 0.3937007874015748
        },
        {
          "duration": 0.1416666666666515,
          "durationTicks": 34,
          "midi": 76,
          "name": "E5",
          "ticks": 36959,
          "time": 153.99583333333334,
          "velocity": 0.5039370078740157
        },
        {
          "duration": 0.07916666666667993,
          "durationTicks": 19,
          "midi": 55,
          "name": "G3",
          "ticks": 37029,
          "time": 154.2875,
          "velocity": 0.2677165354330709
        },
        {
          "duration": 0.2708333333333428,
          "durationTicks": 65,
          "midi": 78,
          "name": "F#5",
          "ticks": 37082,
          "time": 154.50833333333333,
          "velocity": 0.6377952755905512
        },
        {
          "duration": 0.2291666666666572,
          "durationTicks": 55,
          "midi": 59,
          "name": "B3",
          "ticks": 37096,
          "time": 154.56666666666666,
          "velocity": 0.6299212598425197
        },
        {
          "duration": 0.07083333333335418,
          "durationTicks": 17,
          "midi": 79,
          "name": "G5",
          "ticks": 37151,
          "time": 154.79583333333332,
          "velocity": 0.49606299212598426
        },
        {
          "duration": 0.3291666666666515,
          "durationTicks": 79,
          "midi": 79,
          "name": "G5",
          "ticks": 37228,
          "time": 155.11666666666667,
          "velocity": 0.5354330708661418
        },
        {
          "duration": 0.42916666666667425,
          "durationTicks": 103,
          "midi": 55,
          "name": "G3",
          "ticks": 37420,
          "time": 155.91666666666666,
          "velocity": 0.33858267716535434
        },
        {
          "duration": 0.13749999999998863,
          "durationTicks": 33,
          "midi": 64,
          "name": "E4",
          "ticks": 37490,
          "time": 156.20833333333334,
          "velocity": 0.33070866141732286
        },
        {
          "duration": 0.05833333333333712,
          "durationTicks": 14,
          "midi": 83,
          "name": "B5",
          "ticks": 37581,
          "time": 156.5875,
          "velocity": 0.25196850393700787
        },
        {
          "duration": 0.1708333333333485,
          "durationTicks": 41,
          "midi": 57,
          "name": "A3",
          "ticks": 37629,
          "time": 156.7875,
          "velocity": 0.4251968503937008
        },
        {
          "duration": 0.14166666666667993,
          "durationTicks": 34,
          "midi": 60,
          "name": "C4",
          "ticks": 37749,
          "time": 157.2875,
          "velocity": 0.5196850393700787
        },
        {
          "duration": 0.3083333333333371,
          "durationTicks": 74,
          "midi": 41,
          "name": "F2",
          "ticks": 37862,
          "time": 157.75833333333333,
          "velocity": 0.41732283464566927
        },
        {
          "duration": 0.06666666666666288,
          "durationTicks": 16,
          "midi": 55,
          "name": "G3",
          "ticks": 37915,
          "time": 157.97916666666666,
          "velocity": 0.33070866141732286
        },
        {
          "duration": 0.17916666666667425,
          "durationTicks": 43,
          "midi": 41,
          "name": "F2",
          "ticks": 37958,
          "time": 158.15833333333333,
          "velocity": 0.33070866141732286
        },
        {
          "duration": 0.15000000000000568,
          "durationTicks": 36,
          "midi": 78,
          "name": "F#5",
          "ticks": 38008,
          "time": 158.36666666666667,
          "velocity": 0.5590551181102362
        },
        {
          "duration": 0.09999999999999432,
          "durationTicks": 24,
          "midi": 62,
          "name": "D4",
          "ticks": 38061,
          "time": 158.5875,
          "velocity": 0.08661417322834646
        },
        {
          "duration": 0.5791666666666515,
          "durationTicks": 139,
          "midi": 43,
          "name": "G2",
          "ticks": 38119,
          "time": 158.82916666666668,
          "velocity": 0.2677165354330709
        },
        {
          "duration": 0.12083333333333712,
          "durationTicks": 29,
          "midi": 64,
          "name": "E4",
          "ticks": 38265,
          "time": 159.4375,
          "velocity": 0.5511811023622047
        },
        {
          "duration": 0.09166666666666856,
          "durationTicks": 22,
          "midi": 64,
          "name": "E4",
          "ticks": 38363,
          "time": 159.84583333333333,
          "velocity": 0.3700787401574803
        },
        {
          "duration": 0.04999999999998295,
          "durationTicks": 12,
          "midi": 81,
          "name": "A5",
          "ticks": 38555,
          "time": 160.64583333333334,
          "velocity": 0.3858267716535433
        },
        {
          "duration": 0.07083333333332575,
          "durationTicks": 17,
          "midi": 64,
          "name": "E4",
          "ticks": 38594,
          "time": 160.80833333333334,
          "velocity": 0.2440944881889764
        },
        {
          "duration": 0.19166666666666288,
          "durationTicks": 46,
          "midi": 55,
          "name": "G3",
          "ticks": 38601,
          "time": 160.8375,
          "velocity": 0.2755905511811024
        },
        {
          "duration": 0.07083333333332575,
          "durationTicks": 17,
          "midi": 84,
          "name": "C6",
          "ticks": 38649,
          "time": 161.0375,
          "velocity": 0.3779527559055118
        },
        {
          "duration": 0.15833333333335986,
          "durationTicks": 38,
          "midi": 64,
          "name": "E4",
          "ticks": 38666,
          "time": 161.10833333333332,
          "velocity": 0.3464566929133858
        },
        {
          "duration": 0.09166666666666856,
          "durationTicks": 22,
          "midi": 64,
          "name": "E4",
          "ticks": 38716,
          "time": 161.31666666666666,
          "velocity": 0.4094488188976378
        },
        {
          "duration": 0.20833333333331439,
          "durationTicks": 50,
          "midi": 45,
          "name": "A2",
          "ticks": 38743,
          "time": 161.42916666666667,
          "velocity": 0.30708661417322836
        },
        {
          "duration": 0.09166666666666856,
          "durationTicks": 22,
          "midi": 60,
          "name": "C4",
          "ticks": 38759,
          "time": 161.49583333333334,
          "velocity": 0.2204724409448819
        },
        {
          "duration": 0.07083333333335418,
          "durationTicks": 17,
          "midi": 50,
          "name": "D3",
          "ticks": 38807,
          "time": 161.69583333333333,
          "velocity": 0.2125984251968504
        },
        {
          "duration": 0.07916666666665151,
          "durationTicks": 19,
          "midi": 60,
          "name": "C4",
          "ticks": 38841,
          "time": 161.8375,
          "velocity": 0.2755905511811024
        },
        {
          "duration": 0.04166666666665719,
          "durationTicks": 10,
          "midi": 53,
          "name": "F3",
          "ticks": 38896,
          "time": 162.06666666666666,
          "velocity": 0.2047244094488189
        },
        {
          "duration": 0.32916666666667993,
          "durationTicks": 79,
          "midi": 38,
          "name": "D2",
          "ticks": 38906,
          "time": 162.10833333333332,
          "velocity": 0.13385826771653545
        },
        {
          "duration": 0.04999999999998295,
          "durationTicks": 12,
          "midi": 69,
          "name": "A4",
          "ticks": 38968,
          "time": 162.36666666666667,
          "velocity": 0.11811023622047244
        },
        {
          "duration": 0.12083333333333712,
          "durationTicks": 29,
          "midi": 53,
          "name": "F3",
          "ticks": 38999,
          "time": 162.49583333333334,
          "velocity": 0.25984251968503935
        },
        {
          "duration": 0.19999999999998863,
          "durationTicks": 48,
          "midi": 62,
          "name": "D4",
          "ticks": 39052,
          "time": 162.71666666666667,
          "velocity": 0.5039370078740157
        },
        {
          "duration": 0.09166666666666856,
          "durationTicks": 22,
          "midi": 76,
          "name": "E5",
          "ticks": 39249,
          "time": 163.5375,
          "velocity": 0.48031496062992124
        },
        {
          "duration": 0.45000000000001705,
          "durationTicks": 108,
          "midi": 64,
          "name": "E4",
          "ticks": 39316,
          "time": 163.81666666666666,
          "velocity": 0.4566929133858268
        },
        {
          "duration": 0.42916666666667425,
          "durationTicks": 103,
          "midi": 52,
          "name": "E3",
          "ticks": 39525,
          "time": 164.6875,
          "velocity": 0.3937007874015748
        },
        {
          "duration": 0.8999999999999773,
          "durationTicks": 216,
          "midi": 45,
          "name": "A2",
          "ticks": 39619,
          "time": 165.07916666666668,
          "velocity": 0.6220472440944882
        },
        {
          "duration": 0.07916666666665151,
          "durationTicks": 19,
          "midi": 59,
          "name": "B3",
          "ticks": 39808,
          "time": 165.86666666666667,
          "velocity": 0.36220472440944884
        },
        {
          "duration": 0.05833333333333712,
          "durationTicks": 14,
          "midi": 41,
          "name": "F2",
          "ticks": 39861,
          "time": 166.0875,
          "velocity": 0.5196850393700787
        },
        {
          "duration": 0.1875,
          "durationTicks": 45,
          "midi": 29,
          "name": "F1",
          "ticks": 39938,
          "time": 166.40833333333333,
          "velocity": 0.5118110236220472
        },
        {
          "duration": 0.037499999999994316,
          "durationTicks": 9,
          "midi": 28,
          "name": "E1",
          "ticks": 39991,
          "time": 166.62916666666666,
          "velocity": 0.3543307086614173
        },
        {
          "duration": 0.04166666666665719,
          "durationTicks": 10,
          "midi": 31,
          "name": "G1",
          "ticks": 40024,
          "time": 166.76666666666668,
          "velocity": 0.30708661417322836
        },
        {
          "duration": 0.19166666666666288,
          "durationTicks": 46,
          "midi": 29,
          "name": "F1",
          "ticks": 40067,
          "time": 166.94583333333333,
          "velocity": 0.5748031496062992
        },
        {
          "duration": 0.40833333333333144,
          "durationTicks": 98,
          "midi": 31,
          "name": "G1",
          "ticks": 40149,
          "time": 167.2875,
          "velocity": 0.6692913385826772
        },
        {
          "duration": 0.17916666666667425,
          "durationTicks": 43,
          "midi": 43,
          "name": "G2",
          "ticks": 40315,
          "time": 167.97916666666666,
          "velocity": 0.5984251968503937
        },
        {
          "duration": 0.2916666666666572,
          "durationTicks": 70,
          "midi": 55,
          "name": "G3",
          "ticks": 40379,
          "time": 168.24583333333334,
          "velocity": 0.4330708661417323
        },
        {
          "duration": 0.10000000000002274,
          "durationTicks": 24,
          "midi": 57,
          "name": "A3",
          "ticks": 40466,
          "time": 168.60833333333332,
          "velocity": 0.41732283464566927
        },
        {
          "duration": 0.07083333333332575,
          "durationTicks": 17,
          "midi": 57,
          "name": "A3",
          "ticks": 40538,
          "time": 168.90833333333333,
          "velocity": 0.2440944881889764
        },
        {
          "duration": 0.12083333333333712,
          "durationTicks": 29,
          "midi": 64,
          "name": "E4",
          "ticks": 40559,
          "time": 168.99583333333334,
          "velocity": 0.44881889763779526
        },
        {
          "duration": 0.09166666666666856,
          "durationTicks": 22,
          "midi": 55,
          "name": "G3",
          "ticks": 40593,
          "time": 169.1375,
          "velocity": 0.30708661417322836
        },
        {
          "duration": 0.12083333333333712,
          "durationTicks": 29,
          "midi": 79,
          "name": "G5",
          "ticks": 40653,
          "time": 169.3875,
          "velocity": 0.33858267716535434
        },
        {
          "duration": 0.09166666666666856,
          "durationTicks": 22,
          "midi": 34,
          "name": "A#1",
          "ticks": 40691,
          "time": 169.54583333333332,
          "velocity": 0.3779527559055118
        },
        {
          "duration": 0.07083333333332575,
          "durationTicks": 17,
          "midi": 45,
          "name": "A2",
          "ticks": 40708,
          "time": 169.61666666666667,
          "velocity": 0.4251968503937008
        },
        {
          "duration": 0.07916666666667993,
          "durationTicks": 19,
          "midi": 98,
          "name": "D7",
          "ticks": 40816,
          "time": 170.06666666666666,
          "velocity": 0.5669291338582677
        },
        {
          "duration": 0.17916666666667425,
          "durationTicks": 43,
          "midi": 33,
          "name": "A1",
          "ticks": 40852,
          "time": 170.21666666666667,
          "velocity": 0.5590551181102362
        },
        {
          "duration": 0.10833333333334849,
          "durationTicks": 26,
          "midi": 74,
          "name": "D5",
          "ticks": 40891,
          "time": 170.37916666666666,
          "velocity": 0.44881889763779526
        },
        {
          "duration": 0.18333333333333712,
          "durationTicks": 44,
          "midi": 38,
          "name": "D2",
          "ticks": 40919,
          "time": 170.49583333333334,
          "velocity": 0.5433070866141733
        },
        {
          "duration": 0.04999999999998295,
          "durationTicks": 12,
          "midi": 38,
          "name": "D2",
          "ticks": 41008,
          "time": 170.86666666666667,
          "velocity": 0.6456692913385826
        },
        {
          "duration": 0.21666666666666856,
          "durationTicks": 52,
          "midi": 76,
          "name": "E5",
          "ticks": 41035,
          "time": 170.97916666666666,
          "velocity": 0.6141732283464567
        },
        {
          "duration": 0.1708333333333485,
          "durationTicks": 41,
          "midi": 38,
          "name": "D2",
          "ticks": 41109,
          "time": 171.2875,
          "velocity": 0.6456692913385826
        },
        {
          "duration": 0.05000000000001137,
          "durationTicks": 12,
          "midi": 76,
          "name": "E5",
          "ticks": 41155,
          "time": 171.47916666666666,
          "velocity": 0.3858267716535433
        },
        {
          "duration": 0.12916666666666288,
          "durationTicks": 31,
          "midi": 31,
          "name": "G1",
          "ticks": 41198,
          "time": 171.65833333333333,
          "velocity": 0.5984251968503937
        },
        {
          "duration": 0.14166666666667993,
          "durationTicks": 34,
          "midi": 31,
          "name": "G1",
          "ticks": 41243,
          "time": 171.84583333333333,
          "velocity": 0.5511811023622047
        },
        {
          "duration": 0.05000000000001137,
          "durationTicks": 12,
          "midi": 50,
          "name": "D3",
          "ticks": 41258,
          "time": 171.90833333333333,
          "velocity": 0.5196850393700787
        },
        {
          "duration": 0.13750000000001705,
          "durationTicks": 33,
          "midi": 78,
          "name": "F#5",
          "ticks": 41282,
          "time": 172.00833333333333,
          "velocity": 0.7322834645669292
        },
        {
          "duration": 0.12916666666666288,
          "durationTicks": 31,
          "midi": 30,
          "name": "F#1",
          "ticks": 41349,
          "time": 172.2875,
          "velocity": 0.4094488188976378
        },
        {
          "duration": 0.5875000000000057,
          "durationTicks": 141,
          "midi": 79,
          "name": "G5",
          "ticks": 41402,
          "time": 172.50833333333333,
          "velocity": 0.7244094488188977
        },
        {
          "duration": 0.037499999999994316,
          "durationTicks": 9,
          "midi": 91,
          "name": "G6",
          "ticks": 41599,
          "time": 173.32916666666668,
          "velocity": 0.33070866141732286
        },
        {
          "duration": 0.041666666666685614,
          "durationTicks": 10,
          "midi": 79,
          "name": "G5",
          "ticks": 41613,
          "time": 173.3875,
          "velocity": 0.4645669291338583
        },
        {
          "duration": 0.12916666666666288,
          "durationTicks": 31,
          "midi": 79,
          "name": "G5",
          "ticks": 41671,
          "time": 173.62916666666666,
          "velocity": 0.2283464566929134
        },
        {
          "duration": 0.17916666666664582,
          "durationTicks": 43,
          "midi": 36,
          "name": "C2",
          "ticks": 41764,
          "time": 174.01666666666668,
          "velocity": 0.2283464566929134
        },
        {
          "duration": 0.15000000000000568,
          "durationTicks": 36,
          "midi": 74,
          "name": "D5",
          "ticks": 41923,
          "time": 174.67916666666667,
          "velocity": 0.5748031496062992
        },
        {
          "duration": 0.05000000000001137,
          "durationTicks": 12,
          "midi": 55,
          "name": "G3",
          "ticks": 42016,
          "time": 175.06666666666666,
          "velocity": 0.25984251968503935
        },
        {
          "duration": 0.1875,
          "durationTicks": 45,
          "midi": 29,
          "name": "F1",
          "ticks": 42031,
          "time": 175.12916666666666,
          "velocity": 0.5354330708661418
        },
        {
          "duration": 0.04166666666665719,
          "durationTicks": 10,
          "midi": 31,
          "name": "G1",
          "ticks": 42035,
          "time": 175.14583333333334,
          "velocity": 0.13385826771653545
        },
        {
          "duration": 0.17916666666667425,
          "durationTicks": 43,
          "midi": 29,
          "name": "F1",
          "ticks": 42165,
          "time": 175.6875,
          "velocity": 0.5748031496062992
        },
        {
          "duration": 0.3291666666666515,
          "durationTicks": 79,
          "midi": 31,
          "name": "G1",
          "ticks": 42244,
          "time": 176.01666666666668,
          "velocity": 0.6456692913385826
        },
        {
          "duration": 0.04999999999998295,
          "durationTicks": 12,
          "midi": 51,
          "name": "D#3",
          "ticks": 42283,
          "time": 176.17916666666667,
          "velocity": 0.6220472440944882
        },
        {
          "duration": 0.05000000000001137,
          "durationTicks": 12,
          "midi": 76,
          "name": "E5",
          "ticks": 42323,
          "time": 176.34583333333333,
          "velocity": 0.31496062992125984
        },
        {
          "duration": 0.2083333333333428,
          "durationTicks": 50,
          "midi": 62,
          "name": "D4",
          "ticks": 42391,
          "time": 176.62916666666666,
          "velocity": 0.4094488188976378
        },
        {
          "duration": 0.09999999999999432,
          "durationTicks": 24,
          "midi": 30,
          "name": "F#1",
          "ticks": 42398,
          "time": 176.65833333333333,
          "velocity": 0.3779527559055118
        },
        {
          "duration": 0.10833333333332007,
          "durationTicks": 26,
          "midi": 31,
          "name": "G1",
          "ticks": 42441,
          "time": 176.8375,
          "velocity": 0.5039370078740157
        },
        {
          "duration": 0.07083333333332575,
          "durationTicks": 17,
          "midi": 32,
          "name": "G#1",
          "ticks": 42508,
          "time": 177.11666666666667,
          "velocity": 0.3700787401574803
        },
        {
          "duration": 0.04999999999998295,
          "durationTicks": 12,
          "midi": 45,
          "name": "A2",
          "ticks": 42568,
          "time": 177.36666666666667,
          "velocity": 0.4409448818897638
        },
        {
          "duration": 0.1416666666666515,
          "durationTicks": 34,
          "midi": 34,
          "name": "A#1",
          "ticks": 42657,
          "time": 177.7375,
          "velocity": 0.4094488188976378
        },
        {
          "duration": 0.05000000000001137,
          "durationTicks": 12,
          "midi": 98,
          "name": "D7",
          "ticks": 42712,
          "time": 177.96666666666667,
          "velocity": 0.6299212598425197
        },
        {
          "duration": 0.037499999999994316,
          "durationTicks": 9,
          "midi": 96,
          "name": "C7",
          "ticks": 42739,
          "time": 178.07916666666668,
          "velocity": 0.5826771653543307
        },
        {
          "duration": 0.07916666666665151,
          "durationTicks": 19,
          "midi": 34,
          "name": "A#1",
          "ticks": 42770,
          "time": 178.20833333333334,
          "velocity": 0.3700787401574803
        },
        {
          "duration": 0.04999999999998295,
          "durationTicks": 12,
          "midi": 45,
          "name": "A2",
          "ticks": 42801,
          "time": 178.3375,
          "velocity": 0.2992125984251969
        },
        {
          "duration": 0.09166666666666856,
          "durationTicks": 22,
          "midi": 99,
          "name": "D#7",
          "ticks": 42815,
          "time": 178.39583333333334,
          "velocity": 0.4645669291338583
        },
        {
          "duration": 0.07083333333332575,
          "durationTicks": 17,
          "midi": 98,
          "name": "D7",
          "ticks": 42849,
          "time": 178.5375,
          "velocity": 0.4566929133858268
        },
        {
          "duration": 0.041666666666685614,
          "durationTicks": 10,
          "midi": 74,
          "name": "D5",
          "ticks": 42909,
          "time": 178.7875,
          "velocity": 0.47244094488188976
        },
        {
          "duration": 0.12916666666666288,
          "durationTicks": 31,
          "midi": 84,
          "name": "C6",
          "ticks": 42919,
          "time": 178.82916666666668,
          "velocity": 0.31496062992125984
        },
        {
          "duration": 0.041666666666685614,
          "durationTicks": 10,
          "midi": 69,
          "name": "A4",
          "ticks": 42993,
          "time": 179.1375,
          "velocity": 0.6535433070866141
        },
        {
          "duration": 0.2583333333333542,
          "durationTicks": 62,
          "midi": 38,
          "name": "D2",
          "ticks": 43015,
          "time": 179.22916666666666,
          "velocity": 0.5748031496062992
        },
        {
          "duration": 0.07916666666665151,
          "durationTicks": 19,
          "midi": 53,
          "name": "F3",
          "ticks": 43084,
          "time": 179.51666666666668,
          "velocity": 0.41732283464566927
        },
        {
          "duration": 0.041666666666685614,
          "durationTicks": 10,
          "midi": 81,
          "name": "A5",
          "ticks": 43127,
          "time": 179.69583333333333,
          "velocity": 0.13385826771653545
        },
        {
          "duration": 0.08749999999997726,
          "durationTicks": 21,
          "midi": 57,
          "name": "A3",
          "ticks": 43130,
          "time": 179.70833333333334,
          "velocity": 0.2125984251968504
        },
        {
          "duration": 0.17916666666667425,
          "durationTicks": 43,
          "midi": 38,
          "name": "D2",
          "ticks": 43202,
          "time": 180.00833333333333,
          "velocity": 0.6614173228346457
        },
        {
          "duration": 0.2874999999999943,
          "durationTicks": 69,
          "midi": 40,
          "name": "E2",
          "ticks": 43267,
          "time": 180.27916666666667,
          "velocity": 0.5826771653543307
        },
        {
          "duration": 0.07083333333332575,
          "durationTicks": 17,
          "midi": 76,
          "name": "E5",
          "ticks": 43437,
          "time": 180.9875,
          "velocity": 0.5275590551181102
        },
        {
          "duration": 0.20833333333331439,
          "durationTicks": 50,
          "midi": 40,
          "name": "E2",
          "ticks": 43459,
          "time": 181.07916666666668,
          "velocity": 0.5905511811023622
        },
        {
          "duration": 0.17916666666667425,
          "durationTicks": 43,
          "midi": 64,
          "name": "E4",
          "ticks": 43509,
          "time": 181.2875,
          "velocity": 0.3858267716535433
        },
        {
          "duration": 0.1666666666666572,
          "durationTicks": 40,
          "midi": 33,
          "name": "A1",
          "ticks": 43543,
          "time": 181.42916666666667,
          "velocity": 0.5196850393700787
        },
        {
          "duration": 0.05833333333333712,
          "durationTicks": 14,
          "midi": 64,
          "name": "E4",
          "ticks": 43603,
          "time": 181.67916666666667,
          "velocity": 0.28346456692913385
        },
        {
          "duration": 0.07083333333332575,
          "durationTicks": 17,
          "midi": 52,
          "name": "E3",
          "ticks": 43617,
          "time": 181.7375,
          "velocity": 0.3779527559055118
        },
        {
          "duration": 0.07083333333332575,
          "durationTicks": 17,
          "midi": 45,
          "name": "A2",
          "ticks": 43715,
          "time": 182.14583333333334,
          "velocity": 0.3543307086614173
        },
        {
          "duration": 0.04999999999998295,
          "durationTicks": 12,
          "midi": 45,
          "name": "A2",
          "ticks": 43744,
          "time": 182.26666666666668,
          "velocity": 0.11811023622047244
        },
        {
          "duration": 0.07916666666665151,
          "durationTicks": 19,
          "midi": 69,
          "name": "A4",
          "ticks": 43759,
          "time": 182.32916666666668,
          "velocity": 0.31496062992125984
        },
        {
          "duration": 0.04999999999998295,
          "durationTicks": 12,
          "midi": 28,
          "name": "E1",
          "ticks": 43783,
          "time": 182.42916666666667,
          "velocity": 0.10236220472440945
        },
        {
          "duration": 0.1416666666666515,
          "durationTicks": 34,
          "midi": 64,
          "name": "E4",
          "ticks": 43797,
          "time": 182.4875,
          "velocity": 0.25984251968503935
        },
        {
          "duration": 0.12916666666666288,
          "durationTicks": 31,
          "midi": 79,
          "name": "G5",
          "ticks": 43840,
          "time": 182.66666666666666,
          "velocity": 0.6771653543307087
        },
        {
          "duration": 0.1875,
          "durationTicks": 45,
          "midi": 62,
          "name": "D4",
          "ticks": 43975,
          "time": 183.22916666666666,
          "velocity": 0.5669291338582677
        },
        {
          "duration": 0.11666666666664582,
          "durationTicks": 28,
          "midi": 71,
          "name": "B4",
          "ticks": 44023,
          "time": 183.42916666666667,
          "velocity": 0.6456692913385826
        },
        {
          "duration": 0.2666666666666515,
          "durationTicks": 64,
          "midi": 62,
          "name": "D4",
          "ticks": 44143,
          "time": 183.92916666666667,
          "velocity": 0.5905511811023622
        },
        {
          "duration": 0.04999999999998295,
          "durationTicks": 12,
          "midi": 76,
          "name": "E5",
          "ticks": 44217,
          "time": 184.2375,
          "velocity": 0.5354330708661418
        },
        {
          "duration": 0.05000000000001137,
          "durationTicks": 12,
          "midi": 98,
          "name": "D7",
          "ticks": 44231,
          "time": 184.29583333333332,
          "velocity": 0.4881889763779528
        },
        {
          "duration": 0.04999999999998295,
          "durationTicks": 12,
          "midi": 57,
          "name": "A3",
          "ticks": 44248,
          "time": 184.36666666666667,
          "velocity": 0.4251968503937008
        },
        {
          "duration": 0.09166666666664014,
          "durationTicks": 22,
          "midi": 100,
          "name": "E7",
          "ticks": 44284,
          "time": 184.51666666666668,
          "velocity": 0.5669291338582677
        },
        {
          "duration": 0.09166666666666856,
          "durationTicks": 22,
          "midi": 67,
          "name": "G4",
          "ticks": 44315,
          "time": 184.64583333333334,
          "velocity": 0.6062992125984252
        },
        {
          "duration": 0.1875,
          "durationTicks": 45,
          "midi": 62,
          "name": "D4",
          "ticks": 44395,
          "time": 184.97916666666666,
          "velocity": 0.6062992125984252
        },
        {
          "duration": 0.13750000000001705,
          "durationTicks": 33,
          "midi": 76,
          "name": "E5",
          "ticks": 44551,
          "time": 185.62916666666666,
          "velocity": 0.7244094488188977
        },
        {
          "duration": 0.07083333333332575,
          "durationTicks": 17,
          "midi": 99,
          "name": "D#7",
          "ticks": 44594,
          "time": 185.80833333333334,
          "velocity": 0.7086614173228346
        },
        {
          "duration": 0.09166666666664014,
          "durationTicks": 22,
          "midi": 98,
          "name": "D7",
          "ticks": 44644,
          "time": 186.01666666666668,
          "velocity": 0.6456692913385826
        },
        {
          "duration": 0.09999999999999432,
          "durationTicks": 24,
          "midi": 40,
          "name": "E2",
          "ticks": 44671,
          "time": 186.12916666666666,
          "velocity": 0.5590551181102362
        },
        {
          "duration": 0.15833333333333144,
          "durationTicks": 38,
          "midi": 98,
          "name": "D7",
          "ticks": 44702,
          "time": 186.25833333333333,
          "velocity": 0.6850393700787402
        },
        {
          "duration": 0.07916666666665151,
          "durationTicks": 19,
          "midi": 40,
          "name": "E2",
          "ticks": 44788,
          "time": 186.61666666666667,
          "velocity": 0.36220472440944884
        },
        {
          "duration": 0.05000000000001137,
          "durationTicks": 12,
          "midi": 62,
          "name": "D4",
          "ticks": 44827,
          "time": 186.77916666666667,
          "velocity": 0.5354330708661418
        },
        {
          "duration": 0.037499999999994316,
          "durationTicks": 9,
          "midi": 98,
          "name": "D7",
          "ticks": 44839,
          "time": 186.82916666666668,
          "velocity": 0.3779527559055118
        },
        {
          "duration": 0.25,
          "durationTicks": 60,
          "midi": 81,
          "name": "A5",
          "ticks": 44913,
          "time": 187.1375,
          "velocity": 0.5826771653543307
        },
        {
          "duration": 0.11666666666667425,
          "durationTicks": 28,
          "midi": 78,
          "name": "F#5",
          "ticks": 45007,
          "time": 187.52916666666667,
          "velocity": 0.7480314960629921
        },
        {
          "duration": 0.04166666666665719,
          "durationTicks": 10,
          "midi": 97,
          "name": "C#7",
          "ticks": 45088,
          "time": 187.86666666666667,
          "velocity": 0.5196850393700787
        },
        {
          "duration": 0.09999999999999432,
          "durationTicks": 24,
          "midi": 64,
          "name": "E4",
          "ticks": 45172,
          "time": 188.21666666666667,
          "velocity": 0.47244094488188976
        },
        {
          "duration": 0.04166666666665719,
          "durationTicks": 10,
          "midi": 65,
          "name": "F4",
          "ticks": 45244,
          "time": 188.51666666666668,
          "velocity": 0.3228346456692913
        },
        {
          "duration": 0.04166666666665719,
          "durationTicks": 10,
          "midi": 91,
          "name": "G6",
          "ticks": 45263,
          "time": 188.59583333333333,
          "velocity": 0.5118110236220472
        },
        {
          "duration": 0.05000000000001137,
          "durationTicks": 12,
          "midi": 79,
          "name": "G5",
          "ticks": 45278,
          "time": 188.65833333333333,
          "velocity": 0.6692913385826772
        },
        {
          "duration": 0.4124999999999943,
          "durationTicks": 99,
          "midi": 31,
          "name": "G1",
          "ticks": 45388,
          "time": 189.11666666666667,
          "velocity": 0.5590551181102362
        },
        {
          "duration": 0.24166666666664582,
          "durationTicks": 58,
          "midi": 64,
          "name": "E4",
          "ticks": 45484,
          "time": 189.51666666666668,
          "velocity": 0.4251968503937008
        },
        {
          "duration": 0.07083333333335418,
          "durationTicks": 17,
          "midi": 42,
          "name": "F#2",
          "ticks": 45491,
          "time": 189.54583333333332,
          "velocity": 0.3858267716535433
        },
        {
          "duration": 0.23333333333332007,
          "durationTicks": 56,
          "midi": 62,
          "name": "D4",
          "ticks": 45515,
          "time": 189.64583333333334,
          "velocity": 0.3228346456692913
        },
        {
          "duration": 0.1208333333333087,
          "durationTicks": 29,
          "midi": 98,
          "name": "D7",
          "ticks": 45597,
          "time": 189.9875,
          "velocity": 0.6614173228346457
        },
        {
          "duration": 0.07083333333335418,
          "durationTicks": 17,
          "midi": 88,
          "name": "E6",
          "ticks": 45671,
          "time": 190.29583333333332,
          "velocity": 0.23622047244094488
        },
        {
          "duration": 0.1666666666666572,
          "durationTicks": 40,
          "midi": 81,
          "name": "A5",
          "ticks": 45703,
          "time": 190.42916666666667,
          "velocity": 0.6614173228346457
        },
        {
          "duration": 0.24166666666664582,
          "durationTicks": 58,
          "midi": 92,
          "name": "G#6",
          "ticks": 45748,
          "time": 190.61666666666667,
          "velocity": 0.6456692913385826
        },
        {
          "duration": 0.15833333333333144,
          "durationTicks": 38,
          "midi": 36,
          "name": "C2",
          "ticks": 45818,
          "time": 190.90833333333333,
          "velocity": 0.47244094488188976
        },
        {
          "duration": 0.12083333333333712,
          "durationTicks": 29,
          "midi": 67,
          "name": "G4",
          "ticks": 45861,
          "time": 191.0875,
          "velocity": 0.41732283464566927
        },
        {
          "duration": 0.04166666666665719,
          "durationTicks": 10,
          "midi": 74,
          "name": "D5",
          "ticks": 45923,
          "time": 191.34583333333333,
          "velocity": 0.6062992125984252
        },
        {
          "duration": 0.06666666666666288,
          "durationTicks": 16,
          "midi": 48,
          "name": "C3",
          "ticks": 45967,
          "time": 191.52916666666667,
          "velocity": 0.4330708661417323
        },
        {
          "duration": 0.03750000000002274,
          "durationTicks": 9,
          "midi": 31,
          "name": "G1",
          "ticks": 46046,
          "time": 191.85833333333332,
          "velocity": 0.25984251968503935
        },
        {
          "duration": 0.09166666666666856,
          "durationTicks": 22,
          "midi": 64,
          "name": "E4",
          "ticks": 46091,
          "time": 192.04583333333332,
          "velocity": 0.4094488188976378
        },
        {
          "duration": 0.2291666666666572,
          "durationTicks": 55,
          "midi": 64,
          "name": "E4",
          "ticks": 46137,
          "time": 192.2375,
          "velocity": 0.6220472440944882
        },
        {
          "duration": 0.04166666666665719,
          "durationTicks": 10,
          "midi": 98,
          "name": "D7",
          "ticks": 46216,
          "time": 192.56666666666666,
          "velocity": 0.4881889763779528
        },
        {
          "duration": 0.07083333333335418,
          "durationTicks": 17,
          "midi": 29,
          "name": "F1",
          "ticks": 46233,
          "time": 192.6375,
          "velocity": 0.5433070866141733
        },
        {
          "duration": 0.15000000000000568,
          "durationTicks": 36,
          "midi": 83,
          "name": "B5",
          "ticks": 46259,
          "time": 192.74583333333334,
          "velocity": 0.5433070866141733
        },
        {
          "duration": 0.04999999999998295,
          "durationTicks": 12,
          "midi": 98,
          "name": "D7",
          "ticks": 46324,
          "time": 193.01666666666668,
          "velocity": 0.5039370078740157
        },
        {
          "duration": 0.3208333333333542,
          "durationTicks": 77,
          "midi": 62,
          "name": "D4",
          "ticks": 46382,
          "time": 193.25833333333333,
          "velocity": 0.7716535433070866
        },
        {
          "duration": 0.3916666666666515,
          "durationTicks": 94,
          "midi": 31,
          "name": "G1",
          "ticks": 46437,
          "time": 193.4875,
          "velocity": 0.5905511811023622
        },
        {
          "duration": 0.2874999999999943,
          "durationTicks": 69,
          "midi": 62,
          "name": "D4",
          "ticks": 46531,
          "time": 193.87916666666666,
          "velocity": 0.4566929133858268
        },
        {
          "duration": 0.07916666666665151,
          "durationTicks": 19,
          "midi": 62,
          "name": "D4",
          "ticks": 46610,
          "time": 194.20833333333334,
          "velocity": 0.33070866141732286
        },
        {
          "duration": 0.0625,
          "durationTicks": 15,
          "midi": 76,
          "name": "E5",
          "ticks": 46643,
          "time": 194.34583333333333,
          "velocity": 0.6929133858267716
        },
        {
          "duration": 0.12916666666666288,
          "durationTicks": 31,
          "midi": 59,
          "name": "B3",
          "ticks": 46658,
          "time": 194.40833333333333,
          "velocity": 0.48031496062992124
        },
        {
          "duration": 0.07083333333335418,
          "durationTicks": 17,
          "midi": 96,
          "name": "C7",
          "ticks": 46691,
          "time": 194.54583333333332,
          "velocity": 0.5039370078740157
        },
        {
          "duration": 0.04166666666665719,
          "durationTicks": 10,
          "midi": 99,
          "name": "D#7",
          "ticks": 46708,
          "time": 194.61666666666667,
          "velocity": 0.5118110236220472
        },
        {
          "duration": 0.09999999999999432,
          "durationTicks": 24,
          "midi": 98,
          "name": "D7",
          "ticks": 46737,
          "time": 194.7375,
          "velocity": 0.7165354330708661
        },
        {
          "duration": 0.04166666666665719,
          "durationTicks": 10,
          "midi": 40,
          "name": "E2",
          "ticks": 46768,
          "time": 194.86666666666667,
          "velocity": 0.5354330708661418
        },
        {
          "duration": 0.05000000000001137,
          "durationTicks": 12,
          "midi": 28,
          "name": "E1",
          "ticks": 46792,
          "time": 194.96666666666667,
          "velocity": 0.5196850393700787
        },
        {
          "duration": 0.10833333333332007,
          "durationTicks": 26,
          "midi": 28,
          "name": "E1",
          "ticks": 46821,
          "time": 195.0875,
          "velocity": 0.3779527559055118
        },
        {
          "duration": 0.08750000000000568,
          "durationTicks": 21,
          "midi": 81,
          "name": "A5",
          "ticks": 46855,
          "time": 195.22916666666666,
          "velocity": 0.5748031496062992
        },
        {
          "duration": 0.16249999999999432,
          "durationTicks": 39,
          "midi": 79,
          "name": "G5",
          "ticks": 46912,
          "time": 195.46666666666667,
          "velocity": 0.5590551181102362
        },
        {
          "duration": 0.07083333333332575,
          "durationTicks": 17,
          "midi": 72,
          "name": "C5",
          "ticks": 47030,
          "time": 195.95833333333334,
          "velocity": 0.3779527559055118
        },
        {
          "duration": 0.19166666666666288,
          "durationTicks": 46,
          "midi": 45,
          "name": "A2",
          "ticks": 47116,
          "time": 196.31666666666666,
          "velocity": 0.47244094488188976
        },
        {
          "duration": 0.04999999999998295,
          "durationTicks": 12,
          "midi": 34,
          "name": "A#1",
          "ticks": 47157,
          "time": 196.4875,
          "velocity": 0.29133858267716534
        },
        {
          "duration": 0.05833333333333712,
          "durationTicks": 14,
          "midi": 93,
          "name": "A6",
          "ticks": 47193,
          "time": 196.6375,
          "velocity": 0.2992125984251969
        },
        {
          "duration": 0.3833333333333542,
          "durationTicks": 92,
          "midi": 78,
          "name": "F#5",
          "ticks": 47267,
          "time": 196.94583333333333,
          "velocity": 0.7716535433070866
        },
        {
          "duration": 0.21250000000000568,
          "durationTicks": 51,
          "midi": 28,
          "name": "E1",
          "ticks": 47488,
          "time": 197.86666666666667,
          "velocity": 0.47244094488188976
        },
        {
          "duration": 0.19166666666666288,
          "durationTicks": 46,
          "midi": 59,
          "name": "B3",
          "ticks": 47577,
          "time": 198.2375,
          "velocity": 0.48031496062992124
        },
        {
          "duration": 0.13333333333332575,
          "durationTicks": 32,
          "midi": 28,
          "name": "E1",
          "ticks": 47603,
          "time": 198.34583333333333,
          "velocity": 0.3543307086614173
        },
        {
          "duration": 0.12916666666666288,
          "durationTicks": 31,
          "midi": 40,
          "name": "E2",
          "ticks": 47671,
          "time": 198.62916666666666,
          "velocity": 0.4881889763779528
        },
        {
          "duration": 0.08333333333334281,
          "durationTicks": 20,
          "midi": 79,
          "name": "G5",
          "ticks": 47699,
          "time": 198.74583333333334,
          "velocity": 0.4330708661417323
        },
        {
          "duration": 0.1875,
          "durationTicks": 45,
          "midi": 33,
          "name": "A1",
          "ticks": 47731,
          "time": 198.87916666666666,
          "velocity": 0.5984251968503937
        },
        {
          "duration": 0.12083333333333712,
          "durationTicks": 29,
          "midi": 76,
          "name": "E5",
          "ticks": 47795,
          "time": 199.14583333333334,
          "velocity": 0.5196850393700787
        },
        {
          "duration": 0.27916666666666856,
          "durationTicks": 67,
          "midi": 45,
          "name": "A2",
          "ticks": 47901,
          "time": 199.5875,
          "velocity": 0.5433070866141733
        },
        {
          "duration": 0.0625,
          "durationTicks": 15,
          "midi": 33,
          "name": "A1",
          "ticks": 47951,
          "time": 199.79583333333332,
          "velocity": 0.4881889763779528
        },
        {
          "duration": 0.0625,
          "durationTicks": 15,
          "midi": 55,
          "name": "G3",
          "ticks": 47975,
          "time": 199.89583333333334,
          "velocity": 0.15748031496062992
        },
        {
          "duration": 0.05000000000001137,
          "durationTicks": 12,
          "midi": 74,
          "name": "D5",
          "ticks": 48016,
          "time": 200.06666666666666,
          "velocity": 0.4645669291338583
        },
        {
          "duration": 0.4416666666666629,
          "durationTicks": 106,
          "midi": 64,
          "name": "E4",
          "ticks": 48028,
          "time": 200.11666666666667,
          "velocity": 0.5433070866141733
        },
        {
          "duration": 0.05000000000001137,
          "durationTicks": 12,
          "midi": 69,
          "name": "A4",
          "ticks": 48107,
          "time": 200.44583333333333,
          "velocity": 0.13385826771653545
        },
        {
          "duration": 0.037499999999994316,
          "durationTicks": 9,
          "midi": 35,
          "name": "B1",
          "ticks": 48127,
          "time": 200.52916666666667,
          "velocity": 0.23622047244094488
        },
        {
          "duration": 0.05000000000001137,
          "durationTicks": 12,
          "midi": 32,
          "name": "G#1",
          "ticks": 48143,
          "time": 200.59583333333333,
          "velocity": 0.6535433070866141
        },
        {
          "duration": 0.12916666666666288,
          "durationTicks": 31,
          "midi": 32,
          "name": "G#1",
          "ticks": 48165,
          "time": 200.6875,
          "velocity": 0.5118110236220472
        },
        {
          "duration": 0.05000000000001137,
          "durationTicks": 12,
          "midi": 32,
          "name": "G#1",
          "ticks": 48211,
          "time": 200.87916666666666,
          "velocity": 0.5826771653543307
        },
        {
          "duration": 0.2666666666666515,
          "durationTicks": 64,
          "midi": 64,
          "name": "E4",
          "ticks": 48223,
          "time": 200.92916666666667,
          "velocity": 0.5826771653543307
        },
        {
          "duration": 0.09166666666664014,
          "durationTicks": 22,
          "midi": 98,
          "name": "D7",
          "ticks": 48304,
          "time": 201.26666666666668,
          "velocity": 0.5511811023622047
        },
        {
          "duration": 0.21250000000000568,
          "durationTicks": 51,
          "midi": 62,
          "name": "D4",
          "ticks": 48328,
          "time": 201.36666666666667,
          "velocity": 0.6141732283464567
        },
        {
          "duration": 0.15000000000000568,
          "durationTicks": 36,
          "midi": 64,
          "name": "E4",
          "ticks": 48422,
          "time": 201.75833333333333,
          "velocity": 0.5905511811023622
        },
        {
          "duration": 0.1208333333333087,
          "durationTicks": 29,
          "midi": 98,
          "name": "D7",
          "ticks": 48477,
          "time": 201.9875,
          "velocity": 0.5826771653543307
        },
        {
          "duration": 0.3916666666666515,
          "durationTicks": 94,
          "midi": 31,
          "name": "G1",
          "ticks": 48532,
          "time": 202.21666666666667,
          "velocity": 0.6062992125984252
        },
        {
          "duration": 0.12083333333333712,
          "durationTicks": 29,
          "midi": 30,
          "name": "F#1",
          "ticks": 48688,
          "time": 202.86666666666667,
          "velocity": 0.3858267716535433
        },
        {
          "duration": 0.1708333333333485,
          "durationTicks": 41,
          "midi": 92,
          "name": "G#6",
          "ticks": 48729,
          "time": 203.0375,
          "velocity": 0.5984251968503937
        },
        {
          "duration": 0.08750000000000568,
          "durationTicks": 21,
          "midi": 62,
          "name": "D4",
          "ticks": 48842,
          "time": 203.50833333333333,
          "velocity": 0.6456692913385826
        },
        {
          "duration": 0.17916666666664582,
          "durationTicks": 43,
          "midi": 98,
          "name": "D7",
          "ticks": 48883,
          "time": 203.67916666666667,
          "velocity": 0.6299212598425197
        },
        {
          "duration": 0.04999999999998295,
          "durationTicks": 12,
          "midi": 81,
          "name": "A5",
          "ticks": 48950,
          "time": 203.95833333333334,
          "velocity": 0.44881889763779526
        },
        {
          "duration": 0.07083333333332575,
          "durationTicks": 17,
          "midi": 62,
          "name": "D4",
          "ticks": 49005,
          "time": 204.1875,
          "velocity": 0.6929133858267716
        },
        {
          "duration": 0.24166666666667425,
          "durationTicks": 58,
          "midi": 62,
          "name": "D4",
          "ticks": 49036,
          "time": 204.31666666666666,
          "velocity": 0.5433070866141733
        },
        {
          "duration": 0.05833333333333712,
          "durationTicks": 14,
          "midi": 45,
          "name": "A2",
          "ticks": 49113,
          "time": 204.6375,
          "velocity": 0.5354330708661418
        },
        {
          "duration": 0.17083333333332007,
          "durationTicks": 41,
          "midi": 67,
          "name": "G4",
          "ticks": 49132,
          "time": 204.71666666666667,
          "velocity": 0.4409448818897638
        },
        {
          "duration": 0.19999999999998863,
          "durationTicks": 48,
          "midi": 55,
          "name": "G3",
          "ticks": 49207,
          "time": 205.02916666666667,
          "velocity": 0.5118110236220472
        },
        {
          "duration": 0.05833333333333712,
          "durationTicks": 14,
          "midi": 71,
          "name": "B4",
          "ticks": 49262,
          "time": 205.25833333333333,
          "velocity": 0.6062992125984252
        },
        {
          "duration": 0.06666666666666288,
          "durationTicks": 16,
          "midi": 62,
          "name": "D4",
          "ticks": 49423,
          "time": 205.92916666666667,
          "velocity": 0.5275590551181102
        },
        {
          "duration": 0.12916666666666288,
          "durationTicks": 31,
          "midi": 64,
          "name": "E4",
          "ticks": 49485,
          "time": 206.1875,
          "velocity": 0.6141732283464567
        },
        {
          "duration": 0.12083333333333712,
          "durationTicks": 29,
          "midi": 67,
          "name": "G4",
          "ticks": 49547,
          "time": 206.44583333333333,
          "velocity": 0.5354330708661418
        },
        {
          "duration": 0.39999999999997726,
          "durationTicks": 96,
          "midi": 31,
          "name": "G1",
          "ticks": 49579,
          "time": 206.57916666666668,
          "velocity": 0.5590551181102362
        },
        {
          "duration": 0.11666666666667425,
          "durationTicks": 28,
          "midi": 72,
          "name": "C5",
          "ticks": 49747,
          "time": 207.27916666666667,
          "velocity": 0.3228346456692913
        },
        {
          "duration": 0.05833333333333712,
          "durationTicks": 14,
          "midi": 104,
          "name": "G#7",
          "ticks": 49783,
          "time": 207.42916666666667,
          "velocity": 0.4330708661417323
        },
        {
          "duration": 0.07916666666665151,
          "durationTicks": 19,
          "midi": 59,
          "name": "B3",
          "ticks": 49804,
          "time": 207.51666666666668,
          "velocity": 0.1732283464566929
        },
        {
          "duration": 0.05833333333333712,
          "durationTicks": 14,
          "midi": 37,
          "name": "C#2",
          "ticks": 49821,
          "time": 207.5875,
          "velocity": 0.3228346456692913
        },
        {
          "duration": 0.041666666666685614,
          "durationTicks": 10,
          "midi": 31,
          "name": "G1",
          "ticks": 49840,
          "time": 207.66666666666666,
          "velocity": 0.2204724409448819
        },
        {
          "duration": 0.04999999999998295,
          "durationTicks": 12,
          "midi": 74,
          "name": "D5",
          "ticks": 49888,
          "time": 207.86666666666667,
          "velocity": 0.7086614173228346
        },
        {
          "duration": 0.1875,
          "durationTicks": 45,
          "midi": 92,
          "name": "G#6",
          "ticks": 49927,
          "time": 208.02916666666667,
          "velocity": 0.5905511811023622
        },
        {
          "duration": 0.13750000000001705,
          "durationTicks": 33,
          "midi": 76,
          "name": "E5",
          "ticks": 49982,
          "time": 208.25833333333333,
          "velocity": 0.6299212598425197
        },
        {
          "duration": 0.05833333333333712,
          "durationTicks": 14,
          "midi": 37,
          "name": "C#2",
          "ticks": 50085,
          "time": 208.6875,
          "velocity": 0.3228346456692913
        },
        {
          "duration": 0.07083333333332575,
          "durationTicks": 17,
          "midi": 83,
          "name": "B5",
          "ticks": 50123,
          "time": 208.84583333333333,
          "velocity": 0.25984251968503935
        },
        {
          "duration": 0.0625,
          "durationTicks": 15,
          "midi": 76,
          "name": "E5",
          "ticks": 50152,
          "time": 208.96666666666667,
          "velocity": 0.4645669291338583
        },
        {
          "duration": 0.10833333333332007,
          "durationTicks": 26,
          "midi": 62,
          "name": "D4",
          "ticks": 50205,
          "time": 209.1875,
          "velocity": 0.13385826771653545
        },
        {
          "duration": 0.0583333333333087,
          "durationTicks": 14,
          "midi": 78,
          "name": "F#5",
          "ticks": 50239,
          "time": 209.32916666666668,
          "velocity": 0.5905511811023622
        },
        {
          "duration": 0.12083333333333712,
          "durationTicks": 29,
          "midi": 30,
          "name": "F#1",
          "ticks": 50267,
          "time": 209.44583333333333,
          "velocity": 0.4566929133858268
        },
        {
          "duration": 0.09999999999999432,
          "durationTicks": 24,
          "midi": 78,
          "name": "F#5",
          "ticks": 50318,
          "time": 209.65833333333333,
          "velocity": 0.6614173228346457
        },
        {
          "duration": 0.29999999999998295,
          "durationTicks": 72,
          "midi": 67,
          "name": "G4",
          "ticks": 50419,
          "time": 210.07916666666668,
          "velocity": 0.5511811023622047
        },
        {
          "duration": 0.07916666666665151,
          "durationTicks": 19,
          "midi": 57,
          "name": "A3",
          "ticks": 50512,
          "time": 210.46666666666667,
          "velocity": 0.5196850393700787
        },
        {
          "duration": 0.17916666666664582,
          "durationTicks": 43,
          "midi": 67,
          "name": "G4",
          "ticks": 50577,
          "time": 210.7375,
          "velocity": 0.5669291338582677
        },
        {
          "duration": 0.39166666666667993,
          "durationTicks": 94,
          "midi": 31,
          "name": "G1",
          "ticks": 50627,
          "time": 210.94583333333333,
          "velocity": 0.6141732283464567
        },
        {
          "duration": 0.07916666666665151,
          "durationTicks": 19,
          "midi": 32,
          "name": "G#1",
          "ticks": 50779,
          "time": 211.57916666666668,
          "velocity": 0.3464566929133858
        },
        {
          "duration": 0.2333333333333485,
          "durationTicks": 56,
          "midi": 30,
          "name": "F#1",
          "ticks": 50783,
          "time": 211.59583333333333,
          "velocity": 0.47244094488188976
        },
        {
          "duration": 0.12083333333333712,
          "durationTicks": 29,
          "midi": 55,
          "name": "G3",
          "ticks": 50855,
          "time": 211.89583333333334,
          "velocity": 0.2755905511811024
        },
        {
          "duration": 0.25,
          "durationTicks": 60,
          "midi": 28,
          "name": "E1",
          "ticks": 50889,
          "time": 212.0375,
          "velocity": 0.48031496062992124
        },
        {
          "duration": 0.0583333333333087,
          "durationTicks": 14,
          "midi": 40,
          "name": "E2",
          "ticks": 50959,
          "time": 212.32916666666668,
          "velocity": 0.5826771653543307
        },
        {
          "duration": 0.05000000000001137,
          "durationTicks": 12,
          "midi": 28,
          "name": "E1",
          "ticks": 50980,
          "time": 212.41666666666666,
          "velocity": 0.5826771653543307
        },
        {
          "duration": 0.037499999999994316,
          "durationTicks": 9,
          "midi": 62,
          "name": "D4",
          "ticks": 51014,
          "time": 212.55833333333334,
          "velocity": 0.5826771653543307
        },
        {
          "duration": 0.037499999999994316,
          "durationTicks": 9,
          "midi": 74,
          "name": "D5",
          "ticks": 51050,
          "time": 212.70833333333334,
          "velocity": 0.5511811023622047
        },
        {
          "duration": 0.12083333333333712,
          "durationTicks": 29,
          "midi": 90,
          "name": "F#6",
          "ticks": 51086,
          "time": 212.85833333333332,
          "velocity": 0.3700787401574803
        },
        {
          "duration": 0.12916666666666288,
          "durationTicks": 31,
          "midi": 92,
          "name": "G#6",
          "ticks": 51122,
          "time": 213.00833333333333,
          "velocity": 0.4094488188976378
        },
        {
          "duration": 0.07083333333332575,
          "durationTicks": 17,
          "midi": 60,
          "name": "C4",
          "ticks": 51165,
          "time": 213.1875,
          "velocity": 0.3937007874015748
        },
        {
          "duration": 0.05833333333333712,
          "durationTicks": 14,
          "midi": 59,
          "name": "B3",
          "ticks": 51201,
          "time": 213.3375,
          "velocity": 0.5984251968503937
        },
        {
          "duration": 0.09166666666666856,
          "durationTicks": 22,
          "midi": 60,
          "name": "C4",
          "ticks": 51220,
          "time": 213.41666666666666,
          "velocity": 0.6141732283464567
        },
        {
          "duration": 0.0625,
          "durationTicks": 15,
          "midi": 78,
          "name": "F#5",
          "ticks": 51239,
          "time": 213.49583333333334,
          "velocity": 0.47244094488188976
        },
        {
          "duration": 0.07083333333332575,
          "durationTicks": 17,
          "midi": 64,
          "name": "E4",
          "ticks": 51256,
          "time": 213.56666666666666,
          "velocity": 0.2440944881889764
        },
        {
          "duration": 0.1708333333333485,
          "durationTicks": 41,
          "midi": 45,
          "name": "A2",
          "ticks": 51309,
          "time": 213.7875,
          "velocity": 0.49606299212598426
        },
        {
          "duration": 0.5124999999999886,
          "durationTicks": 123,
          "midi": 26,
          "name": "D1",
          "ticks": 51419,
          "time": 214.24583333333334,
          "velocity": 0.49606299212598426
        },
        {
          "duration": 0.04999999999998295,
          "durationTicks": 12,
          "midi": 61,
          "name": "C#4",
          "ticks": 51515,
          "time": 214.64583333333334,
          "velocity": 0.15748031496062992
        },
        {
          "duration": 0.1708333333333485,
          "durationTicks": 41,
          "midi": 38,
          "name": "D2",
          "ticks": 51578,
          "time": 214.90833333333333,
          "velocity": 0.5039370078740157
        },
        {
          "duration": 0.15000000000000568,
          "durationTicks": 36,
          "midi": 62,
          "name": "D4",
          "ticks": 51674,
          "time": 215.30833333333334,
          "velocity": 0.5275590551181102
        },
        {
          "duration": 0.05000000000001137,
          "durationTicks": 12,
          "midi": 62,
          "name": "D4",
          "ticks": 51727,
          "time": 215.52916666666667,
          "velocity": 0.28346456692913385
        },
        {
          "duration": 0.19999999999998863,
          "durationTicks": 48,
          "midi": 40,
          "name": "E2",
          "ticks": 51741,
          "time": 215.5875,
          "velocity": 0.5669291338582677
        },
        {
          "duration": 0.13749999999998863,
          "durationTicks": 33,
          "midi": 28,
          "name": "E1",
          "ticks": 51794,
          "time": 215.80833333333334,
          "velocity": 0.4330708661417323
        },
        {
          "duration": 0.05833333333333712,
          "durationTicks": 14,
          "midi": 31,
          "name": "G1",
          "ticks": 51830,
          "time": 215.95833333333334,
          "velocity": 0.2440944881889764
        },
        {
          "duration": 0.3499999999999943,
          "durationTicks": 84,
          "midi": 55,
          "name": "G3",
          "ticks": 51844,
          "time": 216.01666666666668,
          "velocity": 0.4330708661417323
        },
        {
          "duration": 0.25,
          "durationTicks": 60,
          "midi": 33,
          "name": "A1",
          "ticks": 51916,
          "time": 216.31666666666666,
          "velocity": 0.5354330708661418
        },
        {
          "duration": 0.6791666666666742,
          "durationTicks": 163,
          "midi": 45,
          "name": "A2",
          "ticks": 51991,
          "time": 216.62916666666666,
          "velocity": 0.5669291338582677
        },
        {
          "duration": 0.12083333333333712,
          "durationTicks": 29,
          "midi": 57,
          "name": "A3",
          "ticks": 52113,
          "time": 217.1375,
          "velocity": 0.5590551181102362
        },
        {
          "duration": 0.037499999999994316,
          "durationTicks": 9,
          "midi": 33,
          "name": "A1",
          "ticks": 52142,
          "time": 217.25833333333333,
          "velocity": 0.4251968503937008
        },
        {
          "duration": 0.09999999999999432,
          "durationTicks": 24,
          "midi": 57,
          "name": "A3",
          "ticks": 52154,
          "time": 217.30833333333334,
          "velocity": 0.16535433070866143
        },
        {
          "duration": 0.08750000000000568,
          "durationTicks": 21,
          "midi": 83,
          "name": "B5",
          "ticks": 52183,
          "time": 217.42916666666667,
          "velocity": 0.28346456692913385
        },
        {
          "duration": 0.12916666666666288,
          "durationTicks": 31,
          "midi": 79,
          "name": "G5",
          "ticks": 52214,
          "time": 217.55833333333334,
          "velocity": 0.6771653543307087
        },
        {
          "duration": 0.2708333333333428,
          "durationTicks": 65,
          "midi": 33,
          "name": "A1",
          "ticks": 52307,
          "time": 217.94583333333333,
          "velocity": 0.5826771653543307
        },
        {
          "duration": 0.07083333333332575,
          "durationTicks": 17,
          "midi": 78,
          "name": "F#5",
          "ticks": 52408,
          "time": 218.36666666666667,
          "velocity": 0.6062992125984252
        },
        {
          "duration": 0.05000000000001137,
          "durationTicks": 12,
          "midi": 79,
          "name": "G5",
          "ticks": 52435,
          "time": 218.47916666666666,
          "velocity": 0.4645669291338583
        },
        {
          "duration": 0.1916666666666913,
          "durationTicks": 46,
          "midi": 29,
          "name": "F1",
          "ticks": 52451,
          "time": 218.54583333333332,
          "velocity": 0.5039370078740157
        },
        {
          "duration": 0.09166666666666856,
          "durationTicks": 22,
          "midi": 71,
          "name": "B4",
          "ticks": 52521,
          "time": 218.8375,
          "velocity": 0.6850393700787402
        },
        {
          "duration": 0.12083333333333712,
          "durationTicks": 29,
          "midi": 83,
          "name": "B5",
          "ticks": 52547,
          "time": 218.94583333333333,
          "velocity": 0.5826771653543307
        },
        {
          "duration": 0.15833333333333144,
          "durationTicks": 38,
          "midi": 100,
          "name": "E7",
          "ticks": 52658,
          "time": 219.40833333333333,
          "velocity": 0.5826771653543307
        },
        {
          "duration": 0.15833333333333144,
          "durationTicks": 38,
          "midi": 31,
          "name": "G1",
          "ticks": 52711,
          "time": 219.62916666666666,
          "velocity": 0.5196850393700787
        },
        {
          "duration": 0.05833333333333712,
          "durationTicks": 14,
          "midi": 31,
          "name": "G1",
          "ticks": 52771,
          "time": 219.87916666666666,
          "velocity": 0.4094488188976378
        },
        {
          "duration": 0.5124999999999886,
          "durationTicks": 123,
          "midi": 31,
          "name": "G1",
          "ticks": 52799,
          "time": 219.99583333333334,
          "velocity": 0.5275590551181102
        },
        {
          "duration": 0.1416666666666515,
          "durationTicks": 34,
          "midi": 76,
          "name": "E5",
          "ticks": 52924,
          "time": 220.51666666666668,
          "velocity": 0.7086614173228346
        },
        {
          "duration": 0.07916666666667993,
          "durationTicks": 19,
          "midi": 101,
          "name": "F7",
          "ticks": 52965,
          "time": 220.6875,
          "velocity": 0.6141732283464567
        },
        {
          "duration": 0.09166666666666856,
          "durationTicks": 22,
          "midi": 98,
          "name": "D7",
          "ticks": 53020,
          "time": 220.91666666666666,
          "velocity": 0.6850393700787402
        },
        {
          "duration": 0.22083333333333144,
          "durationTicks": 53,
          "midi": 98,
          "name": "D7",
          "ticks": 53063,
          "time": 221.09583333333333,
          "velocity": 0.6220472440944882
        },
        {
          "duration": 0.09999999999999432,
          "durationTicks": 24,
          "midi": 28,
          "name": "E1",
          "ticks": 53121,
          "time": 221.3375,
          "velocity": 0.47244094488188976
        },
        {
          "duration": 0.05833333333333712,
          "durationTicks": 14,
          "midi": 59,
          "name": "B3",
          "ticks": 53169,
          "time": 221.5375,
          "velocity": 0.33070866141732286
        },
        {
          "duration": 0.05000000000001137,
          "durationTicks": 12,
          "midi": 45,
          "name": "A2",
          "ticks": 53207,
          "time": 221.69583333333333,
          "velocity": 0.3464566929133858
        },
        {
          "duration": 0.27916666666666856,
          "durationTicks": 67,
          "midi": 76,
          "name": "E5",
          "ticks": 53287,
          "time": 222.02916666666667,
          "velocity": 0.6614173228346457
        },
        {
          "duration": 0.09999999999999432,
          "durationTicks": 24,
          "midi": 78,
          "name": "F#5",
          "ticks": 53383,
          "time": 222.42916666666667,
          "velocity": 0.7244094488188977
        },
        {
          "duration": 0.037499999999994316,
          "durationTicks": 9,
          "midi": 97,
          "name": "C#7",
          "ticks": 53462,
          "time": 222.75833333333333,
          "velocity": 0.5354330708661418
        },
        {
          "duration": 0.09999999999999432,
          "durationTicks": 24,
          "midi": 38,
          "name": "D2",
          "ticks": 53476,
          "time": 222.81666666666666,
          "velocity": 0.3228346456692913
        },
        {
          "duration": 0.0625,
          "durationTicks": 15,
          "midi": 45,
          "name": "A2",
          "ticks": 53495,
          "time": 222.89583333333334,
          "velocity": 0.2283464566929134
        },
        {
          "duration": 0.12083333333333712,
          "durationTicks": 29,
          "midi": 79,
          "name": "G5",
          "ticks": 53639,
          "time": 223.49583333333334,
          "velocity": 0.5590551181102362
        },
        {
          "duration": 0.07916666666667993,
          "durationTicks": 19,
          "midi": 57,
          "name": "A3",
          "ticks": 53685,
          "time": 223.6875,
          "velocity": 0.3464566929133858
        },
        {
          "duration": 0.04999999999998295,
          "durationTicks": 12,
          "midi": 54,
          "name": "F#3",
          "ticks": 53781,
          "time": 224.0875,
          "velocity": 0.6456692913385826
        },
        {
          "duration": 0.25833333333332575,
          "durationTicks": 62,
          "midi": 62,
          "name": "D4",
          "ticks": 53851,
          "time": 224.37916666666666,
          "velocity": 0.4409448818897638
        },
        {
          "duration": 0.25833333333332575,
          "durationTicks": 62,
          "midi": 31,
          "name": "G1",
          "ticks": 53901,
          "time": 224.5875,
          "velocity": 0.49606299212598426
        },
        {
          "duration": 0.12083333333333712,
          "durationTicks": 29,
          "midi": 98,
          "name": "D7",
          "ticks": 53973,
          "time": 224.8875,
          "velocity": 0.6692913385826772
        },
        {
          "duration": 0.04999999999998295,
          "durationTicks": 12,
          "midi": 60,
          "name": "C4",
          "ticks": 54050,
          "time": 225.20833333333334,
          "velocity": 0.4881889763779528
        },
        {
          "duration": 0.1916666666666913,
          "durationTicks": 46,
          "midi": 81,
          "name": "A5",
          "ticks": 54071,
          "time": 225.29583333333332,
          "velocity": 0.6062992125984252
        },
        {
          "duration": 0.4791666666666856,
          "durationTicks": 115,
          "midi": 64,
          "name": "E4",
          "ticks": 54129,
          "time": 225.5375,
          "velocity": 0.7795275590551181
        },
        {
          "duration": 0.05833333333333712,
          "durationTicks": 14,
          "midi": 36,
          "name": "C2",
          "ticks": 54211,
          "time": 225.87916666666666,
          "velocity": 0.3700787401574803
        },
        {
          "duration": 0.29999999999998295,
          "durationTicks": 72,
          "midi": 36,
          "name": "C2",
          "ticks": 54268,
          "time": 226.11666666666667,
          "velocity": 0.5748031496062992
        },
        {
          "duration": 0.06666666666666288,
          "durationTicks": 16,
          "midi": 64,
          "name": "E4",
          "ticks": 54271,
          "time": 226.12916666666666,
          "velocity": 0.25984251968503935
        },
        {
          "duration": 0.2874999999999943,
          "durationTicks": 69,
          "midi": 76,
          "name": "E5",
          "ticks": 54338,
          "time": 226.40833333333333,
          "velocity": 0.49606299212598426
        },
        {
          "duration": 0.15000000000000568,
          "durationTicks": 36,
          "midi": 83,
          "name": "B5",
          "ticks": 54393,
          "time": 226.6375,
          "velocity": 0.28346456692913385
        },
        {
          "duration": 0.10000000000002274,
          "durationTicks": 24,
          "midi": 78,
          "name": "F#5",
          "ticks": 54415,
          "time": 226.72916666666666,
          "velocity": 0.4094488188976378
        },
        {
          "duration": 0.05833333333333712,
          "durationTicks": 14,
          "midi": 78,
          "name": "F#5",
          "ticks": 54511,
          "time": 227.12916666666666,
          "velocity": 0.5826771653543307
        },
        {
          "duration": 0.04999999999998295,
          "durationTicks": 12,
          "midi": 98,
          "name": "D7",
          "ticks": 54561,
          "time": 227.3375,
          "velocity": 0.5590551181102362
        },
        {
          "duration": 0.0625,
          "durationTicks": 15,
          "midi": 98,
          "name": "D7",
          "ticks": 54587,
          "time": 227.44583333333333,
          "velocity": 0.5669291338582677
        },
        {
          "duration": 0.04166666666665719,
          "durationTicks": 10,
          "midi": 79,
          "name": "G5",
          "ticks": 54688,
          "time": 227.86666666666667,
          "velocity": 0.7007874015748031
        },
        {
          "duration": 0.1291666666666913,
          "durationTicks": 31,
          "midi": 98,
          "name": "D7",
          "ticks": 54753,
          "time": 228.1375,
          "velocity": 0.5511811023622047
        },
        {
          "duration": 0.32916666666667993,
          "durationTicks": 79,
          "midi": 55,
          "name": "G3",
          "ticks": 54820,
          "time": 228.41666666666666,
          "velocity": 0.7637795275590551
        },
        {
          "duration": 0.6208333333333371,
          "durationTicks": 149,
          "midi": 31,
          "name": "G1",
          "ticks": 54861,
          "time": 228.5875,
          "velocity": 0.5433070866141733
        },
        {
          "duration": 0.04166666666665719,
          "durationTicks": 10,
          "midi": 81,
          "name": "A5",
          "ticks": 54899,
          "time": 228.74583333333334,
          "velocity": 0.2440944881889764
        },
        {
          "duration": 0.17083333333332007,
          "durationTicks": 41,
          "midi": 55,
          "name": "G3",
          "ticks": 54914,
          "time": 228.80833333333334,
          "velocity": 0.5354330708661418
        },
        {
          "duration": 0.19166666666666288,
          "durationTicks": 46,
          "midi": 62,
          "name": "D4",
          "ticks": 54957,
          "time": 228.9875,
          "velocity": 0.4566929133858268
        },
        {
          "duration": 0.05000000000001137,
          "durationTicks": 12,
          "midi": 76,
          "name": "E5",
          "ticks": 55022,
          "time": 229.25833333333333,
          "velocity": 0.5354330708661418
        },
        {
          "duration": 0.05000000000001137,
          "durationTicks": 12,
          "midi": 99,
          "name": "D#7",
          "ticks": 55082,
          "time": 229.50833333333333,
          "velocity": 0.5826771653543307
        },
        {
          "duration": 0.07916666666667993,
          "durationTicks": 19,
          "midi": 98,
          "name": "D7",
          "ticks": 55106,
          "time": 229.60833333333332,
          "velocity": 0.6929133858267716
        },
        {
          "duration": 0.29999999999998295,
          "durationTicks": 72,
          "midi": 28,
          "name": "E1",
          "ticks": 55168,
          "time": 229.86666666666667,
          "velocity": 0.5433070866141733
        },
        {
          "duration": 0.037499999999994316,
          "durationTicks": 9,
          "midi": 67,
          "name": "G4",
          "ticks": 55219,
          "time": 230.07916666666668,
          "velocity": 0.4251968503937008
        },
        {
          "duration": 0.07916666666667993,
          "durationTicks": 19,
          "midi": 40,
          "name": "E2",
          "ticks": 55262,
          "time": 230.25833333333333,
          "velocity": 0.23622047244094488
        },
        {
          "duration": 0.1291666666666913,
          "durationTicks": 31,
          "midi": 79,
          "name": "G5",
          "ticks": 55293,
          "time": 230.3875,
          "velocity": 0.5984251968503937
        },
        {
          "duration": 0.2708333333333428,
          "durationTicks": 65,
          "midi": 64,
          "name": "E4",
          "ticks": 55406,
          "time": 230.85833333333332,
          "velocity": 0.4409448818897638
        },
        {
          "duration": 0.07083333333332575,
          "durationTicks": 17,
          "midi": 78,
          "name": "F#5",
          "ticks": 55478,
          "time": 231.15833333333333,
          "velocity": 0.5433070866141733
        },
        {
          "duration": 0.15833333333333144,
          "durationTicks": 38,
          "midi": 59,
          "name": "B3",
          "ticks": 55653,
          "time": 231.8875,
          "velocity": 0.7007874015748031
        },
        {
          "duration": 0.2708333333333428,
          "durationTicks": 65,
          "midi": 28,
          "name": "E1",
          "ticks": 55859,
          "time": 232.74583333333334,
          "velocity": 0.49606299212598426
        },
        {
          "duration": 0.28333333333333144,
          "durationTicks": 68,
          "midi": 28,
          "name": "E1",
          "ticks": 55955,
          "time": 233.14583333333334,
          "velocity": 0.4566929133858268
        },
        {
          "duration": 0.13749999999998863,
          "durationTicks": 33,
          "midi": 40,
          "name": "E2",
          "ticks": 56047,
          "time": 233.52916666666667,
          "velocity": 0.41732283464566927
        },
        {
          "duration": 0.08333333333334281,
          "durationTicks": 20,
          "midi": 76,
          "name": "E5",
          "ticks": 56087,
          "time": 233.69583333333333,
          "velocity": 0.49606299212598426
        },
        {
          "duration": 0.19999999999998863,
          "durationTicks": 48,
          "midi": 33,
          "name": "A1",
          "ticks": 56104,
          "time": 233.76666666666668,
          "velocity": 0.5354330708661418
        },
        {
          "duration": 0.15000000000000568,
          "durationTicks": 36,
          "midi": 79,
          "name": "G5",
          "ticks": 56174,
          "time": 234.05833333333334,
          "velocity": 0.5196850393700787
        },
        {
          "duration": 0.5708333333333258,
          "durationTicks": 137,
          "midi": 81,
          "name": "A5",
          "ticks": 56224,
          "time": 234.26666666666668,
          "velocity": 0.5669291338582677
        },
        {
          "duration": 0.07083333333332575,
          "durationTicks": 17,
          "midi": 45,
          "name": "A2",
          "ticks": 56375,
          "time": 234.89583333333334,
          "velocity": 0.41732283464566927
        },
        {
          "duration": 0.11250000000001137,
          "durationTicks": 27,
          "midi": 74,
          "name": "D5",
          "ticks": 56387,
          "time": 234.94583333333333,
          "velocity": 0.5590551181102362
        },
        {
          "duration": 0.0625,
          "durationTicks": 15,
          "midi": 32,
          "name": "G#1",
          "ticks": 56519,
          "time": 235.49583333333334,
          "velocity": 0.6456692913385826
        },
        {
          "duration": 0.13333333333332575,
          "durationTicks": 32,
          "midi": 32,
          "name": "G#1",
          "ticks": 56543,
          "time": 235.59583333333333,
          "velocity": 0.5196850393700787
        },
        {
          "duration": 0.05833333333333712,
          "durationTicks": 14,
          "midi": 32,
          "name": "G#1",
          "ticks": 56587,
          "time": 235.77916666666667,
          "velocity": 0.5748031496062992
        },
        {
          "duration": 0.24166666666667425,
          "durationTicks": 58,
          "midi": 69,
          "name": "A4",
          "ticks": 56603,
          "time": 235.84583333333333,
          "velocity": 0.6062992125984252
        },
        {
          "duration": 0.2916666666666572,
          "durationTicks": 70,
          "midi": 98,
          "name": "D7",
          "ticks": 56824,
          "time": 236.76666666666668,
          "velocity": 0.6614173228346457
        },
        {
          "duration": 0.4124999999999943,
          "durationTicks": 99,
          "midi": 31,
          "name": "G1",
          "ticks": 56908,
          "time": 237.11666666666667,
          "velocity": 0.5590551181102362
        },
        {
          "duration": 0.05000000000001137,
          "durationTicks": 12,
          "midi": 42,
          "name": "F#2",
          "ticks": 57011,
          "time": 237.54583333333332,
          "velocity": 0.3858267716535433
        },
        {
          "duration": 0.16249999999999432,
          "durationTicks": 39,
          "midi": 32,
          "name": "G#1",
          "ticks": 57059,
          "time": 237.74583333333334,
          "velocity": 0.3543307086614173
        },
        {
          "duration": 0.15000000000000568,
          "durationTicks": 36,
          "midi": 92,
          "name": "G#6",
          "ticks": 57105,
          "time": 237.9375,
          "velocity": 0.5984251968503937
        },
        {
          "duration": 0.17916666666667425,
          "durationTicks": 43,
          "midi": 65,
          "name": "F4",
          "ticks": 57158,
          "time": 238.15833333333333,
          "velocity": 0.4409448818897638
        },
        {
          "duration": 0.07916666666667993,
          "durationTicks": 19,
          "midi": 62,
          "name": "D4",
          "ticks": 57220,
          "time": 238.41666666666666,
          "velocity": 0.6299212598425197
        },
        {
          "duration": 0.08750000000000568,
          "durationTicks": 21,
          "midi": 40,
          "name": "E2",
          "ticks": 57242,
          "time": 238.50833333333333,
          "velocity": 0.5354330708661418
        },
        {
          "duration": 0.17916666666664582,
          "durationTicks": 43,
          "midi": 98,
          "name": "D7",
          "ticks": 57259,
          "time": 238.57916666666668,
          "velocity": 0.6456692913385826
        },
        {
          "duration": 0.05000000000001137,
          "durationTicks": 12,
          "midi": 90,
          "name": "F#6",
          "ticks": 57323,
          "time": 238.84583333333333,
          "velocity": 0.3858267716535433
        },
        {
          "duration": 0.09999999999999432,
          "durationTicks": 24,
          "midi": 79,
          "name": "G5",
          "ticks": 57376,
          "time": 239.06666666666666,
          "velocity": 0.6062992125984252
        },
        {
          "duration": 0.07916666666667993,
          "durationTicks": 19,
          "midi": 64,
          "name": "E4",
          "ticks": 57400,
          "time": 239.16666666666666,
          "velocity": 0.4645669291338583
        },
        {
          "duration": 0.09999999999999432,
          "durationTicks": 24,
          "midi": 67,
          "name": "G4",
          "ticks": 57434,
          "time": 239.30833333333334,
          "velocity": 0.5118110236220472
        },
        {
          "duration": 0.037499999999994316,
          "durationTicks": 9,
          "midi": 52,
          "name": "E3",
          "ticks": 57494,
          "time": 239.55833333333334,
          "velocity": 0.4566929133858268
        },
        {
          "duration": 0.16249999999999432,
          "durationTicks": 39,
          "midi": 71,
          "name": "B4",
          "ticks": 57508,
          "time": 239.61666666666667,
          "velocity": 0.49606299212598426
        },
        {
          "duration": 0.07083333333335418,
          "durationTicks": 17,
          "midi": 83,
          "name": "B5",
          "ticks": 57566,
          "time": 239.85833333333332,
          "velocity": 0.5275590551181102
        },
        {
          "duration": 0.14166666666667993,
          "durationTicks": 34,
          "midi": 55,
          "name": "G3",
          "ticks": 57585,
          "time": 239.9375,
          "velocity": 0.47244094488188976
        },
        {
          "duration": 0.11250000000001137,
          "durationTicks": 27,
          "midi": 68,
          "name": "G#4",
          "ticks": 57647,
          "time": 240.19583333333333,
          "velocity": 0.41732283464566927
        },
        {
          "duration": 0.8791666666666629,
          "durationTicks": 211,
          "midi": 26,
          "name": "D1",
          "ticks": 57700,
          "time": 240.41666666666666,
          "velocity": 0.5039370078740157
        },
        {
          "duration": 0.07916666666665151,
          "durationTicks": 19,
          "midi": 59,
          "name": "B3",
          "ticks": 57921,
          "time": 241.3375,
          "velocity": 0.4094488188976378
        },
        {
          "duration": 0.40833333333333144,
          "durationTicks": 98,
          "midi": 31,
          "name": "G1",
          "ticks": 57957,
          "time": 241.4875,
          "velocity": 0.5984251968503937
        },
        {
          "duration": 0.15833333333333144,
          "durationTicks": 38,
          "midi": 59,
          "name": "B3",
          "ticks": 58101,
          "time": 242.0875,
          "velocity": 0.4015748031496063
        },
        {
          "duration": 0.09166666666666856,
          "durationTicks": 22,
          "midi": 43,
          "name": "G2",
          "ticks": 58139,
          "time": 242.24583333333334,
          "velocity": 0.4251968503937008
        },
        {
          "duration": 0.0583333333333087,
          "durationTicks": 14,
          "midi": 104,
          "name": "G#7",
          "ticks": 58159,
          "time": 242.32916666666668,
          "velocity": 0.4645669291338583
        },
        {
          "duration": 0.05833333333333712,
          "durationTicks": 14,
          "midi": 67,
          "name": "G4",
          "ticks": 58173,
          "time": 242.3875,
          "velocity": 0.3858267716535433
        },
        {
          "duration": 0.04999999999998295,
          "durationTicks": 12,
          "midi": 37,
          "name": "C#2",
          "ticks": 58199,
          "time": 242.49583333333334,
          "velocity": 0.33070866141732286
        },
        {
          "duration": 0.16249999999999432,
          "durationTicks": 39,
          "midi": 62,
          "name": "D4",
          "ticks": 58216,
          "time": 242.56666666666666,
          "velocity": 0.5748031496062992
        },
        {
          "duration": 0.04166666666665719,
          "durationTicks": 10,
          "midi": 81,
          "name": "A5",
          "ticks": 58281,
          "time": 242.8375,
          "velocity": 0.5196850393700787
        },
        {
          "duration": 0.29999999999998295,
          "durationTicks": 72,
          "midi": 76,
          "name": "E5",
          "ticks": 58339,
          "time": 243.07916666666668,
          "velocity": 0.6614173228346457
        },
        {
          "duration": 0.1708333333333485,
          "durationTicks": 41,
          "midi": 64,
          "name": "E4",
          "ticks": 58360,
          "time": 243.16666666666666,
          "velocity": 0.6220472440944882
        },
        {
          "duration": 0.0625,
          "durationTicks": 15,
          "midi": 83,
          "name": "B5",
          "ticks": 58439,
          "time": 243.49583333333334,
          "velocity": 0.14960629921259844
        },
        {
          "duration": 0.05833333333333712,
          "durationTicks": 14,
          "midi": 37,
          "name": "C#2",
          "ticks": 58461,
          "time": 243.5875,
          "velocity": 0.25984251968503935
        },
        {
          "duration": 0.05000000000001137,
          "durationTicks": 12,
          "midi": 75,
          "name": "D#5",
          "ticks": 58487,
          "time": 243.69583333333333,
          "velocity": 0.5905511811023622
        },
        {
          "duration": 0.05833333333333712,
          "durationTicks": 14,
          "midi": 79,
          "name": "G5",
          "ticks": 58502,
          "time": 243.75833333333333,
          "velocity": 0.4015748031496063
        },
        {
          "duration": 0.15833333333335986,
          "durationTicks": 38,
          "midi": 76,
          "name": "E5",
          "ticks": 58526,
          "time": 243.85833333333332,
          "velocity": 0.47244094488188976
        },
        {
          "duration": 0.0625,
          "durationTicks": 15,
          "midi": 57,
          "name": "A3",
          "ticks": 58600,
          "time": 244.16666666666666,
          "velocity": 0.3700787401574803
        },
        {
          "duration": 0.07916666666667993,
          "durationTicks": 19,
          "midi": 78,
          "name": "F#5",
          "ticks": 58615,
          "time": 244.22916666666666,
          "velocity": 0.5275590551181102
        },
        {
          "duration": 0.07083333333332575,
          "durationTicks": 17,
          "midi": 62,
          "name": "D4",
          "ticks": 58658,
          "time": 244.40833333333333,
          "velocity": 0.4881889763779528
        },
        {
          "duration": 0.10833333333334849,
          "durationTicks": 26,
          "midi": 78,
          "name": "F#5",
          "ticks": 58689,
          "time": 244.5375,
          "velocity": 0.5433070866141733
        },
        {
          "duration": 0.20833333333331439,
          "durationTicks": 50,
          "midi": 29,
          "name": "F1",
          "ticks": 58783,
          "time": 244.92916666666667,
          "velocity": 0.5354330708661418
        },
        {
          "duration": 0.04166666666665719,
          "durationTicks": 10,
          "midi": 76,
          "name": "E5",
          "ticks": 58876,
          "time": 245.31666666666666,
          "velocity": 0.49606299212598426
        },
        {
          "duration": 0.0625,
          "durationTicks": 15,
          "midi": 98,
          "name": "D7",
          "ticks": 58955,
          "time": 245.64583333333334,
          "velocity": 0.5433070866141733
        },
        {
          "duration": 0.4124999999999943,
          "durationTicks": 99,
          "midi": 31,
          "name": "G1",
          "ticks": 59003,
          "time": 245.84583333333333,
          "velocity": 0.6614173228346457
        },
        {
          "duration": 0.10833333333334849,
          "durationTicks": 26,
          "midi": 30,
          "name": "F#1",
          "ticks": 59193,
          "time": 246.6375,
          "velocity": 0.48031496062992124
        },
        {
          "duration": 0.04166666666665719,
          "durationTicks": 10,
          "midi": 86,
          "name": "D6",
          "ticks": 59236,
          "time": 246.81666666666666,
          "velocity": 0.2755905511811024
        },
        {
          "duration": 0.24166666666667425,
          "durationTicks": 58,
          "midi": 28,
          "name": "E1",
          "ticks": 59267,
          "time": 246.94583333333333,
          "velocity": 0.4881889763779528
        },
        {
          "duration": 0.04999999999998295,
          "durationTicks": 12,
          "midi": 40,
          "name": "E2",
          "ticks": 59337,
          "time": 247.2375,
          "velocity": 0.5826771653543307
        },
        {
          "duration": 0.04999999999998295,
          "durationTicks": 12,
          "midi": 28,
          "name": "E1",
          "ticks": 59359,
          "time": 247.32916666666668,
          "velocity": 0.5748031496062992
        },
        {
          "duration": 0.14999999999997726,
          "durationTicks": 36,
          "midi": 74,
          "name": "D5",
          "ticks": 59397,
          "time": 247.4875,
          "velocity": 0.7165354330708661
        },
        {
          "duration": 0.12083333333333712,
          "durationTicks": 29,
          "midi": 83,
          "name": "B5",
          "ticks": 59469,
          "time": 247.7875,
          "velocity": 0.5590551181102362
        },
        {
          "duration": 0.07083333333335418,
          "durationTicks": 17,
          "midi": 57,
          "name": "A3",
          "ticks": 59546,
          "time": 248.10833333333332,
          "velocity": 0.5905511811023622
        },
        {
          "duration": 0.0583333333333087,
          "durationTicks": 14,
          "midi": 59,
          "name": "B3",
          "ticks": 59577,
          "time": 248.2375,
          "velocity": 0.5905511811023622
        },
        {
          "duration": 0.07916666666667993,
          "durationTicks": 19,
          "midi": 60,
          "name": "C4",
          "ticks": 59596,
          "time": 248.31666666666666,
          "velocity": 0.6456692913385826
        },
        {
          "duration": 0.1875,
          "durationTicks": 45,
          "midi": 83,
          "name": "B5",
          "ticks": 59618,
          "time": 248.40833333333333,
          "velocity": 0.5039370078740157
        },
        {
          "duration": 0.04166666666665719,
          "durationTicks": 10,
          "midi": 84,
          "name": "C6",
          "ticks": 59668,
          "time": 248.61666666666667,
          "velocity": 0.3700787401574803
        },
        {
          "duration": 0.2083333333333428,
          "durationTicks": 50,
          "midi": 62,
          "name": "D4",
          "ticks": 59673,
          "time": 248.6375,
          "velocity": 0.6771653543307087
        },
        {
          "duration": 0.9416666666666629,
          "durationTicks": 226,
          "midi": 26,
          "name": "D1",
          "ticks": 59795,
          "time": 249.14583333333334,
          "velocity": 0.5039370078740157
        },
        {
          "duration": 0.09166666666666856,
          "durationTicks": 22,
          "midi": 38,
          "name": "D2",
          "ticks": 59843,
          "time": 249.34583333333333,
          "velocity": 0.49606299212598426
        },
        {
          "duration": 0.10000000000002274,
          "durationTicks": 24,
          "midi": 57,
          "name": "A3",
          "ticks": 59875,
          "time": 249.47916666666666,
          "velocity": 0.2125984251968504
        },
        {
          "duration": 0.22083333333333144,
          "durationTicks": 53,
          "midi": 59,
          "name": "B3",
          "ticks": 60021,
          "time": 250.0875,
          "velocity": 0.5118110236220472
        },
        {
          "duration": 0.037499999999994316,
          "durationTicks": 9,
          "midi": 79,
          "name": "G5",
          "ticks": 60127,
          "time": 250.52916666666667,
          "velocity": 0.4015748031496063
        },
        {
          "duration": 0.05000000000001137,
          "durationTicks": 12,
          "midi": 28,
          "name": "E1",
          "ticks": 60146,
          "time": 250.60833333333332,
          "velocity": 0.5511811023622047
        },
        {
          "duration": 0.19166666666666288,
          "durationTicks": 46,
          "midi": 60,
          "name": "C4",
          "ticks": 60160,
          "time": 250.66666666666666,
          "velocity": 0.5354330708661418
        },
        {
          "duration": 0.32916666666667993,
          "durationTicks": 79,
          "midi": 55,
          "name": "G3",
          "ticks": 60218,
          "time": 250.90833333333333,
          "velocity": 0.44881889763779526
        },
        {
          "duration": 0.25,
          "durationTicks": 60,
          "midi": 33,
          "name": "A1",
          "ticks": 60295,
          "time": 251.22916666666666,
          "velocity": 0.5669291338582677
        },
        {
          "duration": 0.07916666666665151,
          "durationTicks": 19,
          "midi": 33,
          "name": "A1",
          "ticks": 60583,
          "time": 252.42916666666667,
          "velocity": 0.47244094488188976
        },
        {
          "duration": 0.1416666666666515,
          "durationTicks": 34,
          "midi": 33,
          "name": "A1",
          "ticks": 60635,
          "time": 252.64583333333334,
          "velocity": 0.5118110236220472
        },
        {
          "duration": 0.23750000000001137,
          "durationTicks": 57,
          "midi": 33,
          "name": "A1",
          "ticks": 60686,
          "time": 252.85833333333332,
          "velocity": 0.5511811023622047
        },
        {
          "duration": 0.07916666666667993,
          "durationTicks": 19,
          "midi": 89,
          "name": "F6",
          "ticks": 60789,
          "time": 253.2875,
          "velocity": 0.1968503937007874
        },
        {
          "duration": 0.09166666666666856,
          "durationTicks": 22,
          "midi": 41,
          "name": "F2",
          "ticks": 60808,
          "time": 253.36666666666667,
          "velocity": 0.48031496062992124
        },
        {
          "duration": 0.13750000000001705,
          "durationTicks": 33,
          "midi": 29,
          "name": "F1",
          "ticks": 60835,
          "time": 253.47916666666666,
          "velocity": 0.5196850393700787
        },
        {
          "duration": 0.07916666666665151,
          "durationTicks": 19,
          "midi": 29,
          "name": "F1",
          "ticks": 60883,
          "time": 253.67916666666667,
          "velocity": 0.49606299212598426
        },
        {
          "duration": 0.15000000000000568,
          "durationTicks": 36,
          "midi": 85,
          "name": "C#6",
          "ticks": 60916,
          "time": 253.81666666666666,
          "velocity": 0.31496062992125984
        },
        {
          "duration": 0.15833333333333144,
          "durationTicks": 38,
          "midi": 29,
          "name": "F1",
          "ticks": 61027,
          "time": 254.27916666666667,
          "velocity": 0.5118110236220472
        },
        {
          "duration": 0.17916666666667425,
          "durationTicks": 43,
          "midi": 31,
          "name": "G1",
          "ticks": 61087,
          "time": 254.52916666666667,
          "velocity": 0.5590551181102362
        },
        {
          "duration": 0.24166666666664582,
          "durationTicks": 58,
          "midi": 62,
          "name": "D4",
          "ticks": 61144,
          "time": 254.76666666666668,
          "velocity": 0.5511811023622047
        },
        {
          "duration": 0.07083333333332575,
          "durationTicks": 17,
          "midi": 62,
          "name": "D4",
          "ticks": 61245,
          "time": 255.1875,
          "velocity": 0.28346456692913385
        },
        {
          "duration": 0.1875,
          "durationTicks": 45,
          "midi": 31,
          "name": "G1",
          "ticks": 61279,
          "time": 255.32916666666668,
          "velocity": 0.5590551181102362
        },
        {
          "duration": 0.1875,
          "durationTicks": 45,
          "midi": 33,
          "name": "A1",
          "ticks": 61346,
          "time": 255.60833333333332,
          "velocity": 0.5511811023622047
        },
        {
          "duration": 0.14999999999997726,
          "durationTicks": 36,
          "midi": 64,
          "name": "E4",
          "ticks": 61456,
          "time": 256.06666666666666,
          "velocity": 0.3858267716535433
        },
        {
          "duration": 0.4291666666666174,
          "durationTicks": 103,
          "midi": 55,
          "name": "G3",
          "ticks": 61509,
          "time": 256.2875,
          "velocity": 0.44881889763779526
        },
        {
          "duration": 0.08333333333337123,
          "durationTicks": 20,
          "midi": 45,
          "name": "A2",
          "ticks": 61655,
          "time": 256.8958333333333,
          "velocity": 0.36220472440944884
        },
        {
          "duration": 0.03750000000002274,
          "durationTicks": 9,
          "midi": 33,
          "name": "A1",
          "ticks": 61699,
          "time": 257.07916666666665,
          "velocity": 0.4330708661417323
        },
        {
          "duration": 0.08333333333337123,
          "durationTicks": 20,
          "midi": 45,
          "name": "A2",
          "ticks": 61715,
          "time": 257.1458333333333,
          "velocity": 0.3858267716535433
        },
        {
          "duration": 0.041666666666685614,
          "durationTicks": 10,
          "midi": 55,
          "name": "G3",
          "ticks": 61739,
          "time": 257.24583333333334,
          "velocity": 0.2204724409448819
        },
        {
          "duration": 0.4500000000000455,
          "durationTicks": 108,
          "midi": 33,
          "name": "A1",
          "ticks": 61747,
          "time": 257.27916666666664,
          "velocity": 0.5905511811023622
        },
        {
          "duration": 0.22916666666662877,
          "durationTicks": 55,
          "midi": 38,
          "name": "D2",
          "ticks": 61857,
          "time": 257.7375,
          "velocity": 0.5826771653543307
        },
        {
          "duration": 0.16666666666668561,
          "durationTicks": 40,
          "midi": 38,
          "name": "D2",
          "ticks": 61951,
          "time": 258.12916666666666,
          "velocity": 0.6299212598425197
        },
        {
          "duration": 0.29166666666662877,
          "durationTicks": 70,
          "midi": 38,
          "name": "D2",
          "ticks": 62049,
          "time": 258.5375,
          "velocity": 0.5826771653543307
        },
        {
          "duration": 0.1416666666666515,
          "durationTicks": 34,
          "midi": 31,
          "name": "G1",
          "ticks": 62133,
          "time": 258.8875,
          "velocity": 0.5433070866141733
        },
        {
          "duration": 0.08749999999997726,
          "durationTicks": 21,
          "midi": 53,
          "name": "F3",
          "ticks": 62203,
          "time": 259.1791666666667,
          "velocity": 0.3779527559055118
        },
        {
          "duration": 0.17916666666667425,
          "durationTicks": 43,
          "midi": 31,
          "name": "G1",
          "ticks": 62325,
          "time": 259.6875,
          "velocity": 0.5354330708661418
        },
        {
          "duration": 0.041666666666685614,
          "durationTicks": 10,
          "midi": 55,
          "name": "G3",
          "ticks": 62555,
          "time": 260.6458333333333,
          "velocity": 0.18110236220472442
        },
        {
          "duration": 0.21249999999997726,
          "durationTicks": 51,
          "midi": 83,
          "name": "B5",
          "ticks": 62608,
          "time": 260.8666666666667,
          "velocity": 0.1889763779527559
        },
        {
          "duration": 0.13333333333332575,
          "durationTicks": 32,
          "midi": 88,
          "name": "E6",
          "ticks": 62675,
          "time": 261.1458333333333,
          "velocity": 0.25196850393700787
        },
        {
          "duration": 0.12083333333333712,
          "durationTicks": 29,
          "midi": 36,
          "name": "C2",
          "ticks": 62711,
          "time": 261.29583333333335,
          "velocity": 0.25196850393700787
        },
        {
          "duration": 0.1875,
          "durationTicks": 45,
          "midi": 76,
          "name": "E5",
          "ticks": 62743,
          "time": 261.4291666666667,
          "velocity": 0.3779527559055118
        },
        {
          "duration": 0.17916666666667425,
          "durationTicks": 43,
          "midi": 42,
          "name": "F#2",
          "ticks": 62764,
          "time": 261.51666666666665,
          "velocity": 0.28346456692913385
        },
        {
          "duration": 0.17083333333329165,
          "durationTicks": 41,
          "midi": 42,
          "name": "F#2",
          "ticks": 62831,
          "time": 261.79583333333335,
          "velocity": 0.3858267716535433
        },
        {
          "duration": 0.0999999999999659,
          "durationTicks": 24,
          "midi": 55,
          "name": "G3",
          "ticks": 62935,
          "time": 262.2291666666667,
          "velocity": 0.49606299212598426
        },
        {
          "duration": 0.0625,
          "durationTicks": 15,
          "midi": 74,
          "name": "D5",
          "ticks": 62975,
          "time": 262.3958333333333,
          "velocity": 0.49606299212598426
        },
        {
          "duration": 0.049999999999954525,
          "durationTicks": 12,
          "midi": 60,
          "name": "C4",
          "ticks": 63083,
          "time": 262.84583333333336,
          "velocity": 0.29133858267716534
        },
        {
          "duration": 0.12083333333333712,
          "durationTicks": 29,
          "midi": 29,
          "name": "F1",
          "ticks": 63122,
          "time": 263.0083333333333,
          "velocity": 0.47244094488188976
        },
        {
          "duration": 0.3333333333333144,
          "durationTicks": 80,
          "midi": 31,
          "name": "G1",
          "ticks": 63179,
          "time": 263.24583333333334,
          "velocity": 0.5669291338582677
        },
        {
          "duration": 0.12916666666666288,
          "durationTicks": 31,
          "midi": 62,
          "name": "D4",
          "ticks": 63338,
          "time": 263.90833333333336,
          "velocity": 0.29133858267716534
        },
        {
          "duration": 0.1708333333333485,
          "durationTicks": 41,
          "midi": 31,
          "name": "G1",
          "ticks": 63374,
          "time": 264.05833333333334,
          "velocity": 0.5118110236220472
        },
        {
          "duration": 0.19999999999998863,
          "durationTicks": 48,
          "midi": 33,
          "name": "A1",
          "ticks": 63443,
          "time": 264.34583333333336,
          "velocity": 0.48031496062992124
        },
        {
          "duration": 0.09166666666669698,
          "durationTicks": 22,
          "midi": 78,
          "name": "F#5",
          "ticks": 63501,
          "time": 264.5875,
          "velocity": 0.41732283464566927
        },
        {
          "duration": 0.07083333333332575,
          "durationTicks": 17,
          "midi": 91,
          "name": "G6",
          "ticks": 63585,
          "time": 264.9375,
          "velocity": 0.4251968503937008
        },
        {
          "duration": 0.15833333333335986,
          "durationTicks": 38,
          "midi": 64,
          "name": "E4",
          "ticks": 63607,
          "time": 265.02916666666664,
          "velocity": 0.3464566929133858
        },
        {
          "duration": 0.041666666666685614,
          "durationTicks": 10,
          "midi": 98,
          "name": "D7",
          "ticks": 63659,
          "time": 265.24583333333334,
          "velocity": 0.5511811023622047
        },
        {
          "duration": 0.09166666666664014,
          "durationTicks": 22,
          "midi": 98,
          "name": "D7",
          "ticks": 63683,
          "time": 265.34583333333336,
          "velocity": 0.5669291338582677
        },
        {
          "duration": 0.0875000000000341,
          "durationTicks": 21,
          "midi": 33,
          "name": "A1",
          "ticks": 63722,
          "time": 265.5083333333333,
          "velocity": 0.4881889763779528
        },
        {
          "duration": 0.0625,
          "durationTicks": 15,
          "midi": 99,
          "name": "D#7",
          "ticks": 63755,
          "time": 265.6458333333333,
          "velocity": 0.3779527559055118
        },
        {
          "duration": 0.07083333333332575,
          "durationTicks": 17,
          "midi": 86,
          "name": "D6",
          "ticks": 63789,
          "time": 265.7875,
          "velocity": 0.3543307086614173
        },
        {
          "duration": 0.12083333333328028,
          "durationTicks": 29,
          "midi": 86,
          "name": "D6",
          "ticks": 63818,
          "time": 265.90833333333336,
          "velocity": 0.18110236220472442
        },
        {
          "duration": 0.05000000000001137,
          "durationTicks": 12,
          "midi": 98,
          "name": "D7",
          "ticks": 63851,
          "time": 266.04583333333335,
          "velocity": 0.3228346456692913
        },
        {
          "duration": 0.05000000000001137,
          "durationTicks": 12,
          "midi": 53,
          "name": "F3",
          "ticks": 63950,
          "time": 266.4583333333333,
          "velocity": 0.16535433070866143
        },
        {
          "duration": 0.25,
          "durationTicks": 60,
          "midi": 38,
          "name": "D2",
          "ticks": 63952,
          "time": 266.46666666666664,
          "velocity": 0.6220472440944882
        },
        {
          "duration": 0.05833333333333712,
          "durationTicks": 14,
          "midi": 38,
          "name": "D2",
          "ticks": 64015,
          "time": 266.7291666666667,
          "velocity": 0.5433070866141733
        },
        {
          "duration": 0.03750000000002274,
          "durationTicks": 9,
          "midi": 38,
          "name": "D2",
          "ticks": 64094,
          "time": 267.05833333333334,
          "velocity": 0.1968503937007874
        },
        {
          "duration": 0.1875,
          "durationTicks": 45,
          "midi": 38,
          "name": "D2",
          "ticks": 64147,
          "time": 267.27916666666664,
          "velocity": 0.5905511811023622
        },
        {
          "duration": 0.30000000000001137,
          "durationTicks": 72,
          "midi": 40,
          "name": "E2",
          "ticks": 64211,
          "time": 267.54583333333335,
          "velocity": 0.5984251968503937
        },
        {
          "duration": 0.05000000000001137,
          "durationTicks": 12,
          "midi": 55,
          "name": "G3",
          "ticks": 64257,
          "time": 267.7375,
          "velocity": 0.3858267716535433
        },
        {
          "duration": 0.30000000000001137,
          "durationTicks": 72,
          "midi": 40,
          "name": "E2",
          "ticks": 64310,
          "time": 267.9583333333333,
          "velocity": 0.5275590551181102
        },
        {
          "duration": 0.0625,
          "durationTicks": 15,
          "midi": 62,
          "name": "D4",
          "ticks": 64391,
          "time": 268.29583333333335,
          "velocity": 0.31496062992125984
        },
        {
          "duration": 0.3291666666666515,
          "durationTicks": 79,
          "midi": 40,
          "name": "E2",
          "ticks": 64411,
          "time": 268.37916666666666,
          "velocity": 0.5590551181102362
        },
        {
          "duration": 0.24166666666667425,
          "durationTicks": 58,
          "midi": 33,
          "name": "A1",
          "ticks": 64485,
          "time": 268.6875,
          "velocity": 0.5275590551181102
        },
        {
          "duration": 0.06666666666666288,
          "durationTicks": 16,
          "midi": 74,
          "name": "D5",
          "ticks": 64495,
          "time": 268.7291666666667,
          "velocity": 0.30708661417322836
        },
        {
          "duration": 0.07083333333332575,
          "durationTicks": 17,
          "midi": 64,
          "name": "E4",
          "ticks": 64545,
          "time": 268.9375,
          "velocity": 0.36220472440944884
        },
        {
          "duration": 0.19166666666666288,
          "durationTicks": 46,
          "midi": 45,
          "name": "A2",
          "ticks": 64559,
          "time": 268.99583333333334,
          "velocity": 0.5196850393700787
        },
        {
          "duration": 0.07083333333332575,
          "durationTicks": 17,
          "midi": 45,
          "name": "A2",
          "ticks": 64665,
          "time": 269.4375,
          "velocity": 0.36220472440944884
        },
        {
          "duration": 0.20833333333337123,
          "durationTicks": 50,
          "midi": 45,
          "name": "A2",
          "ticks": 64759,
          "time": 269.82916666666665,
          "velocity": 0.4881889763779528
        },
        {
          "duration": 0.10000000000002274,
          "durationTicks": 24,
          "midi": 45,
          "name": "A2",
          "ticks": 64859,
          "time": 270.24583333333334,
          "velocity": 0.4094488188976378
        },
        {
          "duration": 0.03750000000002274,
          "durationTicks": 9,
          "midi": 33,
          "name": "A1",
          "ticks": 64910,
          "time": 270.4583333333333,
          "velocity": 0.44881889763779526
        },
        {
          "duration": 0.10000000000002274,
          "durationTicks": 24,
          "midi": 45,
          "name": "A2",
          "ticks": 64924,
          "time": 270.51666666666665,
          "velocity": 0.3858267716535433
        },
        {
          "duration": 0.05000000000001137,
          "durationTicks": 12,
          "midi": 76,
          "name": "E5",
          "ticks": 64972,
          "time": 270.71666666666664,
          "velocity": 0.3464566929133858
        },
        {
          "duration": 0.1624999999999659,
          "durationTicks": 39,
          "midi": 45,
          "name": "A2",
          "ticks": 65020,
          "time": 270.9166666666667,
          "velocity": 0.3543307086614173
        },
        {
          "duration": 0.05833333333333712,
          "durationTicks": 14,
          "midi": 34,
          "name": "A#1",
          "ticks": 65071,
          "time": 271.12916666666666,
          "velocity": 0.36220472440944884
        },
        {
          "duration": 0.041666666666685614,
          "durationTicks": 10,
          "midi": 52,
          "name": "E3",
          "ticks": 65085,
          "time": 271.1875,
          "velocity": 0.3779527559055118
        },
        {
          "duration": 0.23750000000001137,
          "durationTicks": 57,
          "midi": 31,
          "name": "G1",
          "ticks": 65174,
          "time": 271.55833333333334,
          "velocity": 0.30708661417322836
        },
        {
          "duration": 0.06666666666671972,
          "durationTicks": 16,
          "midi": 88,
          "name": "E6",
          "ticks": 65227,
          "time": 271.77916666666664,
          "velocity": 0.28346456692913385
        },
        {
          "duration": 0.2583333333333826,
          "durationTicks": 62,
          "midi": 31,
          "name": "G1",
          "ticks": 65287,
          "time": 272.02916666666664,
          "velocity": 0.30708661417322836
        },
        {
          "duration": 0.04166666666662877,
          "durationTicks": 10,
          "midi": 31,
          "name": "G1",
          "ticks": 65351,
          "time": 272.29583333333335,
          "velocity": 0.2125984251968504
        },
        {
          "duration": 0.19999999999998863,
          "durationTicks": 48,
          "midi": 64,
          "name": "E4",
          "ticks": 65368,
          "time": 272.3666666666667,
          "velocity": 0.12598425196850394
        },
        {
          "duration": 0.22916666666668561,
          "durationTicks": 55,
          "midi": 76,
          "name": "E5",
          "ticks": 65428,
          "time": 272.6166666666667,
          "velocity": 0.25984251968503935
        },
        {
          "duration": 0.06666666666671972,
          "durationTicks": 16,
          "midi": 86,
          "name": "D6",
          "ticks": 65467,
          "time": 272.77916666666664,
          "velocity": 0.10236220472440945
        },
        {
          "duration": 0.07916666666665151,
          "durationTicks": 19,
          "midi": 88,
          "name": "E6",
          "ticks": 65488,
          "time": 272.8666666666667,
          "velocity": 0.2047244094488189
        },
        {
          "duration": 0.15833333333335986,
          "durationTicks": 38,
          "midi": 76,
          "name": "E5",
          "ticks": 65493,
          "time": 272.8875,
          "velocity": 0.33858267716535434
        },
        {
          "duration": 0.14999999999997726,
          "durationTicks": 36,
          "midi": 71,
          "name": "B4",
          "ticks": 65591,
          "time": 273.29583333333335,
          "velocity": 0.3700787401574803
        },
        {
          "duration": 0.05833333333333712,
          "durationTicks": 14,
          "midi": 88,
          "name": "E6",
          "ticks": 65685,
          "time": 273.6875,
          "velocity": 0.11811023622047244
        },
        {
          "duration": 0.19999999999998863,
          "durationTicks": 48,
          "midi": 76,
          "name": "E5",
          "ticks": 65687,
          "time": 273.6958333333333,
          "velocity": 0.3858267716535433
        },
        {
          "duration": 0.07916666666670835,
          "durationTicks": 19,
          "midi": 88,
          "name": "E6",
          "ticks": 65750,
          "time": 273.9583333333333,
          "velocity": 0.31496062992125984
        },
        {
          "duration": 0.24166666666667425,
          "durationTicks": 58,
          "midi": 76,
          "name": "E5",
          "ticks": 65759,
          "time": 273.99583333333334,
          "velocity": 0.33070866141732286
        },
        {
          "duration": 0.25,
          "durationTicks": 60,
          "midi": 31,
          "name": "G1",
          "ticks": 65819,
          "time": 274.24583333333334,
          "velocity": 0.3464566929133858
        },
        {
          "duration": 0.05833333333333712,
          "durationTicks": 14,
          "midi": 79,
          "name": "G5",
          "ticks": 65901,
          "time": 274.5875,
          "velocity": 0.08661417322834646
        },
        {
          "duration": 0.22916666666668561,
          "durationTicks": 55,
          "midi": 31,
          "name": "G1",
          "ticks": 65947,
          "time": 274.77916666666664,
          "velocity": 0.2283464566929134
        },
        {
          "duration": 0.32083333333332575,
          "durationTicks": 77,
          "midi": 84,
          "name": "C6",
          "ticks": 66014,
          "time": 275.05833333333334,
          "velocity": 0.4015748031496063
        },
        {
          "duration": 0.16250000000002274,
          "durationTicks": 39,
          "midi": 83,
          "name": "B5",
          "ticks": 66112,
          "time": 275.46666666666664,
          "velocity": 0.5275590551181102
        },
        {
          "duration": 0.05000000000001137,
          "durationTicks": 12,
          "midi": 96,
          "name": "C7",
          "ticks": 66187,
          "time": 275.77916666666664,
          "velocity": 0.1732283464566929
        },
        {
          "duration": 0.25833333333332575,
          "durationTicks": 62,
          "midi": 31,
          "name": "G1",
          "ticks": 66211,
          "time": 275.87916666666666,
          "velocity": 0.31496062992125984
        },
        {
          "duration": 0.19999999999998863,
          "durationTicks": 48,
          "midi": 64,
          "name": "E4",
          "ticks": 66316,
          "time": 276.31666666666666,
          "velocity": 0.2283464566929134
        },
        {
          "duration": 0.11250000000001137,
          "durationTicks": 27,
          "midi": 83,
          "name": "B5",
          "ticks": 66376,
          "time": 276.56666666666666,
          "velocity": 0.13385826771653545
        },
        {
          "duration": 0.15833333333335986,
          "durationTicks": 38,
          "midi": 64,
          "name": "E4",
          "ticks": 66422,
          "time": 276.7583333333333,
          "velocity": 0.15748031496062992
        },
        {
          "duration": 0.22916666666662877,
          "durationTicks": 55,
          "midi": 72,
          "name": "C5",
          "ticks": 66475,
          "time": 276.9791666666667,
          "velocity": 0.4094488188976378
        },
        {
          "duration": 0.08749999999997726,
          "durationTicks": 21,
          "midi": 88,
          "name": "E6",
          "ticks": 66535,
          "time": 277.2291666666667,
          "velocity": 0.23622047244094488
        },
        {
          "duration": 0.049999999999954525,
          "durationTicks": 12,
          "midi": 37,
          "name": "C#2",
          "ticks": 66578,
          "time": 277.40833333333336,
          "velocity": 0.2440944881889764
        },
        {
          "duration": 0.04166666666662877,
          "durationTicks": 10,
          "midi": 60,
          "name": "C4",
          "ticks": 66623,
          "time": 277.59583333333336,
          "velocity": 0.11811023622047244
        },
        {
          "duration": 0.06666666666666288,
          "durationTicks": 16,
          "midi": 64,
          "name": "E4",
          "ticks": 66643,
          "time": 277.6791666666667,
          "velocity": 0.1732283464566929
        },
        {
          "duration": 0.12083333333333712,
          "durationTicks": 29,
          "midi": 79,
          "name": "G5",
          "ticks": 66669,
          "time": 277.7875,
          "velocity": 0.1968503937007874
        },
        {
          "duration": 0.10833333333334849,
          "durationTicks": 26,
          "midi": 74,
          "name": "D5",
          "ticks": 66703,
          "time": 277.9291666666667,
          "velocity": 0.10236220472440945
        },
        {
          "duration": 0.19999999999998863,
          "durationTicks": 48,
          "midi": 76,
          "name": "E5",
          "ticks": 66736,
          "time": 278.06666666666666,
          "velocity": 0.28346456692913385
        },
        {
          "duration": 0.14166666666670835,
          "durationTicks": 34,
          "midi": 74,
          "name": "D5",
          "ticks": 66801,
          "time": 278.3375,
          "velocity": 0.3464566929133858
        },
        {
          "duration": 0.05000000000001137,
          "durationTicks": 12,
          "midi": 88,
          "name": "E6",
          "ticks": 66830,
          "time": 278.4583333333333,
          "velocity": 0.11811023622047244
        },
        {
          "duration": 0.22916666666668561,
          "durationTicks": 55,
          "midi": 35,
          "name": "B1",
          "ticks": 66871,
          "time": 278.62916666666666,
          "velocity": 0.3543307086614173
        },
        {
          "duration": 0.23750000000001137,
          "durationTicks": 57,
          "midi": 72,
          "name": "C5",
          "ticks": 66931,
          "time": 278.87916666666666,
          "velocity": 0.4330708661417323
        },
        {
          "duration": 0.14999999999997726,
          "durationTicks": 36,
          "midi": 71,
          "name": "B4",
          "ticks": 66998,
          "time": 279.15833333333336,
          "velocity": 0.31496062992125984
        },
        {
          "duration": 0.11666666666667425,
          "durationTicks": 28,
          "midi": 72,
          "name": "C5",
          "ticks": 67039,
          "time": 279.32916666666665,
          "velocity": 0.14960629921259844
        },
        {
          "duration": 0.10000000000002274,
          "durationTicks": 24,
          "midi": 76,
          "name": "E5",
          "ticks": 67072,
          "time": 279.46666666666664,
          "velocity": 0.2047244094488189
        },
        {
          "duration": 0.049999999999954525,
          "durationTicks": 12,
          "midi": 52,
          "name": "E3",
          "ticks": 67178,
          "time": 279.90833333333336,
          "velocity": 0.3228346456692913
        },
        {
          "duration": 0.22083333333335986,
          "durationTicks": 53,
          "midi": 64,
          "name": "E4",
          "ticks": 67264,
          "time": 280.26666666666665,
          "velocity": 0.4094488188976378
        },
        {
          "duration": 0.07916666666665151,
          "durationTicks": 19,
          "midi": 34,
          "name": "A#1",
          "ticks": 67274,
          "time": 280.30833333333334,
          "velocity": 0.3543307086614173
        },
        {
          "duration": 0.12916666666666288,
          "durationTicks": 31,
          "midi": 76,
          "name": "E5",
          "ticks": 67329,
          "time": 280.5375,
          "velocity": 0.4015748031496063
        },
        {
          "duration": 0.1624999999999659,
          "durationTicks": 39,
          "midi": 74,
          "name": "D5",
          "ticks": 67391,
          "time": 280.79583333333335,
          "velocity": 0.4015748031496063
        },
        {
          "duration": 0.03750000000002274,
          "durationTicks": 9,
          "midi": 88,
          "name": "E6",
          "ticks": 67447,
          "time": 281.02916666666664,
          "velocity": 0.2755905511811024
        },
        {
          "duration": 0.10833333333334849,
          "durationTicks": 26,
          "midi": 79,
          "name": "G5",
          "ticks": 67461,
          "time": 281.0875,
          "velocity": 0.14173228346456693
        },
        {
          "duration": 0.10000000000002274,
          "durationTicks": 24,
          "midi": 88,
          "name": "E6",
          "ticks": 67519,
          "time": 281.32916666666665,
          "velocity": 0.23622047244094488
        },
        {
          "duration": 0.12083333333333712,
          "durationTicks": 29,
          "midi": 88,
          "name": "E6",
          "ticks": 67576,
          "time": 281.56666666666666,
          "velocity": 0.30708661417322836
        },
        {
          "duration": 0.1708333333333485,
          "durationTicks": 41,
          "midi": 76,
          "name": "E5",
          "ticks": 67588,
          "time": 281.6166666666667,
          "velocity": 0.3228346456692913
        },
        {
          "duration": 0.16250000000002274,
          "durationTicks": 39,
          "midi": 71,
          "name": "B4",
          "ticks": 67684,
          "time": 282.01666666666665,
          "velocity": 0.3937007874015748
        },
        {
          "duration": 0.11666666666667425,
          "durationTicks": 28,
          "midi": 88,
          "name": "E6",
          "ticks": 67771,
          "time": 282.37916666666666,
          "velocity": 0.13385826771653545
        },
        {
          "duration": 0.21666666666664014,
          "durationTicks": 52,
          "midi": 76,
          "name": "E5",
          "ticks": 67783,
          "time": 282.4291666666667,
          "velocity": 0.36220472440944884
        },
        {
          "duration": 0.10000000000002274,
          "durationTicks": 24,
          "midi": 88,
          "name": "E6",
          "ticks": 67845,
          "time": 282.6875,
          "velocity": 0.2283464566929134
        },
        {
          "duration": 0.27083333333337123,
          "durationTicks": 65,
          "midi": 76,
          "name": "E5",
          "ticks": 67850,
          "time": 282.7083333333333,
          "velocity": 0.33858267716535434
        },
        {
          "duration": 0.25,
          "durationTicks": 60,
          "midi": 31,
          "name": "G1",
          "ticks": 67915,
          "time": 282.9791666666667,
          "velocity": 0.3543307086614173
        },
        {
          "duration": 0.07916666666665151,
          "durationTicks": 19,
          "midi": 59,
          "name": "B3",
          "ticks": 67953,
          "time": 283.1375,
          "velocity": 0.14173228346456693
        },
        {
          "duration": 0.037499999999965894,
          "durationTicks": 9,
          "midi": 86,
          "name": "D6",
          "ticks": 68095,
          "time": 283.7291666666667,
          "velocity": 0.25196850393700787
        },
        {
          "duration": 0.40833333333335986,
          "durationTicks": 98,
          "midi": 84,
          "name": "C6",
          "ticks": 68107,
          "time": 283.77916666666664,
          "velocity": 0.47244094488188976
        },
        {
          "duration": 0.04166666666662877,
          "durationTicks": 10,
          "midi": 96,
          "name": "C7",
          "ticks": 68140,
          "time": 283.9166666666667,
          "velocity": 0.4015748031496063
        },
        {
          "duration": 0.05000000000001137,
          "durationTicks": 12,
          "midi": 96,
          "name": "C7",
          "ticks": 68282,
          "time": 284.5083333333333,
          "velocity": 0.1732283464566929
        },
        {
          "duration": 0.25,
          "durationTicks": 60,
          "midi": 81,
          "name": "A5",
          "ticks": 68306,
          "time": 284.60833333333335,
          "velocity": 0.4094488188976378
        },
        {
          "duration": 0.38749999999998863,
          "durationTicks": 93,
          "midi": 83,
          "name": "B5",
          "ticks": 68371,
          "time": 284.87916666666666,
          "velocity": 0.5039370078740157
        },
        {
          "duration": 0.14999999999997726,
          "durationTicks": 36,
          "midi": 43,
          "name": "G2",
          "ticks": 68411,
          "time": 285.04583333333335,
          "velocity": 0.44881889763779526
        },
        {
          "duration": 0.5708333333333258,
          "durationTicks": 137,
          "midi": 81,
          "name": "A5",
          "ticks": 68462,
          "time": 285.2583333333333,
          "velocity": 0.4330708661417323
        },
        {
          "duration": 0.07916666666665151,
          "durationTicks": 19,
          "midi": 91,
          "name": "G6",
          "ticks": 68565,
          "time": 285.6875,
          "velocity": 0.3228346456692913
        },
        {
          "duration": 0.30000000000001137,
          "durationTicks": 72,
          "midi": 83,
          "name": "B5",
          "ticks": 68683,
          "time": 286.1791666666667,
          "velocity": 0.48031496062992124
        },
        {
          "duration": 0.1875,
          "durationTicks": 45,
          "midi": 84,
          "name": "C6",
          "ticks": 68762,
          "time": 286.5083333333333,
          "velocity": 0.4645669291338583
        },
        {
          "duration": 0.15833333333335986,
          "durationTicks": 38,
          "midi": 86,
          "name": "D6",
          "ticks": 68827,
          "time": 286.77916666666664,
          "velocity": 0.41732283464566927
        },
        {
          "duration": 0.15833333333330302,
          "durationTicks": 38,
          "midi": 88,
          "name": "E6",
          "ticks": 68894,
          "time": 287.05833333333334,
          "velocity": 0.49606299212598426
        },
        {
          "duration": 0.07083333333332575,
          "durationTicks": 17,
          "midi": 86,
          "name": "D6",
          "ticks": 68925,
          "time": 287.1875,
          "velocity": 0.3464566929133858
        },
        {
          "duration": 0.1791666666666174,
          "durationTicks": 43,
          "midi": 86,
          "name": "D6",
          "ticks": 68949,
          "time": 287.2875,
          "velocity": 0.49606299212598426
        },
        {
          "duration": 0.14999999999997726,
          "durationTicks": 36,
          "midi": 98,
          "name": "D7",
          "ticks": 68978,
          "time": 287.40833333333336,
          "velocity": 0.29133858267716534
        },
        {
          "duration": 0.11250000000001137,
          "durationTicks": 27,
          "midi": 88,
          "name": "E6",
          "ticks": 68992,
          "time": 287.46666666666664,
          "velocity": 0.2204724409448819
        },
        {
          "duration": 0.13749999999998863,
          "durationTicks": 33,
          "midi": 84,
          "name": "C6",
          "ticks": 69031,
          "time": 287.62916666666666,
          "velocity": 0.4566929133858268
        },
        {
          "duration": 0.10000000000002274,
          "durationTicks": 24,
          "midi": 86,
          "name": "D6",
          "ticks": 69059,
          "time": 287.74583333333334,
          "velocity": 0.1889763779527559
        },
        {
          "duration": 0.05833333333333712,
          "durationTicks": 14,
          "midi": 60,
          "name": "C4",
          "ticks": 69069,
          "time": 287.7875,
          "velocity": 0.1889763779527559
        },
        {
          "duration": 0.05833333333333712,
          "durationTicks": 14,
          "midi": 86,
          "name": "D6",
          "ticks": 69103,
          "time": 287.9291666666667,
          "velocity": 0.10236220472440945
        },
        {
          "duration": 0.13333333333332575,
          "durationTicks": 32,
          "midi": 76,
          "name": "E5",
          "ticks": 69167,
          "time": 288.1958333333333,
          "velocity": 0.2125984251968504
        },
        {
          "duration": 0.06666666666666288,
          "durationTicks": 16,
          "midi": 96,
          "name": "C7",
          "ticks": 69199,
          "time": 288.32916666666665,
          "velocity": 0.16535433070866143
        },
        {
          "duration": 0.2125000000000341,
          "durationTicks": 51,
          "midi": 32,
          "name": "G#1",
          "ticks": 69215,
          "time": 288.3958333333333,
          "velocity": 0.33070866141732286
        },
        {
          "duration": 0.07083333333332575,
          "durationTicks": 17,
          "midi": 83,
          "name": "B5",
          "ticks": 69230,
          "time": 288.4583333333333,
          "velocity": 0.1732283464566929
        },
        {
          "duration": 0.05000000000001137,
          "durationTicks": 12,
          "midi": 52,
          "name": "E3",
          "ticks": 69273,
          "time": 288.6375,
          "velocity": 0.33070866141732286
        },
        {
          "duration": 0.13749999999998863,
          "durationTicks": 33,
          "midi": 45,
          "name": "A2",
          "ticks": 69374,
          "time": 289.05833333333334,
          "velocity": 0.33070866141732286
        },
        {
          "duration": 0.0875000000000341,
          "durationTicks": 21,
          "midi": 88,
          "name": "E6",
          "ticks": 69410,
          "time": 289.2083333333333,
          "velocity": 0.33070866141732286
        },
        {
          "duration": 0.14999999999997726,
          "durationTicks": 36,
          "midi": 76,
          "name": "E5",
          "ticks": 69446,
          "time": 289.35833333333335,
          "velocity": 0.4251968503937008
        },
        {
          "duration": 0.07916666666665151,
          "durationTicks": 19,
          "midi": 88,
          "name": "E6",
          "ticks": 69448,
          "time": 289.3666666666667,
          "velocity": 0.41732283464566927
        },
        {
          "duration": 0.0999999999999659,
          "durationTicks": 24,
          "midi": 88,
          "name": "E6",
          "ticks": 69520,
          "time": 289.6666666666667,
          "velocity": 0.3543307086614173
        },
        {
          "duration": 0.07916666666665151,
          "durationTicks": 19,
          "midi": 88,
          "name": "E6",
          "ticks": 69614,
          "time": 290.05833333333334,
          "velocity": 0.3464566929133858
        },
        {
          "duration": 0.07083333333332575,
          "durationTicks": 17,
          "midi": 76,
          "name": "E5",
          "ticks": 69707,
          "time": 290.4458333333333,
          "velocity": 0.2125984251968504
        },
        {
          "duration": 0.05833333333328028,
          "durationTicks": 14,
          "midi": 62,
          "name": "D4",
          "ticks": 69758,
          "time": 290.65833333333336,
          "velocity": 0.29133858267716534
        },
        {
          "duration": 0.12916666666666288,
          "durationTicks": 31,
          "midi": 71,
          "name": "B4",
          "ticks": 69782,
          "time": 290.7583333333333,
          "velocity": 0.47244094488188976
        },
        {
          "duration": 0.1500000000000341,
          "durationTicks": 36,
          "midi": 76,
          "name": "E5",
          "ticks": 69875,
          "time": 291.1458333333333,
          "velocity": 0.4015748031496063
        },
        {
          "duration": 0.07916666666665151,
          "durationTicks": 19,
          "midi": 88,
          "name": "E6",
          "ticks": 69957,
          "time": 291.4875,
          "velocity": 0.33070866141732286
        },
        {
          "duration": 0.27916666666664014,
          "durationTicks": 67,
          "midi": 31,
          "name": "G1",
          "ticks": 70003,
          "time": 291.6791666666667,
          "velocity": 0.4015748031496063
        },
        {
          "duration": 0.037499999999965894,
          "durationTicks": 9,
          "midi": 88,
          "name": "E6",
          "ticks": 70058,
          "time": 291.90833333333336,
          "velocity": 0.3779527559055118
        },
        {
          "duration": 0.23749999999995453,
          "durationTicks": 57,
          "midi": 31,
          "name": "G1",
          "ticks": 70135,
          "time": 292.2291666666667,
          "velocity": 0.2047244094488189
        },
        {
          "duration": 0.30000000000001137,
          "durationTicks": 72,
          "midi": 84,
          "name": "C6",
          "ticks": 70204,
          "time": 292.51666666666665,
          "velocity": 0.4094488188976378
        },
        {
          "duration": 0.25,
          "durationTicks": 60,
          "midi": 41,
          "name": "F2",
          "ticks": 70245,
          "time": 292.6875,
          "velocity": 0.5196850393700787
        },
        {
          "duration": 0.13749999999998863,
          "durationTicks": 33,
          "midi": 83,
          "name": "B5",
          "ticks": 70303,
          "time": 292.9291666666667,
          "velocity": 0.6299212598425197
        },
        {
          "duration": 0.07916666666670835,
          "durationTicks": 19,
          "midi": 57,
          "name": "A3",
          "ticks": 70310,
          "time": 292.9583333333333,
          "velocity": 0.3228346456692913
        },
        {
          "duration": 0.05000000000001137,
          "durationTicks": 12,
          "midi": 96,
          "name": "C7",
          "ticks": 70377,
          "time": 293.2375,
          "velocity": 0.12598425196850394
        },
        {
          "duration": 0.2999999999999545,
          "durationTicks": 72,
          "midi": 57,
          "name": "A3",
          "ticks": 70389,
          "time": 293.2875,
          "velocity": 0.3228346456692913
        },
        {
          "duration": 0.05833333333333712,
          "durationTicks": 14,
          "midi": 88,
          "name": "E6",
          "ticks": 70497,
          "time": 293.7375,
          "velocity": 0.25984251968503935
        },
        {
          "duration": 0.17083333333329165,
          "durationTicks": 41,
          "midi": 74,
          "name": "D5",
          "ticks": 70600,
          "time": 294.1666666666667,
          "velocity": 0.4015748031496063
        },
        {
          "duration": 0.24166666666667425,
          "durationTicks": 58,
          "midi": 72,
          "name": "C5",
          "ticks": 70665,
          "time": 294.4375,
          "velocity": 0.4409448818897638
        },
        {
          "duration": 0.07083333333332575,
          "durationTicks": 17,
          "midi": 88,
          "name": "E6",
          "ticks": 70727,
          "time": 294.6958333333333,
          "velocity": 0.18110236220472442
        },
        {
          "duration": 0.10000000000002274,
          "durationTicks": 24,
          "midi": 72,
          "name": "C5",
          "ticks": 70761,
          "time": 294.8375,
          "velocity": 0.18110236220472442
        },
        {
          "duration": 0.18333333333333712,
          "durationTicks": 44,
          "midi": 31,
          "name": "G1",
          "ticks": 70787,
          "time": 294.9458333333333,
          "velocity": 0.25196850393700787
        },
        {
          "duration": 0.03750000000002274,
          "durationTicks": 9,
          "midi": 79,
          "name": "G5",
          "ticks": 70862,
          "time": 295.2583333333333,
          "velocity": 0.1968503937007874
        },
        {
          "duration": 0.03750000000002274,
          "durationTicks": 9,
          "midi": 60,
          "name": "C4",
          "ticks": 70910,
          "time": 295.4583333333333,
          "velocity": 0.11811023622047244
        },
        {
          "duration": 0.05000000000001137,
          "durationTicks": 12,
          "midi": 88,
          "name": "E6",
          "ticks": 70922,
          "time": 295.5083333333333,
          "velocity": 0.15748031496062992
        },
        {
          "duration": 0.13750000000004547,
          "durationTicks": 33,
          "midi": 76,
          "name": "E5",
          "ticks": 70927,
          "time": 295.52916666666664,
          "velocity": 0.33858267716535434
        },
        {
          "duration": 0.0999999999999659,
          "durationTicks": 24,
          "midi": 55,
          "name": "G3",
          "ticks": 70960,
          "time": 295.6666666666667,
          "velocity": 0.3937007874015748
        },
        {
          "duration": 0.11666666666667425,
          "durationTicks": 28,
          "midi": 76,
          "name": "E5",
          "ticks": 71023,
          "time": 295.9291666666667,
          "velocity": 0.4251968503937008
        },
        {
          "duration": 0.10000000000002274,
          "durationTicks": 24,
          "midi": 62,
          "name": "D4",
          "ticks": 71030,
          "time": 295.9583333333333,
          "velocity": 0.2047244094488189
        },
        {
          "duration": 0.0999999999999659,
          "durationTicks": 24,
          "midi": 86,
          "name": "D6",
          "ticks": 71051,
          "time": 296.04583333333335,
          "velocity": 0.25984251968503935
        },
        {
          "duration": 0.14999999999997726,
          "durationTicks": 36,
          "midi": 62,
          "name": "D4",
          "ticks": 71078,
          "time": 296.15833333333336,
          "velocity": 0.2283464566929134
        },
        {
          "duration": 0.07083333333332575,
          "durationTicks": 17,
          "midi": 88,
          "name": "E6",
          "ticks": 71097,
          "time": 296.2375,
          "velocity": 0.2125984251968504
        },
        {
          "duration": 0.17916666666667425,
          "durationTicks": 43,
          "midi": 72,
          "name": "C5",
          "ticks": 71126,
          "time": 296.35833333333335,
          "velocity": 0.4094488188976378
        },
        {
          "duration": 0.14999999999997726,
          "durationTicks": 36,
          "midi": 71,
          "name": "B4",
          "ticks": 71186,
          "time": 296.60833333333335,
          "velocity": 0.5118110236220472
        },
        {
          "duration": 0.12916666666671972,
          "durationTicks": 31,
          "midi": 72,
          "name": "C5",
          "ticks": 71227,
          "time": 296.77916666666664,
          "velocity": 0.33858267716535434
        },
        {
          "duration": 0.07083333333332575,
          "durationTicks": 17,
          "midi": 88,
          "name": "E6",
          "ticks": 71248,
          "time": 296.8666666666667,
          "velocity": 0.25196850393700787
        },
        {
          "duration": 0.20000000000004547,
          "durationTicks": 48,
          "midi": 57,
          "name": "A3",
          "ticks": 71330,
          "time": 297.2083333333333,
          "velocity": 0.30708661417322836
        },
        {
          "duration": 0.07083333333332575,
          "durationTicks": 17,
          "midi": 88,
          "name": "E6",
          "ticks": 71445,
          "time": 297.6875,
          "velocity": 0.2677165354330709
        },
        {
          "duration": 0.19999999999998863,
          "durationTicks": 48,
          "midi": 57,
          "name": "A3",
          "ticks": 71455,
          "time": 297.7291666666667,
          "velocity": 0.41732283464566927
        },
        {
          "duration": 0.05833333333333712,
          "durationTicks": 14,
          "midi": 45,
          "name": "A2",
          "ticks": 71469,
          "time": 297.7875,
          "velocity": 0.3858267716535433
        },
        {
          "duration": 0.03750000000002274,
          "durationTicks": 9,
          "midi": 88,
          "name": "E6",
          "ticks": 71510,
          "time": 297.9583333333333,
          "velocity": 0.4015748031496063
        },
        {
          "duration": 0.283333333333303,
          "durationTicks": 68,
          "midi": 76,
          "name": "E5",
          "ticks": 71519,
          "time": 297.99583333333334,
          "velocity": 0.4645669291338583
        },
        {
          "duration": 0.0875000000000341,
          "durationTicks": 21,
          "midi": 91,
          "name": "G6",
          "ticks": 71642,
          "time": 298.5083333333333,
          "velocity": 0.2992125984251969
        },
        {
          "duration": 0.18333333333333712,
          "durationTicks": 44,
          "midi": 64,
          "name": "E4",
          "ticks": 71651,
          "time": 298.54583333333335,
          "velocity": 0.23622047244094488
        },
        {
          "duration": 0.05000000000001137,
          "durationTicks": 12,
          "midi": 79,
          "name": "G5",
          "ticks": 71707,
          "time": 298.77916666666664,
          "velocity": 0.30708661417322836
        },
        {
          "duration": 0.1500000000000341,
          "durationTicks": 36,
          "midi": 69,
          "name": "A4",
          "ticks": 71733,
          "time": 298.8875,
          "velocity": 0.13385826771653545
        },
        {
          "duration": 0.14999999999997726,
          "durationTicks": 36,
          "midi": 71,
          "name": "B4",
          "ticks": 71875,
          "time": 299.4791666666667,
          "velocity": 0.5039370078740157
        },
        {
          "duration": 0.27916666666664014,
          "durationTicks": 67,
          "midi": 31,
          "name": "G1",
          "ticks": 71966,
          "time": 299.85833333333335,
          "velocity": 0.3700787401574803
        },
        {
          "duration": 0.05833333333333712,
          "durationTicks": 14,
          "midi": 88,
          "name": "E6",
          "ticks": 72067,
          "time": 300.27916666666664,
          "velocity": 0.41732283464566927
        },
        {
          "duration": 0.09166666666669698,
          "durationTicks": 22,
          "midi": 43,
          "name": "G2",
          "ticks": 72093,
          "time": 300.3875,
          "velocity": 0.3779527559055118
        },
        {
          "duration": 0.0875000000000341,
          "durationTicks": 21,
          "midi": 88,
          "name": "E6",
          "ticks": 72139,
          "time": 300.57916666666665,
          "velocity": 0.36220472440944884
        },
        {
          "duration": 0.04166666666662877,
          "durationTicks": 10,
          "midi": 42,
          "name": "F#2",
          "ticks": 72191,
          "time": 300.79583333333335,
          "velocity": 0.2125984251968504
        },
        {
          "duration": 0.17916666666667425,
          "durationTicks": 43,
          "midi": 81,
          "name": "A5",
          "ticks": 72235,
          "time": 300.9791666666667,
          "velocity": 0.36220472440944884
        },
        {
          "duration": 0.3708333333333371,
          "durationTicks": 89,
          "midi": 84,
          "name": "C6",
          "ticks": 72297,
          "time": 301.2375,
          "velocity": 0.4881889763779528
        },
        {
          "duration": 0.14166666666670835,
          "durationTicks": 34,
          "midi": 83,
          "name": "B5",
          "ticks": 72395,
          "time": 301.6458333333333,
          "velocity": 0.5196850393700787
        },
        {
          "duration": 0.07916666666665151,
          "durationTicks": 19,
          "midi": 57,
          "name": "A3",
          "ticks": 72405,
          "time": 301.6875,
          "velocity": 0.33070866141732286
        },
        {
          "duration": 0.03750000000002274,
          "durationTicks": 9,
          "midi": 96,
          "name": "C7",
          "ticks": 72470,
          "time": 301.9583333333333,
          "velocity": 0.12598425196850394
        },
        {
          "duration": 0.2708333333333144,
          "durationTicks": 65,
          "midi": 31,
          "name": "G1",
          "ticks": 72491,
          "time": 302.04583333333335,
          "velocity": 0.30708661417322836
        },
        {
          "duration": 0.041666666666685614,
          "durationTicks": 10,
          "midi": 67,
          "name": "G4",
          "ticks": 72575,
          "time": 302.3958333333333,
          "velocity": 0.07874015748031496
        },
        {
          "duration": 0.2916666666666856,
          "durationTicks": 70,
          "midi": 31,
          "name": "G1",
          "ticks": 72621,
          "time": 302.5875,
          "velocity": 0.4330708661417323
        },
        {
          "duration": 0.25,
          "durationTicks": 60,
          "midi": 81,
          "name": "A5",
          "ticks": 72710,
          "time": 302.9583333333333,
          "velocity": 0.3700787401574803
        },
        {
          "duration": 0.05000000000001137,
          "durationTicks": 12,
          "midi": 83,
          "name": "B5",
          "ticks": 72741,
          "time": 303.0875,
          "velocity": 0.15748031496062992
        },
        {
          "duration": 0.2333333333333485,
          "durationTicks": 56,
          "midi": 43,
          "name": "G2",
          "ticks": 72779,
          "time": 303.24583333333334,
          "velocity": 0.49606299212598426
        },
        {
          "duration": 0.19999999999998863,
          "durationTicks": 48,
          "midi": 81,
          "name": "A5",
          "ticks": 72844,
          "time": 303.51666666666665,
          "velocity": 0.3543307086614173
        },
        {
          "duration": 0.14166666666670835,
          "durationTicks": 34,
          "midi": 83,
          "name": "B5",
          "ticks": 72892,
          "time": 303.71666666666664,
          "velocity": 0.4566929133858268
        },
        {
          "duration": 0.10000000000002274,
          "durationTicks": 24,
          "midi": 81,
          "name": "A5",
          "ticks": 72921,
          "time": 303.8375,
          "velocity": 0.2755905511811024
        },
        {
          "duration": 0.03750000000002274,
          "durationTicks": 9,
          "midi": 84,
          "name": "C6",
          "ticks": 73010,
          "time": 304.2083333333333,
          "velocity": 0.3779527559055118
        },
        {
          "duration": 0.03750000000002274,
          "durationTicks": 9,
          "midi": 88,
          "name": "E6",
          "ticks": 73082,
          "time": 304.5083333333333,
          "velocity": 0.5196850393700787
        },
        {
          "duration": 0.041666666666685614,
          "durationTicks": 10,
          "midi": 88,
          "name": "E6",
          "ticks": 73132,
          "time": 304.71666666666664,
          "velocity": 0.41732283464566927
        },
        {
          "duration": 0.07083333333332575,
          "durationTicks": 17,
          "midi": 86,
          "name": "D6",
          "ticks": 73137,
          "time": 304.7375,
          "velocity": 0.4645669291338583
        },
        {
          "duration": 0.10833333333334849,
          "durationTicks": 26,
          "midi": 88,
          "name": "E6",
          "ticks": 73183,
          "time": 304.9291666666667,
          "velocity": 0.23622047244094488
        },
        {
          "duration": 0.041666666666685614,
          "durationTicks": 10,
          "midi": 98,
          "name": "D7",
          "ticks": 73204,
          "time": 305.01666666666665,
          "velocity": 0.6062992125984252
        },
        {
          "duration": 0.1708333333333485,
          "durationTicks": 41,
          "midi": 84,
          "name": "C6",
          "ticks": 73214,
          "time": 305.05833333333334,
          "velocity": 0.49606299212598426
        },
        {
          "duration": 0.11250000000001137,
          "durationTicks": 27,
          "midi": 86,
          "name": "D6",
          "ticks": 73247,
          "time": 305.1958333333333,
          "velocity": 0.25984251968503935
        },
        {
          "duration": 0.04166666666662877,
          "durationTicks": 10,
          "midi": 100,
          "name": "E7",
          "ticks": 73257,
          "time": 305.2375,
          "velocity": 0.13385826771653545
        },
        {
          "duration": 0.12083333333333712,
          "durationTicks": 29,
          "midi": 98,
          "name": "D7",
          "ticks": 73317,
          "time": 305.4875,
          "velocity": 0.11023622047244094
        },
        {
          "duration": 0.05000000000001137,
          "durationTicks": 12,
          "midi": 84,
          "name": "C6",
          "ticks": 73351,
          "time": 305.62916666666666,
          "velocity": 0.07874015748031496
        },
        {
          "duration": 0.12916666666671972,
          "durationTicks": 31,
          "midi": 96,
          "name": "C7",
          "ticks": 73387,
          "time": 305.77916666666664,
          "velocity": 0.14960629921259844
        }
      ],
      "endOfTrackTicks": 73418
    },
    {
      "channel": 1,
      "controlChanges": {},
      "pitchBends": [],
      "instrument": {
        "family": "piano",
        "number": 0,
        "name": "acoustic grand piano"
      },
      "name": "",
      "notes": [
        {
          "duration": 0.1708333333333334,
          "durationTicks": 41,
          "midi": 86,
          "name": "D6",
          "ticks": 1079,
          "time": 4.495833333333334,
          "velocity": 0.25196850393700787
        },
        {
          "duration": 0.27083333333333304,
          "durationTicks": 65,
          "midi": 86,
          "name": "D6",
          "ticks": 1211,
          "time": 5.045833333333333,
          "velocity": 0.2047244094488189
        },
        {
          "duration": 0.7000000000000002,
          "durationTicks": 168,
          "midi": 43,
          "name": "G2",
          "ticks": 1370,
          "time": 5.708333333333333,
          "velocity": 0.2755905511811024
        },
        {
          "duration": 0.2791666666666668,
          "durationTicks": 67,
          "midi": 88,
          "name": "E6",
          "ticks": 1605,
          "time": 6.6875,
          "velocity": 0.2677165354330709
        },
        {
          "duration": 2.229166666666668,
          "durationTicks": 535,
          "midi": 45,
          "name": "A2",
          "ticks": 1629,
          "time": 6.7875,
          "velocity": 0.28346456692913385
        },
        {
          "duration": 0.22916666666666607,
          "durationTicks": 55,
          "midi": 88,
          "name": "E6",
          "ticks": 1780,
          "time": 7.416666666666667,
          "velocity": 0.2204724409448819
        },
        {
          "duration": 0.25,
          "durationTicks": 60,
          "midi": 81,
          "name": "A5",
          "ticks": 1869,
          "time": 7.7875,
          "velocity": 0.1732283464566929
        },
        {
          "duration": 0.7875000000000005,
          "durationTicks": 189,
          "midi": 64,
          "name": "E4",
          "ticks": 1879,
          "time": 7.829166666666667,
          "velocity": 0.25196850393700787
        },
        {
          "duration": 0.4375,
          "durationTicks": 105,
          "midi": 69,
          "name": "A4",
          "ticks": 1946,
          "time": 8.108333333333333,
          "velocity": 0.25196850393700787
        },
        {
          "duration": 0.49166666666666536,
          "durationTicks": 118,
          "midi": 55,
          "name": "G3",
          "ticks": 2404,
          "time": 10.016666666666667,
          "velocity": 0.15748031496062992
        },
        {
          "duration": 0.49166666666666714,
          "durationTicks": 118,
          "midi": 64,
          "name": "E4",
          "ticks": 2663,
          "time": 11.095833333333333,
          "velocity": 0.25196850393700787
        },
        {
          "duration": 0.12083333333333357,
          "durationTicks": 29,
          "midi": 88,
          "name": "E6",
          "ticks": 2750,
          "time": 11.458333333333334,
          "velocity": 0.2440944881889764
        },
        {
          "duration": 0.17916666666666536,
          "durationTicks": 43,
          "midi": 88,
          "name": "E6",
          "ticks": 2824,
          "time": 11.766666666666667,
          "velocity": 0.15748031496062992
        },
        {
          "duration": 0.11249999999999893,
          "durationTicks": 27,
          "midi": 83,
          "name": "B5",
          "ticks": 2915,
          "time": 12.145833333333334,
          "velocity": 0.14173228346456693
        },
        {
          "duration": 0.14166666666666572,
          "durationTicks": 34,
          "midi": 84,
          "name": "C6",
          "ticks": 3112,
          "time": 12.966666666666667,
          "velocity": 0.2125984251968504
        },
        {
          "duration": 0.2791666666666668,
          "durationTicks": 67,
          "midi": 86,
          "name": "D6",
          "ticks": 3175,
          "time": 13.229166666666666,
          "velocity": 0.23622047244094488
        },
        {
          "duration": 0.2666666666666657,
          "durationTicks": 64,
          "midi": 86,
          "name": "D6",
          "ticks": 3307,
          "time": 13.779166666666667,
          "velocity": 0.2047244094488189
        },
        {
          "duration": 0.5208333333333339,
          "durationTicks": 125,
          "midi": 71,
          "name": "B4",
          "ticks": 3443,
          "time": 14.345833333333333,
          "velocity": 0.15748031496062992
        },
        {
          "duration": 0.3916666666666675,
          "durationTicks": 94,
          "midi": 72,
          "name": "C5",
          "ticks": 3705,
          "time": 15.4375,
          "velocity": 0.25196850393700787
        },
        {
          "duration": 0.25833333333333286,
          "durationTicks": 62,
          "midi": 86,
          "name": "D6",
          "ticks": 4159,
          "time": 17.329166666666666,
          "velocity": 0.2283464566929134
        },
        {
          "duration": 0.17083333333333073,
          "durationTicks": 41,
          "midi": 81,
          "name": "A5",
          "ticks": 4223,
          "time": 17.595833333333335,
          "velocity": 0.2283464566929134
        },
        {
          "duration": 0.12083333333333357,
          "durationTicks": 29,
          "midi": 79,
          "name": "G5",
          "ticks": 4322,
          "time": 18.008333333333333,
          "velocity": 0.13385826771653545
        },
        {
          "duration": 0.14166666666666572,
          "durationTicks": 34,
          "midi": 81,
          "name": "A5",
          "ticks": 4353,
          "time": 18.1375,
          "velocity": 0.14173228346456693
        },
        {
          "duration": 0.19166666666666643,
          "durationTicks": 46,
          "midi": 76,
          "name": "E5",
          "ticks": 4487,
          "time": 18.695833333333333,
          "velocity": 0.14173228346456693
        },
        {
          "duration": 0.27083333333333215,
          "durationTicks": 65,
          "midi": 76,
          "name": "E5",
          "ticks": 4617,
          "time": 19.2375,
          "velocity": 0.16535433070866143
        },
        {
          "duration": 0.25833333333333286,
          "durationTicks": 62,
          "midi": 79,
          "name": "G5",
          "ticks": 4682,
          "time": 19.508333333333333,
          "velocity": 0.12598425196850394
        },
        {
          "duration": 0.12083333333333357,
          "durationTicks": 29,
          "midi": 81,
          "name": "A5",
          "ticks": 4742,
          "time": 19.758333333333333,
          "velocity": 0.1732283464566929
        },
        {
          "duration": 0.1875,
          "durationTicks": 45,
          "midi": 69,
          "name": "A4",
          "ticks": 4754,
          "time": 19.808333333333334,
          "velocity": 0.1968503937007874
        },
        {
          "duration": 0.05833333333333357,
          "durationTicks": 14,
          "midi": 98,
          "name": "D7",
          "ticks": 5217,
          "time": 21.7375,
          "velocity": 0.4094488188976378
        },
        {
          "duration": 0.14166666666666927,
          "durationTicks": 34,
          "midi": 64,
          "name": "E4",
          "ticks": 5284,
          "time": 22.016666666666666,
          "velocity": 0.30708661417322836
        },
        {
          "duration": 0.04999999999999716,
          "durationTicks": 12,
          "midi": 38,
          "name": "D2",
          "ticks": 5303,
          "time": 22.095833333333335,
          "velocity": 0.2440944881889764
        },
        {
          "duration": 0.19166666666666643,
          "durationTicks": 46,
          "midi": 41,
          "name": "F2",
          "ticks": 5315,
          "time": 22.145833333333332,
          "velocity": 0.25196850393700787
        },
        {
          "duration": 0.11250000000000071,
          "durationTicks": 27,
          "midi": 71,
          "name": "B4",
          "ticks": 5536,
          "time": 23.066666666666666,
          "velocity": 0.33070866141732286
        },
        {
          "duration": 0.25,
          "durationTicks": 60,
          "midi": 50,
          "name": "D3",
          "ticks": 5558,
          "time": 23.158333333333335,
          "velocity": 0.29133858267716534
        },
        {
          "duration": 0.14166666666666927,
          "durationTicks": 34,
          "midi": 43,
          "name": "G2",
          "ticks": 5644,
          "time": 23.516666666666666,
          "velocity": 0.12598425196850394
        },
        {
          "duration": 0.0416666666666643,
          "durationTicks": 10,
          "midi": 50,
          "name": "D3",
          "ticks": 6011,
          "time": 25.045833333333334,
          "velocity": 0.28346456692913385
        },
        {
          "duration": 0.22916666666666785,
          "durationTicks": 55,
          "midi": 72,
          "name": "C5",
          "ticks": 6062,
          "time": 25.258333333333333,
          "velocity": 0.2047244094488189
        },
        {
          "duration": 0.07916666666666572,
          "durationTicks": 19,
          "midi": 50,
          "name": "D3",
          "ticks": 6189,
          "time": 25.7875,
          "velocity": 0.08661417322834646
        },
        {
          "duration": 0.07916666666666927,
          "durationTicks": 19,
          "midi": 96,
          "name": "C7",
          "ticks": 6261,
          "time": 26.0875,
          "velocity": 0.30708661417322836
        },
        {
          "duration": 0.32083333333333286,
          "durationTicks": 77,
          "midi": 55,
          "name": "G3",
          "ticks": 6597,
          "time": 27.4875,
          "velocity": 0.31496062992125984
        },
        {
          "duration": 0.04166666666666785,
          "durationTicks": 10,
          "midi": 97,
          "name": "C#7",
          "ticks": 6645,
          "time": 27.6875,
          "velocity": 0.1889763779527559
        },
        {
          "duration": 0.17916666666666714,
          "durationTicks": 43,
          "midi": 83,
          "name": "B5",
          "ticks": 6722,
          "time": 28.008333333333333,
          "velocity": 0.31496062992125984
        },
        {
          "duration": 1.2375000000000007,
          "durationTicks": 297,
          "midi": 48,
          "name": "C3",
          "ticks": 6859,
          "time": 28.579166666666666,
          "velocity": 0.3543307086614173
        },
        {
          "duration": 0.44166666666666643,
          "durationTicks": 106,
          "midi": 79,
          "name": "G5",
          "ticks": 7067,
          "time": 29.445833333333333,
          "velocity": 0.11023622047244094
        },
        {
          "duration": 0.19166666666666643,
          "durationTicks": 46,
          "midi": 74,
          "name": "D5",
          "ticks": 7264,
          "time": 30.266666666666666,
          "velocity": 0.12598425196850394
        },
        {
          "duration": 0.04999999999999716,
          "durationTicks": 12,
          "midi": 83,
          "name": "B5",
          "ticks": 7315,
          "time": 30.479166666666668,
          "velocity": 0.15748031496062992
        },
        {
          "duration": 0.17083333333333428,
          "durationTicks": 41,
          "midi": 64,
          "name": "E4",
          "ticks": 7379,
          "time": 30.745833333333334,
          "velocity": 0.3700787401574803
        },
        {
          "duration": 0.29166666666666785,
          "durationTicks": 70,
          "midi": 53,
          "name": "F3",
          "ticks": 7408,
          "time": 30.866666666666667,
          "velocity": 0.33070866141732286
        },
        {
          "duration": 0.10000000000000142,
          "durationTicks": 24,
          "midi": 93,
          "name": "A6",
          "ticks": 7636,
          "time": 31.816666666666666,
          "velocity": 0.28346456692913385
        },
        {
          "duration": 0.3500000000000014,
          "durationTicks": 84,
          "midi": 52,
          "name": "E3",
          "ticks": 7907,
          "time": 32.94583333333333,
          "velocity": 0.3228346456692913
        },
        {
          "duration": 0.12083333333333002,
          "durationTicks": 29,
          "midi": 90,
          "name": "F#6",
          "ticks": 7996,
          "time": 33.31666666666667,
          "velocity": 0.25196850393700787
        },
        {
          "duration": 0.05833333333333712,
          "durationTicks": 14,
          "midi": 103,
          "name": "G7",
          "ticks": 8157,
          "time": 33.9875,
          "velocity": 0.18110236220472442
        },
        {
          "duration": 0.05833333333333002,
          "durationTicks": 14,
          "midi": 86,
          "name": "D6",
          "ticks": 8186,
          "time": 34.108333333333334,
          "velocity": 0.1968503937007874
        },
        {
          "duration": 0.0833333333333357,
          "durationTicks": 20,
          "midi": 84,
          "name": "C6",
          "ticks": 8279,
          "time": 34.49583333333333,
          "velocity": 0.3464566929133858
        },
        {
          "duration": 0.041666666666671404,
          "durationTicks": 10,
          "midi": 79,
          "name": "G5",
          "ticks": 8279,
          "time": 34.49583333333333,
          "velocity": 0.2440944881889764
        },
        {
          "duration": 0.0625,
          "durationTicks": 15,
          "midi": 62,
          "name": "D4",
          "ticks": 8764,
          "time": 36.516666666666666,
          "velocity": 0.25196850393700787
        },
        {
          "duration": 0.07916666666666572,
          "durationTicks": 19,
          "midi": 81,
          "name": "A5",
          "ticks": 8887,
          "time": 37.02916666666667,
          "velocity": 0.28346456692913385
        },
        {
          "duration": 0.07083333333333286,
          "durationTicks": 17,
          "midi": 99,
          "name": "D#7",
          "ticks": 8932,
          "time": 37.21666666666667,
          "velocity": 0.25196850393700787
        },
        {
          "duration": 0.25,
          "durationTicks": 60,
          "midi": 52,
          "name": "E3",
          "ticks": 8951,
          "time": 37.295833333333334,
          "velocity": 0.33858267716535434
        },
        {
          "duration": 0.14999999999999858,
          "durationTicks": 36,
          "midi": 83,
          "name": "B5",
          "ticks": 9019,
          "time": 37.579166666666666,
          "velocity": 0.2283464566929134
        },
        {
          "duration": 0.04999999999999716,
          "durationTicks": 12,
          "midi": 81,
          "name": "A5",
          "ticks": 9170,
          "time": 38.208333333333336,
          "velocity": 0.09448818897637795
        },
        {
          "duration": 0.05833333333333002,
          "durationTicks": 14,
          "midi": 31,
          "name": "G1",
          "ticks": 9571,
          "time": 39.87916666666667,
          "velocity": 0.2755905511811024
        },
        {
          "duration": 0.0416666666666643,
          "durationTicks": 10,
          "midi": 41,
          "name": "F2",
          "ticks": 9585,
          "time": 39.9375,
          "velocity": 0.4251968503937008
        },
        {
          "duration": 0.10000000000000142,
          "durationTicks": 24,
          "midi": 76,
          "name": "E5",
          "ticks": 9602,
          "time": 40.00833333333333,
          "velocity": 0.47244094488188976
        },
        {
          "duration": 0.10000000000000142,
          "durationTicks": 24,
          "midi": 64,
          "name": "E4",
          "ticks": 9609,
          "time": 40.0375,
          "velocity": 0.3700787401574803
        },
        {
          "duration": 0.08749999999999858,
          "durationTicks": 21,
          "midi": 57,
          "name": "A3",
          "ticks": 9691,
          "time": 40.37916666666667,
          "velocity": 0.4330708661417323
        },
        {
          "duration": 0.1875,
          "durationTicks": 45,
          "midi": 91,
          "name": "G6",
          "ticks": 9722,
          "time": 40.50833333333333,
          "velocity": 0.4330708661417323
        },
        {
          "duration": 0.18333333333333002,
          "durationTicks": 44,
          "midi": 43,
          "name": "G2",
          "ticks": 9755,
          "time": 40.645833333333336,
          "velocity": 0.47244094488188976
        },
        {
          "duration": 0.05833333333333712,
          "durationTicks": 14,
          "midi": 59,
          "name": "B3",
          "ticks": 9835,
          "time": 40.979166666666664,
          "velocity": 0.3700787401574803
        },
        {
          "duration": 0.0416666666666643,
          "durationTicks": 10,
          "midi": 86,
          "name": "D6",
          "ticks": 9868,
          "time": 41.11666666666667,
          "velocity": 0.29133858267716534
        },
        {
          "duration": 0.13749999999999574,
          "durationTicks": 33,
          "midi": 30,
          "name": "F#1",
          "ticks": 9931,
          "time": 41.37916666666667,
          "velocity": 0.48031496062992124
        },
        {
          "duration": 0.11249999999999716,
          "durationTicks": 27,
          "midi": 31,
          "name": "G1",
          "ticks": 9976,
          "time": 41.56666666666667,
          "velocity": 0.47244094488188976
        },
        {
          "duration": 0.0416666666666643,
          "durationTicks": 10,
          "midi": 35,
          "name": "B1",
          "ticks": 10029,
          "time": 41.7875,
          "velocity": 0.33070866141732286
        },
        {
          "duration": 0.04999999999999716,
          "durationTicks": 12,
          "midi": 34,
          "name": "A#1",
          "ticks": 10091,
          "time": 42.045833333333334,
          "velocity": 0.3937007874015748
        },
        {
          "duration": 0.1875,
          "durationTicks": 45,
          "midi": 57,
          "name": "A3",
          "ticks": 10142,
          "time": 42.25833333333333,
          "velocity": 0.2677165354330709
        },
        {
          "duration": 0.12083333333333002,
          "durationTicks": 29,
          "midi": 60,
          "name": "C4",
          "ticks": 10156,
          "time": 42.31666666666667,
          "velocity": 0.25196850393700787
        },
        {
          "duration": 0.2083333333333357,
          "durationTicks": 50,
          "midi": 55,
          "name": "G3",
          "ticks": 10195,
          "time": 42.479166666666664,
          "velocity": 0.44881889763779526
        },
        {
          "duration": 0.19166666666666998,
          "durationTicks": 46,
          "midi": 64,
          "name": "E4",
          "ticks": 10264,
          "time": 42.766666666666666,
          "velocity": 0.15748031496062992
        },
        {
          "duration": 0.10000000000000142,
          "durationTicks": 24,
          "midi": 31,
          "name": "G1",
          "ticks": 10324,
          "time": 43.016666666666666,
          "velocity": 0.2992125984251969
        },
        {
          "duration": 0.0625,
          "durationTicks": 15,
          "midi": 55,
          "name": "G3",
          "ticks": 10403,
          "time": 43.34583333333333,
          "velocity": 0.2992125984251969
        },
        {
          "duration": 0.03750000000000142,
          "durationTicks": 9,
          "midi": 96,
          "name": "C7",
          "ticks": 10459,
          "time": 43.579166666666666,
          "velocity": 0.4015748031496063
        },
        {
          "duration": 0.05833333333333002,
          "durationTicks": 14,
          "midi": 60,
          "name": "C4",
          "ticks": 10526,
          "time": 43.858333333333334,
          "velocity": 0.41732283464566927
        },
        {
          "duration": 0.041666666666671404,
          "durationTicks": 10,
          "midi": 40,
          "name": "E2",
          "ticks": 10540,
          "time": 43.916666666666664,
          "velocity": 0.3937007874015748
        },
        {
          "duration": 0.0416666666666643,
          "durationTicks": 10,
          "midi": 45,
          "name": "A2",
          "ticks": 10571,
          "time": 44.045833333333334,
          "velocity": 0.16535433070866143
        },
        {
          "duration": 0.11249999999999716,
          "durationTicks": 27,
          "midi": 64,
          "name": "E4",
          "ticks": 10672,
          "time": 44.46666666666667,
          "velocity": 0.31496062992125984
        },
        {
          "duration": 0.07916666666666572,
          "durationTicks": 19,
          "midi": 64,
          "name": "E4",
          "ticks": 10718,
          "time": 44.65833333333333,
          "velocity": 0.4251968503937008
        },
        {
          "duration": 0.09166666666666856,
          "durationTicks": 22,
          "midi": 62,
          "name": "D4",
          "ticks": 10787,
          "time": 44.94583333333333,
          "velocity": 0.4251968503937008
        },
        {
          "duration": 0.12916666666666998,
          "durationTicks": 31,
          "midi": 65,
          "name": "F4",
          "ticks": 10797,
          "time": 44.9875,
          "velocity": 0.31496062992125984
        },
        {
          "duration": 0.04999999999999716,
          "durationTicks": 12,
          "midi": 99,
          "name": "D#7",
          "ticks": 10826,
          "time": 45.108333333333334,
          "velocity": 0.3937007874015748
        },
        {
          "duration": 0.2083333333333357,
          "durationTicks": 50,
          "midi": 31,
          "name": "G1",
          "ticks": 10874,
          "time": 45.30833333333333,
          "velocity": 0.5826771653543307
        },
        {
          "duration": 0.10000000000000142,
          "durationTicks": 24,
          "midi": 53,
          "name": "F3",
          "ticks": 10874,
          "time": 45.30833333333333,
          "velocity": 0.4881889763779528
        },
        {
          "duration": 0.07916666666666572,
          "durationTicks": 19,
          "midi": 62,
          "name": "D4",
          "ticks": 10927,
          "time": 45.52916666666667,
          "velocity": 0.4251968503937008
        },
        {
          "duration": 0.0833333333333357,
          "durationTicks": 20,
          "midi": 53,
          "name": "F3",
          "ticks": 10967,
          "time": 45.69583333333333,
          "velocity": 0.3464566929133858
        },
        {
          "duration": 0.3291666666666657,
          "durationTicks": 79,
          "midi": 64,
          "name": "E4",
          "ticks": 11044,
          "time": 46.016666666666666,
          "velocity": 0.4881889763779528
        },
        {
          "duration": 0.08749999999999858,
          "durationTicks": 21,
          "midi": 64,
          "name": "E4",
          "ticks": 11138,
          "time": 46.40833333333333,
          "velocity": 0.4881889763779528
        },
        {
          "duration": 0.13333333333333286,
          "durationTicks": 32,
          "midi": 79,
          "name": "G5",
          "ticks": 11195,
          "time": 46.645833333333336,
          "velocity": 0.4409448818897638
        },
        {
          "duration": 0.22083333333333854,
          "durationTicks": 53,
          "midi": 64,
          "name": "E4",
          "ticks": 11234,
          "time": 46.80833333333333,
          "velocity": 0.29133858267716534
        },
        {
          "duration": 0.07083333333333286,
          "durationTicks": 17,
          "midi": 55,
          "name": "G3",
          "ticks": 11267,
          "time": 46.94583333333333,
          "velocity": 0.23622047244094488
        },
        {
          "duration": 0.3916666666666657,
          "durationTicks": 94,
          "midi": 42,
          "name": "F#2",
          "ticks": 11447,
          "time": 47.69583333333333,
          "velocity": 0.2992125984251969
        },
        {
          "duration": 0.04999999999999716,
          "durationTicks": 12,
          "midi": 86,
          "name": "D6",
          "ticks": 11476,
          "time": 47.81666666666667,
          "velocity": 0.1968503937007874
        },
        {
          "duration": 0.05833333333333002,
          "durationTicks": 14,
          "midi": 79,
          "name": "G5",
          "ticks": 11563,
          "time": 48.17916666666667,
          "velocity": 0.44881889763779526
        },
        {
          "duration": 0.04999999999999716,
          "durationTicks": 12,
          "midi": 55,
          "name": "G3",
          "ticks": 11647,
          "time": 48.52916666666667,
          "velocity": 0.33858267716535434
        },
        {
          "duration": 0.05000000000000426,
          "durationTicks": 12,
          "midi": 31,
          "name": "G1",
          "ticks": 11663,
          "time": 48.59583333333333,
          "velocity": 0.18110236220472442
        },
        {
          "duration": 0.09166666666666856,
          "durationTicks": 22,
          "midi": 84,
          "name": "C6",
          "ticks": 11697,
          "time": 48.7375,
          "velocity": 0.2755905511811024
        },
        {
          "duration": 0.03750000000000142,
          "durationTicks": 9,
          "midi": 76,
          "name": "E5",
          "ticks": 11827,
          "time": 49.27916666666667,
          "velocity": 0.33070866141732286
        },
        {
          "duration": 0.05000000000000426,
          "durationTicks": 12,
          "midi": 62,
          "name": "D4",
          "ticks": 11839,
          "time": 49.329166666666666,
          "velocity": 0.29133858267716534
        },
        {
          "duration": 0.07083333333333286,
          "durationTicks": 17,
          "midi": 62,
          "name": "D4",
          "ticks": 11927,
          "time": 49.69583333333333,
          "velocity": 0.31496062992125984
        },
        {
          "duration": 0.17083333333333428,
          "durationTicks": 41,
          "midi": 62,
          "name": "D4",
          "ticks": 12021,
          "time": 50.0875,
          "velocity": 0.31496062992125984
        },
        {
          "duration": 0.05833333333333002,
          "durationTicks": 14,
          "midi": 98,
          "name": "D7",
          "ticks": 12093,
          "time": 50.3875,
          "velocity": 0.4645669291338583
        },
        {
          "duration": 0.03750000000000142,
          "durationTicks": 9,
          "midi": 45,
          "name": "A2",
          "ticks": 12199,
          "time": 50.829166666666666,
          "velocity": 0.3858267716535433
        },
        {
          "duration": 0.04999999999999716,
          "durationTicks": 12,
          "midi": 94,
          "name": "A#6",
          "ticks": 12275,
          "time": 51.145833333333336,
          "velocity": 0.2755905511811024
        },
        {
          "duration": 0.07916666666666572,
          "durationTicks": 19,
          "midi": 98,
          "name": "D7",
          "ticks": 12280,
          "time": 51.166666666666664,
          "velocity": 0.4251968503937008
        },
        {
          "duration": 0.04999999999999716,
          "durationTicks": 12,
          "midi": 96,
          "name": "C7",
          "ticks": 12345,
          "time": 51.4375,
          "velocity": 0.5196850393700787
        },
        {
          "duration": 0.05833333333333002,
          "durationTicks": 14,
          "midi": 100,
          "name": "E7",
          "ticks": 12367,
          "time": 51.52916666666667,
          "velocity": 0.5590551181102362
        },
        {
          "duration": 0.07916666666666572,
          "durationTicks": 19,
          "midi": 59,
          "name": "B3",
          "ticks": 12398,
          "time": 51.65833333333333,
          "velocity": 0.2440944881889764
        },
        {
          "duration": 0.09166666666666856,
          "durationTicks": 22,
          "midi": 31,
          "name": "G1",
          "ticks": 12419,
          "time": 51.74583333333333,
          "velocity": 0.25196850393700787
        },
        {
          "duration": 0.0833333333333357,
          "durationTicks": 20,
          "midi": 45,
          "name": "A2",
          "ticks": 12431,
          "time": 51.795833333333334,
          "velocity": 0.3700787401574803
        },
        {
          "duration": 0.0416666666666643,
          "durationTicks": 10,
          "midi": 31,
          "name": "G1",
          "ticks": 12592,
          "time": 52.46666666666667,
          "velocity": 0.18110236220472442
        },
        {
          "duration": 0.041666666666671404,
          "durationTicks": 10,
          "midi": 81,
          "name": "A5",
          "ticks": 12801,
          "time": 53.3375,
          "velocity": 0.28346456692913385
        },
        {
          "duration": 0.10833333333333428,
          "durationTicks": 26,
          "midi": 64,
          "name": "E4",
          "ticks": 12818,
          "time": 53.40833333333333,
          "velocity": 0.4409448818897638
        },
        {
          "duration": 0.12083333333333712,
          "durationTicks": 29,
          "midi": 62,
          "name": "D4",
          "ticks": 12878,
          "time": 53.65833333333333,
          "velocity": 0.5118110236220472
        },
        {
          "duration": 0.17916666666666003,
          "durationTicks": 43,
          "midi": 31,
          "name": "G1",
          "ticks": 12931,
          "time": 53.87916666666667,
          "velocity": 0.2440944881889764
        },
        {
          "duration": 0.041666666666671404,
          "durationTicks": 10,
          "midi": 65,
          "name": "F4",
          "ticks": 13079,
          "time": 54.49583333333333,
          "velocity": 0.4015748031496063
        },
        {
          "duration": 0.2083333333333357,
          "durationTicks": 50,
          "midi": 62,
          "name": "D4",
          "ticks": 13135,
          "time": 54.729166666666664,
          "velocity": 0.4330708661417323
        },
        {
          "duration": 0.0833333333333357,
          "durationTicks": 20,
          "midi": 81,
          "name": "A5",
          "ticks": 13211,
          "time": 55.045833333333334,
          "velocity": 0.2755905511811024
        },
        {
          "duration": 0.0625,
          "durationTicks": 15,
          "midi": 52,
          "name": "E3",
          "ticks": 13247,
          "time": 55.19583333333333,
          "velocity": 0.3779527559055118
        },
        {
          "duration": 0.03750000000000142,
          "durationTicks": 9,
          "midi": 31,
          "name": "G1",
          "ticks": 13334,
          "time": 55.55833333333333,
          "velocity": 0.29133858267716534
        },
        {
          "duration": 0.3166666666666629,
          "durationTicks": 76,
          "midi": 64,
          "name": "E4",
          "ticks": 13387,
          "time": 55.77916666666667,
          "velocity": 0.1968503937007874
        },
        {
          "duration": 0.0416666666666643,
          "durationTicks": 10,
          "midi": 83,
          "name": "B5",
          "ticks": 13408,
          "time": 55.86666666666667,
          "velocity": 0.11811023622047244
        },
        {
          "duration": 0.07083333333333997,
          "durationTicks": 17,
          "midi": 57,
          "name": "A3",
          "ticks": 13439,
          "time": 55.99583333333333,
          "velocity": 0.09448818897637795
        },
        {
          "duration": 0.09166666666666856,
          "durationTicks": 22,
          "midi": 74,
          "name": "D5",
          "ticks": 13468,
          "time": 56.11666666666667,
          "velocity": 0.6456692913385826
        },
        {
          "duration": 0.04999999999999716,
          "durationTicks": 12,
          "midi": 76,
          "name": "E5",
          "ticks": 13507,
          "time": 56.27916666666667,
          "velocity": 0.5196850393700787
        },
        {
          "duration": 0.03750000000000142,
          "durationTicks": 9,
          "midi": 76,
          "name": "E5",
          "ticks": 13526,
          "time": 56.358333333333334,
          "velocity": 0.36220472440944884
        },
        {
          "duration": 0.12916666666666288,
          "durationTicks": 31,
          "midi": 83,
          "name": "B5",
          "ticks": 13550,
          "time": 56.458333333333336,
          "velocity": 0.16535433070866143
        },
        {
          "duration": 0.07083333333333286,
          "durationTicks": 17,
          "midi": 33,
          "name": "A1",
          "ticks": 13588,
          "time": 56.61666666666667,
          "velocity": 0.4566929133858268
        },
        {
          "duration": 0.14166666666666572,
          "durationTicks": 34,
          "midi": 67,
          "name": "G4",
          "ticks": 13624,
          "time": 56.766666666666666,
          "velocity": 0.3464566929133858
        },
        {
          "duration": 0.12083333333333712,
          "durationTicks": 29,
          "midi": 78,
          "name": "F#5",
          "ticks": 13658,
          "time": 56.90833333333333,
          "velocity": 0.5354330708661418
        },
        {
          "duration": 0.04999999999999716,
          "durationTicks": 12,
          "midi": 57,
          "name": "A3",
          "ticks": 13687,
          "time": 57.02916666666667,
          "velocity": 0.49606299212598426
        },
        {
          "duration": 0.04999999999999716,
          "durationTicks": 12,
          "midi": 41,
          "name": "F2",
          "ticks": 13725,
          "time": 57.1875,
          "velocity": 0.18110236220472442
        },
        {
          "duration": 0.0416666666666643,
          "durationTicks": 10,
          "midi": 67,
          "name": "G4",
          "ticks": 13751,
          "time": 57.295833333333334,
          "velocity": 0.4094488188976378
        },
        {
          "duration": 0.15833333333333854,
          "durationTicks": 38,
          "midi": 83,
          "name": "B5",
          "ticks": 13795,
          "time": 57.479166666666664,
          "velocity": 0.5669291338582677
        },
        {
          "duration": 0.2291666666666643,
          "durationTicks": 55,
          "midi": 64,
          "name": "E4",
          "ticks": 13852,
          "time": 57.71666666666667,
          "velocity": 0.4645669291338583
        },
        {
          "duration": 0.12916666666666998,
          "durationTicks": 31,
          "midi": 100,
          "name": "E7",
          "ticks": 13915,
          "time": 57.979166666666664,
          "velocity": 0.5039370078740157
        },
        {
          "duration": 0.3999999999999986,
          "durationTicks": 96,
          "midi": 31,
          "name": "G1",
          "ticks": 13972,
          "time": 58.21666666666667,
          "velocity": 0.5433070866141733
        },
        {
          "duration": 0.05000000000000426,
          "durationTicks": 12,
          "midi": 60,
          "name": "C4",
          "ticks": 14001,
          "time": 58.3375,
          "velocity": 0.31496062992125984
        },
        {
          "duration": 0.03750000000000142,
          "durationTicks": 9,
          "midi": 43,
          "name": "G2",
          "ticks": 14035,
          "time": 58.479166666666664,
          "velocity": 0.5118110236220472
        },
        {
          "duration": 0.0833333333333357,
          "durationTicks": 20,
          "midi": 83,
          "name": "B5",
          "ticks": 14183,
          "time": 59.09583333333333,
          "velocity": 0.5984251968503937
        },
        {
          "duration": 0.0416666666666643,
          "durationTicks": 10,
          "midi": 99,
          "name": "D#7",
          "ticks": 14231,
          "time": 59.295833333333334,
          "velocity": 0.5826771653543307
        },
        {
          "duration": 0.10000000000000142,
          "durationTicks": 24,
          "midi": 72,
          "name": "C5",
          "ticks": 14243,
          "time": 59.34583333333333,
          "velocity": 0.30708661417322836
        },
        {
          "duration": 0.07083333333333286,
          "durationTicks": 17,
          "midi": 55,
          "name": "G3",
          "ticks": 14253,
          "time": 59.3875,
          "velocity": 0.28346456692913385
        },
        {
          "duration": 0.05000000000000426,
          "durationTicks": 12,
          "midi": 100,
          "name": "E7",
          "ticks": 14279,
          "time": 59.49583333333333,
          "velocity": 0.5905511811023622
        },
        {
          "duration": 0.04999999999999716,
          "durationTicks": 12,
          "midi": 28,
          "name": "E1",
          "ticks": 14327,
          "time": 59.69583333333333,
          "velocity": 0.5511811023622047
        },
        {
          "duration": 0.0416666666666643,
          "durationTicks": 10,
          "midi": 90,
          "name": "F#6",
          "ticks": 14387,
          "time": 59.94583333333333,
          "velocity": 0.2992125984251969
        },
        {
          "duration": 0.05000000000000426,
          "durationTicks": 12,
          "midi": 71,
          "name": "B4",
          "ticks": 14419,
          "time": 60.079166666666666,
          "velocity": 0.12598425196850394
        },
        {
          "duration": 0.10000000000000142,
          "durationTicks": 24,
          "midi": 55,
          "name": "G3",
          "ticks": 14464,
          "time": 60.266666666666666,
          "velocity": 0.29133858267716534
        },
        {
          "duration": 0.27916666666666856,
          "durationTicks": 67,
          "midi": 64,
          "name": "E4",
          "ticks": 14539,
          "time": 60.579166666666666,
          "velocity": 0.5275590551181102
        },
        {
          "duration": 0.05833333333333002,
          "durationTicks": 14,
          "midi": 62,
          "name": "D4",
          "ticks": 14611,
          "time": 60.87916666666667,
          "velocity": 0.30708661417322836
        },
        {
          "duration": 0.19999999999999574,
          "durationTicks": 48,
          "midi": 55,
          "name": "G3",
          "ticks": 14647,
          "time": 61.02916666666667,
          "velocity": 0.49606299212598426
        },
        {
          "duration": 0.15833333333333854,
          "durationTicks": 38,
          "midi": 64,
          "name": "E4",
          "ticks": 14714,
          "time": 61.30833333333333,
          "velocity": 0.4881889763779528
        },
        {
          "duration": 0.17083333333333428,
          "durationTicks": 41,
          "midi": 31,
          "name": "G1",
          "ticks": 14762,
          "time": 61.50833333333333,
          "velocity": 0.29133858267716534
        },
        {
          "duration": 0.8416666666666686,
          "durationTicks": 202,
          "midi": 26,
          "name": "D1",
          "ticks": 14764,
          "time": 61.516666666666666,
          "velocity": 0.5196850393700787
        },
        {
          "duration": 0.05000000000000426,
          "durationTicks": 12,
          "midi": 97,
          "name": "C#7",
          "ticks": 14815,
          "time": 61.729166666666664,
          "velocity": 0.49606299212598426
        },
        {
          "duration": 0.08749999999999858,
          "durationTicks": 21,
          "midi": 83,
          "name": "B5",
          "ticks": 14827,
          "time": 61.77916666666667,
          "velocity": 0.4881889763779528
        },
        {
          "duration": 0.08749999999999858,
          "durationTicks": 21,
          "midi": 90,
          "name": "F#6",
          "ticks": 14971,
          "time": 62.37916666666667,
          "velocity": 0.4094488188976378
        },
        {
          "duration": 0.09166666666666856,
          "durationTicks": 22,
          "midi": 50,
          "name": "D3",
          "ticks": 14987,
          "time": 62.44583333333333,
          "velocity": 0.30708661417322836
        },
        {
          "duration": 0.0833333333333286,
          "durationTicks": 20,
          "midi": 62,
          "name": "D4",
          "ticks": 15035,
          "time": 62.645833333333336,
          "velocity": 0.2992125984251969
        },
        {
          "duration": 0.06666666666666998,
          "durationTicks": 16,
          "midi": 60,
          "name": "C4",
          "ticks": 15055,
          "time": 62.729166666666664,
          "velocity": 0.25984251968503935
        },
        {
          "duration": 0.0625,
          "durationTicks": 15,
          "midi": 43,
          "name": "G2",
          "ticks": 15076,
          "time": 62.81666666666667,
          "velocity": 0.3937007874015748
        },
        {
          "duration": 0.0416666666666643,
          "durationTicks": 10,
          "midi": 76,
          "name": "E5",
          "ticks": 15105,
          "time": 62.9375,
          "velocity": 0.1732283464566929
        },
        {
          "duration": 0.17083333333333428,
          "durationTicks": 41,
          "midi": 67,
          "name": "G4",
          "ticks": 15160,
          "time": 63.166666666666664,
          "velocity": 0.3228346456692913
        },
        {
          "duration": 0.14999999999999858,
          "durationTicks": 36,
          "midi": 100,
          "name": "E7",
          "ticks": 15225,
          "time": 63.4375,
          "velocity": 0.49606299212598426
        },
        {
          "duration": 0.041666666666671404,
          "durationTicks": 10,
          "midi": 37,
          "name": "C#2",
          "ticks": 15261,
          "time": 63.5875,
          "velocity": 0.3700787401574803
        },
        {
          "duration": 0.04999999999999716,
          "durationTicks": 12,
          "midi": 88,
          "name": "E6",
          "ticks": 15302,
          "time": 63.75833333333333,
          "velocity": 0.1889763779527559
        },
        {
          "duration": 0.07083333333333286,
          "durationTicks": 17,
          "midi": 65,
          "name": "F4",
          "ticks": 15326,
          "time": 63.858333333333334,
          "velocity": 0.49606299212598426
        },
        {
          "duration": 0.19166666666666288,
          "durationTicks": 46,
          "midi": 36,
          "name": "C2",
          "ticks": 15441,
          "time": 64.3375,
          "velocity": 0.4645669291338583
        },
        {
          "duration": 0.06666666666667709,
          "durationTicks": 16,
          "midi": 64,
          "name": "E4",
          "ticks": 15523,
          "time": 64.67916666666666,
          "velocity": 0.09448818897637795
        },
        {
          "duration": 0.07083333333333997,
          "durationTicks": 17,
          "midi": 79,
          "name": "G5",
          "ticks": 15556,
          "time": 64.81666666666666,
          "velocity": 0.5511811023622047
        },
        {
          "duration": 0.0625,
          "durationTicks": 15,
          "midi": 48,
          "name": "C3",
          "ticks": 15599,
          "time": 64.99583333333334,
          "velocity": 0.4094488188976378
        },
        {
          "duration": 0.15000000000000568,
          "durationTicks": 36,
          "midi": 42,
          "name": "F#2",
          "ticks": 15650,
          "time": 65.20833333333333,
          "velocity": 0.1732283464566929
        },
        {
          "duration": 0.04999999999999716,
          "durationTicks": 12,
          "midi": 78,
          "name": "F#5",
          "ticks": 15691,
          "time": 65.37916666666666,
          "velocity": 0.31496062992125984
        },
        {
          "duration": 0.2291666666666714,
          "durationTicks": 55,
          "midi": 62,
          "name": "D4",
          "ticks": 15691,
          "time": 65.37916666666666,
          "velocity": 0.5590551181102362
        },
        {
          "duration": 0.18333333333333712,
          "durationTicks": 44,
          "midi": 67,
          "name": "G4",
          "ticks": 15755,
          "time": 65.64583333333333,
          "velocity": 0.4881889763779528
        },
        {
          "duration": 0.17083333333333428,
          "durationTicks": 41,
          "midi": 64,
          "name": "E4",
          "ticks": 15791,
          "time": 65.79583333333333,
          "velocity": 0.48031496062992124
        },
        {
          "duration": 0.2291666666666714,
          "durationTicks": 55,
          "midi": 64,
          "name": "E4",
          "ticks": 15859,
          "time": 66.07916666666667,
          "velocity": 0.48031496062992124
        },
        {
          "duration": 0.05000000000001137,
          "durationTicks": 12,
          "midi": 84,
          "name": "C6",
          "ticks": 15943,
          "time": 66.42916666666666,
          "velocity": 0.25984251968503935
        },
        {
          "duration": 0.04166666666665719,
          "durationTicks": 10,
          "midi": 100,
          "name": "E7",
          "ticks": 16007,
          "time": 66.69583333333334,
          "velocity": 0.41732283464566927
        },
        {
          "duration": 0.07916666666666572,
          "durationTicks": 19,
          "midi": 102,
          "name": "F#7",
          "ticks": 16017,
          "time": 66.7375,
          "velocity": 0.4251968503937008
        },
        {
          "duration": 0.32083333333333997,
          "durationTicks": 77,
          "midi": 59,
          "name": "B3",
          "ticks": 16058,
          "time": 66.90833333333333,
          "velocity": 0.48031496062992124
        },
        {
          "duration": 0.14166666666666572,
          "durationTicks": 34,
          "midi": 79,
          "name": "G5",
          "ticks": 16137,
          "time": 67.2375,
          "velocity": 0.5748031496062992
        },
        {
          "duration": 0.07916666666666572,
          "durationTicks": 19,
          "midi": 59,
          "name": "B3",
          "ticks": 16185,
          "time": 67.4375,
          "velocity": 0.2204724409448819
        },
        {
          "duration": 0.07083333333332575,
          "durationTicks": 17,
          "midi": 32,
          "name": "G#1",
          "ticks": 16221,
          "time": 67.5875,
          "velocity": 0.2755905511811024
        },
        {
          "duration": 0.04999999999999716,
          "durationTicks": 12,
          "midi": 32,
          "name": "G#1",
          "ticks": 16267,
          "time": 67.77916666666667,
          "velocity": 0.3937007874015748
        },
        {
          "duration": 0.0833333333333286,
          "durationTicks": 20,
          "midi": 68,
          "name": "G#4",
          "ticks": 16283,
          "time": 67.84583333333333,
          "velocity": 0.4330708661417323
        },
        {
          "duration": 0.07916666666666572,
          "durationTicks": 19,
          "midi": 59,
          "name": "B3",
          "ticks": 16300,
          "time": 67.91666666666667,
          "velocity": 0.3779527559055118
        },
        {
          "duration": 0.2083333333333428,
          "durationTicks": 50,
          "midi": 40,
          "name": "E2",
          "ticks": 16370,
          "time": 68.20833333333333,
          "velocity": 0.5433070866141733
        },
        {
          "duration": 0.14166666666666572,
          "durationTicks": 34,
          "midi": 28,
          "name": "E1",
          "ticks": 16449,
          "time": 68.5375,
          "velocity": 0.4409448818897638
        },
        {
          "duration": 0.05833333333333712,
          "durationTicks": 14,
          "midi": 81,
          "name": "A5",
          "ticks": 16483,
          "time": 68.67916666666666,
          "velocity": 0.44881889763779526
        },
        {
          "duration": 0.15000000000000568,
          "durationTicks": 36,
          "midi": 79,
          "name": "G5",
          "ticks": 16543,
          "time": 68.92916666666666,
          "velocity": 0.4566929133858268
        },
        {
          "duration": 0.3291666666666657,
          "durationTicks": 79,
          "midi": 45,
          "name": "A2",
          "ticks": 16581,
          "time": 69.0875,
          "velocity": 0.49606299212598426
        },
        {
          "duration": 0.05833333333333712,
          "durationTicks": 14,
          "midi": 91,
          "name": "G6",
          "ticks": 16617,
          "time": 69.2375,
          "velocity": 0.2677165354330709
        },
        {
          "duration": 0.05833333333333712,
          "durationTicks": 14,
          "midi": 34,
          "name": "A#1",
          "ticks": 16639,
          "time": 69.32916666666667,
          "velocity": 0.33070866141732286
        },
        {
          "duration": 0.17916666666667425,
          "durationTicks": 43,
          "midi": 57,
          "name": "A3",
          "ticks": 16658,
          "time": 69.40833333333333,
          "velocity": 0.3858267716535433
        },
        {
          "duration": 0.09166666666665435,
          "durationTicks": 22,
          "midi": 64,
          "name": "E4",
          "ticks": 16667,
          "time": 69.44583333333334,
          "velocity": 0.2204724409448819
        },
        {
          "duration": 0.2291666666666714,
          "durationTicks": 55,
          "midi": 55,
          "name": "G3",
          "ticks": 16737,
          "time": 69.7375,
          "velocity": 0.5118110236220472
        },
        {
          "duration": 0.037500000000008527,
          "durationTicks": 9,
          "midi": 34,
          "name": "A#1",
          "ticks": 16783,
          "time": 69.92916666666666,
          "velocity": 0.25984251968503935
        },
        {
          "duration": 0.07083333333333997,
          "durationTicks": 17,
          "midi": 91,
          "name": "G6",
          "ticks": 16809,
          "time": 70.0375,
          "velocity": 0.2755905511811024
        },
        {
          "duration": 0.037499999999994316,
          "durationTicks": 9,
          "midi": 62,
          "name": "D4",
          "ticks": 16879,
          "time": 70.32916666666667,
          "velocity": 0.2992125984251969
        },
        {
          "duration": 0.13750000000000284,
          "durationTicks": 33,
          "midi": 78,
          "name": "F#5",
          "ticks": 16946,
          "time": 70.60833333333333,
          "velocity": 0.25196850393700787
        },
        {
          "duration": 0.14166666666666572,
          "durationTicks": 34,
          "midi": 57,
          "name": "A3",
          "ticks": 16996,
          "time": 70.81666666666666,
          "velocity": 0.5039370078740157
        },
        {
          "duration": 0.47083333333333144,
          "durationTicks": 113,
          "midi": 62,
          "name": "D4",
          "ticks": 17063,
          "time": 71.09583333333333,
          "velocity": 0.4645669291338583
        },
        {
          "duration": 0.07083333333332575,
          "durationTicks": 17,
          "midi": 59,
          "name": "B3",
          "ticks": 17162,
          "time": 71.50833333333334,
          "velocity": 0.4409448818897638
        },
        {
          "duration": 0.20000000000000284,
          "durationTicks": 48,
          "midi": 59,
          "name": "B3",
          "ticks": 17205,
          "time": 71.6875,
          "velocity": 0.5354330708661418
        },
        {
          "duration": 0.07083333333332575,
          "durationTicks": 17,
          "midi": 59,
          "name": "B3",
          "ticks": 17306,
          "time": 72.10833333333333,
          "velocity": 0.28346456692913385
        },
        {
          "duration": 0.1291666666666771,
          "durationTicks": 31,
          "midi": 81,
          "name": "A5",
          "ticks": 17323,
          "time": 72.17916666666666,
          "velocity": 0.31496062992125984
        },
        {
          "duration": 0.5,
          "durationTicks": 120,
          "midi": 45,
          "name": "A2",
          "ticks": 17366,
          "time": 72.35833333333333,
          "velocity": 0.4645669291338583
        },
        {
          "duration": 0.07916666666666572,
          "durationTicks": 19,
          "midi": 81,
          "name": "A5",
          "ticks": 17426,
          "time": 72.60833333333333,
          "velocity": 0.4409448818897638
        },
        {
          "duration": 0.05000000000001137,
          "durationTicks": 12,
          "midi": 52,
          "name": "E3",
          "ticks": 17529,
          "time": 73.0375,
          "velocity": 0.2677165354330709
        },
        {
          "duration": 0.04999999999999716,
          "durationTicks": 12,
          "midi": 30,
          "name": "F#1",
          "ticks": 17546,
          "time": 73.10833333333333,
          "velocity": 0.1889763779527559
        },
        {
          "duration": 0.05833333333333712,
          "durationTicks": 14,
          "midi": 29,
          "name": "F1",
          "ticks": 17577,
          "time": 73.2375,
          "velocity": 0.2204724409448819
        },
        {
          "duration": 0.10833333333333428,
          "durationTicks": 26,
          "midi": 57,
          "name": "A3",
          "ticks": 17599,
          "time": 73.32916666666667,
          "velocity": 0.08661417322834646
        },
        {
          "duration": 0.1875,
          "durationTicks": 45,
          "midi": 64,
          "name": "E4",
          "ticks": 17659,
          "time": 73.57916666666667,
          "velocity": 0.5433070866141733
        },
        {
          "duration": 0.04999999999999716,
          "durationTicks": 12,
          "midi": 76,
          "name": "E5",
          "ticks": 17687,
          "time": 73.69583333333334,
          "velocity": 0.3543307086614173
        },
        {
          "duration": 0.0625,
          "durationTicks": 15,
          "midi": 78,
          "name": "F#5",
          "ticks": 17771,
          "time": 74.04583333333333,
          "velocity": 0.6141732283464567
        },
        {
          "duration": 0.041666666666671404,
          "durationTicks": 10,
          "midi": 62,
          "name": "D4",
          "ticks": 17788,
          "time": 74.11666666666666,
          "velocity": 0.3700787401574803
        },
        {
          "duration": 0.12083333333332291,
          "durationTicks": 29,
          "midi": 67,
          "name": "G4",
          "ticks": 17807,
          "time": 74.19583333333334,
          "velocity": 0.44881889763779526
        },
        {
          "duration": 0.21666666666666856,
          "durationTicks": 52,
          "midi": 64,
          "name": "E4",
          "ticks": 17851,
          "time": 74.37916666666666,
          "velocity": 0.5748031496062992
        },
        {
          "duration": 0.05833333333332291,
          "durationTicks": 14,
          "midi": 29,
          "name": "F1",
          "ticks": 17875,
          "time": 74.47916666666667,
          "velocity": 0.5511811023622047
        },
        {
          "duration": 0.17916666666666003,
          "durationTicks": 43,
          "midi": 62,
          "name": "D4",
          "ticks": 17961,
          "time": 74.8375,
          "velocity": 0.5748031496062992
        },
        {
          "duration": 0.09999999999999432,
          "durationTicks": 24,
          "midi": 29,
          "name": "F1",
          "ticks": 18004,
          "time": 75.01666666666667,
          "velocity": 0.4566929133858268
        },
        {
          "duration": 0.13750000000000284,
          "durationTicks": 33,
          "midi": 57,
          "name": "A3",
          "ticks": 18050,
          "time": 75.20833333333333,
          "velocity": 0.5275590551181102
        },
        {
          "duration": 0.05833333333333712,
          "durationTicks": 14,
          "midi": 60,
          "name": "C4",
          "ticks": 18187,
          "time": 75.77916666666667,
          "velocity": 0.29133858267716534
        },
        {
          "duration": 0.3708333333333229,
          "durationTicks": 89,
          "midi": 64,
          "name": "E4",
          "ticks": 18201,
          "time": 75.8375,
          "velocity": 0.48031496062992124
        },
        {
          "duration": 0.07916666666666572,
          "durationTicks": 19,
          "midi": 42,
          "name": "F#2",
          "ticks": 18256,
          "time": 76.06666666666666,
          "velocity": 0.3937007874015748
        },
        {
          "duration": 0.12083333333332291,
          "durationTicks": 29,
          "midi": 62,
          "name": "D4",
          "ticks": 18287,
          "time": 76.19583333333334,
          "velocity": 0.30708661417322836
        },
        {
          "duration": 0.14999999999999147,
          "durationTicks": 36,
          "midi": 32,
          "name": "G#1",
          "ticks": 18314,
          "time": 76.30833333333334,
          "velocity": 0.4015748031496063
        },
        {
          "duration": 0.06666666666666288,
          "durationTicks": 16,
          "midi": 30,
          "name": "F#1",
          "ticks": 18367,
          "time": 76.52916666666667,
          "velocity": 0.4645669291338583
        },
        {
          "duration": 0.24166666666667425,
          "durationTicks": 58,
          "midi": 28,
          "name": "E1",
          "ticks": 18424,
          "time": 76.76666666666667,
          "velocity": 0.4409448818897638
        },
        {
          "duration": 0.07916666666666572,
          "durationTicks": 19,
          "midi": 40,
          "name": "E2",
          "ticks": 18484,
          "time": 77.01666666666667,
          "velocity": 0.5748031496062992
        },
        {
          "duration": 0.05000000000001137,
          "durationTicks": 12,
          "midi": 28,
          "name": "E1",
          "ticks": 18515,
          "time": 77.14583333333333,
          "velocity": 0.5511811023622047
        },
        {
          "duration": 0.17916666666666003,
          "durationTicks": 43,
          "midi": 52,
          "name": "E3",
          "ticks": 18573,
          "time": 77.3875,
          "velocity": 0.2440944881889764
        },
        {
          "duration": 0.09166666666666856,
          "durationTicks": 22,
          "midi": 88,
          "name": "E6",
          "ticks": 18635,
          "time": 77.64583333333333,
          "velocity": 0.30708661417322836
        },
        {
          "duration": 0.041666666666671404,
          "durationTicks": 10,
          "midi": 35,
          "name": "B1",
          "ticks": 18669,
          "time": 77.7875,
          "velocity": 0.2755905511811024
        },
        {
          "duration": 0.07083333333332575,
          "durationTicks": 17,
          "midi": 67,
          "name": "G4",
          "ticks": 18693,
          "time": 77.8875,
          "velocity": 0.3464566929133858
        },
        {
          "duration": 0.07916666666666572,
          "durationTicks": 19,
          "midi": 34,
          "name": "A#1",
          "ticks": 18727,
          "time": 78.02916666666667,
          "velocity": 0.31496062992125984
        },
        {
          "duration": 0.05000000000001137,
          "durationTicks": 12,
          "midi": 67,
          "name": "G4",
          "ticks": 18763,
          "time": 78.17916666666666,
          "velocity": 0.4330708661417323
        },
        {
          "duration": 0.15000000000000568,
          "durationTicks": 36,
          "midi": 67,
          "name": "G4",
          "ticks": 18818,
          "time": 78.40833333333333,
          "velocity": 0.4330708661417323
        },
        {
          "duration": 0.05833333333333712,
          "durationTicks": 14,
          "midi": 45,
          "name": "A2",
          "ticks": 18873,
          "time": 78.6375,
          "velocity": 0.5039370078740157
        },
        {
          "duration": 0.12916666666666288,
          "durationTicks": 31,
          "midi": 68,
          "name": "G#4",
          "ticks": 18902,
          "time": 78.75833333333334,
          "velocity": 0.4251968503937008
        },
        {
          "duration": 0.041666666666671404,
          "durationTicks": 10,
          "midi": 84,
          "name": "C6",
          "ticks": 18935,
          "time": 78.89583333333333,
          "velocity": 0.2992125984251969
        },
        {
          "duration": 0.12916666666666288,
          "durationTicks": 31,
          "midi": 64,
          "name": "E4",
          "ticks": 18955,
          "time": 78.97916666666667,
          "velocity": 0.44881889763779526
        },
        {
          "duration": 0.05833333333333712,
          "durationTicks": 14,
          "midi": 88,
          "name": "E6",
          "ticks": 18998,
          "time": 79.15833333333333,
          "velocity": 0.36220472440944884
        },
        {
          "duration": 0.09166666666666856,
          "durationTicks": 22,
          "midi": 69,
          "name": "A4",
          "ticks": 19017,
          "time": 79.2375,
          "velocity": 0.44881889763779526
        },
        {
          "duration": 0.15833333333333144,
          "durationTicks": 38,
          "midi": 69,
          "name": "A4",
          "ticks": 19058,
          "time": 79.40833333333333,
          "velocity": 0.49606299212598426
        },
        {
          "duration": 0.24166666666667425,
          "durationTicks": 58,
          "midi": 38,
          "name": "D2",
          "ticks": 19096,
          "time": 79.56666666666666,
          "velocity": 0.5196850393700787
        },
        {
          "duration": 0.12083333333333712,
          "durationTicks": 29,
          "midi": 59,
          "name": "B3",
          "ticks": 19166,
          "time": 79.85833333333333,
          "velocity": 0.4251968503937008
        },
        {
          "duration": 0.17083333333333428,
          "durationTicks": 41,
          "midi": 62,
          "name": "D4",
          "ticks": 19214,
          "time": 80.05833333333334,
          "velocity": 0.4566929133858268
        },
        {
          "duration": 0.05000000000001137,
          "durationTicks": 12,
          "midi": 43,
          "name": "G2",
          "ticks": 19269,
          "time": 80.2875,
          "velocity": 0.4881889763779528
        },
        {
          "duration": 0.17916666666667425,
          "durationTicks": 43,
          "midi": 69,
          "name": "A4",
          "ticks": 19298,
          "time": 80.40833333333333,
          "velocity": 0.3700787401574803
        },
        {
          "duration": 0.14166666666666572,
          "durationTicks": 34,
          "midi": 64,
          "name": "E4",
          "ticks": 19300,
          "time": 80.41666666666667,
          "velocity": 0.31496062992125984
        },
        {
          "duration": 0.04166666666665719,
          "durationTicks": 10,
          "midi": 98,
          "name": "D7",
          "ticks": 19341,
          "time": 80.5875,
          "velocity": 0.2755905511811024
        },
        {
          "duration": 0.0625,
          "durationTicks": 15,
          "midi": 104,
          "name": "G#7",
          "ticks": 19415,
          "time": 80.89583333333333,
          "velocity": 0.4251968503937008
        },
        {
          "duration": 0.04999999999999716,
          "durationTicks": 12,
          "midi": 48,
          "name": "C3",
          "ticks": 19437,
          "time": 80.9875,
          "velocity": 0.25984251968503935
        },
        {
          "duration": 0.07083333333333997,
          "durationTicks": 17,
          "midi": 55,
          "name": "G3",
          "ticks": 19449,
          "time": 81.0375,
          "velocity": 0.28346456692913385
        },
        {
          "duration": 0.12916666666666288,
          "durationTicks": 31,
          "midi": 76,
          "name": "E5",
          "ticks": 19480,
          "time": 81.16666666666667,
          "velocity": 0.3464566929133858
        },
        {
          "duration": 0.0625,
          "durationTicks": 15,
          "midi": 93,
          "name": "A6",
          "ticks": 19516,
          "time": 81.31666666666666,
          "velocity": 0.4330708661417323
        },
        {
          "duration": 0.041666666666671404,
          "durationTicks": 10,
          "midi": 83,
          "name": "B5",
          "ticks": 19557,
          "time": 81.4875,
          "velocity": 0.36220472440944884
        },
        {
          "duration": 0.24166666666667425,
          "durationTicks": 58,
          "midi": 92,
          "name": "G#6",
          "ticks": 19557,
          "time": 81.4875,
          "velocity": 0.5826771653543307
        },
        {
          "duration": 0.14999999999999147,
          "durationTicks": 36,
          "midi": 76,
          "name": "E5",
          "ticks": 19612,
          "time": 81.71666666666667,
          "velocity": 0.5826771653543307
        },
        {
          "duration": 0.04999999999999716,
          "durationTicks": 12,
          "midi": 79,
          "name": "G5",
          "ticks": 19759,
          "time": 82.32916666666667,
          "velocity": 0.30708661417322836
        },
        {
          "duration": 0.05000000000001137,
          "durationTicks": 12,
          "midi": 48,
          "name": "C3",
          "ticks": 19790,
          "time": 82.45833333333333,
          "velocity": 0.3937007874015748
        },
        {
          "duration": 0.07083333333332575,
          "durationTicks": 17,
          "midi": 76,
          "name": "E5",
          "ticks": 19802,
          "time": 82.50833333333334,
          "velocity": 0.3700787401574803
        },
        {
          "duration": 0.041666666666671404,
          "durationTicks": 10,
          "midi": 31,
          "name": "G1",
          "ticks": 19864,
          "time": 82.76666666666667,
          "velocity": 0.29133858267716534
        },
        {
          "duration": 0.04999999999999716,
          "durationTicks": 12,
          "midi": 83,
          "name": "B5",
          "ticks": 19876,
          "time": 82.81666666666666,
          "velocity": 0.3228346456692913
        },
        {
          "duration": 0.04999999999999716,
          "durationTicks": 12,
          "midi": 49,
          "name": "C#3",
          "ticks": 19893,
          "time": 82.8875,
          "velocity": 0.2992125984251969
        },
        {
          "duration": 0.0833333333333286,
          "durationTicks": 20,
          "midi": 62,
          "name": "D4",
          "ticks": 19907,
          "time": 82.94583333333334,
          "velocity": 0.44881889763779526
        },
        {
          "duration": 0.07083333333333997,
          "durationTicks": 17,
          "midi": 78,
          "name": "F#5",
          "ticks": 19948,
          "time": 83.11666666666666,
          "velocity": 0.4566929133858268
        },
        {
          "duration": 0.20000000000000284,
          "durationTicks": 48,
          "midi": 62,
          "name": "D4",
          "ticks": 20059,
          "time": 83.57916666666667,
          "velocity": 0.5118110236220472
        },
        {
          "duration": 0.12083333333332291,
          "durationTicks": 29,
          "midi": 57,
          "name": "A3",
          "ticks": 20140,
          "time": 83.91666666666667,
          "velocity": 0.4330708661417323
        },
        {
          "duration": 0.04999999999999716,
          "durationTicks": 12,
          "midi": 98,
          "name": "D7",
          "ticks": 20140,
          "time": 83.91666666666667,
          "velocity": 0.3464566929133858
        },
        {
          "duration": 0.22083333333333144,
          "durationTicks": 53,
          "midi": 29,
          "name": "F1",
          "ticks": 20159,
          "time": 83.99583333333334,
          "velocity": 0.5118110236220472
        },
        {
          "duration": 0.0625,
          "durationTicks": 15,
          "midi": 41,
          "name": "F2",
          "ticks": 20183,
          "time": 84.09583333333333,
          "velocity": 0.49606299212598426
        },
        {
          "duration": 0.09999999999999432,
          "durationTicks": 24,
          "midi": 59,
          "name": "B3",
          "ticks": 20224,
          "time": 84.26666666666667,
          "velocity": 0.49606299212598426
        },
        {
          "duration": 0.037500000000008527,
          "durationTicks": 9,
          "midi": 43,
          "name": "G2",
          "ticks": 20270,
          "time": 84.45833333333333,
          "velocity": 0.2755905511811024
        },
        {
          "duration": 0.07916666666666572,
          "durationTicks": 19,
          "midi": 64,
          "name": "E4",
          "ticks": 20301,
          "time": 84.5875,
          "velocity": 0.4094488188976378
        },
        {
          "duration": 0.041666666666671404,
          "durationTicks": 10,
          "midi": 79,
          "name": "G5",
          "ticks": 20332,
          "time": 84.71666666666667,
          "velocity": 0.47244094488188976
        },
        {
          "duration": 0.07083333333333997,
          "durationTicks": 17,
          "midi": 42,
          "name": "F#2",
          "ticks": 20356,
          "time": 84.81666666666666,
          "velocity": 0.3937007874015748
        },
        {
          "duration": 0.17083333333332007,
          "durationTicks": 41,
          "midi": 55,
          "name": "G3",
          "ticks": 20387,
          "time": 84.94583333333334,
          "velocity": 0.3779527559055118
        },
        {
          "duration": 0.0833333333333286,
          "durationTicks": 20,
          "midi": 84,
          "name": "C6",
          "ticks": 20459,
          "time": 85.24583333333334,
          "velocity": 0.3779527559055118
        },
        {
          "duration": 0.2291666666666572,
          "durationTicks": 55,
          "midi": 55,
          "name": "G3",
          "ticks": 20534,
          "time": 85.55833333333334,
          "velocity": 0.48031496062992124
        },
        {
          "duration": 0.14166666666666572,
          "durationTicks": 34,
          "midi": 28,
          "name": "E1",
          "ticks": 20639,
          "time": 85.99583333333334,
          "velocity": 0.4566929133858268
        },
        {
          "duration": 0.13750000000000284,
          "durationTicks": 33,
          "midi": 59,
          "name": "B3",
          "ticks": 20666,
          "time": 86.10833333333333,
          "velocity": 0.4881889763779528
        },
        {
          "duration": 0.12083333333333712,
          "durationTicks": 29,
          "midi": 90,
          "name": "F#6",
          "ticks": 20716,
          "time": 86.31666666666666,
          "velocity": 0.3700787401574803
        },
        {
          "duration": 0.17916666666667425,
          "durationTicks": 43,
          "midi": 64,
          "name": "E4",
          "ticks": 20798,
          "time": 86.65833333333333,
          "velocity": 0.47244094488188976
        },
        {
          "duration": 0.04999999999999716,
          "durationTicks": 12,
          "midi": 93,
          "name": "A6",
          "ticks": 20875,
          "time": 86.97916666666667,
          "velocity": 0.1732283464566929
        },
        {
          "duration": 0.1875,
          "durationTicks": 45,
          "midi": 45,
          "name": "A2",
          "ticks": 20935,
          "time": 87.22916666666667,
          "velocity": 0.4330708661417323
        },
        {
          "duration": 0.2916666666666714,
          "durationTicks": 70,
          "midi": 38,
          "name": "D2",
          "ticks": 21045,
          "time": 87.6875,
          "velocity": 0.48031496062992124
        },
        {
          "duration": 0.9208333333333201,
          "durationTicks": 221,
          "midi": 26,
          "name": "D1",
          "ticks": 21047,
          "time": 87.69583333333334,
          "velocity": 0.5039370078740157
        },
        {
          "duration": 0.3500000000000085,
          "durationTicks": 84,
          "midi": 59,
          "name": "B3",
          "ticks": 21263,
          "time": 88.59583333333333,
          "velocity": 0.47244094488188976
        },
        {
          "duration": 0.05000000000001137,
          "durationTicks": 12,
          "midi": 28,
          "name": "E1",
          "ticks": 21395,
          "time": 89.14583333333333,
          "velocity": 0.5748031496062992
        },
        {
          "duration": 0.26250000000000284,
          "durationTicks": 63,
          "midi": 40,
          "name": "E2",
          "ticks": 21479,
          "time": 89.49583333333334,
          "velocity": 0.33858267716535434
        },
        {
          "duration": 0.04999999999999716,
          "durationTicks": 12,
          "midi": 55,
          "name": "G3",
          "ticks": 21547,
          "time": 89.77916666666667,
          "velocity": 0.31496062992125984
        },
        {
          "duration": 0.11249999999999716,
          "durationTicks": 27,
          "midi": 59,
          "name": "B3",
          "ticks": 21580,
          "time": 89.91666666666667,
          "velocity": 0.3700787401574803
        },
        {
          "duration": 0.3499999999999943,
          "durationTicks": 84,
          "midi": 45,
          "name": "A2",
          "ticks": 21621,
          "time": 90.0875,
          "velocity": 0.4645669291338583
        },
        {
          "duration": 0.07916666666666572,
          "durationTicks": 19,
          "midi": 76,
          "name": "E5",
          "ticks": 21739,
          "time": 90.57916666666667,
          "velocity": 0.23622047244094488
        },
        {
          "duration": 0.13750000000000284,
          "durationTicks": 33,
          "midi": 83,
          "name": "B5",
          "ticks": 21806,
          "time": 90.85833333333333,
          "velocity": 0.1968503937007874
        },
        {
          "duration": 0.5291666666666686,
          "durationTicks": 127,
          "midi": 45,
          "name": "A2",
          "ticks": 21818,
          "time": 90.90833333333333,
          "velocity": 0.4566929133858268
        },
        {
          "duration": 0.07916666666666572,
          "durationTicks": 19,
          "midi": 45,
          "name": "A2",
          "ticks": 21974,
          "time": 91.55833333333334,
          "velocity": 0.31496062992125984
        },
        {
          "duration": 0.07083333333333997,
          "durationTicks": 17,
          "midi": 89,
          "name": "F6",
          "ticks": 22043,
          "time": 91.84583333333333,
          "velocity": 0.1732283464566929
        },
        {
          "duration": 0.0625,
          "durationTicks": 15,
          "midi": 38,
          "name": "D2",
          "ticks": 22060,
          "time": 91.91666666666667,
          "velocity": 0.28346456692913385
        },
        {
          "duration": 0.05833333333333712,
          "durationTicks": 14,
          "midi": 37,
          "name": "C#2",
          "ticks": 22087,
          "time": 92.02916666666667,
          "velocity": 0.2755905511811024
        },
        {
          "duration": 0.0625,
          "durationTicks": 15,
          "midi": 35,
          "name": "B1",
          "ticks": 22139,
          "time": 92.24583333333334,
          "velocity": 0.28346456692913385
        },
        {
          "duration": 0.15000000000000568,
          "durationTicks": 36,
          "midi": 41,
          "name": "F2",
          "ticks": 22250,
          "time": 92.70833333333333,
          "velocity": 0.4094488188976378
        },
        {
          "duration": 0.1875,
          "durationTicks": 45,
          "midi": 62,
          "name": "D4",
          "ticks": 22267,
          "time": 92.77916666666667,
          "velocity": 0.4566929133858268
        },
        {
          "duration": 0.05833333333332291,
          "durationTicks": 14,
          "midi": 50,
          "name": "D3",
          "ticks": 22315,
          "time": 92.97916666666667,
          "velocity": 0.30708661417322836
        },
        {
          "duration": 0.09166666666666856,
          "durationTicks": 22,
          "midi": 31,
          "name": "G1",
          "ticks": 22391,
          "time": 93.29583333333333,
          "velocity": 0.5275590551181102
        },
        {
          "duration": 0.17916666666667425,
          "durationTicks": 43,
          "midi": 43,
          "name": "G2",
          "ticks": 22411,
          "time": 93.37916666666666,
          "velocity": 0.4881889763779528
        },
        {
          "duration": 0.10833333333333428,
          "durationTicks": 26,
          "midi": 98,
          "name": "D7",
          "ticks": 22447,
          "time": 93.52916666666667,
          "velocity": 0.33858267716535434
        },
        {
          "duration": 0.05833333333332291,
          "durationTicks": 14,
          "midi": 59,
          "name": "B3",
          "ticks": 22495,
          "time": 93.72916666666667,
          "velocity": 0.33858267716535434
        },
        {
          "duration": 0.12083333333333712,
          "durationTicks": 29,
          "midi": 43,
          "name": "G2",
          "ticks": 22509,
          "time": 93.7875,
          "velocity": 0.4251968503937008
        },
        {
          "duration": 0.21250000000000568,
          "durationTicks": 51,
          "midi": 55,
          "name": "G3",
          "ticks": 22564,
          "time": 94.01666666666667,
          "velocity": 0.5196850393700787
        },
        {
          "duration": 0.15833333333333144,
          "durationTicks": 38,
          "midi": 55,
          "name": "G3",
          "ticks": 22665,
          "time": 94.4375,
          "velocity": 0.3700787401574803
        },
        {
          "duration": 0.19166666666666288,
          "durationTicks": 46,
          "midi": 83,
          "name": "B5",
          "ticks": 22701,
          "time": 94.5875,
          "velocity": 0.28346456692913385
        },
        {
          "duration": 0.04166666666665719,
          "durationTicks": 10,
          "midi": 72,
          "name": "C5",
          "ticks": 22720,
          "time": 94.66666666666667,
          "velocity": 0.1732283464566929
        },
        {
          "duration": 0.04166666666665719,
          "durationTicks": 10,
          "midi": 52,
          "name": "E3",
          "ticks": 22773,
          "time": 94.8875,
          "velocity": 0.25984251968503935
        },
        {
          "duration": 0.34166666666665435,
          "durationTicks": 82,
          "midi": 62,
          "name": "D4",
          "ticks": 22787,
          "time": 94.94583333333334,
          "velocity": 0.14960629921259844
        },
        {
          "duration": 0.04999999999999716,
          "durationTicks": 12,
          "midi": 64,
          "name": "E4",
          "ticks": 22953,
          "time": 95.6375,
          "velocity": 0.33070866141732286
        },
        {
          "duration": 0.07083333333332575,
          "durationTicks": 17,
          "midi": 55,
          "name": "G3",
          "ticks": 22967,
          "time": 95.69583333333334,
          "velocity": 0.3464566929133858
        },
        {
          "duration": 0.3125,
          "durationTicks": 75,
          "midi": 45,
          "name": "A2",
          "ticks": 22979,
          "time": 95.74583333333334,
          "velocity": 0.3779527559055118
        },
        {
          "duration": 0.037499999999994316,
          "durationTicks": 9,
          "midi": 55,
          "name": "G3",
          "ticks": 22994,
          "time": 95.80833333333334,
          "velocity": 0.15748031496062992
        },
        {
          "duration": 0.041666666666671404,
          "durationTicks": 10,
          "midi": 85,
          "name": "C#6",
          "ticks": 23265,
          "time": 96.9375,
          "velocity": 0.41732283464566927
        },
        {
          "duration": 0.07083333333332575,
          "durationTicks": 17,
          "midi": 43,
          "name": "G2",
          "ticks": 23361,
          "time": 97.3375,
          "velocity": 0.4409448818897638
        },
        {
          "duration": 0.07916666666666572,
          "durationTicks": 19,
          "midi": 53,
          "name": "F3",
          "ticks": 23457,
          "time": 97.7375,
          "velocity": 0.2755905511811024
        },
        {
          "duration": 0.10833333333333428,
          "durationTicks": 26,
          "midi": 55,
          "name": "G3",
          "ticks": 23570,
          "time": 98.20833333333333,
          "velocity": 0.3543307086614173
        },
        {
          "duration": 0.5208333333333286,
          "durationTicks": 125,
          "midi": 79,
          "name": "G5",
          "ticks": 23601,
          "time": 98.3375,
          "velocity": 0.4566929133858268
        },
        {
          "duration": 0.4416666666666629,
          "durationTicks": 106,
          "midi": 64,
          "name": "E4",
          "ticks": 23800,
          "time": 99.16666666666667,
          "velocity": 0.28346456692913385
        },
        {
          "duration": 0.14166666666666572,
          "durationTicks": 34,
          "midi": 91,
          "name": "G6",
          "ticks": 23937,
          "time": 99.7375,
          "velocity": 0.25196850393700787
        },
        {
          "duration": 0.037500000000008527,
          "durationTicks": 9,
          "midi": 52,
          "name": "E3",
          "ticks": 24043,
          "time": 100.17916666666666,
          "velocity": 0.28346456692913385
        },
        {
          "duration": 0.07916666666666572,
          "durationTicks": 19,
          "midi": 88,
          "name": "E6",
          "ticks": 24055,
          "time": 100.22916666666667,
          "velocity": 0.2125984251968504
        },
        {
          "duration": 0.10833333333333428,
          "durationTicks": 26,
          "midi": 48,
          "name": "C3",
          "ticks": 24163,
          "time": 100.67916666666666,
          "velocity": 0.2440944881889764
        },
        {
          "duration": 0.07083333333333997,
          "durationTicks": 17,
          "midi": 74,
          "name": "D5",
          "ticks": 24230,
          "time": 100.95833333333333,
          "velocity": 0.47244094488188976
        },
        {
          "duration": 0.041666666666671404,
          "durationTicks": 10,
          "midi": 48,
          "name": "C3",
          "ticks": 24345,
          "time": 101.4375,
          "velocity": 0.1889763779527559
        },
        {
          "duration": 0.0625,
          "durationTicks": 15,
          "midi": 76,
          "name": "E5",
          "ticks": 24388,
          "time": 101.61666666666666,
          "velocity": 0.44881889763779526
        },
        {
          "duration": 0.041666666666671404,
          "durationTicks": 10,
          "midi": 57,
          "name": "A3",
          "ticks": 24477,
          "time": 101.9875,
          "velocity": 0.1968503937007874
        },
        {
          "duration": 0.12083333333333712,
          "durationTicks": 29,
          "midi": 62,
          "name": "D4",
          "ticks": 24491,
          "time": 102.04583333333333,
          "velocity": 0.2440944881889764
        },
        {
          "duration": 0.08750000000000568,
          "durationTicks": 21,
          "midi": 62,
          "name": "D4",
          "ticks": 24590,
          "time": 102.45833333333333,
          "velocity": 0.07874015748031496
        },
        {
          "duration": 0.07916666666666572,
          "durationTicks": 19,
          "midi": 98,
          "name": "D7",
          "ticks": 24650,
          "time": 102.70833333333333,
          "velocity": 0.4094488188976378
        },
        {
          "duration": 0.0625,
          "durationTicks": 15,
          "midi": 60,
          "name": "C4",
          "ticks": 24724,
          "time": 103.01666666666667,
          "velocity": 0.09448818897637795
        },
        {
          "duration": 0.12083333333333712,
          "durationTicks": 29,
          "midi": 87,
          "name": "D#6",
          "ticks": 24753,
          "time": 103.1375,
          "velocity": 0.3464566929133858
        },
        {
          "duration": 0.041666666666671404,
          "durationTicks": 10,
          "midi": 67,
          "name": "G4",
          "ticks": 24844,
          "time": 103.51666666666667,
          "velocity": 0.4251968503937008
        },
        {
          "duration": 0.05833333333333712,
          "durationTicks": 14,
          "midi": 102,
          "name": "F#7",
          "ticks": 24943,
          "time": 103.92916666666666,
          "velocity": 0.28346456692913385
        },
        {
          "duration": 0.11666666666667425,
          "durationTicks": 28,
          "midi": 86,
          "name": "D6",
          "ticks": 24979,
          "time": 104.07916666666667,
          "velocity": 0.3228346456692913
        },
        {
          "duration": 0.07916666666667993,
          "durationTicks": 19,
          "midi": 55,
          "name": "G3",
          "ticks": 24988,
          "time": 104.11666666666666,
          "velocity": 0.2755905511811024
        },
        {
          "duration": 0.09999999999999432,
          "durationTicks": 24,
          "midi": 88,
          "name": "E6",
          "ticks": 25007,
          "time": 104.19583333333334,
          "velocity": 0.30708661417322836
        },
        {
          "duration": 0.0625,
          "durationTicks": 15,
          "midi": 98,
          "name": "D7",
          "ticks": 25036,
          "time": 104.31666666666666,
          "velocity": 0.3937007874015748
        },
        {
          "duration": 0.10833333333333428,
          "durationTicks": 26,
          "midi": 84,
          "name": "C6",
          "ticks": 25106,
          "time": 104.60833333333333,
          "velocity": 0.2755905511811024
        },
        {
          "duration": 0.04999999999999716,
          "durationTicks": 12,
          "midi": 64,
          "name": "E4",
          "ticks": 25204,
          "time": 105.01666666666667,
          "velocity": 0.1889763779527559
        },
        {
          "duration": 0.08749999999999147,
          "durationTicks": 21,
          "midi": 93,
          "name": "A6",
          "ticks": 25267,
          "time": 105.27916666666667,
          "velocity": 0.2677165354330709
        },
        {
          "duration": 0.20000000000000284,
          "durationTicks": 48,
          "midi": 53,
          "name": "F3",
          "ticks": 25291,
          "time": 105.37916666666666,
          "velocity": 0.36220472440944884
        },
        {
          "duration": 0.2916666666666714,
          "durationTicks": 70,
          "midi": 84,
          "name": "C6",
          "ticks": 25365,
          "time": 105.6875,
          "velocity": 0.3779527559055118
        },
        {
          "duration": 0.04999999999999716,
          "durationTicks": 12,
          "midi": 53,
          "name": "F3",
          "ticks": 25384,
          "time": 105.76666666666667,
          "velocity": 0.2440944881889764
        },
        {
          "duration": 0.25833333333332575,
          "durationTicks": 62,
          "midi": 84,
          "name": "C6",
          "ticks": 25495,
          "time": 106.22916666666667,
          "velocity": 0.16535433070866143
        },
        {
          "duration": 0.10000000000000853,
          "durationTicks": 24,
          "midi": 62,
          "name": "D4",
          "ticks": 25543,
          "time": 106.42916666666666,
          "velocity": 0.3228346456692913
        },
        {
          "duration": 0.09166666666666856,
          "durationTicks": 22,
          "midi": 93,
          "name": "A6",
          "ticks": 25636,
          "time": 106.81666666666666,
          "velocity": 0.2677165354330709
        },
        {
          "duration": 0.04999999999999716,
          "durationTicks": 12,
          "midi": 78,
          "name": "F#5",
          "ticks": 25675,
          "time": 106.97916666666667,
          "velocity": 0.31496062992125984
        },
        {
          "duration": 0.22083333333333144,
          "durationTicks": 53,
          "midi": 64,
          "name": "E4",
          "ticks": 25701,
          "time": 107.0875,
          "velocity": 0.18110236220472442
        },
        {
          "duration": 0.11249999999999716,
          "durationTicks": 27,
          "midi": 83,
          "name": "B5",
          "ticks": 25763,
          "time": 107.34583333333333,
          "velocity": 0.2125984251968504
        },
        {
          "duration": 0.04999999999999716,
          "durationTicks": 12,
          "midi": 52,
          "name": "E3",
          "ticks": 25814,
          "time": 107.55833333333334,
          "velocity": 0.28346456692913385
        },
        {
          "duration": 0.12083333333333712,
          "durationTicks": 29,
          "midi": 62,
          "name": "D4",
          "ticks": 25910,
          "time": 107.95833333333333,
          "velocity": 0.2755905511811024
        },
        {
          "duration": 0.04999999999999716,
          "durationTicks": 12,
          "midi": 52,
          "name": "E3",
          "ticks": 26006,
          "time": 108.35833333333333,
          "velocity": 0.2677165354330709
        },
        {
          "duration": 0.11249999999999716,
          "durationTicks": 27,
          "midi": 98,
          "name": "D7",
          "ticks": 26560,
          "time": 110.66666666666667,
          "velocity": 0.33858267716535434
        },
        {
          "duration": 0.09999999999999432,
          "durationTicks": 24,
          "midi": 83,
          "name": "B5",
          "ticks": 26692,
          "time": 111.21666666666667,
          "velocity": 0.15748031496062992
        },
        {
          "duration": 0.0625,
          "durationTicks": 15,
          "midi": 97,
          "name": "C#7",
          "ticks": 26843,
          "time": 111.84583333333333,
          "velocity": 0.09448818897637795
        },
        {
          "duration": 0.08750000000000568,
          "durationTicks": 21,
          "midi": 95,
          "name": "B6",
          "ticks": 26846,
          "time": 111.85833333333333,
          "velocity": 0.2047244094488189
        },
        {
          "duration": 0.09166666666666856,
          "durationTicks": 22,
          "midi": 31,
          "name": "G1",
          "ticks": 26949,
          "time": 112.2875,
          "velocity": 0.2755905511811024
        },
        {
          "duration": 0.23749999999999716,
          "durationTicks": 57,
          "midi": 33,
          "name": "A1",
          "ticks": 27074,
          "time": 112.80833333333334,
          "velocity": 0.36220472440944884
        },
        {
          "duration": 0.17083333333333428,
          "durationTicks": 41,
          "midi": 83,
          "name": "B5",
          "ticks": 27203,
          "time": 113.34583333333333,
          "velocity": 0.14173228346456693
        },
        {
          "duration": 0.0833333333333286,
          "durationTicks": 20,
          "midi": 83,
          "name": "B5",
          "ticks": 27383,
          "time": 114.09583333333333,
          "velocity": 0.29133858267716534
        },
        {
          "duration": 0.2083333333333428,
          "durationTicks": 50,
          "midi": 64,
          "name": "E4",
          "ticks": 27470,
          "time": 114.45833333333333,
          "velocity": 0.4094488188976378
        },
        {
          "duration": 0.04166666666665719,
          "durationTicks": 10,
          "midi": 83,
          "name": "B5",
          "ticks": 27527,
          "time": 114.69583333333334,
          "velocity": 0.11811023622047244
        },
        {
          "duration": 0.10833333333333428,
          "durationTicks": 26,
          "midi": 43,
          "name": "G2",
          "ticks": 27583,
          "time": 114.92916666666666,
          "velocity": 0.3779527559055118
        },
        {
          "duration": 0.04999999999999716,
          "durationTicks": 12,
          "midi": 97,
          "name": "C#7",
          "ticks": 27734,
          "time": 115.55833333333334,
          "velocity": 0.23622047244094488
        },
        {
          "duration": 0.09166666666665435,
          "durationTicks": 22,
          "midi": 93,
          "name": "A6",
          "ticks": 27741,
          "time": 115.5875,
          "velocity": 0.2283464566929134
        },
        {
          "duration": 0.05833333333333712,
          "durationTicks": 14,
          "midi": 84,
          "name": "C6",
          "ticks": 27799,
          "time": 115.82916666666667,
          "velocity": 0.11023622047244094
        },
        {
          "duration": 0.1875,
          "durationTicks": 45,
          "midi": 41,
          "name": "F2",
          "ticks": 27830,
          "time": 115.95833333333333,
          "velocity": 0.5118110236220472
        },
        {
          "duration": 0.09166666666666856,
          "durationTicks": 22,
          "midi": 57,
          "name": "A3",
          "ticks": 27892,
          "time": 116.21666666666667,
          "velocity": 0.2047244094488189
        },
        {
          "duration": 0.04999999999999716,
          "durationTicks": 12,
          "midi": 95,
          "name": "B6",
          "ticks": 27911,
          "time": 116.29583333333333,
          "velocity": 0.33858267716535434
        },
        {
          "duration": 0.04999999999999716,
          "durationTicks": 12,
          "midi": 83,
          "name": "B5",
          "ticks": 27962,
          "time": 116.50833333333334,
          "velocity": 0.09448818897637795
        },
        {
          "duration": 0.07083333333333997,
          "durationTicks": 17,
          "midi": 79,
          "name": "G5",
          "ticks": 27988,
          "time": 116.61666666666666,
          "velocity": 0.2677165354330709
        },
        {
          "duration": 0.22083333333333144,
          "durationTicks": 53,
          "midi": 57,
          "name": "A3",
          "ticks": 27993,
          "time": 116.6375,
          "velocity": 0.2992125984251969
        },
        {
          "duration": 0.041666666666671404,
          "durationTicks": 10,
          "midi": 88,
          "name": "E6",
          "ticks": 28103,
          "time": 117.09583333333333,
          "velocity": 0.09448818897637795
        },
        {
          "duration": 0.07083333333332575,
          "durationTicks": 17,
          "midi": 31,
          "name": "G1",
          "ticks": 28113,
          "time": 117.1375,
          "velocity": 0.33070866141732286
        },
        {
          "duration": 0.21249999999999147,
          "durationTicks": 51,
          "midi": 31,
          "name": "G1",
          "ticks": 28252,
          "time": 117.71666666666667,
          "velocity": 0.25196850393700787
        },
        {
          "duration": 0.08750000000000568,
          "durationTicks": 21,
          "midi": 60,
          "name": "C4",
          "ticks": 28286,
          "time": 117.85833333333333,
          "velocity": 0.15748031496062992
        },
        {
          "duration": 0.15833333333333144,
          "durationTicks": 38,
          "midi": 98,
          "name": "D7",
          "ticks": 28387,
          "time": 118.27916666666667,
          "velocity": 0.3464566929133858
        },
        {
          "duration": 0.07916666666666572,
          "durationTicks": 19,
          "midi": 55,
          "name": "G3",
          "ticks": 28550,
          "time": 118.95833333333333,
          "velocity": 0.3779527559055118
        },
        {
          "duration": 0.041666666666671404,
          "durationTicks": 10,
          "midi": 64,
          "name": "E4",
          "ticks": 28629,
          "time": 119.2875,
          "velocity": 0.1968503937007874
        },
        {
          "duration": 0.25,
          "durationTicks": 60,
          "midi": 35,
          "name": "B1",
          "ticks": 28641,
          "time": 119.3375,
          "velocity": 0.44881889763779526
        },
        {
          "duration": 0.05833333333333712,
          "durationTicks": 14,
          "midi": 90,
          "name": "F#6",
          "ticks": 28773,
          "time": 119.8875,
          "velocity": 0.13385826771653545
        },
        {
          "duration": 0.10000000000000853,
          "durationTicks": 24,
          "midi": 83,
          "name": "B5",
          "ticks": 28790,
          "time": 119.95833333333333,
          "velocity": 0.1889763779527559
        },
        {
          "duration": 0.08749999999999147,
          "durationTicks": 21,
          "midi": 83,
          "name": "B5",
          "ticks": 28922,
          "time": 120.50833333333334,
          "velocity": 0.09448818897637795
        },
        {
          "duration": 0.04999999999999716,
          "durationTicks": 12,
          "midi": 97,
          "name": "C#7",
          "ticks": 28939,
          "time": 120.57916666666667,
          "velocity": 0.12598425196850394
        },
        {
          "duration": 0.037500000000008527,
          "durationTicks": 9,
          "midi": 95,
          "name": "B6",
          "ticks": 28951,
          "time": 120.62916666666666,
          "velocity": 0.2440944881889764
        },
        {
          "duration": 0.24166666666666003,
          "durationTicks": 58,
          "midi": 92,
          "name": "G#6",
          "ticks": 29032,
          "time": 120.96666666666667,
          "velocity": 0.49606299212598426
        },
        {
          "duration": 0.07083333333333997,
          "durationTicks": 17,
          "midi": 34,
          "name": "A#1",
          "ticks": 29049,
          "time": 121.0375,
          "velocity": 0.33858267716535434
        },
        {
          "duration": 0.07083333333333997,
          "durationTicks": 17,
          "midi": 57,
          "name": "A3",
          "ticks": 29135,
          "time": 121.39583333333333,
          "velocity": 0.11811023622047244
        },
        {
          "duration": 0.14166666666666572,
          "durationTicks": 34,
          "midi": 64,
          "name": "E4",
          "ticks": 29135,
          "time": 121.39583333333333,
          "velocity": 0.33858267716535434
        },
        {
          "duration": 0.17083333333333428,
          "durationTicks": 41,
          "midi": 62,
          "name": "D4",
          "ticks": 29174,
          "time": 121.55833333333334,
          "velocity": 0.3858267716535433
        },
        {
          "duration": 0.17083333333333428,
          "durationTicks": 41,
          "midi": 83,
          "name": "B5",
          "ticks": 29296,
          "time": 122.06666666666666,
          "velocity": 0.16535433070866143
        },
        {
          "duration": 0.09166666666666856,
          "durationTicks": 22,
          "midi": 83,
          "name": "B5",
          "ticks": 29476,
          "time": 122.81666666666666,
          "velocity": 0.36220472440944884
        },
        {
          "duration": 0.2083333333333428,
          "durationTicks": 50,
          "midi": 64,
          "name": "E4",
          "ticks": 29563,
          "time": 123.17916666666666,
          "velocity": 0.41732283464566927
        },
        {
          "duration": 0.04999999999999716,
          "durationTicks": 12,
          "midi": 83,
          "name": "B5",
          "ticks": 29620,
          "time": 123.41666666666667,
          "velocity": 0.16535433070866143
        },
        {
          "duration": 0.04166666666665719,
          "durationTicks": 10,
          "midi": 64,
          "name": "E4",
          "ticks": 29627,
          "time": 123.44583333333334,
          "velocity": 0.08661417322834646
        },
        {
          "duration": 0.2291666666666714,
          "durationTicks": 55,
          "midi": 100,
          "name": "E7",
          "ticks": 29690,
          "time": 123.70833333333333,
          "velocity": 0.44881889763779526
        },
        {
          "duration": 0.04999999999999716,
          "durationTicks": 12,
          "midi": 97,
          "name": "C#7",
          "ticks": 29827,
          "time": 124.27916666666667,
          "velocity": 0.2047244094488189
        },
        {
          "duration": 0.09166666666666856,
          "durationTicks": 22,
          "midi": 62,
          "name": "D4",
          "ticks": 29855,
          "time": 124.39583333333333,
          "velocity": 0.11023622047244094
        },
        {
          "duration": 0.19166666666666288,
          "durationTicks": 46,
          "midi": 41,
          "name": "F2",
          "ticks": 29925,
          "time": 124.6875,
          "velocity": 0.5196850393700787
        },
        {
          "duration": 0.09166666666665435,
          "durationTicks": 22,
          "midi": 57,
          "name": "A3",
          "ticks": 29987,
          "time": 124.94583333333334,
          "velocity": 0.3228346456692913
        },
        {
          "duration": 0.28333333333333144,
          "durationTicks": 68,
          "midi": 57,
          "name": "A3",
          "ticks": 30071,
          "time": 125.29583333333333,
          "velocity": 0.3464566929133858
        },
        {
          "duration": 0.06666666666666288,
          "durationTicks": 16,
          "midi": 31,
          "name": "G1",
          "ticks": 30079,
          "time": 125.32916666666667,
          "velocity": 0.3464566929133858
        },
        {
          "duration": 0.07916666666666572,
          "durationTicks": 19,
          "midi": 83,
          "name": "B5",
          "ticks": 30213,
          "time": 125.8875,
          "velocity": 0.4881889763779528
        },
        {
          "duration": 0.037499999999994316,
          "durationTicks": 9,
          "midi": 95,
          "name": "B6",
          "ticks": 30235,
          "time": 125.97916666666667,
          "velocity": 0.2204724409448819
        },
        {
          "duration": 0.0625,
          "durationTicks": 15,
          "midi": 91,
          "name": "G6",
          "ticks": 30364,
          "time": 126.51666666666667,
          "velocity": 0.1968503937007874
        },
        {
          "duration": 0.07916666666666572,
          "durationTicks": 19,
          "midi": 76,
          "name": "E5",
          "ticks": 30410,
          "time": 126.70833333333333,
          "velocity": 0.16535433070866143
        },
        {
          "duration": 0.08750000000000568,
          "durationTicks": 21,
          "midi": 38,
          "name": "D2",
          "ticks": 30439,
          "time": 126.82916666666667,
          "velocity": 0.1968503937007874
        },
        {
          "duration": 0.05833333333332291,
          "durationTicks": 14,
          "midi": 33,
          "name": "A1",
          "ticks": 30475,
          "time": 126.97916666666667,
          "velocity": 0.4330708661417323
        },
        {
          "duration": 0.25833333333332575,
          "durationTicks": 62,
          "midi": 36,
          "name": "C2",
          "ticks": 30501,
          "time": 127.0875,
          "velocity": 0.28346456692913385
        },
        {
          "duration": 0.3291666666666657,
          "durationTicks": 79,
          "midi": 76,
          "name": "E5",
          "ticks": 30604,
          "time": 127.51666666666667,
          "velocity": 0.2677165354330709
        },
        {
          "duration": 0.13333333333332575,
          "durationTicks": 32,
          "midi": 83,
          "name": "B5",
          "ticks": 30671,
          "time": 127.79583333333333,
          "velocity": 0.08661417322834646
        },
        {
          "duration": 0.3291666666666657,
          "durationTicks": 79,
          "midi": 76,
          "name": "E5",
          "ticks": 30686,
          "time": 127.85833333333333,
          "velocity": 0.3700787401574803
        },
        {
          "duration": 0.10833333333334849,
          "durationTicks": 26,
          "midi": 83,
          "name": "B5",
          "ticks": 30818,
          "time": 128.40833333333333,
          "velocity": 0.1889763779527559
        },
        {
          "duration": 0.09166666666666856,
          "durationTicks": 22,
          "midi": 71,
          "name": "B4",
          "ticks": 30875,
          "time": 128.64583333333334,
          "velocity": 0.28346456692913385
        },
        {
          "duration": 0.05000000000001137,
          "durationTicks": 12,
          "midi": 88,
          "name": "E6",
          "ticks": 30931,
          "time": 128.87916666666666,
          "velocity": 0.25196850393700787
        },
        {
          "duration": 0.1416666666666515,
          "durationTicks": 34,
          "midi": 64,
          "name": "E4",
          "ticks": 30935,
          "time": 128.89583333333334,
          "velocity": 0.14960629921259844
        },
        {
          "duration": 0.2583333333333542,
          "durationTicks": 62,
          "midi": 76,
          "name": "E5",
          "ticks": 30962,
          "time": 129.00833333333333,
          "velocity": 0.08661417322834646
        },
        {
          "duration": 0.04999999999998295,
          "durationTicks": 12,
          "midi": 45,
          "name": "A2",
          "ticks": 31048,
          "time": 129.36666666666667,
          "velocity": 0.3700787401574803
        },
        {
          "duration": 0.05833333333333712,
          "durationTicks": 14,
          "midi": 88,
          "name": "E6",
          "ticks": 31125,
          "time": 129.6875,
          "velocity": 0.2440944881889764
        },
        {
          "duration": 0.24166666666664582,
          "durationTicks": 58,
          "midi": 31,
          "name": "G1",
          "ticks": 31144,
          "time": 129.76666666666668,
          "velocity": 0.2440944881889764
        },
        {
          "duration": 0.25833333333332575,
          "durationTicks": 62,
          "midi": 31,
          "name": "G1",
          "ticks": 31250,
          "time": 130.20833333333334,
          "velocity": 0.29133858267716534
        },
        {
          "duration": 0.03750000000002274,
          "durationTicks": 9,
          "midi": 31,
          "name": "G1",
          "ticks": 31315,
          "time": 130.47916666666666,
          "velocity": 0.2204724409448819
        },
        {
          "duration": 0.08750000000000568,
          "durationTicks": 21,
          "midi": 76,
          "name": "E5",
          "ticks": 31358,
          "time": 130.65833333333333,
          "velocity": 0.08661417322834646
        },
        {
          "duration": 0.07083333333332575,
          "durationTicks": 17,
          "midi": 69,
          "name": "A4",
          "ticks": 31432,
          "time": 130.96666666666667,
          "velocity": 0.16535433070866143
        },
        {
          "duration": 0.11666666666664582,
          "durationTicks": 28,
          "midi": 86,
          "name": "D6",
          "ticks": 31519,
          "time": 131.32916666666668,
          "velocity": 0.11811023622047244
        },
        {
          "duration": 0.09166666666664014,
          "durationTicks": 22,
          "midi": 55,
          "name": "G3",
          "ticks": 31564,
          "time": 131.51666666666668,
          "velocity": 0.4566929133858268
        },
        {
          "duration": 0.26249999999998863,
          "durationTicks": 63,
          "midi": 31,
          "name": "G1",
          "ticks": 31648,
          "time": 131.86666666666667,
          "velocity": 0.36220472440944884
        },
        {
          "duration": 0.09166666666666856,
          "durationTicks": 22,
          "midi": 43,
          "name": "G2",
          "ticks": 31773,
          "time": 132.3875,
          "velocity": 0.4094488188976378
        },
        {
          "duration": 0.28333333333333144,
          "durationTicks": 68,
          "midi": 31,
          "name": "G1",
          "ticks": 31907,
          "time": 132.94583333333333,
          "velocity": 0.23622047244094488
        },
        {
          "duration": 0.0583333333333087,
          "durationTicks": 14,
          "midi": 88,
          "name": "E6",
          "ticks": 31977,
          "time": 133.2375,
          "velocity": 0.16535433070866143
        },
        {
          "duration": 0.2708333333333428,
          "durationTicks": 65,
          "midi": 31,
          "name": "G1",
          "ticks": 32039,
          "time": 133.49583333333334,
          "velocity": 0.31496062992125984
        },
        {
          "duration": 0.04166666666665719,
          "durationTicks": 10,
          "midi": 96,
          "name": "C7",
          "ticks": 32152,
          "time": 133.96666666666667,
          "velocity": 0.2047244094488189
        },
        {
          "duration": 0.07083333333335418,
          "durationTicks": 17,
          "midi": 91,
          "name": "G6",
          "ticks": 32171,
          "time": 134.04583333333332,
          "velocity": 0.2677165354330709
        },
        {
          "duration": 0.22083333333333144,
          "durationTicks": 53,
          "midi": 31,
          "name": "G1",
          "ticks": 32301,
          "time": 134.5875,
          "velocity": 0.33070866141732286
        },
        {
          "duration": 0.24166666666667425,
          "durationTicks": 58,
          "midi": 31,
          "name": "G1",
          "ticks": 32433,
          "time": 135.1375,
          "velocity": 0.2992125984251969
        },
        {
          "duration": 0.04999999999998295,
          "durationTicks": 12,
          "midi": 72,
          "name": "C5",
          "ticks": 32534,
          "time": 135.55833333333334,
          "velocity": 0.07874015748031496
        },
        {
          "duration": 0.17083333333332007,
          "durationTicks": 41,
          "midi": 31,
          "name": "G1",
          "ticks": 32565,
          "time": 135.6875,
          "velocity": 0.23622047244094488
        },
        {
          "duration": 0.10833333333332007,
          "durationTicks": 26,
          "midi": 72,
          "name": "C5",
          "ticks": 32601,
          "time": 135.8375,
          "velocity": 0.18110236220472442
        },
        {
          "duration": 0.21249999999997726,
          "durationTicks": 51,
          "midi": 64,
          "name": "E4",
          "ticks": 32704,
          "time": 136.26666666666668,
          "velocity": 0.3228346456692913
        },
        {
          "duration": 0.05000000000001137,
          "durationTicks": 12,
          "midi": 79,
          "name": "G5",
          "ticks": 32783,
          "time": 136.59583333333333,
          "velocity": 0.15748031496062992
        },
        {
          "duration": 0.041666666666685614,
          "durationTicks": 10,
          "midi": 88,
          "name": "E6",
          "ticks": 32793,
          "time": 136.6375,
          "velocity": 0.1889763779527559
        },
        {
          "duration": 0.08750000000000568,
          "durationTicks": 21,
          "midi": 55,
          "name": "G3",
          "ticks": 32803,
          "time": 136.67916666666667,
          "velocity": 0.18110236220472442
        },
        {
          "duration": 0.2291666666666572,
          "durationTicks": 55,
          "midi": 31,
          "name": "G1",
          "ticks": 32827,
          "time": 136.77916666666667,
          "velocity": 0.14173228346456693
        },
        {
          "duration": 0.25,
          "durationTicks": 60,
          "midi": 31,
          "name": "G1",
          "ticks": 32954,
          "time": 137.30833333333334,
          "velocity": 0.25196850393700787
        },
        {
          "duration": 0.07083333333335418,
          "durationTicks": 17,
          "midi": 86,
          "name": "D6",
          "ticks": 33002,
          "time": 137.50833333333333,
          "velocity": 0.1968503937007874
        },
        {
          "duration": 0.2333333333333485,
          "durationTicks": 56,
          "midi": 60,
          "name": "C4",
          "ticks": 33047,
          "time": 137.69583333333333,
          "velocity": 0.13385826771653545
        },
        {
          "duration": 0.09999999999999432,
          "durationTicks": 24,
          "midi": 57,
          "name": "A3",
          "ticks": 33095,
          "time": 137.89583333333334,
          "velocity": 0.1732283464566929
        },
        {
          "duration": 0.07083333333332575,
          "durationTicks": 17,
          "midi": 72,
          "name": "C5",
          "ticks": 33112,
          "time": 137.96666666666667,
          "velocity": 0.2677165354330709
        },
        {
          "duration": 0.09166666666666856,
          "durationTicks": 22,
          "midi": 57,
          "name": "A3",
          "ticks": 33129,
          "time": 138.0375,
          "velocity": 0.2992125984251969
        },
        {
          "duration": 0.07083333333332575,
          "durationTicks": 17,
          "midi": 34,
          "name": "A#1",
          "ticks": 33237,
          "time": 138.4875,
          "velocity": 0.29133858267716534
        },
        {
          "duration": 0.15833333333333144,
          "durationTicks": 38,
          "midi": 88,
          "name": "E6",
          "ticks": 33285,
          "time": 138.6875,
          "velocity": 0.3543307086614173
        },
        {
          "duration": 0.07916666666667993,
          "durationTicks": 19,
          "midi": 64,
          "name": "E4",
          "ticks": 33326,
          "time": 138.85833333333332,
          "velocity": 0.25196850393700787
        },
        {
          "duration": 0.17916666666667425,
          "durationTicks": 43,
          "midi": 74,
          "name": "D5",
          "ticks": 33355,
          "time": 138.97916666666666,
          "velocity": 0.33858267716535434
        },
        {
          "duration": 0.5,
          "durationTicks": 120,
          "midi": 64,
          "name": "E4",
          "ticks": 33422,
          "time": 139.25833333333333,
          "velocity": 0.2125984251968504
        },
        {
          "duration": 0.08333333333331439,
          "durationTicks": 20,
          "midi": 79,
          "name": "G5",
          "ticks": 33455,
          "time": 139.39583333333334,
          "velocity": 0.10236220472440945
        },
        {
          "duration": 0.03750000000002274,
          "durationTicks": 9,
          "midi": 52,
          "name": "E3",
          "ticks": 33475,
          "time": 139.47916666666666,
          "velocity": 0.13385826771653545
        },
        {
          "duration": 0.05000000000001137,
          "durationTicks": 12,
          "midi": 86,
          "name": "D6",
          "ticks": 33525,
          "time": 139.6875,
          "velocity": 0.10236220472440945
        },
        {
          "duration": 0.2708333333333428,
          "durationTicks": 65,
          "midi": 31,
          "name": "G1",
          "ticks": 33614,
          "time": 140.05833333333334,
          "velocity": 0.3937007874015748
        },
        {
          "duration": 0.12916666666666288,
          "durationTicks": 31,
          "midi": 62,
          "name": "D4",
          "ticks": 33628,
          "time": 140.11666666666667,
          "velocity": 0.33070866141732286
        },
        {
          "duration": 0.0625,
          "durationTicks": 15,
          "midi": 88,
          "name": "E6",
          "ticks": 33743,
          "time": 140.59583333333333,
          "velocity": 0.2755905511811024
        },
        {
          "duration": 0.19166666666666288,
          "durationTicks": 46,
          "midi": 76,
          "name": "E5",
          "ticks": 33748,
          "time": 140.61666666666667,
          "velocity": 0.3543307086614173
        },
        {
          "duration": 0.18333333333333712,
          "durationTicks": 44,
          "midi": 74,
          "name": "D5",
          "ticks": 33875,
          "time": 141.14583333333334,
          "velocity": 0.3858267716535433
        },
        {
          "duration": 0.1875,
          "durationTicks": 45,
          "midi": 59,
          "name": "B3",
          "ticks": 33986,
          "time": 141.60833333333332,
          "velocity": 0.08661417322834646
        },
        {
          "duration": 0.04999999999998295,
          "durationTicks": 12,
          "midi": 86,
          "name": "D6",
          "ticks": 34055,
          "time": 141.89583333333334,
          "velocity": 0.18110236220472442
        },
        {
          "duration": 0.13333333333332575,
          "durationTicks": 32,
          "midi": 64,
          "name": "E4",
          "ticks": 34079,
          "time": 141.99583333333334,
          "velocity": 0.08661417322834646
        },
        {
          "duration": 0.26666666666667993,
          "durationTicks": 64,
          "midi": 31,
          "name": "G1",
          "ticks": 34135,
          "time": 142.22916666666666,
          "velocity": 0.31496062992125984
        },
        {
          "duration": 0.2666666666666515,
          "durationTicks": 64,
          "midi": 31,
          "name": "G1",
          "ticks": 34267,
          "time": 142.77916666666667,
          "velocity": 0.30708661417322836
        },
        {
          "duration": 0.2916666666666856,
          "durationTicks": 70,
          "midi": 81,
          "name": "A5",
          "ticks": 34271,
          "time": 142.79583333333332,
          "velocity": 0.4094488188976378
        },
        {
          "duration": 0.06666666666666288,
          "durationTicks": 16,
          "midi": 55,
          "name": "G3",
          "ticks": 34447,
          "time": 143.52916666666667,
          "velocity": 0.4645669291338583
        },
        {
          "duration": 0.27916666666666856,
          "durationTicks": 67,
          "midi": 31,
          "name": "G1",
          "ticks": 34528,
          "time": 143.86666666666667,
          "velocity": 0.3700787401574803
        },
        {
          "duration": 0.07916666666665151,
          "durationTicks": 19,
          "midi": 91,
          "name": "G6",
          "ticks": 34528,
          "time": 143.86666666666667,
          "velocity": 0.2677165354330709
        },
        {
          "duration": 0.07916666666665151,
          "durationTicks": 19,
          "midi": 55,
          "name": "G3",
          "ticks": 34543,
          "time": 143.92916666666667,
          "velocity": 0.25984251968503935
        },
        {
          "duration": 0.09166666666666856,
          "durationTicks": 22,
          "midi": 69,
          "name": "A4",
          "ticks": 34600,
          "time": 144.16666666666666,
          "velocity": 0.12598425196850394
        },
        {
          "duration": 0.11250000000001137,
          "durationTicks": 27,
          "midi": 79,
          "name": "G5",
          "ticks": 34631,
          "time": 144.29583333333332,
          "velocity": 0.11023622047244094
        },
        {
          "duration": 0.5708333333333258,
          "durationTicks": 137,
          "midi": 57,
          "name": "A3",
          "ticks": 34701,
          "time": 144.5875,
          "velocity": 0.2204724409448819
        },
        {
          "duration": 0.12083333333333712,
          "durationTicks": 29,
          "midi": 52,
          "name": "E3",
          "ticks": 34761,
          "time": 144.8375,
          "velocity": 0.11811023622047244
        },
        {
          "duration": 0.09999999999999432,
          "durationTicks": 24,
          "midi": 86,
          "name": "D6",
          "ticks": 34819,
          "time": 145.07916666666668,
          "velocity": 0.25984251968503935
        },
        {
          "duration": 0.12916666666666288,
          "durationTicks": 31,
          "midi": 86,
          "name": "D6",
          "ticks": 34891,
          "time": 145.37916666666666,
          "velocity": 0.4330708661417323
        },
        {
          "duration": 0.07916666666667993,
          "durationTicks": 19,
          "midi": 69,
          "name": "A4",
          "ticks": 34898,
          "time": 145.40833333333333,
          "velocity": 0.2992125984251969
        },
        {
          "duration": 0.07916666666667993,
          "durationTicks": 19,
          "midi": 57,
          "name": "A3",
          "ticks": 34965,
          "time": 145.6875,
          "velocity": 0.2047244094488189
        },
        {
          "duration": 0.05833333333333712,
          "durationTicks": 14,
          "midi": 57,
          "name": "A3",
          "ticks": 35011,
          "time": 145.87916666666666,
          "velocity": 0.2204724409448819
        },
        {
          "duration": 0.12083333333333712,
          "durationTicks": 29,
          "midi": 86,
          "name": "D6",
          "ticks": 35020,
          "time": 145.91666666666666,
          "velocity": 0.2125984251968504
        },
        {
          "duration": 0.05000000000001137,
          "durationTicks": 12,
          "midi": 100,
          "name": "E7",
          "ticks": 35027,
          "time": 145.94583333333333,
          "velocity": 0.14173228346456693
        },
        {
          "duration": 0.3291666666666515,
          "durationTicks": 79,
          "midi": 83,
          "name": "B5",
          "ticks": 35152,
          "time": 146.46666666666667,
          "velocity": 0.07874015748031496
        },
        {
          "duration": 0.21250000000000568,
          "durationTicks": 51,
          "midi": 48,
          "name": "C3",
          "ticks": 35668,
          "time": 148.61666666666667,
          "velocity": 0.25984251968503935
        },
        {
          "duration": 0.037499999999994316,
          "durationTicks": 9,
          "midi": 57,
          "name": "A3",
          "ticks": 35894,
          "time": 149.55833333333334,
          "velocity": 0.08661417322834646
        },
        {
          "duration": 0.22916666666668561,
          "durationTicks": 55,
          "midi": 79,
          "name": "G5",
          "ticks": 35906,
          "time": 149.60833333333332,
          "velocity": 0.4094488188976378
        },
        {
          "duration": 0.09999999999999432,
          "durationTicks": 24,
          "midi": 43,
          "name": "G2",
          "ticks": 36023,
          "time": 150.09583333333333,
          "velocity": 0.2125984251968504
        },
        {
          "duration": 0.07083333333332575,
          "durationTicks": 17,
          "midi": 59,
          "name": "B3",
          "ticks": 36148,
          "time": 150.61666666666667,
          "velocity": 0.16535433070866143
        },
        {
          "duration": 0.700000000000017,
          "durationTicks": 168,
          "midi": 45,
          "name": "A2",
          "ticks": 36331,
          "time": 151.37916666666666,
          "velocity": 0.3937007874015748
        },
        {
          "duration": 0.037499999999994316,
          "durationTicks": 9,
          "midi": 50,
          "name": "D3",
          "ticks": 36379,
          "time": 151.57916666666668,
          "velocity": 0.3464566929133858
        },
        {
          "duration": 0.24166666666667425,
          "durationTicks": 58,
          "midi": 60,
          "name": "C4",
          "ticks": 36431,
          "time": 151.79583333333332,
          "velocity": 0.25196850393700787
        },
        {
          "duration": 0.09999999999999432,
          "durationTicks": 24,
          "midi": 50,
          "name": "D3",
          "ticks": 36556,
          "time": 152.31666666666666,
          "velocity": 0.1732283464566929
        },
        {
          "duration": 0.07083333333332575,
          "durationTicks": 17,
          "midi": 64,
          "name": "E4",
          "ticks": 36585,
          "time": 152.4375,
          "velocity": 0.33858267716535434
        },
        {
          "duration": 0.13749999999998863,
          "durationTicks": 33,
          "midi": 55,
          "name": "G3",
          "ticks": 36638,
          "time": 152.65833333333333,
          "velocity": 0.31496062992125984
        },
        {
          "duration": 0.05000000000001137,
          "durationTicks": 12,
          "midi": 50,
          "name": "D3",
          "ticks": 36676,
          "time": 152.81666666666666,
          "velocity": 0.2204724409448819
        },
        {
          "duration": 0.19166666666666288,
          "durationTicks": 46,
          "midi": 50,
          "name": "D3",
          "ticks": 36717,
          "time": 152.9875,
          "velocity": 0.3700787401574803
        },
        {
          "duration": 0.05000000000001137,
          "durationTicks": 12,
          "midi": 45,
          "name": "A2",
          "ticks": 36746,
          "time": 153.10833333333332,
          "velocity": 0.12598425196850394
        },
        {
          "duration": 0.19999999999998863,
          "durationTicks": 48,
          "midi": 62,
          "name": "D4",
          "ticks": 36959,
          "time": 153.99583333333334,
          "velocity": 0.49606299212598426
        },
        {
          "duration": 0.25833333333332575,
          "durationTicks": 62,
          "midi": 43,
          "name": "G2",
          "ticks": 37070,
          "time": 154.45833333333334,
          "velocity": 0.36220472440944884
        },
        {
          "duration": 0.19999999999998863,
          "durationTicks": 48,
          "midi": 53,
          "name": "F3",
          "ticks": 37159,
          "time": 154.82916666666668,
          "velocity": 0.25196850393700787
        },
        {
          "duration": 0.8416666666666686,
          "durationTicks": 202,
          "midi": 48,
          "name": "C3",
          "ticks": 37228,
          "time": 155.11666666666667,
          "velocity": 0.4330708661417323
        },
        {
          "duration": 0.4375,
          "durationTicks": 105,
          "midi": 67,
          "name": "G4",
          "ticks": 37370,
          "time": 155.70833333333334,
          "velocity": 0.33070866141732286
        },
        {
          "duration": 0.42083333333332007,
          "durationTicks": 101,
          "midi": 36,
          "name": "C2",
          "ticks": 37439,
          "time": 155.99583333333334,
          "velocity": 0.3228346456692913
        },
        {
          "duration": 0.04166666666665719,
          "durationTicks": 10,
          "midi": 76,
          "name": "E5",
          "ticks": 37581,
          "time": 156.5875,
          "velocity": 0.2204724409448819
        },
        {
          "duration": 0.07916666666665151,
          "durationTicks": 19,
          "midi": 74,
          "name": "D5",
          "ticks": 37610,
          "time": 156.70833333333334,
          "velocity": 0.25196850393700787
        },
        {
          "duration": 0.4416666666666913,
          "durationTicks": 106,
          "midi": 42,
          "name": "F#2",
          "ticks": 37631,
          "time": 156.79583333333332,
          "velocity": 0.3858267716535433
        },
        {
          "duration": 0.07916666666665151,
          "durationTicks": 19,
          "midi": 79,
          "name": "G5",
          "ticks": 37677,
          "time": 156.9875,
          "velocity": 0.3543307086614173
        },
        {
          "duration": 0.07083333333332575,
          "durationTicks": 17,
          "midi": 79,
          "name": "G5",
          "ticks": 37739,
          "time": 157.24583333333334,
          "velocity": 0.48031496062992124
        },
        {
          "duration": 0.32083333333332575,
          "durationTicks": 77,
          "midi": 53,
          "name": "F3",
          "ticks": 37756,
          "time": 157.31666666666666,
          "velocity": 0.44881889763779526
        },
        {
          "duration": 0.05833333333333712,
          "durationTicks": 14,
          "midi": 84,
          "name": "C6",
          "ticks": 37869,
          "time": 157.7875,
          "velocity": 0.3543307086614173
        },
        {
          "duration": 0.08750000000000568,
          "durationTicks": 21,
          "midi": 55,
          "name": "G3",
          "ticks": 37982,
          "time": 158.25833333333333,
          "velocity": 0.2283464566929134
        },
        {
          "duration": 0.24166666666667425,
          "durationTicks": 58,
          "midi": 43,
          "name": "G2",
          "ticks": 38020,
          "time": 158.41666666666666,
          "velocity": 0.3779527559055118
        },
        {
          "duration": 0.09999999999999432,
          "durationTicks": 24,
          "midi": 62,
          "name": "D4",
          "ticks": 38102,
          "time": 158.75833333333333,
          "velocity": 0.2125984251968504
        },
        {
          "duration": 0.09999999999999432,
          "durationTicks": 24,
          "midi": 62,
          "name": "D4",
          "ticks": 38203,
          "time": 159.17916666666667,
          "velocity": 0.09448818897637795
        },
        {
          "duration": 0.3291666666666515,
          "durationTicks": 79,
          "midi": 52,
          "name": "E3",
          "ticks": 38284,
          "time": 159.51666666666668,
          "velocity": 0.3543307086614173
        },
        {
          "duration": 0.13333333333332575,
          "durationTicks": 32,
          "midi": 90,
          "name": "F#6",
          "ticks": 38363,
          "time": 159.84583333333333,
          "velocity": 0.2440944881889764
        },
        {
          "duration": 0.8708333333333371,
          "durationTicks": 209,
          "midi": 45,
          "name": "A2",
          "ticks": 38385,
          "time": 159.9375,
          "velocity": 0.3700787401574803
        },
        {
          "duration": 0.1708333333333485,
          "durationTicks": 41,
          "midi": 55,
          "name": "G3",
          "ticks": 38471,
          "time": 160.29583333333332,
          "velocity": 0.2204724409448819
        },
        {
          "duration": 0.07083333333332575,
          "durationTicks": 17,
          "midi": 55,
          "name": "G3",
          "ticks": 38536,
          "time": 160.56666666666666,
          "velocity": 0.3228346456692913
        },
        {
          "duration": 0.0625,
          "durationTicks": 15,
          "midi": 45,
          "name": "A2",
          "ticks": 38615,
          "time": 160.89583333333334,
          "velocity": 0.2047244094488189
        },
        {
          "duration": 0.17916666666667425,
          "durationTicks": 43,
          "midi": 45,
          "name": "A2",
          "ticks": 38678,
          "time": 161.15833333333333,
          "velocity": 0.23622047244094488
        },
        {
          "duration": 0.12083333333333712,
          "durationTicks": 29,
          "midi": 64,
          "name": "E4",
          "ticks": 38750,
          "time": 161.45833333333334,
          "velocity": 0.15748031496062992
        },
        {
          "duration": 0.0625,
          "durationTicks": 15,
          "midi": 79,
          "name": "G5",
          "ticks": 38927,
          "time": 162.19583333333333,
          "velocity": 0.07874015748031496
        },
        {
          "duration": 0.037499999999994316,
          "durationTicks": 9,
          "midi": 50,
          "name": "D3",
          "ticks": 38971,
          "time": 162.37916666666666,
          "velocity": 0.09448818897637795
        },
        {
          "duration": 0.1708333333333485,
          "durationTicks": 41,
          "midi": 38,
          "name": "D2",
          "ticks": 39011,
          "time": 162.54583333333332,
          "velocity": 0.14173228346456693
        },
        {
          "duration": 0.08333333333334281,
          "durationTicks": 20,
          "midi": 59,
          "name": "B3",
          "ticks": 39059,
          "time": 162.74583333333334,
          "velocity": 0.36220472440944884
        },
        {
          "duration": 0.4333333333333371,
          "durationTicks": 104,
          "midi": 52,
          "name": "E3",
          "ticks": 39071,
          "time": 162.79583333333332,
          "velocity": 0.3779527559055118
        },
        {
          "duration": 0.18333333333333712,
          "durationTicks": 44,
          "midi": 40,
          "name": "E2",
          "ticks": 39167,
          "time": 163.19583333333333,
          "velocity": 0.3700787401574803
        },
        {
          "duration": 0.12083333333333712,
          "durationTicks": 29,
          "midi": 62,
          "name": "D4",
          "ticks": 39194,
          "time": 163.30833333333334,
          "velocity": 0.31496062992125984
        },
        {
          "duration": 0.5208333333333428,
          "durationTicks": 125,
          "midi": 40,
          "name": "E2",
          "ticks": 39263,
          "time": 163.59583333333333,
          "velocity": 0.4094488188976378
        },
        {
          "duration": 0.037499999999994316,
          "durationTicks": 9,
          "midi": 83,
          "name": "B5",
          "ticks": 39283,
          "time": 163.67916666666667,
          "velocity": 0.29133858267716534
        },
        {
          "duration": 0.05833333333333712,
          "durationTicks": 14,
          "midi": 99,
          "name": "D#7",
          "ticks": 39302,
          "time": 163.75833333333333,
          "velocity": 0.25984251968503935
        },
        {
          "duration": 1.0916666666666686,
          "durationTicks": 262,
          "midi": 45,
          "name": "A2",
          "ticks": 39347,
          "time": 163.94583333333333,
          "velocity": 0.4409448818897638
        },
        {
          "duration": 0.10000000000002274,
          "durationTicks": 24,
          "midi": 64,
          "name": "E4",
          "ticks": 39520,
          "time": 164.66666666666666,
          "velocity": 0.33070866141732286
        },
        {
          "duration": 0.0625,
          "durationTicks": 15,
          "midi": 83,
          "name": "B5",
          "ticks": 39683,
          "time": 165.34583333333333,
          "velocity": 0.2283464566929134
        },
        {
          "duration": 0.04999999999998295,
          "durationTicks": 12,
          "midi": 31,
          "name": "G1",
          "ticks": 39943,
          "time": 166.42916666666667,
          "velocity": 0.25196850393700787
        },
        {
          "duration": 0.04999999999998295,
          "durationTicks": 12,
          "midi": 76,
          "name": "E5",
          "ticks": 39974,
          "time": 166.55833333333334,
          "velocity": 0.4645669291338583
        },
        {
          "duration": 0.10833333333334849,
          "durationTicks": 26,
          "midi": 57,
          "name": "A3",
          "ticks": 40058,
          "time": 166.90833333333333,
          "velocity": 0.5196850393700787
        },
        {
          "duration": 0.20000000000001705,
          "durationTicks": 48,
          "midi": 62,
          "name": "D4",
          "ticks": 40113,
          "time": 167.1375,
          "velocity": 0.47244094488188976
        },
        {
          "duration": 0.08333333333334281,
          "durationTicks": 20,
          "midi": 62,
          "name": "D4",
          "ticks": 40199,
          "time": 167.49583333333334,
          "velocity": 0.4094488188976378
        },
        {
          "duration": 0.08333333333331439,
          "durationTicks": 20,
          "midi": 74,
          "name": "D5",
          "ticks": 40235,
          "time": 167.64583333333334,
          "velocity": 0.48031496062992124
        },
        {
          "duration": 0.13749999999998863,
          "durationTicks": 33,
          "midi": 30,
          "name": "F#1",
          "ticks": 40303,
          "time": 167.92916666666667,
          "velocity": 0.5511811023622047
        },
        {
          "duration": 0.09999999999999432,
          "durationTicks": 24,
          "midi": 31,
          "name": "G1",
          "ticks": 40348,
          "time": 168.11666666666667,
          "velocity": 0.5118110236220472
        },
        {
          "duration": 0.07916666666665151,
          "durationTicks": 19,
          "midi": 60,
          "name": "C4",
          "ticks": 40384,
          "time": 168.26666666666668,
          "velocity": 0.25984251968503935
        },
        {
          "duration": 0.12916666666666288,
          "durationTicks": 31,
          "midi": 32,
          "name": "G#1",
          "ticks": 40408,
          "time": 168.36666666666667,
          "velocity": 0.3937007874015748
        },
        {
          "duration": 0.17916666666667425,
          "durationTicks": 43,
          "midi": 60,
          "name": "C4",
          "ticks": 40516,
          "time": 168.81666666666666,
          "velocity": 0.2047244094488189
        },
        {
          "duration": 0.09999999999999432,
          "durationTicks": 24,
          "midi": 34,
          "name": "A#1",
          "ticks": 40564,
          "time": 169.01666666666668,
          "velocity": 0.3858267716535433
        },
        {
          "duration": 0.07916666666667993,
          "durationTicks": 19,
          "midi": 60,
          "name": "C4",
          "ticks": 40660,
          "time": 169.41666666666666,
          "velocity": 0.14960629921259844
        },
        {
          "duration": 0.04999999999998295,
          "durationTicks": 12,
          "midi": 52,
          "name": "E3",
          "ticks": 40708,
          "time": 169.61666666666667,
          "velocity": 0.36220472440944884
        },
        {
          "duration": 0.15833333333335986,
          "durationTicks": 38,
          "midi": 55,
          "name": "G3",
          "ticks": 40826,
          "time": 170.10833333333332,
          "velocity": 0.3937007874015748
        },
        {
          "duration": 0.08333333333331439,
          "durationTicks": 20,
          "midi": 60,
          "name": "C4",
          "ticks": 40895,
          "time": 170.39583333333334,
          "velocity": 0.4330708661417323
        },
        {
          "duration": 0.27916666666666856,
          "durationTicks": 67,
          "midi": 64,
          "name": "E4",
          "ticks": 41037,
          "time": 170.9875,
          "velocity": 0.4409448818897638
        },
        {
          "duration": 0.09166666666666856,
          "durationTicks": 22,
          "midi": 62,
          "name": "D4",
          "ticks": 41157,
          "time": 171.4875,
          "velocity": 0.33858267716535434
        },
        {
          "duration": 0.10833333333334849,
          "durationTicks": 26,
          "midi": 102,
          "name": "F#7",
          "ticks": 41198,
          "time": 171.65833333333333,
          "velocity": 0.36220472440944884
        },
        {
          "duration": 0.12916666666666288,
          "durationTicks": 31,
          "midi": 62,
          "name": "D4",
          "ticks": 41258,
          "time": 171.90833333333333,
          "velocity": 0.49606299212598426
        },
        {
          "duration": 0.11250000000001137,
          "durationTicks": 27,
          "midi": 65,
          "name": "F4",
          "ticks": 41291,
          "time": 172.04583333333332,
          "velocity": 0.2992125984251969
        },
        {
          "duration": 0.17916666666667425,
          "durationTicks": 43,
          "midi": 53,
          "name": "F3",
          "ticks": 41349,
          "time": 172.2875,
          "velocity": 0.33070866141732286
        },
        {
          "duration": 0.10000000000002274,
          "durationTicks": 24,
          "midi": 31,
          "name": "G1",
          "ticks": 41395,
          "time": 172.47916666666666,
          "velocity": 0.4881889763779528
        },
        {
          "duration": 0.14999999999997726,
          "durationTicks": 36,
          "midi": 64,
          "name": "E4",
          "ticks": 41419,
          "time": 172.57916666666668,
          "velocity": 0.4881889763779528
        },
        {
          "duration": 0.05000000000001137,
          "durationTicks": 12,
          "midi": 76,
          "name": "E5",
          "ticks": 41469,
          "time": 172.7875,
          "velocity": 0.4094488188976378
        },
        {
          "duration": 0.20000000000001705,
          "durationTicks": 48,
          "midi": 64,
          "name": "E4",
          "ticks": 41507,
          "time": 172.94583333333333,
          "velocity": 0.5433070866141733
        },
        {
          "duration": 0.037499999999994316,
          "durationTicks": 9,
          "midi": 78,
          "name": "F#5",
          "ticks": 41599,
          "time": 173.32916666666668,
          "velocity": 0.31496062992125984
        },
        {
          "duration": 0.20000000000001705,
          "durationTicks": 48,
          "midi": 64,
          "name": "E4",
          "ticks": 41606,
          "time": 173.35833333333332,
          "velocity": 0.33070866141732286
        },
        {
          "duration": 0.0625,
          "durationTicks": 15,
          "midi": 59,
          "name": "B3",
          "ticks": 41644,
          "time": 173.51666666666668,
          "velocity": 0.2283464566929134
        },
        {
          "duration": 0.13750000000001705,
          "durationTicks": 33,
          "midi": 50,
          "name": "D3",
          "ticks": 41822,
          "time": 174.25833333333333,
          "velocity": 0.13385826771653545
        },
        {
          "duration": 0.19166666666666288,
          "durationTicks": 46,
          "midi": 88,
          "name": "E6",
          "ticks": 41829,
          "time": 174.2875,
          "velocity": 0.3464566929133858
        },
        {
          "duration": 0.12916666666666288,
          "durationTicks": 31,
          "midi": 83,
          "name": "B5",
          "ticks": 41901,
          "time": 174.5875,
          "velocity": 0.4330708661417323
        },
        {
          "duration": 0.0625,
          "durationTicks": 15,
          "midi": 79,
          "name": "G5",
          "ticks": 41932,
          "time": 174.71666666666667,
          "velocity": 0.47244094488188976
        },
        {
          "duration": 0.05000000000001137,
          "durationTicks": 12,
          "midi": 41,
          "name": "F2",
          "ticks": 41956,
          "time": 174.81666666666666,
          "velocity": 0.4566929133858268
        },
        {
          "duration": 0.09166666666666856,
          "durationTicks": 22,
          "midi": 88,
          "name": "E6",
          "ticks": 42009,
          "time": 175.0375,
          "velocity": 0.08661417322834646
        },
        {
          "duration": 0.15000000000000568,
          "durationTicks": 36,
          "midi": 84,
          "name": "C6",
          "ticks": 42055,
          "time": 175.22916666666666,
          "velocity": 0.36220472440944884
        },
        {
          "duration": 0.10833333333334849,
          "durationTicks": 26,
          "midi": 60,
          "name": "C4",
          "ticks": 42129,
          "time": 175.5375,
          "velocity": 0.31496062992125984
        },
        {
          "duration": 0.15000000000000568,
          "durationTicks": 36,
          "midi": 48,
          "name": "C3",
          "ticks": 42153,
          "time": 175.6375,
          "velocity": 0.4645669291338583
        },
        {
          "duration": 0.08749999999997726,
          "durationTicks": 21,
          "midi": 62,
          "name": "D4",
          "ticks": 42199,
          "time": 175.82916666666668,
          "velocity": 0.36220472440944884
        },
        {
          "duration": 0.03750000000002274,
          "durationTicks": 9,
          "midi": 59,
          "name": "B3",
          "ticks": 42295,
          "time": 176.22916666666666,
          "velocity": 0.16535433070866143
        },
        {
          "duration": 0.07083333333332575,
          "durationTicks": 17,
          "midi": 93,
          "name": "A6",
          "ticks": 42321,
          "time": 176.3375,
          "velocity": 0.25196850393700787
        },
        {
          "duration": 0.10000000000002274,
          "durationTicks": 24,
          "midi": 32,
          "name": "G#1",
          "ticks": 42400,
          "time": 176.66666666666666,
          "velocity": 0.28346456692913385
        },
        {
          "duration": 0.04999999999998295,
          "durationTicks": 12,
          "midi": 98,
          "name": "D7",
          "ticks": 42463,
          "time": 176.92916666666667,
          "velocity": 0.4566929133858268
        },
        {
          "duration": 0.04999999999998295,
          "durationTicks": 12,
          "midi": 45,
          "name": "A2",
          "ticks": 42508,
          "time": 177.11666666666667,
          "velocity": 0.3228346456692913
        },
        {
          "duration": 0.0625,
          "durationTicks": 15,
          "midi": 34,
          "name": "A#1",
          "ticks": 42556,
          "time": 177.31666666666666,
          "velocity": 0.3858267716535433
        },
        {
          "duration": 0.07083333333332575,
          "durationTicks": 17,
          "midi": 98,
          "name": "D7",
          "ticks": 42650,
          "time": 177.70833333333334,
          "velocity": 0.3858267716535433
        },
        {
          "duration": 0.05000000000001137,
          "durationTicks": 12,
          "midi": 45,
          "name": "A2",
          "ticks": 42669,
          "time": 177.7875,
          "velocity": 0.3464566929133858
        },
        {
          "duration": 0.0625,
          "durationTicks": 15,
          "midi": 96,
          "name": "C7",
          "ticks": 42712,
          "time": 177.96666666666667,
          "velocity": 0.5433070866141733
        },
        {
          "duration": 0.04999999999998295,
          "durationTicks": 12,
          "midi": 100,
          "name": "E7",
          "ticks": 42739,
          "time": 178.07916666666668,
          "velocity": 0.5590551181102362
        },
        {
          "duration": 0.09999999999999432,
          "durationTicks": 24,
          "midi": 31,
          "name": "G1",
          "ticks": 42789,
          "time": 178.2875,
          "velocity": 0.28346456692913385
        },
        {
          "duration": 0.10833333333334849,
          "durationTicks": 26,
          "midi": 88,
          "name": "E6",
          "ticks": 42811,
          "time": 178.37916666666666,
          "velocity": 0.4094488188976378
        },
        {
          "duration": 0.09999999999999432,
          "durationTicks": 24,
          "midi": 86,
          "name": "D6",
          "ticks": 42854,
          "time": 178.55833333333334,
          "velocity": 0.31496062992125984
        },
        {
          "duration": 0.12083333333333712,
          "durationTicks": 29,
          "midi": 55,
          "name": "G3",
          "ticks": 42928,
          "time": 178.86666666666667,
          "velocity": 0.28346456692913385
        },
        {
          "duration": 0.11250000000001137,
          "durationTicks": 27,
          "midi": 88,
          "name": "E6",
          "ticks": 42947,
          "time": 178.94583333333333,
          "velocity": 0.2677165354330709
        },
        {
          "duration": 0.05000000000001137,
          "durationTicks": 12,
          "midi": 69,
          "name": "A4",
          "ticks": 43022,
          "time": 179.25833333333333,
          "velocity": 0.28346456692913385
        },
        {
          "duration": 0.04166666666665719,
          "durationTicks": 10,
          "midi": 76,
          "name": "E5",
          "ticks": 43079,
          "time": 179.49583333333334,
          "velocity": 0.3779527559055118
        },
        {
          "duration": 0.21666666666664014,
          "durationTicks": 52,
          "midi": 64,
          "name": "E4",
          "ticks": 43159,
          "time": 179.82916666666668,
          "velocity": 0.4330708661417323
        },
        {
          "duration": 0.09999999999999432,
          "durationTicks": 24,
          "midi": 79,
          "name": "G5",
          "ticks": 43262,
          "time": 180.25833333333333,
          "velocity": 0.5039370078740157
        },
        {
          "duration": 0.17916666666664582,
          "durationTicks": 43,
          "midi": 31,
          "name": "G1",
          "ticks": 43303,
          "time": 180.42916666666667,
          "velocity": 0.2677165354330709
        },
        {
          "duration": 0.09166666666666856,
          "durationTicks": 22,
          "midi": 81,
          "name": "A5",
          "ticks": 43437,
          "time": 180.9875,
          "velocity": 0.4251968503937008
        },
        {
          "duration": 0.0625,
          "durationTicks": 15,
          "midi": 78,
          "name": "F#5",
          "ticks": 43480,
          "time": 181.16666666666666,
          "velocity": 0.36220472440944884
        },
        {
          "duration": 0.08333333333334281,
          "durationTicks": 20,
          "midi": 81,
          "name": "A5",
          "ticks": 43547,
          "time": 181.44583333333333,
          "velocity": 0.3779527559055118
        },
        {
          "duration": 0.07083333333332575,
          "durationTicks": 17,
          "midi": 36,
          "name": "C2",
          "ticks": 43576,
          "time": 181.56666666666666,
          "velocity": 0.23622047244094488
        },
        {
          "duration": 0.1416666666666515,
          "durationTicks": 34,
          "midi": 45,
          "name": "A2",
          "ticks": 43617,
          "time": 181.7375,
          "velocity": 0.3700787401574803
        },
        {
          "duration": 0.06666666666666288,
          "durationTicks": 16,
          "midi": 52,
          "name": "E3",
          "ticks": 43711,
          "time": 182.12916666666666,
          "velocity": 0.33070866141732286
        },
        {
          "duration": 0.09166666666666856,
          "durationTicks": 22,
          "midi": 55,
          "name": "G3",
          "ticks": 43847,
          "time": 182.69583333333333,
          "velocity": 0.6141732283464567
        },
        {
          "duration": 0.25833333333332575,
          "durationTicks": 62,
          "midi": 76,
          "name": "E5",
          "ticks": 43874,
          "time": 182.80833333333334,
          "velocity": 0.5275590551181102
        },
        {
          "duration": 0.09166666666666856,
          "durationTicks": 22,
          "midi": 69,
          "name": "A4",
          "ticks": 43881,
          "time": 182.8375,
          "velocity": 0.4566929133858268
        },
        {
          "duration": 0.09999999999999432,
          "durationTicks": 24,
          "midi": 64,
          "name": "E4",
          "ticks": 43927,
          "time": 183.02916666666667,
          "velocity": 0.36220472440944884
        },
        {
          "duration": 0.07083333333332575,
          "durationTicks": 17,
          "midi": 33,
          "name": "A1",
          "ticks": 43958,
          "time": 183.15833333333333,
          "velocity": 0.4645669291338583
        },
        {
          "duration": 0.07916666666667993,
          "durationTicks": 19,
          "midi": 78,
          "name": "F#5",
          "ticks": 43960,
          "time": 183.16666666666666,
          "velocity": 0.5511811023622047
        },
        {
          "duration": 0.09999999999999432,
          "durationTicks": 24,
          "midi": 67,
          "name": "G4",
          "ticks": 43994,
          "time": 183.30833333333334,
          "velocity": 0.48031496062992124
        },
        {
          "duration": 0.32083333333332575,
          "durationTicks": 77,
          "midi": 64,
          "name": "E4",
          "ticks": 44037,
          "time": 183.4875,
          "velocity": 0.5433070866141733
        },
        {
          "duration": 0.04999999999998295,
          "durationTicks": 12,
          "midi": 79,
          "name": "G5",
          "ticks": 44059,
          "time": 183.57916666666668,
          "velocity": 0.4566929133858268
        },
        {
          "duration": 0.27916666666666856,
          "durationTicks": 67,
          "midi": 67,
          "name": "G4",
          "ticks": 44145,
          "time": 183.9375,
          "velocity": 0.5748031496062992
        },
        {
          "duration": 0.0625,
          "durationTicks": 15,
          "midi": 64,
          "name": "E4",
          "ticks": 44243,
          "time": 184.34583333333333,
          "velocity": 0.3464566929133858
        },
        {
          "duration": 0.041666666666685614,
          "durationTicks": 10,
          "midi": 98,
          "name": "D7",
          "ticks": 44289,
          "time": 184.5375,
          "velocity": 0.5354330708661418
        },
        {
          "duration": 0.05000000000001137,
          "durationTicks": 12,
          "midi": 50,
          "name": "D3",
          "ticks": 44332,
          "time": 184.71666666666667,
          "velocity": 0.2440944881889764
        },
        {
          "duration": 0.07083333333332575,
          "durationTicks": 17,
          "midi": 60,
          "name": "C4",
          "ticks": 44368,
          "time": 184.86666666666667,
          "velocity": 0.29133858267716534
        },
        {
          "duration": 0.037499999999994316,
          "durationTicks": 9,
          "midi": 79,
          "name": "G5",
          "ticks": 44414,
          "time": 185.05833333333334,
          "velocity": 0.5748031496062992
        },
        {
          "duration": 0.04166666666665719,
          "durationTicks": 10,
          "midi": 79,
          "name": "G5",
          "ticks": 44452,
          "time": 185.21666666666667,
          "velocity": 0.25984251968503935
        },
        {
          "duration": 0.2874999999999943,
          "durationTicks": 69,
          "midi": 62,
          "name": "D4",
          "ticks": 44462,
          "time": 185.25833333333333,
          "velocity": 0.4251968503937008
        },
        {
          "duration": 0.09166666666666856,
          "durationTicks": 22,
          "midi": 83,
          "name": "B5",
          "ticks": 44553,
          "time": 185.6375,
          "velocity": 0.5905511811023622
        },
        {
          "duration": 0.05833333333333712,
          "durationTicks": 14,
          "midi": 96,
          "name": "C7",
          "ticks": 44589,
          "time": 185.7875,
          "velocity": 0.6220472440944882
        },
        {
          "duration": 0.0583333333333087,
          "durationTicks": 14,
          "midi": 102,
          "name": "F#7",
          "ticks": 44719,
          "time": 186.32916666666668,
          "velocity": 0.5354330708661418
        },
        {
          "duration": 0.21250000000000568,
          "durationTicks": 51,
          "midi": 55,
          "name": "G3",
          "ticks": 44752,
          "time": 186.46666666666667,
          "velocity": 0.4409448818897638
        },
        {
          "duration": 0.037499999999994316,
          "durationTicks": 9,
          "midi": 59,
          "name": "B3",
          "ticks": 44791,
          "time": 186.62916666666666,
          "velocity": 0.2204724409448819
        },
        {
          "duration": 0.0625,
          "durationTicks": 15,
          "midi": 55,
          "name": "G3",
          "ticks": 44836,
          "time": 186.81666666666666,
          "velocity": 0.33858267716535434
        },
        {
          "duration": 0.09999999999999432,
          "durationTicks": 24,
          "midi": 62,
          "name": "D4",
          "ticks": 44855,
          "time": 186.89583333333334,
          "velocity": 0.44881889763779526
        },
        {
          "duration": 0.15000000000000568,
          "durationTicks": 36,
          "midi": 64,
          "name": "E4",
          "ticks": 44889,
          "time": 187.0375,
          "velocity": 0.5826771653543307
        },
        {
          "duration": 0.15000000000000568,
          "durationTicks": 36,
          "midi": 76,
          "name": "E5",
          "ticks": 44949,
          "time": 187.2875,
          "velocity": 0.5433070866141733
        },
        {
          "duration": 0.05000000000001137,
          "durationTicks": 12,
          "midi": 62,
          "name": "D4",
          "ticks": 44980,
          "time": 187.41666666666666,
          "velocity": 0.2677165354330709
        },
        {
          "duration": 0.21250000000000568,
          "durationTicks": 51,
          "midi": 55,
          "name": "G3",
          "ticks": 45016,
          "time": 187.56666666666666,
          "velocity": 0.5590551181102362
        },
        {
          "duration": 0.19166666666666288,
          "durationTicks": 46,
          "midi": 67,
          "name": "G4",
          "ticks": 45076,
          "time": 187.81666666666666,
          "velocity": 0.4881889763779528
        },
        {
          "duration": 0.07083333333335418,
          "durationTicks": 17,
          "midi": 45,
          "name": "A2",
          "ticks": 45122,
          "time": 188.00833333333333,
          "velocity": 0.2440944881889764
        },
        {
          "duration": 0.4208333333333485,
          "durationTicks": 101,
          "midi": 26,
          "name": "D1",
          "ticks": 45136,
          "time": 188.06666666666666,
          "velocity": 0.44881889763779526
        },
        {
          "duration": 0.3499999999999943,
          "durationTicks": 84,
          "midi": 26,
          "name": "D1",
          "ticks": 45261,
          "time": 188.5875,
          "velocity": 0.5039370078740157
        },
        {
          "duration": 0.03750000000002274,
          "durationTicks": 9,
          "midi": 64,
          "name": "E4",
          "ticks": 45295,
          "time": 188.72916666666666,
          "velocity": 0.4409448818897638
        },
        {
          "duration": 0.10833333333334849,
          "durationTicks": 26,
          "midi": 38,
          "name": "D2",
          "ticks": 45309,
          "time": 188.7875,
          "velocity": 0.4881889763779528
        },
        {
          "duration": 0.09999999999999432,
          "durationTicks": 24,
          "midi": 93,
          "name": "A6",
          "ticks": 45335,
          "time": 188.89583333333334,
          "velocity": 0.33070866141732286
        },
        {
          "duration": 0.12916666666666288,
          "durationTicks": 31,
          "midi": 50,
          "name": "D3",
          "ticks": 45367,
          "time": 189.02916666666667,
          "velocity": 0.3464566929133858
        },
        {
          "duration": 0.12916666666666288,
          "durationTicks": 31,
          "midi": 59,
          "name": "B3",
          "ticks": 45391,
          "time": 189.12916666666666,
          "velocity": 0.5196850393700787
        },
        {
          "duration": 0.12083333333333712,
          "durationTicks": 29,
          "midi": 60,
          "name": "C4",
          "ticks": 45494,
          "time": 189.55833333333334,
          "velocity": 0.2677165354330709
        },
        {
          "duration": 0.07916666666667993,
          "durationTicks": 19,
          "midi": 32,
          "name": "G#1",
          "ticks": 45542,
          "time": 189.75833333333333,
          "velocity": 0.3228346456692913
        },
        {
          "duration": 0.12916666666666288,
          "durationTicks": 31,
          "midi": 100,
          "name": "E7",
          "ticks": 45590,
          "time": 189.95833333333334,
          "velocity": 0.5669291338582677
        },
        {
          "duration": 0.07916666666665151,
          "durationTicks": 19,
          "midi": 37,
          "name": "C#2",
          "ticks": 45628,
          "time": 190.11666666666667,
          "velocity": 0.3464566929133858
        },
        {
          "duration": 0.16249999999999432,
          "durationTicks": 39,
          "midi": 55,
          "name": "G3",
          "ticks": 45683,
          "time": 190.34583333333333,
          "velocity": 0.5433070866141733
        },
        {
          "duration": 0.21666666666664014,
          "durationTicks": 52,
          "midi": 55,
          "name": "G3",
          "ticks": 45799,
          "time": 190.82916666666668,
          "velocity": 0.4409448818897638
        },
        {
          "duration": 0.08333333333334281,
          "durationTicks": 20,
          "midi": 79,
          "name": "G5",
          "ticks": 45923,
          "time": 191.34583333333333,
          "velocity": 0.5590551181102362
        },
        {
          "duration": 0.1708333333333485,
          "durationTicks": 41,
          "midi": 76,
          "name": "E5",
          "ticks": 45962,
          "time": 191.50833333333333,
          "velocity": 0.4251968503937008
        },
        {
          "duration": 0.09999999999999432,
          "durationTicks": 24,
          "midi": 67,
          "name": "G4",
          "ticks": 46003,
          "time": 191.67916666666667,
          "velocity": 0.2125984251968504
        },
        {
          "duration": 0.15000000000000568,
          "durationTicks": 36,
          "midi": 42,
          "name": "F#2",
          "ticks": 46019,
          "time": 191.74583333333334,
          "velocity": 0.2440944881889764
        },
        {
          "duration": 0.17083333333332007,
          "durationTicks": 41,
          "midi": 30,
          "name": "F#1",
          "ticks": 46079,
          "time": 191.99583333333334,
          "velocity": 0.36220472440944884
        },
        {
          "duration": 0.1416666666666515,
          "durationTicks": 34,
          "midi": 67,
          "name": "G4",
          "ticks": 46137,
          "time": 192.2375,
          "velocity": 0.47244094488188976
        },
        {
          "duration": 0.05000000000001137,
          "durationTicks": 12,
          "midi": 98,
          "name": "D7",
          "ticks": 46185,
          "time": 192.4375,
          "velocity": 0.4881889763779528
        },
        {
          "duration": 0.2291666666666572,
          "durationTicks": 55,
          "midi": 62,
          "name": "D4",
          "ticks": 46252,
          "time": 192.71666666666667,
          "velocity": 0.5354330708661418
        },
        {
          "duration": 0.04166666666665719,
          "durationTicks": 10,
          "midi": 100,
          "name": "E7",
          "ticks": 46377,
          "time": 193.2375,
          "velocity": 0.5433070866141733
        },
        {
          "duration": 0.2291666666666572,
          "durationTicks": 55,
          "midi": 67,
          "name": "G4",
          "ticks": 46387,
          "time": 193.27916666666667,
          "velocity": 0.5275590551181102
        },
        {
          "duration": 0.05000000000001137,
          "durationTicks": 12,
          "midi": 62,
          "name": "D4",
          "ticks": 46492,
          "time": 193.71666666666667,
          "velocity": 0.48031496062992124
        },
        {
          "duration": 0.05833333333333712,
          "durationTicks": 14,
          "midi": 79,
          "name": "G5",
          "ticks": 46509,
          "time": 193.7875,
          "velocity": 0.5354330708661418
        },
        {
          "duration": 0.05000000000001137,
          "durationTicks": 12,
          "midi": 42,
          "name": "F#2",
          "ticks": 46538,
          "time": 193.90833333333333,
          "velocity": 0.3700787401574803
        },
        {
          "duration": 0.23333333333332007,
          "durationTicks": 56,
          "midi": 30,
          "name": "F#1",
          "ticks": 46595,
          "time": 194.14583333333334,
          "velocity": 0.44881889763779526
        },
        {
          "duration": 0.05000000000001137,
          "durationTicks": 12,
          "midi": 68,
          "name": "G#4",
          "ticks": 46658,
          "time": 194.40833333333333,
          "velocity": 0.44881889763779526
        },
        {
          "duration": 0.15000000000000568,
          "durationTicks": 36,
          "midi": 90,
          "name": "F#6",
          "ticks": 46785,
          "time": 194.9375,
          "velocity": 0.5118110236220472
        },
        {
          "duration": 0.05000000000001137,
          "durationTicks": 12,
          "midi": 81,
          "name": "A5",
          "ticks": 46807,
          "time": 195.02916666666667,
          "velocity": 0.48031496062992124
        },
        {
          "duration": 0.1666666666666572,
          "durationTicks": 40,
          "midi": 59,
          "name": "B3",
          "ticks": 46843,
          "time": 195.17916666666667,
          "velocity": 0.5669291338582677
        },
        {
          "duration": 0.041666666666685614,
          "durationTicks": 10,
          "midi": 40,
          "name": "E2",
          "ticks": 46893,
          "time": 195.3875,
          "velocity": 0.4251968503937008
        },
        {
          "duration": 0.5708333333333258,
          "durationTicks": 137,
          "midi": 57,
          "name": "A3",
          "ticks": 46936,
          "time": 195.56666666666666,
          "velocity": 0.5196850393700787
        },
        {
          "duration": 0.05000000000001137,
          "durationTicks": 12,
          "midi": 52,
          "name": "E3",
          "ticks": 47018,
          "time": 195.90833333333333,
          "velocity": 0.4251968503937008
        },
        {
          "duration": 0.1875,
          "durationTicks": 45,
          "midi": 60,
          "name": "C4",
          "ticks": 47047,
          "time": 196.02916666666667,
          "velocity": 0.2992125984251969
        },
        {
          "duration": 0.12083333333333712,
          "durationTicks": 29,
          "midi": 34,
          "name": "A#1",
          "ticks": 47111,
          "time": 196.29583333333332,
          "velocity": 0.4251968503937008
        },
        {
          "duration": 0.06666666666666288,
          "durationTicks": 16,
          "midi": 62,
          "name": "D4",
          "ticks": 47239,
          "time": 196.82916666666668,
          "velocity": 0.25984251968503935
        },
        {
          "duration": 0.28333333333333144,
          "durationTicks": 68,
          "midi": 74,
          "name": "D5",
          "ticks": 47279,
          "time": 196.99583333333334,
          "velocity": 0.5118110236220472
        },
        {
          "duration": 0.17083333333332007,
          "durationTicks": 41,
          "midi": 38,
          "name": "D2",
          "ticks": 47390,
          "time": 197.45833333333334,
          "velocity": 0.49606299212598426
        },
        {
          "duration": 0.06666666666666288,
          "durationTicks": 16,
          "midi": 81,
          "name": "A5",
          "ticks": 47431,
          "time": 197.62916666666666,
          "velocity": 0.4881889763779528
        },
        {
          "duration": 0.12083333333333712,
          "durationTicks": 29,
          "midi": 40,
          "name": "E2",
          "ticks": 47476,
          "time": 197.81666666666666,
          "velocity": 0.4015748031496063
        },
        {
          "duration": 0.12916666666666288,
          "durationTicks": 31,
          "midi": 62,
          "name": "D4",
          "ticks": 47515,
          "time": 197.97916666666666,
          "velocity": 0.3779527559055118
        },
        {
          "duration": 0.13749999999998863,
          "durationTicks": 33,
          "midi": 79,
          "name": "G5",
          "ticks": 47570,
          "time": 198.20833333333334,
          "velocity": 0.4566929133858268
        },
        {
          "duration": 0.06666666666666288,
          "durationTicks": 16,
          "midi": 59,
          "name": "B3",
          "ticks": 47671,
          "time": 198.62916666666666,
          "velocity": 0.33070866141732286
        },
        {
          "duration": 0.037499999999994316,
          "durationTicks": 9,
          "midi": 32,
          "name": "G#1",
          "ticks": 47683,
          "time": 198.67916666666667,
          "velocity": 0.2283464566929134
        },
        {
          "duration": 0.17083333333332007,
          "durationTicks": 41,
          "midi": 81,
          "name": "A5",
          "ticks": 47692,
          "time": 198.71666666666667,
          "velocity": 0.3779527559055118
        },
        {
          "duration": 0.4791666666666572,
          "durationTicks": 115,
          "midi": 45,
          "name": "A2",
          "ticks": 47745,
          "time": 198.9375,
          "velocity": 0.47244094488188976
        },
        {
          "duration": 0.24166666666667425,
          "durationTicks": 58,
          "midi": 60,
          "name": "C4",
          "ticks": 47939,
          "time": 199.74583333333334,
          "velocity": 0.33070866141732286
        },
        {
          "duration": 0.04999999999998295,
          "durationTicks": 12,
          "midi": 83,
          "name": "B5",
          "ticks": 47999,
          "time": 199.99583333333334,
          "velocity": 0.2125984251968504
        },
        {
          "duration": 0.07083333333332575,
          "durationTicks": 17,
          "midi": 33,
          "name": "A1",
          "ticks": 48009,
          "time": 200.0375,
          "velocity": 0.44881889763779526
        },
        {
          "duration": 0.05833333333333712,
          "durationTicks": 14,
          "midi": 45,
          "name": "A2",
          "ticks": 48062,
          "time": 200.25833333333333,
          "velocity": 0.3700787401574803
        },
        {
          "duration": 0.05833333333333712,
          "durationTicks": 14,
          "midi": 78,
          "name": "F#5",
          "ticks": 48141,
          "time": 200.5875,
          "velocity": 0.5196850393700787
        },
        {
          "duration": 0.11666666666667425,
          "durationTicks": 28,
          "midi": 67,
          "name": "G4",
          "ticks": 48175,
          "time": 200.72916666666666,
          "velocity": 0.3937007874015748
        },
        {
          "duration": 0.037499999999994316,
          "durationTicks": 9,
          "midi": 29,
          "name": "F1",
          "ticks": 48247,
          "time": 201.02916666666667,
          "velocity": 0.5511811023622047
        },
        {
          "duration": 0.27916666666666856,
          "durationTicks": 67,
          "midi": 67,
          "name": "G4",
          "ticks": 48326,
          "time": 201.35833333333332,
          "velocity": 0.5748031496062992
        },
        {
          "duration": 0.07916666666665151,
          "durationTicks": 19,
          "midi": 29,
          "name": "F1",
          "ticks": 48379,
          "time": 201.57916666666668,
          "velocity": 0.4409448818897638
        },
        {
          "duration": 0.08333333333334281,
          "durationTicks": 20,
          "midi": 57,
          "name": "A3",
          "ticks": 48419,
          "time": 201.74583333333334,
          "velocity": 0.5669291338582677
        },
        {
          "duration": 0.22083333333333144,
          "durationTicks": 53,
          "midi": 67,
          "name": "G4",
          "ticks": 48479,
          "time": 201.99583333333334,
          "velocity": 0.5196850393700787
        },
        {
          "duration": 0.05833333333333712,
          "durationTicks": 14,
          "midi": 43,
          "name": "G2",
          "ticks": 48590,
          "time": 202.45833333333334,
          "velocity": 0.5275590551181102
        },
        {
          "duration": 0.05833333333333712,
          "durationTicks": 14,
          "midi": 79,
          "name": "G5",
          "ticks": 48607,
          "time": 202.52916666666667,
          "velocity": 0.4251968503937008
        },
        {
          "duration": 0.17083333333332007,
          "durationTicks": 41,
          "midi": 64,
          "name": "E4",
          "ticks": 48621,
          "time": 202.5875,
          "velocity": 0.4015748031496063
        },
        {
          "duration": 0.12083333333333712,
          "durationTicks": 29,
          "midi": 32,
          "name": "G#1",
          "ticks": 48686,
          "time": 202.85833333333332,
          "velocity": 0.2992125984251969
        },
        {
          "duration": 0.07916666666667993,
          "durationTicks": 19,
          "midi": 30,
          "name": "F#1",
          "ticks": 48736,
          "time": 203.06666666666666,
          "velocity": 0.4645669291338583
        },
        {
          "duration": 0.22083333333333144,
          "durationTicks": 53,
          "midi": 40,
          "name": "E2",
          "ticks": 48832,
          "time": 203.46666666666667,
          "velocity": 0.5433070866141733
        },
        {
          "duration": 0.041666666666685614,
          "durationTicks": 10,
          "midi": 28,
          "name": "E1",
          "ticks": 48887,
          "time": 203.69583333333333,
          "velocity": 0.5433070866141733
        },
        {
          "duration": 0.14166666666667993,
          "durationTicks": 34,
          "midi": 28,
          "name": "E1",
          "ticks": 48916,
          "time": 203.81666666666666,
          "velocity": 0.47244094488188976
        },
        {
          "duration": 0.03750000000002274,
          "durationTicks": 9,
          "midi": 31,
          "name": "G1",
          "ticks": 48926,
          "time": 203.85833333333332,
          "velocity": 0.25196850393700787
        },
        {
          "duration": 0.07916666666665151,
          "durationTicks": 19,
          "midi": 55,
          "name": "G3",
          "ticks": 48943,
          "time": 203.92916666666667,
          "velocity": 0.33070866141732286
        },
        {
          "duration": 0.037499999999994316,
          "durationTicks": 9,
          "midi": 59,
          "name": "B3",
          "ticks": 48998,
          "time": 204.15833333333333,
          "velocity": 0.6062992125984252
        },
        {
          "duration": 0.06666666666666288,
          "durationTicks": 16,
          "midi": 79,
          "name": "G5",
          "ticks": 49003,
          "time": 204.17916666666667,
          "velocity": 0.6614173228346457
        },
        {
          "duration": 0.041666666666685614,
          "durationTicks": 10,
          "midi": 67,
          "name": "G4",
          "ticks": 49060,
          "time": 204.41666666666666,
          "velocity": 0.4251968503937008
        },
        {
          "duration": 0.06666666666666288,
          "durationTicks": 16,
          "midi": 34,
          "name": "A#1",
          "ticks": 49099,
          "time": 204.57916666666668,
          "velocity": 0.3858267716535433
        },
        {
          "duration": 0.22916666666668561,
          "durationTicks": 55,
          "midi": 71,
          "name": "B4",
          "ticks": 49135,
          "time": 204.72916666666666,
          "velocity": 0.4330708661417323
        },
        {
          "duration": 0.0625,
          "durationTicks": 15,
          "midi": 83,
          "name": "B5",
          "ticks": 49192,
          "time": 204.96666666666667,
          "velocity": 0.4015748031496063
        },
        {
          "duration": 0.2583333333333542,
          "durationTicks": 62,
          "midi": 45,
          "name": "A2",
          "ticks": 49195,
          "time": 204.97916666666666,
          "velocity": 0.4881889763779528
        },
        {
          "duration": 0.05833333333333712,
          "durationTicks": 14,
          "midi": 74,
          "name": "D5",
          "ticks": 49274,
          "time": 205.30833333333334,
          "velocity": 0.5511811023622047
        },
        {
          "duration": 0.17916666666667425,
          "durationTicks": 43,
          "midi": 76,
          "name": "E5",
          "ticks": 49315,
          "time": 205.47916666666666,
          "velocity": 0.4094488188976378
        },
        {
          "duration": 0.037499999999994316,
          "durationTicks": 9,
          "midi": 99,
          "name": "D#7",
          "ticks": 49370,
          "time": 205.70833333333334,
          "velocity": 0.33070866141732286
        },
        {
          "duration": 0.041666666666685614,
          "durationTicks": 10,
          "midi": 76,
          "name": "E5",
          "ticks": 49391,
          "time": 205.79583333333332,
          "velocity": 0.41732283464566927
        },
        {
          "duration": 0.0625,
          "durationTicks": 15,
          "midi": 74,
          "name": "D5",
          "ticks": 49403,
          "time": 205.84583333333333,
          "velocity": 0.49606299212598426
        },
        {
          "duration": 0.17916666666667425,
          "durationTicks": 43,
          "midi": 76,
          "name": "E5",
          "ticks": 49471,
          "time": 206.12916666666666,
          "velocity": 0.5748031496062992
        },
        {
          "duration": 0.05000000000001137,
          "durationTicks": 12,
          "midi": 93,
          "name": "A6",
          "ticks": 49526,
          "time": 206.35833333333332,
          "velocity": 0.36220472440944884
        },
        {
          "duration": 0.07916666666665151,
          "durationTicks": 19,
          "midi": 50,
          "name": "D3",
          "ticks": 49564,
          "time": 206.51666666666668,
          "velocity": 0.31496062992125984
        },
        {
          "duration": 0.03750000000002274,
          "durationTicks": 9,
          "midi": 58,
          "name": "A#3",
          "ticks": 49586,
          "time": 206.60833333333332,
          "velocity": 0.2440944881889764
        },
        {
          "duration": 0.05000000000001137,
          "durationTicks": 12,
          "midi": 53,
          "name": "F3",
          "ticks": 49598,
          "time": 206.65833333333333,
          "velocity": 0.5275590551181102
        },
        {
          "duration": 0.04166666666665719,
          "durationTicks": 10,
          "midi": 43,
          "name": "G2",
          "ticks": 49641,
          "time": 206.8375,
          "velocity": 0.4330708661417323
        },
        {
          "duration": 0.17916666666664582,
          "durationTicks": 43,
          "midi": 69,
          "name": "A4",
          "ticks": 49670,
          "time": 206.95833333333334,
          "velocity": 0.3937007874015748
        },
        {
          "duration": 0.0625,
          "durationTicks": 15,
          "midi": 62,
          "name": "D4",
          "ticks": 49672,
          "time": 206.96666666666667,
          "velocity": 0.3937007874015748
        },
        {
          "duration": 0.05833333333333712,
          "durationTicks": 14,
          "midi": 64,
          "name": "E4",
          "ticks": 49687,
          "time": 207.02916666666667,
          "velocity": 0.2677165354330709
        },
        {
          "duration": 0.22083333333333144,
          "durationTicks": 53,
          "midi": 62,
          "name": "D4",
          "ticks": 49718,
          "time": 207.15833333333333,
          "velocity": 0.30708661417322836
        },
        {
          "duration": 0.05000000000001137,
          "durationTicks": 12,
          "midi": 30,
          "name": "F#1",
          "ticks": 49735,
          "time": 207.22916666666666,
          "velocity": 0.2992125984251969
        },
        {
          "duration": 0.041666666666685614,
          "durationTicks": 10,
          "midi": 32,
          "name": "G#1",
          "ticks": 49780,
          "time": 207.41666666666666,
          "velocity": 0.3464566929133858
        },
        {
          "duration": 0.04166666666665719,
          "durationTicks": 10,
          "midi": 88,
          "name": "E6",
          "ticks": 49792,
          "time": 207.46666666666667,
          "velocity": 0.3779527559055118
        },
        {
          "duration": 0.06666666666666288,
          "durationTicks": 16,
          "midi": 28,
          "name": "E1",
          "ticks": 49831,
          "time": 207.62916666666666,
          "velocity": 0.2047244094488189
        },
        {
          "duration": 0.15833333333333144,
          "durationTicks": 38,
          "midi": 67,
          "name": "G4",
          "ticks": 49838,
          "time": 207.65833333333333,
          "velocity": 0.14960629921259844
        },
        {
          "duration": 0.1291666666666913,
          "durationTicks": 31,
          "midi": 81,
          "name": "A5",
          "ticks": 49886,
          "time": 207.85833333333332,
          "velocity": 0.5275590551181102
        },
        {
          "duration": 0.12916666666666288,
          "durationTicks": 31,
          "midi": 79,
          "name": "G5",
          "ticks": 49939,
          "time": 208.07916666666668,
          "velocity": 0.41732283464566927
        },
        {
          "duration": 0.10833333333332007,
          "durationTicks": 26,
          "midi": 92,
          "name": "G#6",
          "ticks": 50001,
          "time": 208.3375,
          "velocity": 0.5826771653543307
        },
        {
          "duration": 0.037499999999994316,
          "durationTicks": 9,
          "midi": 28,
          "name": "E1",
          "ticks": 50083,
          "time": 208.67916666666667,
          "velocity": 0.2440944881889764
        },
        {
          "duration": 0.06666666666666288,
          "durationTicks": 16,
          "midi": 48,
          "name": "C3",
          "ticks": 50155,
          "time": 208.97916666666666,
          "velocity": 0.4015748031496063
        },
        {
          "duration": 0.05833333333333712,
          "durationTicks": 14,
          "midi": 67,
          "name": "G4",
          "ticks": 50251,
          "time": 209.37916666666666,
          "velocity": 0.4015748031496063
        },
        {
          "duration": 0.10000000000002274,
          "durationTicks": 24,
          "midi": 62,
          "name": "D4",
          "ticks": 50260,
          "time": 209.41666666666666,
          "velocity": 0.3700787401574803
        },
        {
          "duration": 0.03750000000002274,
          "durationTicks": 9,
          "midi": 76,
          "name": "E5",
          "ticks": 50306,
          "time": 209.60833333333332,
          "velocity": 0.4015748031496063
        },
        {
          "duration": 0.10833333333334849,
          "durationTicks": 26,
          "midi": 64,
          "name": "E4",
          "ticks": 50318,
          "time": 209.65833333333333,
          "velocity": 0.5196850393700787
        },
        {
          "duration": 0.24166666666667425,
          "durationTicks": 58,
          "midi": 98,
          "name": "D7",
          "ticks": 50363,
          "time": 209.84583333333333,
          "velocity": 0.5354330708661418
        },
        {
          "duration": 0.0625,
          "durationTicks": 15,
          "midi": 41,
          "name": "F2",
          "ticks": 50380,
          "time": 209.91666666666666,
          "velocity": 0.29133858267716534
        },
        {
          "duration": 0.05833333333333712,
          "durationTicks": 14,
          "midi": 71,
          "name": "B4",
          "ticks": 50431,
          "time": 210.12916666666666,
          "velocity": 0.5433070866141733
        },
        {
          "duration": 0.03750000000002274,
          "durationTicks": 9,
          "midi": 98,
          "name": "D7",
          "ticks": 50515,
          "time": 210.47916666666666,
          "velocity": 0.4015748031496063
        },
        {
          "duration": 0.22083333333333144,
          "durationTicks": 53,
          "midi": 98,
          "name": "D7",
          "ticks": 50565,
          "time": 210.6875,
          "velocity": 0.5433070866141733
        },
        {
          "duration": 0.05000000000001137,
          "durationTicks": 12,
          "midi": 43,
          "name": "G2",
          "ticks": 50642,
          "time": 211.00833333333333,
          "velocity": 0.25196850393700787
        },
        {
          "duration": 0.04166666666665719,
          "durationTicks": 10,
          "midi": 79,
          "name": "G5",
          "ticks": 50699,
          "time": 211.24583333333334,
          "velocity": 0.5354330708661418
        },
        {
          "duration": 0.1708333333333485,
          "durationTicks": 41,
          "midi": 62,
          "name": "D4",
          "ticks": 50716,
          "time": 211.31666666666666,
          "velocity": 0.44881889763779526
        },
        {
          "duration": 0.11250000000001137,
          "durationTicks": 27,
          "midi": 55,
          "name": "G3",
          "ticks": 50776,
          "time": 211.56666666666666,
          "velocity": 0.33070866141732286
        },
        {
          "duration": 0.08750000000000568,
          "durationTicks": 21,
          "midi": 43,
          "name": "G2",
          "ticks": 50803,
          "time": 211.67916666666667,
          "velocity": 0.2755905511811024
        },
        {
          "duration": 0.0625,
          "durationTicks": 15,
          "midi": 84,
          "name": "C6",
          "ticks": 50831,
          "time": 211.79583333333332,
          "velocity": 0.30708661417322836
        },
        {
          "duration": 0.20000000000001705,
          "durationTicks": 48,
          "midi": 31,
          "name": "G1",
          "ticks": 50891,
          "time": 212.04583333333332,
          "velocity": 0.2755905511811024
        },
        {
          "duration": 0.14166666666667993,
          "durationTicks": 34,
          "midi": 28,
          "name": "E1",
          "ticks": 51009,
          "time": 212.5375,
          "velocity": 0.4251968503937008
        },
        {
          "duration": 0.12916666666666288,
          "durationTicks": 31,
          "midi": 86,
          "name": "D6",
          "ticks": 51040,
          "time": 212.66666666666666,
          "velocity": 0.5511811023622047
        },
        {
          "duration": 0.11250000000001137,
          "durationTicks": 27,
          "midi": 64,
          "name": "E4",
          "ticks": 51172,
          "time": 213.21666666666667,
          "velocity": 0.3858267716535433
        },
        {
          "duration": 0.07916666666665151,
          "durationTicks": 19,
          "midi": 55,
          "name": "G3",
          "ticks": 51201,
          "time": 213.3375,
          "velocity": 0.49606299212598426
        },
        {
          "duration": 0.07083333333332575,
          "durationTicks": 17,
          "midi": 93,
          "name": "A6",
          "ticks": 51244,
          "time": 213.51666666666668,
          "velocity": 0.1732283464566929
        },
        {
          "duration": 0.12916666666666288,
          "durationTicks": 31,
          "midi": 34,
          "name": "A#1",
          "ticks": 51302,
          "time": 213.75833333333333,
          "velocity": 0.3700787401574803
        },
        {
          "duration": 0.08750000000000568,
          "durationTicks": 21,
          "midi": 88,
          "name": "E6",
          "ticks": 51331,
          "time": 213.87916666666666,
          "velocity": 0.33858267716535434
        },
        {
          "duration": 0.041666666666685614,
          "durationTicks": 10,
          "midi": 31,
          "name": "G1",
          "ticks": 51333,
          "time": 213.8875,
          "velocity": 0.07874015748031496
        },
        {
          "duration": 0.15000000000000568,
          "durationTicks": 36,
          "midi": 67,
          "name": "G4",
          "ticks": 51374,
          "time": 214.05833333333334,
          "velocity": 0.3779527559055118
        },
        {
          "duration": 0.12083333333333712,
          "durationTicks": 29,
          "midi": 45,
          "name": "A2",
          "ticks": 51398,
          "time": 214.15833333333333,
          "velocity": 0.3937007874015748
        },
        {
          "duration": 0.04166666666665719,
          "durationTicks": 10,
          "midi": 45,
          "name": "A2",
          "ticks": 51472,
          "time": 214.46666666666667,
          "velocity": 0.48031496062992124
        },
        {
          "duration": 0.36249999999998295,
          "durationTicks": 87,
          "midi": 26,
          "name": "D1",
          "ticks": 51544,
          "time": 214.76666666666668,
          "velocity": 0.4566929133858268
        },
        {
          "duration": 0.21250000000000568,
          "durationTicks": 51,
          "midi": 28,
          "name": "E1",
          "ticks": 51676,
          "time": 215.31666666666666,
          "velocity": 0.47244094488188976
        },
        {
          "duration": 0.05000000000001137,
          "durationTicks": 12,
          "midi": 83,
          "name": "B5",
          "ticks": 51753,
          "time": 215.6375,
          "velocity": 0.2204724409448819
        },
        {
          "duration": 0.041666666666685614,
          "durationTicks": 10,
          "midi": 28,
          "name": "E1",
          "ticks": 51767,
          "time": 215.69583333333333,
          "velocity": 0.5354330708661418
        },
        {
          "duration": 0.2708333333333428,
          "durationTicks": 65,
          "midi": 40,
          "name": "E2",
          "ticks": 51849,
          "time": 216.0375,
          "velocity": 0.36220472440944884
        },
        {
          "duration": 0.0625,
          "durationTicks": 15,
          "midi": 59,
          "name": "B3",
          "ticks": 51959,
          "time": 216.49583333333334,
          "velocity": 0.2755905511811024
        },
        {
          "duration": 0.24166666666664582,
          "durationTicks": 58,
          "midi": 33,
          "name": "A1",
          "ticks": 52017,
          "time": 216.7375,
          "velocity": 0.5118110236220472
        },
        {
          "duration": 0.05000000000001137,
          "durationTicks": 12,
          "midi": 52,
          "name": "E3",
          "ticks": 52091,
          "time": 217.04583333333332,
          "velocity": 0.2440944881889764
        },
        {
          "duration": 0.19999999999998863,
          "durationTicks": 48,
          "midi": 64,
          "name": "E4",
          "ticks": 52137,
          "time": 217.2375,
          "velocity": 0.1732283464566929
        },
        {
          "duration": 0.07916666666665151,
          "durationTicks": 19,
          "midi": 74,
          "name": "D5",
          "ticks": 52214,
          "time": 217.55833333333334,
          "velocity": 0.6299212598425197
        },
        {
          "duration": 0.32916666666667993,
          "durationTicks": 79,
          "midi": 45,
          "name": "A2",
          "ticks": 52233,
          "time": 217.6375,
          "velocity": 0.5196850393700787
        },
        {
          "duration": 0.15000000000000568,
          "durationTicks": 36,
          "midi": 76,
          "name": "E5",
          "ticks": 52252,
          "time": 217.71666666666667,
          "velocity": 0.5118110236220472
        },
        {
          "duration": 0.09166666666666856,
          "durationTicks": 22,
          "midi": 64,
          "name": "E4",
          "ticks": 52307,
          "time": 217.94583333333333,
          "velocity": 0.23622047244094488
        },
        {
          "duration": 0.07916666666665151,
          "durationTicks": 19,
          "midi": 83,
          "name": "B5",
          "ticks": 52334,
          "time": 218.05833333333334,
          "velocity": 0.36220472440944884
        },
        {
          "duration": 0.12083333333333712,
          "durationTicks": 29,
          "midi": 64,
          "name": "E4",
          "ticks": 52408,
          "time": 218.36666666666667,
          "velocity": 0.3937007874015748
        },
        {
          "duration": 0.09999999999999432,
          "durationTicks": 24,
          "midi": 98,
          "name": "D7",
          "ticks": 52456,
          "time": 218.56666666666666,
          "velocity": 0.47244094488188976
        },
        {
          "duration": 0.041666666666685614,
          "durationTicks": 10,
          "midi": 97,
          "name": "C#7",
          "ticks": 52511,
          "time": 218.79583333333332,
          "velocity": 0.33858267716535434
        },
        {
          "duration": 0.04999999999998295,
          "durationTicks": 12,
          "midi": 57,
          "name": "A3",
          "ticks": 52521,
          "time": 218.8375,
          "velocity": 0.47244094488188976
        },
        {
          "duration": 0.12083333333333712,
          "durationTicks": 29,
          "midi": 78,
          "name": "F#5",
          "ticks": 52528,
          "time": 218.86666666666667,
          "velocity": 0.5196850393700787
        },
        {
          "duration": 0.09999999999999432,
          "durationTicks": 24,
          "midi": 57,
          "name": "A3",
          "ticks": 52607,
          "time": 219.19583333333333,
          "velocity": 0.4015748031496063
        },
        {
          "duration": 0.15833333333333144,
          "durationTicks": 38,
          "midi": 98,
          "name": "D7",
          "ticks": 52663,
          "time": 219.42916666666667,
          "velocity": 0.5590551181102362
        },
        {
          "duration": 0.05000000000001137,
          "durationTicks": 12,
          "midi": 43,
          "name": "G2",
          "ticks": 52792,
          "time": 219.96666666666667,
          "velocity": 0.3543307086614173
        },
        {
          "duration": 0.4291666666666458,
          "durationTicks": 103,
          "midi": 62,
          "name": "D4",
          "ticks": 52804,
          "time": 220.01666666666668,
          "velocity": 0.4881889763779528
        },
        {
          "duration": 0.07916666666667993,
          "durationTicks": 19,
          "midi": 67,
          "name": "G4",
          "ticks": 52929,
          "time": 220.5375,
          "velocity": 0.5984251968503937
        },
        {
          "duration": 0.0625,
          "durationTicks": 15,
          "midi": 100,
          "name": "E7",
          "ticks": 53020,
          "time": 220.91666666666666,
          "velocity": 0.6377952755905512
        },
        {
          "duration": 0.1708333333333485,
          "durationTicks": 41,
          "midi": 102,
          "name": "F#7",
          "ticks": 53066,
          "time": 221.10833333333332,
          "velocity": 0.5590551181102362
        },
        {
          "duration": 0.05833333333333712,
          "durationTicks": 14,
          "midi": 90,
          "name": "F#6",
          "ticks": 53131,
          "time": 221.37916666666666,
          "velocity": 0.4094488188976378
        },
        {
          "duration": 0.26249999999998863,
          "durationTicks": 63,
          "midi": 33,
          "name": "A1",
          "ticks": 53224,
          "time": 221.76666666666668,
          "velocity": 0.5511811023622047
        },
        {
          "duration": 0.21249999999997726,
          "durationTicks": 51,
          "midi": 81,
          "name": "A5",
          "ticks": 53284,
          "time": 222.01666666666668,
          "velocity": 0.5669291338582677
        },
        {
          "duration": 0.19166666666666288,
          "durationTicks": 46,
          "midi": 45,
          "name": "A2",
          "ticks": 53399,
          "time": 222.49583333333334,
          "velocity": 0.4251968503937008
        },
        {
          "duration": 0.03750000000002274,
          "durationTicks": 9,
          "midi": 99,
          "name": "D#7",
          "ticks": 53455,
          "time": 222.72916666666666,
          "velocity": 0.5275590551181102
        },
        {
          "duration": 0.07083333333332575,
          "durationTicks": 17,
          "midi": 50,
          "name": "D3",
          "ticks": 53495,
          "time": 222.89583333333334,
          "velocity": 0.1889763779527559
        },
        {
          "duration": 0.8791666666666629,
          "durationTicks": 211,
          "midi": 26,
          "name": "D1",
          "ticks": 53510,
          "time": 222.95833333333334,
          "velocity": 0.5354330708661418
        },
        {
          "duration": 0.07916666666667993,
          "durationTicks": 19,
          "midi": 65,
          "name": "F4",
          "ticks": 53522,
          "time": 223.00833333333333,
          "velocity": 0.1968503937007874
        },
        {
          "duration": 0.05000000000001137,
          "durationTicks": 12,
          "midi": 83,
          "name": "B5",
          "ticks": 53572,
          "time": 223.21666666666667,
          "velocity": 0.48031496062992124
        },
        {
          "duration": 0.07916666666665151,
          "durationTicks": 19,
          "midi": 59,
          "name": "B3",
          "ticks": 53683,
          "time": 223.67916666666667,
          "velocity": 0.33070866141732286
        },
        {
          "duration": 0.08750000000000568,
          "durationTicks": 21,
          "midi": 59,
          "name": "B3",
          "ticks": 53714,
          "time": 223.80833333333334,
          "velocity": 0.5275590551181102
        },
        {
          "duration": 0.041666666666685614,
          "durationTicks": 10,
          "midi": 86,
          "name": "D6",
          "ticks": 53733,
          "time": 223.8875,
          "velocity": 0.48031496062992124
        },
        {
          "duration": 0.3375000000000057,
          "durationTicks": 81,
          "midi": 31,
          "name": "G1",
          "ticks": 53755,
          "time": 223.97916666666666,
          "velocity": 0.5433070866141733
        },
        {
          "duration": 0.2083333333333428,
          "durationTicks": 50,
          "midi": 31,
          "name": "G1",
          "ticks": 53846,
          "time": 224.35833333333332,
          "velocity": 0.4409448818897638
        },
        {
          "duration": 0.09999999999999432,
          "durationTicks": 24,
          "midi": 100,
          "name": "E7",
          "ticks": 53971,
          "time": 224.87916666666666,
          "velocity": 0.5669291338582677
        },
        {
          "duration": 0.3083333333333371,
          "durationTicks": 74,
          "midi": 36,
          "name": "C2",
          "ticks": 54002,
          "time": 225.00833333333333,
          "velocity": 0.5590551181102362
        },
        {
          "duration": 0.3708333333333371,
          "durationTicks": 89,
          "midi": 92,
          "name": "G#6",
          "ticks": 54122,
          "time": 225.50833333333333,
          "velocity": 0.6614173228346457
        },
        {
          "duration": 0.05833333333333712,
          "durationTicks": 14,
          "midi": 83,
          "name": "B5",
          "ticks": 54175,
          "time": 225.72916666666666,
          "velocity": 0.33858267716535434
        },
        {
          "duration": 0.09166666666666856,
          "durationTicks": 22,
          "midi": 55,
          "name": "G3",
          "ticks": 54213,
          "time": 225.8875,
          "velocity": 0.1889763779527559
        },
        {
          "duration": 0.0625,
          "durationTicks": 15,
          "midi": 81,
          "name": "A5",
          "ticks": 54232,
          "time": 225.96666666666667,
          "velocity": 0.11811023622047244
        },
        {
          "duration": 0.05000000000001137,
          "durationTicks": 12,
          "midi": 91,
          "name": "G6",
          "ticks": 54278,
          "time": 226.15833333333333,
          "velocity": 0.14173228346456693
        },
        {
          "duration": 0.09166666666666856,
          "durationTicks": 22,
          "midi": 79,
          "name": "G5",
          "ticks": 54299,
          "time": 226.24583333333334,
          "velocity": 0.5354330708661418
        },
        {
          "duration": 0.05833333333333712,
          "durationTicks": 14,
          "midi": 64,
          "name": "E4",
          "ticks": 54345,
          "time": 226.4375,
          "velocity": 0.3543307086614173
        },
        {
          "duration": 0.0625,
          "durationTicks": 15,
          "midi": 55,
          "name": "G3",
          "ticks": 54376,
          "time": 226.56666666666666,
          "velocity": 0.2047244094488189
        },
        {
          "duration": 0.11250000000001137,
          "durationTicks": 27,
          "midi": 42,
          "name": "F#2",
          "ticks": 54407,
          "time": 226.69583333333333,
          "velocity": 0.2204724409448819
        },
        {
          "duration": 0.09999999999999432,
          "durationTicks": 24,
          "midi": 29,
          "name": "F1",
          "ticks": 54436,
          "time": 226.81666666666666,
          "velocity": 0.3228346456692913
        },
        {
          "duration": 0.05833333333333712,
          "durationTicks": 14,
          "midi": 29,
          "name": "F1",
          "ticks": 54506,
          "time": 227.10833333333332,
          "velocity": 0.47244094488188976
        },
        {
          "duration": 0.17916666666667425,
          "durationTicks": 43,
          "midi": 29,
          "name": "F1",
          "ticks": 54542,
          "time": 227.25833333333333,
          "velocity": 0.5118110236220472
        },
        {
          "duration": 0.48333333333332007,
          "durationTicks": 116,
          "midi": 29,
          "name": "F1",
          "ticks": 54599,
          "time": 227.49583333333334,
          "velocity": 0.5590551181102362
        },
        {
          "duration": 0.05000000000001137,
          "durationTicks": 12,
          "midi": 48,
          "name": "C3",
          "ticks": 54611,
          "time": 227.54583333333332,
          "velocity": 0.1968503937007874
        },
        {
          "duration": 0.2083333333333428,
          "durationTicks": 50,
          "midi": 83,
          "name": "B5",
          "ticks": 54633,
          "time": 227.6375,
          "velocity": 0.5511811023622047
        },
        {
          "duration": 0.05000000000001137,
          "durationTicks": 12,
          "midi": 98,
          "name": "D7",
          "ticks": 54700,
          "time": 227.91666666666666,
          "velocity": 0.48031496062992124
        },
        {
          "duration": 0.05000000000001137,
          "durationTicks": 12,
          "midi": 100,
          "name": "E7",
          "ticks": 54751,
          "time": 228.12916666666666,
          "velocity": 0.48031496062992124
        },
        {
          "duration": 0.05000000000001137,
          "durationTicks": 12,
          "midi": 43,
          "name": "G2",
          "ticks": 54782,
          "time": 228.25833333333333,
          "velocity": 0.36220472440944884
        },
        {
          "duration": 0.13750000000001705,
          "durationTicks": 33,
          "midi": 31,
          "name": "G1",
          "ticks": 54806,
          "time": 228.35833333333332,
          "velocity": 0.5118110236220472
        },
        {
          "duration": 0.07916666666667993,
          "durationTicks": 19,
          "midi": 59,
          "name": "B3",
          "ticks": 54866,
          "time": 228.60833333333332,
          "velocity": 0.4094488188976378
        },
        {
          "duration": 0.037499999999994316,
          "durationTicks": 9,
          "midi": 74,
          "name": "D5",
          "ticks": 54931,
          "time": 228.87916666666666,
          "velocity": 0.30708661417322836
        },
        {
          "duration": 0.037499999999994316,
          "durationTicks": 9,
          "midi": 74,
          "name": "D5",
          "ticks": 54943,
          "time": 228.92916666666667,
          "velocity": 0.4015748031496063
        },
        {
          "duration": 0.17916666666667425,
          "durationTicks": 43,
          "midi": 67,
          "name": "G4",
          "ticks": 54952,
          "time": 228.96666666666667,
          "velocity": 0.25196850393700787
        },
        {
          "duration": 0.1416666666666515,
          "durationTicks": 34,
          "midi": 67,
          "name": "G4",
          "ticks": 55024,
          "time": 229.26666666666668,
          "velocity": 0.4645669291338583
        },
        {
          "duration": 0.05833333333333712,
          "durationTicks": 14,
          "midi": 96,
          "name": "C7",
          "ticks": 55070,
          "time": 229.45833333333334,
          "velocity": 0.5590551181102362
        },
        {
          "duration": 0.12916666666666288,
          "durationTicks": 31,
          "midi": 90,
          "name": "F#6",
          "ticks": 55159,
          "time": 229.82916666666668,
          "velocity": 0.44881889763779526
        },
        {
          "duration": 0.037499999999994316,
          "durationTicks": 9,
          "midi": 67,
          "name": "G4",
          "ticks": 55190,
          "time": 229.95833333333334,
          "velocity": 0.12598425196850394
        },
        {
          "duration": 0.07083333333332575,
          "durationTicks": 17,
          "midi": 81,
          "name": "A5",
          "ticks": 55228,
          "time": 230.11666666666667,
          "velocity": 0.5354330708661418
        },
        {
          "duration": 0.037499999999994316,
          "durationTicks": 9,
          "midi": 98,
          "name": "D7",
          "ticks": 55250,
          "time": 230.20833333333334,
          "velocity": 0.36220472440944884
        },
        {
          "duration": 0.037499999999994316,
          "durationTicks": 9,
          "midi": 55,
          "name": "G3",
          "ticks": 55267,
          "time": 230.27916666666667,
          "velocity": 0.12598425196850394
        },
        {
          "duration": 0.05000000000001137,
          "durationTicks": 12,
          "midi": 67,
          "name": "G4",
          "ticks": 55291,
          "time": 230.37916666666666,
          "velocity": 0.4015748031496063
        },
        {
          "duration": 0.25,
          "durationTicks": 60,
          "midi": 33,
          "name": "A1",
          "ticks": 55319,
          "time": 230.49583333333334,
          "velocity": 0.5669291338582677
        },
        {
          "duration": 0.27916666666666856,
          "durationTicks": 67,
          "midi": 45,
          "name": "A2",
          "ticks": 55353,
          "time": 230.6375,
          "velocity": 0.4409448818897638
        },
        {
          "duration": 0.3583333333333485,
          "durationTicks": 86,
          "midi": 55,
          "name": "G3",
          "ticks": 55389,
          "time": 230.7875,
          "velocity": 0.3700787401574803
        },
        {
          "duration": 0.07916666666667993,
          "durationTicks": 19,
          "midi": 67,
          "name": "G4",
          "ticks": 55480,
          "time": 231.16666666666666,
          "velocity": 0.4251968503937008
        },
        {
          "duration": 0.32083333333332575,
          "durationTicks": 77,
          "midi": 53,
          "name": "F3",
          "ticks": 55559,
          "time": 231.49583333333334,
          "velocity": 0.3858267716535433
        },
        {
          "duration": 0.9291666666666742,
          "durationTicks": 223,
          "midi": 26,
          "name": "D1",
          "ticks": 55605,
          "time": 231.6875,
          "velocity": 0.5354330708661418
        },
        {
          "duration": 0.21666666666666856,
          "durationTicks": 52,
          "midi": 84,
          "name": "C6",
          "ticks": 55747,
          "time": 232.27916666666667,
          "velocity": 0.3937007874015748
        },
        {
          "duration": 0.0625,
          "durationTicks": 15,
          "midi": 62,
          "name": "D4",
          "ticks": 55823,
          "time": 232.59583333333333,
          "velocity": 0.3700787401574803
        },
        {
          "duration": 0.07916666666667993,
          "durationTicks": 19,
          "midi": 84,
          "name": "C6",
          "ticks": 55886,
          "time": 232.85833333333332,
          "velocity": 0.25196850393700787
        },
        {
          "duration": 0.42083333333332007,
          "durationTicks": 101,
          "midi": 55,
          "name": "G3",
          "ticks": 55895,
          "time": 232.89583333333334,
          "velocity": 0.4251968503937008
        },
        {
          "duration": 0.037499999999994316,
          "durationTicks": 9,
          "midi": 67,
          "name": "G4",
          "ticks": 55910,
          "time": 232.95833333333334,
          "velocity": 0.31496062992125984
        },
        {
          "duration": 0.05000000000001137,
          "durationTicks": 12,
          "midi": 79,
          "name": "G5",
          "ticks": 56011,
          "time": 233.37916666666666,
          "velocity": 0.4015748031496063
        },
        {
          "duration": 0.041666666666685614,
          "durationTicks": 10,
          "midi": 59,
          "name": "B3",
          "ticks": 56049,
          "time": 233.5375,
          "velocity": 0.1732283464566929
        },
        {
          "duration": 0.15833333333333144,
          "durationTicks": 38,
          "midi": 81,
          "name": "A5",
          "ticks": 56071,
          "time": 233.62916666666666,
          "velocity": 0.3858267716535433
        },
        {
          "duration": 0.04999999999998295,
          "durationTicks": 12,
          "midi": 79,
          "name": "G5",
          "ticks": 56075,
          "time": 233.64583333333334,
          "velocity": 0.3543307086614173
        },
        {
          "duration": 0.17083333333332007,
          "durationTicks": 41,
          "midi": 45,
          "name": "A2",
          "ticks": 56114,
          "time": 233.80833333333334,
          "velocity": 0.3700787401574803
        },
        {
          "duration": 0.05000000000001137,
          "durationTicks": 12,
          "midi": 81,
          "name": "A5",
          "ticks": 56169,
          "time": 234.0375,
          "velocity": 0.48031496062992124
        },
        {
          "duration": 0.24166666666667425,
          "durationTicks": 58,
          "midi": 69,
          "name": "A4",
          "ticks": 56325,
          "time": 234.6875,
          "velocity": 0.5275590551181102
        },
        {
          "duration": 0.04999999999998295,
          "durationTicks": 12,
          "midi": 33,
          "name": "A1",
          "ticks": 56330,
          "time": 234.70833333333334,
          "velocity": 0.4409448818897638
        },
        {
          "duration": 0.07083333333332575,
          "durationTicks": 17,
          "midi": 76,
          "name": "E5",
          "ticks": 56356,
          "time": 234.81666666666666,
          "velocity": 0.28346456692913385
        },
        {
          "duration": 0.03750000000002274,
          "durationTicks": 9,
          "midi": 33,
          "name": "A1",
          "ticks": 56395,
          "time": 234.97916666666666,
          "velocity": 0.4330708661417323
        },
        {
          "duration": 0.3291666666666515,
          "durationTicks": 79,
          "midi": 76,
          "name": "E5",
          "ticks": 56407,
          "time": 235.02916666666667,
          "velocity": 0.5433070866141733
        },
        {
          "duration": 0.19999999999998863,
          "durationTicks": 48,
          "midi": 81,
          "name": "A5",
          "ticks": 56414,
          "time": 235.05833333333334,
          "velocity": 0.5433070866141733
        },
        {
          "duration": 0.17916666666667425,
          "durationTicks": 43,
          "midi": 64,
          "name": "E4",
          "ticks": 56467,
          "time": 235.27916666666667,
          "velocity": 0.44881889763779526
        },
        {
          "duration": 0.04999999999998295,
          "durationTicks": 12,
          "midi": 78,
          "name": "F#5",
          "ticks": 56517,
          "time": 235.4875,
          "velocity": 0.5196850393700787
        },
        {
          "duration": 0.05000000000001137,
          "durationTicks": 12,
          "midi": 67,
          "name": "G4",
          "ticks": 56529,
          "time": 235.5375,
          "velocity": 0.5039370078740157
        },
        {
          "duration": 0.13750000000001705,
          "durationTicks": 33,
          "midi": 67,
          "name": "G4",
          "ticks": 56551,
          "time": 235.62916666666666,
          "velocity": 0.4409448818897638
        },
        {
          "duration": 0.25,
          "durationTicks": 60,
          "midi": 64,
          "name": "E4",
          "ticks": 56603,
          "time": 235.84583333333333,
          "velocity": 0.5669291338582677
        },
        {
          "duration": 0.35000000000002274,
          "durationTicks": 84,
          "midi": 67,
          "name": "G4",
          "ticks": 56680,
          "time": 236.16666666666666,
          "velocity": 0.5433070866141733
        },
        {
          "duration": 0.07083333333332575,
          "durationTicks": 17,
          "midi": 98,
          "name": "D7",
          "ticks": 56798,
          "time": 236.65833333333333,
          "velocity": 0.4566929133858268
        },
        {
          "duration": 0.2583333333333542,
          "durationTicks": 62,
          "midi": 67,
          "name": "G4",
          "ticks": 56853,
          "time": 236.8875,
          "velocity": 0.4645669291338583
        },
        {
          "duration": 0.15833333333333144,
          "durationTicks": 38,
          "midi": 79,
          "name": "G5",
          "ticks": 56959,
          "time": 237.32916666666668,
          "velocity": 0.5354330708661418
        },
        {
          "duration": 0.04166666666665719,
          "durationTicks": 10,
          "midi": 56,
          "name": "G#3",
          "ticks": 57023,
          "time": 237.59583333333333,
          "velocity": 0.09448818897637795
        },
        {
          "duration": 0.12916666666666288,
          "durationTicks": 31,
          "midi": 30,
          "name": "F#1",
          "ticks": 57067,
          "time": 237.77916666666667,
          "velocity": 0.33070866141732286
        },
        {
          "duration": 0.05833333333333712,
          "durationTicks": 14,
          "midi": 76,
          "name": "E5",
          "ticks": 57122,
          "time": 238.00833333333333,
          "velocity": 0.5196850393700787
        },
        {
          "duration": 0.24166666666667425,
          "durationTicks": 58,
          "midi": 28,
          "name": "E1",
          "ticks": 57172,
          "time": 238.21666666666667,
          "velocity": 0.47244094488188976
        },
        {
          "duration": 0.12083333333333712,
          "durationTicks": 29,
          "midi": 72,
          "name": "C5",
          "ticks": 57179,
          "time": 238.24583333333334,
          "velocity": 0.3543307086614173
        },
        {
          "duration": 0.0625,
          "durationTicks": 15,
          "midi": 28,
          "name": "E1",
          "ticks": 57263,
          "time": 238.59583333333333,
          "velocity": 0.5590551181102362
        },
        {
          "duration": 0.05000000000001137,
          "durationTicks": 12,
          "midi": 31,
          "name": "G1",
          "ticks": 57302,
          "time": 238.75833333333333,
          "velocity": 0.25196850393700787
        },
        {
          "duration": 0.12083333333333712,
          "durationTicks": 29,
          "midi": 59,
          "name": "B3",
          "ticks": 57316,
          "time": 238.81666666666666,
          "velocity": 0.36220472440944884
        },
        {
          "duration": 0.09999999999999432,
          "durationTicks": 24,
          "midi": 98,
          "name": "D7",
          "ticks": 57343,
          "time": 238.92916666666667,
          "velocity": 0.2992125984251969
        },
        {
          "duration": 0.0625,
          "durationTicks": 15,
          "midi": 88,
          "name": "E6",
          "ticks": 57383,
          "time": 239.09583333333333,
          "velocity": 0.31496062992125984
        },
        {
          "duration": 0.25,
          "durationTicks": 60,
          "midi": 45,
          "name": "A2",
          "ticks": 57427,
          "time": 239.27916666666667,
          "velocity": 0.3858267716535433
        },
        {
          "duration": 0.15833333333333144,
          "durationTicks": 38,
          "midi": 83,
          "name": "B5",
          "ticks": 57458,
          "time": 239.40833333333333,
          "velocity": 0.3937007874015748
        },
        {
          "duration": 0.04999999999998295,
          "durationTicks": 12,
          "midi": 71,
          "name": "B4",
          "ticks": 57559,
          "time": 239.82916666666668,
          "velocity": 0.4645669291338583
        },
        {
          "duration": 0.07083333333332575,
          "durationTicks": 17,
          "midi": 74,
          "name": "D5",
          "ticks": 57645,
          "time": 240.1875,
          "velocity": 0.3700787401574803
        },
        {
          "duration": 0.15000000000000568,
          "durationTicks": 36,
          "midi": 64,
          "name": "E4",
          "ticks": 57693,
          "time": 240.3875,
          "velocity": 0.44881889763779526
        },
        {
          "duration": 0.07083333333335418,
          "durationTicks": 17,
          "midi": 88,
          "name": "E6",
          "ticks": 57746,
          "time": 240.60833333333332,
          "velocity": 0.28346456692913385
        },
        {
          "duration": 0.07083333333332575,
          "durationTicks": 17,
          "midi": 76,
          "name": "E5",
          "ticks": 57770,
          "time": 240.70833333333334,
          "velocity": 0.41732283464566927
        },
        {
          "duration": 0.06666666666666288,
          "durationTicks": 16,
          "midi": 69,
          "name": "A4",
          "ticks": 57811,
          "time": 240.87916666666666,
          "velocity": 0.44881889763779526
        },
        {
          "duration": 0.04166666666665719,
          "durationTicks": 10,
          "midi": 69,
          "name": "A4",
          "ticks": 57837,
          "time": 240.9875,
          "velocity": 0.4015748031496063
        },
        {
          "duration": 0.13749999999998863,
          "durationTicks": 33,
          "midi": 84,
          "name": "C6",
          "ticks": 57847,
          "time": 241.02916666666667,
          "velocity": 0.49606299212598426
        },
        {
          "duration": 0.04999999999998295,
          "durationTicks": 12,
          "midi": 38,
          "name": "D2",
          "ticks": 57890,
          "time": 241.20833333333334,
          "velocity": 0.4881889763779528
        },
        {
          "duration": 0.14166666666667993,
          "durationTicks": 34,
          "midi": 67,
          "name": "G4",
          "ticks": 57916,
          "time": 241.31666666666666,
          "velocity": 0.4094488188976378
        },
        {
          "duration": 0.22083333333335986,
          "durationTicks": 53,
          "midi": 62,
          "name": "D4",
          "ticks": 57971,
          "time": 241.54583333333332,
          "velocity": 0.5669291338582677
        },
        {
          "duration": 0.0625,
          "durationTicks": 15,
          "midi": 53,
          "name": "F3",
          "ticks": 57971,
          "time": 241.54583333333332,
          "velocity": 0.5433070866141733
        },
        {
          "duration": 0.42083333333332007,
          "durationTicks": 101,
          "midi": 62,
          "name": "D4",
          "ticks": 58041,
          "time": 241.8375,
          "velocity": 0.4566929133858268
        },
        {
          "duration": 0.0625,
          "durationTicks": 15,
          "midi": 64,
          "name": "E4",
          "ticks": 58060,
          "time": 241.91666666666666,
          "velocity": 0.33070866141732286
        },
        {
          "duration": 0.05000000000001137,
          "durationTicks": 12,
          "midi": 74,
          "name": "D5",
          "ticks": 58075,
          "time": 241.97916666666666,
          "velocity": 0.31496062992125984
        },
        {
          "duration": 0.11666666666664582,
          "durationTicks": 28,
          "midi": 72,
          "name": "C5",
          "ticks": 58123,
          "time": 242.17916666666667,
          "velocity": 0.4015748031496063
        },
        {
          "duration": 0.04999999999998295,
          "durationTicks": 12,
          "midi": 48,
          "name": "C3",
          "ticks": 58190,
          "time": 242.45833333333334,
          "velocity": 0.2677165354330709
        },
        {
          "duration": 0.12916666666666288,
          "durationTicks": 31,
          "midi": 76,
          "name": "E5",
          "ticks": 58219,
          "time": 242.57916666666668,
          "velocity": 0.29133858267716534
        },
        {
          "duration": 0.09999999999999432,
          "durationTicks": 24,
          "midi": 90,
          "name": "F#6",
          "ticks": 58269,
          "time": 242.7875,
          "velocity": 0.5118110236220472
        },
        {
          "duration": 0.46666666666666856,
          "durationTicks": 112,
          "midi": 92,
          "name": "G#6",
          "ticks": 58303,
          "time": 242.92916666666667,
          "velocity": 0.6062992125984252
        },
        {
          "duration": 0.07083333333332575,
          "durationTicks": 17,
          "midi": 76,
          "name": "E5",
          "ticks": 58310,
          "time": 242.95833333333334,
          "velocity": 0.4566929133858268
        },
        {
          "duration": 0.037499999999994316,
          "durationTicks": 9,
          "midi": 48,
          "name": "C3",
          "ticks": 58459,
          "time": 243.57916666666668,
          "velocity": 0.2283464566929134
        },
        {
          "duration": 0.17916666666667425,
          "durationTicks": 43,
          "midi": 64,
          "name": "E4",
          "ticks": 58461,
          "time": 243.5875,
          "velocity": 0.33858267716535434
        },
        {
          "duration": 0.08750000000000568,
          "durationTicks": 21,
          "midi": 64,
          "name": "E4",
          "ticks": 58526,
          "time": 243.85833333333332,
          "velocity": 0.4251968503937008
        },
        {
          "duration": 0.12083333333333712,
          "durationTicks": 29,
          "midi": 42,
          "name": "F#2",
          "ticks": 58583,
          "time": 244.09583333333333,
          "velocity": 0.23622047244094488
        },
        {
          "duration": 0.05833333333333712,
          "durationTicks": 14,
          "midi": 74,
          "name": "D5",
          "ticks": 58610,
          "time": 244.20833333333334,
          "velocity": 0.48031496062992124
        },
        {
          "duration": 0.17916666666667425,
          "durationTicks": 43,
          "midi": 30,
          "name": "F#1",
          "ticks": 58646,
          "time": 244.35833333333332,
          "velocity": 0.41732283464566927
        },
        {
          "duration": 0.27916666666666856,
          "durationTicks": 67,
          "midi": 64,
          "name": "E4",
          "ticks": 58687,
          "time": 244.52916666666667,
          "velocity": 0.5354330708661418
        },
        {
          "duration": 0.30000000000001137,
          "durationTicks": 72,
          "midi": 67,
          "name": "G4",
          "ticks": 58795,
          "time": 244.97916666666666,
          "velocity": 0.5039370078740157
        },
        {
          "duration": 0.28333333333333144,
          "durationTicks": 68,
          "midi": 41,
          "name": "F2",
          "ticks": 58883,
          "time": 245.34583333333333,
          "velocity": 0.4330708661417323
        },
        {
          "duration": 0.05000000000001137,
          "durationTicks": 12,
          "midi": 98,
          "name": "D7",
          "ticks": 58891,
          "time": 245.37916666666666,
          "velocity": 0.3700787401574803
        },
        {
          "duration": 0.21250000000000568,
          "durationTicks": 51,
          "midi": 29,
          "name": "F1",
          "ticks": 58912,
          "time": 245.46666666666667,
          "velocity": 0.49606299212598426
        },
        {
          "duration": 0.04999999999998295,
          "durationTicks": 12,
          "midi": 50,
          "name": "D3",
          "ticks": 58970,
          "time": 245.70833333333334,
          "velocity": 0.29133858267716534
        },
        {
          "duration": 0.11666666666667425,
          "durationTicks": 28,
          "midi": 59,
          "name": "B3",
          "ticks": 58987,
          "time": 245.77916666666667,
          "velocity": 0.4094488188976378
        },
        {
          "duration": 0.13333333333332575,
          "durationTicks": 32,
          "midi": 43,
          "name": "G2",
          "ticks": 59015,
          "time": 245.89583333333334,
          "velocity": 0.36220472440944884
        },
        {
          "duration": 0.29999999999998295,
          "durationTicks": 72,
          "midi": 64,
          "name": "E4",
          "ticks": 59059,
          "time": 246.07916666666668,
          "velocity": 0.5039370078740157
        },
        {
          "duration": 0.17083333333332007,
          "durationTicks": 41,
          "midi": 62,
          "name": "D4",
          "ticks": 59099,
          "time": 246.24583333333334,
          "velocity": 0.3543307086614173
        },
        {
          "duration": 0.09999999999999432,
          "durationTicks": 24,
          "midi": 79,
          "name": "G5",
          "ticks": 59102,
          "time": 246.25833333333333,
          "velocity": 0.29133858267716534
        },
        {
          "duration": 0.15833333333333144,
          "durationTicks": 38,
          "midi": 62,
          "name": "D4",
          "ticks": 59157,
          "time": 246.4875,
          "velocity": 0.47244094488188976
        },
        {
          "duration": 0.13333333333332575,
          "durationTicks": 32,
          "midi": 30,
          "name": "F#1",
          "ticks": 59159,
          "time": 246.49583333333334,
          "velocity": 0.4094488188976378
        },
        {
          "duration": 0.09999999999999432,
          "durationTicks": 24,
          "midi": 59,
          "name": "B3",
          "ticks": 59243,
          "time": 246.84583333333333,
          "velocity": 0.2677165354330709
        },
        {
          "duration": 0.1875,
          "durationTicks": 45,
          "midi": 31,
          "name": "G1",
          "ticks": 59270,
          "time": 246.95833333333334,
          "velocity": 0.2992125984251969
        },
        {
          "duration": 0.2083333333333428,
          "durationTicks": 50,
          "midi": 67,
          "name": "G4",
          "ticks": 59349,
          "time": 247.2875,
          "velocity": 0.4566929133858268
        },
        {
          "duration": 0.13749999999998863,
          "durationTicks": 33,
          "midi": 86,
          "name": "D6",
          "ticks": 59419,
          "time": 247.57916666666668,
          "velocity": 0.5669291338582677
        },
        {
          "duration": 0.13750000000001705,
          "durationTicks": 33,
          "midi": 90,
          "name": "F#6",
          "ticks": 59455,
          "time": 247.72916666666666,
          "velocity": 0.3937007874015748
        },
        {
          "duration": 0.13333333333332575,
          "durationTicks": 32,
          "midi": 92,
          "name": "G#6",
          "ticks": 59495,
          "time": 247.89583333333334,
          "velocity": 0.4566929133858268
        },
        {
          "duration": 0.3499999999999943,
          "durationTicks": 84,
          "midi": 83,
          "name": "B5",
          "ticks": 59512,
          "time": 247.96666666666667,
          "velocity": 0.5905511811023622
        },
        {
          "duration": 0.10833333333332007,
          "durationTicks": 26,
          "midi": 76,
          "name": "E5",
          "ticks": 59587,
          "time": 248.27916666666667,
          "velocity": 0.5433070866141733
        },
        {
          "duration": 0.07083333333332575,
          "durationTicks": 17,
          "midi": 78,
          "name": "F#5",
          "ticks": 59615,
          "time": 248.39583333333334,
          "velocity": 0.4645669291338583
        },
        {
          "duration": 0.07083333333332575,
          "durationTicks": 17,
          "midi": 64,
          "name": "E4",
          "ticks": 59632,
          "time": 248.46666666666667,
          "velocity": 0.33858267716535434
        },
        {
          "duration": 0.041666666666685614,
          "durationTicks": 10,
          "midi": 81,
          "name": "A5",
          "ticks": 59651,
          "time": 248.54583333333332,
          "velocity": 0.3700787401574803
        },
        {
          "duration": 0.07083333333332575,
          "durationTicks": 17,
          "midi": 81,
          "name": "A5",
          "ticks": 59697,
          "time": 248.7375,
          "velocity": 0.4330708661417323
        },
        {
          "duration": 0.10833333333334849,
          "durationTicks": 26,
          "midi": 81,
          "name": "A5",
          "ticks": 59733,
          "time": 248.8875,
          "velocity": 0.3779527559055118
        },
        {
          "duration": 0.037499999999994316,
          "durationTicks": 9,
          "midi": 62,
          "name": "D4",
          "ticks": 59738,
          "time": 248.90833333333333,
          "velocity": 0.33070866141732286
        },
        {
          "duration": 0.24166666666667425,
          "durationTicks": 58,
          "midi": 67,
          "name": "G4",
          "ticks": 59747,
          "time": 248.94583333333333,
          "velocity": 0.44881889763779526
        },
        {
          "duration": 0.11249999999998295,
          "durationTicks": 27,
          "midi": 69,
          "name": "A4",
          "ticks": 59848,
          "time": 249.36666666666667,
          "velocity": 0.3543307086614173
        },
        {
          "duration": 0.041666666666685614,
          "durationTicks": 10,
          "midi": 61,
          "name": "C#4",
          "ticks": 59891,
          "time": 249.54583333333332,
          "velocity": 0.1889763779527559
        },
        {
          "duration": 0.09999999999999432,
          "durationTicks": 24,
          "midi": 83,
          "name": "B5",
          "ticks": 59899,
          "time": 249.57916666666668,
          "velocity": 0.16535433070866143
        },
        {
          "duration": 0.2708333333333428,
          "durationTicks": 65,
          "midi": 38,
          "name": "D2",
          "ticks": 59932,
          "time": 249.71666666666667,
          "velocity": 0.4881889763779528
        },
        {
          "duration": 0.22916666666668561,
          "durationTicks": 55,
          "midi": 28,
          "name": "E1",
          "ticks": 60055,
          "time": 250.22916666666666,
          "velocity": 0.48031496062992124
        },
        {
          "duration": 0.09999999999999432,
          "durationTicks": 24,
          "midi": 67,
          "name": "G4",
          "ticks": 60074,
          "time": 250.30833333333334,
          "velocity": 0.28346456692913385
        },
        {
          "duration": 0.12916666666666288,
          "durationTicks": 31,
          "midi": 28,
          "name": "E1",
          "ticks": 60175,
          "time": 250.72916666666666,
          "velocity": 0.41732283464566927
        },
        {
          "duration": 0.05000000000001137,
          "durationTicks": 12,
          "midi": 47,
          "name": "B2",
          "ticks": 60218,
          "time": 250.90833333333333,
          "velocity": 0.2440944881889764
        },
        {
          "duration": 0.1416666666666515,
          "durationTicks": 34,
          "midi": 62,
          "name": "D4",
          "ticks": 60237,
          "time": 250.9875,
          "velocity": 0.3700787401574803
        },
        {
          "duration": 0.19999999999998863,
          "durationTicks": 48,
          "midi": 69,
          "name": "A4",
          "ticks": 60254,
          "time": 251.05833333333334,
          "velocity": 0.3858267716535433
        },
        {
          "duration": 0.9708333333333314,
          "durationTicks": 233,
          "midi": 45,
          "name": "A2",
          "ticks": 60302,
          "time": 251.25833333333333,
          "velocity": 0.5590551181102362
        },
        {
          "duration": 0.09999999999999432,
          "durationTicks": 24,
          "midi": 62,
          "name": "D4",
          "ticks": 60357,
          "time": 251.4875,
          "velocity": 0.2992125984251969
        },
        {
          "duration": 0.24166666666664582,
          "durationTicks": 58,
          "midi": 33,
          "name": "A1",
          "ticks": 60395,
          "time": 251.64583333333334,
          "velocity": 0.5196850393700787
        },
        {
          "duration": 0.05000000000001137,
          "durationTicks": 12,
          "midi": 76,
          "name": "E5",
          "ticks": 60482,
          "time": 252.00833333333333,
          "velocity": 0.13385826771653545
        },
        {
          "duration": 0.05833333333333712,
          "durationTicks": 14,
          "midi": 33,
          "name": "A1",
          "ticks": 60518,
          "time": 252.15833333333333,
          "velocity": 0.44881889763779526
        },
        {
          "duration": 0.44999999999998863,
          "durationTicks": 108,
          "midi": 45,
          "name": "A2",
          "ticks": 60575,
          "time": 252.39583333333334,
          "velocity": 0.4094488188976378
        },
        {
          "duration": 0.05833333333333712,
          "durationTicks": 14,
          "midi": 64,
          "name": "E4",
          "ticks": 60693,
          "time": 252.8875,
          "velocity": 0.28346456692913385
        },
        {
          "duration": 0.037499999999994316,
          "durationTicks": 9,
          "midi": 45,
          "name": "A2",
          "ticks": 60727,
          "time": 253.02916666666667,
          "velocity": 0.2047244094488189
        },
        {
          "duration": 0.05000000000001137,
          "durationTicks": 12,
          "midi": 38,
          "name": "D2",
          "ticks": 60811,
          "time": 253.37916666666666,
          "velocity": 0.29133858267716534
        },
        {
          "duration": 0.06666666666666288,
          "durationTicks": 16,
          "midi": 37,
          "name": "C#2",
          "ticks": 60835,
          "time": 253.47916666666666,
          "velocity": 0.30708661417322836
        },
        {
          "duration": 0.0625,
          "durationTicks": 15,
          "midi": 35,
          "name": "B1",
          "ticks": 60887,
          "time": 253.69583333333333,
          "velocity": 0.2677165354330709
        },
        {
          "duration": 0.0625,
          "durationTicks": 15,
          "midi": 41,
          "name": "F2",
          "ticks": 60911,
          "time": 253.79583333333332,
          "velocity": 0.29133858267716534
        },
        {
          "duration": 0.14166666666667993,
          "durationTicks": 34,
          "midi": 41,
          "name": "F2",
          "ticks": 61000,
          "time": 254.16666666666666,
          "velocity": 0.33070866141732286
        },
        {
          "duration": 0.3791666666666629,
          "durationTicks": 91,
          "midi": 62,
          "name": "D4",
          "ticks": 61010,
          "time": 254.20833333333334,
          "velocity": 0.5039370078740157
        },
        {
          "duration": 0.07916666666665151,
          "durationTicks": 19,
          "midi": 31,
          "name": "G1",
          "ticks": 61144,
          "time": 254.76666666666668,
          "velocity": 0.4330708661417323
        },
        {
          "duration": 0.08333333333334281,
          "durationTicks": 20,
          "midi": 98,
          "name": "D7",
          "ticks": 61199,
          "time": 254.99583333333334,
          "velocity": 0.3228346456692913
        },
        {
          "duration": 0.3791666666666629,
          "durationTicks": 91,
          "midi": 60,
          "name": "C4",
          "ticks": 61276,
          "time": 255.31666666666666,
          "velocity": 0.5039370078740157
        },
        {
          "duration": 0.2916666666666856,
          "durationTicks": 70,
          "midi": 83,
          "name": "B5",
          "ticks": 61425,
          "time": 255.9375,
          "velocity": 0.3779527559055118
        },
        {
          "duration": 0.3916666666666515,
          "durationTicks": 94,
          "midi": 62,
          "name": "D4",
          "ticks": 61523,
          "time": 256.34583333333336,
          "velocity": 0.3779527559055118
        },
        {
          "duration": 0.041666666666685614,
          "durationTicks": 10,
          "midi": 52,
          "name": "E3",
          "ticks": 61648,
          "time": 256.8666666666667,
          "velocity": 0.2755905511811024
        },
        {
          "duration": 0.10833333333334849,
          "durationTicks": 26,
          "midi": 64,
          "name": "E4",
          "ticks": 61701,
          "time": 257.0875,
          "velocity": 0.2992125984251969
        },
        {
          "duration": 0.10833333333329165,
          "durationTicks": 26,
          "midi": 53,
          "name": "F3",
          "ticks": 61946,
          "time": 258.10833333333335,
          "velocity": 0.3543307086614173
        },
        {
          "duration": 0.07916666666665151,
          "durationTicks": 19,
          "midi": 76,
          "name": "E5",
          "ticks": 61989,
          "time": 258.2875,
          "velocity": 0.5433070866141733
        },
        {
          "duration": 0.12083333333333712,
          "durationTicks": 29,
          "midi": 85,
          "name": "C#6",
          "ticks": 62006,
          "time": 258.35833333333335,
          "velocity": 0.3700787401574803
        },
        {
          "duration": 0.1875,
          "durationTicks": 45,
          "midi": 53,
          "name": "F3",
          "ticks": 62035,
          "time": 258.4791666666667,
          "velocity": 0.33858267716535434
        },
        {
          "duration": 0.06666666666666288,
          "durationTicks": 16,
          "midi": 69,
          "name": "A4",
          "ticks": 62059,
          "time": 258.57916666666665,
          "velocity": 0.09448818897637795
        },
        {
          "duration": 0.037499999999965894,
          "durationTicks": 9,
          "midi": 62,
          "name": "D4",
          "ticks": 62095,
          "time": 258.7291666666667,
          "velocity": 0.30708661417322836
        },
        {
          "duration": 0.12083333333333712,
          "durationTicks": 29,
          "midi": 53,
          "name": "F3",
          "ticks": 62109,
          "time": 258.7875,
          "velocity": 0.3228346456692913
        },
        {
          "duration": 0.04166666666662877,
          "durationTicks": 10,
          "midi": 56,
          "name": "G#3",
          "ticks": 62200,
          "time": 259.1666666666667,
          "velocity": 0.3779527559055118
        },
        {
          "duration": 0.39999999999997726,
          "durationTicks": 96,
          "midi": 64,
          "name": "E4",
          "ticks": 62323,
          "time": 259.6791666666667,
          "velocity": 0.5196850393700787
        },
        {
          "duration": 0.20833333333331439,
          "durationTicks": 50,
          "midi": 36,
          "name": "C2",
          "ticks": 62385,
          "time": 259.9375,
          "velocity": 0.5039370078740157
        },
        {
          "duration": 0.3083333333333371,
          "durationTicks": 74,
          "midi": 64,
          "name": "E4",
          "ticks": 62450,
          "time": 260.2083333333333,
          "velocity": 0.4251968503937008
        },
        {
          "duration": 0.09166666666664014,
          "durationTicks": 22,
          "midi": 48,
          "name": "C3",
          "ticks": 62469,
          "time": 260.2875,
          "velocity": 0.36220472440944884
        },
        {
          "duration": 0.05000000000001137,
          "durationTicks": 12,
          "midi": 67,
          "name": "G4",
          "ticks": 62522,
          "time": 260.5083333333333,
          "velocity": 0.2992125984251969
        },
        {
          "duration": 0.16250000000002274,
          "durationTicks": 39,
          "midi": 55,
          "name": "G3",
          "ticks": 62579,
          "time": 260.74583333333334,
          "velocity": 0.12598425196850394
        },
        {
          "duration": 0.12083333333333712,
          "durationTicks": 29,
          "midi": 91,
          "name": "G6",
          "ticks": 62692,
          "time": 261.21666666666664,
          "velocity": 0.2125984251968504
        },
        {
          "duration": 0.10000000000002274,
          "durationTicks": 24,
          "midi": 64,
          "name": "E4",
          "ticks": 62774,
          "time": 261.55833333333334,
          "velocity": 0.2677165354330709
        },
        {
          "duration": 0.2916666666666856,
          "durationTicks": 70,
          "midi": 29,
          "name": "F1",
          "ticks": 62925,
          "time": 262.1875,
          "velocity": 0.4881889763779528
        },
        {
          "duration": 0.08749999999997726,
          "durationTicks": 21,
          "midi": 53,
          "name": "F3",
          "ticks": 63086,
          "time": 262.85833333333335,
          "velocity": 0.2677165354330709
        },
        {
          "duration": 0.05833333333333712,
          "durationTicks": 14,
          "midi": 76,
          "name": "E5",
          "ticks": 63134,
          "time": 263.05833333333334,
          "velocity": 0.4409448818897638
        },
        {
          "duration": 0.05833333333333712,
          "durationTicks": 14,
          "midi": 57,
          "name": "A3",
          "ticks": 63223,
          "time": 263.4291666666667,
          "velocity": 0.18110236220472442
        },
        {
          "duration": 0.14166666666670835,
          "durationTicks": 34,
          "midi": 67,
          "name": "G4",
          "ticks": 63335,
          "time": 263.8958333333333,
          "velocity": 0.11811023622047244
        },
        {
          "duration": 0.07916666666665151,
          "durationTicks": 19,
          "midi": 98,
          "name": "D7",
          "ticks": 63393,
          "time": 264.1375,
          "velocity": 0.4881889763779528
        },
        {
          "duration": 0.12916666666666288,
          "durationTicks": 31,
          "midi": 52,
          "name": "E3",
          "ticks": 63422,
          "time": 264.2583333333333,
          "velocity": 0.33858267716535434
        },
        {
          "duration": 0.12916666666666288,
          "durationTicks": 31,
          "midi": 87,
          "name": "D#6",
          "ticks": 63496,
          "time": 264.56666666666666,
          "velocity": 0.3464566929133858
        },
        {
          "duration": 0.15833333333330302,
          "durationTicks": 38,
          "midi": 45,
          "name": "A2",
          "ticks": 63614,
          "time": 265.05833333333334,
          "velocity": 0.33858267716535434
        },
        {
          "duration": 0.07083333333332575,
          "durationTicks": 17,
          "midi": 96,
          "name": "C7",
          "ticks": 63657,
          "time": 265.2375,
          "velocity": 0.44881889763779526
        },
        {
          "duration": 0.08749999999997726,
          "durationTicks": 21,
          "midi": 67,
          "name": "G4",
          "ticks": 63698,
          "time": 265.40833333333336,
          "velocity": 0.33858267716535434
        },
        {
          "duration": 0.1500000000000341,
          "durationTicks": 36,
          "midi": 86,
          "name": "D6",
          "ticks": 63722,
          "time": 265.5083333333333,
          "velocity": 0.2992125984251969
        },
        {
          "duration": 0.19999999999998863,
          "durationTicks": 48,
          "midi": 55,
          "name": "G3",
          "ticks": 63734,
          "time": 265.55833333333334,
          "velocity": 0.3228346456692913
        },
        {
          "duration": 0.0625,
          "durationTicks": 15,
          "midi": 98,
          "name": "D7",
          "ticks": 63779,
          "time": 265.74583333333334,
          "velocity": 0.33858267716535434
        },
        {
          "duration": 0.10000000000002274,
          "durationTicks": 24,
          "midi": 84,
          "name": "C6",
          "ticks": 63854,
          "time": 266.05833333333334,
          "velocity": 0.23622047244094488
        },
        {
          "duration": 0.037499999999965894,
          "durationTicks": 9,
          "midi": 69,
          "name": "A4",
          "ticks": 63955,
          "time": 266.4791666666667,
          "velocity": 0.09448818897637795
        },
        {
          "duration": 0.32083333333332575,
          "durationTicks": 77,
          "midi": 60,
          "name": "C4",
          "ticks": 64024,
          "time": 266.76666666666665,
          "velocity": 0.44881889763779526
        },
        {
          "duration": 0.19999999999998863,
          "durationTicks": 48,
          "midi": 64,
          "name": "E4",
          "ticks": 64043,
          "time": 266.84583333333336,
          "velocity": 0.1732283464566929
        },
        {
          "duration": 0.25,
          "durationTicks": 60,
          "midi": 84,
          "name": "C6",
          "ticks": 64125,
          "time": 267.1875,
          "velocity": 0.4094488188976378
        },
        {
          "duration": 0.12083333333328028,
          "durationTicks": 29,
          "midi": 62,
          "name": "D4",
          "ticks": 64223,
          "time": 267.59583333333336,
          "velocity": 0.2755905511811024
        },
        {
          "duration": 0.3291666666666515,
          "durationTicks": 79,
          "midi": 62,
          "name": "D4",
          "ticks": 64288,
          "time": 267.8666666666667,
          "velocity": 0.3858267716535433
        },
        {
          "duration": 0.037499999999965894,
          "durationTicks": 9,
          "midi": 55,
          "name": "G3",
          "ticks": 64363,
          "time": 268.1791666666667,
          "velocity": 0.2755905511811024
        },
        {
          "duration": 0.07916666666665151,
          "durationTicks": 19,
          "midi": 93,
          "name": "A6",
          "ticks": 64382,
          "time": 268.2583333333333,
          "velocity": 0.2283464566929134
        },
        {
          "duration": 0.037499999999965894,
          "durationTicks": 9,
          "midi": 55,
          "name": "G3",
          "ticks": 64418,
          "time": 268.40833333333336,
          "velocity": 0.28346456692913385
        },
        {
          "duration": 0.20833333333331439,
          "durationTicks": 50,
          "midi": 64,
          "name": "E4",
          "ticks": 64449,
          "time": 268.5375,
          "velocity": 0.2992125984251969
        },
        {
          "duration": 0.09166666666669698,
          "durationTicks": 22,
          "midi": 81,
          "name": "A5",
          "ticks": 64521,
          "time": 268.8375,
          "velocity": 0.25196850393700787
        },
        {
          "duration": 0.07083333333332575,
          "durationTicks": 17,
          "midi": 52,
          "name": "E3",
          "ticks": 64559,
          "time": 268.99583333333334,
          "velocity": 0.2992125984251969
        },
        {
          "duration": 0.07083333333332575,
          "durationTicks": 17,
          "midi": 62,
          "name": "D4",
          "ticks": 64576,
          "time": 269.06666666666666,
          "velocity": 0.2677165354330709
        },
        {
          "duration": 0.5999999999999659,
          "durationTicks": 144,
          "midi": 83,
          "name": "B5",
          "ticks": 64598,
          "time": 269.15833333333336,
          "velocity": 0.3228346456692913
        },
        {
          "duration": 0.07083333333332575,
          "durationTicks": 17,
          "midi": 97,
          "name": "C#7",
          "ticks": 64617,
          "time": 269.2375,
          "velocity": 0.16535433070866143
        },
        {
          "duration": 0.14166666666670835,
          "durationTicks": 34,
          "midi": 64,
          "name": "E4",
          "ticks": 64744,
          "time": 269.76666666666665,
          "velocity": 0.48031496062992124
        },
        {
          "duration": 0.2874999999999659,
          "durationTicks": 69,
          "midi": 83,
          "name": "B5",
          "ticks": 64778,
          "time": 269.90833333333336,
          "velocity": 0.2992125984251969
        },
        {
          "duration": 0.04166666666662877,
          "durationTicks": 10,
          "midi": 52,
          "name": "E3",
          "ticks": 64857,
          "time": 270.2375,
          "velocity": 0.2283464566929134
        },
        {
          "duration": 0.05000000000001137,
          "durationTicks": 12,
          "midi": 88,
          "name": "E6",
          "ticks": 64965,
          "time": 270.6875,
          "velocity": 0.25984251968503935
        },
        {
          "duration": 0.08749999999997726,
          "durationTicks": 21,
          "midi": 69,
          "name": "A4",
          "ticks": 65071,
          "time": 271.12916666666666,
          "velocity": 0.2992125984251969
        },
        {
          "duration": 0.07083333333332575,
          "durationTicks": 17,
          "midi": 88,
          "name": "E6",
          "ticks": 65162,
          "time": 271.5083333333333,
          "velocity": 0.2755905511811024
        },
        {
          "duration": 0.30000000000001137,
          "durationTicks": 72,
          "midi": 64,
          "name": "E4",
          "ticks": 65267,
          "time": 271.9458333333333,
          "velocity": 0.28346456692913385
        },
        {
          "duration": 0.0999999999999659,
          "durationTicks": 24,
          "midi": 79,
          "name": "G5",
          "ticks": 65423,
          "time": 272.59583333333336,
          "velocity": 0.08661417322834646
        },
        {
          "duration": 0.07083333333332575,
          "durationTicks": 17,
          "midi": 67,
          "name": "G4",
          "ticks": 65505,
          "time": 272.9375,
          "velocity": 0.08661417322834646
        },
        {
          "duration": 0.07916666666665151,
          "durationTicks": 19,
          "midi": 59,
          "name": "B3",
          "ticks": 65596,
          "time": 273.31666666666666,
          "velocity": 0.33858267716535434
        },
        {
          "duration": 0.14999999999997726,
          "durationTicks": 36,
          "midi": 74,
          "name": "D5",
          "ticks": 65819,
          "time": 274.24583333333334,
          "velocity": 0.29133858267716534
        },
        {
          "duration": 0.05000000000001137,
          "durationTicks": 12,
          "midi": 71,
          "name": "B4",
          "ticks": 65865,
          "time": 274.4375,
          "velocity": 0.14960629921259844
        },
        {
          "duration": 0.05000000000001137,
          "durationTicks": 12,
          "midi": 86,
          "name": "D6",
          "ticks": 65990,
          "time": 274.9583333333333,
          "velocity": 0.2047244094488189
        },
        {
          "duration": 0.15833333333330302,
          "durationTicks": 38,
          "midi": 88,
          "name": "E6",
          "ticks": 66014,
          "time": 275.05833333333334,
          "velocity": 0.15748031496062992
        },
        {
          "duration": 0.12916666666666288,
          "durationTicks": 31,
          "midi": 31,
          "name": "G1",
          "ticks": 66079,
          "time": 275.32916666666665,
          "velocity": 0.2755905511811024
        },
        {
          "duration": 0.06666666666666288,
          "durationTicks": 16,
          "midi": 81,
          "name": "A5",
          "ticks": 66091,
          "time": 275.37916666666666,
          "velocity": 0.08661417322834646
        },
        {
          "duration": 0.07916666666665151,
          "durationTicks": 19,
          "midi": 64,
          "name": "E4",
          "ticks": 66117,
          "time": 275.4875,
          "velocity": 0.07874015748031496
        },
        {
          "duration": 0.09166666666664014,
          "durationTicks": 22,
          "midi": 57,
          "name": "A3",
          "ticks": 66119,
          "time": 275.49583333333334,
          "velocity": 0.28346456692913385
        },
        {
          "duration": 0.041666666666685614,
          "durationTicks": 10,
          "midi": 39,
          "name": "D#2",
          "ticks": 66179,
          "time": 275.74583333333334,
          "velocity": 0.08661417322834646
        },
        {
          "duration": 0.07916666666665151,
          "durationTicks": 19,
          "midi": 91,
          "name": "G6",
          "ticks": 66208,
          "time": 275.8666666666667,
          "velocity": 0.2283464566929134
        },
        {
          "duration": 0.17916666666667425,
          "durationTicks": 43,
          "midi": 79,
          "name": "G5",
          "ticks": 66211,
          "time": 275.87916666666666,
          "velocity": 0.23622047244094488
        },
        {
          "duration": 0.11250000000001137,
          "durationTicks": 27,
          "midi": 76,
          "name": "E5",
          "ticks": 66316,
          "time": 276.31666666666666,
          "velocity": 0.18110236220472442
        },
        {
          "duration": 0.22083333333335986,
          "durationTicks": 53,
          "midi": 31,
          "name": "G1",
          "ticks": 66472,
          "time": 276.96666666666664,
          "velocity": 0.29133858267716534
        },
        {
          "duration": 0.0999999999999659,
          "durationTicks": 24,
          "midi": 64,
          "name": "E4",
          "ticks": 66506,
          "time": 277.10833333333335,
          "velocity": 0.16535433070866143
        },
        {
          "duration": 0.11250000000001137,
          "durationTicks": 27,
          "midi": 76,
          "name": "E5",
          "ticks": 66539,
          "time": 277.24583333333334,
          "velocity": 0.1889763779527559
        },
        {
          "duration": 0.05833333333333712,
          "durationTicks": 14,
          "midi": 60,
          "name": "C4",
          "ticks": 66559,
          "time": 277.32916666666665,
          "velocity": 0.12598425196850394
        },
        {
          "duration": 0.07916666666665151,
          "durationTicks": 19,
          "midi": 72,
          "name": "C5",
          "ticks": 66580,
          "time": 277.4166666666667,
          "velocity": 0.10236220472440945
        },
        {
          "duration": 0.08749999999997726,
          "durationTicks": 21,
          "midi": 60,
          "name": "C4",
          "ticks": 66643,
          "time": 277.6791666666667,
          "velocity": 0.08661417322834646
        },
        {
          "duration": 0.13333333333332575,
          "durationTicks": 32,
          "midi": 79,
          "name": "G5",
          "ticks": 66719,
          "time": 277.99583333333334,
          "velocity": 0.14960629921259844
        },
        {
          "duration": 0.04166666666662877,
          "durationTicks": 10,
          "midi": 55,
          "name": "G3",
          "ticks": 66777,
          "time": 278.2375,
          "velocity": 0.2677165354330709
        },
        {
          "duration": 0.10000000000002274,
          "durationTicks": 24,
          "midi": 88,
          "name": "E6",
          "ticks": 66904,
          "time": 278.76666666666665,
          "velocity": 0.2047244094488189
        },
        {
          "duration": 0.23750000000001137,
          "durationTicks": 57,
          "midi": 74,
          "name": "D5",
          "ticks": 66967,
          "time": 279.02916666666664,
          "velocity": 0.11023622047244094
        },
        {
          "duration": 0.06666666666666288,
          "durationTicks": 16,
          "midi": 86,
          "name": "D6",
          "ticks": 67039,
          "time": 279.32916666666665,
          "velocity": 0.09448818897637795
        },
        {
          "duration": 0.1875,
          "durationTicks": 45,
          "midi": 64,
          "name": "E4",
          "ticks": 67070,
          "time": 279.4583333333333,
          "velocity": 0.16535433070866143
        },
        {
          "duration": 0.22916666666662877,
          "durationTicks": 55,
          "midi": 60,
          "name": "C4",
          "ticks": 67089,
          "time": 279.5375,
          "velocity": 0.08661417322834646
        },
        {
          "duration": 0.05833333333333712,
          "durationTicks": 14,
          "midi": 34,
          "name": "A#1",
          "ticks": 67166,
          "time": 279.85833333333335,
          "velocity": 0.30708661417322836
        },
        {
          "duration": 0.04166666666662877,
          "durationTicks": 10,
          "midi": 45,
          "name": "A2",
          "ticks": 67180,
          "time": 279.9166666666667,
          "velocity": 0.2992125984251969
        },
        {
          "duration": 0.0999999999999659,
          "durationTicks": 24,
          "midi": 31,
          "name": "G1",
          "ticks": 67269,
          "time": 280.2875,
          "velocity": 0.2992125984251969
        },
        {
          "duration": 0.07916666666665151,
          "durationTicks": 19,
          "midi": 88,
          "name": "E6",
          "ticks": 67322,
          "time": 280.5083333333333,
          "velocity": 0.29133858267716534
        },
        {
          "duration": 0.0999999999999659,
          "durationTicks": 24,
          "midi": 88,
          "name": "E6",
          "ticks": 67360,
          "time": 280.6666666666667,
          "velocity": 0.2283464566929134
        },
        {
          "duration": 0.33749999999997726,
          "durationTicks": 81,
          "midi": 64,
          "name": "E4",
          "ticks": 67363,
          "time": 280.6791666666667,
          "velocity": 0.3779527559055118
        },
        {
          "duration": 0.07083333333332575,
          "durationTicks": 17,
          "midi": 76,
          "name": "E5",
          "ticks": 67430,
          "time": 280.9583333333333,
          "velocity": 0.1732283464566929
        },
        {
          "duration": 0.15833333333335986,
          "durationTicks": 38,
          "midi": 64,
          "name": "E4",
          "ticks": 67471,
          "time": 281.12916666666666,
          "velocity": 0.13385826771653545
        },
        {
          "duration": 0.10000000000002274,
          "durationTicks": 24,
          "midi": 79,
          "name": "G5",
          "ticks": 67516,
          "time": 281.31666666666666,
          "velocity": 0.10236220472440945
        },
        {
          "duration": 0.05833333333333712,
          "durationTicks": 14,
          "midi": 67,
          "name": "G4",
          "ticks": 67603,
          "time": 281.6791666666667,
          "velocity": 0.08661417322834646
        },
        {
          "duration": 0.10000000000002274,
          "durationTicks": 24,
          "midi": 86,
          "name": "D6",
          "ticks": 67653,
          "time": 281.8875,
          "velocity": 0.10236220472440945
        },
        {
          "duration": 0.07083333333332575,
          "durationTicks": 17,
          "midi": 59,
          "name": "B3",
          "ticks": 67694,
          "time": 282.05833333333334,
          "velocity": 0.3464566929133858
        },
        {
          "duration": 0.15833333333335986,
          "durationTicks": 38,
          "midi": 59,
          "name": "B3",
          "ticks": 67802,
          "time": 282.5083333333333,
          "velocity": 0.11023622047244094
        },
        {
          "duration": 0.05000000000001137,
          "durationTicks": 12,
          "midi": 88,
          "name": "E6",
          "ticks": 67879,
          "time": 282.82916666666665,
          "velocity": 0.14173228346456693
        },
        {
          "duration": 0.05833333333333712,
          "durationTicks": 14,
          "midi": 86,
          "name": "D6",
          "ticks": 67910,
          "time": 282.9583333333333,
          "velocity": 0.29133858267716534
        },
        {
          "duration": 0.12083333333328028,
          "durationTicks": 29,
          "midi": 83,
          "name": "B5",
          "ticks": 67943,
          "time": 283.09583333333336,
          "velocity": 0.13385826771653545
        },
        {
          "duration": 0.22083333333335986,
          "durationTicks": 53,
          "midi": 31,
          "name": "G1",
          "ticks": 68044,
          "time": 283.51666666666665,
          "velocity": 0.1889763779527559
        },
        {
          "duration": 0.05833333333333712,
          "durationTicks": 14,
          "midi": 88,
          "name": "E6",
          "ticks": 68109,
          "time": 283.7875,
          "velocity": 0.13385826771653545
        },
        {
          "duration": 0.2708333333333144,
          "durationTicks": 65,
          "midi": 31,
          "name": "G1",
          "ticks": 68171,
          "time": 284.04583333333335,
          "velocity": 0.31496062992125984
        },
        {
          "duration": 0.07916666666665151,
          "durationTicks": 19,
          "midi": 57,
          "name": "A3",
          "ticks": 68215,
          "time": 284.2291666666667,
          "velocity": 0.2755905511811024
        },
        {
          "duration": 0.22916666666668561,
          "durationTicks": 55,
          "midi": 84,
          "name": "C6",
          "ticks": 68253,
          "time": 284.3875,
          "velocity": 0.1968503937007874
        },
        {
          "duration": 0.25833333333332575,
          "durationTicks": 62,
          "midi": 31,
          "name": "G1",
          "ticks": 68306,
          "time": 284.60833333333335,
          "velocity": 0.3228346456692913
        },
        {
          "duration": 0.07916666666670835,
          "durationTicks": 19,
          "midi": 59,
          "name": "B3",
          "ticks": 68479,
          "time": 285.32916666666665,
          "velocity": 0.30708661417322836
        },
        {
          "duration": 0.12916666666666288,
          "durationTicks": 31,
          "midi": 59,
          "name": "B3",
          "ticks": 68577,
          "time": 285.7375,
          "velocity": 0.09448818897637795
        },
        {
          "duration": 0.041666666666685614,
          "durationTicks": 10,
          "midi": 79,
          "name": "G5",
          "ticks": 68625,
          "time": 285.9375,
          "velocity": 0.2125984251968504
        },
        {
          "duration": 0.27916666666664014,
          "durationTicks": 67,
          "midi": 81,
          "name": "A5",
          "ticks": 68625,
          "time": 285.9375,
          "velocity": 0.3937007874015748
        },
        {
          "duration": 0.22083333333330302,
          "durationTicks": 53,
          "midi": 36,
          "name": "C2",
          "ticks": 68726,
          "time": 286.35833333333335,
          "velocity": 0.25984251968503935
        },
        {
          "duration": 0.17916666666667425,
          "durationTicks": 43,
          "midi": 57,
          "name": "A3",
          "ticks": 68839,
          "time": 286.82916666666665,
          "velocity": 0.2125984251968504
        },
        {
          "duration": 0.10833333333329165,
          "durationTicks": 26,
          "midi": 88,
          "name": "E6",
          "ticks": 68935,
          "time": 287.2291666666667,
          "velocity": 0.36220472440944884
        },
        {
          "duration": 0.05000000000001137,
          "durationTicks": 12,
          "midi": 100,
          "name": "E7",
          "ticks": 69067,
          "time": 287.77916666666664,
          "velocity": 0.10236220472440945
        },
        {
          "duration": 0.11666666666667425,
          "durationTicks": 28,
          "midi": 64,
          "name": "E4",
          "ticks": 69175,
          "time": 288.2291666666667,
          "velocity": 0.13385826771653545
        },
        {
          "duration": 0.08333333333331439,
          "durationTicks": 20,
          "midi": 64,
          "name": "E4",
          "ticks": 69239,
          "time": 288.49583333333334,
          "velocity": 0.11023622047244094
        },
        {
          "duration": 0.049999999999954525,
          "durationTicks": 12,
          "midi": 34,
          "name": "A#1",
          "ticks": 69263,
          "time": 288.59583333333336,
          "velocity": 0.3228346456692913
        },
        {
          "duration": 0.10833333333334849,
          "durationTicks": 26,
          "midi": 69,
          "name": "A4",
          "ticks": 69331,
          "time": 288.87916666666666,
          "velocity": 0.11811023622047244
        },
        {
          "duration": 0.0708333333333826,
          "durationTicks": 17,
          "midi": 88,
          "name": "E6",
          "ticks": 69352,
          "time": 288.96666666666664,
          "velocity": 0.2283464566929134
        },
        {
          "duration": 0.21249999999997726,
          "durationTicks": 51,
          "midi": 64,
          "name": "E4",
          "ticks": 69359,
          "time": 288.99583333333334,
          "velocity": 0.2677165354330709
        },
        {
          "duration": 0.17916666666667425,
          "durationTicks": 43,
          "midi": 74,
          "name": "D5",
          "ticks": 69487,
          "time": 289.52916666666664,
          "velocity": 0.33858267716535434
        },
        {
          "duration": 0.12916666666666288,
          "durationTicks": 31,
          "midi": 76,
          "name": "E5",
          "ticks": 69619,
          "time": 290.07916666666665,
          "velocity": 0.25984251968503935
        },
        {
          "duration": 0.16250000000002274,
          "durationTicks": 39,
          "midi": 69,
          "name": "A4",
          "ticks": 69635,
          "time": 290.1458333333333,
          "velocity": 0.14960629921259844
        },
        {
          "duration": 0.28750000000002274,
          "durationTicks": 69,
          "midi": 31,
          "name": "G1",
          "ticks": 69739,
          "time": 290.57916666666665,
          "velocity": 0.4409448818897638
        },
        {
          "duration": 0.12083333333328028,
          "durationTicks": 29,
          "midi": 86,
          "name": "D6",
          "ticks": 69743,
          "time": 290.59583333333336,
          "velocity": 0.11023622047244094
        },
        {
          "duration": 0.09166666666664014,
          "durationTicks": 22,
          "midi": 83,
          "name": "B5",
          "ticks": 69808,
          "time": 290.8666666666667,
          "velocity": 0.30708661417322836
        },
        {
          "duration": 0.14999999999997726,
          "durationTicks": 36,
          "midi": 31,
          "name": "G1",
          "ticks": 69871,
          "time": 291.12916666666666,
          "velocity": 0.3700787401574803
        },
        {
          "duration": 0.07916666666665151,
          "durationTicks": 19,
          "midi": 83,
          "name": "B5",
          "ticks": 69955,
          "time": 291.4791666666667,
          "velocity": 0.14960629921259844
        },
        {
          "duration": 0.1708333333333485,
          "durationTicks": 41,
          "midi": 74,
          "name": "D5",
          "ticks": 70007,
          "time": 291.6958333333333,
          "velocity": 0.3858267716535433
        },
        {
          "duration": 0.037499999999965894,
          "durationTicks": 9,
          "midi": 83,
          "name": "B5",
          "ticks": 70058,
          "time": 291.90833333333336,
          "velocity": 0.2125984251968504
        },
        {
          "duration": 0.17916666666667425,
          "durationTicks": 43,
          "midi": 74,
          "name": "D5",
          "ticks": 70111,
          "time": 292.12916666666666,
          "velocity": 0.13385826771653545
        },
        {
          "duration": 0.10833333333334849,
          "durationTicks": 26,
          "midi": 71,
          "name": "B4",
          "ticks": 70171,
          "time": 292.37916666666666,
          "velocity": 0.16535433070866143
        },
        {
          "duration": 0.13333333333332575,
          "durationTicks": 32,
          "midi": 81,
          "name": "A5",
          "ticks": 70175,
          "time": 292.3958333333333,
          "velocity": 0.3543307086614173
        },
        {
          "duration": 0.26666666666670835,
          "durationTicks": 64,
          "midi": 31,
          "name": "G1",
          "ticks": 70267,
          "time": 292.77916666666664,
          "velocity": 0.2992125984251969
        },
        {
          "duration": 0.10833333333334849,
          "durationTicks": 26,
          "midi": 83,
          "name": "B5",
          "ticks": 70399,
          "time": 293.32916666666665,
          "velocity": 0.2755905511811024
        },
        {
          "duration": 0.24166666666667425,
          "durationTicks": 58,
          "midi": 31,
          "name": "G1",
          "ticks": 70401,
          "time": 293.3375,
          "velocity": 0.28346456692913385
        },
        {
          "duration": 0.3708333333333371,
          "durationTicks": 89,
          "midi": 79,
          "name": "G5",
          "ticks": 70502,
          "time": 293.7583333333333,
          "velocity": 0.2283464566929134
        },
        {
          "duration": 0.26249999999998863,
          "durationTicks": 63,
          "midi": 64,
          "name": "E4",
          "ticks": 70528,
          "time": 293.8666666666667,
          "velocity": 0.2283464566929134
        },
        {
          "duration": 0.24166666666667425,
          "durationTicks": 58,
          "midi": 31,
          "name": "G1",
          "ticks": 70660,
          "time": 294.4166666666667,
          "velocity": 0.29133858267716534
        },
        {
          "duration": 0.0625,
          "durationTicks": 15,
          "midi": 88,
          "name": "E6",
          "ticks": 70780,
          "time": 294.9166666666667,
          "velocity": 0.2440944881889764
        },
        {
          "duration": 0.0999999999999659,
          "durationTicks": 24,
          "midi": 72,
          "name": "C5",
          "ticks": 70828,
          "time": 295.1166666666667,
          "velocity": 0.2283464566929134
        },
        {
          "duration": 0.1500000000000341,
          "durationTicks": 36,
          "midi": 86,
          "name": "D6",
          "ticks": 70955,
          "time": 295.6458333333333,
          "velocity": 0.1889763779527559
        },
        {
          "duration": 0.12083333333333712,
          "durationTicks": 29,
          "midi": 59,
          "name": "B3",
          "ticks": 71027,
          "time": 295.9458333333333,
          "velocity": 0.1889763779527559
        },
        {
          "duration": 0.22916666666668561,
          "durationTicks": 55,
          "midi": 31,
          "name": "G1",
          "ticks": 71054,
          "time": 296.05833333333334,
          "velocity": 0.15748031496062992
        },
        {
          "duration": 0.0999999999999659,
          "durationTicks": 24,
          "midi": 74,
          "name": "D5",
          "ticks": 71155,
          "time": 296.4791666666667,
          "velocity": 0.25196850393700787
        },
        {
          "duration": 0.25,
          "durationTicks": 60,
          "midi": 31,
          "name": "G1",
          "ticks": 71179,
          "time": 296.57916666666665,
          "velocity": 0.2283464566929134
        },
        {
          "duration": 0.07083333333332575,
          "durationTicks": 17,
          "midi": 76,
          "name": "E5",
          "ticks": 71255,
          "time": 296.8958333333333,
          "velocity": 0.2440944881889764
        },
        {
          "duration": 0.041666666666685614,
          "durationTicks": 10,
          "midi": 52,
          "name": "E3",
          "ticks": 71368,
          "time": 297.3666666666667,
          "velocity": 0.25196850393700787
        },
        {
          "duration": 0.07083333333332575,
          "durationTicks": 17,
          "midi": 34,
          "name": "A#1",
          "ticks": 71464,
          "time": 297.76666666666665,
          "velocity": 0.2992125984251969
        },
        {
          "duration": 0.07083333333332575,
          "durationTicks": 17,
          "midi": 81,
          "name": "A5",
          "ticks": 71524,
          "time": 298.01666666666665,
          "velocity": 0.08661417322834646
        },
        {
          "duration": 0.14999999999997726,
          "durationTicks": 36,
          "midi": 88,
          "name": "E6",
          "ticks": 71543,
          "time": 298.09583333333336,
          "velocity": 0.4409448818897638
        },
        {
          "duration": 0.1500000000000341,
          "durationTicks": 36,
          "midi": 74,
          "name": "D5",
          "ticks": 71582,
          "time": 298.2583333333333,
          "velocity": 0.3779527559055118
        },
        {
          "duration": 0.07083333333332575,
          "durationTicks": 17,
          "midi": 88,
          "name": "E6",
          "ticks": 71709,
          "time": 298.7875,
          "velocity": 0.28346456692913385
        },
        {
          "duration": 0.0708333333333826,
          "durationTicks": 17,
          "midi": 86,
          "name": "D6",
          "ticks": 71752,
          "time": 298.96666666666664,
          "velocity": 0.12598425196850394
        },
        {
          "duration": 0.3499999999999659,
          "durationTicks": 84,
          "midi": 76,
          "name": "E5",
          "ticks": 71783,
          "time": 299.09583333333336,
          "velocity": 0.3700787401574803
        },
        {
          "duration": 0.09166666666669698,
          "durationTicks": 22,
          "midi": 67,
          "name": "G4",
          "ticks": 71795,
          "time": 299.1458333333333,
          "velocity": 0.13385826771653545
        },
        {
          "duration": 0.05833333333333712,
          "durationTicks": 14,
          "midi": 55,
          "name": "G3",
          "ticks": 71853,
          "time": 299.3875,
          "velocity": 0.18110236220472442
        },
        {
          "duration": 0.0875000000000341,
          "durationTicks": 21,
          "midi": 55,
          "name": "G3",
          "ticks": 71882,
          "time": 299.5083333333333,
          "velocity": 0.4566929133858268
        },
        {
          "duration": 0.05000000000001137,
          "durationTicks": 12,
          "midi": 88,
          "name": "E6",
          "ticks": 71968,
          "time": 299.8666666666667,
          "velocity": 0.25196850393700787
        },
        {
          "duration": 0.20833333333331439,
          "durationTicks": 50,
          "midi": 76,
          "name": "E5",
          "ticks": 71971,
          "time": 299.87916666666666,
          "velocity": 0.3543307086614173
        },
        {
          "duration": 0.2708333333333144,
          "durationTicks": 65,
          "midi": 31,
          "name": "G1",
          "ticks": 72100,
          "time": 300.4166666666667,
          "velocity": 0.3700787401574803
        },
        {
          "duration": 0.09166666666669698,
          "durationTicks": 22,
          "midi": 55,
          "name": "G3",
          "ticks": 72141,
          "time": 300.5875,
          "velocity": 0.2992125984251969
        },
        {
          "duration": 0.09166666666664014,
          "durationTicks": 22,
          "midi": 67,
          "name": "G4",
          "ticks": 72179,
          "time": 300.74583333333334,
          "velocity": 0.13385826771653545
        },
        {
          "duration": 0.23750000000001137,
          "durationTicks": 57,
          "midi": 31,
          "name": "G1",
          "ticks": 72230,
          "time": 300.9583333333333,
          "velocity": 0.2047244094488189
        },
        {
          "duration": 0.1875,
          "durationTicks": 45,
          "midi": 62,
          "name": "D4",
          "ticks": 72247,
          "time": 301.02916666666664,
          "velocity": 0.16535433070866143
        },
        {
          "duration": 0.2708333333333144,
          "durationTicks": 65,
          "midi": 31,
          "name": "G1",
          "ticks": 72362,
          "time": 301.5083333333333,
          "velocity": 0.31496062992125984
        },
        {
          "duration": 0.24166666666667425,
          "durationTicks": 58,
          "midi": 69,
          "name": "A4",
          "ticks": 72496,
          "time": 302.06666666666666,
          "velocity": 0.28346456692913385
        },
        {
          "duration": 0.3166666666666629,
          "durationTicks": 76,
          "midi": 83,
          "name": "B5",
          "ticks": 72559,
          "time": 302.32916666666665,
          "velocity": 0.4251968503937008
        },
        {
          "duration": 0.1416666666666515,
          "durationTicks": 34,
          "midi": 81,
          "name": "A5",
          "ticks": 72659,
          "time": 302.74583333333334,
          "velocity": 0.41732283464566927
        },
        {
          "duration": 0.049999999999954525,
          "durationTicks": 12,
          "midi": 83,
          "name": "B5",
          "ticks": 72700,
          "time": 302.9166666666667,
          "velocity": 0.1889763779527559
        },
        {
          "duration": 0.2916666666666856,
          "durationTicks": 70,
          "midi": 31,
          "name": "G1",
          "ticks": 72753,
          "time": 303.1375,
          "velocity": 0.3700787401574803
        },
        {
          "duration": 0.08333333333337123,
          "durationTicks": 20,
          "midi": 91,
          "name": "G6",
          "ticks": 72755,
          "time": 303.1458333333333,
          "velocity": 0.33858267716535434
        },
        {
          "duration": 0.10833333333329165,
          "durationTicks": 26,
          "midi": 79,
          "name": "G5",
          "ticks": 72775,
          "time": 303.2291666666667,
          "velocity": 0.28346456692913385
        },
        {
          "duration": 0.6000000000000227,
          "durationTicks": 144,
          "midi": 60,
          "name": "C4",
          "ticks": 72844,
          "time": 303.51666666666665,
          "velocity": 0.25196850393700787
        },
        {
          "duration": 0.05000000000001137,
          "durationTicks": 12,
          "midi": 96,
          "name": "C7",
          "ticks": 72981,
          "time": 304.0875,
          "velocity": 0.1889763779527559
        },
        {
          "duration": 0.12083333333333712,
          "durationTicks": 29,
          "midi": 52,
          "name": "E3",
          "ticks": 72988,
          "time": 304.1166666666667,
          "velocity": 0.1732283464566929
        },
        {
          "duration": 0.25,
          "durationTicks": 60,
          "midi": 72,
          "name": "C5",
          "ticks": 73017,
          "time": 304.2375,
          "velocity": 0.30708661417322836
        },
        {
          "duration": 0.10833333333334849,
          "durationTicks": 26,
          "midi": 86,
          "name": "D6",
          "ticks": 73041,
          "time": 304.3375,
          "velocity": 0.2992125984251969
        },
        {
          "duration": 0.22916666666668561,
          "durationTicks": 55,
          "midi": 33,
          "name": "A1",
          "ticks": 73063,
          "time": 304.4291666666667,
          "velocity": 0.5039370078740157
        },
        {
          "duration": 0.08333333333331439,
          "durationTicks": 20,
          "midi": 88,
          "name": "E6",
          "ticks": 73103,
          "time": 304.59583333333336,
          "velocity": 0.31496062992125984
        },
        {
          "duration": 0.049999999999954525,
          "durationTicks": 12,
          "midi": 83,
          "name": "B5",
          "ticks": 73135,
          "time": 304.7291666666667,
          "velocity": 0.2755905511811024
        },
        {
          "duration": 0.0708333333333826,
          "durationTicks": 17,
          "midi": 57,
          "name": "A3",
          "ticks": 73192,
          "time": 304.96666666666664,
          "velocity": 0.16535433070866143
        }
      ],
      "endOfTrackTicks": 73209
    },
    {
      "channel": 1,
      "controlChanges": {},
      "pitchBends": [],
      "instrument": {
        "family": "piano",
        "number": 0,
        "name": "acoustic grand piano"
      },
      "name": "",
      "notes": [
        {
          "duration": 0.5,
          "durationTicks": 120,
          "midi": 64,
          "name": "E4",
          "ticks": 1091,
          "time": 4.545833333333333,
          "velocity": 0.2440944881889764
        },
        {
          "duration": 0.16666666666666696,
          "durationTicks": 40,
          "midi": 60,
          "name": "C4",
          "ticks": 1339,
          "time": 5.579166666666667,
          "velocity": 0.16535433070866143
        },
        {
          "duration": 0.32083333333333375,
          "durationTicks": 77,
          "midi": 72,
          "name": "C5",
          "ticks": 1610,
          "time": 6.708333333333333,
          "velocity": 0.23622047244094488
        },
        {
          "duration": 0.25833333333333286,
          "durationTicks": 62,
          "midi": 72,
          "name": "C5",
          "ticks": 1874,
          "time": 7.808333333333334,
          "velocity": 0.10236220472440945
        },
        {
          "duration": 0.25,
          "durationTicks": 60,
          "midi": 79,
          "name": "G5",
          "ticks": 1934,
          "time": 8.058333333333334,
          "velocity": 0.1889763779527559
        },
        {
          "duration": 0.3125,
          "durationTicks": 75,
          "midi": 81,
          "name": "A5",
          "ticks": 1996,
          "time": 8.316666666666666,
          "velocity": 0.2204724409448819
        },
        {
          "duration": 0.2916666666666661,
          "durationTicks": 70,
          "midi": 86,
          "name": "D6",
          "ticks": 2128,
          "time": 8.866666666666667,
          "velocity": 0.2440944881889764
        },
        {
          "duration": 0.3583333333333343,
          "durationTicks": 86,
          "midi": 77,
          "name": "F5",
          "ticks": 2395,
          "time": 9.979166666666666,
          "velocity": 0.11811023622047244
        },
        {
          "duration": 0.4791666666666661,
          "durationTicks": 115,
          "midi": 55,
          "name": "G3",
          "ticks": 2668,
          "time": 11.116666666666667,
          "velocity": 0.2047244094488189
        },
        {
          "duration": 0.5208333333333321,
          "durationTicks": 125,
          "midi": 71,
          "name": "B4",
          "ticks": 2855,
          "time": 11.895833333333334,
          "velocity": 0.10236220472440945
        },
        {
          "duration": 0.12083333333333357,
          "durationTicks": 29,
          "midi": 98,
          "name": "D7",
          "ticks": 3047,
          "time": 12.695833333333333,
          "velocity": 0.09448818897637795
        },
        {
          "duration": 0.2791666666666668,
          "durationTicks": 67,
          "midi": 74,
          "name": "D5",
          "ticks": 3050,
          "time": 12.708333333333334,
          "velocity": 0.09448818897637795
        },
        {
          "duration": 0.5416666666666661,
          "durationTicks": 130,
          "midi": 54,
          "name": "F#3",
          "ticks": 3059,
          "time": 12.745833333333334,
          "velocity": 0.2204724409448819
        },
        {
          "duration": 0.5124999999999993,
          "durationTicks": 123,
          "midi": 64,
          "name": "E4",
          "ticks": 3184,
          "time": 13.266666666666667,
          "velocity": 0.2283464566929134
        },
        {
          "duration": 0.1291666666666682,
          "durationTicks": 31,
          "midi": 84,
          "name": "C6",
          "ticks": 3273,
          "time": 13.6375,
          "velocity": 0.1968503937007874
        },
        {
          "duration": 0.4875000000000007,
          "durationTicks": 117,
          "midi": 55,
          "name": "G3",
          "ticks": 3451,
          "time": 14.379166666666666,
          "velocity": 0.11023622047244094
        },
        {
          "duration": 0.4875000000000007,
          "durationTicks": 117,
          "midi": 60,
          "name": "C4",
          "ticks": 4106,
          "time": 17.108333333333334,
          "velocity": 0.1889763779527559
        },
        {
          "duration": 0.1374999999999993,
          "durationTicks": 33,
          "midi": 74,
          "name": "D5",
          "ticks": 4586,
          "time": 19.108333333333334,
          "velocity": 0.11811023622047244
        },
        {
          "duration": 0.05833333333333357,
          "durationTicks": 14,
          "midi": 64,
          "name": "E4",
          "ticks": 4759,
          "time": 19.829166666666666,
          "velocity": 0.08661417322834646
        },
        {
          "duration": 0.07916666666666927,
          "durationTicks": 19,
          "midi": 64,
          "name": "E4",
          "ticks": 4792,
          "time": 19.966666666666665,
          "velocity": 0.09448818897637795
        },
        {
          "duration": 0.08750000000000213,
          "durationTicks": 21,
          "midi": 79,
          "name": "G5",
          "ticks": 5287,
          "time": 22.029166666666665,
          "velocity": 0.2125984251968504
        },
        {
          "duration": 0.05000000000000071,
          "durationTicks": 12,
          "midi": 29,
          "name": "F1",
          "ticks": 5531,
          "time": 23.045833333333334,
          "velocity": 0.1968503937007874
        },
        {
          "duration": 0.27083333333333215,
          "durationTicks": 65,
          "midi": 43,
          "name": "G2",
          "ticks": 5560,
          "time": 23.166666666666668,
          "velocity": 0.28346456692913385
        },
        {
          "duration": 0.04166666666666785,
          "durationTicks": 10,
          "midi": 52,
          "name": "E3",
          "ticks": 6081,
          "time": 25.3375,
          "velocity": 0.1968503937007874
        },
        {
          "duration": 0.03750000000000142,
          "durationTicks": 9,
          "midi": 100,
          "name": "E7",
          "ticks": 6259,
          "time": 26.079166666666666,
          "velocity": 0.2755905511811024
        },
        {
          "duration": 0.14166666666666572,
          "durationTicks": 34,
          "midi": 62,
          "name": "D4",
          "ticks": 6599,
          "time": 27.495833333333334,
          "velocity": 0.30708661417322836
        },
        {
          "duration": 0.10000000000000142,
          "durationTicks": 24,
          "midi": 87,
          "name": "D#6",
          "ticks": 6736,
          "time": 28.066666666666666,
          "velocity": 0.2047244094488189
        },
        {
          "duration": 0.40000000000000213,
          "durationTicks": 96,
          "midi": 64,
          "name": "E4",
          "ticks": 6859,
          "time": 28.579166666666666,
          "velocity": 0.33070866141732286
        },
        {
          "duration": 0.4375,
          "durationTicks": 105,
          "midi": 76,
          "name": "E5",
          "ticks": 7046,
          "time": 29.358333333333334,
          "velocity": 0.10236220472440945
        },
        {
          "duration": 0.14166666666666927,
          "durationTicks": 34,
          "midi": 69,
          "name": "A4",
          "ticks": 7264,
          "time": 30.266666666666666,
          "velocity": 0.07874015748031496
        },
        {
          "duration": 0.05000000000000071,
          "durationTicks": 12,
          "midi": 93,
          "name": "A6",
          "ticks": 7310,
          "time": 30.458333333333332,
          "velocity": 0.11811023622047244
        },
        {
          "duration": 0.04999999999999716,
          "durationTicks": 12,
          "midi": 69,
          "name": "A4",
          "ticks": 7375,
          "time": 30.729166666666668,
          "velocity": 0.33858267716535434
        },
        {
          "duration": 0.05000000000000071,
          "durationTicks": 12,
          "midi": 85,
          "name": "C#6",
          "ticks": 7415,
          "time": 30.895833333333332,
          "velocity": 0.16535433070866143
        },
        {
          "duration": 0.14166666666666572,
          "durationTicks": 34,
          "midi": 55,
          "name": "G3",
          "ticks": 7648,
          "time": 31.866666666666667,
          "velocity": 0.23622047244094488
        },
        {
          "duration": 0.05000000000000426,
          "durationTicks": 12,
          "midi": 99,
          "name": "D#7",
          "ticks": 7915,
          "time": 32.979166666666664,
          "velocity": 0.30708661417322836
        },
        {
          "duration": 0.07083333333333997,
          "durationTicks": 17,
          "midi": 64,
          "name": "E4",
          "ticks": 7994,
          "time": 33.30833333333333,
          "velocity": 0.1732283464566929
        },
        {
          "duration": 0.4208333333333343,
          "durationTicks": 101,
          "midi": 45,
          "name": "A2",
          "ticks": 8200,
          "time": 34.166666666666664,
          "velocity": 0.2283464566929134
        },
        {
          "duration": 0.07083333333333286,
          "durationTicks": 17,
          "midi": 102,
          "name": "F#7",
          "ticks": 8927,
          "time": 37.19583333333333,
          "velocity": 0.1889763779527559
        },
        {
          "duration": 0.06666666666666288,
          "durationTicks": 16,
          "midi": 81,
          "name": "A5",
          "ticks": 9607,
          "time": 40.02916666666667,
          "velocity": 0.2992125984251969
        },
        {
          "duration": 0.07916666666666572,
          "durationTicks": 19,
          "midi": 62,
          "name": "D4",
          "ticks": 9830,
          "time": 40.958333333333336,
          "velocity": 0.2283464566929134
        },
        {
          "duration": 0.05833333333333002,
          "durationTicks": 14,
          "midi": 59,
          "name": "B3",
          "ticks": 9926,
          "time": 41.358333333333334,
          "velocity": 0.3700787401574803
        },
        {
          "duration": 0.03750000000000142,
          "durationTicks": 9,
          "midi": 50,
          "name": "D3",
          "ticks": 9974,
          "time": 41.55833333333333,
          "velocity": 0.3779527559055118
        },
        {
          "duration": 0.08750000000000568,
          "durationTicks": 21,
          "midi": 34,
          "name": "A#1",
          "ticks": 10195,
          "time": 42.479166666666664,
          "velocity": 0.3858267716535433
        },
        {
          "duration": 0.13749999999999574,
          "durationTicks": 33,
          "midi": 64,
          "name": "E4",
          "ticks": 10531,
          "time": 43.87916666666667,
          "velocity": 0.3464566929133858
        },
        {
          "duration": 0.15833333333333144,
          "durationTicks": 38,
          "midi": 60,
          "name": "C4",
          "ticks": 10711,
          "time": 44.62916666666667,
          "velocity": 0.41732283464566927
        },
        {
          "duration": 0.04999999999999716,
          "durationTicks": 12,
          "midi": 81,
          "name": "A5",
          "ticks": 10783,
          "time": 44.92916666666667,
          "velocity": 0.30708661417322836
        },
        {
          "duration": 0.12083333333333002,
          "durationTicks": 29,
          "midi": 102,
          "name": "F#7",
          "ticks": 10828,
          "time": 45.11666666666667,
          "velocity": 0.36220472440944884
        },
        {
          "duration": 0.0416666666666643,
          "durationTicks": 10,
          "midi": 50,
          "name": "D3",
          "ticks": 10888,
          "time": 45.36666666666667,
          "velocity": 0.4881889763779528
        },
        {
          "duration": 0.17916666666666714,
          "durationTicks": 43,
          "midi": 65,
          "name": "F4",
          "ticks": 10910,
          "time": 45.458333333333336,
          "velocity": 0.29133858267716534
        },
        {
          "duration": 0.10833333333333428,
          "durationTicks": 26,
          "midi": 32,
          "name": "G#1",
          "ticks": 10982,
          "time": 45.75833333333333,
          "velocity": 0.31496062992125984
        },
        {
          "duration": 0.03750000000000142,
          "durationTicks": 9,
          "midi": 55,
          "name": "G3",
          "ticks": 10994,
          "time": 45.80833333333333,
          "velocity": 0.15748031496062992
        },
        {
          "duration": 0.09166666666666856,
          "durationTicks": 22,
          "midi": 31,
          "name": "G1",
          "ticks": 11025,
          "time": 45.9375,
          "velocity": 0.48031496062992124
        },
        {
          "duration": 0.6000000000000014,
          "durationTicks": 144,
          "midi": 67,
          "name": "G4",
          "ticks": 11059,
          "time": 46.079166666666666,
          "velocity": 0.4409448818897638
        },
        {
          "duration": 0.10000000000000142,
          "durationTicks": 24,
          "midi": 84,
          "name": "C6",
          "ticks": 11164,
          "time": 46.516666666666666,
          "velocity": 0.3700787401574803
        },
        {
          "duration": 0.0416666666666643,
          "durationTicks": 10,
          "midi": 91,
          "name": "G6",
          "ticks": 11231,
          "time": 46.795833333333334,
          "velocity": 0.1732283464566929
        },
        {
          "duration": 0.12083333333333712,
          "durationTicks": 29,
          "midi": 86,
          "name": "D6",
          "ticks": 11260,
          "time": 46.916666666666664,
          "velocity": 0.15748031496062992
        },
        {
          "duration": 0.13750000000000284,
          "durationTicks": 33,
          "midi": 50,
          "name": "D3",
          "ticks": 11455,
          "time": 47.729166666666664,
          "velocity": 0.13385826771653545
        },
        {
          "duration": 0.12916666666666998,
          "durationTicks": 31,
          "midi": 83,
          "name": "B5",
          "ticks": 11534,
          "time": 48.05833333333333,
          "velocity": 0.3858267716535433
        },
        {
          "duration": 0.05000000000000426,
          "durationTicks": 12,
          "midi": 83,
          "name": "B5",
          "ticks": 11575,
          "time": 48.229166666666664,
          "velocity": 0.29133858267716534
        },
        {
          "duration": 0.09166666666666856,
          "durationTicks": 22,
          "midi": 88,
          "name": "E6",
          "ticks": 11639,
          "time": 48.49583333333333,
          "velocity": 0.11023622047244094
        },
        {
          "duration": 0.06666666666666288,
          "durationTicks": 16,
          "midi": 91,
          "name": "G6",
          "ticks": 11827,
          "time": 49.27916666666667,
          "velocity": 0.28346456692913385
        },
        {
          "duration": 0.0416666666666643,
          "durationTicks": 10,
          "midi": 83,
          "name": "B5",
          "ticks": 11925,
          "time": 49.6875,
          "velocity": 0.11023622047244094
        },
        {
          "duration": 0.05833333333333002,
          "durationTicks": 14,
          "midi": 58,
          "name": "A#3",
          "ticks": 12026,
          "time": 50.108333333333334,
          "velocity": 0.1968503937007874
        },
        {
          "duration": 0.03750000000000142,
          "durationTicks": 9,
          "midi": 34,
          "name": "A#1",
          "ticks": 12187,
          "time": 50.77916666666667,
          "velocity": 0.3543307086614173
        },
        {
          "duration": 0.07083333333333997,
          "durationTicks": 17,
          "midi": 87,
          "name": "D#6",
          "ticks": 12194,
          "time": 50.80833333333333,
          "velocity": 0.36220472440944884
        },
        {
          "duration": 0.17083333333333428,
          "durationTicks": 41,
          "midi": 45,
          "name": "A2",
          "ticks": 12297,
          "time": 51.2375,
          "velocity": 0.3779527559055118
        },
        {
          "duration": 0.0416666666666643,
          "durationTicks": 10,
          "midi": 100,
          "name": "E7",
          "ticks": 12345,
          "time": 51.4375,
          "velocity": 0.4645669291338583
        },
        {
          "duration": 0.12916666666666288,
          "durationTicks": 31,
          "midi": 90,
          "name": "F#6",
          "ticks": 12367,
          "time": 51.52916666666667,
          "velocity": 0.2755905511811024
        },
        {
          "duration": 0.07083333333333997,
          "durationTicks": 17,
          "midi": 55,
          "name": "G3",
          "ticks": 12419,
          "time": 51.74583333333333,
          "velocity": 0.1968503937007874
        },
        {
          "duration": 0.10833333333333428,
          "durationTicks": 26,
          "midi": 88,
          "name": "E6",
          "ticks": 12441,
          "time": 51.8375,
          "velocity": 0.31496062992125984
        },
        {
          "duration": 0.2875000000000014,
          "durationTicks": 69,
          "midi": 84,
          "name": "C6",
          "ticks": 12799,
          "time": 53.329166666666666,
          "velocity": 0.3937007874015748
        },
        {
          "duration": 0.13750000000000284,
          "durationTicks": 33,
          "midi": 79,
          "name": "G5",
          "ticks": 12883,
          "time": 53.67916666666667,
          "velocity": 0.48031496062992124
        },
        {
          "duration": 0.17916666666666003,
          "durationTicks": 43,
          "midi": 84,
          "name": "C6",
          "ticks": 12931,
          "time": 53.87916666666667,
          "velocity": 0.14173228346456693
        },
        {
          "duration": 0.07083333333333286,
          "durationTicks": 17,
          "midi": 81,
          "name": "A5",
          "ticks": 13070,
          "time": 54.458333333333336,
          "velocity": 0.3937007874015748
        },
        {
          "duration": 0.1666666666666714,
          "durationTicks": 40,
          "midi": 67,
          "name": "G4",
          "ticks": 13135,
          "time": 54.729166666666664,
          "velocity": 0.3937007874015748
        },
        {
          "duration": 0.10000000000000142,
          "durationTicks": 24,
          "midi": 83,
          "name": "B5",
          "ticks": 13197,
          "time": 54.9875,
          "velocity": 0.25984251968503935
        },
        {
          "duration": 0.10000000000000142,
          "durationTicks": 24,
          "midi": 32,
          "name": "G#1",
          "ticks": 13257,
          "time": 55.2375,
          "velocity": 0.15748031496062992
        },
        {
          "duration": 0.04999999999999716,
          "durationTicks": 12,
          "midi": 28,
          "name": "E1",
          "ticks": 13413,
          "time": 55.8875,
          "velocity": 0.10236220472440945
        },
        {
          "duration": 0.2708333333333286,
          "durationTicks": 65,
          "midi": 64,
          "name": "E4",
          "ticks": 13475,
          "time": 56.145833333333336,
          "velocity": 0.5984251968503937
        },
        {
          "duration": 0.08749999999999858,
          "durationTicks": 21,
          "midi": 81,
          "name": "A5",
          "ticks": 13507,
          "time": 56.27916666666667,
          "velocity": 0.31496062992125984
        },
        {
          "duration": 0.07083333333333286,
          "durationTicks": 17,
          "midi": 67,
          "name": "G4",
          "ticks": 13598,
          "time": 56.65833333333333,
          "velocity": 0.4094488188976378
        },
        {
          "duration": 0.04999999999999716,
          "durationTicks": 12,
          "midi": 45,
          "name": "A2",
          "ticks": 13607,
          "time": 56.69583333333333,
          "velocity": 0.33858267716535434
        },
        {
          "duration": 0.0416666666666643,
          "durationTicks": 10,
          "midi": 33,
          "name": "A1",
          "ticks": 13653,
          "time": 56.8875,
          "velocity": 0.4094488188976378
        },
        {
          "duration": 0.25,
          "durationTicks": 60,
          "midi": 69,
          "name": "A4",
          "ticks": 13663,
          "time": 56.92916666666667,
          "velocity": 0.4881889763779528
        },
        {
          "duration": 0.10000000000000142,
          "durationTicks": 24,
          "midi": 48,
          "name": "C3",
          "ticks": 13701,
          "time": 57.0875,
          "velocity": 0.33070866141732286
        },
        {
          "duration": 0.04999999999999716,
          "durationTicks": 12,
          "midi": 98,
          "name": "D7",
          "ticks": 13747,
          "time": 57.27916666666667,
          "velocity": 0.36220472440944884
        },
        {
          "duration": 0.14166666666666572,
          "durationTicks": 34,
          "midi": 29,
          "name": "F1",
          "ticks": 13749,
          "time": 57.2875,
          "velocity": 0.5354330708661418
        },
        {
          "duration": 0.27916666666666146,
          "durationTicks": 67,
          "midi": 67,
          "name": "G4",
          "ticks": 13771,
          "time": 57.37916666666667,
          "velocity": 0.5669291338582677
        },
        {
          "duration": 0.1875,
          "durationTicks": 45,
          "midi": 69,
          "name": "A4",
          "ticks": 13855,
          "time": 57.729166666666664,
          "velocity": 0.3779527559055118
        },
        {
          "duration": 0.22083333333333854,
          "durationTicks": 53,
          "midi": 67,
          "name": "G4",
          "ticks": 13919,
          "time": 57.99583333333333,
          "velocity": 0.48031496062992124
        },
        {
          "duration": 0.04999999999999716,
          "durationTicks": 12,
          "midi": 71,
          "name": "B4",
          "ticks": 13955,
          "time": 58.145833333333336,
          "velocity": 0.15748031496062992
        },
        {
          "duration": 0.10833333333333428,
          "durationTicks": 26,
          "midi": 62,
          "name": "D4",
          "ticks": 14042,
          "time": 58.50833333333333,
          "velocity": 0.5039370078740157
        },
        {
          "duration": 0.22083333333333144,
          "durationTicks": 53,
          "midi": 64,
          "name": "E4",
          "ticks": 14049,
          "time": 58.5375,
          "velocity": 0.44881889763779526
        },
        {
          "duration": 0.08749999999999858,
          "durationTicks": 21,
          "midi": 81,
          "name": "A5",
          "ticks": 14059,
          "time": 58.579166666666666,
          "velocity": 0.31496062992125984
        },
        {
          "duration": 0.03750000000000142,
          "durationTicks": 9,
          "midi": 43,
          "name": "G2",
          "ticks": 14114,
          "time": 58.80833333333333,
          "velocity": 0.14960629921259844
        },
        {
          "duration": 0.25,
          "durationTicks": 60,
          "midi": 30,
          "name": "F#1",
          "ticks": 14128,
          "time": 58.86666666666667,
          "velocity": 0.4645669291338583
        },
        {
          "duration": 0.07083333333333286,
          "durationTicks": 17,
          "midi": 67,
          "name": "G4",
          "ticks": 14188,
          "time": 59.11666666666667,
          "velocity": 0.3937007874015748
        },
        {
          "duration": 0.05833333333333002,
          "durationTicks": 14,
          "midi": 59,
          "name": "B3",
          "ticks": 14205,
          "time": 59.1875,
          "velocity": 0.25984251968503935
        },
        {
          "duration": 0.09166666666666856,
          "durationTicks": 22,
          "midi": 101,
          "name": "F7",
          "ticks": 14219,
          "time": 59.24583333333333,
          "velocity": 0.5354330708661418
        },
        {
          "duration": 0.1875,
          "durationTicks": 45,
          "midi": 102,
          "name": "F#7",
          "ticks": 14323,
          "time": 59.67916666666667,
          "velocity": 0.5275590551181102
        },
        {
          "duration": 0.14999999999999858,
          "durationTicks": 36,
          "midi": 28,
          "name": "E1",
          "ticks": 14356,
          "time": 59.81666666666667,
          "velocity": 0.48031496062992124
        },
        {
          "duration": 0.0416666666666643,
          "durationTicks": 10,
          "midi": 93,
          "name": "A6",
          "ticks": 14387,
          "time": 59.94583333333333,
          "velocity": 0.18110236220472442
        },
        {
          "duration": 0.041666666666671404,
          "durationTicks": 10,
          "midi": 27,
          "name": "D#1",
          "ticks": 14459,
          "time": 60.24583333333333,
          "velocity": 0.28346456692913385
        },
        {
          "duration": 0.0833333333333357,
          "durationTicks": 20,
          "midi": 60,
          "name": "C4",
          "ticks": 14543,
          "time": 60.59583333333333,
          "velocity": 0.5039370078740157
        },
        {
          "duration": 0.12083333333333712,
          "durationTicks": 29,
          "midi": 60,
          "name": "C4",
          "ticks": 14582,
          "time": 60.75833333333333,
          "velocity": 0.4881889763779528
        },
        {
          "duration": 0.19166666666666288,
          "durationTicks": 46,
          "midi": 45,
          "name": "A2",
          "ticks": 14651,
          "time": 61.045833333333334,
          "velocity": 0.44881889763779526
        },
        {
          "duration": 0.05833333333333002,
          "durationTicks": 14,
          "midi": 62,
          "name": "D4",
          "ticks": 14683,
          "time": 61.17916666666667,
          "velocity": 0.4330708661417323
        },
        {
          "duration": 0.17916666666666714,
          "durationTicks": 43,
          "midi": 67,
          "name": "G4",
          "ticks": 14707,
          "time": 61.27916666666667,
          "velocity": 0.48031496062992124
        },
        {
          "duration": 0.041666666666671404,
          "durationTicks": 10,
          "midi": 67,
          "name": "G4",
          "ticks": 14781,
          "time": 61.5875,
          "velocity": 0.16535433070866143
        },
        {
          "duration": 0.23750000000000426,
          "durationTicks": 57,
          "midi": 62,
          "name": "D4",
          "ticks": 14815,
          "time": 61.729166666666664,
          "velocity": 0.4566929133858268
        },
        {
          "duration": 0.0625,
          "durationTicks": 15,
          "midi": 65,
          "name": "F4",
          "ticks": 14867,
          "time": 61.94583333333333,
          "velocity": 0.2992125984251969
        },
        {
          "duration": 0.05833333333333002,
          "durationTicks": 14,
          "midi": 67,
          "name": "G4",
          "ticks": 14906,
          "time": 62.108333333333334,
          "velocity": 0.47244094488188976
        },
        {
          "duration": 0.09166666666666856,
          "durationTicks": 22,
          "midi": 91,
          "name": "G6",
          "ticks": 14920,
          "time": 62.166666666666664,
          "velocity": 0.3464566929133858
        },
        {
          "duration": 0.05833333333333712,
          "durationTicks": 14,
          "midi": 93,
          "name": "A6",
          "ticks": 14961,
          "time": 62.3375,
          "velocity": 0.3543307086614173
        },
        {
          "duration": 0.19166666666666288,
          "durationTicks": 46,
          "midi": 62,
          "name": "D4",
          "ticks": 15153,
          "time": 63.1375,
          "velocity": 0.23622047244094488
        },
        {
          "duration": 0.041666666666671404,
          "durationTicks": 10,
          "midi": 32,
          "name": "G#1",
          "ticks": 15220,
          "time": 63.416666666666664,
          "velocity": 0.33070866141732286
        },
        {
          "duration": 0.19166666666666998,
          "durationTicks": 46,
          "midi": 69,
          "name": "A4",
          "ticks": 15239,
          "time": 63.49583333333333,
          "velocity": 0.3779527559055118
        },
        {
          "duration": 0.19166666666666998,
          "durationTicks": 46,
          "midi": 90,
          "name": "F#6",
          "ticks": 15328,
          "time": 63.86666666666667,
          "velocity": 0.4645669291338583
        },
        {
          "duration": 0.0625,
          "durationTicks": 15,
          "midi": 77,
          "name": "F5",
          "ticks": 15352,
          "time": 63.96666666666667,
          "velocity": 0.4566929133858268
        },
        {
          "duration": 0.17916666666667425,
          "durationTicks": 43,
          "midi": 48,
          "name": "C3",
          "ticks": 15439,
          "time": 64.32916666666667,
          "velocity": 0.41732283464566927
        },
        {
          "duration": 0.2291666666666714,
          "durationTicks": 55,
          "midi": 81,
          "name": "A5",
          "ticks": 15489,
          "time": 64.5375,
          "velocity": 0.07874015748031496
        },
        {
          "duration": 0.17083333333332007,
          "durationTicks": 41,
          "midi": 83,
          "name": "B5",
          "ticks": 15542,
          "time": 64.75833333333334,
          "velocity": 0.2755905511811024
        },
        {
          "duration": 0.04999999999999716,
          "durationTicks": 12,
          "midi": 64,
          "name": "E4",
          "ticks": 15563,
          "time": 64.84583333333333,
          "velocity": 0.2125984251968504
        },
        {
          "duration": 0.15000000000000568,
          "durationTicks": 36,
          "midi": 81,
          "name": "A5",
          "ticks": 15597,
          "time": 64.9875,
          "velocity": 0.36220472440944884
        },
        {
          "duration": 0.07916666666666572,
          "durationTicks": 19,
          "midi": 49,
          "name": "C#3",
          "ticks": 15698,
          "time": 65.40833333333333,
          "velocity": 0.28346456692913385
        },
        {
          "duration": 0.2083333333333428,
          "durationTicks": 50,
          "midi": 30,
          "name": "F#1",
          "ticks": 15710,
          "time": 65.45833333333333,
          "velocity": 0.41732283464566927
        },
        {
          "duration": 0.19999999999998863,
          "durationTicks": 48,
          "midi": 41,
          "name": "F2",
          "ticks": 15775,
          "time": 65.72916666666667,
          "velocity": 0.41732283464566927
        },
        {
          "duration": 0.04999999999999716,
          "durationTicks": 12,
          "midi": 96,
          "name": "C7",
          "ticks": 15803,
          "time": 65.84583333333333,
          "velocity": 0.4015748031496063
        },
        {
          "duration": 0.041666666666671404,
          "durationTicks": 10,
          "midi": 48,
          "name": "C3",
          "ticks": 15863,
          "time": 66.09583333333333,
          "velocity": 0.44881889763779526
        },
        {
          "duration": 0.09166666666666856,
          "durationTicks": 22,
          "midi": 29,
          "name": "F1",
          "ticks": 15911,
          "time": 66.29583333333333,
          "velocity": 0.44881889763779526
        },
        {
          "duration": 0.19166666666666288,
          "durationTicks": 46,
          "midi": 67,
          "name": "G4",
          "ticks": 16017,
          "time": 66.7375,
          "velocity": 0.41732283464566927
        },
        {
          "duration": 0.04999999999999716,
          "durationTicks": 12,
          "midi": 50,
          "name": "D3",
          "ticks": 16036,
          "time": 66.81666666666666,
          "velocity": 0.33070866141732286
        },
        {
          "duration": 0.25833333333332575,
          "durationTicks": 62,
          "midi": 62,
          "name": "D4",
          "ticks": 16135,
          "time": 67.22916666666667,
          "velocity": 0.49606299212598426
        },
        {
          "duration": 0.16250000000000853,
          "durationTicks": 39,
          "midi": 59,
          "name": "B3",
          "ticks": 16216,
          "time": 67.56666666666666,
          "velocity": 0.16535433070866143
        },
        {
          "duration": 0.05833333333333712,
          "durationTicks": 14,
          "midi": 43,
          "name": "G2",
          "ticks": 16250,
          "time": 67.70833333333333,
          "velocity": 0.15748031496062992
        },
        {
          "duration": 0.5,
          "durationTicks": 120,
          "midi": 69,
          "name": "A4",
          "ticks": 16315,
          "time": 67.97916666666667,
          "velocity": 0.5196850393700787
        },
        {
          "duration": 0.04999999999999716,
          "durationTicks": 12,
          "midi": 99,
          "name": "D#7",
          "ticks": 16339,
          "time": 68.07916666666667,
          "velocity": 0.49606299212598426
        },
        {
          "duration": 0.1916666666666771,
          "durationTicks": 46,
          "midi": 90,
          "name": "F#6",
          "ticks": 16415,
          "time": 68.39583333333333,
          "velocity": 0.4251968503937008
        },
        {
          "duration": 0.14166666666666572,
          "durationTicks": 34,
          "midi": 90,
          "name": "F#6",
          "ticks": 16480,
          "time": 68.66666666666667,
          "velocity": 0.41732283464566927
        },
        {
          "duration": 0.07916666666666572,
          "durationTicks": 19,
          "midi": 57,
          "name": "A3",
          "ticks": 16562,
          "time": 69.00833333333334,
          "velocity": 0.36220472440944884
        },
        {
          "duration": 0.041666666666671404,
          "durationTicks": 10,
          "midi": 57,
          "name": "A3",
          "ticks": 16595,
          "time": 69.14583333333333,
          "velocity": 0.4094488188976378
        },
        {
          "duration": 0.12083333333333712,
          "durationTicks": 29,
          "midi": 60,
          "name": "C4",
          "ticks": 16677,
          "time": 69.4875,
          "velocity": 0.12598425196850394
        },
        {
          "duration": 0.037500000000008527,
          "durationTicks": 9,
          "midi": 74,
          "name": "D5",
          "ticks": 16730,
          "time": 69.70833333333333,
          "velocity": 0.48031496062992124
        },
        {
          "duration": 0.04999999999999716,
          "durationTicks": 12,
          "midi": 83,
          "name": "B5",
          "ticks": 16735,
          "time": 69.72916666666667,
          "velocity": 0.4881889763779528
        },
        {
          "duration": 0.04999999999999716,
          "durationTicks": 12,
          "midi": 86,
          "name": "D6",
          "ticks": 16785,
          "time": 69.9375,
          "velocity": 0.25984251968503935
        },
        {
          "duration": 0.17083333333333428,
          "durationTicks": 41,
          "midi": 31,
          "name": "G1",
          "ticks": 16857,
          "time": 70.2375,
          "velocity": 0.2283464566929134
        },
        {
          "duration": 0.9208333333333343,
          "durationTicks": 221,
          "midi": 26,
          "name": "D1",
          "ticks": 16859,
          "time": 70.24583333333334,
          "velocity": 0.4881889763779528
        },
        {
          "duration": 0.14999999999999147,
          "durationTicks": 36,
          "midi": 83,
          "name": "B5",
          "ticks": 16900,
          "time": 70.41666666666667,
          "velocity": 0.4251968503937008
        },
        {
          "duration": 0.07916666666666572,
          "durationTicks": 19,
          "midi": 81,
          "name": "A5",
          "ticks": 17059,
          "time": 71.07916666666667,
          "velocity": 0.3464566929133858
        },
        {
          "duration": 0.2708333333333286,
          "durationTicks": 65,
          "midi": 40,
          "name": "E2",
          "ticks": 17092,
          "time": 71.21666666666667,
          "velocity": 0.4094488188976378
        },
        {
          "duration": 0.08749999999999147,
          "durationTicks": 21,
          "midi": 55,
          "name": "G3",
          "ticks": 17162,
          "time": 71.50833333333334,
          "velocity": 0.4251968503937008
        },
        {
          "duration": 0.05000000000001137,
          "durationTicks": 12,
          "midi": 79,
          "name": "G5",
          "ticks": 17203,
          "time": 71.67916666666666,
          "velocity": 0.2677165354330709
        },
        {
          "duration": 0.04999999999999716,
          "durationTicks": 12,
          "midi": 32,
          "name": "G#1",
          "ticks": 17313,
          "time": 72.1375,
          "velocity": 0.2677165354330709
        },
        {
          "duration": 0.09166666666666856,
          "durationTicks": 22,
          "midi": 45,
          "name": "A2",
          "ticks": 17339,
          "time": 72.24583333333334,
          "velocity": 0.29133858267716534
        },
        {
          "duration": 0.04999999999999716,
          "durationTicks": 12,
          "midi": 37,
          "name": "C#2",
          "ticks": 17371,
          "time": 72.37916666666666,
          "velocity": 0.28346456692913385
        },
        {
          "duration": 0.11666666666667425,
          "durationTicks": 28,
          "midi": 52,
          "name": "E3",
          "ticks": 17431,
          "time": 72.62916666666666,
          "velocity": 0.31496062992125984
        },
        {
          "duration": 0.09166666666666856,
          "durationTicks": 22,
          "midi": 79,
          "name": "G5",
          "ticks": 17649,
          "time": 73.5375,
          "velocity": 0.4094488188976378
        },
        {
          "duration": 0.041666666666671404,
          "durationTicks": 10,
          "midi": 45,
          "name": "A2",
          "ticks": 17697,
          "time": 73.7375,
          "velocity": 0.3464566929133858
        },
        {
          "duration": 0.07916666666666572,
          "durationTicks": 19,
          "midi": 67,
          "name": "G4",
          "ticks": 17779,
          "time": 74.07916666666667,
          "velocity": 0.4645669291338583
        },
        {
          "duration": 0.037499999999994316,
          "durationTicks": 9,
          "midi": 76,
          "name": "E5",
          "ticks": 17839,
          "time": 74.32916666666667,
          "velocity": 0.3858267716535433
        },
        {
          "duration": 0.26250000000000284,
          "durationTicks": 63,
          "midi": 69,
          "name": "A4",
          "ticks": 17843,
          "time": 74.34583333333333,
          "velocity": 0.5196850393700787
        },
        {
          "duration": 0.07083333333333997,
          "durationTicks": 17,
          "midi": 98,
          "name": "D7",
          "ticks": 17937,
          "time": 74.7375,
          "velocity": 0.49606299212598426
        },
        {
          "duration": 0.13749999999998863,
          "durationTicks": 33,
          "midi": 29,
          "name": "F1",
          "ticks": 17942,
          "time": 74.75833333333334,
          "velocity": 0.5039370078740157
        },
        {
          "duration": 0.05833333333332291,
          "durationTicks": 14,
          "midi": 83,
          "name": "B5",
          "ticks": 18002,
          "time": 75.00833333333334,
          "velocity": 0.41732283464566927
        },
        {
          "duration": 0.24166666666666003,
          "durationTicks": 58,
          "midi": 29,
          "name": "F1",
          "ticks": 18059,
          "time": 75.24583333333334,
          "velocity": 0.5275590551181102
        },
        {
          "duration": 0.06666666666667709,
          "durationTicks": 16,
          "midi": 59,
          "name": "B3",
          "ticks": 18151,
          "time": 75.62916666666666,
          "velocity": 0.33070866141732286
        },
        {
          "duration": 0.08750000000000568,
          "durationTicks": 21,
          "midi": 62,
          "name": "D4",
          "ticks": 18206,
          "time": 75.85833333333333,
          "velocity": 0.44881889763779526
        },
        {
          "duration": 0.09166666666666856,
          "durationTicks": 22,
          "midi": 62,
          "name": "D4",
          "ticks": 18232,
          "time": 75.96666666666667,
          "velocity": 0.48031496062992124
        },
        {
          "duration": 0.037499999999994316,
          "durationTicks": 9,
          "midi": 81,
          "name": "A5",
          "ticks": 18254,
          "time": 76.05833333333334,
          "velocity": 0.2125984251968504
        },
        {
          "duration": 0.14166666666666572,
          "durationTicks": 34,
          "midi": 55,
          "name": "G3",
          "ticks": 18287,
          "time": 76.19583333333334,
          "velocity": 0.3700787401574803
        },
        {
          "duration": 0.04999999999999716,
          "durationTicks": 12,
          "midi": 102,
          "name": "F#7",
          "ticks": 18362,
          "time": 76.50833333333334,
          "velocity": 0.4015748031496063
        },
        {
          "duration": 0.04999999999999716,
          "durationTicks": 12,
          "midi": 67,
          "name": "G4",
          "ticks": 18383,
          "time": 76.59583333333333,
          "velocity": 0.3700787401574803
        },
        {
          "duration": 0.40833333333333144,
          "durationTicks": 98,
          "midi": 55,
          "name": "G3",
          "ticks": 18393,
          "time": 76.6375,
          "velocity": 0.4015748031496063
        },
        {
          "duration": 0.12083333333333712,
          "durationTicks": 29,
          "midi": 72,
          "name": "C5",
          "ticks": 18431,
          "time": 76.79583333333333,
          "velocity": 0.3858267716535433
        },
        {
          "duration": 0.11249999999999716,
          "durationTicks": 27,
          "midi": 100,
          "name": "E7",
          "ticks": 18520,
          "time": 77.16666666666667,
          "velocity": 0.5196850393700787
        },
        {
          "duration": 0.04999999999999716,
          "durationTicks": 12,
          "midi": 31,
          "name": "G1",
          "ticks": 18554,
          "time": 77.30833333333334,
          "velocity": 0.2440944881889764
        },
        {
          "duration": 0.04999999999999716,
          "durationTicks": 12,
          "midi": 31,
          "name": "G1",
          "ticks": 18580,
          "time": 77.41666666666667,
          "velocity": 0.14960629921259844
        },
        {
          "duration": 0.10000000000000853,
          "durationTicks": 24,
          "midi": 45,
          "name": "A2",
          "ticks": 18683,
          "time": 77.84583333333333,
          "velocity": 0.2992125984251969
        },
        {
          "duration": 0.14999999999999147,
          "durationTicks": 36,
          "midi": 71,
          "name": "B4",
          "ticks": 18767,
          "time": 78.19583333333334,
          "velocity": 0.3779527559055118
        },
        {
          "duration": 0.07916666666666572,
          "durationTicks": 19,
          "midi": 67,
          "name": "G4",
          "ticks": 18784,
          "time": 78.26666666666667,
          "velocity": 0.30708661417322836
        },
        {
          "duration": 0.12083333333332291,
          "durationTicks": 29,
          "midi": 45,
          "name": "A2",
          "ticks": 18827,
          "time": 78.44583333333334,
          "velocity": 0.3228346456692913
        },
        {
          "duration": 0.0625,
          "durationTicks": 15,
          "midi": 34,
          "name": "A#1",
          "ticks": 18880,
          "time": 78.66666666666667,
          "velocity": 0.31496062992125984
        },
        {
          "duration": 0.14166666666666572,
          "durationTicks": 34,
          "midi": 45,
          "name": "A2",
          "ticks": 18935,
          "time": 78.89583333333333,
          "velocity": 0.33858267716535434
        },
        {
          "duration": 0.22083333333333144,
          "durationTicks": 53,
          "midi": 64,
          "name": "E4",
          "ticks": 19019,
          "time": 79.24583333333334,
          "velocity": 0.4015748031496063
        },
        {
          "duration": 0.12083333333333712,
          "durationTicks": 29,
          "midi": 69,
          "name": "A4",
          "ticks": 19125,
          "time": 79.6875,
          "velocity": 0.4881889763779528
        },
        {
          "duration": 0.14166666666666572,
          "durationTicks": 34,
          "midi": 67,
          "name": "G4",
          "ticks": 19173,
          "time": 79.8875,
          "velocity": 0.3858267716535433
        },
        {
          "duration": 0.041666666666671404,
          "durationTicks": 10,
          "midi": 69,
          "name": "A4",
          "ticks": 19264,
          "time": 80.26666666666667,
          "velocity": 0.4409448818897638
        },
        {
          "duration": 0.04999999999999716,
          "durationTicks": 12,
          "midi": 76,
          "name": "E5",
          "ticks": 19276,
          "time": 80.31666666666666,
          "velocity": 0.2992125984251969
        },
        {
          "duration": 0.07083333333332575,
          "durationTicks": 17,
          "midi": 60,
          "name": "C4",
          "ticks": 19322,
          "time": 80.50833333333334,
          "velocity": 0.2440944881889764
        },
        {
          "duration": 0.19166666666666288,
          "durationTicks": 46,
          "midi": 72,
          "name": "C5",
          "ticks": 19365,
          "time": 80.6875,
          "velocity": 0.3858267716535433
        },
        {
          "duration": 0.2708333333333286,
          "durationTicks": 65,
          "midi": 30,
          "name": "F#1",
          "ticks": 19365,
          "time": 80.6875,
          "velocity": 0.3937007874015748
        },
        {
          "duration": 0.15000000000000568,
          "durationTicks": 36,
          "midi": 67,
          "name": "G4",
          "ticks": 19463,
          "time": 81.09583333333333,
          "velocity": 0.2755905511811024
        },
        {
          "duration": 0.037500000000008527,
          "durationTicks": 9,
          "midi": 31,
          "name": "G1",
          "ticks": 19471,
          "time": 81.12916666666666,
          "velocity": 0.2047244094488189
        },
        {
          "duration": 0.13333333333333997,
          "durationTicks": 32,
          "midi": 88,
          "name": "E6",
          "ticks": 19475,
          "time": 81.14583333333333,
          "velocity": 0.10236220472440945
        },
        {
          "duration": 0.037499999999994316,
          "durationTicks": 9,
          "midi": 35,
          "name": "B1",
          "ticks": 19514,
          "time": 81.30833333333334,
          "velocity": 0.3228346456692913
        },
        {
          "duration": 0.10000000000000853,
          "durationTicks": 24,
          "midi": 90,
          "name": "F#6",
          "ticks": 19523,
          "time": 81.34583333333333,
          "velocity": 0.41732283464566927
        },
        {
          "duration": 0.19166666666666288,
          "durationTicks": 46,
          "midi": 83,
          "name": "B5",
          "ticks": 19612,
          "time": 81.71666666666667,
          "velocity": 0.4251968503937008
        },
        {
          "duration": 0.07083333333333997,
          "durationTicks": 17,
          "midi": 83,
          "name": "B5",
          "ticks": 19756,
          "time": 82.31666666666666,
          "velocity": 0.2283464566929134
        },
        {
          "duration": 0.12916666666666288,
          "durationTicks": 31,
          "midi": 81,
          "name": "A5",
          "ticks": 19785,
          "time": 82.4375,
          "velocity": 0.31496062992125984
        },
        {
          "duration": 0.17916666666666003,
          "durationTicks": 43,
          "midi": 42,
          "name": "F#2",
          "ticks": 19833,
          "time": 82.6375,
          "velocity": 0.25984251968503935
        },
        {
          "duration": 0.041666666666671404,
          "durationTicks": 10,
          "midi": 67,
          "name": "G4",
          "ticks": 19924,
          "time": 83.01666666666667,
          "velocity": 0.33070866141732286
        },
        {
          "duration": 0.21666666666666856,
          "durationTicks": 52,
          "midi": 41,
          "name": "F2",
          "ticks": 19963,
          "time": 83.17916666666666,
          "velocity": 0.4409448818897638
        },
        {
          "duration": 0.20000000000000284,
          "durationTicks": 48,
          "midi": 98,
          "name": "D7",
          "ticks": 20003,
          "time": 83.34583333333333,
          "velocity": 0.4645669291338583
        },
        {
          "duration": 0.3499999999999943,
          "durationTicks": 84,
          "midi": 67,
          "name": "G4",
          "ticks": 20035,
          "time": 83.47916666666667,
          "velocity": 0.5039370078740157
        },
        {
          "duration": 0.041666666666671404,
          "durationTicks": 10,
          "midi": 48,
          "name": "C3",
          "ticks": 20051,
          "time": 83.54583333333333,
          "velocity": 0.3543307086614173
        },
        {
          "duration": 0.09166666666666856,
          "durationTicks": 22,
          "midi": 29,
          "name": "F1",
          "ticks": 20099,
          "time": 83.74583333333334,
          "velocity": 0.4566929133858268
        },
        {
          "duration": 0.15000000000000568,
          "durationTicks": 36,
          "midi": 64,
          "name": "E4",
          "ticks": 20143,
          "time": 83.92916666666666,
          "velocity": 0.3228346456692913
        },
        {
          "duration": 0.1833333333333229,
          "durationTicks": 44,
          "midi": 67,
          "name": "G4",
          "ticks": 20207,
          "time": 84.19583333333334,
          "velocity": 0.4645669291338583
        },
        {
          "duration": 0.5,
          "durationTicks": 120,
          "midi": 62,
          "name": "D4",
          "ticks": 20332,
          "time": 84.71666666666667,
          "velocity": 0.4645669291338583
        },
        {
          "duration": 0.17916666666666003,
          "durationTicks": 43,
          "midi": 64,
          "name": "E4",
          "ticks": 20342,
          "time": 84.75833333333334,
          "velocity": 0.3937007874015748
        },
        {
          "duration": 0.05833333333332291,
          "durationTicks": 14,
          "midi": 79,
          "name": "G5",
          "ticks": 20354,
          "time": 84.80833333333334,
          "velocity": 0.2755905511811024
        },
        {
          "duration": 0.20000000000000284,
          "durationTicks": 48,
          "midi": 59,
          "name": "B3",
          "ticks": 20399,
          "time": 84.99583333333334,
          "velocity": 0.36220472440944884
        },
        {
          "duration": 0.1875,
          "durationTicks": 45,
          "midi": 31,
          "name": "G1",
          "ticks": 20522,
          "time": 85.50833333333334,
          "velocity": 0.29133858267716534
        },
        {
          "duration": 0.05833333333333712,
          "durationTicks": 14,
          "midi": 74,
          "name": "D5",
          "ticks": 20666,
          "time": 86.10833333333333,
          "velocity": 0.4251968503937008
        },
        {
          "duration": 0.14999999999999147,
          "durationTicks": 36,
          "midi": 92,
          "name": "G#6",
          "ticks": 20752,
          "time": 86.46666666666667,
          "velocity": 0.3937007874015748
        },
        {
          "duration": 0.34166666666666856,
          "durationTicks": 82,
          "midi": 45,
          "name": "A2",
          "ticks": 20769,
          "time": 86.5375,
          "velocity": 0.4094488188976378
        },
        {
          "duration": 0.0625,
          "durationTicks": 15,
          "midi": 60,
          "name": "C4",
          "ticks": 20800,
          "time": 86.66666666666667,
          "velocity": 0.33070866141732286
        },
        {
          "duration": 0.04999999999999716,
          "durationTicks": 12,
          "midi": 62,
          "name": "D4",
          "ticks": 20951,
          "time": 87.29583333333333,
          "velocity": 0.4251968503937008
        },
        {
          "duration": 0.07083333333332575,
          "durationTicks": 17,
          "midi": 86,
          "name": "D6",
          "ticks": 20966,
          "time": 87.35833333333333,
          "velocity": 0.2283464566929134
        },
        {
          "duration": 0.08750000000000568,
          "durationTicks": 21,
          "midi": 81,
          "name": "A5",
          "ticks": 20990,
          "time": 87.45833333333333,
          "velocity": 0.2047244094488189
        },
        {
          "duration": 0.1666666666666572,
          "durationTicks": 40,
          "midi": 62,
          "name": "D4",
          "ticks": 20995,
          "time": 87.47916666666667,
          "velocity": 0.3464566929133858
        },
        {
          "duration": 0.16250000000000853,
          "durationTicks": 39,
          "midi": 45,
          "name": "A2",
          "ticks": 21028,
          "time": 87.61666666666666,
          "velocity": 0.4094488188976378
        },
        {
          "duration": 0.0625,
          "durationTicks": 15,
          "midi": 53,
          "name": "F3",
          "ticks": 21095,
          "time": 87.89583333333333,
          "velocity": 0.4330708661417323
        },
        {
          "duration": 0.20000000000000284,
          "durationTicks": 48,
          "midi": 84,
          "name": "C6",
          "ticks": 21177,
          "time": 88.2375,
          "velocity": 0.47244094488188976
        },
        {
          "duration": 0.037499999999994316,
          "durationTicks": 9,
          "midi": 84,
          "name": "C6",
          "ticks": 21235,
          "time": 88.47916666666667,
          "velocity": 0.2677165354330709
        },
        {
          "duration": 0.14166666666666572,
          "durationTicks": 34,
          "midi": 62,
          "name": "D4",
          "ticks": 21304,
          "time": 88.76666666666667,
          "velocity": 0.3543307086614173
        },
        {
          "duration": 0.04999999999999716,
          "durationTicks": 12,
          "midi": 69,
          "name": "A4",
          "ticks": 21506,
          "time": 89.60833333333333,
          "velocity": 0.28346456692913385
        },
        {
          "duration": 0.14999999999999147,
          "durationTicks": 36,
          "midi": 62,
          "name": "D4",
          "ticks": 21614,
          "time": 90.05833333333334,
          "velocity": 0.3228346456692913
        },
        {
          "duration": 0.14999999999999147,
          "durationTicks": 36,
          "midi": 64,
          "name": "E4",
          "ticks": 21674,
          "time": 90.30833333333334,
          "velocity": 0.3937007874015748
        },
        {
          "duration": 0.0625,
          "durationTicks": 15,
          "midi": 57,
          "name": "A3",
          "ticks": 22271,
          "time": 92.79583333333333,
          "velocity": 0.30708661417322836
        },
        {
          "duration": 0.25833333333333997,
          "durationTicks": 62,
          "midi": 43,
          "name": "G2",
          "ticks": 22310,
          "time": 92.95833333333333,
          "velocity": 0.4566929133858268
        },
        {
          "duration": 0.0833333333333286,
          "durationTicks": 20,
          "midi": 86,
          "name": "D6",
          "ticks": 22319,
          "time": 92.99583333333334,
          "velocity": 0.30708661417322836
        },
        {
          "duration": 0.11249999999999716,
          "durationTicks": 27,
          "midi": 59,
          "name": "B3",
          "ticks": 22396,
          "time": 93.31666666666666,
          "velocity": 0.2992125984251969
        },
        {
          "duration": 0.25,
          "durationTicks": 60,
          "midi": 60,
          "name": "C4",
          "ticks": 22557,
          "time": 93.9875,
          "velocity": 0.44881889763779526
        },
        {
          "duration": 0.25833333333332575,
          "durationTicks": 62,
          "midi": 76,
          "name": "E5",
          "ticks": 22682,
          "time": 94.50833333333334,
          "velocity": 0.2283464566929134
        },
        {
          "duration": 0.3375000000000057,
          "durationTicks": 81,
          "midi": 74,
          "name": "D5",
          "ticks": 22790,
          "time": 94.95833333333333,
          "velocity": 0.13385826771653545
        },
        {
          "duration": 0.0625,
          "durationTicks": 15,
          "midi": 62,
          "name": "D4",
          "ticks": 23351,
          "time": 97.29583333333333,
          "velocity": 0.41732283464566927
        },
        {
          "duration": 0.04999999999999716,
          "durationTicks": 12,
          "midi": 64,
          "name": "E4",
          "ticks": 23579,
          "time": 98.24583333333334,
          "velocity": 0.33070866141732286
        },
        {
          "duration": 0.49166666666666003,
          "durationTicks": 118,
          "midi": 67,
          "name": "G4",
          "ticks": 23632,
          "time": 98.46666666666667,
          "velocity": 0.4330708661417323
        },
        {
          "duration": 0.08749999999999147,
          "durationTicks": 21,
          "midi": 64,
          "name": "E4",
          "ticks": 23707,
          "time": 98.77916666666667,
          "velocity": 0.4251968503937008
        },
        {
          "duration": 0.05833333333333712,
          "durationTicks": 14,
          "midi": 36,
          "name": "C2",
          "ticks": 23738,
          "time": 98.90833333333333,
          "velocity": 0.3543307086614173
        },
        {
          "duration": 0.1666666666666714,
          "durationTicks": 40,
          "midi": 59,
          "name": "B3",
          "ticks": 23803,
          "time": 99.17916666666666,
          "velocity": 0.2283464566929134
        },
        {
          "duration": 0.25833333333332575,
          "durationTicks": 62,
          "midi": 83,
          "name": "B5",
          "ticks": 23853,
          "time": 99.3875,
          "velocity": 0.1968503937007874
        },
        {
          "duration": 0.06666666666666288,
          "durationTicks": 16,
          "midi": 53,
          "name": "F3",
          "ticks": 23887,
          "time": 99.52916666666667,
          "velocity": 0.10236220472440945
        },
        {
          "duration": 0.0833333333333286,
          "durationTicks": 20,
          "midi": 79,
          "name": "G5",
          "ticks": 23939,
          "time": 99.74583333333334,
          "velocity": 0.1889763779527559
        },
        {
          "duration": 0.05833333333332291,
          "durationTicks": 14,
          "midi": 76,
          "name": "E5",
          "ticks": 24002,
          "time": 100.00833333333334,
          "velocity": 0.1889763779527559
        },
        {
          "duration": 0.14999999999999147,
          "durationTicks": 36,
          "midi": 64,
          "name": "E4",
          "ticks": 24014,
          "time": 100.05833333333334,
          "velocity": 0.2677165354330709
        },
        {
          "duration": 0.041666666666671404,
          "durationTicks": 10,
          "midi": 86,
          "name": "D6",
          "ticks": 24064,
          "time": 100.26666666666667,
          "velocity": 0.2047244094488189
        },
        {
          "duration": 0.2916666666666714,
          "durationTicks": 70,
          "midi": 29,
          "name": "F1",
          "ticks": 24177,
          "time": 100.7375,
          "velocity": 0.4645669291338583
        },
        {
          "duration": 0.10000000000000853,
          "durationTicks": 24,
          "midi": 62,
          "name": "D4",
          "ticks": 24391,
          "time": 101.62916666666666,
          "velocity": 0.4251968503937008
        },
        {
          "duration": 0.04999999999999716,
          "durationTicks": 12,
          "midi": 91,
          "name": "G6",
          "ticks": 24398,
          "time": 101.65833333333333,
          "velocity": 0.2204724409448819
        },
        {
          "duration": 0.05833333333333712,
          "durationTicks": 14,
          "midi": 43,
          "name": "G2",
          "ticks": 24405,
          "time": 101.6875,
          "velocity": 0.18110236220472442
        },
        {
          "duration": 0.04999999999999716,
          "durationTicks": 12,
          "midi": 96,
          "name": "C7",
          "ticks": 24655,
          "time": 102.72916666666667,
          "velocity": 0.3228346456692913
        },
        {
          "duration": 0.07916666666666572,
          "durationTicks": 19,
          "midi": 78,
          "name": "F#5",
          "ticks": 24758,
          "time": 103.15833333333333,
          "velocity": 0.3228346456692913
        },
        {
          "duration": 0.041666666666671404,
          "durationTicks": 10,
          "midi": 88,
          "name": "E6",
          "ticks": 24849,
          "time": 103.5375,
          "velocity": 0.2204724409448819
        },
        {
          "duration": 0.04999999999999716,
          "durationTicks": 12,
          "midi": 57,
          "name": "A3",
          "ticks": 24940,
          "time": 103.91666666666667,
          "velocity": 0.2677165354330709
        },
        {
          "duration": 0.09166666666666856,
          "durationTicks": 22,
          "midi": 64,
          "name": "E4",
          "ticks": 24983,
          "time": 104.09583333333333,
          "velocity": 0.13385826771653545
        },
        {
          "duration": 0.26250000000000284,
          "durationTicks": 63,
          "midi": 60,
          "name": "C4",
          "ticks": 25288,
          "time": 105.36666666666666,
          "velocity": 0.33070866141732286
        },
        {
          "duration": 0.12083333333333712,
          "durationTicks": 29,
          "midi": 67,
          "name": "G4",
          "ticks": 25492,
          "time": 106.21666666666667,
          "velocity": 0.08661417322834646
        },
        {
          "duration": 0.04999999999999716,
          "durationTicks": 12,
          "midi": 69,
          "name": "A4",
          "ticks": 25713,
          "time": 107.1375,
          "velocity": 0.11811023622047244
        },
        {
          "duration": 0.04999999999999716,
          "durationTicks": 12,
          "midi": 52,
          "name": "E3",
          "ticks": 25907,
          "time": 107.94583333333334,
          "velocity": 0.25196850393700787
        },
        {
          "duration": 0.08750000000000568,
          "durationTicks": 21,
          "midi": 102,
          "name": "F#7",
          "ticks": 26570,
          "time": 110.70833333333333,
          "velocity": 0.33070866141732286
        },
        {
          "duration": 0.04166666666665719,
          "durationTicks": 10,
          "midi": 45,
          "name": "A2",
          "ticks": 26961,
          "time": 112.3375,
          "velocity": 0.25196850393700787
        },
        {
          "duration": 0.05833333333333712,
          "durationTicks": 14,
          "midi": 57,
          "name": "A3",
          "ticks": 27045,
          "time": 112.6875,
          "velocity": 0.09448818897637795
        },
        {
          "duration": 0.14166666666666572,
          "durationTicks": 34,
          "midi": 98,
          "name": "D7",
          "ticks": 27076,
          "time": 112.81666666666666,
          "velocity": 0.3543307086614173
        },
        {
          "duration": 0.07916666666666572,
          "durationTicks": 19,
          "midi": 67,
          "name": "G4",
          "ticks": 27369,
          "time": 114.0375,
          "velocity": 0.11023622047244094
        },
        {
          "duration": 0.1666666666666714,
          "durationTicks": 40,
          "midi": 83,
          "name": "B5",
          "ticks": 27463,
          "time": 114.42916666666666,
          "velocity": 0.1732283464566929
        },
        {
          "duration": 0.17083333333333428,
          "durationTicks": 41,
          "midi": 98,
          "name": "D7",
          "ticks": 27597,
          "time": 114.9875,
          "velocity": 0.3464566929133858
        },
        {
          "duration": 0.07916666666666572,
          "durationTicks": 19,
          "midi": 102,
          "name": "F#7",
          "ticks": 27616,
          "time": 115.06666666666666,
          "velocity": 0.28346456692913385
        },
        {
          "duration": 0.05833333333332291,
          "durationTicks": 14,
          "midi": 59,
          "name": "B3",
          "ticks": 27722,
          "time": 115.50833333333334,
          "velocity": 0.14173228346456693
        },
        {
          "duration": 0.11666666666667425,
          "durationTicks": 28,
          "midi": 72,
          "name": "C5",
          "ticks": 27859,
          "time": 116.07916666666667,
          "velocity": 0.4645669291338583
        },
        {
          "duration": 0.07916666666666572,
          "durationTicks": 19,
          "midi": 64,
          "name": "E4",
          "ticks": 27892,
          "time": 116.21666666666667,
          "velocity": 0.12598425196850394
        },
        {
          "duration": 0.037499999999994316,
          "durationTicks": 9,
          "midi": 39,
          "name": "D#2",
          "ticks": 27955,
          "time": 116.47916666666667,
          "velocity": 0.09448818897637795
        },
        {
          "duration": 0.11249999999999716,
          "durationTicks": 27,
          "midi": 95,
          "name": "B6",
          "ticks": 27976,
          "time": 116.56666666666666,
          "velocity": 0.15748031496062992
        },
        {
          "duration": 0.25,
          "durationTicks": 60,
          "midi": 57,
          "name": "A3",
          "ticks": 28096,
          "time": 117.06666666666666,
          "velocity": 0.07874015748031496
        },
        {
          "duration": 0.041666666666671404,
          "durationTicks": 10,
          "midi": 103,
          "name": "G7",
          "ticks": 28257,
          "time": 117.7375,
          "velocity": 0.13385826771653545
        },
        {
          "duration": 0.10000000000000853,
          "durationTicks": 24,
          "midi": 102,
          "name": "F#7",
          "ticks": 28403,
          "time": 118.34583333333333,
          "velocity": 0.3228346456692913
        },
        {
          "duration": 0.07083333333332575,
          "durationTicks": 17,
          "midi": 64,
          "name": "E4",
          "ticks": 28420,
          "time": 118.41666666666667,
          "velocity": 0.14960629921259844
        },
        {
          "duration": 0.05833333333333712,
          "durationTicks": 14,
          "midi": 83,
          "name": "B5",
          "ticks": 28533,
          "time": 118.8875,
          "velocity": 0.08661417322834646
        },
        {
          "duration": 0.12083333333333712,
          "durationTicks": 29,
          "midi": 60,
          "name": "C4",
          "ticks": 28538,
          "time": 118.90833333333333,
          "velocity": 0.1968503937007874
        },
        {
          "duration": 0.14166666666666572,
          "durationTicks": 34,
          "midi": 98,
          "name": "D7",
          "ticks": 28643,
          "time": 119.34583333333333,
          "velocity": 0.3228346456692913
        },
        {
          "duration": 0.09166666666666856,
          "durationTicks": 22,
          "midi": 31,
          "name": "G1",
          "ticks": 29044,
          "time": 121.01666666666667,
          "velocity": 0.28346456692913385
        },
        {
          "duration": 0.12083333333333712,
          "durationTicks": 29,
          "midi": 98,
          "name": "D7",
          "ticks": 29171,
          "time": 121.54583333333333,
          "velocity": 0.33858267716535434
        },
        {
          "duration": 0.05000000000001137,
          "durationTicks": 12,
          "midi": 100,
          "name": "E7",
          "ticks": 29210,
          "time": 121.70833333333333,
          "velocity": 0.1889763779527559
        },
        {
          "duration": 0.06666666666666288,
          "durationTicks": 16,
          "midi": 67,
          "name": "G4",
          "ticks": 29467,
          "time": 122.77916666666667,
          "velocity": 0.11811023622047244
        },
        {
          "duration": 0.16249999999999432,
          "durationTicks": 39,
          "midi": 83,
          "name": "B5",
          "ticks": 29560,
          "time": 123.16666666666667,
          "velocity": 0.1889763779527559
        },
        {
          "duration": 0.23750000000001137,
          "durationTicks": 57,
          "midi": 31,
          "name": "G1",
          "ticks": 29690,
          "time": 123.70833333333333,
          "velocity": 0.36220472440944884
        },
        {
          "duration": 0.25833333333332575,
          "durationTicks": 62,
          "midi": 59,
          "name": "B3",
          "ticks": 29815,
          "time": 124.22916666666667,
          "velocity": 0.09448818897637795
        },
        {
          "duration": 0.12083333333332291,
          "durationTicks": 29,
          "midi": 72,
          "name": "C5",
          "ticks": 29954,
          "time": 124.80833333333334,
          "velocity": 0.47244094488188976
        },
        {
          "duration": 0.0625,
          "durationTicks": 15,
          "midi": 81,
          "name": "A5",
          "ticks": 30083,
          "time": 125.34583333333333,
          "velocity": 0.2992125984251969
        },
        {
          "duration": 0.07083333333333997,
          "durationTicks": 17,
          "midi": 93,
          "name": "A6",
          "ticks": 30098,
          "time": 125.40833333333333,
          "velocity": 0.23622047244094488
        },
        {
          "duration": 0.27916666666666856,
          "durationTicks": 67,
          "midi": 31,
          "name": "G1",
          "ticks": 30208,
          "time": 125.86666666666666,
          "velocity": 0.4251968503937008
        },
        {
          "duration": 0.04999999999999716,
          "durationTicks": 12,
          "midi": 81,
          "name": "A5",
          "ticks": 30247,
          "time": 126.02916666666667,
          "velocity": 0.28346456692913385
        },
        {
          "duration": 0.05833333333332291,
          "durationTicks": 14,
          "midi": 93,
          "name": "A6",
          "ticks": 30261,
          "time": 126.0875,
          "velocity": 0.36220472440944884
        },
        {
          "duration": 0.09166666666666856,
          "durationTicks": 22,
          "midi": 71,
          "name": "B4",
          "ticks": 30352,
          "time": 126.46666666666667,
          "velocity": 0.07874015748031496
        },
        {
          "duration": 0.15833333333333144,
          "durationTicks": 38,
          "midi": 60,
          "name": "C4",
          "ticks": 30417,
          "time": 126.7375,
          "velocity": 0.14173228346456693
        },
        {
          "duration": 0.07916666666666572,
          "durationTicks": 19,
          "midi": 83,
          "name": "B5",
          "ticks": 30477,
          "time": 126.9875,
          "velocity": 0.25984251968503935
        },
        {
          "duration": 0.05000000000001137,
          "durationTicks": 12,
          "midi": 97,
          "name": "C#7",
          "ticks": 30508,
          "time": 127.11666666666666,
          "velocity": 0.1732283464566929
        },
        {
          "duration": 0.07083333333332575,
          "durationTicks": 17,
          "midi": 95,
          "name": "B6",
          "ticks": 30520,
          "time": 127.16666666666667,
          "velocity": 0.2677165354330709
        },
        {
          "duration": 0.14166666666666572,
          "durationTicks": 34,
          "midi": 76,
          "name": "E5",
          "ticks": 30537,
          "time": 127.2375,
          "velocity": 0.1889763779527559
        },
        {
          "duration": 0.09166666666666856,
          "durationTicks": 22,
          "midi": 83,
          "name": "B5",
          "ticks": 30585,
          "time": 127.4375,
          "velocity": 0.11811023622047244
        },
        {
          "duration": 0.07083333333333997,
          "durationTicks": 17,
          "midi": 86,
          "name": "D6",
          "ticks": 30609,
          "time": 127.5375,
          "velocity": 0.25196850393700787
        },
        {
          "duration": 0.10000000000000853,
          "durationTicks": 24,
          "midi": 97,
          "name": "C#7",
          "ticks": 30635,
          "time": 127.64583333333333,
          "velocity": 0.13385826771653545
        },
        {
          "duration": 0.20833333333331439,
          "durationTicks": 50,
          "midi": 93,
          "name": "A6",
          "ticks": 30741,
          "time": 128.0875,
          "velocity": 0.1732283464566929
        },
        {
          "duration": 0.25,
          "durationTicks": 60,
          "midi": 76,
          "name": "E5",
          "ticks": 30830,
          "time": 128.45833333333334,
          "velocity": 0.2755905511811024
        },
        {
          "duration": 0.11250000000001137,
          "durationTicks": 27,
          "midi": 64,
          "name": "E4",
          "ticks": 30832,
          "time": 128.46666666666667,
          "velocity": 0.1732283464566929
        },
        {
          "duration": 0.2708333333333428,
          "durationTicks": 65,
          "midi": 60,
          "name": "C4",
          "ticks": 30940,
          "time": 128.91666666666666,
          "velocity": 0.08661417322834646
        },
        {
          "duration": 0.04166666666665719,
          "durationTicks": 10,
          "midi": 52,
          "name": "E3",
          "ticks": 31048,
          "time": 129.36666666666667,
          "velocity": 0.3700787401574803
        },
        {
          "duration": 0.09999999999999432,
          "durationTicks": 24,
          "midi": 76,
          "name": "E5",
          "ticks": 31130,
          "time": 129.70833333333334,
          "velocity": 0.2283464566929134
        },
        {
          "duration": 0.3583333333333485,
          "durationTicks": 86,
          "midi": 64,
          "name": "E4",
          "ticks": 31231,
          "time": 130.12916666666666,
          "velocity": 0.25196850393700787
        },
        {
          "duration": 0.25833333333332575,
          "durationTicks": 62,
          "midi": 64,
          "name": "E4",
          "ticks": 31387,
          "time": 130.77916666666667,
          "velocity": 0.15748031496062992
        },
        {
          "duration": 0.2916666666666572,
          "durationTicks": 70,
          "midi": 31,
          "name": "G1",
          "ticks": 31516,
          "time": 131.31666666666666,
          "velocity": 0.4330708661417323
        },
        {
          "duration": 0.07083333333332575,
          "durationTicks": 17,
          "midi": 55,
          "name": "G3",
          "ticks": 31665,
          "time": 131.9375,
          "velocity": 0.3228346456692913
        },
        {
          "duration": 0.28333333333333144,
          "durationTicks": 68,
          "midi": 31,
          "name": "G1",
          "ticks": 31775,
          "time": 132.39583333333334,
          "velocity": 0.4015748031496063
        },
        {
          "duration": 0.25833333333332575,
          "durationTicks": 62,
          "midi": 55,
          "name": "G3",
          "ticks": 31778,
          "time": 132.40833333333333,
          "velocity": 0.25196850393700787
        },
        {
          "duration": 0.34166666666666856,
          "durationTicks": 82,
          "midi": 62,
          "name": "D4",
          "ticks": 31888,
          "time": 132.86666666666667,
          "velocity": 0.18110236220472442
        },
        {
          "duration": 0.07083333333332575,
          "durationTicks": 17,
          "midi": 86,
          "name": "D6",
          "ticks": 31955,
          "time": 133.14583333333334,
          "velocity": 0.18110236220472442
        },
        {
          "duration": 0.25,
          "durationTicks": 60,
          "midi": 81,
          "name": "A5",
          "ticks": 32011,
          "time": 133.37916666666666,
          "velocity": 0.25196850393700787
        },
        {
          "duration": 0.05833333333333712,
          "durationTicks": 14,
          "midi": 64,
          "name": "E4",
          "ticks": 32090,
          "time": 133.70833333333334,
          "velocity": 0.29133858267716534
        },
        {
          "duration": 0.07916666666665151,
          "durationTicks": 19,
          "midi": 79,
          "name": "G5",
          "ticks": 32174,
          "time": 134.05833333333334,
          "velocity": 0.25196850393700787
        },
        {
          "duration": 0.36249999999998295,
          "durationTicks": 87,
          "midi": 57,
          "name": "A3",
          "ticks": 32279,
          "time": 134.49583333333334,
          "velocity": 0.23622047244094488
        },
        {
          "duration": 0.07916666666665151,
          "durationTicks": 19,
          "midi": 64,
          "name": "E4",
          "ticks": 32347,
          "time": 134.77916666666667,
          "velocity": 0.16535433070866143
        },
        {
          "duration": 0.037499999999994316,
          "durationTicks": 9,
          "midi": 91,
          "name": "G6",
          "ticks": 32354,
          "time": 134.80833333333334,
          "velocity": 0.11811023622047244
        },
        {
          "duration": 0.2916666666666572,
          "durationTicks": 70,
          "midi": 57,
          "name": "A3",
          "ticks": 32421,
          "time": 135.0875,
          "velocity": 0.16535433070866143
        },
        {
          "duration": 0.35833333333332007,
          "durationTicks": 86,
          "midi": 64,
          "name": "E4",
          "ticks": 32510,
          "time": 135.45833333333334,
          "velocity": 0.13385826771653545
        },
        {
          "duration": 0.17916666666667425,
          "durationTicks": 43,
          "midi": 60,
          "name": "C4",
          "ticks": 32575,
          "time": 135.72916666666666,
          "velocity": 0.15748031496062992
        },
        {
          "duration": 0.0583333333333087,
          "durationTicks": 14,
          "midi": 88,
          "name": "E6",
          "ticks": 32697,
          "time": 136.2375,
          "velocity": 0.2047244094488189
        },
        {
          "duration": 0.12916666666666288,
          "durationTicks": 31,
          "midi": 72,
          "name": "C5",
          "ticks": 32702,
          "time": 136.25833333333333,
          "velocity": 0.2440944881889764
        },
        {
          "duration": 0.13750000000001705,
          "durationTicks": 33,
          "midi": 86,
          "name": "D6",
          "ticks": 32731,
          "time": 136.37916666666666,
          "velocity": 0.25196850393700787
        },
        {
          "duration": 0.3333333333333428,
          "durationTicks": 80,
          "midi": 62,
          "name": "D4",
          "ticks": 32807,
          "time": 136.69583333333333,
          "velocity": 0.13385826771653545
        },
        {
          "duration": 0.14999999999997726,
          "durationTicks": 36,
          "midi": 55,
          "name": "G3",
          "ticks": 32839,
          "time": 136.82916666666668,
          "velocity": 0.08661417322834646
        },
        {
          "duration": 0.2916666666666856,
          "durationTicks": 70,
          "midi": 74,
          "name": "D5",
          "ticks": 32927,
          "time": 137.19583333333333,
          "velocity": 0.2125984251968504
        },
        {
          "duration": 0.10833333333334849,
          "durationTicks": 26,
          "midi": 86,
          "name": "D6",
          "ticks": 33091,
          "time": 137.87916666666666,
          "velocity": 0.14173228346456693
        },
        {
          "duration": 0.05000000000001137,
          "durationTicks": 12,
          "midi": 34,
          "name": "A#1",
          "ticks": 33127,
          "time": 138.02916666666667,
          "velocity": 0.25196850393700787
        },
        {
          "duration": 0.35833333333332007,
          "durationTicks": 86,
          "midi": 69,
          "name": "A4",
          "ticks": 33194,
          "time": 138.30833333333334,
          "velocity": 0.2755905511811024
        },
        {
          "duration": 0.09999999999999432,
          "durationTicks": 24,
          "midi": 31,
          "name": "G1",
          "ticks": 33343,
          "time": 138.92916666666667,
          "velocity": 0.2992125984251969
        },
        {
          "duration": 0.22083333333333144,
          "durationTicks": 53,
          "midi": 64,
          "name": "E4",
          "ticks": 33359,
          "time": 138.99583333333334,
          "velocity": 0.23622047244094488
        },
        {
          "duration": 0.05000000000001137,
          "durationTicks": 12,
          "midi": 88,
          "name": "E6",
          "ticks": 33453,
          "time": 139.3875,
          "velocity": 0.08661417322834646
        },
        {
          "duration": 0.10833333333332007,
          "durationTicks": 26,
          "midi": 76,
          "name": "E5",
          "ticks": 33621,
          "time": 140.0875,
          "velocity": 0.2440944881889764
        },
        {
          "duration": 0.04166666666665719,
          "durationTicks": 10,
          "midi": 55,
          "name": "G3",
          "ticks": 33635,
          "time": 140.14583333333334,
          "velocity": 0.2283464566929134
        },
        {
          "duration": 0.08333333333334281,
          "durationTicks": 20,
          "midi": 55,
          "name": "G3",
          "ticks": 33659,
          "time": 140.24583333333334,
          "velocity": 0.3858267716535433
        },
        {
          "duration": 0.05000000000001137,
          "durationTicks": 12,
          "midi": 62,
          "name": "D4",
          "ticks": 33751,
          "time": 140.62916666666666,
          "velocity": 0.2440944881889764
        },
        {
          "duration": 0.17916666666667425,
          "durationTicks": 43,
          "midi": 55,
          "name": "G3",
          "ticks": 33892,
          "time": 141.21666666666667,
          "velocity": 0.2755905511811024
        },
        {
          "duration": 0.06666666666666288,
          "durationTicks": 16,
          "midi": 76,
          "name": "E5",
          "ticks": 33919,
          "time": 141.32916666666668,
          "velocity": 0.2125984251968504
        },
        {
          "duration": 0.09166666666666856,
          "durationTicks": 22,
          "midi": 62,
          "name": "D4",
          "ticks": 34043,
          "time": 141.84583333333333,
          "velocity": 0.13385826771653545
        },
        {
          "duration": 0.07916666666667993,
          "durationTicks": 19,
          "midi": 57,
          "name": "A3",
          "ticks": 34178,
          "time": 142.40833333333333,
          "velocity": 0.31496062992125984
        },
        {
          "duration": 0.2291666666666572,
          "durationTicks": 55,
          "midi": 57,
          "name": "A3",
          "ticks": 34274,
          "time": 142.80833333333334,
          "velocity": 0.2204724409448819
        },
        {
          "duration": 0.09999999999999432,
          "durationTicks": 24,
          "midi": 71,
          "name": "B4",
          "ticks": 34384,
          "time": 143.26666666666668,
          "velocity": 0.1968503937007874
        },
        {
          "duration": 0.2666666666666515,
          "durationTicks": 64,
          "midi": 31,
          "name": "G1",
          "ticks": 34399,
          "time": 143.32916666666668,
          "velocity": 0.3858267716535433
        },
        {
          "duration": 0.17083333333332007,
          "durationTicks": 41,
          "midi": 79,
          "name": "G5",
          "ticks": 34552,
          "time": 143.96666666666667,
          "velocity": 0.25984251968503935
        },
        {
          "duration": 0.037499999999994316,
          "durationTicks": 9,
          "midi": 69,
          "name": "A4",
          "ticks": 34802,
          "time": 145.00833333333333,
          "velocity": 0.14960629921259844
        },
        {
          "duration": 0.2083333333333428,
          "durationTicks": 50,
          "midi": 60,
          "name": "C4",
          "ticks": 34802,
          "time": 145.00833333333333,
          "velocity": 0.16535433070866143
        },
        {
          "duration": 0.13750000000001705,
          "durationTicks": 33,
          "midi": 83,
          "name": "B5",
          "ticks": 34891,
          "time": 145.37916666666666,
          "velocity": 0.30708661417322836
        },
        {
          "duration": 0.1416666666666515,
          "durationTicks": 34,
          "midi": 72,
          "name": "C5",
          "ticks": 34948,
          "time": 145.61666666666667,
          "velocity": 0.09448818897637795
        },
        {
          "duration": 0.11250000000001137,
          "durationTicks": 27,
          "midi": 60,
          "name": "C4",
          "ticks": 35020,
          "time": 145.91666666666666,
          "velocity": 0.1968503937007874
        },
        {
          "duration": 0.14166666666667993,
          "durationTicks": 34,
          "midi": 89,
          "name": "F6",
          "ticks": 35656,
          "time": 148.56666666666666,
          "velocity": 0.2440944881889764
        },
        {
          "duration": 0.3083333333333371,
          "durationTicks": 74,
          "midi": 50,
          "name": "D3",
          "ticks": 35925,
          "time": 149.6875,
          "velocity": 0.4094488188976378
        },
        {
          "duration": 0.07083333333335418,
          "durationTicks": 17,
          "midi": 74,
          "name": "D5",
          "ticks": 35966,
          "time": 149.85833333333332,
          "velocity": 0.3543307086614173
        },
        {
          "duration": 0.10000000000002274,
          "durationTicks": 24,
          "midi": 50,
          "name": "D3",
          "ticks": 36011,
          "time": 150.04583333333332,
          "velocity": 0.1732283464566929
        },
        {
          "duration": 0.04166666666665719,
          "durationTicks": 10,
          "midi": 55,
          "name": "G3",
          "ticks": 36376,
          "time": 151.56666666666666,
          "velocity": 0.25984251968503935
        },
        {
          "duration": 0.08750000000000568,
          "durationTicks": 21,
          "midi": 79,
          "name": "G5",
          "ticks": 36434,
          "time": 151.80833333333334,
          "velocity": 0.2047244094488189
        },
        {
          "duration": 0.10000000000002274,
          "durationTicks": 24,
          "midi": 55,
          "name": "G3",
          "ticks": 36573,
          "time": 152.3875,
          "velocity": 0.3228346456692913
        },
        {
          "duration": 0.04166666666665719,
          "durationTicks": 10,
          "midi": 100,
          "name": "E7",
          "ticks": 36628,
          "time": 152.61666666666667,
          "velocity": 0.2755905511811024
        },
        {
          "duration": 0.06666666666666288,
          "durationTicks": 16,
          "midi": 96,
          "name": "C7",
          "ticks": 36631,
          "time": 152.62916666666666,
          "velocity": 0.2992125984251969
        },
        {
          "duration": 0.1875,
          "durationTicks": 45,
          "midi": 43,
          "name": "G2",
          "ticks": 36974,
          "time": 154.05833333333334,
          "velocity": 0.33858267716535434
        },
        {
          "duration": 0.06666666666666288,
          "durationTicks": 16,
          "midi": 55,
          "name": "G3",
          "ticks": 37003,
          "time": 154.17916666666667,
          "velocity": 0.1732283464566929
        },
        {
          "duration": 0.1708333333333485,
          "durationTicks": 41,
          "midi": 83,
          "name": "B5",
          "ticks": 37091,
          "time": 154.54583333333332,
          "velocity": 0.33070866141732286
        },
        {
          "duration": 0.549999999999983,
          "durationTicks": 132,
          "midi": 64,
          "name": "E4",
          "ticks": 37221,
          "time": 155.0875,
          "velocity": 0.41732283464566927
        },
        {
          "duration": 0.3083333333333371,
          "durationTicks": 74,
          "midi": 36,
          "name": "C2",
          "ticks": 37346,
          "time": 155.60833333333332,
          "velocity": 0.25984251968503935
        },
        {
          "duration": 0.1875,
          "durationTicks": 45,
          "midi": 64,
          "name": "E4",
          "ticks": 37423,
          "time": 155.92916666666667,
          "velocity": 0.25196850393700787
        },
        {
          "duration": 0.18333333333333712,
          "durationTicks": 44,
          "midi": 86,
          "name": "D6",
          "ticks": 37511,
          "time": 156.29583333333332,
          "velocity": 0.25984251968503935
        },
        {
          "duration": 0.04999999999998295,
          "durationTicks": 12,
          "midi": 36,
          "name": "C2",
          "ticks": 37579,
          "time": 156.57916666666668,
          "velocity": 0.2047244094488189
        },
        {
          "duration": 0.20000000000001705,
          "durationTicks": 48,
          "midi": 62,
          "name": "D4",
          "ticks": 37622,
          "time": 156.75833333333333,
          "velocity": 0.33858267716535434
        },
        {
          "duration": 0.09166666666666856,
          "durationTicks": 22,
          "midi": 74,
          "name": "D5",
          "ticks": 37660,
          "time": 156.91666666666666,
          "velocity": 0.2677165354330709
        },
        {
          "duration": 0.08750000000000568,
          "durationTicks": 21,
          "midi": 83,
          "name": "B5",
          "ticks": 37682,
          "time": 157.00833333333333,
          "velocity": 0.2440944881889764
        },
        {
          "duration": 0.0583333333333087,
          "durationTicks": 14,
          "midi": 93,
          "name": "A6",
          "ticks": 37737,
          "time": 157.2375,
          "velocity": 0.33070866141732286
        },
        {
          "duration": 0.05000000000001137,
          "durationTicks": 12,
          "midi": 64,
          "name": "E4",
          "ticks": 37756,
          "time": 157.31666666666666,
          "velocity": 0.3228346456692913
        },
        {
          "duration": 0.10833333333334849,
          "durationTicks": 26,
          "midi": 64,
          "name": "E4",
          "ticks": 37773,
          "time": 157.3875,
          "velocity": 0.31496062992125984
        },
        {
          "duration": 0.07083333333332575,
          "durationTicks": 17,
          "midi": 93,
          "name": "A6",
          "ticks": 38008,
          "time": 158.36666666666667,
          "velocity": 0.23622047244094488
        },
        {
          "duration": 0.10833333333332007,
          "durationTicks": 26,
          "midi": 87,
          "name": "D#6",
          "ticks": 38025,
          "time": 158.4375,
          "velocity": 0.2125984251968504
        },
        {
          "duration": 0.09999999999999432,
          "durationTicks": 24,
          "midi": 67,
          "name": "G4",
          "ticks": 38102,
          "time": 158.75833333333333,
          "velocity": 0.10236220472440945
        },
        {
          "duration": 0.1708333333333485,
          "durationTicks": 41,
          "midi": 55,
          "name": "G3",
          "ticks": 38282,
          "time": 159.50833333333333,
          "velocity": 0.3228346456692913
        },
        {
          "duration": 0.13333333333332575,
          "durationTicks": 32,
          "midi": 64,
          "name": "E4",
          "ticks": 38303,
          "time": 159.59583333333333,
          "velocity": 0.2755905511811024
        },
        {
          "duration": 0.12083333333333712,
          "durationTicks": 29,
          "midi": 45,
          "name": "A2",
          "ticks": 38332,
          "time": 159.71666666666667,
          "velocity": 0.2440944881889764
        },
        {
          "duration": 0.10833333333334849,
          "durationTicks": 26,
          "midi": 55,
          "name": "G3",
          "ticks": 38373,
          "time": 159.8875,
          "velocity": 0.2125984251968504
        },
        {
          "duration": 0.07916666666665151,
          "durationTicks": 19,
          "midi": 64,
          "name": "E4",
          "ticks": 38464,
          "time": 160.26666666666668,
          "velocity": 0.2125984251968504
        },
        {
          "duration": 0.0625,
          "durationTicks": 15,
          "midi": 55,
          "name": "G3",
          "ticks": 38752,
          "time": 161.46666666666667,
          "velocity": 0.11023622047244094
        },
        {
          "duration": 0.04166666666665719,
          "durationTicks": 10,
          "midi": 57,
          "name": "A3",
          "ticks": 38968,
          "time": 162.36666666666667,
          "velocity": 0.07874015748031496
        },
        {
          "duration": 0.14166666666667993,
          "durationTicks": 34,
          "midi": 40,
          "name": "E2",
          "ticks": 39071,
          "time": 162.79583333333332,
          "velocity": 0.2283464566929134
        },
        {
          "duration": 0.05833333333333712,
          "durationTicks": 14,
          "midi": 64,
          "name": "E4",
          "ticks": 39127,
          "time": 163.02916666666667,
          "velocity": 0.18110236220472442
        },
        {
          "duration": 0.09166666666666856,
          "durationTicks": 22,
          "midi": 62,
          "name": "D4",
          "ticks": 39148,
          "time": 163.11666666666667,
          "velocity": 0.3464566929133858
        },
        {
          "duration": 0.08750000000000568,
          "durationTicks": 21,
          "midi": 81,
          "name": "A5",
          "ticks": 39254,
          "time": 163.55833333333334,
          "velocity": 0.3228346456692913
        },
        {
          "duration": 0.0583333333333087,
          "durationTicks": 14,
          "midi": 102,
          "name": "F#7",
          "ticks": 39297,
          "time": 163.7375,
          "velocity": 0.1732283464566929
        },
        {
          "duration": 0.24166666666667425,
          "durationTicks": 58,
          "midi": 52,
          "name": "E3",
          "ticks": 39323,
          "time": 163.84583333333333,
          "velocity": 0.3700787401574803
        },
        {
          "duration": 0.4166666666666856,
          "durationTicks": 100,
          "midi": 83,
          "name": "B5",
          "ticks": 39415,
          "time": 164.22916666666666,
          "velocity": 0.25196850393700787
        },
        {
          "duration": 0.04166666666665719,
          "durationTicks": 10,
          "midi": 64,
          "name": "E4",
          "ticks": 39455,
          "time": 164.39583333333334,
          "velocity": 0.1968503937007874
        },
        {
          "duration": 0.38750000000001705,
          "durationTicks": 93,
          "midi": 76,
          "name": "E5",
          "ticks": 39535,
          "time": 164.72916666666666,
          "velocity": 0.33070866141732286
        },
        {
          "duration": 0.09166666666666856,
          "durationTicks": 22,
          "midi": 64,
          "name": "E4",
          "ticks": 39609,
          "time": 165.0375,
          "velocity": 0.2440944881889764
        },
        {
          "duration": 0.09999999999999432,
          "durationTicks": 24,
          "midi": 64,
          "name": "E4",
          "ticks": 39974,
          "time": 166.55833333333334,
          "velocity": 0.33070866141732286
        },
        {
          "duration": 0.03750000000002274,
          "durationTicks": 9,
          "midi": 60,
          "name": "C4",
          "ticks": 40075,
          "time": 166.97916666666666,
          "velocity": 0.25984251968503935
        },
        {
          "duration": 0.13750000000001705,
          "durationTicks": 33,
          "midi": 79,
          "name": "G5",
          "ticks": 40106,
          "time": 167.10833333333332,
          "velocity": 0.4015748031496063
        },
        {
          "duration": 0.20000000000001705,
          "durationTicks": 48,
          "midi": 74,
          "name": "D5",
          "ticks": 40111,
          "time": 167.12916666666666,
          "velocity": 0.4645669291338583
        },
        {
          "duration": 0.04999999999998295,
          "durationTicks": 12,
          "midi": 59,
          "name": "B3",
          "ticks": 40204,
          "time": 167.51666666666668,
          "velocity": 0.4094488188976378
        },
        {
          "duration": 0.04166666666665719,
          "durationTicks": 10,
          "midi": 43,
          "name": "G2",
          "ticks": 40216,
          "time": 167.56666666666666,
          "velocity": 0.4015748031496063
        },
        {
          "duration": 0.04999999999998295,
          "durationTicks": 12,
          "midi": 79,
          "name": "G5",
          "ticks": 40235,
          "time": 167.64583333333334,
          "velocity": 0.36220472440944884
        },
        {
          "duration": 0.09999999999999432,
          "durationTicks": 24,
          "midi": 55,
          "name": "G3",
          "ticks": 40295,
          "time": 167.89583333333334,
          "velocity": 0.5511811023622047
        },
        {
          "duration": 0.05000000000001137,
          "durationTicks": 12,
          "midi": 67,
          "name": "G4",
          "ticks": 40331,
          "time": 168.04583333333332,
          "velocity": 0.28346456692913385
        },
        {
          "duration": 0.07083333333332575,
          "durationTicks": 17,
          "midi": 55,
          "name": "G3",
          "ticks": 40336,
          "time": 168.06666666666666,
          "velocity": 0.3700787401574803
        },
        {
          "duration": 0.20000000000001705,
          "durationTicks": 48,
          "midi": 60,
          "name": "C4",
          "ticks": 40435,
          "time": 168.47916666666666,
          "velocity": 0.3937007874015748
        },
        {
          "duration": 0.04166666666665719,
          "durationTicks": 10,
          "midi": 34,
          "name": "A#1",
          "ticks": 40463,
          "time": 168.59583333333333,
          "velocity": 0.3779527559055118
        },
        {
          "duration": 0.09999999999999432,
          "durationTicks": 24,
          "midi": 31,
          "name": "G1",
          "ticks": 40564,
          "time": 169.01666666666668,
          "velocity": 0.30708661417322836
        },
        {
          "duration": 0.09999999999999432,
          "durationTicks": 24,
          "midi": 62,
          "name": "D4",
          "ticks": 40588,
          "time": 169.11666666666667,
          "velocity": 0.2047244094488189
        },
        {
          "duration": 0.09999999999999432,
          "durationTicks": 24,
          "midi": 31,
          "name": "G1",
          "ticks": 40694,
          "time": 169.55833333333334,
          "velocity": 0.3228346456692913
        },
        {
          "duration": 0.14166666666667993,
          "durationTicks": 34,
          "midi": 64,
          "name": "E4",
          "ticks": 40823,
          "time": 170.09583333333333,
          "velocity": 0.3700787401574803
        },
        {
          "duration": 0.041666666666685614,
          "durationTicks": 10,
          "midi": 31,
          "name": "G1",
          "ticks": 40840,
          "time": 170.16666666666666,
          "velocity": 0.2440944881889764
        },
        {
          "duration": 0.09999999999999432,
          "durationTicks": 24,
          "midi": 64,
          "name": "E4",
          "ticks": 40907,
          "time": 170.44583333333333,
          "velocity": 0.30708661417322836
        },
        {
          "duration": 0.13750000000001705,
          "durationTicks": 33,
          "midi": 85,
          "name": "C#6",
          "ticks": 41071,
          "time": 171.12916666666666,
          "velocity": 0.3937007874015748
        },
        {
          "duration": 0.09999999999999432,
          "durationTicks": 24,
          "midi": 65,
          "name": "F4",
          "ticks": 41152,
          "time": 171.46666666666667,
          "velocity": 0.33070866141732286
        },
        {
          "duration": 0.041666666666685614,
          "durationTicks": 10,
          "midi": 95,
          "name": "B6",
          "ticks": 41169,
          "time": 171.5375,
          "velocity": 0.16535433070866143
        },
        {
          "duration": 0.15000000000000568,
          "durationTicks": 36,
          "midi": 53,
          "name": "F3",
          "ticks": 41234,
          "time": 171.80833333333334,
          "velocity": 0.4409448818897638
        },
        {
          "duration": 0.03750000000002274,
          "durationTicks": 9,
          "midi": 62,
          "name": "D4",
          "ticks": 41246,
          "time": 171.85833333333332,
          "velocity": 0.4015748031496063
        },
        {
          "duration": 0.1208333333333087,
          "durationTicks": 29,
          "midi": 87,
          "name": "D#6",
          "ticks": 41284,
          "time": 172.01666666666668,
          "velocity": 0.25196850393700787
        },
        {
          "duration": 0.09166666666666856,
          "durationTicks": 22,
          "midi": 62,
          "name": "D4",
          "ticks": 41373,
          "time": 172.3875,
          "velocity": 0.3228346456692913
        },
        {
          "duration": 0.05000000000001137,
          "durationTicks": 12,
          "midi": 76,
          "name": "E5",
          "ticks": 41402,
          "time": 172.50833333333333,
          "velocity": 0.4015748031496063
        },
        {
          "duration": 0.13749999999998863,
          "durationTicks": 33,
          "midi": 88,
          "name": "E6",
          "ticks": 41467,
          "time": 172.77916666666667,
          "velocity": 0.3858267716535433
        },
        {
          "duration": 0.09999999999999432,
          "durationTicks": 24,
          "midi": 84,
          "name": "C6",
          "ticks": 41534,
          "time": 173.05833333333334,
          "velocity": 0.36220472440944884
        },
        {
          "duration": 0.14166666666667993,
          "durationTicks": 34,
          "midi": 67,
          "name": "G4",
          "ticks": 41543,
          "time": 173.09583333333333,
          "velocity": 0.30708661417322836
        },
        {
          "duration": 0.05000000000001137,
          "durationTicks": 12,
          "midi": 67,
          "name": "G4",
          "ticks": 41596,
          "time": 173.31666666666666,
          "velocity": 0.2204724409448819
        },
        {
          "duration": 0.12916666666666288,
          "durationTicks": 31,
          "midi": 57,
          "name": "A3",
          "ticks": 41812,
          "time": 174.21666666666667,
          "velocity": 0.11811023622047244
        },
        {
          "duration": 0.44999999999998863,
          "durationTicks": 108,
          "midi": 42,
          "name": "F#2",
          "ticks": 41819,
          "time": 174.24583333333334,
          "velocity": 0.4094488188976378
        },
        {
          "duration": 0.05000000000001137,
          "durationTicks": 12,
          "midi": 83,
          "name": "B5",
          "ticks": 41942,
          "time": 174.75833333333333,
          "velocity": 0.3228346456692913
        },
        {
          "duration": 0.09166666666666856,
          "durationTicks": 22,
          "midi": 53,
          "name": "F3",
          "ticks": 42141,
          "time": 175.5875,
          "velocity": 0.31496062992125984
        },
        {
          "duration": 0.0625,
          "durationTicks": 15,
          "midi": 93,
          "name": "A6",
          "ticks": 42203,
          "time": 175.84583333333333,
          "velocity": 0.31496062992125984
        },
        {
          "duration": 0.08750000000000568,
          "durationTicks": 21,
          "midi": 58,
          "name": "A#3",
          "ticks": 42398,
          "time": 176.65833333333333,
          "velocity": 0.18110236220472442
        },
        {
          "duration": 0.07916666666667993,
          "durationTicks": 19,
          "midi": 64,
          "name": "E4",
          "ticks": 42556,
          "time": 177.31666666666666,
          "velocity": 0.3858267716535433
        },
        {
          "duration": 0.05000000000001137,
          "durationTicks": 12,
          "midi": 94,
          "name": "A#6",
          "ticks": 42645,
          "time": 177.6875,
          "velocity": 0.2677165354330709
        },
        {
          "duration": 0.09166666666666856,
          "durationTicks": 22,
          "midi": 31,
          "name": "G1",
          "ticks": 42657,
          "time": 177.7375,
          "velocity": 0.33070866141732286
        },
        {
          "duration": 0.05000000000001137,
          "durationTicks": 12,
          "midi": 100,
          "name": "E7",
          "ticks": 42712,
          "time": 177.96666666666667,
          "velocity": 0.44881889763779526
        },
        {
          "duration": 0.12083333333333712,
          "durationTicks": 29,
          "midi": 98,
          "name": "D7",
          "ticks": 42734,
          "time": 178.05833333333334,
          "velocity": 0.4251968503937008
        },
        {
          "duration": 0.09166666666666856,
          "durationTicks": 22,
          "midi": 59,
          "name": "B3",
          "ticks": 42772,
          "time": 178.21666666666667,
          "velocity": 0.2204724409448819
        },
        {
          "duration": 0.05000000000001137,
          "durationTicks": 12,
          "midi": 55,
          "name": "G3",
          "ticks": 42796,
          "time": 178.31666666666666,
          "velocity": 0.28346456692913385
        },
        {
          "duration": 0.16249999999999432,
          "durationTicks": 39,
          "midi": 64,
          "name": "E4",
          "ticks": 42923,
          "time": 178.84583333333333,
          "velocity": 0.2125984251968504
        },
        {
          "duration": 0.10833333333332007,
          "durationTicks": 26,
          "midi": 53,
          "name": "F3",
          "ticks": 43183,
          "time": 179.92916666666667,
          "velocity": 0.3858267716535433
        },
        {
          "duration": 0.07916666666665151,
          "durationTicks": 19,
          "midi": 62,
          "name": "D4",
          "ticks": 43250,
          "time": 180.20833333333334,
          "velocity": 0.4645669291338583
        },
        {
          "duration": 0.04166666666665719,
          "durationTicks": 10,
          "midi": 53,
          "name": "F3",
          "ticks": 43319,
          "time": 180.49583333333334,
          "velocity": 0.2283464566929134
        },
        {
          "duration": 0.12083333333333712,
          "durationTicks": 29,
          "midi": 65,
          "name": "F4",
          "ticks": 43439,
          "time": 180.99583333333334,
          "velocity": 0.3858267716535433
        },
        {
          "duration": 0.041666666666685614,
          "durationTicks": 10,
          "midi": 78,
          "name": "F#5",
          "ticks": 43511,
          "time": 181.29583333333332,
          "velocity": 0.36220472440944884
        },
        {
          "duration": 0.17083333333332007,
          "durationTicks": 41,
          "midi": 62,
          "name": "D4",
          "ticks": 43514,
          "time": 181.30833333333334,
          "velocity": 0.36220472440944884
        },
        {
          "duration": 0.041666666666685614,
          "durationTicks": 10,
          "midi": 79,
          "name": "G5",
          "ticks": 43569,
          "time": 181.5375,
          "velocity": 0.2125984251968504
        },
        {
          "duration": 0.2874999999999943,
          "durationTicks": 69,
          "midi": 64,
          "name": "E4",
          "ticks": 43843,
          "time": 182.67916666666667,
          "velocity": 0.6062992125984252
        },
        {
          "duration": 0.2083333333333428,
          "durationTicks": 50,
          "midi": 60,
          "name": "C4",
          "ticks": 43874,
          "time": 182.80833333333334,
          "velocity": 0.4094488188976378
        },
        {
          "duration": 0.03750000000002274,
          "durationTicks": 9,
          "midi": 64,
          "name": "E4",
          "ticks": 43915,
          "time": 182.97916666666666,
          "velocity": 0.2440944881889764
        },
        {
          "duration": 0.07916666666667993,
          "durationTicks": 19,
          "midi": 74,
          "name": "D5",
          "ticks": 43953,
          "time": 183.1375,
          "velocity": 0.4566929133858268
        },
        {
          "duration": 0.05000000000001137,
          "durationTicks": 12,
          "midi": 57,
          "name": "A3",
          "ticks": 44042,
          "time": 183.50833333333333,
          "velocity": 0.47244094488188976
        },
        {
          "duration": 0.09999999999999432,
          "durationTicks": 24,
          "midi": 98,
          "name": "D7",
          "ticks": 44087,
          "time": 183.69583333333333,
          "velocity": 0.4015748031496063
        },
        {
          "duration": 0.19999999999998863,
          "durationTicks": 48,
          "midi": 29,
          "name": "F1",
          "ticks": 44123,
          "time": 183.84583333333333,
          "velocity": 0.5354330708661418
        },
        {
          "duration": 0.041666666666685614,
          "durationTicks": 10,
          "midi": 48,
          "name": "C3",
          "ticks": 44140,
          "time": 183.91666666666666,
          "velocity": 0.4094488188976378
        },
        {
          "duration": 0.12083333333333712,
          "durationTicks": 29,
          "midi": 83,
          "name": "B5",
          "ticks": 44171,
          "time": 184.04583333333332,
          "velocity": 0.5118110236220472
        },
        {
          "duration": 0.08749999999997726,
          "durationTicks": 21,
          "midi": 48,
          "name": "C3",
          "ticks": 44239,
          "time": 184.32916666666668,
          "velocity": 0.3464566929133858
        },
        {
          "duration": 0.4000000000000057,
          "durationTicks": 96,
          "midi": 31,
          "name": "G1",
          "ticks": 44342,
          "time": 184.75833333333333,
          "velocity": 0.5669291338582677
        },
        {
          "duration": 0.04166666666665719,
          "durationTicks": 10,
          "midi": 54,
          "name": "F#3",
          "ticks": 44428,
          "time": 185.11666666666667,
          "velocity": 0.4094488188976378
        },
        {
          "duration": 0.04166666666665719,
          "durationTicks": 10,
          "midi": 90,
          "name": "F#6",
          "ticks": 44457,
          "time": 185.2375,
          "velocity": 0.18110236220472442
        },
        {
          "duration": 0.2874999999999943,
          "durationTicks": 69,
          "midi": 30,
          "name": "F#1",
          "ticks": 44498,
          "time": 185.40833333333333,
          "velocity": 0.47244094488188976
        },
        {
          "duration": 0.07916666666667993,
          "durationTicks": 19,
          "midi": 101,
          "name": "F7",
          "ticks": 44589,
          "time": 185.7875,
          "velocity": 0.5354330708661418
        },
        {
          "duration": 0.23750000000001137,
          "durationTicks": 57,
          "midi": 28,
          "name": "E1",
          "ticks": 44606,
          "time": 185.85833333333332,
          "velocity": 0.4409448818897638
        },
        {
          "duration": 0.0583333333333087,
          "durationTicks": 14,
          "midi": 68,
          "name": "G#4",
          "ticks": 44659,
          "time": 186.07916666666668,
          "velocity": 0.4015748031496063
        },
        {
          "duration": 0.3499999999999943,
          "durationTicks": 84,
          "midi": 67,
          "name": "G4",
          "ticks": 44685,
          "time": 186.1875,
          "velocity": 0.5354330708661418
        },
        {
          "duration": 0.04166666666665719,
          "durationTicks": 10,
          "midi": 28,
          "name": "E1",
          "ticks": 44697,
          "time": 186.2375,
          "velocity": 0.5354330708661418
        },
        {
          "duration": 0.04166666666665719,
          "durationTicks": 10,
          "midi": 79,
          "name": "G5",
          "ticks": 44745,
          "time": 186.4375,
          "velocity": 0.4251968503937008
        },
        {
          "duration": 0.05833333333333712,
          "durationTicks": 14,
          "midi": 99,
          "name": "D#7",
          "ticks": 44786,
          "time": 186.60833333333332,
          "velocity": 0.1732283464566929
        },
        {
          "duration": 0.12916666666666288,
          "durationTicks": 31,
          "midi": 91,
          "name": "G6",
          "ticks": 44815,
          "time": 186.72916666666666,
          "velocity": 0.3228346456692913
        },
        {
          "duration": 0.04999999999998295,
          "durationTicks": 12,
          "midi": 52,
          "name": "E3",
          "ticks": 44870,
          "time": 186.95833333333334,
          "velocity": 0.23622047244094488
        },
        {
          "duration": 0.09166666666666856,
          "durationTicks": 22,
          "midi": 60,
          "name": "C4",
          "ticks": 44913,
          "time": 187.1375,
          "velocity": 0.5826771653543307
        },
        {
          "duration": 0.17916666666664582,
          "durationTicks": 43,
          "midi": 64,
          "name": "E4",
          "ticks": 44930,
          "time": 187.20833333333334,
          "velocity": 0.48031496062992124
        },
        {
          "duration": 0.09166666666666856,
          "durationTicks": 22,
          "midi": 62,
          "name": "D4",
          "ticks": 45021,
          "time": 187.5875,
          "velocity": 0.5590551181102362
        },
        {
          "duration": 0.11249999999998295,
          "durationTicks": 27,
          "midi": 64,
          "name": "E4",
          "ticks": 45095,
          "time": 187.89583333333334,
          "velocity": 0.48031496062992124
        },
        {
          "duration": 0.15833333333333144,
          "durationTicks": 38,
          "midi": 50,
          "name": "D3",
          "ticks": 45122,
          "time": 188.00833333333333,
          "velocity": 0.14173228346456693
        },
        {
          "duration": 0.04999999999998295,
          "durationTicks": 12,
          "midi": 97,
          "name": "C#7",
          "ticks": 45184,
          "time": 188.26666666666668,
          "velocity": 0.4094488188976378
        },
        {
          "duration": 0.037499999999994316,
          "durationTicks": 9,
          "midi": 67,
          "name": "G4",
          "ticks": 45283,
          "time": 188.67916666666667,
          "velocity": 0.4566929133858268
        },
        {
          "duration": 0.0625,
          "durationTicks": 15,
          "midi": 65,
          "name": "F4",
          "ticks": 45311,
          "time": 188.79583333333332,
          "velocity": 0.25196850393700787
        },
        {
          "duration": 0.09999999999999432,
          "durationTicks": 24,
          "midi": 67,
          "name": "G4",
          "ticks": 45530,
          "time": 189.70833333333334,
          "velocity": 0.29133858267716534
        },
        {
          "duration": 0.037499999999994316,
          "durationTicks": 9,
          "midi": 32,
          "name": "G#1",
          "ticks": 45590,
          "time": 189.95833333333334,
          "velocity": 0.30708661417322836
        },
        {
          "duration": 0.13749999999998863,
          "durationTicks": 33,
          "midi": 48,
          "name": "C3",
          "ticks": 45619,
          "time": 190.07916666666668,
          "velocity": 0.4409448818897638
        },
        {
          "duration": 0.12083333333333712,
          "durationTicks": 29,
          "midi": 55,
          "name": "G3",
          "ticks": 45628,
          "time": 190.11666666666667,
          "velocity": 0.33070866141732286
        },
        {
          "duration": 0.17916666666667425,
          "durationTicks": 43,
          "midi": 90,
          "name": "F#6",
          "ticks": 45698,
          "time": 190.40833333333333,
          "velocity": 0.5433070866141733
        },
        {
          "duration": 0.037499999999994316,
          "durationTicks": 9,
          "midi": 65,
          "name": "F4",
          "ticks": 45727,
          "time": 190.52916666666667,
          "velocity": 0.49606299212598426
        },
        {
          "duration": 0.09999999999999432,
          "durationTicks": 24,
          "midi": 86,
          "name": "D6",
          "ticks": 45739,
          "time": 190.57916666666668,
          "velocity": 0.31496062992125984
        },
        {
          "duration": 0.0625,
          "durationTicks": 15,
          "midi": 59,
          "name": "B3",
          "ticks": 45743,
          "time": 190.59583333333333,
          "velocity": 0.23622047244094488
        },
        {
          "duration": 0.04999999999998295,
          "durationTicks": 12,
          "midi": 92,
          "name": "G#6",
          "ticks": 45823,
          "time": 190.92916666666667,
          "velocity": 0.4015748031496063
        },
        {
          "duration": 0.06666666666666288,
          "durationTicks": 16,
          "midi": 48,
          "name": "C3",
          "ticks": 45835,
          "time": 190.97916666666666,
          "velocity": 0.3700787401574803
        },
        {
          "duration": 0.05833333333333712,
          "durationTicks": 14,
          "midi": 55,
          "name": "G3",
          "ticks": 45883,
          "time": 191.17916666666667,
          "velocity": 0.2677165354330709
        },
        {
          "duration": 0.08750000000000568,
          "durationTicks": 21,
          "midi": 91,
          "name": "G6",
          "ticks": 45895,
          "time": 191.22916666666666,
          "velocity": 0.18110236220472442
        },
        {
          "duration": 0.0583333333333087,
          "durationTicks": 14,
          "midi": 64,
          "name": "E4",
          "ticks": 45897,
          "time": 191.2375,
          "velocity": 0.10236220472440945
        },
        {
          "duration": 0.12083333333333712,
          "durationTicks": 29,
          "midi": 83,
          "name": "B5",
          "ticks": 45923,
          "time": 191.34583333333333,
          "velocity": 0.33070866141732286
        },
        {
          "duration": 0.037499999999994316,
          "durationTicks": 9,
          "midi": 86,
          "name": "D6",
          "ticks": 45938,
          "time": 191.40833333333333,
          "velocity": 0.2283464566929134
        },
        {
          "duration": 0.17916666666667425,
          "durationTicks": 43,
          "midi": 86,
          "name": "D6",
          "ticks": 45976,
          "time": 191.56666666666666,
          "velocity": 0.4015748031496063
        },
        {
          "duration": 0.04999999999998295,
          "durationTicks": 12,
          "midi": 79,
          "name": "G5",
          "ticks": 46039,
          "time": 191.82916666666668,
          "velocity": 0.23622047244094488
        },
        {
          "duration": 0.04166666666665719,
          "durationTicks": 10,
          "midi": 62,
          "name": "D4",
          "ticks": 46101,
          "time": 192.0875,
          "velocity": 0.3228346456692913
        },
        {
          "duration": 0.12083333333333712,
          "durationTicks": 29,
          "midi": 90,
          "name": "F#6",
          "ticks": 46120,
          "time": 192.16666666666666,
          "velocity": 0.4566929133858268
        },
        {
          "duration": 0.03750000000002274,
          "durationTicks": 9,
          "midi": 87,
          "name": "D#6",
          "ticks": 46255,
          "time": 192.72916666666666,
          "velocity": 0.25984251968503935
        },
        {
          "duration": 0.10833333333332007,
          "durationTicks": 26,
          "midi": 29,
          "name": "F1",
          "ticks": 46281,
          "time": 192.8375,
          "velocity": 0.4566929133858268
        },
        {
          "duration": 0.26249999999998863,
          "durationTicks": 63,
          "midi": 41,
          "name": "F2",
          "ticks": 46319,
          "time": 192.99583333333334,
          "velocity": 0.47244094488188976
        },
        {
          "duration": 0.1708333333333485,
          "durationTicks": 41,
          "midi": 64,
          "name": "E4",
          "ticks": 46329,
          "time": 193.0375,
          "velocity": 0.41732283464566927
        },
        {
          "duration": 0.19166666666666288,
          "durationTicks": 46,
          "midi": 29,
          "name": "F1",
          "ticks": 46348,
          "time": 193.11666666666667,
          "velocity": 0.4881889763779528
        },
        {
          "duration": 0.14166666666667993,
          "durationTicks": 34,
          "midi": 69,
          "name": "A4",
          "ticks": 46396,
          "time": 193.31666666666666,
          "velocity": 0.5118110236220472
        },
        {
          "duration": 0.041666666666685614,
          "durationTicks": 10,
          "midi": 79,
          "name": "G5",
          "ticks": 46547,
          "time": 193.94583333333333,
          "velocity": 0.25196850393700787
        },
        {
          "duration": 0.07916666666667993,
          "durationTicks": 19,
          "midi": 32,
          "name": "G#1",
          "ticks": 46591,
          "time": 194.12916666666666,
          "velocity": 0.3464566929133858
        },
        {
          "duration": 0.05000000000001137,
          "durationTicks": 12,
          "midi": 43,
          "name": "G2",
          "ticks": 46622,
          "time": 194.25833333333333,
          "velocity": 0.10236220472440945
        },
        {
          "duration": 0.037499999999994316,
          "durationTicks": 9,
          "midi": 32,
          "name": "G#1",
          "ticks": 46639,
          "time": 194.32916666666668,
          "velocity": 0.36220472440944884
        },
        {
          "duration": 0.4416666666666629,
          "durationTicks": 106,
          "midi": 69,
          "name": "A4",
          "ticks": 46689,
          "time": 194.5375,
          "velocity": 0.4881889763779528
        },
        {
          "duration": 0.2291666666666572,
          "durationTicks": 55,
          "midi": 28,
          "name": "E1",
          "ticks": 46701,
          "time": 194.5875,
          "velocity": 0.47244094488188976
        },
        {
          "duration": 0.1875,
          "durationTicks": 45,
          "midi": 90,
          "name": "F#6",
          "ticks": 46850,
          "time": 195.20833333333334,
          "velocity": 0.47244094488188976
        },
        {
          "duration": 0.05000000000001137,
          "durationTicks": 12,
          "midi": 76,
          "name": "E5",
          "ticks": 46931,
          "time": 195.54583333333332,
          "velocity": 0.31496062992125984
        },
        {
          "duration": 0.07083333333335418,
          "durationTicks": 17,
          "midi": 96,
          "name": "C7",
          "ticks": 46946,
          "time": 195.60833333333332,
          "velocity": 0.3937007874015748
        },
        {
          "duration": 0.3208333333333542,
          "durationTicks": 77,
          "midi": 45,
          "name": "A2",
          "ticks": 46953,
          "time": 195.6375,
          "velocity": 0.41732283464566927
        },
        {
          "duration": 0.09166666666666856,
          "durationTicks": 22,
          "midi": 31,
          "name": "G1",
          "ticks": 47109,
          "time": 196.2875,
          "velocity": 0.30708661417322836
        },
        {
          "duration": 0.06666666666666288,
          "durationTicks": 16,
          "midi": 60,
          "name": "C4",
          "ticks": 47227,
          "time": 196.77916666666667,
          "velocity": 0.2283464566929134
        },
        {
          "duration": 0.9083333333333314,
          "durationTicks": 218,
          "midi": 26,
          "name": "D1",
          "ticks": 47234,
          "time": 196.80833333333334,
          "velocity": 0.5118110236220472
        },
        {
          "duration": 0.041666666666685614,
          "durationTicks": 10,
          "midi": 53,
          "name": "F3",
          "ticks": 47351,
          "time": 197.29583333333332,
          "velocity": 0.15748031496062992
        },
        {
          "duration": 0.16249999999999432,
          "durationTicks": 39,
          "midi": 64,
          "name": "E4",
          "ticks": 47363,
          "time": 197.34583333333333,
          "velocity": 0.4409448818897638
        },
        {
          "duration": 0.05000000000001137,
          "durationTicks": 12,
          "midi": 76,
          "name": "E5",
          "ticks": 47433,
          "time": 197.6375,
          "velocity": 0.44881889763779526
        },
        {
          "duration": 0.07916666666667993,
          "durationTicks": 19,
          "midi": 62,
          "name": "D4",
          "ticks": 47445,
          "time": 197.6875,
          "velocity": 0.44881889763779526
        },
        {
          "duration": 0.07916666666667993,
          "durationTicks": 19,
          "midi": 47,
          "name": "B2",
          "ticks": 47476,
          "time": 197.81666666666666,
          "velocity": 0.33070866141732286
        },
        {
          "duration": 0.04166666666665719,
          "durationTicks": 10,
          "midi": 84,
          "name": "C6",
          "ticks": 47517,
          "time": 197.9875,
          "velocity": 0.2755905511811024
        },
        {
          "duration": 0.05833333333333712,
          "durationTicks": 14,
          "midi": 59,
          "name": "B3",
          "ticks": 47534,
          "time": 198.05833333333334,
          "velocity": 0.2992125984251969
        },
        {
          "duration": 0.08749999999997726,
          "durationTicks": 21,
          "midi": 62,
          "name": "D4",
          "ticks": 47570,
          "time": 198.20833333333334,
          "velocity": 0.25196850393700787
        },
        {
          "duration": 0.04999999999998295,
          "durationTicks": 12,
          "midi": 45,
          "name": "A2",
          "ticks": 47704,
          "time": 198.76666666666668,
          "velocity": 0.33858267716535434
        },
        {
          "duration": 0.0583333333333087,
          "durationTicks": 14,
          "midi": 38,
          "name": "D2",
          "ticks": 47719,
          "time": 198.82916666666668,
          "velocity": 0.25196850393700787
        },
        {
          "duration": 0.0625,
          "durationTicks": 15,
          "midi": 37,
          "name": "C#2",
          "ticks": 47740,
          "time": 198.91666666666666,
          "velocity": 0.2992125984251969
        },
        {
          "duration": 0.041666666666685614,
          "durationTicks": 10,
          "midi": 81,
          "name": "A5",
          "ticks": 47793,
          "time": 199.1375,
          "velocity": 0.44881889763779526
        },
        {
          "duration": 0.037499999999994316,
          "durationTicks": 9,
          "midi": 52,
          "name": "E3",
          "ticks": 47822,
          "time": 199.25833333333333,
          "velocity": 0.2440944881889764
        },
        {
          "duration": 0.05000000000001137,
          "durationTicks": 12,
          "midi": 29,
          "name": "F1",
          "ticks": 47951,
          "time": 199.79583333333332,
          "velocity": 0.1732283464566929
        },
        {
          "duration": 0.09999999999999432,
          "durationTicks": 24,
          "midi": 27,
          "name": "D#1",
          "ticks": 48002,
          "time": 200.00833333333333,
          "velocity": 0.4015748031496063
        },
        {
          "duration": 0.05833333333333712,
          "durationTicks": 14,
          "midi": 59,
          "name": "B3",
          "ticks": 48033,
          "time": 200.1375,
          "velocity": 0.3228346456692913
        },
        {
          "duration": 0.04166666666665719,
          "durationTicks": 10,
          "midi": 25,
          "name": "C#1",
          "ticks": 48052,
          "time": 200.21666666666667,
          "velocity": 0.28346456692913385
        },
        {
          "duration": 0.12916666666666288,
          "durationTicks": 31,
          "midi": 81,
          "name": "A5",
          "ticks": 48057,
          "time": 200.2375,
          "velocity": 0.36220472440944884
        },
        {
          "duration": 0.07083333333332575,
          "durationTicks": 17,
          "midi": 67,
          "name": "G4",
          "ticks": 48148,
          "time": 200.61666666666667,
          "velocity": 0.48031496062992124
        },
        {
          "duration": 0.037499999999994316,
          "durationTicks": 9,
          "midi": 30,
          "name": "F#1",
          "ticks": 48230,
          "time": 200.95833333333334,
          "velocity": 0.49606299212598426
        },
        {
          "duration": 0.17916666666664582,
          "durationTicks": 43,
          "midi": 69,
          "name": "A4",
          "ticks": 48230,
          "time": 200.95833333333334,
          "velocity": 0.5275590551181102
        },
        {
          "duration": 0.11249999999998295,
          "durationTicks": 27,
          "midi": 98,
          "name": "D7",
          "ticks": 48268,
          "time": 201.11666666666667,
          "velocity": 0.44881889763779526
        },
        {
          "duration": 0.037499999999994316,
          "durationTicks": 9,
          "midi": 67,
          "name": "G4",
          "ticks": 48307,
          "time": 201.27916666666667,
          "velocity": 0.3464566929133858
        },
        {
          "duration": 0.07083333333335418,
          "durationTicks": 17,
          "midi": 29,
          "name": "F1",
          "ticks": 48326,
          "time": 201.35833333333332,
          "velocity": 0.4881889763779528
        },
        {
          "duration": 0.04166666666665719,
          "durationTicks": 10,
          "midi": 87,
          "name": "D#6",
          "ticks": 48357,
          "time": 201.4875,
          "velocity": 0.2677165354330709
        },
        {
          "duration": 0.05000000000001137,
          "durationTicks": 12,
          "midi": 100,
          "name": "E7",
          "ticks": 48422,
          "time": 201.75833333333333,
          "velocity": 0.3543307086614173
        },
        {
          "duration": 0.03750000000002274,
          "durationTicks": 9,
          "midi": 100,
          "name": "E7",
          "ticks": 48475,
          "time": 201.97916666666666,
          "velocity": 0.4566929133858268
        },
        {
          "duration": 0.041666666666685614,
          "durationTicks": 10,
          "midi": 93,
          "name": "A6",
          "ticks": 48513,
          "time": 202.1375,
          "velocity": 0.25984251968503935
        },
        {
          "duration": 0.17916666666667425,
          "durationTicks": 43,
          "midi": 64,
          "name": "E4",
          "ticks": 48554,
          "time": 202.30833333333334,
          "velocity": 0.49606299212598426
        },
        {
          "duration": 0.18333333333333712,
          "durationTicks": 44,
          "midi": 62,
          "name": "D4",
          "ticks": 48623,
          "time": 202.59583333333333,
          "velocity": 0.2992125984251969
        },
        {
          "duration": 0.14166666666667993,
          "durationTicks": 34,
          "midi": 59,
          "name": "B3",
          "ticks": 48676,
          "time": 202.81666666666666,
          "velocity": 0.23622047244094488
        },
        {
          "duration": 0.037499999999994316,
          "durationTicks": 9,
          "midi": 32,
          "name": "G#1",
          "ticks": 48734,
          "time": 203.05833333333334,
          "velocity": 0.3937007874015748
        },
        {
          "duration": 0.07083333333332575,
          "durationTicks": 17,
          "midi": 83,
          "name": "B5",
          "ticks": 48743,
          "time": 203.09583333333333,
          "velocity": 0.3700787401574803
        },
        {
          "duration": 0.09166666666666856,
          "durationTicks": 22,
          "midi": 59,
          "name": "B3",
          "ticks": 48755,
          "time": 203.14583333333334,
          "velocity": 0.2283464566929134
        },
        {
          "duration": 0.09999999999999432,
          "durationTicks": 24,
          "midi": 72,
          "name": "C5",
          "ticks": 48803,
          "time": 203.34583333333333,
          "velocity": 0.36220472440944884
        },
        {
          "duration": 0.0625,
          "durationTicks": 15,
          "midi": 100,
          "name": "E7",
          "ticks": 48844,
          "time": 203.51666666666668,
          "velocity": 0.5039370078740157
        },
        {
          "duration": 0.11250000000001137,
          "durationTicks": 27,
          "midi": 100,
          "name": "E7",
          "ticks": 48887,
          "time": 203.69583333333333,
          "velocity": 0.5196850393700787
        },
        {
          "duration": 0.07083333333335418,
          "durationTicks": 17,
          "midi": 88,
          "name": "E6",
          "ticks": 49007,
          "time": 204.19583333333333,
          "velocity": 0.2755905511811024
        },
        {
          "duration": 0.22083333333333144,
          "durationTicks": 53,
          "midi": 45,
          "name": "A2",
          "ticks": 49048,
          "time": 204.36666666666667,
          "velocity": 0.4094488188976378
        },
        {
          "duration": 0.04166666666665719,
          "durationTicks": 10,
          "midi": 60,
          "name": "C4",
          "ticks": 49084,
          "time": 204.51666666666668,
          "velocity": 0.3464566929133858
        },
        {
          "duration": 0.14999999999997726,
          "durationTicks": 36,
          "midi": 62,
          "name": "D4",
          "ticks": 49144,
          "time": 204.76666666666668,
          "velocity": 0.3543307086614173
        },
        {
          "duration": 0.1416666666666515,
          "durationTicks": 34,
          "midi": 34,
          "name": "A#1",
          "ticks": 49204,
          "time": 205.01666666666668,
          "velocity": 0.3937007874015748
        },
        {
          "duration": 0.8583333333333201,
          "durationTicks": 206,
          "midi": 26,
          "name": "D1",
          "ticks": 49327,
          "time": 205.52916666666667,
          "velocity": 0.5039370078740157
        },
        {
          "duration": 0.08749999999997726,
          "durationTicks": 21,
          "midi": 69,
          "name": "A4",
          "ticks": 49339,
          "time": 205.57916666666668,
          "velocity": 0.3700787401574803
        },
        {
          "duration": 0.037499999999994316,
          "durationTicks": 9,
          "midi": 69,
          "name": "A4",
          "ticks": 49394,
          "time": 205.80833333333334,
          "velocity": 0.3858267716535433
        },
        {
          "duration": 0.14166666666667993,
          "durationTicks": 34,
          "midi": 69,
          "name": "A4",
          "ticks": 49427,
          "time": 205.94583333333333,
          "velocity": 0.49606299212598426
        },
        {
          "duration": 0.037499999999994316,
          "durationTicks": 9,
          "midi": 38,
          "name": "D2",
          "ticks": 49514,
          "time": 206.30833333333334,
          "velocity": 0.4566929133858268
        },
        {
          "duration": 0.05833333333333712,
          "durationTicks": 14,
          "midi": 76,
          "name": "E5",
          "ticks": 49603,
          "time": 206.67916666666667,
          "velocity": 0.31496062992125984
        },
        {
          "duration": 0.0625,
          "durationTicks": 15,
          "midi": 59,
          "name": "B3",
          "ticks": 49631,
          "time": 206.79583333333332,
          "velocity": 0.3937007874015748
        },
        {
          "duration": 0.07916666666667993,
          "durationTicks": 19,
          "midi": 76,
          "name": "E5",
          "ticks": 49665,
          "time": 206.9375,
          "velocity": 0.3700787401574803
        },
        {
          "duration": 0.09999999999999432,
          "durationTicks": 24,
          "midi": 79,
          "name": "G5",
          "ticks": 49679,
          "time": 206.99583333333334,
          "velocity": 0.25196850393700787
        },
        {
          "duration": 0.0625,
          "durationTicks": 15,
          "midi": 67,
          "name": "G4",
          "ticks": 49720,
          "time": 207.16666666666666,
          "velocity": 0.29133858267716534
        },
        {
          "duration": 0.07916666666665151,
          "durationTicks": 19,
          "midi": 32,
          "name": "G#1",
          "ticks": 49730,
          "time": 207.20833333333334,
          "velocity": 0.2992125984251969
        },
        {
          "duration": 0.11666666666664582,
          "durationTicks": 28,
          "midi": 30,
          "name": "F#1",
          "ticks": 49759,
          "time": 207.32916666666668,
          "velocity": 0.2992125984251969
        },
        {
          "duration": 0.09166666666666856,
          "durationTicks": 22,
          "midi": 55,
          "name": "G3",
          "ticks": 49888,
          "time": 207.86666666666667,
          "velocity": 0.4881889763779528
        },
        {
          "duration": 0.05000000000001137,
          "durationTicks": 12,
          "midi": 55,
          "name": "G3",
          "ticks": 49987,
          "time": 208.27916666666667,
          "velocity": 0.2992125984251969
        },
        {
          "duration": 0.2291666666666572,
          "durationTicks": 55,
          "midi": 79,
          "name": "G5",
          "ticks": 49999,
          "time": 208.32916666666668,
          "velocity": 0.4251968503937008
        },
        {
          "duration": 0.13750000000001705,
          "durationTicks": 33,
          "midi": 79,
          "name": "G5",
          "ticks": 50071,
          "time": 208.62916666666666,
          "velocity": 0.2283464566929134
        },
        {
          "duration": 0.12083333333333712,
          "durationTicks": 29,
          "midi": 81,
          "name": "A5",
          "ticks": 50152,
          "time": 208.96666666666667,
          "velocity": 0.3937007874015748
        },
        {
          "duration": 0.07916666666667993,
          "durationTicks": 19,
          "midi": 76,
          "name": "E5",
          "ticks": 50169,
          "time": 209.0375,
          "velocity": 0.3543307086614173
        },
        {
          "duration": 0.05000000000001137,
          "durationTicks": 12,
          "midi": 28,
          "name": "E1",
          "ticks": 50176,
          "time": 209.06666666666666,
          "velocity": 0.33858267716535434
        },
        {
          "duration": 0.05000000000001137,
          "durationTicks": 12,
          "midi": 49,
          "name": "C#3",
          "ticks": 50260,
          "time": 209.41666666666666,
          "velocity": 0.2047244094488189
        },
        {
          "duration": 0.07083333333335418,
          "durationTicks": 17,
          "midi": 67,
          "name": "G4",
          "ticks": 50282,
          "time": 209.50833333333333,
          "velocity": 0.36220472440944884
        },
        {
          "duration": 0.24166666666667425,
          "durationTicks": 58,
          "midi": 69,
          "name": "A4",
          "ticks": 50313,
          "time": 209.6375,
          "velocity": 0.5196850393700787
        },
        {
          "duration": 0.22083333333335986,
          "durationTicks": 53,
          "midi": 62,
          "name": "D4",
          "ticks": 50426,
          "time": 210.10833333333332,
          "velocity": 0.5275590551181102
        },
        {
          "duration": 0.04166666666665719,
          "durationTicks": 10,
          "midi": 83,
          "name": "B5",
          "ticks": 50459,
          "time": 210.24583333333334,
          "velocity": 0.33070866141732286
        },
        {
          "duration": 0.10000000000002274,
          "durationTicks": 24,
          "midi": 29,
          "name": "F1",
          "ticks": 50471,
          "time": 210.29583333333332,
          "velocity": 0.4645669291338583
        },
        {
          "duration": 0.07916666666667993,
          "durationTicks": 19,
          "midi": 48,
          "name": "C3",
          "ticks": 50522,
          "time": 210.50833333333333,
          "velocity": 0.36220472440944884
        },
        {
          "duration": 0.12083333333333712,
          "durationTicks": 29,
          "midi": 59,
          "name": "B3",
          "ticks": 50591,
          "time": 210.79583333333332,
          "velocity": 0.48031496062992124
        },
        {
          "duration": 0.05833333333333712,
          "durationTicks": 14,
          "midi": 60,
          "name": "C4",
          "ticks": 50649,
          "time": 211.0375,
          "velocity": 0.2204724409448819
        },
        {
          "duration": 0.05833333333333712,
          "durationTicks": 14,
          "midi": 74,
          "name": "D5",
          "ticks": 50702,
          "time": 211.25833333333333,
          "velocity": 0.5039370078740157
        },
        {
          "duration": 0.12916666666666288,
          "durationTicks": 31,
          "midi": 81,
          "name": "A5",
          "ticks": 50719,
          "time": 211.32916666666668,
          "velocity": 0.2755905511811024
        },
        {
          "duration": 0.05000000000001137,
          "durationTicks": 12,
          "midi": 83,
          "name": "B5",
          "ticks": 50723,
          "time": 211.34583333333333,
          "velocity": 0.2677165354330709
        },
        {
          "duration": 0.19166666666666288,
          "durationTicks": 46,
          "midi": 59,
          "name": "B3",
          "ticks": 50769,
          "time": 211.5375,
          "velocity": 0.33070866141732286
        },
        {
          "duration": 0.05000000000001137,
          "durationTicks": 12,
          "midi": 67,
          "name": "G4",
          "ticks": 50805,
          "time": 211.6875,
          "velocity": 0.07874015748031496
        },
        {
          "duration": 0.07916666666665151,
          "durationTicks": 19,
          "midi": 55,
          "name": "G3",
          "ticks": 50899,
          "time": 212.07916666666668,
          "velocity": 0.1732283464566929
        },
        {
          "duration": 0.04999999999998295,
          "durationTicks": 12,
          "midi": 31,
          "name": "G1",
          "ticks": 51019,
          "time": 212.57916666666668,
          "velocity": 0.28346456692913385
        },
        {
          "duration": 0.17083333333332007,
          "durationTicks": 41,
          "midi": 55,
          "name": "G3",
          "ticks": 51021,
          "time": 212.5875,
          "velocity": 0.3700787401574803
        },
        {
          "duration": 0.07083333333332575,
          "durationTicks": 17,
          "midi": 57,
          "name": "A3",
          "ticks": 51158,
          "time": 213.15833333333333,
          "velocity": 0.33070866141732286
        },
        {
          "duration": 0.05000000000001137,
          "durationTicks": 12,
          "midi": 52,
          "name": "E3",
          "ticks": 51206,
          "time": 213.35833333333332,
          "velocity": 0.4251968503937008
        },
        {
          "duration": 0.0625,
          "durationTicks": 15,
          "midi": 67,
          "name": "G4",
          "ticks": 51311,
          "time": 213.79583333333332,
          "velocity": 0.2992125984251969
        },
        {
          "duration": 0.04166666666665719,
          "durationTicks": 10,
          "midi": 38,
          "name": "D2",
          "ticks": 51417,
          "time": 214.2375,
          "velocity": 0.3464566929133858
        },
        {
          "duration": 0.13750000000001705,
          "durationTicks": 33,
          "midi": 38,
          "name": "D2",
          "ticks": 51451,
          "time": 214.37916666666666,
          "velocity": 0.4409448818897638
        },
        {
          "duration": 0.14166666666667993,
          "durationTicks": 34,
          "midi": 84,
          "name": "C6",
          "ticks": 51549,
          "time": 214.7875,
          "velocity": 0.3858267716535433
        },
        {
          "duration": 0.27916666666666856,
          "durationTicks": 67,
          "midi": 59,
          "name": "B3",
          "ticks": 51645,
          "time": 215.1875,
          "velocity": 0.44881889763779526
        },
        {
          "duration": 0.037499999999994316,
          "durationTicks": 9,
          "midi": 40,
          "name": "E2",
          "ticks": 51667,
          "time": 215.27916666666667,
          "velocity": 0.3779527559055118
        },
        {
          "duration": 0.04166666666665719,
          "durationTicks": 10,
          "midi": 83,
          "name": "B5",
          "ticks": 51719,
          "time": 215.49583333333334,
          "velocity": 0.1889763779527559
        },
        {
          "duration": 0.2916666666666572,
          "durationTicks": 70,
          "midi": 62,
          "name": "D4",
          "ticks": 51863,
          "time": 216.09583333333333,
          "velocity": 0.33858267716535434
        },
        {
          "duration": 0.1875,
          "durationTicks": 45,
          "midi": 57,
          "name": "A3",
          "ticks": 51883,
          "time": 216.17916666666667,
          "velocity": 0.33858267716535434
        },
        {
          "duration": 0.14999999999997726,
          "durationTicks": 36,
          "midi": 52,
          "name": "E3",
          "ticks": 51995,
          "time": 216.64583333333334,
          "velocity": 0.30708661417322836
        },
        {
          "duration": 0.04166666666665719,
          "durationTicks": 10,
          "midi": 76,
          "name": "E5",
          "ticks": 52072,
          "time": 216.96666666666667,
          "velocity": 0.3937007874015748
        },
        {
          "duration": 0.07916666666665151,
          "durationTicks": 19,
          "midi": 33,
          "name": "A1",
          "ticks": 52204,
          "time": 217.51666666666668,
          "velocity": 0.4881889763779528
        },
        {
          "duration": 0.09166666666666856,
          "durationTicks": 22,
          "midi": 33,
          "name": "A1",
          "ticks": 52269,
          "time": 217.7875,
          "velocity": 0.5039370078740157
        },
        {
          "duration": 0.11249999999998295,
          "durationTicks": 27,
          "midi": 83,
          "name": "B5",
          "ticks": 52288,
          "time": 217.86666666666667,
          "velocity": 0.12598425196850394
        },
        {
          "duration": 0.12916666666666288,
          "durationTicks": 31,
          "midi": 45,
          "name": "A2",
          "ticks": 52334,
          "time": 218.05833333333334,
          "velocity": 0.29133858267716534
        },
        {
          "duration": 0.28333333333333144,
          "durationTicks": 68,
          "midi": 41,
          "name": "F2",
          "ticks": 52427,
          "time": 218.44583333333333,
          "velocity": 0.36220472440944884
        },
        {
          "duration": 0.05000000000001137,
          "durationTicks": 12,
          "midi": 41,
          "name": "F2",
          "ticks": 52509,
          "time": 218.7875,
          "velocity": 0.29133858267716534
        },
        {
          "duration": 0.11666666666664582,
          "durationTicks": 28,
          "midi": 48,
          "name": "C3",
          "ticks": 52519,
          "time": 218.82916666666668,
          "velocity": 0.3464566929133858
        },
        {
          "duration": 0.26249999999998863,
          "durationTicks": 63,
          "midi": 29,
          "name": "F1",
          "ticks": 52552,
          "time": 218.96666666666667,
          "velocity": 0.5118110236220472
        },
        {
          "duration": 0.037499999999994316,
          "durationTicks": 9,
          "midi": 98,
          "name": "D7",
          "ticks": 52610,
          "time": 219.20833333333334,
          "velocity": 0.4015748031496063
        },
        {
          "duration": 0.09166666666666856,
          "durationTicks": 22,
          "midi": 48,
          "name": "C3",
          "ticks": 52617,
          "time": 219.2375,
          "velocity": 0.28346456692913385
        },
        {
          "duration": 0.037499999999994316,
          "durationTicks": 9,
          "midi": 96,
          "name": "C7",
          "ticks": 52694,
          "time": 219.55833333333334,
          "velocity": 0.44881889763779526
        },
        {
          "duration": 0.037499999999994316,
          "durationTicks": 9,
          "midi": 59,
          "name": "B3",
          "ticks": 52802,
          "time": 220.00833333333333,
          "velocity": 0.28346456692913385
        },
        {
          "duration": 0.35000000000002274,
          "durationTicks": 84,
          "midi": 59,
          "name": "B3",
          "ticks": 52833,
          "time": 220.1375,
          "velocity": 0.4015748031496063
        },
        {
          "duration": 0.07916666666667993,
          "durationTicks": 19,
          "midi": 83,
          "name": "B5",
          "ticks": 52929,
          "time": 220.5375,
          "velocity": 0.5748031496062992
        },
        {
          "duration": 0.5625,
          "durationTicks": 135,
          "midi": 28,
          "name": "E1",
          "ticks": 52972,
          "time": 220.71666666666667,
          "velocity": 0.5275590551181102
        },
        {
          "duration": 0.07916666666665151,
          "durationTicks": 19,
          "midi": 64,
          "name": "E4",
          "ticks": 52994,
          "time": 220.80833333333334,
          "velocity": 0.4251968503937008
        },
        {
          "duration": 0.11666666666667425,
          "durationTicks": 28,
          "midi": 59,
          "name": "B3",
          "ticks": 53035,
          "time": 220.97916666666666,
          "velocity": 0.3779527559055118
        },
        {
          "duration": 0.09999999999999432,
          "durationTicks": 24,
          "midi": 55,
          "name": "G3",
          "ticks": 53159,
          "time": 221.49583333333334,
          "velocity": 0.15748031496062992
        },
        {
          "duration": 0.2083333333333428,
          "durationTicks": 50,
          "midi": 40,
          "name": "E2",
          "ticks": 53167,
          "time": 221.52916666666667,
          "velocity": 0.28346456692913385
        },
        {
          "duration": 0.10833333333332007,
          "durationTicks": 26,
          "midi": 55,
          "name": "G3",
          "ticks": 53203,
          "time": 221.67916666666667,
          "velocity": 0.33858267716535434
        },
        {
          "duration": 0.3708333333333087,
          "durationTicks": 89,
          "midi": 45,
          "name": "A2",
          "ticks": 53224,
          "time": 221.76666666666668,
          "velocity": 0.47244094488188976
        },
        {
          "duration": 0.2333333333333485,
          "durationTicks": 56,
          "midi": 33,
          "name": "A1",
          "ticks": 53327,
          "time": 222.19583333333333,
          "velocity": 0.47244094488188976
        },
        {
          "duration": 0.16666666666668561,
          "durationTicks": 40,
          "midi": 55,
          "name": "G3",
          "ticks": 53395,
          "time": 222.47916666666666,
          "velocity": 0.3700787401574803
        },
        {
          "duration": 0.07083333333332575,
          "durationTicks": 17,
          "midi": 50,
          "name": "D3",
          "ticks": 53524,
          "time": 223.01666666666668,
          "velocity": 0.10236220472440945
        },
        {
          "duration": 0.11250000000001137,
          "durationTicks": 27,
          "midi": 97,
          "name": "C#7",
          "ticks": 53560,
          "time": 223.16666666666666,
          "velocity": 0.4645669291338583
        },
        {
          "duration": 0.04166666666665719,
          "durationTicks": 10,
          "midi": 91,
          "name": "G6",
          "ticks": 53632,
          "time": 223.46666666666667,
          "velocity": 0.5275590551181102
        },
        {
          "duration": 0.07916666666667993,
          "durationTicks": 19,
          "midi": 57,
          "name": "A3",
          "ticks": 53656,
          "time": 223.56666666666666,
          "velocity": 0.4566929133858268
        },
        {
          "duration": 0.13749999999998863,
          "durationTicks": 33,
          "midi": 90,
          "name": "F#6",
          "ticks": 53707,
          "time": 223.77916666666667,
          "velocity": 0.4566929133858268
        },
        {
          "duration": 0.15833333333333144,
          "durationTicks": 38,
          "midi": 59,
          "name": "B3",
          "ticks": 53769,
          "time": 224.0375,
          "velocity": 0.4015748031496063
        },
        {
          "duration": 0.07083333333335418,
          "durationTicks": 17,
          "midi": 64,
          "name": "E4",
          "ticks": 53793,
          "time": 224.1375,
          "velocity": 0.14960629921259844
        },
        {
          "duration": 0.32916666666667993,
          "durationTicks": 79,
          "midi": 59,
          "name": "B3",
          "ticks": 53851,
          "time": 224.37916666666666,
          "velocity": 0.4015748031496063
        },
        {
          "duration": 0.08750000000000568,
          "durationTicks": 21,
          "midi": 55,
          "name": "G3",
          "ticks": 53882,
          "time": 224.50833333333333,
          "velocity": 0.3228346456692913
        },
        {
          "duration": 0.15000000000000568,
          "durationTicks": 36,
          "midi": 67,
          "name": "G4",
          "ticks": 53918,
          "time": 224.65833333333333,
          "velocity": 0.31496062992125984
        },
        {
          "duration": 0.1708333333333485,
          "durationTicks": 41,
          "midi": 55,
          "name": "G3",
          "ticks": 53980,
          "time": 224.91666666666666,
          "velocity": 0.4015748031496063
        },
        {
          "duration": 0.04999999999998295,
          "durationTicks": 12,
          "midi": 76,
          "name": "E5",
          "ticks": 54050,
          "time": 225.20833333333334,
          "velocity": 0.36220472440944884
        },
        {
          "duration": 0.1916666666666913,
          "durationTicks": 46,
          "midi": 90,
          "name": "F#6",
          "ticks": 54071,
          "time": 225.29583333333332,
          "velocity": 0.5354330708661418
        },
        {
          "duration": 0.2708333333333428,
          "durationTicks": 65,
          "midi": 36,
          "name": "C2",
          "ticks": 54100,
          "time": 225.41666666666666,
          "velocity": 0.5590551181102362
        },
        {
          "duration": 0.07916666666667993,
          "durationTicks": 19,
          "midi": 59,
          "name": "B3",
          "ticks": 54182,
          "time": 225.75833333333333,
          "velocity": 0.2992125984251969
        },
        {
          "duration": 0.0625,
          "durationTicks": 15,
          "midi": 74,
          "name": "D5",
          "ticks": 54299,
          "time": 226.24583333333334,
          "velocity": 0.5354330708661418
        },
        {
          "duration": 0.17083333333332007,
          "durationTicks": 41,
          "midi": 48,
          "name": "C3",
          "ticks": 54335,
          "time": 226.39583333333334,
          "velocity": 0.3228346456692913
        },
        {
          "duration": 0.06666666666666288,
          "durationTicks": 16,
          "midi": 57,
          "name": "A3",
          "ticks": 54403,
          "time": 226.67916666666667,
          "velocity": 0.2047244094488189
        },
        {
          "duration": 0.09999999999999432,
          "durationTicks": 24,
          "midi": 64,
          "name": "E4",
          "ticks": 54503,
          "time": 227.09583333333333,
          "velocity": 0.3779527559055118
        },
        {
          "duration": 0.17916666666667425,
          "durationTicks": 43,
          "midi": 41,
          "name": "F2",
          "ticks": 54532,
          "time": 227.21666666666667,
          "velocity": 0.3700787401574803
        },
        {
          "duration": 0.05000000000001137,
          "durationTicks": 12,
          "midi": 96,
          "name": "C7",
          "ticks": 54542,
          "time": 227.25833333333333,
          "velocity": 0.3464566929133858
        },
        {
          "duration": 0.15833333333333144,
          "durationTicks": 38,
          "midi": 78,
          "name": "F#5",
          "ticks": 54621,
          "time": 227.5875,
          "velocity": 0.4645669291338583
        },
        {
          "duration": 0.07083333333335418,
          "durationTicks": 17,
          "midi": 87,
          "name": "D#6",
          "ticks": 54626,
          "time": 227.60833333333332,
          "velocity": 0.2440944881889764
        },
        {
          "duration": 0.041666666666685614,
          "durationTicks": 10,
          "midi": 57,
          "name": "A3",
          "ticks": 54700,
          "time": 227.91666666666666,
          "velocity": 0.41732283464566927
        },
        {
          "duration": 0.0625,
          "durationTicks": 15,
          "midi": 41,
          "name": "F2",
          "ticks": 54712,
          "time": 227.96666666666667,
          "velocity": 0.2755905511811024
        },
        {
          "duration": 0.0625,
          "durationTicks": 15,
          "midi": 102,
          "name": "F#7",
          "ticks": 54760,
          "time": 228.16666666666666,
          "velocity": 0.3858267716535433
        },
        {
          "duration": 0.22083333333333144,
          "durationTicks": 53,
          "midi": 50,
          "name": "D3",
          "ticks": 54777,
          "time": 228.2375,
          "velocity": 0.3543307086614173
        },
        {
          "duration": 0.05000000000001137,
          "durationTicks": 12,
          "midi": 59,
          "name": "B3",
          "ticks": 54803,
          "time": 228.34583333333333,
          "velocity": 0.11811023622047244
        },
        {
          "duration": 0.037499999999994316,
          "durationTicks": 9,
          "midi": 50,
          "name": "D3",
          "ticks": 54878,
          "time": 228.65833333333333,
          "velocity": 0.1968503937007874
        },
        {
          "duration": 0.08750000000000568,
          "durationTicks": 21,
          "midi": 59,
          "name": "B3",
          "ticks": 54926,
          "time": 228.85833333333332,
          "velocity": 0.14960629921259844
        },
        {
          "duration": 0.19166666666666288,
          "durationTicks": 46,
          "midi": 59,
          "name": "B3",
          "ticks": 54959,
          "time": 228.99583333333334,
          "velocity": 0.25196850393700787
        },
        {
          "duration": 0.1416666666666515,
          "durationTicks": 34,
          "midi": 59,
          "name": "B3",
          "ticks": 55024,
          "time": 229.26666666666668,
          "velocity": 0.36220472440944884
        },
        {
          "duration": 0.2874999999999943,
          "durationTicks": 69,
          "midi": 28,
          "name": "E1",
          "ticks": 55070,
          "time": 229.45833333333334,
          "velocity": 0.4566929133858268
        },
        {
          "duration": 0.09166666666666856,
          "durationTicks": 22,
          "midi": 59,
          "name": "B3",
          "ticks": 55137,
          "time": 229.7375,
          "velocity": 0.3779527559055118
        },
        {
          "duration": 0.07916666666667993,
          "durationTicks": 19,
          "midi": 52,
          "name": "E3",
          "ticks": 55149,
          "time": 229.7875,
          "velocity": 0.14173228346456693
        },
        {
          "duration": 0.13750000000001705,
          "durationTicks": 33,
          "midi": 90,
          "name": "F#6",
          "ticks": 55226,
          "time": 230.10833333333332,
          "velocity": 0.4094488188976378
        },
        {
          "duration": 0.07916666666667993,
          "durationTicks": 19,
          "midi": 96,
          "name": "C7",
          "ticks": 55322,
          "time": 230.50833333333333,
          "velocity": 0.41732283464566927
        },
        {
          "duration": 0.04166666666665719,
          "durationTicks": 10,
          "midi": 86,
          "name": "D6",
          "ticks": 55343,
          "time": 230.59583333333333,
          "velocity": 0.2992125984251969
        },
        {
          "duration": 0.1291666666666913,
          "durationTicks": 31,
          "midi": 91,
          "name": "G6",
          "ticks": 55353,
          "time": 230.6375,
          "velocity": 0.29133858267716534
        },
        {
          "duration": 0.23750000000001137,
          "durationTicks": 57,
          "midi": 69,
          "name": "A4",
          "ticks": 55382,
          "time": 230.75833333333333,
          "velocity": 0.36220472440944884
        },
        {
          "duration": 0.07083333333335418,
          "durationTicks": 17,
          "midi": 93,
          "name": "A6",
          "ticks": 55473,
          "time": 231.1375,
          "velocity": 0.1732283464566929
        },
        {
          "duration": 0.26249999999998863,
          "durationTicks": 63,
          "midi": 45,
          "name": "A2",
          "ticks": 55492,
          "time": 231.21666666666667,
          "velocity": 0.3937007874015748
        },
        {
          "duration": 0.04166666666665719,
          "durationTicks": 10,
          "midi": 55,
          "name": "G3",
          "ticks": 55497,
          "time": 231.2375,
          "velocity": 0.3464566929133858
        },
        {
          "duration": 0.07916666666665151,
          "durationTicks": 19,
          "midi": 91,
          "name": "G6",
          "ticks": 55550,
          "time": 231.45833333333334,
          "velocity": 0.2755905511811024
        },
        {
          "duration": 0.07916666666665151,
          "durationTicks": 19,
          "midi": 93,
          "name": "A6",
          "ticks": 55564,
          "time": 231.51666666666668,
          "velocity": 0.29133858267716534
        },
        {
          "duration": 0.20000000000001705,
          "durationTicks": 48,
          "midi": 45,
          "name": "A2",
          "ticks": 55576,
          "time": 231.56666666666666,
          "velocity": 0.31496062992125984
        },
        {
          "duration": 0.05000000000001137,
          "durationTicks": 12,
          "midi": 57,
          "name": "A3",
          "ticks": 55622,
          "time": 231.75833333333333,
          "velocity": 0.2755905511811024
        },
        {
          "duration": 0.13750000000001705,
          "durationTicks": 33,
          "midi": 83,
          "name": "B5",
          "ticks": 55646,
          "time": 231.85833333333332,
          "velocity": 0.47244094488188976
        },
        {
          "duration": 0.12916666666666288,
          "durationTicks": 31,
          "midi": 53,
          "name": "F3",
          "ticks": 55768,
          "time": 232.36666666666667,
          "velocity": 0.2755905511811024
        },
        {
          "duration": 0.12083333333333712,
          "durationTicks": 29,
          "midi": 38,
          "name": "D2",
          "ticks": 55790,
          "time": 232.45833333333334,
          "velocity": 0.28346456692913385
        },
        {
          "duration": 0.09999999999999432,
          "durationTicks": 24,
          "midi": 81,
          "name": "A5",
          "ticks": 55802,
          "time": 232.50833333333333,
          "velocity": 0.3543307086614173
        },
        {
          "duration": 0.22916666666668561,
          "durationTicks": 55,
          "midi": 47,
          "name": "B2",
          "ticks": 55826,
          "time": 232.60833333333332,
          "velocity": 0.3228346456692913
        },
        {
          "duration": 0.10000000000002274,
          "durationTicks": 24,
          "midi": 55,
          "name": "G3",
          "ticks": 55855,
          "time": 232.72916666666666,
          "velocity": 0.2440944881889764
        },
        {
          "duration": 0.05833333333333712,
          "durationTicks": 14,
          "midi": 62,
          "name": "D4",
          "ticks": 55886,
          "time": 232.85833333333332,
          "velocity": 0.2440944881889764
        },
        {
          "duration": 0.14999999999997726,
          "durationTicks": 36,
          "midi": 59,
          "name": "B3",
          "ticks": 55910,
          "time": 232.95833333333334,
          "velocity": 0.28346456692913385
        },
        {
          "duration": 0.07916666666667993,
          "durationTicks": 19,
          "midi": 62,
          "name": "D4",
          "ticks": 55922,
          "time": 233.00833333333333,
          "velocity": 0.2440944881889764
        },
        {
          "duration": 0.05000000000001137,
          "durationTicks": 12,
          "midi": 47,
          "name": "B2",
          "ticks": 55927,
          "time": 233.02916666666667,
          "velocity": 0.15748031496062992
        },
        {
          "duration": 0.19999999999998863,
          "durationTicks": 48,
          "midi": 79,
          "name": "G5",
          "ticks": 55948,
          "time": 233.11666666666667,
          "velocity": 0.4015748031496063
        },
        {
          "duration": 0.05833333333333712,
          "durationTicks": 14,
          "midi": 59,
          "name": "B3",
          "ticks": 55970,
          "time": 233.20833333333334,
          "velocity": 0.2992125984251969
        },
        {
          "duration": 0.06666666666666288,
          "durationTicks": 16,
          "midi": 38,
          "name": "D2",
          "ticks": 56095,
          "time": 233.72916666666666,
          "velocity": 0.28346456692913385
        },
        {
          "duration": 0.04166666666665719,
          "durationTicks": 10,
          "midi": 79,
          "name": "G5",
          "ticks": 56145,
          "time": 233.9375,
          "velocity": 0.18110236220472442
        },
        {
          "duration": 0.25,
          "durationTicks": 60,
          "midi": 45,
          "name": "A2",
          "ticks": 56179,
          "time": 234.07916666666668,
          "velocity": 0.44881889763779526
        },
        {
          "duration": 0.38749999999998863,
          "durationTicks": 93,
          "midi": 88,
          "name": "E6",
          "ticks": 56258,
          "time": 234.40833333333333,
          "velocity": 0.4251968503937008
        },
        {
          "duration": 0.09999999999999432,
          "durationTicks": 24,
          "midi": 88,
          "name": "E6",
          "ticks": 56371,
          "time": 234.87916666666666,
          "velocity": 0.3858267716535433
        },
        {
          "duration": 0.04166666666665719,
          "durationTicks": 10,
          "midi": 79,
          "name": "G5",
          "ticks": 56392,
          "time": 234.96666666666667,
          "velocity": 0.4251968503937008
        },
        {
          "duration": 0.1875,
          "durationTicks": 45,
          "midi": 64,
          "name": "E4",
          "ticks": 56407,
          "time": 235.02916666666667,
          "velocity": 0.47244094488188976
        },
        {
          "duration": 0.037499999999994316,
          "durationTicks": 9,
          "midi": 30,
          "name": "F#1",
          "ticks": 56479,
          "time": 235.32916666666668,
          "velocity": 0.3779527559055118
        },
        {
          "duration": 0.037499999999994316,
          "durationTicks": 9,
          "midi": 35,
          "name": "B1",
          "ticks": 56503,
          "time": 235.42916666666667,
          "velocity": 0.28346456692913385
        },
        {
          "duration": 0.14999999999997726,
          "durationTicks": 36,
          "midi": 62,
          "name": "D4",
          "ticks": 56539,
          "time": 235.57916666666668,
          "velocity": 0.3700787401574803
        },
        {
          "duration": 0.05833333333333712,
          "durationTicks": 14,
          "midi": 90,
          "name": "F#6",
          "ticks": 56587,
          "time": 235.77916666666667,
          "velocity": 0.3543307086614173
        },
        {
          "duration": 0.05000000000001137,
          "durationTicks": 12,
          "midi": 78,
          "name": "F#5",
          "ticks": 56603,
          "time": 235.84583333333333,
          "velocity": 0.47244094488188976
        },
        {
          "duration": 0.04999999999998295,
          "durationTicks": 12,
          "midi": 29,
          "name": "F1",
          "ticks": 56623,
          "time": 235.92916666666667,
          "velocity": 0.5354330708661418
        },
        {
          "duration": 0.5,
          "durationTicks": 120,
          "midi": 81,
          "name": "A5",
          "ticks": 56656,
          "time": 236.06666666666666,
          "velocity": 0.5511811023622047
        },
        {
          "duration": 0.15833333333333144,
          "durationTicks": 38,
          "midi": 62,
          "name": "D4",
          "ticks": 56714,
          "time": 236.30833333333334,
          "velocity": 0.5118110236220472
        },
        {
          "duration": 0.2291666666666572,
          "durationTicks": 55,
          "midi": 29,
          "name": "F1",
          "ticks": 56812,
          "time": 236.71666666666667,
          "velocity": 0.4566929133858268
        },
        {
          "duration": 0.12916666666666288,
          "durationTicks": 31,
          "midi": 79,
          "name": "G5",
          "ticks": 56899,
          "time": 237.07916666666668,
          "velocity": 0.3543307086614173
        },
        {
          "duration": 0.0625,
          "durationTicks": 15,
          "midi": 91,
          "name": "G6",
          "ticks": 56915,
          "time": 237.14583333333334,
          "velocity": 0.28346456692913385
        },
        {
          "duration": 0.11666666666667425,
          "durationTicks": 28,
          "midi": 64,
          "name": "E4",
          "ticks": 56947,
          "time": 237.27916666666667,
          "velocity": 0.5196850393700787
        },
        {
          "duration": 0.20833333333331439,
          "durationTicks": 50,
          "midi": 64,
          "name": "E4",
          "ticks": 56990,
          "time": 237.45833333333334,
          "velocity": 0.4409448818897638
        },
        {
          "duration": 0.17083333333332007,
          "durationTicks": 41,
          "midi": 62,
          "name": "D4",
          "ticks": 57004,
          "time": 237.51666666666668,
          "velocity": 0.29133858267716534
        },
        {
          "duration": 0.17916666666667425,
          "durationTicks": 43,
          "midi": 59,
          "name": "B3",
          "ticks": 57055,
          "time": 237.72916666666666,
          "velocity": 0.2677165354330709
        },
        {
          "duration": 0.09999999999999432,
          "durationTicks": 24,
          "midi": 62,
          "name": "D4",
          "ticks": 57059,
          "time": 237.74583333333334,
          "velocity": 0.23622047244094488
        },
        {
          "duration": 0.05833333333333712,
          "durationTicks": 14,
          "midi": 102,
          "name": "F#7",
          "ticks": 57105,
          "time": 237.9375,
          "velocity": 0.44881889763779526
        },
        {
          "duration": 0.07916666666665151,
          "durationTicks": 19,
          "midi": 30,
          "name": "F#1",
          "ticks": 57112,
          "time": 237.96666666666667,
          "velocity": 0.4645669291338583
        },
        {
          "duration": 0.0625,
          "durationTicks": 15,
          "midi": 62,
          "name": "D4",
          "ticks": 57191,
          "time": 238.29583333333332,
          "velocity": 0.3464566929133858
        },
        {
          "duration": 0.04166666666665719,
          "durationTicks": 10,
          "midi": 102,
          "name": "F#7",
          "ticks": 57215,
          "time": 238.39583333333334,
          "velocity": 0.4330708661417323
        },
        {
          "duration": 0.10833333333332007,
          "durationTicks": 26,
          "midi": 100,
          "name": "E7",
          "ticks": 57261,
          "time": 238.5875,
          "velocity": 0.5039370078740157
        },
        {
          "duration": 0.1416666666666515,
          "durationTicks": 34,
          "midi": 28,
          "name": "E1",
          "ticks": 57292,
          "time": 238.71666666666667,
          "velocity": 0.4251968503937008
        },
        {
          "duration": 0.04166666666665719,
          "durationTicks": 10,
          "midi": 55,
          "name": "G3",
          "ticks": 57316,
          "time": 238.81666666666666,
          "velocity": 0.3543307086614173
        },
        {
          "duration": 0.05000000000001137,
          "durationTicks": 12,
          "midi": 83,
          "name": "B5",
          "ticks": 57422,
          "time": 239.25833333333333,
          "velocity": 0.2755905511811024
        },
        {
          "duration": 0.08750000000000568,
          "durationTicks": 21,
          "midi": 52,
          "name": "E3",
          "ticks": 57427,
          "time": 239.27916666666667,
          "velocity": 0.28346456692913385
        },
        {
          "duration": 0.08333333333334281,
          "durationTicks": 20,
          "midi": 67,
          "name": "G4",
          "ticks": 57527,
          "time": 239.69583333333333,
          "velocity": 0.31496062992125984
        },
        {
          "duration": 0.041666666666685614,
          "durationTicks": 10,
          "midi": 79,
          "name": "G5",
          "ticks": 57549,
          "time": 239.7875,
          "velocity": 0.1968503937007874
        },
        {
          "duration": 0.1708333333333485,
          "durationTicks": 41,
          "midi": 67,
          "name": "G4",
          "ticks": 57563,
          "time": 239.84583333333333,
          "velocity": 0.4566929133858268
        },
        {
          "duration": 0.17083333333332007,
          "durationTicks": 41,
          "midi": 45,
          "name": "A2",
          "ticks": 57592,
          "time": 239.96666666666667,
          "velocity": 0.3464566929133858
        },
        {
          "duration": 0.04999999999998295,
          "durationTicks": 12,
          "midi": 98,
          "name": "D7",
          "ticks": 57619,
          "time": 240.07916666666668,
          "velocity": 0.1889763779527559
        },
        {
          "duration": 0.13333333333332575,
          "durationTicks": 32,
          "midi": 57,
          "name": "A3",
          "ticks": 57659,
          "time": 240.24583333333334,
          "velocity": 0.36220472440944884
        },
        {
          "duration": 0.04166666666665719,
          "durationTicks": 10,
          "midi": 76,
          "name": "E5",
          "ticks": 57695,
          "time": 240.39583333333334,
          "velocity": 0.31496062992125984
        },
        {
          "duration": 0.12916666666666288,
          "durationTicks": 31,
          "midi": 69,
          "name": "A4",
          "ticks": 57710,
          "time": 240.45833333333334,
          "velocity": 0.41732283464566927
        },
        {
          "duration": 0.0625,
          "durationTicks": 15,
          "midi": 38,
          "name": "D2",
          "ticks": 57736,
          "time": 240.56666666666666,
          "velocity": 0.2283464566929134
        },
        {
          "duration": 0.09999999999999432,
          "durationTicks": 24,
          "midi": 64,
          "name": "E4",
          "ticks": 57796,
          "time": 240.81666666666666,
          "velocity": 0.3937007874015748
        },
        {
          "duration": 0.0625,
          "durationTicks": 15,
          "midi": 57,
          "name": "A3",
          "ticks": 57851,
          "time": 241.04583333333332,
          "velocity": 0.4881889763779528
        },
        {
          "duration": 0.07083333333332575,
          "durationTicks": 17,
          "midi": 69,
          "name": "A4",
          "ticks": 57878,
          "time": 241.15833333333333,
          "velocity": 0.4330708661417323
        },
        {
          "duration": 0.041666666666685614,
          "durationTicks": 10,
          "midi": 64,
          "name": "E4",
          "ticks": 57880,
          "time": 241.16666666666666,
          "velocity": 0.4015748031496063
        },
        {
          "duration": 0.07083333333335418,
          "durationTicks": 17,
          "midi": 50,
          "name": "D3",
          "ticks": 57926,
          "time": 241.35833333333332,
          "velocity": 0.33858267716535434
        },
        {
          "duration": 0.0625,
          "durationTicks": 15,
          "midi": 81,
          "name": "A5",
          "ticks": 57952,
          "time": 241.46666666666667,
          "velocity": 0.29133858267716534
        },
        {
          "duration": 0.0625,
          "durationTicks": 15,
          "midi": 74,
          "name": "D5",
          "ticks": 57959,
          "time": 241.49583333333334,
          "velocity": 0.49606299212598426
        },
        {
          "duration": 0.04166666666665719,
          "durationTicks": 10,
          "midi": 79,
          "name": "G5",
          "ticks": 57983,
          "time": 241.59583333333333,
          "velocity": 0.16535433070866143
        },
        {
          "duration": 0.07083333333335418,
          "durationTicks": 17,
          "midi": 81,
          "name": "A5",
          "ticks": 58007,
          "time": 241.69583333333333,
          "velocity": 0.29133858267716534
        },
        {
          "duration": 0.07083333333335418,
          "durationTicks": 17,
          "midi": 76,
          "name": "E5",
          "ticks": 58031,
          "time": 241.79583333333332,
          "velocity": 0.30708661417322836
        },
        {
          "duration": 0.12916666666666288,
          "durationTicks": 31,
          "midi": 69,
          "name": "A4",
          "ticks": 58058,
          "time": 241.90833333333333,
          "velocity": 0.31496062992125984
        },
        {
          "duration": 0.26249999999998863,
          "durationTicks": 63,
          "midi": 30,
          "name": "F#1",
          "ticks": 58115,
          "time": 242.14583333333334,
          "velocity": 0.3858267716535433
        },
        {
          "duration": 0.05000000000001137,
          "durationTicks": 12,
          "midi": 32,
          "name": "G#1",
          "ticks": 58156,
          "time": 242.31666666666666,
          "velocity": 0.33858267716535434
        },
        {
          "duration": 0.1708333333333485,
          "durationTicks": 41,
          "midi": 67,
          "name": "G4",
          "ticks": 58211,
          "time": 242.54583333333332,
          "velocity": 0.28346456692913385
        },
        {
          "duration": 0.09999999999999432,
          "durationTicks": 24,
          "midi": 55,
          "name": "G3",
          "ticks": 58264,
          "time": 242.76666666666668,
          "velocity": 0.4330708661417323
        },
        {
          "duration": 0.14166666666667993,
          "durationTicks": 34,
          "midi": 83,
          "name": "B5",
          "ticks": 58300,
          "time": 242.91666666666666,
          "velocity": 0.4094488188976378
        },
        {
          "duration": 0.26250000000001705,
          "durationTicks": 63,
          "midi": 83,
          "name": "B5",
          "ticks": 58360,
          "time": 243.16666666666666,
          "velocity": 0.5039370078740157
        },
        {
          "duration": 0.07916666666665151,
          "durationTicks": 19,
          "midi": 91,
          "name": "G6",
          "ticks": 58461,
          "time": 243.5875,
          "velocity": 0.07874015748031496
        },
        {
          "duration": 0.1708333333333485,
          "durationTicks": 41,
          "midi": 83,
          "name": "B5",
          "ticks": 58473,
          "time": 243.6375,
          "velocity": 0.2283464566929134
        },
        {
          "duration": 0.037499999999994316,
          "durationTicks": 9,
          "midi": 31,
          "name": "G1",
          "ticks": 58483,
          "time": 243.67916666666667,
          "velocity": 0.1889763779527559
        },
        {
          "duration": 0.15000000000000568,
          "durationTicks": 36,
          "midi": 81,
          "name": "A5",
          "ticks": 58526,
          "time": 243.85833333333332,
          "velocity": 0.4015748031496063
        },
        {
          "duration": 0.0625,
          "durationTicks": 15,
          "midi": 83,
          "name": "B5",
          "ticks": 58559,
          "time": 243.99583333333334,
          "velocity": 0.16535433070866143
        },
        {
          "duration": 0.04166666666665719,
          "durationTicks": 10,
          "midi": 31,
          "name": "G1",
          "ticks": 58612,
          "time": 244.21666666666667,
          "velocity": 0.16535433070866143
        },
        {
          "duration": 0.07083333333335418,
          "durationTicks": 17,
          "midi": 67,
          "name": "G4",
          "ticks": 58622,
          "time": 244.25833333333333,
          "velocity": 0.44881889763779526
        },
        {
          "duration": 0.07083333333332575,
          "durationTicks": 17,
          "midi": 49,
          "name": "C#3",
          "ticks": 58636,
          "time": 244.31666666666666,
          "velocity": 0.2677165354330709
        },
        {
          "duration": 0.12083333333333712,
          "durationTicks": 29,
          "midi": 67,
          "name": "G4",
          "ticks": 58648,
          "time": 244.36666666666667,
          "velocity": 0.33858267716535434
        },
        {
          "duration": 0.2291666666666572,
          "durationTicks": 55,
          "midi": 69,
          "name": "A4",
          "ticks": 58694,
          "time": 244.55833333333334,
          "velocity": 0.5039370078740157
        },
        {
          "duration": 0.04999999999998295,
          "durationTicks": 12,
          "midi": 57,
          "name": "A3",
          "ticks": 58723,
          "time": 244.67916666666667,
          "velocity": 0.4094488188976378
        },
        {
          "duration": 0.23333333333332007,
          "durationTicks": 56,
          "midi": 98,
          "name": "D7",
          "ticks": 58739,
          "time": 244.74583333333334,
          "velocity": 0.44881889763779526
        },
        {
          "duration": 0.2083333333333428,
          "durationTicks": 50,
          "midi": 62,
          "name": "D4",
          "ticks": 58802,
          "time": 245.00833333333333,
          "velocity": 0.49606299212598426
        },
        {
          "duration": 0.09999999999999432,
          "durationTicks": 24,
          "midi": 29,
          "name": "F1",
          "ticks": 58850,
          "time": 245.20833333333334,
          "velocity": 0.4251968503937008
        },
        {
          "duration": 0.0583333333333087,
          "durationTicks": 14,
          "midi": 84,
          "name": "C6",
          "ticks": 58879,
          "time": 245.32916666666668,
          "velocity": 0.33070866141732286
        },
        {
          "duration": 0.07916666666667993,
          "durationTicks": 19,
          "midi": 48,
          "name": "C3",
          "ticks": 58900,
          "time": 245.41666666666666,
          "velocity": 0.33858267716535434
        },
        {
          "duration": 0.18333333333333712,
          "durationTicks": 44,
          "midi": 67,
          "name": "G4",
          "ticks": 58955,
          "time": 245.64583333333334,
          "velocity": 0.44881889763779526
        },
        {
          "duration": 0.07083333333332575,
          "durationTicks": 17,
          "midi": 88,
          "name": "E6",
          "ticks": 58989,
          "time": 245.7875,
          "velocity": 0.2204724409448819
        },
        {
          "duration": 0.1875,
          "durationTicks": 45,
          "midi": 86,
          "name": "D6",
          "ticks": 59011,
          "time": 245.87916666666666,
          "velocity": 0.2677165354330709
        },
        {
          "duration": 0.04999999999998295,
          "durationTicks": 12,
          "midi": 43,
          "name": "G2",
          "ticks": 59061,
          "time": 246.0875,
          "velocity": 0.47244094488188976
        },
        {
          "duration": 0.041666666666685614,
          "durationTicks": 10,
          "midi": 79,
          "name": "G5",
          "ticks": 59080,
          "time": 246.16666666666666,
          "velocity": 0.4566929133858268
        },
        {
          "duration": 0.2583333333333542,
          "durationTicks": 62,
          "midi": 32,
          "name": "G#1",
          "ticks": 59155,
          "time": 246.47916666666666,
          "velocity": 0.4015748031496063
        },
        {
          "duration": 0.05833333333333712,
          "durationTicks": 14,
          "midi": 84,
          "name": "C6",
          "ticks": 59203,
          "time": 246.67916666666667,
          "velocity": 0.2755905511811024
        },
        {
          "duration": 0.05833333333333712,
          "durationTicks": 14,
          "midi": 98,
          "name": "D7",
          "ticks": 59282,
          "time": 247.00833333333333,
          "velocity": 0.14173228346456693
        },
        {
          "duration": 0.14999999999997726,
          "durationTicks": 36,
          "midi": 86,
          "name": "D6",
          "ticks": 59359,
          "time": 247.32916666666668,
          "velocity": 0.3543307086614173
        },
        {
          "duration": 0.14166666666667993,
          "durationTicks": 34,
          "midi": 28,
          "name": "E1",
          "ticks": 59387,
          "time": 247.44583333333333,
          "velocity": 0.4330708661417323
        },
        {
          "duration": 0.10000000000002274,
          "durationTicks": 24,
          "midi": 98,
          "name": "D7",
          "ticks": 59455,
          "time": 247.72916666666666,
          "velocity": 0.3858267716535433
        },
        {
          "duration": 0.10000000000002274,
          "durationTicks": 24,
          "midi": 55,
          "name": "G3",
          "ticks": 59575,
          "time": 248.22916666666666,
          "velocity": 0.5433070866141733
        },
        {
          "duration": 0.04166666666665719,
          "durationTicks": 10,
          "midi": 93,
          "name": "A6",
          "ticks": 59625,
          "time": 248.4375,
          "velocity": 0.14960629921259844
        },
        {
          "duration": 0.0625,
          "durationTicks": 15,
          "midi": 55,
          "name": "G3",
          "ticks": 59639,
          "time": 248.49583333333334,
          "velocity": 0.18110236220472442
        },
        {
          "duration": 0.1875,
          "durationTicks": 45,
          "midi": 45,
          "name": "A2",
          "ticks": 59683,
          "time": 248.67916666666667,
          "velocity": 0.3779527559055118
        },
        {
          "duration": 0.05000000000001137,
          "durationTicks": 12,
          "midi": 62,
          "name": "D4",
          "ticks": 59762,
          "time": 249.00833333333333,
          "velocity": 0.3228346456692913
        },
        {
          "duration": 0.15000000000000568,
          "durationTicks": 36,
          "midi": 45,
          "name": "A2",
          "ticks": 59776,
          "time": 249.06666666666666,
          "velocity": 0.3858267716535433
        },
        {
          "duration": 0.09166666666666856,
          "durationTicks": 22,
          "midi": 64,
          "name": "E4",
          "ticks": 59805,
          "time": 249.1875,
          "velocity": 0.3779527559055118
        },
        {
          "duration": 0.07916666666667993,
          "durationTicks": 19,
          "midi": 31,
          "name": "G1",
          "ticks": 59822,
          "time": 249.25833333333333,
          "velocity": 0.1732283464566929
        },
        {
          "duration": 0.17083333333332007,
          "durationTicks": 41,
          "midi": 84,
          "name": "C6",
          "ticks": 59930,
          "time": 249.70833333333334,
          "velocity": 0.4330708661417323
        },
        {
          "duration": 0.037499999999994316,
          "durationTicks": 9,
          "midi": 60,
          "name": "C4",
          "ticks": 59978,
          "time": 249.90833333333333,
          "velocity": 0.33858267716535434
        },
        {
          "duration": 0.04166666666665719,
          "durationTicks": 10,
          "midi": 84,
          "name": "C6",
          "ticks": 59985,
          "time": 249.9375,
          "velocity": 0.25196850393700787
        },
        {
          "duration": 0.19999999999998863,
          "durationTicks": 48,
          "midi": 31,
          "name": "G1",
          "ticks": 60057,
          "time": 250.2375,
          "velocity": 0.2440944881889764
        },
        {
          "duration": 0.07916666666665151,
          "durationTicks": 19,
          "midi": 40,
          "name": "E2",
          "ticks": 60230,
          "time": 250.95833333333334,
          "velocity": 0.2440944881889764
        },
        {
          "duration": 0.04166666666665719,
          "durationTicks": 10,
          "midi": 32,
          "name": "G#1",
          "ticks": 60256,
          "time": 251.06666666666666,
          "velocity": 0.29133858267716534
        },
        {
          "duration": 0.03750000000002274,
          "durationTicks": 9,
          "midi": 40,
          "name": "E2",
          "ticks": 60266,
          "time": 251.10833333333332,
          "velocity": 0.18110236220472442
        },
        {
          "duration": 0.04166666666665719,
          "durationTicks": 10,
          "midi": 32,
          "name": "G#1",
          "ticks": 60359,
          "time": 251.49583333333334,
          "velocity": 0.2992125984251969
        },
        {
          "duration": 0.13750000000001705,
          "durationTicks": 33,
          "midi": 64,
          "name": "E4",
          "ticks": 60451,
          "time": 251.87916666666666,
          "velocity": 0.4330708661417323
        },
        {
          "duration": 0.05000000000001137,
          "durationTicks": 12,
          "midi": 52,
          "name": "E3",
          "ticks": 60467,
          "time": 251.94583333333333,
          "velocity": 0.1968503937007874
        },
        {
          "duration": 0.27916666666666856,
          "durationTicks": 67,
          "midi": 83,
          "name": "B5",
          "ticks": 60518,
          "time": 252.15833333333333,
          "velocity": 0.18110236220472442
        },
        {
          "duration": 0.08749999999997726,
          "durationTicks": 21,
          "midi": 64,
          "name": "E4",
          "ticks": 60530,
          "time": 252.20833333333334,
          "velocity": 0.09448818897637795
        },
        {
          "duration": 0.05833333333333712,
          "durationTicks": 14,
          "midi": 34,
          "name": "A#1",
          "ticks": 60909,
          "time": 253.7875,
          "velocity": 0.2204724409448819
        },
        {
          "duration": 0.0583333333333087,
          "durationTicks": 14,
          "midi": 48,
          "name": "C3",
          "ticks": 61017,
          "time": 254.2375,
          "velocity": 0.1732283464566929
        },
        {
          "duration": 0.26250000000001705,
          "durationTicks": 63,
          "midi": 43,
          "name": "G2",
          "ticks": 61060,
          "time": 254.41666666666666,
          "velocity": 0.4881889763779528
        },
        {
          "duration": 0.09166666666666856,
          "durationTicks": 22,
          "midi": 86,
          "name": "D6",
          "ticks": 61065,
          "time": 254.4375,
          "velocity": 0.28346456692913385
        },
        {
          "duration": 0.09166666666666856,
          "durationTicks": 22,
          "midi": 50,
          "name": "D3",
          "ticks": 61156,
          "time": 254.81666666666666,
          "velocity": 0.3779527559055118
        },
        {
          "duration": 0.037499999999994316,
          "durationTicks": 9,
          "midi": 43,
          "name": "G2",
          "ticks": 61171,
          "time": 254.87916666666666,
          "velocity": 0.23622047244094488
        },
        {
          "duration": 0.08750000000000568,
          "durationTicks": 21,
          "midi": 43,
          "name": "G2",
          "ticks": 61262,
          "time": 255.25833333333333,
          "velocity": 0.4566929133858268
        },
        {
          "duration": 0.15000000000000568,
          "durationTicks": 36,
          "midi": 60,
          "name": "C4",
          "ticks": 61406,
          "time": 255.85833333333332,
          "velocity": 0.33070866141732286
        },
        {
          "duration": 0.11249999999998295,
          "durationTicks": 27,
          "midi": 74,
          "name": "D5",
          "ticks": 61408,
          "time": 255.86666666666667,
          "velocity": 0.2204724409448819
        },
        {
          "duration": 0.23749999999998295,
          "durationTicks": 57,
          "midi": 76,
          "name": "E5",
          "ticks": 61435,
          "time": 255.97916666666666,
          "velocity": 0.3779527559055118
        },
        {
          "duration": 0.05000000000001137,
          "durationTicks": 12,
          "midi": 55,
          "name": "G3",
          "ticks": 61487,
          "time": 256.1958333333333,
          "velocity": 0.31496062992125984
        },
        {
          "duration": 0.3916666666666515,
          "durationTicks": 94,
          "midi": 60,
          "name": "C4",
          "ticks": 61511,
          "time": 256.29583333333335,
          "velocity": 0.31496062992125984
        },
        {
          "duration": 0.07916666666665151,
          "durationTicks": 19,
          "midi": 55,
          "name": "G3",
          "ticks": 61708,
          "time": 257.1166666666667,
          "velocity": 0.2992125984251969
        },
        {
          "duration": 0.05833333333333712,
          "durationTicks": 14,
          "midi": 43,
          "name": "G2",
          "ticks": 62114,
          "time": 258.80833333333334,
          "velocity": 0.31496062992125984
        },
        {
          "duration": 0.05833333333333712,
          "durationTicks": 14,
          "midi": 50,
          "name": "D3",
          "ticks": 62205,
          "time": 259.1875,
          "velocity": 0.2440944881889764
        },
        {
          "duration": 0.17916666666667425,
          "durationTicks": 43,
          "midi": 53,
          "name": "F3",
          "ticks": 62296,
          "time": 259.56666666666666,
          "velocity": 0.3937007874015748
        },
        {
          "duration": 0.12916666666666288,
          "durationTicks": 31,
          "midi": 79,
          "name": "G5",
          "ticks": 62342,
          "time": 259.7583333333333,
          "velocity": 0.4094488188976378
        },
        {
          "duration": 0.24166666666667425,
          "durationTicks": 58,
          "midi": 48,
          "name": "C3",
          "ticks": 62368,
          "time": 259.8666666666667,
          "velocity": 0.4881889763779528
        },
        {
          "duration": 0.05000000000001137,
          "durationTicks": 12,
          "midi": 67,
          "name": "G4",
          "ticks": 62450,
          "time": 260.2083333333333,
          "velocity": 0.3937007874015748
        },
        {
          "duration": 0.05833333333333712,
          "durationTicks": 14,
          "midi": 55,
          "name": "G3",
          "ticks": 62481,
          "time": 260.3375,
          "velocity": 0.3543307086614173
        },
        {
          "duration": 0.25,
          "durationTicks": 60,
          "midi": 36,
          "name": "C2",
          "ticks": 62594,
          "time": 260.80833333333334,
          "velocity": 0.11023622047244094
        },
        {
          "duration": 0.07083333333332575,
          "durationTicks": 17,
          "midi": 55,
          "name": "G3",
          "ticks": 62630,
          "time": 260.9583333333333,
          "velocity": 0.11023622047244094
        },
        {
          "duration": 0.10000000000002274,
          "durationTicks": 24,
          "midi": 86,
          "name": "D6",
          "ticks": 62690,
          "time": 261.2083333333333,
          "velocity": 0.2125984251968504
        },
        {
          "duration": 0.07916666666665151,
          "durationTicks": 19,
          "midi": 86,
          "name": "D6",
          "ticks": 62728,
          "time": 261.3666666666667,
          "velocity": 0.18110236220472442
        },
        {
          "duration": 0.20833333333331439,
          "durationTicks": 50,
          "midi": 83,
          "name": "B5",
          "ticks": 62743,
          "time": 261.4291666666667,
          "velocity": 0.2204724409448819
        },
        {
          "duration": 0.04166666666662877,
          "durationTicks": 10,
          "midi": 88,
          "name": "E6",
          "ticks": 62949,
          "time": 262.2875,
          "velocity": 0.13385826771653545
        },
        {
          "duration": 0.05833333333328028,
          "durationTicks": 14,
          "midi": 31,
          "name": "G1",
          "ticks": 62978,
          "time": 262.40833333333336,
          "velocity": 0.2125984251968504
        },
        {
          "duration": 0.04166666666662877,
          "durationTicks": 10,
          "midi": 62,
          "name": "D4",
          "ticks": 63143,
          "time": 263.09583333333336,
          "velocity": 0.36220472440944884
        },
        {
          "duration": 0.10833333333334849,
          "durationTicks": 26,
          "midi": 64,
          "name": "E4",
          "ticks": 63405,
          "time": 264.1875,
          "velocity": 0.3228346456692913
        },
        {
          "duration": 0.12083333333333712,
          "durationTicks": 29,
          "midi": 64,
          "name": "E4",
          "ticks": 63508,
          "time": 264.6166666666667,
          "velocity": 0.3228346456692913
        },
        {
          "duration": 0.05833333333333712,
          "durationTicks": 14,
          "midi": 74,
          "name": "D5",
          "ticks": 63523,
          "time": 264.6791666666667,
          "velocity": 0.2047244094488189
        },
        {
          "duration": 0.04166666666662877,
          "durationTicks": 10,
          "midi": 52,
          "name": "E3",
          "ticks": 63609,
          "time": 265.0375,
          "velocity": 0.25196850393700787
        },
        {
          "duration": 0.05000000000001137,
          "durationTicks": 12,
          "midi": 33,
          "name": "A1",
          "ticks": 63662,
          "time": 265.2583333333333,
          "velocity": 0.4409448818897638
        },
        {
          "duration": 0.05833333333333712,
          "durationTicks": 14,
          "midi": 55,
          "name": "G3",
          "ticks": 63669,
          "time": 265.2875,
          "velocity": 0.3779527559055118
        },
        {
          "duration": 0.05000000000001137,
          "durationTicks": 12,
          "midi": 45,
          "name": "A2",
          "ticks": 63679,
          "time": 265.32916666666665,
          "velocity": 0.29133858267716534
        },
        {
          "duration": 0.07083333333332575,
          "durationTicks": 17,
          "midi": 102,
          "name": "F#7",
          "ticks": 63686,
          "time": 265.35833333333335,
          "velocity": 0.33070866141732286
        },
        {
          "duration": 0.0625,
          "durationTicks": 15,
          "midi": 69,
          "name": "A4",
          "ticks": 63719,
          "time": 265.49583333333334,
          "velocity": 0.23622047244094488
        },
        {
          "duration": 0.11666666666667425,
          "durationTicks": 28,
          "midi": 88,
          "name": "E6",
          "ticks": 63751,
          "time": 265.62916666666666,
          "velocity": 0.2755905511811024
        },
        {
          "duration": 0.09166666666669698,
          "durationTicks": 22,
          "midi": 93,
          "name": "A6",
          "ticks": 64012,
          "time": 266.71666666666664,
          "velocity": 0.25196850393700787
        },
        {
          "duration": 0.11250000000001137,
          "durationTicks": 27,
          "midi": 81,
          "name": "A5",
          "ticks": 64055,
          "time": 266.8958333333333,
          "velocity": 0.12598425196850394
        },
        {
          "duration": 0.08333333333337123,
          "durationTicks": 20,
          "midi": 76,
          "name": "E5",
          "ticks": 64295,
          "time": 267.8958333333333,
          "velocity": 0.33858267716535434
        },
        {
          "duration": 0.09166666666664014,
          "durationTicks": 22,
          "midi": 81,
          "name": "A5",
          "ticks": 64451,
          "time": 268.54583333333335,
          "velocity": 0.14173228346456693
        },
        {
          "duration": 0.13333333333332575,
          "durationTicks": 32,
          "midi": 62,
          "name": "D4",
          "ticks": 64463,
          "time": 268.59583333333336,
          "velocity": 0.1889763779527559
        },
        {
          "duration": 0.06666666666666288,
          "durationTicks": 16,
          "midi": 83,
          "name": "B5",
          "ticks": 64519,
          "time": 268.82916666666665,
          "velocity": 0.2125984251968504
        },
        {
          "duration": 0.0875000000000341,
          "durationTicks": 21,
          "midi": 83,
          "name": "B5",
          "ticks": 64567,
          "time": 269.02916666666664,
          "velocity": 0.2047244094488189
        },
        {
          "duration": 0.05000000000001137,
          "durationTicks": 12,
          "midi": 64,
          "name": "E4",
          "ticks": 64648,
          "time": 269.3666666666667,
          "velocity": 0.2677165354330709
        },
        {
          "duration": 0.07083333333332575,
          "durationTicks": 17,
          "midi": 52,
          "name": "E3",
          "ticks": 64658,
          "time": 269.40833333333336,
          "velocity": 0.30708661417322836
        },
        {
          "duration": 0.07916666666665151,
          "durationTicks": 19,
          "midi": 52,
          "name": "E3",
          "ticks": 64754,
          "time": 269.80833333333334,
          "velocity": 0.3543307086614173
        },
        {
          "duration": 0.22083333333330302,
          "durationTicks": 53,
          "midi": 64,
          "name": "E4",
          "ticks": 65169,
          "time": 271.5375,
          "velocity": 0.25984251968503935
        },
        {
          "duration": 0.10000000000002274,
          "durationTicks": 24,
          "midi": 88,
          "name": "E6",
          "ticks": 65267,
          "time": 271.9458333333333,
          "velocity": 0.11811023622047244
        },
        {
          "duration": 0.1708333333333485,
          "durationTicks": 41,
          "midi": 74,
          "name": "D5",
          "ticks": 65296,
          "time": 272.06666666666666,
          "velocity": 0.28346456692913385
        },
        {
          "duration": 0.11250000000001137,
          "durationTicks": 27,
          "midi": 31,
          "name": "G1",
          "ticks": 65591,
          "time": 273.29583333333335,
          "velocity": 0.1889763779527559
        },
        {
          "duration": 0.037499999999965894,
          "durationTicks": 9,
          "midi": 86,
          "name": "D6",
          "ticks": 65815,
          "time": 274.2291666666667,
          "velocity": 0.14173228346456693
        },
        {
          "duration": 0.1500000000000341,
          "durationTicks": 36,
          "midi": 55,
          "name": "G3",
          "ticks": 65841,
          "time": 274.3375,
          "velocity": 0.2677165354330709
        },
        {
          "duration": 0.19999999999998863,
          "durationTicks": 48,
          "midi": 57,
          "name": "A3",
          "ticks": 66218,
          "time": 275.90833333333336,
          "velocity": 0.15748031496062992
        },
        {
          "duration": 0.3708333333333371,
          "durationTicks": 89,
          "midi": 79,
          "name": "G5",
          "ticks": 66309,
          "time": 276.2875,
          "velocity": 0.13385826771653545
        },
        {
          "duration": 0.13333333333332575,
          "durationTicks": 32,
          "midi": 60,
          "name": "C4",
          "ticks": 66479,
          "time": 276.99583333333334,
          "velocity": 0.11023622047244094
        },
        {
          "duration": 0.07083333333332575,
          "durationTicks": 17,
          "midi": 84,
          "name": "C6",
          "ticks": 66645,
          "time": 277.6875,
          "velocity": 0.08661417322834646
        },
        {
          "duration": 0.20833333333337123,
          "durationTicks": 50,
          "midi": 64,
          "name": "E4",
          "ticks": 66741,
          "time": 278.0875,
          "velocity": 0.2677165354330709
        },
        {
          "duration": 0.23333333333329165,
          "durationTicks": 56,
          "midi": 31,
          "name": "G1",
          "ticks": 66863,
          "time": 278.59583333333336,
          "velocity": 0.16535433070866143
        },
        {
          "duration": 0.0625,
          "durationTicks": 15,
          "midi": 83,
          "name": "B5",
          "ticks": 67175,
          "time": 279.8958333333333,
          "velocity": 0.23622047244094488
        },
        {
          "duration": 0.12916666666666288,
          "durationTicks": 31,
          "midi": 57,
          "name": "A3",
          "ticks": 67262,
          "time": 280.2583333333333,
          "velocity": 0.23622047244094488
        },
        {
          "duration": 0.07916666666665151,
          "durationTicks": 19,
          "midi": 57,
          "name": "A3",
          "ticks": 67363,
          "time": 280.6791666666667,
          "velocity": 0.14173228346456693
        },
        {
          "duration": 0.07916666666665151,
          "durationTicks": 19,
          "midi": 31,
          "name": "G1",
          "ticks": 67382,
          "time": 280.7583333333333,
          "velocity": 0.29133858267716534
        },
        {
          "duration": 0.05000000000001137,
          "durationTicks": 12,
          "midi": 69,
          "name": "A4",
          "ticks": 67437,
          "time": 280.9875,
          "velocity": 0.14960629921259844
        },
        {
          "duration": 0.19999999999998863,
          "durationTicks": 48,
          "midi": 76,
          "name": "E5",
          "ticks": 67658,
          "time": 281.90833333333336,
          "velocity": 0.16535433070866143
        },
        {
          "duration": 0.037499999999965894,
          "durationTicks": 9,
          "midi": 88,
          "name": "E6",
          "ticks": 67706,
          "time": 282.10833333333335,
          "velocity": 0.2204724409448819
        },
        {
          "duration": 0.14999999999997726,
          "durationTicks": 36,
          "midi": 74,
          "name": "D5",
          "ticks": 67915,
          "time": 282.9791666666667,
          "velocity": 0.2755905511811024
        },
        {
          "duration": 0.0999999999999659,
          "durationTicks": 24,
          "midi": 76,
          "name": "E5",
          "ticks": 67948,
          "time": 283.1166666666667,
          "velocity": 0.09448818897637795
        },
        {
          "duration": 0.07916666666665151,
          "durationTicks": 19,
          "midi": 64,
          "name": "E4",
          "ticks": 68215,
          "time": 284.2291666666667,
          "velocity": 0.14173228346456693
        },
        {
          "duration": 0.19999999999998863,
          "durationTicks": 48,
          "midi": 57,
          "name": "A3",
          "ticks": 68313,
          "time": 284.6375,
          "velocity": 0.1889763779527559
        },
        {
          "duration": 0.08749999999997726,
          "durationTicks": 21,
          "midi": 67,
          "name": "G4",
          "ticks": 68474,
          "time": 285.30833333333334,
          "velocity": 0.28346456692913385
        },
        {
          "duration": 0.07916666666665151,
          "durationTicks": 19,
          "midi": 67,
          "name": "G4",
          "ticks": 68577,
          "time": 285.7375,
          "velocity": 0.08661417322834646
        },
        {
          "duration": 0.0625,
          "durationTicks": 15,
          "midi": 57,
          "name": "A3",
          "ticks": 68639,
          "time": 285.99583333333334,
          "velocity": 0.07874015748031496
        },
        {
          "duration": 0.09166666666664014,
          "durationTicks": 22,
          "midi": 38,
          "name": "D2",
          "ticks": 68663,
          "time": 286.09583333333336,
          "velocity": 0.18110236220472442
        },
        {
          "duration": 0.037499999999965894,
          "durationTicks": 9,
          "midi": 57,
          "name": "A3",
          "ticks": 68738,
          "time": 286.40833333333336,
          "velocity": 0.16535433070866143
        },
        {
          "duration": 0.12916666666666288,
          "durationTicks": 31,
          "midi": 45,
          "name": "A2",
          "ticks": 68757,
          "time": 286.4875,
          "velocity": 0.2283464566929134
        },
        {
          "duration": 0.19999999999998863,
          "durationTicks": 48,
          "midi": 60,
          "name": "C4",
          "ticks": 68839,
          "time": 286.82916666666665,
          "velocity": 0.14960629921259844
        },
        {
          "duration": 0.09166666666669698,
          "durationTicks": 22,
          "midi": 84,
          "name": "C6",
          "ticks": 68867,
          "time": 286.9458333333333,
          "velocity": 0.08661417322834646
        },
        {
          "duration": 0.049999999999954525,
          "durationTicks": 12,
          "midi": 96,
          "name": "C7",
          "ticks": 68935,
          "time": 287.2291666666667,
          "velocity": 0.14960629921259844
        },
        {
          "duration": 0.09166666666664014,
          "durationTicks": 22,
          "midi": 83,
          "name": "B5",
          "ticks": 68939,
          "time": 287.24583333333334,
          "velocity": 0.3228346456692913
        },
        {
          "duration": 0.26666666666670835,
          "durationTicks": 64,
          "midi": 60,
          "name": "C4",
          "ticks": 69187,
          "time": 288.27916666666664,
          "velocity": 0.11023622047244094
        },
        {
          "duration": 0.08749999999997726,
          "durationTicks": 21,
          "midi": 69,
          "name": "A4",
          "ticks": 69218,
          "time": 288.40833333333336,
          "velocity": 0.09448818897637795
        },
        {
          "duration": 0.08333333333331439,
          "durationTicks": 20,
          "midi": 57,
          "name": "A3",
          "ticks": 69263,
          "time": 288.59583333333336,
          "velocity": 0.2992125984251969
        },
        {
          "duration": 0.20833333333331439,
          "durationTicks": 50,
          "midi": 60,
          "name": "C4",
          "ticks": 69362,
          "time": 289.0083333333333,
          "velocity": 0.2283464566929134
        },
        {
          "duration": 0.09166666666664014,
          "durationTicks": 22,
          "midi": 57,
          "name": "A3",
          "ticks": 69460,
          "time": 289.4166666666667,
          "velocity": 0.29133858267716534
        },
        {
          "duration": 0.2666666666666515,
          "durationTicks": 64,
          "midi": 31,
          "name": "G1",
          "ticks": 69475,
          "time": 289.4791666666667,
          "velocity": 0.2992125984251969
        },
        {
          "duration": 0.24166666666667425,
          "durationTicks": 58,
          "midi": 64,
          "name": "E4",
          "ticks": 69616,
          "time": 290.06666666666666,
          "velocity": 0.2283464566929134
        },
        {
          "duration": 0.12083333333333712,
          "durationTicks": 29,
          "midi": 79,
          "name": "G5",
          "ticks": 69645,
          "time": 290.1875,
          "velocity": 0.14960629921259844
        },
        {
          "duration": 0.07083333333332575,
          "durationTicks": 17,
          "midi": 71,
          "name": "B4",
          "ticks": 69743,
          "time": 290.59583333333336,
          "velocity": 0.07874015748031496
        },
        {
          "duration": 0.049999999999954525,
          "durationTicks": 12,
          "midi": 83,
          "name": "B5",
          "ticks": 69775,
          "time": 290.7291666666667,
          "velocity": 0.3228346456692913
        },
        {
          "duration": 0.0875000000000341,
          "durationTicks": 21,
          "midi": 62,
          "name": "D4",
          "ticks": 69782,
          "time": 290.7583333333333,
          "velocity": 0.4094488188976378
        },
        {
          "duration": 0.09166666666669698,
          "durationTicks": 22,
          "midi": 55,
          "name": "G3",
          "ticks": 69887,
          "time": 291.1958333333333,
          "velocity": 0.3464566929133858
        },
        {
          "duration": 0.049999999999954525,
          "durationTicks": 12,
          "midi": 43,
          "name": "G2",
          "ticks": 70000,
          "time": 291.6666666666667,
          "velocity": 0.3464566929133858
        },
        {
          "duration": 0.11666666666667425,
          "durationTicks": 28,
          "midi": 79,
          "name": "G5",
          "ticks": 70171,
          "time": 292.37916666666666,
          "velocity": 0.15748031496062992
        },
        {
          "duration": 0.07083333333332575,
          "durationTicks": 17,
          "midi": 88,
          "name": "E6",
          "ticks": 70202,
          "time": 292.5083333333333,
          "velocity": 0.11811023622047244
        },
        {
          "duration": 0.10000000000002274,
          "durationTicks": 24,
          "midi": 64,
          "name": "E4",
          "ticks": 70274,
          "time": 292.80833333333334,
          "velocity": 0.10236220472440945
        },
        {
          "duration": 0.14166666666670835,
          "durationTicks": 34,
          "midi": 72,
          "name": "C5",
          "ticks": 70295,
          "time": 292.8958333333333,
          "velocity": 0.2677165354330709
        },
        {
          "duration": 0.10833333333329165,
          "durationTicks": 26,
          "midi": 60,
          "name": "C4",
          "ticks": 70406,
          "time": 293.35833333333335,
          "velocity": 0.2755905511811024
        },
        {
          "duration": 0.36250000000001137,
          "durationTicks": 87,
          "midi": 57,
          "name": "A3",
          "ticks": 70504,
          "time": 293.76666666666665,
          "velocity": 0.15748031496062992
        },
        {
          "duration": 0.26249999999998863,
          "durationTicks": 63,
          "midi": 64,
          "name": "E4",
          "ticks": 70660,
          "time": 294.4166666666667,
          "velocity": 0.15748031496062992
        },
        {
          "duration": 0.3125,
          "durationTicks": 75,
          "midi": 64,
          "name": "E4",
          "ticks": 70744,
          "time": 294.76666666666665,
          "velocity": 0.07874015748031496
        },
        {
          "duration": 0.07916666666665151,
          "durationTicks": 19,
          "midi": 76,
          "name": "E5",
          "ticks": 70828,
          "time": 295.1166666666667,
          "velocity": 0.14960629921259844
        },
        {
          "duration": 0.07916666666665151,
          "durationTicks": 19,
          "midi": 60,
          "name": "C4",
          "ticks": 70833,
          "time": 295.1375,
          "velocity": 0.13385826771653545
        },
        {
          "duration": 0.07083333333332575,
          "durationTicks": 17,
          "midi": 64,
          "name": "E4",
          "ticks": 70929,
          "time": 295.5375,
          "velocity": 0.09448818897637795
        },
        {
          "duration": 0.0999999999999659,
          "durationTicks": 24,
          "midi": 64,
          "name": "E4",
          "ticks": 70958,
          "time": 295.65833333333336,
          "velocity": 0.1732283464566929
        },
        {
          "duration": 0.09166666666669698,
          "durationTicks": 22,
          "midi": 55,
          "name": "G3",
          "ticks": 71027,
          "time": 295.9458333333333,
          "velocity": 0.13385826771653545
        },
        {
          "duration": 0.19999999999998863,
          "durationTicks": 48,
          "midi": 71,
          "name": "B4",
          "ticks": 71056,
          "time": 296.06666666666666,
          "velocity": 0.12598425196850394
        },
        {
          "duration": 0.06666666666671972,
          "durationTicks": 16,
          "midi": 86,
          "name": "D6",
          "ticks": 71227,
          "time": 296.77916666666664,
          "velocity": 0.14173228346456693
        },
        {
          "duration": 0.12083333333333712,
          "durationTicks": 29,
          "midi": 64,
          "name": "E4",
          "ticks": 71255,
          "time": 296.8958333333333,
          "velocity": 0.10236220472440945
        },
        {
          "duration": 0.05833333333333712,
          "durationTicks": 14,
          "midi": 64,
          "name": "E4",
          "ticks": 71361,
          "time": 297.3375,
          "velocity": 0.13385826771653545
        },
        {
          "duration": 0.0875000000000341,
          "durationTicks": 21,
          "midi": 31,
          "name": "G1",
          "ticks": 71462,
          "time": 297.7583333333333,
          "velocity": 0.25984251968503935
        },
        {
          "duration": 0.08333333333337123,
          "durationTicks": 20,
          "midi": 57,
          "name": "A3",
          "ticks": 71555,
          "time": 298.1458333333333,
          "velocity": 0.2283464566929134
        },
        {
          "duration": 0.10000000000002274,
          "durationTicks": 24,
          "midi": 31,
          "name": "G1",
          "ticks": 71570,
          "time": 298.2083333333333,
          "velocity": 0.30708661417322836
        },
        {
          "duration": 0.0708333333333826,
          "durationTicks": 17,
          "midi": 72,
          "name": "C5",
          "ticks": 71752,
          "time": 298.96666666666664,
          "velocity": 0.10236220472440945
        },
        {
          "duration": 0.2708333333333144,
          "durationTicks": 65,
          "midi": 31,
          "name": "G1",
          "ticks": 71836,
          "time": 299.31666666666666,
          "velocity": 0.4094488188976378
        },
        {
          "duration": 0.09166666666669698,
          "durationTicks": 22,
          "midi": 71,
          "name": "B4",
          "ticks": 71975,
          "time": 299.8958333333333,
          "velocity": 0.25196850393700787
        },
        {
          "duration": 0.2416666666666174,
          "durationTicks": 58,
          "midi": 59,
          "name": "B3",
          "ticks": 72083,
          "time": 300.34583333333336,
          "velocity": 0.1889763779527559
        },
        {
          "duration": 0.09166666666664014,
          "durationTicks": 22,
          "midi": 74,
          "name": "D5",
          "ticks": 72225,
          "time": 300.9375,
          "velocity": 0.1732283464566929
        },
        {
          "duration": 0.10000000000002274,
          "durationTicks": 24,
          "midi": 79,
          "name": "G5",
          "ticks": 72367,
          "time": 301.52916666666664,
          "velocity": 0.10236220472440945
        },
        {
          "duration": 0.08749999999997726,
          "durationTicks": 21,
          "midi": 72,
          "name": "C5",
          "ticks": 72403,
          "time": 301.6791666666667,
          "velocity": 0.2992125984251969
        },
        {
          "duration": 0.20833333333331439,
          "durationTicks": 50,
          "midi": 57,
          "name": "A3",
          "ticks": 72506,
          "time": 302.10833333333335,
          "velocity": 0.25196850393700787
        },
        {
          "duration": 0.17916666666667425,
          "durationTicks": 43,
          "midi": 62,
          "name": "D4",
          "ticks": 72640,
          "time": 302.6666666666667,
          "velocity": 0.28346456692913385
        },
        {
          "duration": 0.19166666666666288,
          "durationTicks": 46,
          "midi": 59,
          "name": "B3",
          "ticks": 72765,
          "time": 303.1875,
          "velocity": 0.2677165354330709
        },
        {
          "duration": 0.10000000000002274,
          "durationTicks": 24,
          "midi": 79,
          "name": "G5",
          "ticks": 72856,
          "time": 303.56666666666666,
          "velocity": 0.15748031496062992
        },
        {
          "duration": 0.3291666666666515,
          "durationTicks": 79,
          "midi": 57,
          "name": "A3",
          "ticks": 72895,
          "time": 303.7291666666667,
          "velocity": 0.18110236220472442
        },
        {
          "duration": 0.041666666666685614,
          "durationTicks": 10,
          "midi": 52,
          "name": "E3",
          "ticks": 72933,
          "time": 303.8875,
          "velocity": 0.11023622047244094
        },
        {
          "duration": 0.16666666666668561,
          "durationTicks": 40,
          "midi": 84,
          "name": "C6",
          "ticks": 73051,
          "time": 304.37916666666666,
          "velocity": 0.23622047244094488
        },
        {
          "duration": 0.1416666666666515,
          "durationTicks": 34,
          "midi": 60,
          "name": "C4",
          "ticks": 73108,
          "time": 304.6166666666667,
          "velocity": 0.25984251968503935
        },
        {
          "duration": 0.07916666666665151,
          "durationTicks": 19,
          "midi": 52,
          "name": "E3",
          "ticks": 73113,
          "time": 304.6375,
          "velocity": 0.23622047244094488
        },
        {
          "duration": 0.07083333333332575,
          "durationTicks": 17,
          "midi": 86,
          "name": "D6",
          "ticks": 73118,
          "time": 304.65833333333336,
          "velocity": 0.14173228346456693
        },
        {
          "duration": 0.10000000000002274,
          "durationTicks": 24,
          "midi": 86,
          "name": "D6",
          "ticks": 73171,
          "time": 304.87916666666666,
          "velocity": 0.15748031496062992
        }
      ],
      "endOfTrackTicks": 73195
    },
    {
      "channel": 2,
      "controlChanges": {},
      "pitchBends": [],
      "instrument": {
        "family": "piano",
        "number": 0,
        "name": "acoustic grand piano"
      },
      "name": "",
      "notes": [
        {
          "duration": 0.5166666666666666,
          "durationTicks": 124,
          "midi": 69,
          "name": "A4",
          "ticks": 1087,
          "time": 4.529166666666667,
          "velocity": 0.1968503937007874
        },
        {
          "duration": 0.04999999999999982,
          "durationTicks": 12,
          "midi": 53,
          "name": "F3",
          "ticks": 1099,
          "time": 4.579166666666667,
          "velocity": 0.12598425196850394
        },
        {
          "duration": 0.14999999999999947,
          "durationTicks": 36,
          "midi": 84,
          "name": "C6",
          "ticks": 1173,
          "time": 4.8875,
          "velocity": 0.1968503937007874
        },
        {
          "duration": 0.3916666666666675,
          "durationTicks": 94,
          "midi": 71,
          "name": "B4",
          "ticks": 1348,
          "time": 5.616666666666666,
          "velocity": 0.14173228346456693
        },
        {
          "duration": 0.21249999999999947,
          "durationTicks": 51,
          "midi": 76,
          "name": "E5",
          "ticks": 1612,
          "time": 6.716666666666667,
          "velocity": 0.09448818897637795
        },
        {
          "duration": 0.1291666666666682,
          "durationTicks": 31,
          "midi": 84,
          "name": "C6",
          "ticks": 2066,
          "time": 8.608333333333333,
          "velocity": 0.2047244094488189
        },
        {
          "duration": 0.7708333333333339,
          "durationTicks": 185,
          "midi": 60,
          "name": "C4",
          "ticks": 2138,
          "time": 8.908333333333333,
          "velocity": 0.12598425196850394
        },
        {
          "duration": 0.8499999999999996,
          "durationTicks": 204,
          "midi": 69,
          "name": "A4",
          "ticks": 2188,
          "time": 9.116666666666667,
          "velocity": 0.08661417322834646
        },
        {
          "duration": 0.3999999999999986,
          "durationTicks": 96,
          "midi": 71,
          "name": "B4",
          "ticks": 2397,
          "time": 9.9875,
          "velocity": 0.11811023622047244
        },
        {
          "duration": 0.5291666666666668,
          "durationTicks": 127,
          "midi": 79,
          "name": "G5",
          "ticks": 2656,
          "time": 11.066666666666666,
          "velocity": 0.09448818897637795
        },
        {
          "duration": 0.0791666666666675,
          "durationTicks": 19,
          "midi": 72,
          "name": "C5",
          "ticks": 3182,
          "time": 13.258333333333333,
          "velocity": 0.15748031496062992
        },
        {
          "duration": 0.34999999999999964,
          "durationTicks": 84,
          "midi": 79,
          "name": "G5",
          "ticks": 3705,
          "time": 15.4375,
          "velocity": 0.08661417322834646
        },
        {
          "duration": 2.1999999999999975,
          "durationTicks": 528,
          "midi": 45,
          "name": "A2",
          "ticks": 3724,
          "time": 15.516666666666667,
          "velocity": 0.14173228346456693
        },
        {
          "duration": 0.5,
          "durationTicks": 120,
          "midi": 57,
          "name": "A3",
          "ticks": 4233,
          "time": 17.6375,
          "velocity": 0.13385826771653545
        },
        {
          "duration": 0.07083333333333286,
          "durationTicks": 17,
          "midi": 48,
          "name": "C3",
          "ticks": 5294,
          "time": 22.058333333333334,
          "velocity": 0.2125984251968504
        },
        {
          "duration": 0.25,
          "durationTicks": 60,
          "midi": 50,
          "name": "D3",
          "ticks": 6043,
          "time": 25.179166666666667,
          "velocity": 0.08661417322834646
        },
        {
          "duration": 0.05000000000000071,
          "durationTicks": 12,
          "midi": 53,
          "name": "F3",
          "ticks": 6059,
          "time": 25.245833333333334,
          "velocity": 0.07874015748031496
        },
        {
          "duration": 0.10833333333333073,
          "durationTicks": 26,
          "midi": 81,
          "name": "A5",
          "ticks": 6595,
          "time": 27.479166666666668,
          "velocity": 0.30708661417322836
        },
        {
          "duration": 0.19166666666666643,
          "durationTicks": 46,
          "midi": 88,
          "name": "E6",
          "ticks": 6899,
          "time": 28.745833333333334,
          "velocity": 0.30708661417322836
        },
        {
          "duration": 0.05833333333333357,
          "durationTicks": 14,
          "midi": 93,
          "name": "A6",
          "ticks": 7370,
          "time": 30.708333333333332,
          "velocity": 0.3228346456692913
        },
        {
          "duration": 0.14166666666666572,
          "durationTicks": 34,
          "midi": 87,
          "name": "D#6",
          "ticks": 7648,
          "time": 31.866666666666667,
          "velocity": 0.2047244094488189
        },
        {
          "duration": 0.07916666666666572,
          "durationTicks": 19,
          "midi": 64,
          "name": "E4",
          "ticks": 7903,
          "time": 32.92916666666667,
          "velocity": 0.2755905511811024
        },
        {
          "duration": 0.0416666666666643,
          "durationTicks": 10,
          "midi": 88,
          "name": "E6",
          "ticks": 8284,
          "time": 34.516666666666666,
          "velocity": 0.1732283464566929
        },
        {
          "duration": 0.11249999999999716,
          "durationTicks": 27,
          "midi": 32,
          "name": "G#1",
          "ticks": 9935,
          "time": 41.395833333333336,
          "velocity": 0.3543307086614173
        },
        {
          "duration": 0.12083333333333002,
          "durationTicks": 29,
          "midi": 43,
          "name": "G2",
          "ticks": 9945,
          "time": 41.4375,
          "velocity": 0.3228346456692913
        },
        {
          "duration": 0.0416666666666643,
          "durationTicks": 10,
          "midi": 62,
          "name": "D4",
          "ticks": 9969,
          "time": 41.5375,
          "velocity": 0.2440944881889764
        },
        {
          "duration": 0.11249999999999716,
          "durationTicks": 27,
          "midi": 31,
          "name": "G1",
          "ticks": 10192,
          "time": 42.46666666666667,
          "velocity": 0.33070866141732286
        },
        {
          "duration": 0.05000000000000426,
          "durationTicks": 12,
          "midi": 45,
          "name": "A2",
          "ticks": 10204,
          "time": 42.516666666666666,
          "velocity": 0.2992125984251969
        },
        {
          "duration": 0.0416666666666643,
          "durationTicks": 10,
          "midi": 83,
          "name": "B5",
          "ticks": 10528,
          "time": 43.86666666666667,
          "velocity": 0.15748031496062992
        },
        {
          "duration": 0.041666666666671404,
          "durationTicks": 10,
          "midi": 86,
          "name": "D6",
          "ticks": 10540,
          "time": 43.916666666666664,
          "velocity": 0.2440944881889764
        },
        {
          "duration": 0.13750000000000284,
          "durationTicks": 33,
          "midi": 85,
          "name": "C#6",
          "ticks": 10699,
          "time": 44.579166666666666,
          "velocity": 0.3858267716535433
        },
        {
          "duration": 0.05833333333333002,
          "durationTicks": 14,
          "midi": 91,
          "name": "G6",
          "ticks": 10785,
          "time": 44.9375,
          "velocity": 0.2125984251968504
        },
        {
          "duration": 0.10833333333333428,
          "durationTicks": 26,
          "midi": 62,
          "name": "D4",
          "ticks": 10879,
          "time": 45.329166666666666,
          "velocity": 0.4409448818897638
        },
        {
          "duration": 0.05000000000000426,
          "durationTicks": 12,
          "midi": 83,
          "name": "B5",
          "ticks": 10924,
          "time": 45.516666666666666,
          "velocity": 0.28346456692913385
        },
        {
          "duration": 0.0833333333333357,
          "durationTicks": 20,
          "midi": 36,
          "name": "C2",
          "ticks": 11099,
          "time": 46.24583333333333,
          "velocity": 0.4330708661417323
        },
        {
          "duration": 0.0416666666666643,
          "durationTicks": 10,
          "midi": 48,
          "name": "C3",
          "ticks": 11152,
          "time": 46.46666666666667,
          "velocity": 0.4015748031496063
        },
        {
          "duration": 0.09166666666666856,
          "durationTicks": 22,
          "midi": 64,
          "name": "E4",
          "ticks": 11169,
          "time": 46.5375,
          "velocity": 0.3543307086614173
        },
        {
          "duration": 0.05833333333333712,
          "durationTicks": 14,
          "midi": 91,
          "name": "G6",
          "ticks": 11258,
          "time": 46.90833333333333,
          "velocity": 0.09448818897637795
        },
        {
          "duration": 0.037499999999994316,
          "durationTicks": 9,
          "midi": 93,
          "name": "A6",
          "ticks": 11570,
          "time": 48.208333333333336,
          "velocity": 0.2677165354330709
        },
        {
          "duration": 0.041666666666671404,
          "durationTicks": 10,
          "midi": 34,
          "name": "A#1",
          "ticks": 12021,
          "time": 50.0875,
          "velocity": 0.12598425196850394
        },
        {
          "duration": 0.10000000000000142,
          "durationTicks": 24,
          "midi": 31,
          "name": "G1",
          "ticks": 12287,
          "time": 51.19583333333333,
          "velocity": 0.31496062992125984
        },
        {
          "duration": 0.041666666666671404,
          "durationTicks": 10,
          "midi": 31,
          "name": "G1",
          "ticks": 12340,
          "time": 51.416666666666664,
          "velocity": 0.25984251968503935
        },
        {
          "duration": 0.05000000000000426,
          "durationTicks": 12,
          "midi": 52,
          "name": "E3",
          "ticks": 12424,
          "time": 51.766666666666666,
          "velocity": 0.13385826771653545
        },
        {
          "duration": 0.10833333333333428,
          "durationTicks": 26,
          "midi": 53,
          "name": "F3",
          "ticks": 12818,
          "time": 53.40833333333333,
          "velocity": 0.3700787401574803
        },
        {
          "duration": 0.10833333333333428,
          "durationTicks": 26,
          "midi": 83,
          "name": "B5",
          "ticks": 12883,
          "time": 53.67916666666667,
          "velocity": 0.3228346456692913
        },
        {
          "duration": 0.14999999999999858,
          "durationTicks": 36,
          "midi": 85,
          "name": "C#6",
          "ticks": 13067,
          "time": 54.44583333333333,
          "velocity": 0.3228346456692913
        },
        {
          "duration": 0.20000000000000284,
          "durationTicks": 48,
          "midi": 64,
          "name": "E4",
          "ticks": 13142,
          "time": 54.75833333333333,
          "velocity": 0.3700787401574803
        },
        {
          "duration": 0.07916666666666572,
          "durationTicks": 19,
          "midi": 37,
          "name": "C#2",
          "ticks": 13180,
          "time": 54.916666666666664,
          "velocity": 0.18110236220472442
        },
        {
          "duration": 0.11666666666666003,
          "durationTicks": 28,
          "midi": 59,
          "name": "B3",
          "ticks": 13471,
          "time": 56.12916666666667,
          "velocity": 0.4566929133858268
        },
        {
          "duration": 0.05833333333333002,
          "durationTicks": 14,
          "midi": 85,
          "name": "C#6",
          "ticks": 13509,
          "time": 56.2875,
          "velocity": 0.30708661417322836
        },
        {
          "duration": 0.0416666666666643,
          "durationTicks": 10,
          "midi": 79,
          "name": "G5",
          "ticks": 13691,
          "time": 57.045833333333334,
          "velocity": 0.4094488188976378
        },
        {
          "duration": 0.0416666666666643,
          "durationTicks": 10,
          "midi": 48,
          "name": "C3",
          "ticks": 13768,
          "time": 57.36666666666667,
          "velocity": 0.41732283464566927
        },
        {
          "duration": 0.09166666666666146,
          "durationTicks": 22,
          "midi": 29,
          "name": "F1",
          "ticks": 13816,
          "time": 57.56666666666667,
          "velocity": 0.4409448818897638
        },
        {
          "duration": 0.11250000000000426,
          "durationTicks": 27,
          "midi": 48,
          "name": "C3",
          "ticks": 13864,
          "time": 57.766666666666666,
          "velocity": 0.3464566929133858
        },
        {
          "duration": 0.12083333333333712,
          "durationTicks": 29,
          "midi": 50,
          "name": "D3",
          "ticks": 13943,
          "time": 58.09583333333333,
          "velocity": 0.3779527559055118
        },
        {
          "duration": 0.11249999999999716,
          "durationTicks": 27,
          "midi": 59,
          "name": "B3",
          "ticks": 14116,
          "time": 58.81666666666667,
          "velocity": 0.25196850393700787
        },
        {
          "duration": 0.25,
          "durationTicks": 60,
          "midi": 32,
          "name": "G#1",
          "ticks": 14126,
          "time": 58.858333333333334,
          "velocity": 0.3858267716535433
        },
        {
          "duration": 0.05833333333333712,
          "durationTicks": 14,
          "midi": 40,
          "name": "E2",
          "ticks": 14217,
          "time": 59.2375,
          "velocity": 0.33070866141732286
        },
        {
          "duration": 0.04999999999999716,
          "durationTicks": 12,
          "midi": 84,
          "name": "C6",
          "ticks": 14222,
          "time": 59.25833333333333,
          "velocity": 0.4094488188976378
        },
        {
          "duration": 0.23750000000000426,
          "durationTicks": 57,
          "midi": 28,
          "name": "E1",
          "ticks": 14234,
          "time": 59.30833333333333,
          "velocity": 0.4645669291338583
        },
        {
          "duration": 0.05000000000000426,
          "durationTicks": 12,
          "midi": 100,
          "name": "E7",
          "ticks": 14361,
          "time": 59.8375,
          "velocity": 0.4251968503937008
        },
        {
          "duration": 0.14166666666666572,
          "durationTicks": 34,
          "midi": 91,
          "name": "G6",
          "ticks": 14445,
          "time": 60.1875,
          "velocity": 0.2677165354330709
        },
        {
          "duration": 0.09166666666666856,
          "durationTicks": 22,
          "midi": 45,
          "name": "A2",
          "ticks": 14543,
          "time": 60.59583333333333,
          "velocity": 0.30708661417322836
        },
        {
          "duration": 0.15000000000000568,
          "durationTicks": 36,
          "midi": 76,
          "name": "E5",
          "ticks": 14577,
          "time": 60.7375,
          "velocity": 0.4015748031496063
        },
        {
          "duration": 0.08749999999999858,
          "durationTicks": 21,
          "midi": 64,
          "name": "E4",
          "ticks": 14647,
          "time": 61.02916666666667,
          "velocity": 0.41732283464566927
        },
        {
          "duration": 0.10000000000000142,
          "durationTicks": 24,
          "midi": 90,
          "name": "F#6",
          "ticks": 14846,
          "time": 61.858333333333334,
          "velocity": 0.1889763779527559
        },
        {
          "duration": 0.17916666666666003,
          "durationTicks": 43,
          "midi": 57,
          "name": "A3",
          "ticks": 14911,
          "time": 62.12916666666667,
          "velocity": 0.44881889763779526
        },
        {
          "duration": 0.07083333333333286,
          "durationTicks": 17,
          "midi": 59,
          "name": "B3",
          "ticks": 14937,
          "time": 62.2375,
          "velocity": 0.25196850393700787
        },
        {
          "duration": 0.06666666666666998,
          "durationTicks": 16,
          "midi": 50,
          "name": "D3",
          "ticks": 15175,
          "time": 63.229166666666664,
          "velocity": 0.2047244094488189
        },
        {
          "duration": 0.2708333333333357,
          "durationTicks": 65,
          "midi": 30,
          "name": "F#1",
          "ticks": 15177,
          "time": 63.2375,
          "velocity": 0.3700787401574803
        },
        {
          "duration": 0.0625,
          "durationTicks": 15,
          "midi": 35,
          "name": "B1",
          "ticks": 15323,
          "time": 63.84583333333333,
          "velocity": 0.33858267716535434
        },
        {
          "duration": 0.07916666666666572,
          "durationTicks": 19,
          "midi": 79,
          "name": "G5",
          "ticks": 15427,
          "time": 64.27916666666667,
          "velocity": 0.3543307086614173
        },
        {
          "duration": 0.07916666666666572,
          "durationTicks": 19,
          "midi": 55,
          "name": "G3",
          "ticks": 15460,
          "time": 64.41666666666667,
          "velocity": 0.3937007874015748
        },
        {
          "duration": 0.04166666666665719,
          "durationTicks": 10,
          "midi": 32,
          "name": "G#1",
          "ticks": 15693,
          "time": 65.3875,
          "velocity": 0.15748031496062992
        },
        {
          "duration": 0.07083333333333997,
          "durationTicks": 17,
          "midi": 57,
          "name": "A3",
          "ticks": 15784,
          "time": 65.76666666666667,
          "velocity": 0.3464566929133858
        },
        {
          "duration": 0.04166666666665719,
          "durationTicks": 10,
          "midi": 69,
          "name": "A4",
          "ticks": 16019,
          "time": 66.74583333333334,
          "velocity": 0.28346456692913385
        },
        {
          "duration": 0.05000000000001137,
          "durationTicks": 12,
          "midi": 100,
          "name": "E7",
          "ticks": 16029,
          "time": 66.7875,
          "velocity": 0.30708661417322836
        },
        {
          "duration": 0.04999999999999716,
          "durationTicks": 12,
          "midi": 62,
          "name": "D4",
          "ticks": 16245,
          "time": 67.6875,
          "velocity": 0.08661417322834646
        },
        {
          "duration": 0.041666666666671404,
          "durationTicks": 10,
          "midi": 90,
          "name": "F#6",
          "ticks": 16384,
          "time": 68.26666666666667,
          "velocity": 0.4881889763779528
        },
        {
          "duration": 0.041666666666671404,
          "durationTicks": 10,
          "midi": 65,
          "name": "F4",
          "ticks": 16451,
          "time": 68.54583333333333,
          "velocity": 0.14960629921259844
        },
        {
          "duration": 0.07083333333332575,
          "durationTicks": 17,
          "midi": 55,
          "name": "G3",
          "ticks": 16480,
          "time": 68.66666666666667,
          "velocity": 0.4094488188976378
        },
        {
          "duration": 0.037499999999994316,
          "durationTicks": 9,
          "midi": 96,
          "name": "C7",
          "ticks": 16502,
          "time": 68.75833333333334,
          "velocity": 0.2755905511811024
        },
        {
          "duration": 0.09999999999999432,
          "durationTicks": 24,
          "midi": 96,
          "name": "C7",
          "ticks": 16579,
          "time": 69.07916666666667,
          "velocity": 0.3937007874015748
        },
        {
          "duration": 0.22083333333333144,
          "durationTicks": 53,
          "midi": 45,
          "name": "A2",
          "ticks": 16737,
          "time": 69.7375,
          "velocity": 0.3937007874015748
        },
        {
          "duration": 0.04999999999999716,
          "durationTicks": 12,
          "midi": 65,
          "name": "F4",
          "ticks": 16900,
          "time": 70.41666666666667,
          "velocity": 0.33070866141732286
        },
        {
          "duration": 0.09166666666666856,
          "durationTicks": 22,
          "midi": 64,
          "name": "E4",
          "ticks": 16991,
          "time": 70.79583333333333,
          "velocity": 0.4881889763779528
        },
        {
          "duration": 0.13750000000000284,
          "durationTicks": 33,
          "midi": 84,
          "name": "C6",
          "ticks": 17023,
          "time": 70.92916666666666,
          "velocity": 0.3779527559055118
        },
        {
          "duration": 0.12916666666666288,
          "durationTicks": 31,
          "midi": 93,
          "name": "A6",
          "ticks": 17061,
          "time": 71.0875,
          "velocity": 0.3464566929133858
        },
        {
          "duration": 0.21250000000000568,
          "durationTicks": 51,
          "midi": 31,
          "name": "G1",
          "ticks": 17116,
          "time": 71.31666666666666,
          "velocity": 0.3228346456692913
        },
        {
          "duration": 0.04999999999999716,
          "durationTicks": 12,
          "midi": 79,
          "name": "G5",
          "ticks": 17167,
          "time": 71.52916666666667,
          "velocity": 0.2283464566929134
        },
        {
          "duration": 0.12083333333332291,
          "durationTicks": 29,
          "midi": 91,
          "name": "G6",
          "ticks": 17327,
          "time": 72.19583333333334,
          "velocity": 0.2755905511811024
        },
        {
          "duration": 0.06666666666666288,
          "durationTicks": 16,
          "midi": 38,
          "name": "D2",
          "ticks": 17347,
          "time": 72.27916666666667,
          "velocity": 0.2440944881889764
        },
        {
          "duration": 0.041666666666671404,
          "durationTicks": 10,
          "midi": 89,
          "name": "F6",
          "ticks": 17651,
          "time": 73.54583333333333,
          "velocity": 0.2440944881889764
        },
        {
          "duration": 0.09166666666665435,
          "durationTicks": 22,
          "midi": 59,
          "name": "B3",
          "ticks": 17661,
          "time": 73.5875,
          "velocity": 0.3228346456692913
        },
        {
          "duration": 0.13333333333332575,
          "durationTicks": 32,
          "midi": 81,
          "name": "A5",
          "ticks": 17687,
          "time": 73.69583333333334,
          "velocity": 0.3228346456692913
        },
        {
          "duration": 0.04999999999999716,
          "durationTicks": 12,
          "midi": 83,
          "name": "B5",
          "ticks": 17781,
          "time": 74.0875,
          "velocity": 0.33858267716535434
        },
        {
          "duration": 0.07916666666666572,
          "durationTicks": 19,
          "midi": 78,
          "name": "F#5",
          "ticks": 17851,
          "time": 74.37916666666666,
          "velocity": 0.5118110236220472
        },
        {
          "duration": 0.09166666666665435,
          "durationTicks": 22,
          "midi": 41,
          "name": "F2",
          "ticks": 17867,
          "time": 74.44583333333334,
          "velocity": 0.4330708661417323
        },
        {
          "duration": 0.037499999999994316,
          "durationTicks": 9,
          "midi": 48,
          "name": "C3",
          "ticks": 17959,
          "time": 74.82916666666667,
          "velocity": 0.47244094488188976
        },
        {
          "duration": 0.25833333333333997,
          "durationTicks": 62,
          "midi": 41,
          "name": "F2",
          "ticks": 18045,
          "time": 75.1875,
          "velocity": 0.5196850393700787
        },
        {
          "duration": 0.1291666666666771,
          "durationTicks": 31,
          "midi": 100,
          "name": "E7",
          "ticks": 18103,
          "time": 75.42916666666666,
          "velocity": 0.5039370078740157
        },
        {
          "duration": 0.06666666666666288,
          "durationTicks": 16,
          "midi": 59,
          "name": "B3",
          "ticks": 18115,
          "time": 75.47916666666667,
          "velocity": 0.4645669291338583
        },
        {
          "duration": 0.04166666666665719,
          "durationTicks": 10,
          "midi": 79,
          "name": "G5",
          "ticks": 18239,
          "time": 75.99583333333334,
          "velocity": 0.4409448818897638
        },
        {
          "duration": 0.14999999999999147,
          "durationTicks": 36,
          "midi": 59,
          "name": "B3",
          "ticks": 18307,
          "time": 76.27916666666667,
          "velocity": 0.2125984251968504
        },
        {
          "duration": 0.041666666666671404,
          "durationTicks": 10,
          "midi": 32,
          "name": "G#1",
          "ticks": 18364,
          "time": 76.51666666666667,
          "velocity": 0.4015748031496063
        },
        {
          "duration": 0.2708333333333286,
          "durationTicks": 65,
          "midi": 59,
          "name": "B3",
          "ticks": 18386,
          "time": 76.60833333333333,
          "velocity": 0.2677165354330709
        },
        {
          "duration": 0.041666666666671404,
          "durationTicks": 10,
          "midi": 102,
          "name": "F#7",
          "ticks": 18472,
          "time": 76.96666666666667,
          "velocity": 0.3543307086614173
        },
        {
          "duration": 0.16250000000000853,
          "durationTicks": 39,
          "midi": 102,
          "name": "F#7",
          "ticks": 18515,
          "time": 77.14583333333333,
          "velocity": 0.5039370078740157
        },
        {
          "duration": 0.15000000000000568,
          "durationTicks": 36,
          "midi": 28,
          "name": "E1",
          "ticks": 18544,
          "time": 77.26666666666667,
          "velocity": 0.4409448818897638
        },
        {
          "duration": 0.16249999999999432,
          "durationTicks": 39,
          "midi": 52,
          "name": "E3",
          "ticks": 18659,
          "time": 77.74583333333334,
          "velocity": 0.28346456692913385
        },
        {
          "duration": 0.13749999999998863,
          "durationTicks": 33,
          "midi": 34,
          "name": "A#1",
          "ticks": 18835,
          "time": 78.47916666666667,
          "velocity": 0.25984251968503935
        },
        {
          "duration": 0.10833333333333428,
          "durationTicks": 26,
          "midi": 69,
          "name": "A4",
          "ticks": 18957,
          "time": 78.9875,
          "velocity": 0.2992125984251969
        },
        {
          "duration": 0.07083333333332575,
          "durationTicks": 17,
          "midi": 76,
          "name": "E5",
          "ticks": 19019,
          "time": 79.24583333333334,
          "velocity": 0.3700787401574803
        },
        {
          "duration": 0.09166666666666856,
          "durationTicks": 22,
          "midi": 64,
          "name": "E4",
          "ticks": 19120,
          "time": 79.66666666666667,
          "velocity": 0.41732283464566927
        },
        {
          "duration": 0.0833333333333286,
          "durationTicks": 20,
          "midi": 90,
          "name": "F#6",
          "ticks": 19163,
          "time": 79.84583333333333,
          "velocity": 0.25984251968503935
        },
        {
          "duration": 0.07916666666667993,
          "durationTicks": 19,
          "midi": 50,
          "name": "D3",
          "ticks": 19183,
          "time": 79.92916666666666,
          "velocity": 0.33070866141732286
        },
        {
          "duration": 0.25,
          "durationTicks": 60,
          "midi": 59,
          "name": "B3",
          "ticks": 19214,
          "time": 80.05833333333334,
          "velocity": 0.41732283464566927
        },
        {
          "duration": 0.041666666666671404,
          "durationTicks": 10,
          "midi": 76,
          "name": "E5",
          "ticks": 19245,
          "time": 80.1875,
          "velocity": 0.2047244094488189
        },
        {
          "duration": 0.21250000000000568,
          "durationTicks": 51,
          "midi": 62,
          "name": "D4",
          "ticks": 19355,
          "time": 80.64583333333333,
          "velocity": 0.3700787401574803
        },
        {
          "duration": 0.05000000000001137,
          "durationTicks": 12,
          "midi": 32,
          "name": "G#1",
          "ticks": 19408,
          "time": 80.86666666666666,
          "velocity": 0.3543307086614173
        },
        {
          "duration": 0.0833333333333286,
          "durationTicks": 20,
          "midi": 67,
          "name": "G4",
          "ticks": 19427,
          "time": 80.94583333333334,
          "velocity": 0.3464566929133858
        },
        {
          "duration": 0.17083333333333428,
          "durationTicks": 41,
          "midi": 59,
          "name": "B3",
          "ticks": 19432,
          "time": 80.96666666666667,
          "velocity": 0.25196850393700787
        },
        {
          "duration": 0.04999999999999716,
          "durationTicks": 12,
          "midi": 67,
          "name": "G4",
          "ticks": 19523,
          "time": 81.34583333333333,
          "velocity": 0.3937007874015748
        },
        {
          "duration": 0.17083333333333428,
          "durationTicks": 41,
          "midi": 36,
          "name": "C2",
          "ticks": 19636,
          "time": 81.81666666666666,
          "velocity": 0.4251968503937008
        },
        {
          "duration": 0.04999999999999716,
          "durationTicks": 12,
          "midi": 31,
          "name": "G1",
          "ticks": 19658,
          "time": 81.90833333333333,
          "velocity": 0.1968503937007874
        },
        {
          "duration": 0.05833333333333712,
          "durationTicks": 14,
          "midi": 91,
          "name": "G6",
          "ticks": 19785,
          "time": 82.4375,
          "velocity": 0.31496062992125984
        },
        {
          "duration": 0.11249999999999716,
          "durationTicks": 27,
          "midi": 76,
          "name": "E5",
          "ticks": 19943,
          "time": 83.09583333333333,
          "velocity": 0.3779527559055118
        },
        {
          "duration": 0.15000000000000568,
          "durationTicks": 36,
          "midi": 69,
          "name": "A4",
          "ticks": 19965,
          "time": 83.1875,
          "velocity": 0.3543307086614173
        },
        {
          "duration": 0.05000000000001137,
          "durationTicks": 12,
          "midi": 88,
          "name": "E6",
          "ticks": 20030,
          "time": 83.45833333333333,
          "velocity": 0.16535433070866143
        },
        {
          "duration": 0.14166666666666572,
          "durationTicks": 34,
          "midi": 41,
          "name": "F2",
          "ticks": 20037,
          "time": 83.4875,
          "velocity": 0.3464566929133858
        },
        {
          "duration": 0.08750000000000568,
          "durationTicks": 21,
          "midi": 48,
          "name": "C3",
          "ticks": 20150,
          "time": 83.95833333333333,
          "velocity": 0.25196850393700787
        },
        {
          "duration": 0.07083333333333997,
          "durationTicks": 17,
          "midi": 100,
          "name": "E7",
          "ticks": 20195,
          "time": 84.14583333333333,
          "velocity": 0.41732283464566927
        },
        {
          "duration": 0.041666666666671404,
          "durationTicks": 10,
          "midi": 43,
          "name": "G2",
          "ticks": 20224,
          "time": 84.26666666666667,
          "velocity": 0.4330708661417323
        },
        {
          "duration": 0.15833333333333144,
          "durationTicks": 38,
          "midi": 59,
          "name": "B3",
          "ticks": 20347,
          "time": 84.77916666666667,
          "velocity": 0.2440944881889764
        },
        {
          "duration": 0.25,
          "durationTicks": 60,
          "midi": 32,
          "name": "G#1",
          "ticks": 20409,
          "time": 85.0375,
          "velocity": 0.36220472440944884
        },
        {
          "duration": 0.14166666666666572,
          "durationTicks": 34,
          "midi": 55,
          "name": "G3",
          "ticks": 20663,
          "time": 86.09583333333333,
          "velocity": 0.3700787401574803
        },
        {
          "duration": 0.15833333333333144,
          "durationTicks": 38,
          "midi": 52,
          "name": "E3",
          "ticks": 20750,
          "time": 86.45833333333333,
          "velocity": 0.3543307086614173
        },
        {
          "duration": 0.04999999999999716,
          "durationTicks": 12,
          "midi": 88,
          "name": "E6",
          "ticks": 20817,
          "time": 86.7375,
          "velocity": 0.3543307086614173
        },
        {
          "duration": 0.05833333333333712,
          "durationTicks": 14,
          "midi": 83,
          "name": "B5",
          "ticks": 20829,
          "time": 86.7875,
          "velocity": 0.3700787401574803
        },
        {
          "duration": 0.10833333333333428,
          "durationTicks": 26,
          "midi": 84,
          "name": "C6",
          "ticks": 20918,
          "time": 87.15833333333333,
          "velocity": 0.29133858267716534
        },
        {
          "duration": 0.24166666666666003,
          "durationTicks": 58,
          "midi": 34,
          "name": "A#1",
          "ticks": 20932,
          "time": 87.21666666666667,
          "velocity": 0.3543307086614173
        },
        {
          "duration": 0.04999999999999716,
          "durationTicks": 12,
          "midi": 64,
          "name": "E4",
          "ticks": 21062,
          "time": 87.75833333333334,
          "velocity": 0.4015748031496063
        },
        {
          "duration": 0.11249999999999716,
          "durationTicks": 27,
          "midi": 53,
          "name": "F3",
          "ticks": 21203,
          "time": 88.34583333333333,
          "velocity": 0.3700787401574803
        },
        {
          "duration": 0.20000000000000284,
          "durationTicks": 48,
          "midi": 31,
          "name": "G1",
          "ticks": 21307,
          "time": 88.77916666666667,
          "velocity": 0.29133858267716534
        },
        {
          "duration": 0.09999999999999432,
          "durationTicks": 24,
          "midi": 79,
          "name": "G5",
          "ticks": 21345,
          "time": 88.9375,
          "velocity": 0.2204724409448819
        },
        {
          "duration": 0.04999999999999716,
          "durationTicks": 12,
          "midi": 67,
          "name": "G4",
          "ticks": 21511,
          "time": 89.62916666666666,
          "velocity": 0.25196850393700787
        },
        {
          "duration": 0.10833333333333428,
          "durationTicks": 26,
          "midi": 76,
          "name": "E5",
          "ticks": 21681,
          "time": 90.3375,
          "velocity": 0.28346456692913385
        },
        {
          "duration": 0.05833333333333712,
          "durationTicks": 14,
          "midi": 81,
          "name": "A5",
          "ticks": 22269,
          "time": 92.7875,
          "velocity": 0.12598425196850394
        },
        {
          "duration": 0.037499999999994316,
          "durationTicks": 9,
          "midi": 59,
          "name": "B3",
          "ticks": 22315,
          "time": 92.97916666666667,
          "velocity": 0.2440944881889764
        },
        {
          "duration": 0.08333333333334281,
          "durationTicks": 20,
          "midi": 69,
          "name": "A4",
          "ticks": 22595,
          "time": 94.14583333333333,
          "velocity": 0.23622047244094488
        },
        {
          "duration": 0.037499999999994316,
          "durationTicks": 9,
          "midi": 74,
          "name": "D5",
          "ticks": 22675,
          "time": 94.47916666666667,
          "velocity": 0.11811023622047244
        },
        {
          "duration": 0.05833333333333712,
          "durationTicks": 14,
          "midi": 83,
          "name": "B5",
          "ticks": 22677,
          "time": 94.4875,
          "velocity": 0.13385826771653545
        },
        {
          "duration": 0.20000000000000284,
          "durationTicks": 48,
          "midi": 83,
          "name": "B5",
          "ticks": 22809,
          "time": 95.0375,
          "velocity": 0.11811023622047244
        },
        {
          "duration": 0.1666666666666714,
          "durationTicks": 40,
          "midi": 76,
          "name": "E5",
          "ticks": 22831,
          "time": 95.12916666666666,
          "velocity": 0.13385826771653545
        },
        {
          "duration": 0.10833333333333428,
          "durationTicks": 26,
          "midi": 53,
          "name": "F3",
          "ticks": 23361,
          "time": 97.3375,
          "velocity": 0.3464566929133858
        },
        {
          "duration": 0.25833333333333997,
          "durationTicks": 62,
          "midi": 48,
          "name": "C3",
          "ticks": 23618,
          "time": 98.40833333333333,
          "velocity": 0.4330708661417323
        },
        {
          "duration": 0.10833333333333428,
          "durationTicks": 26,
          "midi": 48,
          "name": "C3",
          "ticks": 23719,
          "time": 98.82916666666667,
          "velocity": 0.4251968503937008
        },
        {
          "duration": 0.04999999999999716,
          "durationTicks": 12,
          "midi": 55,
          "name": "G3",
          "ticks": 23740,
          "time": 98.91666666666667,
          "velocity": 0.30708661417322836
        },
        {
          "duration": 0.2083333333333286,
          "durationTicks": 50,
          "midi": 83,
          "name": "B5",
          "ticks": 23995,
          "time": 99.97916666666667,
          "velocity": 0.2204724409448819
        },
        {
          "duration": 0.13749999999998863,
          "durationTicks": 33,
          "midi": 57,
          "name": "A3",
          "ticks": 24002,
          "time": 100.00833333333334,
          "velocity": 0.16535433070866143
        },
        {
          "duration": 0.12916666666666288,
          "durationTicks": 31,
          "midi": 60,
          "name": "C4",
          "ticks": 24235,
          "time": 100.97916666666667,
          "velocity": 0.2755905511811024
        },
        {
          "duration": 0.037500000000008527,
          "durationTicks": 9,
          "midi": 85,
          "name": "C#6",
          "ticks": 24398,
          "time": 101.65833333333333,
          "velocity": 0.09448818897637795
        },
        {
          "duration": 0.037500000000008527,
          "durationTicks": 9,
          "midi": 52,
          "name": "E3",
          "ticks": 24763,
          "time": 103.17916666666666,
          "velocity": 0.2283464566929134
        },
        {
          "duration": 0.1291666666666771,
          "durationTicks": 31,
          "midi": 64,
          "name": "E4",
          "ticks": 25303,
          "time": 105.42916666666666,
          "velocity": 0.09448818897637795
        },
        {
          "duration": 0.14166666666666572,
          "durationTicks": 34,
          "midi": 81,
          "name": "A5",
          "ticks": 25703,
          "time": 107.09583333333333,
          "velocity": 0.11023622047244094
        },
        {
          "duration": 0.12083333333333712,
          "durationTicks": 29,
          "midi": 96,
          "name": "C7",
          "ticks": 26570,
          "time": 110.70833333333333,
          "velocity": 0.2440944881889764
        },
        {
          "duration": 0.15833333333333144,
          "durationTicks": 38,
          "midi": 83,
          "name": "B5",
          "ticks": 26942,
          "time": 112.25833333333334,
          "velocity": 0.2047244094488189
        },
        {
          "duration": 0.5583333333333229,
          "durationTicks": 134,
          "midi": 92,
          "name": "G#6",
          "ticks": 26995,
          "time": 112.47916666666667,
          "velocity": 0.3228346456692913
        },
        {
          "duration": 0.0833333333333286,
          "durationTicks": 20,
          "midi": 87,
          "name": "D#6",
          "ticks": 27371,
          "time": 114.04583333333333,
          "velocity": 0.10236220472440945
        },
        {
          "duration": 0.07083333333332575,
          "durationTicks": 17,
          "midi": 55,
          "name": "G3",
          "ticks": 27472,
          "time": 114.46666666666667,
          "velocity": 0.12598425196850394
        },
        {
          "duration": 0.07083333333332575,
          "durationTicks": 17,
          "midi": 96,
          "name": "C7",
          "ticks": 27621,
          "time": 115.0875,
          "velocity": 0.16535433070866143
        },
        {
          "duration": 0.15000000000000568,
          "durationTicks": 36,
          "midi": 91,
          "name": "G6",
          "ticks": 27851,
          "time": 116.04583333333333,
          "velocity": 0.4094488188976378
        },
        {
          "duration": 0.037500000000008527,
          "durationTicks": 9,
          "midi": 91,
          "name": "G6",
          "ticks": 28250,
          "time": 117.70833333333333,
          "velocity": 0.12598425196850394
        },
        {
          "duration": 0.19999999999998863,
          "durationTicks": 48,
          "midi": 92,
          "name": "G#6",
          "ticks": 28607,
          "time": 119.19583333333334,
          "velocity": 0.30708661417322836
        },
        {
          "duration": 0.05000000000001137,
          "durationTicks": 12,
          "midi": 102,
          "name": "F#7",
          "ticks": 28663,
          "time": 119.42916666666666,
          "velocity": 0.2992125984251969
        },
        {
          "duration": 0.09999999999999432,
          "durationTicks": 24,
          "midi": 92,
          "name": "G#6",
          "ticks": 28675,
          "time": 119.47916666666667,
          "velocity": 0.10236220472440945
        },
        {
          "duration": 0.05833333333333712,
          "durationTicks": 14,
          "midi": 57,
          "name": "A3",
          "ticks": 29037,
          "time": 120.9875,
          "velocity": 0.25984251968503935
        },
        {
          "duration": 0.07916666666666572,
          "durationTicks": 19,
          "midi": 60,
          "name": "C4",
          "ticks": 29145,
          "time": 121.4375,
          "velocity": 0.11811023622047244
        },
        {
          "duration": 0.08749999999999147,
          "durationTicks": 21,
          "midi": 31,
          "name": "G1",
          "ticks": 29155,
          "time": 121.47916666666667,
          "velocity": 0.33070866141732286
        },
        {
          "duration": 0.07083333333333997,
          "durationTicks": 17,
          "midi": 60,
          "name": "C4",
          "ticks": 29205,
          "time": 121.6875,
          "velocity": 0.11811023622047244
        },
        {
          "duration": 0.17083333333333428,
          "durationTicks": 41,
          "midi": 98,
          "name": "D7",
          "ticks": 29692,
          "time": 123.71666666666667,
          "velocity": 0.31496062992125984
        },
        {
          "duration": 0.13750000000000284,
          "durationTicks": 33,
          "midi": 91,
          "name": "G6",
          "ticks": 29947,
          "time": 124.77916666666667,
          "velocity": 0.36220472440944884
        },
        {
          "duration": 0.10833333333333428,
          "durationTicks": 26,
          "midi": 88,
          "name": "E6",
          "ticks": 30081,
          "time": 125.3375,
          "velocity": 0.18110236220472442
        },
        {
          "duration": 0.05833333333333712,
          "durationTicks": 14,
          "midi": 90,
          "name": "F#6",
          "ticks": 30213,
          "time": 125.8875,
          "velocity": 0.28346456692913385
        },
        {
          "duration": 0.04166666666665719,
          "durationTicks": 10,
          "midi": 99,
          "name": "D#7",
          "ticks": 30220,
          "time": 125.91666666666667,
          "velocity": 0.1889763779527559
        },
        {
          "duration": 0.0833333333333286,
          "durationTicks": 20,
          "midi": 59,
          "name": "B3",
          "ticks": 30251,
          "time": 126.04583333333333,
          "velocity": 0.3464566929133858
        },
        {
          "duration": 0.19166666666666288,
          "durationTicks": 46,
          "midi": 76,
          "name": "E5",
          "ticks": 30479,
          "time": 126.99583333333334,
          "velocity": 0.1889763779527559
        },
        {
          "duration": 0.10000000000000853,
          "durationTicks": 24,
          "midi": 33,
          "name": "A1",
          "ticks": 30508,
          "time": 127.11666666666666,
          "velocity": 0.15748031496062992
        },
        {
          "duration": 0.11249999999999716,
          "durationTicks": 27,
          "midi": 95,
          "name": "B6",
          "ticks": 30616,
          "time": 127.56666666666666,
          "velocity": 0.2125984251968504
        },
        {
          "duration": 0.15000000000000568,
          "durationTicks": 36,
          "midi": 60,
          "name": "C4",
          "ticks": 30626,
          "time": 127.60833333333333,
          "velocity": 0.13385826771653545
        },
        {
          "duration": 0.0625,
          "durationTicks": 15,
          "midi": 81,
          "name": "A5",
          "ticks": 30748,
          "time": 128.11666666666667,
          "velocity": 0.11023622047244094
        },
        {
          "duration": 0.06666666666666288,
          "durationTicks": 16,
          "midi": 60,
          "name": "C4",
          "ticks": 31039,
          "time": 129.32916666666668,
          "velocity": 0.1968503937007874
        },
        {
          "duration": 0.2083333333333428,
          "durationTicks": 50,
          "midi": 60,
          "name": "C4",
          "ticks": 31135,
          "time": 129.72916666666666,
          "velocity": 0.2047244094488189
        },
        {
          "duration": 0.05833333333333712,
          "durationTicks": 14,
          "midi": 64,
          "name": "E4",
          "ticks": 31171,
          "time": 129.87916666666666,
          "velocity": 0.07874015748031496
        },
        {
          "duration": 0.14166666666667993,
          "durationTicks": 34,
          "midi": 69,
          "name": "A4",
          "ticks": 31233,
          "time": 130.1375,
          "velocity": 0.1889763779527559
        },
        {
          "duration": 0.12083333333333712,
          "durationTicks": 29,
          "midi": 88,
          "name": "E6",
          "ticks": 31288,
          "time": 130.36666666666667,
          "velocity": 0.1968503937007874
        },
        {
          "duration": 0.09999999999999432,
          "durationTicks": 24,
          "midi": 72,
          "name": "C5",
          "ticks": 31425,
          "time": 130.9375,
          "velocity": 0.13385826771653545
        },
        {
          "duration": 0.07916666666667993,
          "durationTicks": 19,
          "midi": 59,
          "name": "B3",
          "ticks": 31562,
          "time": 131.50833333333333,
          "velocity": 0.28346456692913385
        },
        {
          "duration": 0.19999999999998863,
          "durationTicks": 48,
          "midi": 71,
          "name": "B4",
          "ticks": 31658,
          "time": 131.90833333333333,
          "velocity": 0.2440944881889764
        },
        {
          "duration": 0.27916666666666856,
          "durationTicks": 67,
          "midi": 59,
          "name": "B3",
          "ticks": 31761,
          "time": 132.3375,
          "velocity": 0.23622047244094488
        },
        {
          "duration": 0.12083333333333712,
          "durationTicks": 29,
          "midi": 62,
          "name": "D4",
          "ticks": 31811,
          "time": 132.54583333333332,
          "velocity": 0.09448818897637795
        },
        {
          "duration": 0.15000000000000568,
          "durationTicks": 36,
          "midi": 74,
          "name": "D5",
          "ticks": 31881,
          "time": 132.8375,
          "velocity": 0.11023622047244094
        },
        {
          "duration": 0.0625,
          "durationTicks": 15,
          "midi": 71,
          "name": "B4",
          "ticks": 31955,
          "time": 133.14583333333334,
          "velocity": 0.14960629921259844
        },
        {
          "duration": 0.11249999999998295,
          "durationTicks": 27,
          "midi": 86,
          "name": "D6",
          "ticks": 32044,
          "time": 133.51666666666668,
          "velocity": 0.18110236220472442
        },
        {
          "duration": 0.04999999999998295,
          "durationTicks": 12,
          "midi": 72,
          "name": "C5",
          "ticks": 32090,
          "time": 133.70833333333334,
          "velocity": 0.18110236220472442
        },
        {
          "duration": 0.32916666666667993,
          "durationTicks": 79,
          "midi": 57,
          "name": "A3",
          "ticks": 32155,
          "time": 133.97916666666666,
          "velocity": 0.2440944881889764
        },
        {
          "duration": 0.1708333333333485,
          "durationTicks": 41,
          "midi": 72,
          "name": "C5",
          "ticks": 32193,
          "time": 134.1375,
          "velocity": 0.11023622047244094
        },
        {
          "duration": 0.07083333333332575,
          "durationTicks": 17,
          "midi": 88,
          "name": "E6",
          "ticks": 32270,
          "time": 134.45833333333334,
          "velocity": 0.15748031496062992
        },
        {
          "duration": 0.3499999999999943,
          "durationTicks": 84,
          "midi": 60,
          "name": "C4",
          "ticks": 32282,
          "time": 134.50833333333333,
          "velocity": 0.1732283464566929
        },
        {
          "duration": 0.1291666666666913,
          "durationTicks": 31,
          "midi": 64,
          "name": "E4",
          "ticks": 32313,
          "time": 134.6375,
          "velocity": 0.11023622047244094
        },
        {
          "duration": 0.2583333333333542,
          "durationTicks": 62,
          "midi": 64,
          "name": "E4",
          "ticks": 32433,
          "time": 135.1375,
          "velocity": 0.14960629921259844
        },
        {
          "duration": 0.06666666666666288,
          "durationTicks": 16,
          "midi": 60,
          "name": "C4",
          "ticks": 32479,
          "time": 135.32916666666668,
          "velocity": 0.11023622047244094
        },
        {
          "duration": 0.05000000000001137,
          "durationTicks": 12,
          "midi": 55,
          "name": "G3",
          "ticks": 32587,
          "time": 135.77916666666667,
          "velocity": 0.11023622047244094
        },
        {
          "duration": 0.037499999999994316,
          "durationTicks": 9,
          "midi": 31,
          "name": "G1",
          "ticks": 32702,
          "time": 136.25833333333333,
          "velocity": 0.1732283464566929
        },
        {
          "duration": 0.05000000000001137,
          "durationTicks": 12,
          "midi": 79,
          "name": "G5",
          "ticks": 32740,
          "time": 136.41666666666666,
          "velocity": 0.09448818897637795
        },
        {
          "duration": 0.16250000000002274,
          "durationTicks": 39,
          "midi": 62,
          "name": "D4",
          "ticks": 32980,
          "time": 137.41666666666666,
          "velocity": 0.14173228346456693
        },
        {
          "duration": 0.13749999999998863,
          "durationTicks": 33,
          "midi": 60,
          "name": "C4",
          "ticks": 33230,
          "time": 138.45833333333334,
          "velocity": 0.2283464566929134
        },
        {
          "duration": 0.3583333333333485,
          "durationTicks": 86,
          "midi": 60,
          "name": "C4",
          "ticks": 33326,
          "time": 138.85833333333332,
          "velocity": 0.2204724409448819
        },
        {
          "duration": 0.13749999999998863,
          "durationTicks": 33,
          "midi": 69,
          "name": "A4",
          "ticks": 33379,
          "time": 139.07916666666668,
          "velocity": 0.1968503937007874
        },
        {
          "duration": 0.07916666666665151,
          "durationTicks": 19,
          "midi": 59,
          "name": "B3",
          "ticks": 33657,
          "time": 140.2375,
          "velocity": 0.31496062992125984
        },
        {
          "duration": 0.18333333333333712,
          "durationTicks": 44,
          "midi": 59,
          "name": "B3",
          "ticks": 33755,
          "time": 140.64583333333334,
          "velocity": 0.2440944881889764
        },
        {
          "duration": 0.32083333333332575,
          "durationTicks": 77,
          "midi": 59,
          "name": "B3",
          "ticks": 33856,
          "time": 141.06666666666666,
          "velocity": 0.2283464566929134
        },
        {
          "duration": 0.041666666666685614,
          "durationTicks": 10,
          "midi": 86,
          "name": "D6",
          "ticks": 33873,
          "time": 141.1375,
          "velocity": 0.18110236220472442
        },
        {
          "duration": 0.07083333333335418,
          "durationTicks": 17,
          "midi": 79,
          "name": "G5",
          "ticks": 34046,
          "time": 141.85833333333332,
          "velocity": 0.07874015748031496
        },
        {
          "duration": 0.2583333333333542,
          "durationTicks": 62,
          "midi": 69,
          "name": "A4",
          "ticks": 34135,
          "time": 142.22916666666666,
          "velocity": 0.2047244094488189
        },
        {
          "duration": 0.1208333333333087,
          "durationTicks": 29,
          "midi": 81,
          "name": "A5",
          "ticks": 34137,
          "time": 142.2375,
          "velocity": 0.14960629921259844
        },
        {
          "duration": 0.18333333333333712,
          "durationTicks": 44,
          "midi": 69,
          "name": "A4",
          "ticks": 34271,
          "time": 142.79583333333332,
          "velocity": 0.1732283464566929
        },
        {
          "duration": 0.07916666666667993,
          "durationTicks": 19,
          "midi": 59,
          "name": "B3",
          "ticks": 34442,
          "time": 143.50833333333333,
          "velocity": 0.31496062992125984
        },
        {
          "duration": 0.2291666666666572,
          "durationTicks": 55,
          "midi": 71,
          "name": "B4",
          "ticks": 34538,
          "time": 143.90833333333333,
          "velocity": 0.2204724409448819
        },
        {
          "duration": 0.09166666666666856,
          "durationTicks": 22,
          "midi": 84,
          "name": "C6",
          "ticks": 34828,
          "time": 145.11666666666667,
          "velocity": 0.07874015748031496
        },
        {
          "duration": 0.07083333333332575,
          "durationTicks": 17,
          "midi": 88,
          "name": "E6",
          "ticks": 34876,
          "time": 145.31666666666666,
          "velocity": 0.2677165354330709
        },
        {
          "duration": 0.07083333333335418,
          "durationTicks": 17,
          "midi": 60,
          "name": "C4",
          "ticks": 34900,
          "time": 145.41666666666666,
          "velocity": 0.2047244094488189
        },
        {
          "duration": 0.06666666666666288,
          "durationTicks": 16,
          "midi": 69,
          "name": "A4",
          "ticks": 34963,
          "time": 145.67916666666667,
          "velocity": 0.09448818897637795
        },
        {
          "duration": 0.041666666666685614,
          "durationTicks": 10,
          "midi": 88,
          "name": "E6",
          "ticks": 35013,
          "time": 145.8875,
          "velocity": 0.08661417322834646
        },
        {
          "duration": 0.05000000000001137,
          "durationTicks": 12,
          "midi": 64,
          "name": "E4",
          "ticks": 35680,
          "time": 148.66666666666666,
          "velocity": 0.2047244094488189
        },
        {
          "duration": 0.09166666666666856,
          "durationTicks": 22,
          "midi": 71,
          "name": "B4",
          "ticks": 35913,
          "time": 149.6375,
          "velocity": 0.2755905511811024
        },
        {
          "duration": 0.20000000000001705,
          "durationTicks": 48,
          "midi": 60,
          "name": "C4",
          "ticks": 36371,
          "time": 151.54583333333332,
          "velocity": 0.25984251968503935
        },
        {
          "duration": 0.27916666666666856,
          "durationTicks": 67,
          "midi": 50,
          "name": "D3",
          "ticks": 36410,
          "time": 151.70833333333334,
          "velocity": 0.09448818897637795
        },
        {
          "duration": 0.08749999999997726,
          "durationTicks": 21,
          "midi": 79,
          "name": "G5",
          "ticks": 36470,
          "time": 151.95833333333334,
          "velocity": 0.08661417322834646
        },
        {
          "duration": 0.05833333333333712,
          "durationTicks": 14,
          "midi": 98,
          "name": "D7",
          "ticks": 36633,
          "time": 152.6375,
          "velocity": 0.29133858267716534
        },
        {
          "duration": 0.07083333333332575,
          "durationTicks": 17,
          "midi": 81,
          "name": "A5",
          "ticks": 36969,
          "time": 154.0375,
          "velocity": 0.2755905511811024
        },
        {
          "duration": 0.2291666666666572,
          "durationTicks": 55,
          "midi": 53,
          "name": "F3",
          "ticks": 37058,
          "time": 154.40833333333333,
          "velocity": 0.29133858267716534
        },
        {
          "duration": 0.05000000000001137,
          "durationTicks": 12,
          "midi": 67,
          "name": "G4",
          "ticks": 37072,
          "time": 154.46666666666667,
          "velocity": 0.10236220472440945
        },
        {
          "duration": 0.2708333333333144,
          "durationTicks": 65,
          "midi": 88,
          "name": "E6",
          "ticks": 37250,
          "time": 155.20833333333334,
          "velocity": 0.30708661417322836
        },
        {
          "duration": 0.08333333333334281,
          "durationTicks": 20,
          "midi": 55,
          "name": "G3",
          "ticks": 37331,
          "time": 155.54583333333332,
          "velocity": 0.2283464566929134
        },
        {
          "duration": 0.0625,
          "durationTicks": 15,
          "midi": 79,
          "name": "G5",
          "ticks": 37331,
          "time": 155.54583333333332,
          "velocity": 0.1732283464566929
        },
        {
          "duration": 0.10833333333332007,
          "durationTicks": 26,
          "midi": 55,
          "name": "G3",
          "ticks": 37363,
          "time": 155.67916666666667,
          "velocity": 0.1732283464566929
        },
        {
          "duration": 0.1708333333333485,
          "durationTicks": 41,
          "midi": 71,
          "name": "B4",
          "ticks": 37451,
          "time": 156.04583333333332,
          "velocity": 0.1968503937007874
        },
        {
          "duration": 0.09166666666666856,
          "durationTicks": 22,
          "midi": 67,
          "name": "G4",
          "ticks": 37485,
          "time": 156.1875,
          "velocity": 0.1732283464566929
        },
        {
          "duration": 0.07916666666665151,
          "durationTicks": 19,
          "midi": 76,
          "name": "E5",
          "ticks": 37519,
          "time": 156.32916666666668,
          "velocity": 0.2125984251968504
        },
        {
          "duration": 0.1708333333333485,
          "durationTicks": 41,
          "midi": 54,
          "name": "F#3",
          "ticks": 37629,
          "time": 156.7875,
          "velocity": 0.25196850393700787
        },
        {
          "duration": 0.08750000000000568,
          "durationTicks": 21,
          "midi": 41,
          "name": "F2",
          "ticks": 37771,
          "time": 157.37916666666666,
          "velocity": 0.2283464566929134
        },
        {
          "duration": 0.05000000000001137,
          "durationTicks": 12,
          "midi": 85,
          "name": "C#6",
          "ticks": 37785,
          "time": 157.4375,
          "velocity": 0.16535433070866143
        },
        {
          "duration": 0.0625,
          "durationTicks": 15,
          "midi": 83,
          "name": "B5",
          "ticks": 38015,
          "time": 158.39583333333334,
          "velocity": 0.11023622047244094
        },
        {
          "duration": 0.037499999999994316,
          "durationTicks": 9,
          "midi": 99,
          "name": "D#7",
          "ticks": 38287,
          "time": 159.52916666666667,
          "velocity": 0.25196850393700787
        },
        {
          "duration": 0.17916666666667425,
          "durationTicks": 43,
          "midi": 83,
          "name": "B5",
          "ticks": 39129,
          "time": 163.0375,
          "velocity": 0.28346456692913385
        },
        {
          "duration": 0.05833333333333712,
          "durationTicks": 14,
          "midi": 40,
          "name": "E2",
          "ticks": 39129,
          "time": 163.0375,
          "velocity": 0.07874015748031496
        },
        {
          "duration": 0.10000000000002274,
          "durationTicks": 24,
          "midi": 83,
          "name": "B5",
          "ticks": 39326,
          "time": 163.85833333333332,
          "velocity": 0.12598425196850394
        },
        {
          "duration": 0.09999999999999432,
          "durationTicks": 24,
          "midi": 83,
          "name": "B5",
          "ticks": 39374,
          "time": 164.05833333333334,
          "velocity": 0.31496062992125984
        },
        {
          "duration": 0.05000000000001137,
          "durationTicks": 12,
          "midi": 74,
          "name": "D5",
          "ticks": 39532,
          "time": 164.71666666666667,
          "velocity": 0.18110236220472442
        },
        {
          "duration": 0.14166666666667993,
          "durationTicks": 34,
          "midi": 83,
          "name": "B5",
          "ticks": 39587,
          "time": 164.94583333333333,
          "velocity": 0.16535433070866143
        },
        {
          "duration": 0.05833333333333712,
          "durationTicks": 14,
          "midi": 91,
          "name": "G6",
          "ticks": 40113,
          "time": 167.1375,
          "velocity": 0.3228346456692913
        },
        {
          "duration": 0.07916666666665151,
          "durationTicks": 19,
          "midi": 43,
          "name": "G2",
          "ticks": 40154,
          "time": 167.30833333333334,
          "velocity": 0.4330708661417323
        },
        {
          "duration": 0.10833333333332007,
          "durationTicks": 26,
          "midi": 32,
          "name": "G#1",
          "ticks": 40305,
          "time": 167.9375,
          "velocity": 0.49606299212598426
        },
        {
          "duration": 0.04166666666665719,
          "durationTicks": 10,
          "midi": 55,
          "name": "G3",
          "ticks": 40564,
          "time": 169.01666666666668,
          "velocity": 0.30708661417322836
        },
        {
          "duration": 0.13749999999998863,
          "durationTicks": 33,
          "midi": 59,
          "name": "B3",
          "ticks": 40579,
          "time": 169.07916666666668,
          "velocity": 0.2755905511811024
        },
        {
          "duration": 0.04166666666665719,
          "durationTicks": 10,
          "midi": 52,
          "name": "E3",
          "ticks": 40852,
          "time": 170.21666666666667,
          "velocity": 0.36220472440944884
        },
        {
          "duration": 0.1416666666666515,
          "durationTicks": 34,
          "midi": 81,
          "name": "A5",
          "ticks": 41039,
          "time": 170.99583333333334,
          "velocity": 0.23622047244094488
        },
        {
          "duration": 0.11249999999998295,
          "durationTicks": 27,
          "midi": 31,
          "name": "G1",
          "ticks": 41075,
          "time": 171.14583333333334,
          "velocity": 0.25196850393700787
        },
        {
          "duration": 0.05833333333333712,
          "durationTicks": 14,
          "midi": 91,
          "name": "G6",
          "ticks": 41155,
          "time": 171.47916666666666,
          "velocity": 0.2283464566929134
        },
        {
          "duration": 0.05000000000001137,
          "durationTicks": 12,
          "midi": 93,
          "name": "A6",
          "ticks": 41287,
          "time": 172.02916666666667,
          "velocity": 0.2125984251968504
        },
        {
          "duration": 0.11250000000001137,
          "durationTicks": 27,
          "midi": 32,
          "name": "G#1",
          "ticks": 41351,
          "time": 172.29583333333332,
          "velocity": 0.28346456692913385
        },
        {
          "duration": 0.15833333333333144,
          "durationTicks": 38,
          "midi": 67,
          "name": "G4",
          "ticks": 41409,
          "time": 172.5375,
          "velocity": 0.3779527559055118
        },
        {
          "duration": 0.04999999999998295,
          "durationTicks": 12,
          "midi": 55,
          "name": "G3",
          "ticks": 41435,
          "time": 172.64583333333334,
          "velocity": 0.25984251968503935
        },
        {
          "duration": 0.05000000000001137,
          "durationTicks": 12,
          "midi": 36,
          "name": "C2",
          "ticks": 41471,
          "time": 172.79583333333332,
          "velocity": 0.3700787401574803
        },
        {
          "duration": 0.0625,
          "durationTicks": 15,
          "midi": 88,
          "name": "E6",
          "ticks": 41603,
          "time": 173.34583333333333,
          "velocity": 0.10236220472440945
        },
        {
          "duration": 0.04166666666665719,
          "durationTicks": 10,
          "midi": 93,
          "name": "A6",
          "ticks": 41939,
          "time": 174.74583333333334,
          "velocity": 0.25984251968503935
        },
        {
          "duration": 0.04999999999998295,
          "durationTicks": 12,
          "midi": 91,
          "name": "G6",
          "ticks": 42199,
          "time": 175.82916666666668,
          "velocity": 0.2755905511811024
        },
        {
          "duration": 0.07083333333332575,
          "durationTicks": 17,
          "midi": 87,
          "name": "D#6",
          "ticks": 42563,
          "time": 177.34583333333333,
          "velocity": 0.3228346456692913
        },
        {
          "duration": 0.03750000000002274,
          "durationTicks": 9,
          "midi": 64,
          "name": "E4",
          "ticks": 42655,
          "time": 177.72916666666666,
          "velocity": 0.28346456692913385
        },
        {
          "duration": 0.12916666666666288,
          "durationTicks": 31,
          "midi": 90,
          "name": "F#6",
          "ticks": 42736,
          "time": 178.06666666666666,
          "velocity": 0.2992125984251969
        },
        {
          "duration": 0.12916666666666288,
          "durationTicks": 31,
          "midi": 86,
          "name": "D6",
          "ticks": 42777,
          "time": 178.2375,
          "velocity": 0.2755905511811024
        },
        {
          "duration": 0.12083333333333712,
          "durationTicks": 29,
          "midi": 86,
          "name": "D6",
          "ticks": 42945,
          "time": 178.9375,
          "velocity": 0.18110236220472442
        },
        {
          "duration": 0.2874999999999943,
          "durationTicks": 69,
          "midi": 84,
          "name": "C6",
          "ticks": 43171,
          "time": 179.87916666666666,
          "velocity": 0.3779527559055118
        },
        {
          "duration": 0.05000000000001137,
          "durationTicks": 12,
          "midi": 72,
          "name": "C5",
          "ticks": 43187,
          "time": 179.94583333333333,
          "velocity": 0.2047244094488189
        },
        {
          "duration": 0.12916666666666288,
          "durationTicks": 31,
          "midi": 83,
          "name": "B5",
          "ticks": 43252,
          "time": 180.21666666666667,
          "velocity": 0.3543307086614173
        },
        {
          "duration": 0.041666666666685614,
          "durationTicks": 10,
          "midi": 38,
          "name": "D2",
          "ticks": 43269,
          "time": 180.2875,
          "velocity": 0.2677165354330709
        },
        {
          "duration": 0.1875,
          "durationTicks": 45,
          "midi": 84,
          "name": "C6",
          "ticks": 43298,
          "time": 180.40833333333333,
          "velocity": 0.15748031496062992
        },
        {
          "duration": 0.14999999999997726,
          "durationTicks": 36,
          "midi": 85,
          "name": "C#6",
          "ticks": 43437,
          "time": 180.9875,
          "velocity": 0.3543307086614173
        },
        {
          "duration": 0.05833333333333712,
          "durationTicks": 14,
          "midi": 67,
          "name": "G4",
          "ticks": 43509,
          "time": 181.2875,
          "velocity": 0.3228346456692913
        },
        {
          "duration": 0.07083333333335418,
          "durationTicks": 17,
          "midi": 81,
          "name": "A5",
          "ticks": 43526,
          "time": 181.35833333333332,
          "velocity": 0.1889763779527559
        },
        {
          "duration": 0.07083333333332575,
          "durationTicks": 17,
          "midi": 38,
          "name": "D2",
          "ticks": 43528,
          "time": 181.36666666666667,
          "velocity": 0.1889763779527559
        },
        {
          "duration": 0.12083333333333712,
          "durationTicks": 29,
          "midi": 78,
          "name": "F#5",
          "ticks": 43533,
          "time": 181.3875,
          "velocity": 0.3228346456692913
        },
        {
          "duration": 0.07083333333332575,
          "durationTicks": 17,
          "midi": 37,
          "name": "C#2",
          "ticks": 43552,
          "time": 181.46666666666667,
          "velocity": 0.2047244094488189
        },
        {
          "duration": 0.13749999999998863,
          "durationTicks": 33,
          "midi": 59,
          "name": "B3",
          "ticks": 43838,
          "time": 182.65833333333333,
          "velocity": 0.3937007874015748
        },
        {
          "duration": 0.12916666666666288,
          "durationTicks": 31,
          "midi": 81,
          "name": "A5",
          "ticks": 43879,
          "time": 182.82916666666668,
          "velocity": 0.31496062992125984
        },
        {
          "duration": 0.07083333333335418,
          "durationTicks": 17,
          "midi": 67,
          "name": "G4",
          "ticks": 43967,
          "time": 183.19583333333333,
          "velocity": 0.44881889763779526
        },
        {
          "duration": 0.0625,
          "durationTicks": 15,
          "midi": 52,
          "name": "E3",
          "ticks": 43972,
          "time": 183.21666666666667,
          "velocity": 0.2283464566929134
        },
        {
          "duration": 0.13749999999998863,
          "durationTicks": 33,
          "midi": 76,
          "name": "E5",
          "ticks": 44023,
          "time": 183.42916666666667,
          "velocity": 0.4645669291338583
        },
        {
          "duration": 0.037499999999994316,
          "durationTicks": 9,
          "midi": 74,
          "name": "D5",
          "ticks": 44030,
          "time": 183.45833333333334,
          "velocity": 0.4015748031496063
        },
        {
          "duration": 0.16250000000002274,
          "durationTicks": 39,
          "midi": 69,
          "name": "A4",
          "ticks": 44051,
          "time": 183.54583333333332,
          "velocity": 0.4251968503937008
        },
        {
          "duration": 0.19999999999998863,
          "durationTicks": 48,
          "midi": 48,
          "name": "C3",
          "ticks": 44061,
          "time": 183.5875,
          "velocity": 0.3464566929133858
        },
        {
          "duration": 0.15000000000000568,
          "durationTicks": 36,
          "midi": 41,
          "name": "F2",
          "ticks": 44121,
          "time": 183.8375,
          "velocity": 0.3543307086614173
        },
        {
          "duration": 0.05833333333333712,
          "durationTicks": 14,
          "midi": 78,
          "name": "F#5",
          "ticks": 44150,
          "time": 183.95833333333334,
          "velocity": 0.5039370078740157
        },
        {
          "duration": 0.09999999999999432,
          "durationTicks": 24,
          "midi": 29,
          "name": "F1",
          "ticks": 44188,
          "time": 184.11666666666667,
          "velocity": 0.44881889763779526
        },
        {
          "duration": 0.10000000000002274,
          "durationTicks": 24,
          "midi": 29,
          "name": "F1",
          "ticks": 44253,
          "time": 184.3875,
          "velocity": 0.31496062992125984
        },
        {
          "duration": 0.3125,
          "durationTicks": 75,
          "midi": 64,
          "name": "E4",
          "ticks": 44392,
          "time": 184.96666666666667,
          "velocity": 0.5590551181102362
        },
        {
          "duration": 0.037499999999994316,
          "durationTicks": 9,
          "midi": 50,
          "name": "D3",
          "ticks": 44402,
          "time": 185.00833333333333,
          "velocity": 0.5196850393700787
        },
        {
          "duration": 0.09166666666666856,
          "durationTicks": 22,
          "midi": 81,
          "name": "A5",
          "ticks": 44421,
          "time": 185.0875,
          "velocity": 0.3937007874015748
        },
        {
          "duration": 0.2583333333333542,
          "durationTicks": 62,
          "midi": 32,
          "name": "G#1",
          "ticks": 44493,
          "time": 185.3875,
          "velocity": 0.4015748031496063
        },
        {
          "duration": 0.14999999999997726,
          "durationTicks": 36,
          "midi": 67,
          "name": "G4",
          "ticks": 44495,
          "time": 185.39583333333334,
          "velocity": 0.1968503937007874
        },
        {
          "duration": 0.30000000000001137,
          "durationTicks": 72,
          "midi": 55,
          "name": "G3",
          "ticks": 44575,
          "time": 185.72916666666666,
          "velocity": 0.4251968503937008
        },
        {
          "duration": 0.04166666666665719,
          "durationTicks": 10,
          "midi": 59,
          "name": "B3",
          "ticks": 44661,
          "time": 186.0875,
          "velocity": 0.33858267716535434
        },
        {
          "duration": 0.13750000000001705,
          "durationTicks": 33,
          "midi": 28,
          "name": "E1",
          "ticks": 44726,
          "time": 186.35833333333332,
          "velocity": 0.4251968503937008
        },
        {
          "duration": 0.04166666666665719,
          "durationTicks": 10,
          "midi": 68,
          "name": "G#4",
          "ticks": 44788,
          "time": 186.61666666666667,
          "velocity": 0.09448818897637795
        },
        {
          "duration": 0.32083333333332575,
          "durationTicks": 77,
          "midi": 45,
          "name": "A2",
          "ticks": 44858,
          "time": 186.90833333333333,
          "velocity": 0.4645669291338583
        },
        {
          "duration": 0.07083333333332575,
          "durationTicks": 17,
          "midi": 60,
          "name": "C4",
          "ticks": 44956,
          "time": 187.31666666666666,
          "velocity": 0.41732283464566927
        },
        {
          "duration": 0.15000000000000568,
          "durationTicks": 36,
          "midi": 67,
          "name": "G4",
          "ticks": 45011,
          "time": 187.54583333333332,
          "velocity": 0.49606299212598426
        },
        {
          "duration": 0.11250000000001137,
          "durationTicks": 27,
          "midi": 57,
          "name": "A3",
          "ticks": 45280,
          "time": 188.66666666666666,
          "velocity": 0.4015748031496063
        },
        {
          "duration": 0.12083333333333712,
          "durationTicks": 29,
          "midi": 31,
          "name": "G1",
          "ticks": 45309,
          "time": 188.7875,
          "velocity": 0.2047244094488189
        },
        {
          "duration": 0.13333333333332575,
          "durationTicks": 32,
          "midi": 59,
          "name": "B3",
          "ticks": 45539,
          "time": 189.74583333333334,
          "velocity": 0.2440944881889764
        },
        {
          "duration": 0.07916666666667993,
          "durationTicks": 19,
          "midi": 30,
          "name": "F#1",
          "ticks": 45580,
          "time": 189.91666666666666,
          "velocity": 0.30708661417322836
        },
        {
          "duration": 0.037499999999994316,
          "durationTicks": 9,
          "midi": 59,
          "name": "B3",
          "ticks": 45638,
          "time": 190.15833333333333,
          "velocity": 0.29133858267716534
        },
        {
          "duration": 0.05833333333333712,
          "durationTicks": 14,
          "midi": 35,
          "name": "B1",
          "ticks": 45691,
          "time": 190.37916666666666,
          "velocity": 0.3700787401574803
        },
        {
          "duration": 0.07916666666665151,
          "durationTicks": 19,
          "midi": 48,
          "name": "C3",
          "ticks": 45808,
          "time": 190.86666666666667,
          "velocity": 0.3937007874015748
        },
        {
          "duration": 0.3499999999999943,
          "durationTicks": 84,
          "midi": 86,
          "name": "D6",
          "ticks": 45830,
          "time": 190.95833333333334,
          "velocity": 0.3228346456692913
        },
        {
          "duration": 0.08750000000000568,
          "durationTicks": 21,
          "midi": 59,
          "name": "B3",
          "ticks": 45878,
          "time": 191.15833333333333,
          "velocity": 0.16535433070866143
        },
        {
          "duration": 0.1416666666666515,
          "durationTicks": 34,
          "midi": 81,
          "name": "A5",
          "ticks": 45964,
          "time": 191.51666666666668,
          "velocity": 0.3937007874015748
        },
        {
          "duration": 0.17083333333332007,
          "durationTicks": 41,
          "midi": 41,
          "name": "F2",
          "ticks": 46144,
          "time": 192.26666666666668,
          "velocity": 0.4094488188976378
        },
        {
          "duration": 0.09166666666666856,
          "durationTicks": 22,
          "midi": 48,
          "name": "C3",
          "ticks": 46163,
          "time": 192.34583333333333,
          "velocity": 0.3464566929133858
        },
        {
          "duration": 0.12916666666666288,
          "durationTicks": 31,
          "midi": 67,
          "name": "G4",
          "ticks": 46341,
          "time": 193.0875,
          "velocity": 0.3779527559055118
        },
        {
          "duration": 0.05833333333333712,
          "durationTicks": 14,
          "midi": 31,
          "name": "G1",
          "ticks": 46370,
          "time": 193.20833333333334,
          "velocity": 0.23622047244094488
        },
        {
          "duration": 0.05000000000001137,
          "durationTicks": 12,
          "midi": 102,
          "name": "F#7",
          "ticks": 46396,
          "time": 193.31666666666666,
          "velocity": 0.3779527559055118
        },
        {
          "duration": 0.07916666666667993,
          "durationTicks": 19,
          "midi": 74,
          "name": "D5",
          "ticks": 46411,
          "time": 193.37916666666666,
          "velocity": 0.4881889763779528
        },
        {
          "duration": 0.04166666666665719,
          "durationTicks": 10,
          "midi": 34,
          "name": "A#1",
          "ticks": 46581,
          "time": 194.0875,
          "velocity": 0.11811023622047244
        },
        {
          "duration": 0.17916666666667425,
          "durationTicks": 43,
          "midi": 59,
          "name": "B3",
          "ticks": 46581,
          "time": 194.0875,
          "velocity": 0.3228346456692913
        },
        {
          "duration": 0.05000000000001137,
          "durationTicks": 12,
          "midi": 55,
          "name": "G3",
          "ticks": 46607,
          "time": 194.19583333333333,
          "velocity": 0.18110236220472442
        },
        {
          "duration": 0.2708333333333428,
          "durationTicks": 65,
          "midi": 55,
          "name": "G3",
          "ticks": 46706,
          "time": 194.60833333333332,
          "velocity": 0.4645669291338583
        },
        {
          "duration": 0.04999999999998295,
          "durationTicks": 12,
          "midi": 31,
          "name": "G1",
          "ticks": 46739,
          "time": 194.74583333333334,
          "velocity": 0.14173228346456693
        },
        {
          "duration": 0.12083333333333712,
          "durationTicks": 29,
          "midi": 67,
          "name": "G4",
          "ticks": 46859,
          "time": 195.24583333333334,
          "velocity": 0.47244094488188976
        },
        {
          "duration": 0.03750000000002274,
          "durationTicks": 9,
          "midi": 35,
          "name": "B1",
          "ticks": 46946,
          "time": 195.60833333333332,
          "velocity": 0.25984251968503935
        },
        {
          "duration": 0.17083333333332007,
          "durationTicks": 41,
          "midi": 64,
          "name": "E4",
          "ticks": 46955,
          "time": 195.64583333333334,
          "velocity": 0.3779527559055118
        },
        {
          "duration": 0.05000000000001137,
          "durationTicks": 12,
          "midi": 86,
          "name": "D6",
          "ticks": 46967,
          "time": 195.69583333333333,
          "velocity": 0.23622047244094488
        },
        {
          "duration": 0.0625,
          "durationTicks": 15,
          "midi": 91,
          "name": "G6",
          "ticks": 46984,
          "time": 195.76666666666668,
          "velocity": 0.23622047244094488
        },
        {
          "duration": 0.05833333333333712,
          "durationTicks": 14,
          "midi": 55,
          "name": "G3",
          "ticks": 47013,
          "time": 195.8875,
          "velocity": 0.41732283464566927
        },
        {
          "duration": 0.12916666666666288,
          "durationTicks": 31,
          "midi": 45,
          "name": "A2",
          "ticks": 47222,
          "time": 196.75833333333333,
          "velocity": 0.15748031496062992
        },
        {
          "duration": 0.11249999999998295,
          "durationTicks": 27,
          "midi": 83,
          "name": "B5",
          "ticks": 47279,
          "time": 196.99583333333334,
          "velocity": 0.44881889763779526
        },
        {
          "duration": 0.19999999999998863,
          "durationTicks": 48,
          "midi": 53,
          "name": "F3",
          "ticks": 47375,
          "time": 197.39583333333334,
          "velocity": 0.4409448818897638
        },
        {
          "duration": 0.05000000000001137,
          "durationTicks": 12,
          "midi": 72,
          "name": "C5",
          "ticks": 47440,
          "time": 197.66666666666666,
          "velocity": 0.3858267716535433
        },
        {
          "duration": 0.05833333333333712,
          "durationTicks": 14,
          "midi": 79,
          "name": "G5",
          "ticks": 47534,
          "time": 198.05833333333334,
          "velocity": 0.2992125984251969
        },
        {
          "duration": 0.10833333333332007,
          "durationTicks": 26,
          "midi": 91,
          "name": "G6",
          "ticks": 47697,
          "time": 198.7375,
          "velocity": 0.30708661417322836
        },
        {
          "duration": 0.12916666666666288,
          "durationTicks": 31,
          "midi": 64,
          "name": "E4",
          "ticks": 47956,
          "time": 199.81666666666666,
          "velocity": 0.13385826771653545
        },
        {
          "duration": 0.09999999999999432,
          "durationTicks": 24,
          "midi": 79,
          "name": "G5",
          "ticks": 48016,
          "time": 200.06666666666666,
          "velocity": 0.3937007874015748
        },
        {
          "duration": 0.03750000000002274,
          "durationTicks": 9,
          "midi": 93,
          "name": "A6",
          "ticks": 48146,
          "time": 200.60833333333332,
          "velocity": 0.2440944881889764
        },
        {
          "duration": 0.12083333333333712,
          "durationTicks": 29,
          "midi": 90,
          "name": "F#6",
          "ticks": 48215,
          "time": 200.89583333333334,
          "velocity": 0.3700787401574803
        },
        {
          "duration": 0.07916666666667993,
          "durationTicks": 19,
          "midi": 79,
          "name": "G5",
          "ticks": 48249,
          "time": 201.0375,
          "velocity": 0.44881889763779526
        },
        {
          "duration": 0.037499999999994316,
          "durationTicks": 9,
          "midi": 48,
          "name": "C3",
          "ticks": 48331,
          "time": 201.37916666666666,
          "velocity": 0.4566929133858268
        },
        {
          "duration": 0.03750000000002274,
          "durationTicks": 9,
          "midi": 41,
          "name": "F2",
          "ticks": 48415,
          "time": 201.72916666666666,
          "velocity": 0.16535433070866143
        },
        {
          "duration": 0.05833333333333712,
          "durationTicks": 14,
          "midi": 48,
          "name": "C3",
          "ticks": 48429,
          "time": 201.7875,
          "velocity": 0.33858267716535434
        },
        {
          "duration": 0.1416666666666515,
          "durationTicks": 34,
          "midi": 71,
          "name": "B4",
          "ticks": 48479,
          "time": 201.99583333333334,
          "velocity": 0.4251968503937008
        },
        {
          "duration": 0.12083333333333712,
          "durationTicks": 29,
          "midi": 102,
          "name": "F#7",
          "ticks": 48489,
          "time": 202.0375,
          "velocity": 0.41732283464566927
        },
        {
          "duration": 0.12083333333333712,
          "durationTicks": 29,
          "midi": 62,
          "name": "D4",
          "ticks": 48676,
          "time": 202.81666666666666,
          "velocity": 0.18110236220472442
        },
        {
          "duration": 0.42916666666667425,
          "durationTicks": 103,
          "midi": 55,
          "name": "G3",
          "ticks": 48760,
          "time": 203.16666666666666,
          "velocity": 0.49606299212598426
        },
        {
          "duration": 0.12916666666666288,
          "durationTicks": 31,
          "midi": 69,
          "name": "A4",
          "ticks": 48770,
          "time": 203.20833333333334,
          "velocity": 0.2283464566929134
        },
        {
          "duration": 0.1708333333333485,
          "durationTicks": 41,
          "midi": 31,
          "name": "G1",
          "ticks": 48796,
          "time": 203.31666666666666,
          "velocity": 0.25984251968503935
        },
        {
          "duration": 0.14166666666667993,
          "durationTicks": 34,
          "midi": 102,
          "name": "F#7",
          "ticks": 48885,
          "time": 203.6875,
          "velocity": 0.4566929133858268
        },
        {
          "duration": 0.07916666666665151,
          "durationTicks": 19,
          "midi": 52,
          "name": "E3",
          "ticks": 49048,
          "time": 204.36666666666667,
          "velocity": 0.31496062992125984
        },
        {
          "duration": 0.0625,
          "durationTicks": 15,
          "midi": 86,
          "name": "D6",
          "ticks": 49091,
          "time": 204.54583333333332,
          "velocity": 0.1732283464566929
        },
        {
          "duration": 0.05000000000001137,
          "durationTicks": 12,
          "midi": 74,
          "name": "D5",
          "ticks": 49147,
          "time": 204.77916666666667,
          "velocity": 0.16535433070866143
        },
        {
          "duration": 0.07916666666667993,
          "durationTicks": 19,
          "midi": 74,
          "name": "D5",
          "ticks": 49171,
          "time": 204.87916666666666,
          "velocity": 0.25196850393700787
        },
        {
          "duration": 0.09166666666664014,
          "durationTicks": 22,
          "midi": 31,
          "name": "G1",
          "ticks": 49204,
          "time": 205.01666666666668,
          "velocity": 0.2992125984251969
        },
        {
          "duration": 0.1875,
          "durationTicks": 45,
          "midi": 31,
          "name": "G1",
          "ticks": 49322,
          "time": 205.50833333333333,
          "velocity": 0.28346456692913385
        },
        {
          "duration": 0.04999999999998295,
          "durationTicks": 12,
          "midi": 64,
          "name": "E4",
          "ticks": 49430,
          "time": 205.95833333333334,
          "velocity": 0.41732283464566927
        },
        {
          "duration": 0.11250000000001137,
          "durationTicks": 27,
          "midi": 79,
          "name": "G5",
          "ticks": 49487,
          "time": 206.19583333333333,
          "velocity": 0.5039370078740157
        },
        {
          "duration": 0.07083333333332575,
          "durationTicks": 17,
          "midi": 60,
          "name": "C4",
          "ticks": 49694,
          "time": 207.05833333333334,
          "velocity": 0.25196850393700787
        },
        {
          "duration": 0.20000000000001705,
          "durationTicks": 48,
          "midi": 59,
          "name": "B3",
          "ticks": 49727,
          "time": 207.19583333333333,
          "velocity": 0.2677165354330709
        },
        {
          "duration": 0.19999999999998863,
          "durationTicks": 48,
          "midi": 28,
          "name": "E1",
          "ticks": 49883,
          "time": 207.84583333333333,
          "velocity": 0.4251968503937008
        },
        {
          "duration": 0.3291666666666515,
          "durationTicks": 79,
          "midi": 83,
          "name": "B5",
          "ticks": 49927,
          "time": 208.02916666666667,
          "velocity": 0.3937007874015748
        },
        {
          "duration": 0.07083333333332575,
          "durationTicks": 17,
          "midi": 28,
          "name": "E1",
          "ticks": 49948,
          "time": 208.11666666666667,
          "velocity": 0.2992125984251969
        },
        {
          "duration": 0.14166666666667993,
          "durationTicks": 34,
          "midi": 36,
          "name": "C2",
          "ticks": 50013,
          "time": 208.3875,
          "velocity": 0.4015748031496063
        },
        {
          "duration": 0.07916666666667993,
          "durationTicks": 19,
          "midi": 55,
          "name": "G3",
          "ticks": 50020,
          "time": 208.41666666666666,
          "velocity": 0.33070866141732286
        },
        {
          "duration": 0.14166666666667993,
          "durationTicks": 34,
          "midi": 28,
          "name": "E1",
          "ticks": 50027,
          "time": 208.44583333333333,
          "velocity": 0.29133858267716534
        },
        {
          "duration": 0.12083333333333712,
          "durationTicks": 29,
          "midi": 91,
          "name": "G6",
          "ticks": 50075,
          "time": 208.64583333333334,
          "velocity": 0.2125984251968504
        },
        {
          "duration": 0.05833333333333712,
          "durationTicks": 14,
          "midi": 86,
          "name": "D6",
          "ticks": 50095,
          "time": 208.72916666666666,
          "velocity": 0.18110236220472442
        },
        {
          "duration": 0.05000000000001137,
          "durationTicks": 12,
          "midi": 91,
          "name": "G6",
          "ticks": 50152,
          "time": 208.96666666666667,
          "velocity": 0.2204724409448819
        },
        {
          "duration": 0.09166666666666856,
          "durationTicks": 22,
          "midi": 32,
          "name": "G#1",
          "ticks": 50253,
          "time": 209.3875,
          "velocity": 0.1889763779527559
        },
        {
          "duration": 0.05833333333333712,
          "durationTicks": 14,
          "midi": 83,
          "name": "B5",
          "ticks": 50318,
          "time": 209.65833333333333,
          "velocity": 0.2125984251968504
        },
        {
          "duration": 0.16249999999999432,
          "durationTicks": 39,
          "midi": 41,
          "name": "F2",
          "ticks": 50332,
          "time": 209.71666666666667,
          "velocity": 0.41732283464566927
        },
        {
          "duration": 0.15000000000000568,
          "durationTicks": 36,
          "midi": 48,
          "name": "C3",
          "ticks": 50342,
          "time": 209.75833333333333,
          "velocity": 0.36220472440944884
        },
        {
          "duration": 0.05833333333333712,
          "durationTicks": 14,
          "midi": 48,
          "name": "C3",
          "ticks": 50421,
          "time": 210.0875,
          "velocity": 0.49606299212598426
        },
        {
          "duration": 0.12083333333333712,
          "durationTicks": 29,
          "midi": 41,
          "name": "F2",
          "ticks": 50507,
          "time": 210.44583333333333,
          "velocity": 0.29133858267716534
        },
        {
          "duration": 0.05833333333333712,
          "durationTicks": 14,
          "midi": 29,
          "name": "F1",
          "ticks": 50570,
          "time": 210.70833333333334,
          "velocity": 0.3464566929133858
        },
        {
          "duration": 0.09166666666666856,
          "durationTicks": 22,
          "midi": 102,
          "name": "F#7",
          "ticks": 50577,
          "time": 210.7375,
          "velocity": 0.4566929133858268
        },
        {
          "duration": 0.3333333333333144,
          "durationTicks": 80,
          "midi": 64,
          "name": "E4",
          "ticks": 50675,
          "time": 211.14583333333334,
          "velocity": 0.4409448818897638
        },
        {
          "duration": 0.12083333333333712,
          "durationTicks": 29,
          "midi": 59,
          "name": "B3",
          "ticks": 50728,
          "time": 211.36666666666667,
          "velocity": 0.1889763779527559
        },
        {
          "duration": 0.13333333333332575,
          "durationTicks": 32,
          "midi": 59,
          "name": "B3",
          "ticks": 51035,
          "time": 212.64583333333334,
          "velocity": 0.3543307086614173
        },
        {
          "duration": 0.19999999999998863,
          "durationTicks": 48,
          "midi": 52,
          "name": "E3",
          "ticks": 51117,
          "time": 212.9875,
          "velocity": 0.31496062992125984
        },
        {
          "duration": 0.29999999999998295,
          "durationTicks": 72,
          "midi": 45,
          "name": "A2",
          "ticks": 51141,
          "time": 213.0875,
          "velocity": 0.4094488188976378
        },
        {
          "duration": 0.15000000000000568,
          "durationTicks": 36,
          "midi": 86,
          "name": "D6",
          "ticks": 51148,
          "time": 213.11666666666667,
          "velocity": 0.3228346456692913
        },
        {
          "duration": 0.09166666666666856,
          "durationTicks": 22,
          "midi": 45,
          "name": "A2",
          "ticks": 51568,
          "time": 214.86666666666667,
          "velocity": 0.3228346456692913
        },
        {
          "duration": 0.19166666666666288,
          "durationTicks": 46,
          "midi": 31,
          "name": "G1",
          "ticks": 51681,
          "time": 215.3375,
          "velocity": 0.28346456692913385
        },
        {
          "duration": 0.0625,
          "durationTicks": 15,
          "midi": 67,
          "name": "G4",
          "ticks": 51875,
          "time": 216.14583333333334,
          "velocity": 0.31496062992125984
        },
        {
          "duration": 0.04999999999998295,
          "durationTicks": 12,
          "midi": 64,
          "name": "E4",
          "ticks": 51890,
          "time": 216.20833333333334,
          "velocity": 0.12598425196850394
        },
        {
          "duration": 0.10833333333332007,
          "durationTicks": 26,
          "midi": 64,
          "name": "E4",
          "ticks": 51907,
          "time": 216.27916666666667,
          "velocity": 0.09448818897637795
        },
        {
          "duration": 0.0625,
          "durationTicks": 15,
          "midi": 64,
          "name": "E4",
          "ticks": 52072,
          "time": 216.96666666666667,
          "velocity": 0.3228346456692913
        },
        {
          "duration": 0.03750000000002274,
          "durationTicks": 9,
          "midi": 81,
          "name": "A5",
          "ticks": 52075,
          "time": 216.97916666666666,
          "velocity": 0.16535433070866143
        },
        {
          "duration": 0.037499999999994316,
          "durationTicks": 9,
          "midi": 45,
          "name": "A2",
          "ticks": 52219,
          "time": 217.57916666666668,
          "velocity": 0.4409448818897638
        },
        {
          "duration": 0.07083333333335418,
          "durationTicks": 17,
          "midi": 83,
          "name": "B5",
          "ticks": 52226,
          "time": 217.60833333333332,
          "velocity": 0.29133858267716534
        },
        {
          "duration": 0.10833333333334849,
          "durationTicks": 26,
          "midi": 64,
          "name": "E4",
          "ticks": 52231,
          "time": 217.62916666666666,
          "velocity": 0.25196850393700787
        },
        {
          "duration": 0.05000000000001137,
          "durationTicks": 12,
          "midi": 85,
          "name": "C#6",
          "ticks": 52252,
          "time": 217.71666666666667,
          "velocity": 0.25196850393700787
        },
        {
          "duration": 0.12916666666666288,
          "durationTicks": 31,
          "midi": 81,
          "name": "A5",
          "ticks": 52255,
          "time": 217.72916666666666,
          "velocity": 0.3779527559055118
        },
        {
          "duration": 0.22083333333333144,
          "durationTicks": 53,
          "midi": 48,
          "name": "C3",
          "ticks": 52420,
          "time": 218.41666666666666,
          "velocity": 0.3464566929133858
        },
        {
          "duration": 0.07083333333332575,
          "durationTicks": 17,
          "midi": 64,
          "name": "E4",
          "ticks": 52610,
          "time": 219.20833333333334,
          "velocity": 0.18110236220472442
        },
        {
          "duration": 0.08750000000000568,
          "durationTicks": 21,
          "midi": 43,
          "name": "G2",
          "ticks": 52682,
          "time": 219.50833333333333,
          "velocity": 0.4094488188976378
        },
        {
          "duration": 0.11666666666664582,
          "durationTicks": 28,
          "midi": 43,
          "name": "G2",
          "ticks": 52819,
          "time": 220.07916666666668,
          "velocity": 0.2047244094488189
        },
        {
          "duration": 0.17916666666664582,
          "durationTicks": 43,
          "midi": 67,
          "name": "G4",
          "ticks": 52864,
          "time": 220.26666666666668,
          "velocity": 0.1889763779527559
        },
        {
          "duration": 0.08750000000000568,
          "durationTicks": 21,
          "midi": 83,
          "name": "B5",
          "ticks": 52867,
          "time": 220.27916666666667,
          "velocity": 0.10236220472440945
        },
        {
          "duration": 0.037499999999994316,
          "durationTicks": 9,
          "midi": 62,
          "name": "D4",
          "ticks": 52927,
          "time": 220.52916666666667,
          "velocity": 0.5039370078740157
        },
        {
          "duration": 0.2708333333333144,
          "durationTicks": 65,
          "midi": 86,
          "name": "D6",
          "ticks": 52941,
          "time": 220.5875,
          "velocity": 0.4566929133858268
        },
        {
          "duration": 0.07083333333335418,
          "durationTicks": 17,
          "midi": 93,
          "name": "A6",
          "ticks": 53020,
          "time": 220.91666666666666,
          "velocity": 0.2440944881889764
        },
        {
          "duration": 0.10000000000002274,
          "durationTicks": 24,
          "midi": 86,
          "name": "D6",
          "ticks": 53066,
          "time": 221.10833333333332,
          "velocity": 0.44881889763779526
        },
        {
          "duration": 0.04999999999998295,
          "durationTicks": 12,
          "midi": 100,
          "name": "E7",
          "ticks": 53104,
          "time": 221.26666666666668,
          "velocity": 0.49606299212598426
        },
        {
          "duration": 0.15000000000000568,
          "durationTicks": 36,
          "midi": 91,
          "name": "G6",
          "ticks": 53188,
          "time": 221.61666666666667,
          "velocity": 0.2755905511811024
        },
        {
          "duration": 0.36250000000001137,
          "durationTicks": 87,
          "midi": 62,
          "name": "D4",
          "ticks": 53243,
          "time": 221.84583333333333,
          "velocity": 0.4566929133858268
        },
        {
          "duration": 0.05833333333333712,
          "durationTicks": 14,
          "midi": 83,
          "name": "B5",
          "ticks": 53383,
          "time": 222.42916666666667,
          "velocity": 0.2992125984251969
        },
        {
          "duration": 0.09999999999999432,
          "durationTicks": 24,
          "midi": 87,
          "name": "D#6",
          "ticks": 53392,
          "time": 222.46666666666667,
          "velocity": 0.3700787401574803
        },
        {
          "duration": 0.04999999999998295,
          "durationTicks": 12,
          "midi": 102,
          "name": "F#7",
          "ticks": 53570,
          "time": 223.20833333333334,
          "velocity": 0.3779527559055118
        },
        {
          "duration": 0.12083333333333712,
          "durationTicks": 29,
          "midi": 88,
          "name": "E6",
          "ticks": 53642,
          "time": 223.50833333333333,
          "velocity": 0.3779527559055118
        },
        {
          "duration": 0.12916666666666288,
          "durationTicks": 31,
          "midi": 91,
          "name": "G6",
          "ticks": 53668,
          "time": 223.61666666666667,
          "velocity": 0.23622047244094488
        },
        {
          "duration": 0.05833333333333712,
          "durationTicks": 14,
          "midi": 38,
          "name": "D2",
          "ticks": 53695,
          "time": 223.72916666666666,
          "velocity": 0.11023622047244094
        },
        {
          "duration": 0.09999999999999432,
          "durationTicks": 24,
          "midi": 93,
          "name": "A6",
          "ticks": 53709,
          "time": 223.7875,
          "velocity": 0.3464566929133858
        },
        {
          "duration": 0.26249999999998863,
          "durationTicks": 63,
          "midi": 50,
          "name": "D3",
          "ticks": 53723,
          "time": 223.84583333333333,
          "velocity": 0.3543307086614173
        },
        {
          "duration": 0.25,
          "durationTicks": 60,
          "midi": 50,
          "name": "D3",
          "ticks": 53834,
          "time": 224.30833333333334,
          "velocity": 0.30708661417322836
        },
        {
          "duration": 0.05833333333333712,
          "durationTicks": 14,
          "midi": 64,
          "name": "E4",
          "ticks": 53865,
          "time": 224.4375,
          "velocity": 0.2992125984251969
        },
        {
          "duration": 0.07916666666665151,
          "durationTicks": 19,
          "midi": 62,
          "name": "D4",
          "ticks": 53923,
          "time": 224.67916666666667,
          "velocity": 0.23622047244094488
        },
        {
          "duration": 0.04999999999998295,
          "durationTicks": 12,
          "midi": 55,
          "name": "G3",
          "ticks": 53939,
          "time": 224.74583333333334,
          "velocity": 0.1889763779527559
        },
        {
          "duration": 0.05833333333333712,
          "durationTicks": 14,
          "midi": 92,
          "name": "G#6",
          "ticks": 53990,
          "time": 224.95833333333334,
          "velocity": 0.3937007874015748
        },
        {
          "duration": 0.0583333333333087,
          "durationTicks": 14,
          "midi": 95,
          "name": "B6",
          "ticks": 53997,
          "time": 224.9875,
          "velocity": 0.3228346456692913
        },
        {
          "duration": 0.3791666666666629,
          "durationTicks": 91,
          "midi": 67,
          "name": "G4",
          "ticks": 54045,
          "time": 225.1875,
          "velocity": 0.44881889763779526
        },
        {
          "duration": 0.07916666666665151,
          "durationTicks": 19,
          "midi": 55,
          "name": "G3",
          "ticks": 54170,
          "time": 225.70833333333334,
          "velocity": 0.2283464566929134
        },
        {
          "duration": 0.07916666666665151,
          "durationTicks": 19,
          "midi": 64,
          "name": "E4",
          "ticks": 54307,
          "time": 226.27916666666667,
          "velocity": 0.33858267716535434
        },
        {
          "duration": 0.05833333333333712,
          "durationTicks": 14,
          "midi": 81,
          "name": "A5",
          "ticks": 54338,
          "time": 226.40833333333333,
          "velocity": 0.2755905511811024
        },
        {
          "duration": 0.16249999999999432,
          "durationTicks": 39,
          "midi": 48,
          "name": "C3",
          "ticks": 54527,
          "time": 227.19583333333333,
          "velocity": 0.33858267716535434
        },
        {
          "duration": 0.09166666666666856,
          "durationTicks": 22,
          "midi": 84,
          "name": "C6",
          "ticks": 54688,
          "time": 227.86666666666667,
          "velocity": 0.3858267716535433
        },
        {
          "duration": 0.07083333333335418,
          "durationTicks": 17,
          "midi": 71,
          "name": "B4",
          "ticks": 54962,
          "time": 229.00833333333333,
          "velocity": 0.2283464566929134
        },
        {
          "duration": 0.48750000000001137,
          "durationTicks": 117,
          "midi": 55,
          "name": "G3",
          "ticks": 55046,
          "time": 229.35833333333332,
          "velocity": 0.4566929133858268
        },
        {
          "duration": 0.041666666666685614,
          "durationTicks": 10,
          "midi": 101,
          "name": "F7",
          "ticks": 55067,
          "time": 229.44583333333333,
          "velocity": 0.44881889763779526
        },
        {
          "duration": 0.0625,
          "durationTicks": 15,
          "midi": 71,
          "name": "B4",
          "ticks": 55132,
          "time": 229.71666666666667,
          "velocity": 0.33070866141732286
        },
        {
          "duration": 0.1416666666666515,
          "durationTicks": 34,
          "midi": 47,
          "name": "B2",
          "ticks": 55144,
          "time": 229.76666666666668,
          "velocity": 0.18110236220472442
        },
        {
          "duration": 0.07083333333335418,
          "durationTicks": 17,
          "midi": 59,
          "name": "B3",
          "ticks": 55226,
          "time": 230.10833333333332,
          "velocity": 0.3937007874015748
        },
        {
          "duration": 0.1416666666666515,
          "durationTicks": 34,
          "midi": 40,
          "name": "E2",
          "ticks": 55288,
          "time": 230.36666666666667,
          "velocity": 0.29133858267716534
        },
        {
          "duration": 0.20833333333331439,
          "durationTicks": 50,
          "midi": 55,
          "name": "G3",
          "ticks": 55303,
          "time": 230.42916666666667,
          "velocity": 0.2992125984251969
        },
        {
          "duration": 0.09999999999999432,
          "durationTicks": 24,
          "midi": 69,
          "name": "A4",
          "ticks": 55327,
          "time": 230.52916666666667,
          "velocity": 0.25196850393700787
        },
        {
          "duration": 0.19166666666666288,
          "durationTicks": 46,
          "midi": 60,
          "name": "C4",
          "ticks": 55415,
          "time": 230.89583333333334,
          "velocity": 0.29133858267716534
        },
        {
          "duration": 0.07083333333332575,
          "durationTicks": 17,
          "midi": 64,
          "name": "E4",
          "ticks": 55490,
          "time": 231.20833333333334,
          "velocity": 0.33070866141732286
        },
        {
          "duration": 0.17916666666667425,
          "durationTicks": 43,
          "midi": 50,
          "name": "D3",
          "ticks": 55598,
          "time": 231.65833333333333,
          "velocity": 0.15748031496062992
        },
        {
          "duration": 0.3208333333333542,
          "durationTicks": 77,
          "midi": 57,
          "name": "A3",
          "ticks": 55653,
          "time": 231.8875,
          "velocity": 0.4409448818897638
        },
        {
          "duration": 0.09999999999999432,
          "durationTicks": 24,
          "midi": 62,
          "name": "D4",
          "ticks": 55703,
          "time": 232.09583333333333,
          "velocity": 0.2440944881889764
        },
        {
          "duration": 0.07916666666667993,
          "durationTicks": 19,
          "midi": 50,
          "name": "D3",
          "ticks": 55766,
          "time": 232.35833333333332,
          "velocity": 0.2125984251968504
        },
        {
          "duration": 0.05000000000001137,
          "durationTicks": 12,
          "midi": 79,
          "name": "G5",
          "ticks": 55915,
          "time": 232.97916666666666,
          "velocity": 0.2283464566929134
        },
        {
          "duration": 0.037499999999994316,
          "durationTicks": 9,
          "midi": 67,
          "name": "G4",
          "ticks": 55927,
          "time": 233.02916666666667,
          "velocity": 0.14960629921259844
        },
        {
          "duration": 0.0625,
          "durationTicks": 15,
          "midi": 84,
          "name": "C6",
          "ticks": 55979,
          "time": 233.24583333333334,
          "velocity": 0.11811023622047244
        },
        {
          "duration": 0.10833333333334849,
          "durationTicks": 26,
          "midi": 91,
          "name": "G6",
          "ticks": 56071,
          "time": 233.62916666666666,
          "velocity": 0.28346456692913385
        },
        {
          "duration": 0.05000000000001137,
          "durationTicks": 12,
          "midi": 36,
          "name": "C2",
          "ticks": 56147,
          "time": 233.94583333333333,
          "velocity": 0.14173228346456693
        },
        {
          "duration": 0.12916666666666288,
          "durationTicks": 31,
          "midi": 76,
          "name": "E5",
          "ticks": 56169,
          "time": 234.0375,
          "velocity": 0.4330708661417323
        },
        {
          "duration": 0.05833333333333712,
          "durationTicks": 14,
          "midi": 67,
          "name": "G4",
          "ticks": 56186,
          "time": 234.10833333333332,
          "velocity": 0.4251968503937008
        },
        {
          "duration": 0.10833333333334849,
          "durationTicks": 26,
          "midi": 45,
          "name": "A2",
          "ticks": 56275,
          "time": 234.47916666666666,
          "velocity": 0.2992125984251969
        },
        {
          "duration": 0.1666666666666572,
          "durationTicks": 40,
          "midi": 79,
          "name": "G5",
          "ticks": 56299,
          "time": 234.57916666666668,
          "velocity": 0.3858267716535433
        },
        {
          "duration": 0.10000000000002274,
          "durationTicks": 24,
          "midi": 27,
          "name": "D#1",
          "ticks": 56380,
          "time": 234.91666666666666,
          "velocity": 0.3937007874015748
        },
        {
          "duration": 0.04999999999998295,
          "durationTicks": 12,
          "midi": 45,
          "name": "A2",
          "ticks": 56443,
          "time": 235.17916666666667,
          "velocity": 0.25984251968503935
        },
        {
          "duration": 0.11250000000001137,
          "durationTicks": 27,
          "midi": 81,
          "name": "A5",
          "ticks": 56476,
          "time": 235.31666666666666,
          "velocity": 0.33070866141732286
        },
        {
          "duration": 0.12916666666666288,
          "durationTicks": 31,
          "midi": 88,
          "name": "E6",
          "ticks": 56488,
          "time": 235.36666666666667,
          "velocity": 0.2125984251968504
        },
        {
          "duration": 0.19999999999998863,
          "durationTicks": 48,
          "midi": 76,
          "name": "E5",
          "ticks": 56577,
          "time": 235.7375,
          "velocity": 0.4409448818897638
        },
        {
          "duration": 0.07083333333332575,
          "durationTicks": 17,
          "midi": 98,
          "name": "D7",
          "ticks": 56654,
          "time": 236.05833333333334,
          "velocity": 0.4251968503937008
        },
        {
          "duration": 0.0625,
          "durationTicks": 15,
          "midi": 98,
          "name": "D7",
          "ticks": 56687,
          "time": 236.19583333333333,
          "velocity": 0.5039370078740157
        },
        {
          "duration": 0.17916666666667425,
          "durationTicks": 43,
          "midi": 29,
          "name": "F1",
          "ticks": 56695,
          "time": 236.22916666666666,
          "velocity": 0.5039370078740157
        },
        {
          "duration": 0.4166666666666572,
          "durationTicks": 100,
          "midi": 69,
          "name": "A4",
          "ticks": 56743,
          "time": 236.42916666666667,
          "velocity": 0.5118110236220472
        },
        {
          "duration": 0.08750000000000568,
          "durationTicks": 21,
          "midi": 29,
          "name": "F1",
          "ticks": 56755,
          "time": 236.47916666666666,
          "velocity": 0.44881889763779526
        },
        {
          "duration": 0.1291666666666913,
          "durationTicks": 31,
          "midi": 64,
          "name": "E4",
          "ticks": 56786,
          "time": 236.60833333333332,
          "velocity": 0.4566929133858268
        },
        {
          "duration": 0.07083333333335418,
          "durationTicks": 17,
          "midi": 67,
          "name": "G4",
          "ticks": 56831,
          "time": 236.79583333333332,
          "velocity": 0.4094488188976378
        },
        {
          "duration": 0.09999999999999432,
          "durationTicks": 24,
          "midi": 100,
          "name": "E7",
          "ticks": 56851,
          "time": 236.87916666666666,
          "velocity": 0.4566929133858268
        },
        {
          "duration": 0.03750000000002274,
          "durationTicks": 9,
          "midi": 102,
          "name": "F#7",
          "ticks": 56875,
          "time": 236.97916666666666,
          "velocity": 0.4094488188976378
        },
        {
          "duration": 0.19999999999998863,
          "durationTicks": 48,
          "midi": 86,
          "name": "D6",
          "ticks": 56901,
          "time": 237.0875,
          "velocity": 0.3228346456692913
        },
        {
          "duration": 0.05000000000001137,
          "durationTicks": 12,
          "midi": 86,
          "name": "D6",
          "ticks": 56963,
          "time": 237.34583333333333,
          "velocity": 0.16535433070866143
        },
        {
          "duration": 0.06666666666666288,
          "durationTicks": 16,
          "midi": 81,
          "name": "A5",
          "ticks": 56995,
          "time": 237.47916666666666,
          "velocity": 0.3700787401574803
        },
        {
          "duration": 0.15833333333333144,
          "durationTicks": 38,
          "midi": 55,
          "name": "G3",
          "ticks": 57045,
          "time": 237.6875,
          "velocity": 0.18110236220472442
        },
        {
          "duration": 0.04999999999998295,
          "durationTicks": 12,
          "midi": 32,
          "name": "G#1",
          "ticks": 57110,
          "time": 237.95833333333334,
          "velocity": 0.3858267716535433
        },
        {
          "duration": 0.06666666666666288,
          "durationTicks": 16,
          "midi": 67,
          "name": "G4",
          "ticks": 57127,
          "time": 238.02916666666667,
          "velocity": 0.3700787401574803
        },
        {
          "duration": 0.27916666666664014,
          "durationTicks": 67,
          "midi": 55,
          "name": "G3",
          "ticks": 57139,
          "time": 238.07916666666668,
          "velocity": 0.29133858267716534
        },
        {
          "duration": 0.07083333333335418,
          "durationTicks": 17,
          "midi": 59,
          "name": "B3",
          "ticks": 57220,
          "time": 238.41666666666666,
          "velocity": 0.3858267716535433
        },
        {
          "duration": 0.14999999999997726,
          "durationTicks": 36,
          "midi": 102,
          "name": "F#7",
          "ticks": 57259,
          "time": 238.57916666666668,
          "velocity": 0.44881889763779526
        },
        {
          "duration": 0.05000000000001137,
          "durationTicks": 12,
          "midi": 62,
          "name": "D4",
          "ticks": 57443,
          "time": 239.34583333333333,
          "velocity": 0.2125984251968504
        },
        {
          "duration": 0.2083333333333428,
          "durationTicks": 50,
          "midi": 62,
          "name": "D4",
          "ticks": 57518,
          "time": 239.65833333333333,
          "velocity": 0.3779527559055118
        },
        {
          "duration": 0.07916666666665151,
          "durationTicks": 19,
          "midi": 55,
          "name": "G3",
          "ticks": 57547,
          "time": 239.77916666666667,
          "velocity": 0.2125984251968504
        },
        {
          "duration": 0.10833333333332007,
          "durationTicks": 26,
          "midi": 31,
          "name": "G1",
          "ticks": 57583,
          "time": 239.92916666666667,
          "velocity": 0.3228346456692913
        },
        {
          "duration": 0.037499999999994316,
          "durationTicks": 9,
          "midi": 45,
          "name": "A2",
          "ticks": 57698,
          "time": 240.40833333333333,
          "velocity": 0.18110236220472442
        },
        {
          "duration": 0.037499999999994316,
          "durationTicks": 9,
          "midi": 57,
          "name": "A3",
          "ticks": 57818,
          "time": 240.90833333333333,
          "velocity": 0.25984251968503935
        },
        {
          "duration": 0.07083333333335418,
          "durationTicks": 17,
          "midi": 76,
          "name": "E5",
          "ticks": 57866,
          "time": 241.10833333333332,
          "velocity": 0.25984251968503935
        },
        {
          "duration": 0.19999999999998863,
          "durationTicks": 48,
          "midi": 93,
          "name": "A6",
          "ticks": 57897,
          "time": 241.2375,
          "velocity": 0.31496062992125984
        },
        {
          "duration": 0.07083333333335418,
          "durationTicks": 17,
          "midi": 59,
          "name": "B3",
          "ticks": 57962,
          "time": 241.50833333333333,
          "velocity": 0.31496062992125984
        },
        {
          "duration": 0.0583333333333087,
          "durationTicks": 14,
          "midi": 81,
          "name": "A5",
          "ticks": 57979,
          "time": 241.57916666666668,
          "velocity": 0.08661417322834646
        },
        {
          "duration": 0.037499999999994316,
          "durationTicks": 9,
          "midi": 93,
          "name": "A6",
          "ticks": 57991,
          "time": 241.62916666666666,
          "velocity": 0.08661417322834646
        },
        {
          "duration": 0.09166666666666856,
          "durationTicks": 22,
          "midi": 76,
          "name": "E5",
          "ticks": 57993,
          "time": 241.6375,
          "velocity": 0.28346456692913385
        },
        {
          "duration": 0.08749999999997726,
          "durationTicks": 21,
          "midi": 60,
          "name": "C4",
          "ticks": 58070,
          "time": 241.95833333333334,
          "velocity": 0.2047244094488189
        },
        {
          "duration": 0.07916666666665151,
          "durationTicks": 19,
          "midi": 32,
          "name": "G#1",
          "ticks": 58108,
          "time": 242.11666666666667,
          "velocity": 0.3858267716535433
        },
        {
          "duration": 0.05000000000001137,
          "durationTicks": 12,
          "midi": 34,
          "name": "A#1",
          "ticks": 58156,
          "time": 242.31666666666666,
          "velocity": 0.33858267716535434
        },
        {
          "duration": 0.20000000000001705,
          "durationTicks": 48,
          "midi": 83,
          "name": "B5",
          "ticks": 58216,
          "time": 242.56666666666666,
          "velocity": 0.25984251968503935
        },
        {
          "duration": 0.15000000000000568,
          "durationTicks": 36,
          "midi": 88,
          "name": "E6",
          "ticks": 58223,
          "time": 242.59583333333333,
          "velocity": 0.2283464566929134
        },
        {
          "duration": 0.10000000000002274,
          "durationTicks": 24,
          "midi": 93,
          "name": "A6",
          "ticks": 58255,
          "time": 242.72916666666666,
          "velocity": 0.3937007874015748
        },
        {
          "duration": 0.04166666666665719,
          "durationTicks": 10,
          "midi": 35,
          "name": "B1",
          "ticks": 58264,
          "time": 242.76666666666668,
          "velocity": 0.36220472440944884
        },
        {
          "duration": 0.04999999999998295,
          "durationTicks": 12,
          "midi": 83,
          "name": "B5",
          "ticks": 58274,
          "time": 242.80833333333334,
          "velocity": 0.41732283464566927
        },
        {
          "duration": 0.15833333333333144,
          "durationTicks": 38,
          "midi": 36,
          "name": "C2",
          "ticks": 58387,
          "time": 243.27916666666667,
          "velocity": 0.4094488188976378
        },
        {
          "duration": 0.04999999999998295,
          "durationTicks": 12,
          "midi": 91,
          "name": "G6",
          "ticks": 58528,
          "time": 243.86666666666667,
          "velocity": 0.1968503937007874
        },
        {
          "duration": 0.0625,
          "durationTicks": 15,
          "midi": 83,
          "name": "B5",
          "ticks": 58619,
          "time": 244.24583333333334,
          "velocity": 0.36220472440944884
        },
        {
          "duration": 0.08333333333334281,
          "durationTicks": 20,
          "midi": 32,
          "name": "G#1",
          "ticks": 58631,
          "time": 244.29583333333332,
          "velocity": 0.16535433070866143
        },
        {
          "duration": 0.05833333333333712,
          "durationTicks": 14,
          "midi": 41,
          "name": "F2",
          "ticks": 58713,
          "time": 244.6375,
          "velocity": 0.3464566929133858
        },
        {
          "duration": 0.04166666666665719,
          "durationTicks": 10,
          "midi": 57,
          "name": "A3",
          "ticks": 58797,
          "time": 244.9875,
          "velocity": 0.4645669291338583
        },
        {
          "duration": 0.04166666666665719,
          "durationTicks": 10,
          "midi": 32,
          "name": "G#1",
          "ticks": 58816,
          "time": 245.06666666666666,
          "velocity": 0.25196850393700787
        },
        {
          "duration": 0.05833333333333712,
          "durationTicks": 14,
          "midi": 83,
          "name": "B5",
          "ticks": 58831,
          "time": 245.12916666666666,
          "velocity": 0.2992125984251969
        },
        {
          "duration": 0.12916666666666288,
          "durationTicks": 31,
          "midi": 69,
          "name": "A4",
          "ticks": 58888,
          "time": 245.36666666666667,
          "velocity": 0.30708661417322836
        },
        {
          "duration": 0.05833333333333712,
          "durationTicks": 14,
          "midi": 102,
          "name": "F#7",
          "ticks": 58953,
          "time": 245.6375,
          "velocity": 0.3779527559055118
        },
        {
          "duration": 0.04999999999998295,
          "durationTicks": 12,
          "midi": 64,
          "name": "E4",
          "ticks": 59037,
          "time": 245.9875,
          "velocity": 0.2440944881889764
        },
        {
          "duration": 0.09999999999999432,
          "durationTicks": 24,
          "midi": 98,
          "name": "D7",
          "ticks": 59047,
          "time": 246.02916666666667,
          "velocity": 0.31496062992125984
        },
        {
          "duration": 0.2291666666666572,
          "durationTicks": 55,
          "midi": 67,
          "name": "G4",
          "ticks": 59145,
          "time": 246.4375,
          "velocity": 0.3543307086614173
        },
        {
          "duration": 0.12083333333333712,
          "durationTicks": 29,
          "midi": 52,
          "name": "E3",
          "ticks": 59270,
          "time": 246.95833333333334,
          "velocity": 0.08661417322834646
        },
        {
          "duration": 0.05000000000001137,
          "durationTicks": 12,
          "midi": 91,
          "name": "G6",
          "ticks": 59351,
          "time": 247.29583333333332,
          "velocity": 0.28346456692913385
        },
        {
          "duration": 0.05833333333333712,
          "durationTicks": 14,
          "midi": 79,
          "name": "G5",
          "ticks": 59385,
          "time": 247.4375,
          "velocity": 0.30708661417322836
        },
        {
          "duration": 0.11250000000001137,
          "durationTicks": 27,
          "midi": 59,
          "name": "B3",
          "ticks": 59416,
          "time": 247.56666666666666,
          "velocity": 0.4094488188976378
        },
        {
          "duration": 0.04999999999998295,
          "durationTicks": 12,
          "midi": 76,
          "name": "E5",
          "ticks": 59474,
          "time": 247.80833333333334,
          "velocity": 0.33070866141732286
        },
        {
          "duration": 0.08749999999997726,
          "durationTicks": 21,
          "midi": 27,
          "name": "D#1",
          "ticks": 59479,
          "time": 247.82916666666668,
          "velocity": 0.2677165354330709
        },
        {
          "duration": 0.11250000000001137,
          "durationTicks": 27,
          "midi": 62,
          "name": "D4",
          "ticks": 59531,
          "time": 248.04583333333332,
          "velocity": 0.4015748031496063
        },
        {
          "duration": 0.05000000000001137,
          "durationTicks": 12,
          "midi": 64,
          "name": "E4",
          "ticks": 59582,
          "time": 248.25833333333333,
          "velocity": 0.5354330708661418
        },
        {
          "duration": 0.07916666666667993,
          "durationTicks": 19,
          "midi": 31,
          "name": "G1",
          "ticks": 59678,
          "time": 248.65833333333333,
          "velocity": 0.25984251968503935
        },
        {
          "duration": 0.2291666666666572,
          "durationTicks": 55,
          "midi": 34,
          "name": "A#1",
          "ticks": 59683,
          "time": 248.67916666666667,
          "velocity": 0.3464566929133858
        },
        {
          "duration": 0.2083333333333428,
          "durationTicks": 50,
          "midi": 53,
          "name": "F3",
          "ticks": 59767,
          "time": 249.02916666666667,
          "velocity": 0.33070866141732286
        },
        {
          "duration": 0.09166666666666856,
          "durationTicks": 22,
          "midi": 83,
          "name": "B5",
          "ticks": 59819,
          "time": 249.24583333333334,
          "velocity": 0.16535433070866143
        },
        {
          "duration": 0.08750000000000568,
          "durationTicks": 21,
          "midi": 45,
          "name": "A2",
          "ticks": 59947,
          "time": 249.77916666666667,
          "velocity": 0.36220472440944884
        },
        {
          "duration": 0.041666666666685614,
          "durationTicks": 10,
          "midi": 62,
          "name": "D4",
          "ticks": 60071,
          "time": 250.29583333333332,
          "velocity": 0.2283464566929134
        },
        {
          "duration": 0.10833333333334849,
          "durationTicks": 26,
          "midi": 81,
          "name": "A5",
          "ticks": 60266,
          "time": 251.10833333333332,
          "velocity": 0.09448818897637795
        },
        {
          "duration": 0.06666666666666288,
          "durationTicks": 16,
          "midi": 81,
          "name": "A5",
          "ticks": 61015,
          "time": 254.22916666666666,
          "velocity": 0.08661417322834646
        },
        {
          "duration": 0.041666666666685614,
          "durationTicks": 10,
          "midi": 50,
          "name": "D3",
          "ticks": 61067,
          "time": 254.44583333333333,
          "velocity": 0.25984251968503935
        },
        {
          "duration": 0.09999999999999432,
          "durationTicks": 24,
          "midi": 59,
          "name": "B3",
          "ticks": 61147,
          "time": 254.77916666666667,
          "velocity": 0.3543307086614173
        },
        {
          "duration": 0.11249999999998295,
          "durationTicks": 27,
          "midi": 79,
          "name": "G5",
          "ticks": 61264,
          "time": 255.26666666666668,
          "velocity": 0.18110236220472442
        },
        {
          "duration": 0.10000000000002274,
          "durationTicks": 24,
          "midi": 55,
          "name": "G3",
          "ticks": 61442,
          "time": 256.0083333333333,
          "velocity": 0.31496062992125984
        },
        {
          "duration": 0.049999999999954525,
          "durationTicks": 12,
          "midi": 72,
          "name": "C5",
          "ticks": 61478,
          "time": 256.15833333333336,
          "velocity": 0.2125984251968504
        },
        {
          "duration": 0.03750000000002274,
          "durationTicks": 9,
          "midi": 45,
          "name": "A2",
          "ticks": 61519,
          "time": 256.32916666666665,
          "velocity": 0.28346456692913385
        },
        {
          "duration": 0.3291666666666515,
          "durationTicks": 79,
          "midi": 74,
          "name": "D5",
          "ticks": 61538,
          "time": 256.40833333333336,
          "velocity": 0.28346456692913385
        },
        {
          "duration": 0.2666666666666515,
          "durationTicks": 64,
          "midi": 83,
          "name": "B5",
          "ticks": 61555,
          "time": 256.4791666666667,
          "velocity": 0.28346456692913385
        },
        {
          "duration": 0.07916666666665151,
          "durationTicks": 19,
          "midi": 67,
          "name": "G4",
          "ticks": 62325,
          "time": 259.6875,
          "velocity": 0.31496062992125984
        },
        {
          "duration": 0.05000000000001137,
          "durationTicks": 12,
          "midi": 55,
          "name": "G3",
          "ticks": 62356,
          "time": 259.81666666666666,
          "velocity": 0.3228346456692913
        },
        {
          "duration": 0.17916666666667425,
          "durationTicks": 43,
          "midi": 79,
          "name": "G5",
          "ticks": 62416,
          "time": 260.06666666666666,
          "velocity": 0.4566929133858268
        },
        {
          "duration": 0.041666666666685614,
          "durationTicks": 10,
          "midi": 36,
          "name": "C2",
          "ticks": 62488,
          "time": 260.3666666666667,
          "velocity": 0.2992125984251969
        },
        {
          "duration": 0.08749999999997726,
          "durationTicks": 21,
          "midi": 76,
          "name": "E5",
          "ticks": 62611,
          "time": 260.87916666666666,
          "velocity": 0.09448818897637795
        },
        {
          "duration": 0.15833333333335986,
          "durationTicks": 38,
          "midi": 57,
          "name": "A3",
          "ticks": 62750,
          "time": 261.4583333333333,
          "velocity": 0.14960629921259844
        },
        {
          "duration": 0.12916666666666288,
          "durationTicks": 31,
          "midi": 60,
          "name": "C4",
          "ticks": 62980,
          "time": 262.4166666666667,
          "velocity": 0.2047244094488189
        },
        {
          "duration": 0.05000000000001137,
          "durationTicks": 12,
          "midi": 81,
          "name": "A5",
          "ticks": 63139,
          "time": 263.07916666666665,
          "velocity": 0.30708661417322836
        },
        {
          "duration": 0.1416666666666515,
          "durationTicks": 34,
          "midi": 64,
          "name": "E4",
          "ticks": 63729,
          "time": 265.5375,
          "velocity": 0.25984251968503935
        },
        {
          "duration": 0.07916666666665151,
          "durationTicks": 19,
          "midi": 76,
          "name": "E5",
          "ticks": 65174,
          "time": 271.55833333333334,
          "velocity": 0.1889763779527559
        },
        {
          "duration": 0.07916666666670835,
          "durationTicks": 19,
          "midi": 76,
          "name": "E5",
          "ticks": 65332,
          "time": 272.21666666666664,
          "velocity": 0.14173228346456693
        },
        {
          "duration": 0.27916666666664014,
          "durationTicks": 67,
          "midi": 76,
          "name": "E5",
          "ticks": 65546,
          "time": 273.10833333333335,
          "velocity": 0.08661417322834646
        },
        {
          "duration": 0.17916666666667425,
          "durationTicks": 43,
          "midi": 62,
          "name": "D4",
          "ticks": 65834,
          "time": 274.30833333333334,
          "velocity": 0.10236220472440945
        },
        {
          "duration": 0.12916666666666288,
          "durationTicks": 31,
          "midi": 83,
          "name": "B5",
          "ticks": 66211,
          "time": 275.87916666666666,
          "velocity": 0.07874015748031496
        },
        {
          "duration": 0.22083333333335986,
          "durationTicks": 53,
          "midi": 57,
          "name": "A3",
          "ticks": 66316,
          "time": 276.31666666666666,
          "velocity": 0.13385826771653545
        },
        {
          "duration": 0.07916666666665151,
          "durationTicks": 19,
          "midi": 74,
          "name": "D5",
          "ticks": 66508,
          "time": 277.1166666666667,
          "velocity": 0.08661417322834646
        },
        {
          "duration": 0.0625,
          "durationTicks": 15,
          "midi": 88,
          "name": "E6",
          "ticks": 66731,
          "time": 278.04583333333335,
          "velocity": 0.09448818897637795
        },
        {
          "duration": 0.09166666666664014,
          "durationTicks": 22,
          "midi": 86,
          "name": "D6",
          "ticks": 66779,
          "time": 278.24583333333334,
          "velocity": 0.13385826771653545
        },
        {
          "duration": 0.29166666666662877,
          "durationTicks": 70,
          "midi": 55,
          "name": "G3",
          "ticks": 66849,
          "time": 278.5375,
          "velocity": 0.10236220472440945
        },
        {
          "duration": 0.0625,
          "durationTicks": 15,
          "midi": 86,
          "name": "D6",
          "ticks": 66863,
          "time": 278.59583333333336,
          "velocity": 0.09448818897637795
        },
        {
          "duration": 0.1624999999999659,
          "durationTicks": 39,
          "midi": 57,
          "name": "A3",
          "ticks": 67151,
          "time": 279.79583333333335,
          "velocity": 0.23622047244094488
        },
        {
          "duration": 0.09166666666664014,
          "durationTicks": 22,
          "midi": 88,
          "name": "E6",
          "ticks": 67257,
          "time": 280.2375,
          "velocity": 0.2283464566929134
        },
        {
          "duration": 0.16250000000002274,
          "durationTicks": 39,
          "midi": 60,
          "name": "C4",
          "ticks": 67379,
          "time": 280.74583333333334,
          "velocity": 0.18110236220472442
        },
        {
          "duration": 0.10000000000002274,
          "durationTicks": 24,
          "midi": 81,
          "name": "A5",
          "ticks": 67425,
          "time": 280.9375,
          "velocity": 0.11811023622047244
        },
        {
          "duration": 0.22916666666662877,
          "durationTicks": 55,
          "midi": 59,
          "name": "B3",
          "ticks": 67886,
          "time": 282.85833333333335,
          "velocity": 0.18110236220472442
        },
        {
          "duration": 0.19166666666666288,
          "durationTicks": 46,
          "midi": 62,
          "name": "D4",
          "ticks": 67924,
          "time": 283.01666666666665,
          "velocity": 0.08661417322834646
        },
        {
          "duration": 0.049999999999954525,
          "durationTicks": 12,
          "midi": 83,
          "name": "B5",
          "ticks": 68483,
          "time": 285.34583333333336,
          "velocity": 0.15748031496062992
        },
        {
          "duration": 0.22083333333330302,
          "durationTicks": 53,
          "midi": 60,
          "name": "C4",
          "ticks": 68639,
          "time": 285.99583333333334,
          "velocity": 0.12598425196850394
        },
        {
          "duration": 0.17916666666667425,
          "durationTicks": 43,
          "midi": 33,
          "name": "A1",
          "ticks": 68728,
          "time": 286.3666666666667,
          "velocity": 0.18110236220472442
        },
        {
          "duration": 0.049999999999954525,
          "durationTicks": 12,
          "midi": 98,
          "name": "D7",
          "ticks": 68858,
          "time": 286.90833333333336,
          "velocity": 0.09448818897637795
        },
        {
          "duration": 0.09166666666664014,
          "durationTicks": 22,
          "midi": 31,
          "name": "G1",
          "ticks": 69369,
          "time": 289.0375,
          "velocity": 0.2125984251968504
        },
        {
          "duration": 0.12083333333333712,
          "durationTicks": 29,
          "midi": 64,
          "name": "E4",
          "ticks": 69455,
          "time": 289.3958333333333,
          "velocity": 0.2677165354330709
        },
        {
          "duration": 0.14999999999997726,
          "durationTicks": 36,
          "midi": 74,
          "name": "D5",
          "ticks": 69585,
          "time": 289.9375,
          "velocity": 0.13385826771653545
        },
        {
          "duration": 0.05833333333333712,
          "durationTicks": 14,
          "midi": 74,
          "name": "D5",
          "ticks": 69787,
          "time": 290.77916666666664,
          "velocity": 0.2677165354330709
        },
        {
          "duration": 0.06666666666671972,
          "durationTicks": 16,
          "midi": 59,
          "name": "B3",
          "ticks": 69787,
          "time": 290.77916666666664,
          "velocity": 0.28346456692913385
        },
        {
          "duration": 0.1624999999999659,
          "durationTicks": 39,
          "midi": 71,
          "name": "B4",
          "ticks": 69880,
          "time": 291.1666666666667,
          "velocity": 0.2677165354330709
        },
        {
          "duration": 0.0999999999999659,
          "durationTicks": 24,
          "midi": 59,
          "name": "B3",
          "ticks": 69983,
          "time": 291.59583333333336,
          "velocity": 0.12598425196850394
        },
        {
          "duration": 0.2708333333333144,
          "durationTicks": 65,
          "midi": 55,
          "name": "G3",
          "ticks": 69988,
          "time": 291.6166666666667,
          "velocity": 0.2204724409448819
        },
        {
          "duration": 0.19999999999998863,
          "durationTicks": 48,
          "midi": 62,
          "name": "D4",
          "ticks": 70149,
          "time": 292.2875,
          "velocity": 0.10236220472440945
        },
        {
          "duration": 0.041666666666685614,
          "durationTicks": 10,
          "midi": 60,
          "name": "C4",
          "ticks": 70312,
          "time": 292.96666666666664,
          "velocity": 0.13385826771653545
        },
        {
          "duration": 0.07916666666670835,
          "durationTicks": 19,
          "midi": 91,
          "name": "G6",
          "ticks": 70399,
          "time": 293.32916666666665,
          "velocity": 0.25196850393700787
        },
        {
          "duration": 0.12083333333333712,
          "durationTicks": 29,
          "midi": 79,
          "name": "G5",
          "ticks": 70456,
          "time": 293.56666666666666,
          "velocity": 0.14173228346456693
        },
        {
          "duration": 0.12083333333333712,
          "durationTicks": 29,
          "midi": 69,
          "name": "A4",
          "ticks": 70562,
          "time": 294.0083333333333,
          "velocity": 0.14173228346456693
        },
        {
          "duration": 0.19166666666666288,
          "durationTicks": 46,
          "midi": 60,
          "name": "C4",
          "ticks": 70936,
          "time": 295.56666666666666,
          "velocity": 0.14173228346456693
        },
        {
          "duration": 0.041666666666685614,
          "durationTicks": 10,
          "midi": 55,
          "name": "G3",
          "ticks": 70936,
          "time": 295.56666666666666,
          "velocity": 0.08661417322834646
        },
        {
          "duration": 0.10000000000002274,
          "durationTicks": 24,
          "midi": 59,
          "name": "B3",
          "ticks": 71090,
          "time": 296.2083333333333,
          "velocity": 0.08661417322834646
        },
        {
          "duration": 0.11666666666667425,
          "durationTicks": 28,
          "midi": 62,
          "name": "D4",
          "ticks": 71215,
          "time": 296.7291666666667,
          "velocity": 0.09448818897637795
        },
        {
          "duration": 0.14999999999997726,
          "durationTicks": 36,
          "midi": 69,
          "name": "A4",
          "ticks": 71471,
          "time": 297.79583333333335,
          "velocity": 0.2283464566929134
        },
        {
          "duration": 0.23750000000001137,
          "durationTicks": 57,
          "midi": 64,
          "name": "E4",
          "ticks": 71582,
          "time": 298.2583333333333,
          "velocity": 0.2283464566929134
        },
        {
          "duration": 0.12083333333333712,
          "durationTicks": 29,
          "midi": 72,
          "name": "C5",
          "ticks": 71608,
          "time": 298.3666666666667,
          "velocity": 0.1732283464566929
        },
        {
          "duration": 0.1708333333333485,
          "durationTicks": 41,
          "midi": 64,
          "name": "E4",
          "ticks": 71728,
          "time": 298.8666666666667,
          "velocity": 0.09448818897637795
        },
        {
          "duration": 0.08333333333331439,
          "durationTicks": 20,
          "midi": 59,
          "name": "B3",
          "ticks": 71879,
          "time": 299.49583333333334,
          "velocity": 0.33070866141732286
        },
        {
          "duration": 0.20833333333331439,
          "durationTicks": 50,
          "midi": 59,
          "name": "B3",
          "ticks": 71978,
          "time": 299.90833333333336,
          "velocity": 0.2283464566929134
        },
        {
          "duration": 0.22916666666668561,
          "durationTicks": 55,
          "midi": 55,
          "name": "G3",
          "ticks": 72081,
          "time": 300.3375,
          "velocity": 0.18110236220472442
        },
        {
          "duration": 0.12083333333333712,
          "durationTicks": 29,
          "midi": 83,
          "name": "B5",
          "ticks": 72134,
          "time": 300.55833333333334,
          "velocity": 0.14960629921259844
        },
        {
          "duration": 0.07083333333332575,
          "durationTicks": 17,
          "midi": 64,
          "name": "E4",
          "ticks": 72407,
          "time": 301.6958333333333,
          "velocity": 0.11023622047244094
        },
        {
          "duration": 0.19166666666666288,
          "durationTicks": 46,
          "midi": 72,
          "name": "C5",
          "ticks": 72508,
          "time": 302.1166666666667,
          "velocity": 0.1889763779527559
        },
        {
          "duration": 0.07916666666670835,
          "durationTicks": 19,
          "midi": 59,
          "name": "B3",
          "ticks": 72667,
          "time": 302.77916666666664,
          "velocity": 0.23622047244094488
        },
        {
          "duration": 0.20833333333331439,
          "durationTicks": 50,
          "midi": 67,
          "name": "G4",
          "ticks": 72765,
          "time": 303.1875,
          "velocity": 0.13385826771653545
        },
        {
          "duration": 0.32083333333332575,
          "durationTicks": 77,
          "midi": 57,
          "name": "A3",
          "ticks": 72983,
          "time": 304.09583333333336,
          "velocity": 0.11023622047244094
        },
        {
          "duration": 0.2125000000000341,
          "durationTicks": 51,
          "midi": 60,
          "name": "C4",
          "ticks": 73055,
          "time": 304.3958333333333,
          "velocity": 0.11811023622047244
        },
        {
          "duration": 0.07083333333332575,
          "durationTicks": 17,
          "midi": 96,
          "name": "C7",
          "ticks": 73125,
          "time": 304.6875,
          "velocity": 0.2125984251968504
        }
      ],
      "endOfTrackTicks": 73142
    },
    {
      "channel": 2,
      "controlChanges": {},
      "pitchBends": [],
      "instrument": {
        "family": "piano",
        "number": 0,
        "name": "acoustic grand piano"
      },
      "name": "",
      "notes": [
        {
          "duration": 0.25833333333333375,
          "durationTicks": 62,
          "midi": 79,
          "name": "G5",
          "ticks": 1610,
          "time": 6.708333333333333,
          "velocity": 0.07874015748031496
        },
        {
          "duration": 0.3625000000000007,
          "durationTicks": 87,
          "midi": 57,
          "name": "A3",
          "ticks": 2140,
          "time": 8.916666666666666,
          "velocity": 0.10236220472440945
        },
        {
          "duration": 0.09166666666666501,
          "durationTicks": 22,
          "midi": 89,
          "name": "F6",
          "ticks": 5289,
          "time": 22.0375,
          "velocity": 0.18110236220472442
        },
        {
          "duration": 0.0625,
          "durationTicks": 15,
          "midi": 91,
          "name": "G6",
          "ticks": 6611,
          "time": 27.545833333333334,
          "velocity": 0.2283464566929134
        },
        {
          "duration": 0.21666666666666856,
          "durationTicks": 52,
          "midi": 55,
          "name": "G3",
          "ticks": 6859,
          "time": 28.579166666666666,
          "velocity": 0.25984251968503935
        },
        {
          "duration": 0.04166666666666785,
          "durationTicks": 10,
          "midi": 55,
          "name": "G3",
          "ticks": 6921,
          "time": 28.8375,
          "velocity": 0.14173228346456693
        },
        {
          "duration": 0.11249999999999716,
          "durationTicks": 27,
          "midi": 55,
          "name": "G3",
          "ticks": 6940,
          "time": 28.916666666666668,
          "velocity": 0.13385826771653545
        },
        {
          "duration": 0.04999999999999716,
          "durationTicks": 12,
          "midi": 86,
          "name": "D6",
          "ticks": 9935,
          "time": 41.395833333333336,
          "velocity": 0.23622047244094488
        },
        {
          "duration": 0.13749999999999574,
          "durationTicks": 33,
          "midi": 59,
          "name": "B3",
          "ticks": 10207,
          "time": 42.52916666666667,
          "velocity": 0.25984251968503935
        },
        {
          "duration": 0.12083333333333002,
          "durationTicks": 29,
          "midi": 62,
          "name": "D4",
          "ticks": 10211,
          "time": 42.545833333333334,
          "velocity": 0.1889763779527559
        },
        {
          "duration": 0.10833333333333428,
          "durationTicks": 26,
          "midi": 53,
          "name": "F3",
          "ticks": 10718,
          "time": 44.65833333333333,
          "velocity": 0.36220472440944884
        },
        {
          "duration": 0.11666666666666714,
          "durationTicks": 28,
          "midi": 87,
          "name": "D#6",
          "ticks": 10915,
          "time": 45.479166666666664,
          "velocity": 0.2755905511811024
        },
        {
          "duration": 0.36249999999999716,
          "durationTicks": 87,
          "midi": 88,
          "name": "E6",
          "ticks": 11056,
          "time": 46.06666666666667,
          "velocity": 0.41732283464566927
        },
        {
          "duration": 0.06666666666666288,
          "durationTicks": 16,
          "midi": 48,
          "name": "C3",
          "ticks": 11071,
          "time": 46.12916666666667,
          "velocity": 0.31496062992125984
        },
        {
          "duration": 0.07916666666666572,
          "durationTicks": 19,
          "midi": 55,
          "name": "G3",
          "ticks": 12295,
          "time": 51.229166666666664,
          "velocity": 0.2677165354330709
        },
        {
          "duration": 0.05000000000000426,
          "durationTicks": 12,
          "midi": 38,
          "name": "D2",
          "ticks": 12895,
          "time": 53.729166666666664,
          "velocity": 0.2992125984251969
        },
        {
          "duration": 0.20000000000000284,
          "durationTicks": 48,
          "midi": 78,
          "name": "F#5",
          "ticks": 13144,
          "time": 54.766666666666666,
          "velocity": 0.3543307086614173
        },
        {
          "duration": 0.0833333333333357,
          "durationTicks": 20,
          "midi": 41,
          "name": "F2",
          "ticks": 13679,
          "time": 56.99583333333333,
          "velocity": 0.3700787401574803
        },
        {
          "duration": 0.13333333333333997,
          "durationTicks": 32,
          "midi": 41,
          "name": "F2",
          "ticks": 13739,
          "time": 57.24583333333333,
          "velocity": 0.2992125984251969
        },
        {
          "duration": 0.0416666666666643,
          "durationTicks": 10,
          "midi": 90,
          "name": "F#6",
          "ticks": 13768,
          "time": 57.36666666666667,
          "velocity": 0.3464566929133858
        },
        {
          "duration": 0.10000000000000142,
          "durationTicks": 24,
          "midi": 78,
          "name": "F#5",
          "ticks": 13795,
          "time": 57.479166666666664,
          "velocity": 0.3779527559055118
        },
        {
          "duration": 0.05833333333333712,
          "durationTicks": 14,
          "midi": 41,
          "name": "F2",
          "ticks": 13862,
          "time": 57.75833333333333,
          "velocity": 0.11023622047244094
        },
        {
          "duration": 0.15833333333333144,
          "durationTicks": 38,
          "midi": 29,
          "name": "F1",
          "ticks": 13881,
          "time": 57.8375,
          "velocity": 0.33858267716535434
        },
        {
          "duration": 0.15833333333333144,
          "durationTicks": 38,
          "midi": 50,
          "name": "D3",
          "ticks": 14126,
          "time": 58.858333333333334,
          "velocity": 0.2440944881889764
        },
        {
          "duration": 0.13749999999999574,
          "durationTicks": 33,
          "midi": 69,
          "name": "A4",
          "ticks": 14210,
          "time": 59.208333333333336,
          "velocity": 0.2677165354330709
        },
        {
          "duration": 0.04999999999999716,
          "durationTicks": 12,
          "midi": 85,
          "name": "C#6",
          "ticks": 14551,
          "time": 60.62916666666667,
          "velocity": 0.29133858267716534
        },
        {
          "duration": 0.05000000000000426,
          "durationTicks": 12,
          "midi": 83,
          "name": "B5",
          "ticks": 14575,
          "time": 60.729166666666664,
          "velocity": 0.2677165354330709
        },
        {
          "duration": 0.10833333333333428,
          "durationTicks": 26,
          "midi": 34,
          "name": "A#1",
          "ticks": 14649,
          "time": 61.0375,
          "velocity": 0.3700787401574803
        },
        {
          "duration": 0.09999999999999432,
          "durationTicks": 24,
          "midi": 76,
          "name": "E5",
          "ticks": 14896,
          "time": 62.06666666666667,
          "velocity": 0.4251968503937008
        },
        {
          "duration": 0.07916666666666572,
          "durationTicks": 19,
          "midi": 50,
          "name": "D3",
          "ticks": 14923,
          "time": 62.17916666666667,
          "velocity": 0.1732283464566929
        },
        {
          "duration": 0.06666666666666998,
          "durationTicks": 16,
          "midi": 32,
          "name": "G#1",
          "ticks": 15175,
          "time": 63.229166666666664,
          "velocity": 0.1968503937007874
        },
        {
          "duration": 0.12083333333333712,
          "durationTicks": 29,
          "midi": 92,
          "name": "G#6",
          "ticks": 15239,
          "time": 63.49583333333333,
          "velocity": 0.36220472440944884
        },
        {
          "duration": 0.07083333333333286,
          "durationTicks": 17,
          "midi": 83,
          "name": "B5",
          "ticks": 15249,
          "time": 63.5375,
          "velocity": 0.3228346456692913
        },
        {
          "duration": 0.0416666666666643,
          "durationTicks": 10,
          "midi": 55,
          "name": "G3",
          "ticks": 15328,
          "time": 63.86666666666667,
          "velocity": 0.23622047244094488
        },
        {
          "duration": 0.12083333333333712,
          "durationTicks": 29,
          "midi": 48,
          "name": "C3",
          "ticks": 15789,
          "time": 65.7875,
          "velocity": 0.33858267716535434
        },
        {
          "duration": 0.07916666666666572,
          "durationTicks": 19,
          "midi": 90,
          "name": "F#6",
          "ticks": 16029,
          "time": 66.7875,
          "velocity": 0.2992125984251969
        },
        {
          "duration": 0.04999999999999716,
          "durationTicks": 12,
          "midi": 93,
          "name": "A6",
          "ticks": 16317,
          "time": 67.9875,
          "velocity": 0.1968503937007874
        },
        {
          "duration": 0.12083333333332291,
          "durationTicks": 29,
          "midi": 101,
          "name": "F7",
          "ticks": 16322,
          "time": 68.00833333333334,
          "velocity": 0.48031496062992124
        },
        {
          "duration": 0.24166666666667425,
          "durationTicks": 58,
          "midi": 28,
          "name": "E1",
          "ticks": 16329,
          "time": 68.0375,
          "velocity": 0.4881889763779528
        },
        {
          "duration": 0.09166666666666856,
          "durationTicks": 22,
          "midi": 67,
          "name": "G4",
          "ticks": 16492,
          "time": 68.71666666666667,
          "velocity": 0.3937007874015748
        },
        {
          "duration": 0.13750000000000284,
          "durationTicks": 33,
          "midi": 88,
          "name": "E6",
          "ticks": 16538,
          "time": 68.90833333333333,
          "velocity": 0.1968503937007874
        },
        {
          "duration": 0.05833333333333712,
          "durationTicks": 14,
          "midi": 55,
          "name": "G3",
          "ticks": 16569,
          "time": 69.0375,
          "velocity": 0.2440944881889764
        },
        {
          "duration": 0.041666666666671404,
          "durationTicks": 10,
          "midi": 35,
          "name": "B1",
          "ticks": 16576,
          "time": 69.06666666666666,
          "velocity": 0.29133858267716534
        },
        {
          "duration": 0.0625,
          "durationTicks": 15,
          "midi": 86,
          "name": "D6",
          "ticks": 16595,
          "time": 69.14583333333333,
          "velocity": 0.30708661417322836
        },
        {
          "duration": 0.11249999999999716,
          "durationTicks": 27,
          "midi": 34,
          "name": "A#1",
          "ticks": 16744,
          "time": 69.76666666666667,
          "velocity": 0.3228346456692913
        },
        {
          "duration": 0.041666666666671404,
          "durationTicks": 10,
          "midi": 74,
          "name": "D5",
          "ticks": 16895,
          "time": 70.39583333333333,
          "velocity": 0.28346456692913385
        },
        {
          "duration": 0.05000000000001137,
          "durationTicks": 12,
          "midi": 38,
          "name": "D2",
          "ticks": 16910,
          "time": 70.45833333333333,
          "velocity": 0.3228346456692913
        },
        {
          "duration": 0.09999999999999432,
          "durationTicks": 24,
          "midi": 47,
          "name": "B2",
          "ticks": 17107,
          "time": 71.27916666666667,
          "velocity": 0.29133858267716534
        },
        {
          "duration": 0.10000000000000853,
          "durationTicks": 24,
          "midi": 86,
          "name": "D6",
          "ticks": 17150,
          "time": 71.45833333333333,
          "velocity": 0.12598425196850394
        },
        {
          "duration": 0.04999999999999716,
          "durationTicks": 12,
          "midi": 60,
          "name": "C4",
          "ticks": 17692,
          "time": 73.71666666666667,
          "velocity": 0.31496062992125984
        },
        {
          "duration": 0.04999999999999716,
          "durationTicks": 12,
          "midi": 90,
          "name": "F#6",
          "ticks": 17843,
          "time": 74.34583333333333,
          "velocity": 0.2992125984251969
        },
        {
          "duration": 0.10000000000000853,
          "durationTicks": 24,
          "midi": 81,
          "name": "A5",
          "ticks": 17858,
          "time": 74.40833333333333,
          "velocity": 0.31496062992125984
        },
        {
          "duration": 0.13333333333332575,
          "durationTicks": 32,
          "midi": 48,
          "name": "C3",
          "ticks": 17879,
          "time": 74.49583333333334,
          "velocity": 0.36220472440944884
        },
        {
          "duration": 0.09166666666666856,
          "durationTicks": 22,
          "midi": 48,
          "name": "C3",
          "ticks": 18052,
          "time": 75.21666666666667,
          "velocity": 0.36220472440944884
        },
        {
          "duration": 0.15833333333333144,
          "durationTicks": 38,
          "midi": 67,
          "name": "G4",
          "ticks": 18105,
          "time": 75.4375,
          "velocity": 0.4251968503937008
        },
        {
          "duration": 0.04999999999999716,
          "durationTicks": 12,
          "midi": 83,
          "name": "B5",
          "ticks": 18235,
          "time": 75.97916666666667,
          "velocity": 0.33070866141732286
        },
        {
          "duration": 0.07083333333332575,
          "durationTicks": 17,
          "midi": 88,
          "name": "E6",
          "ticks": 18371,
          "time": 76.54583333333333,
          "velocity": 0.33858267716535434
        },
        {
          "duration": 0.04999999999999716,
          "durationTicks": 12,
          "midi": 83,
          "name": "B5",
          "ticks": 18376,
          "time": 76.56666666666666,
          "velocity": 0.1968503937007874
        },
        {
          "duration": 0.12083333333332291,
          "durationTicks": 29,
          "midi": 69,
          "name": "A4",
          "ticks": 18400,
          "time": 76.66666666666667,
          "velocity": 0.1968503937007874
        },
        {
          "duration": 0.05000000000001137,
          "durationTicks": 12,
          "midi": 84,
          "name": "C6",
          "ticks": 18410,
          "time": 76.70833333333333,
          "velocity": 0.11811023622047244
        },
        {
          "duration": 0.20000000000000284,
          "durationTicks": 48,
          "midi": 31,
          "name": "G1",
          "ticks": 18427,
          "time": 76.77916666666667,
          "velocity": 0.23622047244094488
        },
        {
          "duration": 0.037500000000008527,
          "durationTicks": 9,
          "midi": 79,
          "name": "G5",
          "ticks": 18691,
          "time": 77.87916666666666,
          "velocity": 0.18110236220472442
        },
        {
          "duration": 0.09166666666666856,
          "durationTicks": 22,
          "midi": 31,
          "name": "G1",
          "ticks": 18837,
          "time": 78.4875,
          "velocity": 0.2283464566929134
        },
        {
          "duration": 0.17083333333333428,
          "durationTicks": 41,
          "midi": 31,
          "name": "G1",
          "ticks": 18952,
          "time": 78.96666666666667,
          "velocity": 0.25196850393700787
        },
        {
          "duration": 0.037499999999994316,
          "durationTicks": 9,
          "midi": 76,
          "name": "E5",
          "ticks": 18974,
          "time": 79.05833333333334,
          "velocity": 0.25196850393700787
        },
        {
          "duration": 0.07916666666667993,
          "durationTicks": 19,
          "midi": 57,
          "name": "A3",
          "ticks": 19108,
          "time": 79.61666666666666,
          "velocity": 0.3779527559055118
        },
        {
          "duration": 0.0833333333333286,
          "durationTicks": 20,
          "midi": 98,
          "name": "D7",
          "ticks": 19163,
          "time": 79.84583333333333,
          "velocity": 0.2283464566929134
        },
        {
          "duration": 0.2083333333333428,
          "durationTicks": 50,
          "midi": 59,
          "name": "B3",
          "ticks": 19351,
          "time": 80.62916666666666,
          "velocity": 0.3464566929133858
        },
        {
          "duration": 0.041666666666671404,
          "durationTicks": 10,
          "midi": 34,
          "name": "A#1",
          "ticks": 19408,
          "time": 80.86666666666666,
          "velocity": 0.33070866141732286
        },
        {
          "duration": 0.037500000000008527,
          "durationTicks": 9,
          "midi": 76,
          "name": "E5",
          "ticks": 19418,
          "time": 80.90833333333333,
          "velocity": 0.3228346456692913
        },
        {
          "duration": 0.09999999999999432,
          "durationTicks": 24,
          "midi": 55,
          "name": "G3",
          "ticks": 19502,
          "time": 81.25833333333334,
          "velocity": 0.3779527559055118
        },
        {
          "duration": 0.037499999999994316,
          "durationTicks": 9,
          "midi": 71,
          "name": "B4",
          "ticks": 19627,
          "time": 81.77916666666667,
          "velocity": 0.13385826771653545
        },
        {
          "duration": 0.17916666666666003,
          "durationTicks": 43,
          "midi": 48,
          "name": "C3",
          "ticks": 19627,
          "time": 81.77916666666667,
          "velocity": 0.36220472440944884
        },
        {
          "duration": 0.04166666666665719,
          "durationTicks": 10,
          "midi": 64,
          "name": "E4",
          "ticks": 19787,
          "time": 82.44583333333334,
          "velocity": 0.2992125984251969
        },
        {
          "duration": 0.1291666666666771,
          "durationTicks": 31,
          "midi": 81,
          "name": "A5",
          "ticks": 19948,
          "time": 83.11666666666666,
          "velocity": 0.3464566929133858
        },
        {
          "duration": 0.13749999999998863,
          "durationTicks": 33,
          "midi": 48,
          "name": "C3",
          "ticks": 19975,
          "time": 83.22916666666667,
          "velocity": 0.33070866141732286
        },
        {
          "duration": 0.07916666666666572,
          "durationTicks": 19,
          "midi": 103,
          "name": "G7",
          "ticks": 20133,
          "time": 83.8875,
          "velocity": 0.25196850393700787
        },
        {
          "duration": 0.04999999999999716,
          "durationTicks": 12,
          "midi": 31,
          "name": "G1",
          "ticks": 20162,
          "time": 84.00833333333334,
          "velocity": 0.23622047244094488
        },
        {
          "duration": 0.09166666666665435,
          "durationTicks": 22,
          "midi": 102,
          "name": "F#7",
          "ticks": 20207,
          "time": 84.19583333333334,
          "velocity": 0.3779527559055118
        },
        {
          "duration": 0.09999999999999432,
          "durationTicks": 24,
          "midi": 50,
          "name": "D3",
          "ticks": 20414,
          "time": 85.05833333333334,
          "velocity": 0.07874015748031496
        },
        {
          "duration": 0.24166666666666003,
          "durationTicks": 58,
          "midi": 55,
          "name": "G3",
          "ticks": 20752,
          "time": 86.46666666666667,
          "velocity": 0.3228346456692913
        },
        {
          "duration": 0.07916666666666572,
          "durationTicks": 19,
          "midi": 60,
          "name": "C4",
          "ticks": 20755,
          "time": 86.47916666666667,
          "velocity": 0.2440944881889764
        },
        {
          "duration": 0.037499999999994316,
          "durationTicks": 9,
          "midi": 52,
          "name": "E3",
          "ticks": 20839,
          "time": 86.82916666666667,
          "velocity": 0.3700787401574803
        },
        {
          "duration": 0.10833333333333428,
          "durationTicks": 26,
          "midi": 31,
          "name": "G1",
          "ticks": 20930,
          "time": 87.20833333333333,
          "velocity": 0.25984251968503935
        },
        {
          "duration": 0.1875,
          "durationTicks": 45,
          "midi": 67,
          "name": "G4",
          "ticks": 21019,
          "time": 87.57916666666667,
          "velocity": 0.36220472440944884
        },
        {
          "duration": 0.04999999999999716,
          "durationTicks": 12,
          "midi": 31,
          "name": "G1",
          "ticks": 21045,
          "time": 87.6875,
          "velocity": 0.25984251968503935
        },
        {
          "duration": 0.10833333333333428,
          "durationTicks": 26,
          "midi": 45,
          "name": "A2",
          "ticks": 21199,
          "time": 88.32916666666667,
          "velocity": 0.36220472440944884
        },
        {
          "duration": 0.25,
          "durationTicks": 60,
          "midi": 62,
          "name": "D4",
          "ticks": 21503,
          "time": 89.59583333333333,
          "velocity": 0.1889763779527559
        },
        {
          "duration": 0.25,
          "durationTicks": 60,
          "midi": 81,
          "name": "A5",
          "ticks": 21513,
          "time": 89.6375,
          "velocity": 0.11811023622047244
        },
        {
          "duration": 0.10000000000000853,
          "durationTicks": 24,
          "midi": 81,
          "name": "A5",
          "ticks": 21691,
          "time": 90.37916666666666,
          "velocity": 0.14960629921259844
        },
        {
          "duration": 0.36249999999999716,
          "durationTicks": 87,
          "midi": 81,
          "name": "A5",
          "ticks": 22756,
          "time": 94.81666666666666,
          "velocity": 0.10236220472440945
        },
        {
          "duration": 0.05833333333332291,
          "durationTicks": 14,
          "midi": 45,
          "name": "A2",
          "ticks": 22862,
          "time": 95.25833333333334,
          "velocity": 0.07874015748031496
        },
        {
          "duration": 0.04999999999999716,
          "durationTicks": 12,
          "midi": 55,
          "name": "G3",
          "ticks": 23611,
          "time": 98.37916666666666,
          "velocity": 0.25196850393700787
        },
        {
          "duration": 0.15000000000000568,
          "durationTicks": 36,
          "midi": 64,
          "name": "E4",
          "ticks": 23656,
          "time": 98.56666666666666,
          "velocity": 0.4330708661417323
        },
        {
          "duration": 0.05000000000001137,
          "durationTicks": 12,
          "midi": 31,
          "name": "G1",
          "ticks": 24230,
          "time": 100.95833333333333,
          "velocity": 0.15748031496062992
        },
        {
          "duration": 0.08750000000000568,
          "durationTicks": 21,
          "midi": 64,
          "name": "E4",
          "ticks": 24758,
          "time": 103.15833333333333,
          "velocity": 0.2204724409448819
        },
        {
          "duration": 0.13333333333332575,
          "durationTicks": 32,
          "midi": 57,
          "name": "A3",
          "ticks": 25307,
          "time": 105.44583333333334,
          "velocity": 0.09448818897637795
        },
        {
          "duration": 0.11666666666667425,
          "durationTicks": 28,
          "midi": 62,
          "name": "D4",
          "ticks": 25711,
          "time": 107.12916666666666,
          "velocity": 0.07874015748031496
        },
        {
          "duration": 0.07083333333333997,
          "durationTicks": 17,
          "midi": 76,
          "name": "E5",
          "ticks": 26937,
          "time": 112.2375,
          "velocity": 0.10236220472440945
        },
        {
          "duration": 0.22083333333333144,
          "durationTicks": 53,
          "midi": 60,
          "name": "C4",
          "ticks": 26944,
          "time": 112.26666666666667,
          "velocity": 0.14173228346456693
        },
        {
          "duration": 0.32083333333332575,
          "durationTicks": 77,
          "midi": 31,
          "name": "G1",
          "ticks": 27062,
          "time": 112.75833333333334,
          "velocity": 0.28346456692913385
        },
        {
          "duration": 0.07916666666666572,
          "durationTicks": 19,
          "midi": 60,
          "name": "C4",
          "ticks": 27110,
          "time": 112.95833333333333,
          "velocity": 0.13385826771653545
        },
        {
          "duration": 0.17916666666666003,
          "durationTicks": 43,
          "midi": 92,
          "name": "G#6",
          "ticks": 27592,
          "time": 114.96666666666667,
          "velocity": 0.12598425196850394
        },
        {
          "duration": 0.07083333333332575,
          "durationTicks": 17,
          "midi": 31,
          "name": "G1",
          "ticks": 27851,
          "time": 116.04583333333333,
          "velocity": 0.30708661417322836
        },
        {
          "duration": 0.05833333333333712,
          "durationTicks": 14,
          "midi": 83,
          "name": "B5",
          "ticks": 28629,
          "time": 119.2875,
          "velocity": 0.14960629921259844
        },
        {
          "duration": 0.2666666666666657,
          "durationTicks": 64,
          "midi": 31,
          "name": "G1",
          "ticks": 28639,
          "time": 119.32916666666667,
          "velocity": 0.1889763779527559
        },
        {
          "duration": 0.09166666666666856,
          "durationTicks": 22,
          "midi": 83,
          "name": "B5",
          "ticks": 29049,
          "time": 121.0375,
          "velocity": 0.1968503937007874
        },
        {
          "duration": 0.5125000000000028,
          "durationTicks": 123,
          "midi": 92,
          "name": "G#6",
          "ticks": 29099,
          "time": 121.24583333333334,
          "velocity": 0.30708661417322836
        },
        {
          "duration": 0.05833333333332291,
          "durationTicks": 14,
          "midi": 83,
          "name": "B5",
          "ticks": 29155,
          "time": 121.47916666666667,
          "velocity": 0.14173228346456693
        },
        {
          "duration": 0.05000000000001137,
          "durationTicks": 12,
          "midi": 102,
          "name": "F#7",
          "ticks": 29188,
          "time": 121.61666666666666,
          "velocity": 0.28346456692913385
        },
        {
          "duration": 0.07083333333332575,
          "durationTicks": 17,
          "midi": 102,
          "name": "F#7",
          "ticks": 29711,
          "time": 123.79583333333333,
          "velocity": 0.2992125984251969
        },
        {
          "duration": 0.09999999999999432,
          "durationTicks": 24,
          "midi": 31,
          "name": "G1",
          "ticks": 29947,
          "time": 124.77916666666667,
          "velocity": 0.33070866141732286
        },
        {
          "duration": 0.0625,
          "durationTicks": 15,
          "midi": 60,
          "name": "C4",
          "ticks": 30071,
          "time": 125.29583333333333,
          "velocity": 0.09448818897637795
        },
        {
          "duration": 0.12083333333333712,
          "durationTicks": 29,
          "midi": 64,
          "name": "E4",
          "ticks": 30083,
          "time": 125.34583333333333,
          "velocity": 0.10236220472440945
        },
        {
          "duration": 0.0625,
          "durationTicks": 15,
          "midi": 99,
          "name": "D#7",
          "ticks": 30479,
          "time": 126.99583333333334,
          "velocity": 0.11023622047244094
        },
        {
          "duration": 0.3500000000000085,
          "durationTicks": 84,
          "midi": 52,
          "name": "E3",
          "ticks": 30518,
          "time": 127.15833333333333,
          "velocity": 0.11811023622047244
        },
        {
          "duration": 0.04166666666665719,
          "durationTicks": 10,
          "midi": 64,
          "name": "E4",
          "ticks": 31132,
          "time": 129.71666666666667,
          "velocity": 0.1968503937007874
        },
        {
          "duration": 0.23750000000001137,
          "durationTicks": 57,
          "midi": 57,
          "name": "A3",
          "ticks": 31262,
          "time": 130.25833333333333,
          "velocity": 0.18110236220472442
        },
        {
          "duration": 0.07083333333332575,
          "durationTicks": 17,
          "midi": 86,
          "name": "D6",
          "ticks": 31432,
          "time": 130.96666666666667,
          "velocity": 0.11023622047244094
        },
        {
          "duration": 0.1875,
          "durationTicks": 45,
          "midi": 59,
          "name": "B3",
          "ticks": 31663,
          "time": 131.92916666666667,
          "velocity": 0.2440944881889764
        },
        {
          "duration": 0.12083333333333712,
          "durationTicks": 29,
          "midi": 83,
          "name": "B5",
          "ticks": 31811,
          "time": 132.54583333333332,
          "velocity": 0.07874015748031496
        },
        {
          "duration": 0.07916666666665151,
          "durationTicks": 19,
          "midi": 79,
          "name": "G5",
          "ticks": 31948,
          "time": 133.11666666666667,
          "velocity": 0.08661417322834646
        },
        {
          "duration": 0.17916666666664582,
          "durationTicks": 43,
          "midi": 72,
          "name": "C5",
          "ticks": 32030,
          "time": 133.45833333333334,
          "velocity": 0.07874015748031496
        },
        {
          "duration": 0.21250000000000568,
          "durationTicks": 51,
          "midi": 69,
          "name": "A4",
          "ticks": 32176,
          "time": 134.06666666666666,
          "velocity": 0.12598425196850394
        },
        {
          "duration": 0.04999999999998295,
          "durationTicks": 12,
          "midi": 79,
          "name": "G5",
          "ticks": 32203,
          "time": 134.17916666666667,
          "velocity": 0.08661417322834646
        },
        {
          "duration": 0.0583333333333087,
          "durationTicks": 14,
          "midi": 76,
          "name": "E5",
          "ticks": 32299,
          "time": 134.57916666666668,
          "velocity": 0.11023622047244094
        },
        {
          "duration": 0.05000000000001137,
          "durationTicks": 12,
          "midi": 55,
          "name": "G3",
          "ticks": 32709,
          "time": 136.2875,
          "velocity": 0.15748031496062992
        },
        {
          "duration": 0.09166666666666856,
          "durationTicks": 22,
          "midi": 60,
          "name": "C4",
          "ticks": 32735,
          "time": 136.39583333333334,
          "velocity": 0.08661417322834646
        },
        {
          "duration": 0.12083333333333712,
          "durationTicks": 29,
          "midi": 57,
          "name": "A3",
          "ticks": 33230,
          "time": 138.45833333333334,
          "velocity": 0.2047244094488189
        },
        {
          "duration": 0.04166666666665719,
          "durationTicks": 10,
          "midi": 76,
          "name": "E5",
          "ticks": 33664,
          "time": 140.26666666666668,
          "velocity": 0.15748031496062992
        },
        {
          "duration": 0.16249999999999432,
          "durationTicks": 39,
          "midi": 71,
          "name": "B4",
          "ticks": 33755,
          "time": 140.64583333333334,
          "velocity": 0.1732283464566929
        },
        {
          "duration": 0.12916666666666288,
          "durationTicks": 31,
          "midi": 62,
          "name": "D4",
          "ticks": 33880,
          "time": 141.16666666666666,
          "velocity": 0.11811023622047244
        },
        {
          "duration": 0.11666666666667425,
          "durationTicks": 28,
          "midi": 83,
          "name": "B5",
          "ticks": 33907,
          "time": 141.27916666666667,
          "velocity": 0.10236220472440945
        },
        {
          "duration": 0.07916666666665151,
          "durationTicks": 19,
          "midi": 86,
          "name": "D6",
          "ticks": 34147,
          "time": 142.27916666666667,
          "velocity": 0.08661417322834646
        },
        {
          "duration": 0.09166666666666856,
          "durationTicks": 22,
          "midi": 64,
          "name": "E4",
          "ticks": 34175,
          "time": 142.39583333333334,
          "velocity": 0.12598425196850394
        },
        {
          "duration": 0.19166666666666288,
          "durationTicks": 46,
          "midi": 72,
          "name": "C5",
          "ticks": 34283,
          "time": 142.84583333333333,
          "velocity": 0.11811023622047244
        },
        {
          "duration": 0.12083333333333712,
          "durationTicks": 29,
          "midi": 71,
          "name": "B4",
          "ticks": 34430,
          "time": 143.45833333333334,
          "velocity": 0.2992125984251969
        },
        {
          "duration": 0.14999999999997726,
          "durationTicks": 36,
          "midi": 67,
          "name": "G4",
          "ticks": 34535,
          "time": 143.89583333333334,
          "velocity": 0.07874015748031496
        },
        {
          "duration": 0.12083333333333712,
          "durationTicks": 29,
          "midi": 57,
          "name": "A3",
          "ticks": 34888,
          "time": 145.36666666666667,
          "velocity": 0.2125984251968504
        },
        {
          "duration": 0.05000000000001137,
          "durationTicks": 12,
          "midi": 96,
          "name": "C7",
          "ticks": 34898,
          "time": 145.40833333333333,
          "velocity": 0.14960629921259844
        },
        {
          "duration": 0.05000000000001137,
          "durationTicks": 12,
          "midi": 79,
          "name": "G5",
          "ticks": 35673,
          "time": 148.6375,
          "velocity": 0.16535433070866143
        },
        {
          "duration": 0.20833333333331439,
          "durationTicks": 50,
          "midi": 78,
          "name": "F#5",
          "ticks": 36379,
          "time": 151.57916666666668,
          "velocity": 0.1732283464566929
        },
        {
          "duration": 0.04999999999998295,
          "durationTicks": 12,
          "midi": 91,
          "name": "G6",
          "ticks": 36981,
          "time": 154.0875,
          "velocity": 0.2204724409448819
        },
        {
          "duration": 0.09166666666666856,
          "durationTicks": 22,
          "midi": 87,
          "name": "D#6",
          "ticks": 37108,
          "time": 154.61666666666667,
          "velocity": 0.1889763779527559
        },
        {
          "duration": 0.27916666666666856,
          "durationTicks": 67,
          "midi": 43,
          "name": "G2",
          "ticks": 37171,
          "time": 154.87916666666666,
          "velocity": 0.2677165354330709
        },
        {
          "duration": 0.21666666666666856,
          "durationTicks": 52,
          "midi": 36,
          "name": "C2",
          "ticks": 37243,
          "time": 155.17916666666667,
          "velocity": 0.2992125984251969
        },
        {
          "duration": 0.1291666666666913,
          "durationTicks": 31,
          "midi": 86,
          "name": "D6",
          "ticks": 37406,
          "time": 155.85833333333332,
          "velocity": 0.14173228346456693
        },
        {
          "duration": 0.11666666666667425,
          "durationTicks": 28,
          "midi": 86,
          "name": "D6",
          "ticks": 37447,
          "time": 156.02916666666667,
          "velocity": 0.1889763779527559
        },
        {
          "duration": 0.32083333333332575,
          "durationTicks": 77,
          "midi": 83,
          "name": "B5",
          "ticks": 37492,
          "time": 156.21666666666667,
          "velocity": 0.2047244094488189
        },
        {
          "duration": 0.12083333333333712,
          "durationTicks": 29,
          "midi": 81,
          "name": "A5",
          "ticks": 37641,
          "time": 156.8375,
          "velocity": 0.14173228346456693
        },
        {
          "duration": 0.037499999999994316,
          "durationTicks": 9,
          "midi": 97,
          "name": "C#7",
          "ticks": 38282,
          "time": 159.50833333333333,
          "velocity": 0.25196850393700787
        },
        {
          "duration": 0.08750000000000568,
          "durationTicks": 21,
          "midi": 69,
          "name": "A4",
          "ticks": 39326,
          "time": 163.85833333333332,
          "velocity": 0.07874015748031496
        },
        {
          "duration": 0.0625,
          "durationTicks": 15,
          "midi": 69,
          "name": "A4",
          "ticks": 39364,
          "time": 164.01666666666668,
          "velocity": 0.09448818897637795
        },
        {
          "duration": 0.19999999999998863,
          "durationTicks": 48,
          "midi": 83,
          "name": "B5",
          "ticks": 39525,
          "time": 164.6875,
          "velocity": 0.16535433070866143
        },
        {
          "duration": 0.07083333333335418,
          "durationTicks": 17,
          "midi": 62,
          "name": "D4",
          "ticks": 39611,
          "time": 165.04583333333332,
          "velocity": 0.14960629921259844
        },
        {
          "duration": 0.04166666666665719,
          "durationTicks": 10,
          "midi": 59,
          "name": "B3",
          "ticks": 40312,
          "time": 167.96666666666667,
          "velocity": 0.33858267716535434
        },
        {
          "duration": 0.07083333333335418,
          "durationTicks": 17,
          "midi": 72,
          "name": "C5",
          "ticks": 40571,
          "time": 169.04583333333332,
          "velocity": 0.1968503937007874
        },
        {
          "duration": 0.07083333333332575,
          "durationTicks": 17,
          "midi": 57,
          "name": "A3",
          "ticks": 40845,
          "time": 170.1875,
          "velocity": 0.14960629921259844
        },
        {
          "duration": 0.15833333333333144,
          "durationTicks": 38,
          "midi": 67,
          "name": "G4",
          "ticks": 41457,
          "time": 172.7375,
          "velocity": 0.2992125984251969
        },
        {
          "duration": 0.04166666666665719,
          "durationTicks": 10,
          "midi": 96,
          "name": "C7",
          "ticks": 42652,
          "time": 177.71666666666667,
          "velocity": 0.1732283464566929
        },
        {
          "duration": 0.05833333333333712,
          "durationTicks": 14,
          "midi": 55,
          "name": "G3",
          "ticks": 42662,
          "time": 177.75833333333333,
          "velocity": 0.2677165354330709
        },
        {
          "duration": 0.04999999999998295,
          "durationTicks": 12,
          "midi": 52,
          "name": "E3",
          "ticks": 42664,
          "time": 177.76666666666668,
          "velocity": 0.2677165354330709
        },
        {
          "duration": 0.04999999999998295,
          "durationTicks": 12,
          "midi": 52,
          "name": "E3",
          "ticks": 42794,
          "time": 178.30833333333334,
          "velocity": 0.2677165354330709
        },
        {
          "duration": 0.08750000000000568,
          "durationTicks": 21,
          "midi": 69,
          "name": "A4",
          "ticks": 43526,
          "time": 181.35833333333332,
          "velocity": 0.09448818897637795
        },
        {
          "duration": 0.05000000000001137,
          "durationTicks": 12,
          "midi": 83,
          "name": "B5",
          "ticks": 43847,
          "time": 182.69583333333333,
          "velocity": 0.2677165354330709
        },
        {
          "duration": 0.04166666666665719,
          "durationTicks": 10,
          "midi": 78,
          "name": "F#5",
          "ticks": 44044,
          "time": 183.51666666666668,
          "velocity": 0.3543307086614173
        },
        {
          "duration": 0.037499999999994316,
          "durationTicks": 9,
          "midi": 92,
          "name": "G#6",
          "ticks": 44083,
          "time": 183.67916666666667,
          "velocity": 0.2440944881889764
        },
        {
          "duration": 0.09166666666666856,
          "durationTicks": 22,
          "midi": 41,
          "name": "F2",
          "ticks": 44236,
          "time": 184.31666666666666,
          "velocity": 0.2755905511811024
        },
        {
          "duration": 0.041666666666685614,
          "durationTicks": 10,
          "midi": 67,
          "name": "G4",
          "ticks": 44411,
          "time": 185.04583333333332,
          "velocity": 0.49606299212598426
        },
        {
          "duration": 0.1875,
          "durationTicks": 45,
          "midi": 59,
          "name": "B3",
          "ticks": 44491,
          "time": 185.37916666666666,
          "velocity": 0.18110236220472442
        },
        {
          "duration": 0.15833333333333144,
          "durationTicks": 38,
          "midi": 69,
          "name": "A4",
          "ticks": 44582,
          "time": 185.75833333333333,
          "velocity": 0.3464566929133858
        },
        {
          "duration": 0.04999999999998295,
          "durationTicks": 12,
          "midi": 91,
          "name": "G6",
          "ticks": 44954,
          "time": 187.30833333333334,
          "velocity": 0.12598425196850394
        },
        {
          "duration": 0.05000000000001137,
          "durationTicks": 12,
          "midi": 72,
          "name": "C5",
          "ticks": 44966,
          "time": 187.35833333333332,
          "velocity": 0.2204724409448819
        },
        {
          "duration": 0.11250000000001137,
          "durationTicks": 27,
          "midi": 45,
          "name": "A2",
          "ticks": 45023,
          "time": 187.59583333333333,
          "velocity": 0.3700787401574803
        },
        {
          "duration": 0.07916666666667993,
          "durationTicks": 19,
          "midi": 84,
          "name": "C6",
          "ticks": 45273,
          "time": 188.6375,
          "velocity": 0.3937007874015748
        },
        {
          "duration": 0.25833333333332575,
          "durationTicks": 62,
          "midi": 55,
          "name": "G3",
          "ticks": 45511,
          "time": 189.62916666666666,
          "velocity": 0.23622047244094488
        },
        {
          "duration": 0.18333333333333712,
          "durationTicks": 44,
          "midi": 91,
          "name": "G6",
          "ticks": 45839,
          "time": 190.99583333333334,
          "velocity": 0.2992125984251969
        },
        {
          "duration": 0.0625,
          "durationTicks": 15,
          "midi": 64,
          "name": "E4",
          "ticks": 45964,
          "time": 191.51666666666668,
          "velocity": 0.3700787401574803
        },
        {
          "duration": 0.10000000000002274,
          "durationTicks": 24,
          "midi": 48,
          "name": "C3",
          "ticks": 46331,
          "time": 193.04583333333332,
          "velocity": 0.3543307086614173
        },
        {
          "duration": 0.22083333333333144,
          "durationTicks": 53,
          "midi": 59,
          "name": "B3",
          "ticks": 46408,
          "time": 193.36666666666667,
          "velocity": 0.3937007874015748
        },
        {
          "duration": 0.04999999999998295,
          "durationTicks": 12,
          "midi": 71,
          "name": "B4",
          "ticks": 46588,
          "time": 194.11666666666667,
          "velocity": 0.23622047244094488
        },
        {
          "duration": 0.04166666666665719,
          "durationTicks": 10,
          "midi": 93,
          "name": "A6",
          "ticks": 46684,
          "time": 194.51666666666668,
          "velocity": 0.1968503937007874
        },
        {
          "duration": 0.11250000000001137,
          "durationTicks": 27,
          "midi": 101,
          "name": "F7",
          "ticks": 46691,
          "time": 194.54583333333332,
          "velocity": 0.4015748031496063
        },
        {
          "duration": 0.18333333333333712,
          "durationTicks": 44,
          "midi": 55,
          "name": "G3",
          "ticks": 46823,
          "time": 195.09583333333333,
          "velocity": 0.31496062992125984
        },
        {
          "duration": 0.08750000000000568,
          "durationTicks": 21,
          "midi": 34,
          "name": "A#1",
          "ticks": 46838,
          "time": 195.15833333333333,
          "velocity": 0.30708661417322836
        },
        {
          "duration": 0.08750000000000568,
          "durationTicks": 21,
          "midi": 98,
          "name": "D7",
          "ticks": 46874,
          "time": 195.30833333333334,
          "velocity": 0.3858267716535433
        },
        {
          "duration": 0.05000000000001137,
          "durationTicks": 12,
          "midi": 52,
          "name": "E3",
          "ticks": 46958,
          "time": 195.65833333333333,
          "velocity": 0.1732283464566929
        },
        {
          "duration": 0.2083333333333428,
          "durationTicks": 50,
          "midi": 64,
          "name": "E4",
          "ticks": 47011,
          "time": 195.87916666666666,
          "velocity": 0.3779527559055118
        },
        {
          "duration": 0.037499999999994316,
          "durationTicks": 9,
          "midi": 74,
          "name": "D5",
          "ticks": 47239,
          "time": 196.82916666666668,
          "velocity": 0.11811023622047244
        },
        {
          "duration": 0.04999999999998295,
          "durationTicks": 12,
          "midi": 65,
          "name": "F4",
          "ticks": 47277,
          "time": 196.9875,
          "velocity": 0.3779527559055118
        },
        {
          "duration": 0.16249999999999432,
          "durationTicks": 39,
          "midi": 84,
          "name": "C6",
          "ticks": 47392,
          "time": 197.46666666666667,
          "velocity": 0.4094488188976378
        },
        {
          "duration": 0.04166666666665719,
          "durationTicks": 10,
          "midi": 93,
          "name": "A6",
          "ticks": 47445,
          "time": 197.6875,
          "velocity": 0.23622047244094488
        },
        {
          "duration": 0.09999999999999432,
          "durationTicks": 24,
          "midi": 31,
          "name": "G1",
          "ticks": 47512,
          "time": 197.96666666666667,
          "velocity": 0.1968503937007874
        },
        {
          "duration": 0.05000000000001137,
          "durationTicks": 12,
          "midi": 67,
          "name": "G4",
          "ticks": 47515,
          "time": 197.97916666666666,
          "velocity": 0.14173228346456693
        },
        {
          "duration": 0.15833333333333144,
          "durationTicks": 38,
          "midi": 28,
          "name": "E1",
          "ticks": 47695,
          "time": 198.72916666666666,
          "velocity": 0.25196850393700787
        },
        {
          "duration": 0.04166666666665719,
          "durationTicks": 10,
          "midi": 89,
          "name": "F6",
          "ticks": 48021,
          "time": 200.0875,
          "velocity": 0.2440944881889764
        },
        {
          "duration": 0.10833333333332007,
          "durationTicks": 26,
          "midi": 57,
          "name": "A3",
          "ticks": 48254,
          "time": 201.05833333333334,
          "velocity": 0.36220472440944884
        },
        {
          "duration": 0.0625,
          "durationTicks": 15,
          "midi": 48,
          "name": "C3",
          "ticks": 48275,
          "time": 201.14583333333334,
          "velocity": 0.1968503937007874
        },
        {
          "duration": 0.15000000000000568,
          "durationTicks": 36,
          "midi": 41,
          "name": "F2",
          "ticks": 48314,
          "time": 201.30833333333334,
          "velocity": 0.4251968503937008
        },
        {
          "duration": 0.05833333333333712,
          "durationTicks": 14,
          "midi": 29,
          "name": "F1",
          "ticks": 48475,
          "time": 201.97916666666666,
          "velocity": 0.3464566929133858
        },
        {
          "duration": 0.23749999999998295,
          "durationTicks": 57,
          "midi": 28,
          "name": "E1",
          "ticks": 48794,
          "time": 203.30833333333334,
          "velocity": 0.4566929133858268
        },
        {
          "duration": 0.04999999999998295,
          "durationTicks": 12,
          "midi": 62,
          "name": "D4",
          "ticks": 48815,
          "time": 203.39583333333334,
          "velocity": 0.14960629921259844
        },
        {
          "duration": 0.10000000000002274,
          "durationTicks": 24,
          "midi": 57,
          "name": "A3",
          "ticks": 49473,
          "time": 206.1375,
          "velocity": 0.4645669291338583
        },
        {
          "duration": 0.06666666666666288,
          "durationTicks": 16,
          "midi": 86,
          "name": "D6",
          "ticks": 49687,
          "time": 207.02916666666667,
          "velocity": 0.07874015748031496
        },
        {
          "duration": 0.037499999999994316,
          "durationTicks": 9,
          "midi": 71,
          "name": "B4",
          "ticks": 49723,
          "time": 207.17916666666667,
          "velocity": 0.2204724409448819
        },
        {
          "duration": 0.15000000000000568,
          "durationTicks": 36,
          "midi": 65,
          "name": "F4",
          "ticks": 49732,
          "time": 207.21666666666667,
          "velocity": 0.25196850393700787
        },
        {
          "duration": 0.10833333333334849,
          "durationTicks": 26,
          "midi": 90,
          "name": "F#6",
          "ticks": 49891,
          "time": 207.87916666666666,
          "velocity": 0.4094488188976378
        },
        {
          "duration": 0.05000000000001137,
          "durationTicks": 12,
          "midi": 86,
          "name": "D6",
          "ticks": 49960,
          "time": 208.16666666666666,
          "velocity": 0.2755905511811024
        },
        {
          "duration": 0.14999999999997726,
          "durationTicks": 36,
          "midi": 59,
          "name": "B3",
          "ticks": 49999,
          "time": 208.32916666666668,
          "velocity": 0.2440944881889764
        },
        {
          "duration": 0.12083333333333712,
          "durationTicks": 29,
          "midi": 64,
          "name": "E4",
          "ticks": 50073,
          "time": 208.6375,
          "velocity": 0.13385826771653545
        },
        {
          "duration": 0.05000000000001137,
          "durationTicks": 12,
          "midi": 85,
          "name": "C#6",
          "ticks": 50152,
          "time": 208.96666666666667,
          "velocity": 0.2125984251968504
        },
        {
          "duration": 0.10000000000002274,
          "durationTicks": 24,
          "midi": 29,
          "name": "F1",
          "ticks": 50411,
          "time": 210.04583333333332,
          "velocity": 0.48031496062992124
        },
        {
          "duration": 0.04999999999998295,
          "durationTicks": 12,
          "midi": 71,
          "name": "B4",
          "ticks": 50594,
          "time": 210.80833333333334,
          "velocity": 0.3779527559055118
        },
        {
          "duration": 0.07083333333332575,
          "durationTicks": 17,
          "midi": 62,
          "name": "D4",
          "ticks": 51158,
          "time": 213.15833333333333,
          "velocity": 0.2677165354330709
        },
        {
          "duration": 0.0625,
          "durationTicks": 15,
          "midi": 83,
          "name": "B5",
          "ticks": 51196,
          "time": 213.31666666666666,
          "velocity": 0.3543307086614173
        },
        {
          "duration": 0.04999999999998295,
          "durationTicks": 12,
          "midi": 57,
          "name": "A3",
          "ticks": 52430,
          "time": 218.45833333333334,
          "velocity": 0.29133858267716534
        },
        {
          "duration": 0.11666666666667425,
          "durationTicks": 28,
          "midi": 50,
          "name": "D3",
          "ticks": 52687,
          "time": 219.52916666666667,
          "velocity": 0.33858267716535434
        },
        {
          "duration": 0.10833333333332007,
          "durationTicks": 26,
          "midi": 50,
          "name": "D3",
          "ticks": 52821,
          "time": 220.0875,
          "velocity": 0.16535433070866143
        },
        {
          "duration": 0.35000000000002274,
          "durationTicks": 84,
          "midi": 55,
          "name": "G3",
          "ticks": 52931,
          "time": 220.54583333333332,
          "velocity": 0.44881889763779526
        },
        {
          "duration": 0.04166666666665719,
          "durationTicks": 10,
          "midi": 84,
          "name": "C6",
          "ticks": 52965,
          "time": 220.6875,
          "velocity": 0.3228346456692913
        },
        {
          "duration": 0.09999999999999432,
          "durationTicks": 24,
          "midi": 72,
          "name": "C5",
          "ticks": 52989,
          "time": 220.7875,
          "velocity": 0.2755905511811024
        },
        {
          "duration": 0.10833333333332007,
          "durationTicks": 26,
          "midi": 55,
          "name": "G3",
          "ticks": 53047,
          "time": 221.02916666666667,
          "velocity": 0.3464566929133858
        },
        {
          "duration": 0.08750000000000568,
          "durationTicks": 21,
          "midi": 69,
          "name": "A4",
          "ticks": 53647,
          "time": 223.52916666666667,
          "velocity": 0.2755905511811024
        },
        {
          "duration": 0.10833333333332007,
          "durationTicks": 26,
          "midi": 43,
          "name": "G2",
          "ticks": 53757,
          "time": 223.9875,
          "velocity": 0.31496062992125984
        },
        {
          "duration": 0.10833333333332007,
          "durationTicks": 26,
          "midi": 78,
          "name": "F#5",
          "ticks": 53870,
          "time": 224.45833333333334,
          "velocity": 0.2204724409448819
        },
        {
          "duration": 0.07916666666665151,
          "durationTicks": 19,
          "midi": 67,
          "name": "G4",
          "ticks": 53992,
          "time": 224.96666666666667,
          "velocity": 0.29133858267716534
        },
        {
          "duration": 0.07916666666665151,
          "durationTicks": 19,
          "midi": 83,
          "name": "B5",
          "ticks": 54124,
          "time": 225.51666666666668,
          "velocity": 0.33858267716535434
        },
        {
          "duration": 0.04166666666665719,
          "durationTicks": 10,
          "midi": 89,
          "name": "F6",
          "ticks": 54299,
          "time": 226.24583333333334,
          "velocity": 0.3228346456692913
        },
        {
          "duration": 0.09166666666666856,
          "durationTicks": 22,
          "midi": 48,
          "name": "C3",
          "ticks": 54707,
          "time": 227.94583333333333,
          "velocity": 0.36220472440944884
        },
        {
          "duration": 0.13749999999998863,
          "durationTicks": 33,
          "midi": 50,
          "name": "D3",
          "ticks": 54974,
          "time": 229.05833333333334,
          "velocity": 0.1732283464566929
        },
        {
          "duration": 0.0583333333333087,
          "durationTicks": 14,
          "midi": 91,
          "name": "G6",
          "ticks": 55039,
          "time": 229.32916666666668,
          "velocity": 0.30708661417322836
        },
        {
          "duration": 0.17916666666667425,
          "durationTicks": 43,
          "midi": 47,
          "name": "B2",
          "ticks": 55046,
          "time": 229.35833333333332,
          "velocity": 0.31496062992125984
        },
        {
          "duration": 0.15000000000000568,
          "durationTicks": 36,
          "midi": 55,
          "name": "G3",
          "ticks": 55221,
          "time": 230.0875,
          "velocity": 0.3228346456692913
        },
        {
          "duration": 0.037499999999994316,
          "durationTicks": 9,
          "midi": 84,
          "name": "C6",
          "ticks": 55394,
          "time": 230.80833333333334,
          "velocity": 0.2204724409448819
        },
        {
          "duration": 0.10833333333332007,
          "durationTicks": 26,
          "midi": 52,
          "name": "E3",
          "ticks": 55399,
          "time": 230.82916666666668,
          "velocity": 0.2677165354330709
        },
        {
          "duration": 0.15000000000000568,
          "durationTicks": 36,
          "midi": 84,
          "name": "C6",
          "ticks": 55600,
          "time": 231.66666666666666,
          "velocity": 0.14960629921259844
        },
        {
          "duration": 0.2916666666666856,
          "durationTicks": 70,
          "midi": 53,
          "name": "F3",
          "ticks": 55660,
          "time": 231.91666666666666,
          "velocity": 0.30708661417322836
        },
        {
          "duration": 0.14166666666667993,
          "durationTicks": 34,
          "midi": 81,
          "name": "A5",
          "ticks": 55691,
          "time": 232.04583333333332,
          "velocity": 0.10236220472440945
        },
        {
          "duration": 0.1666666666666572,
          "durationTicks": 40,
          "midi": 28,
          "name": "E1",
          "ticks": 56071,
          "time": 233.62916666666666,
          "velocity": 0.2677165354330709
        },
        {
          "duration": 0.15000000000000568,
          "durationTicks": 36,
          "midi": 91,
          "name": "G6",
          "ticks": 56171,
          "time": 234.04583333333332,
          "velocity": 0.3937007874015748
        },
        {
          "duration": 0.04166666666665719,
          "durationTicks": 10,
          "midi": 45,
          "name": "A2",
          "ticks": 56325,
          "time": 234.6875,
          "velocity": 0.2677165354330709
        },
        {
          "duration": 0.0625,
          "durationTicks": 15,
          "midi": 93,
          "name": "A6",
          "ticks": 56368,
          "time": 234.86666666666667,
          "velocity": 0.2677165354330709
        },
        {
          "duration": 0.04999999999998295,
          "durationTicks": 12,
          "midi": 69,
          "name": "A4",
          "ticks": 56397,
          "time": 234.9875,
          "velocity": 0.3700787401574803
        },
        {
          "duration": 0.037499999999994316,
          "durationTicks": 9,
          "midi": 91,
          "name": "G6",
          "ticks": 56438,
          "time": 235.15833333333333,
          "velocity": 0.2283464566929134
        },
        {
          "duration": 0.12083333333333712,
          "durationTicks": 29,
          "midi": 69,
          "name": "A4",
          "ticks": 56483,
          "time": 235.34583333333333,
          "velocity": 0.29133858267716534
        },
        {
          "duration": 0.07916666666667993,
          "durationTicks": 19,
          "midi": 41,
          "name": "F2",
          "ticks": 56618,
          "time": 235.90833333333333,
          "velocity": 0.3464566929133858
        },
        {
          "duration": 0.14999999999997726,
          "durationTicks": 36,
          "midi": 88,
          "name": "E6",
          "ticks": 56659,
          "time": 236.07916666666668,
          "velocity": 0.33070866141732286
        },
        {
          "duration": 0.05000000000001137,
          "durationTicks": 12,
          "midi": 48,
          "name": "C3",
          "ticks": 56707,
          "time": 236.27916666666667,
          "velocity": 0.4094488188976378
        },
        {
          "duration": 0.2083333333333428,
          "durationTicks": 50,
          "midi": 83,
          "name": "B5",
          "ticks": 56738,
          "time": 236.40833333333333,
          "velocity": 0.4409448818897638
        },
        {
          "duration": 0.09166666666666856,
          "durationTicks": 22,
          "midi": 48,
          "name": "C3",
          "ticks": 56805,
          "time": 236.6875,
          "velocity": 0.36220472440944884
        },
        {
          "duration": 0.22916666666668561,
          "durationTicks": 55,
          "midi": 71,
          "name": "B4",
          "ticks": 56853,
          "time": 236.8875,
          "velocity": 0.44881889763779526
        },
        {
          "duration": 0.04999999999998295,
          "durationTicks": 12,
          "midi": 50,
          "name": "D3",
          "ticks": 56879,
          "time": 236.99583333333334,
          "velocity": 0.31496062992125984
        },
        {
          "duration": 0.041666666666685614,
          "durationTicks": 10,
          "midi": 91,
          "name": "G6",
          "ticks": 56889,
          "time": 237.0375,
          "velocity": 0.25196850393700787
        },
        {
          "duration": 0.041666666666685614,
          "durationTicks": 10,
          "midi": 93,
          "name": "A6",
          "ticks": 56891,
          "time": 237.04583333333332,
          "velocity": 0.16535433070866143
        },
        {
          "duration": 0.05000000000001137,
          "durationTicks": 12,
          "midi": 81,
          "name": "A5",
          "ticks": 56903,
          "time": 237.09583333333333,
          "velocity": 0.2755905511811024
        },
        {
          "duration": 0.11666666666667425,
          "durationTicks": 28,
          "midi": 67,
          "name": "G4",
          "ticks": 57055,
          "time": 237.72916666666666,
          "velocity": 0.16535433070866143
        },
        {
          "duration": 0.037499999999994316,
          "durationTicks": 9,
          "midi": 83,
          "name": "B5",
          "ticks": 57122,
          "time": 238.00833333333333,
          "velocity": 0.36220472440944884
        },
        {
          "duration": 0.11666666666667425,
          "durationTicks": 28,
          "midi": 69,
          "name": "A4",
          "ticks": 57151,
          "time": 238.12916666666666,
          "velocity": 0.2125984251968504
        },
        {
          "duration": 0.041666666666685614,
          "durationTicks": 10,
          "midi": 84,
          "name": "C6",
          "ticks": 57153,
          "time": 238.1375,
          "velocity": 0.13385826771653545
        },
        {
          "duration": 0.20000000000001705,
          "durationTicks": 48,
          "midi": 31,
          "name": "G1",
          "ticks": 57175,
          "time": 238.22916666666666,
          "velocity": 0.2283464566929134
        },
        {
          "duration": 0.17916666666667425,
          "durationTicks": 43,
          "midi": 91,
          "name": "G6",
          "ticks": 57266,
          "time": 238.60833333333332,
          "velocity": 0.31496062992125984
        },
        {
          "duration": 0.24166666666667425,
          "durationTicks": 58,
          "midi": 34,
          "name": "A#1",
          "ticks": 57585,
          "time": 239.9375,
          "velocity": 0.30708661417322836
        },
        {
          "duration": 0.07916666666667993,
          "durationTicks": 19,
          "midi": 98,
          "name": "D7",
          "ticks": 57909,
          "time": 241.2875,
          "velocity": 0.30708661417322836
        },
        {
          "duration": 0.16249999999999432,
          "durationTicks": 39,
          "midi": 93,
          "name": "A6",
          "ticks": 58036,
          "time": 241.81666666666666,
          "velocity": 0.14960629921259844
        },
        {
          "duration": 0.34166666666666856,
          "durationTicks": 82,
          "midi": 55,
          "name": "G3",
          "ticks": 58067,
          "time": 241.94583333333333,
          "velocity": 0.33858267716535434
        },
        {
          "duration": 0.037499999999994316,
          "durationTicks": 9,
          "midi": 74,
          "name": "D5",
          "ticks": 58142,
          "time": 242.25833333333333,
          "velocity": 0.25984251968503935
        },
        {
          "duration": 0.11250000000001137,
          "durationTicks": 27,
          "midi": 55,
          "name": "G3",
          "ticks": 58216,
          "time": 242.56666666666666,
          "velocity": 0.1732283464566929
        },
        {
          "duration": 0.1875,
          "durationTicks": 45,
          "midi": 71,
          "name": "B4",
          "ticks": 58363,
          "time": 243.17916666666667,
          "velocity": 0.36220472440944884
        },
        {
          "duration": 0.0625,
          "durationTicks": 15,
          "midi": 31,
          "name": "G1",
          "ticks": 58403,
          "time": 243.34583333333333,
          "velocity": 0.2125984251968504
        },
        {
          "duration": 0.15000000000000568,
          "durationTicks": 36,
          "midi": 48,
          "name": "C3",
          "ticks": 58723,
          "time": 244.67916666666667,
          "velocity": 0.33858267716535434
        },
        {
          "duration": 0.04166666666665719,
          "durationTicks": 10,
          "midi": 96,
          "name": "C7",
          "ticks": 58744,
          "time": 244.76666666666668,
          "velocity": 0.33070866141732286
        },
        {
          "duration": 0.037499999999994316,
          "durationTicks": 9,
          "midi": 48,
          "name": "C3",
          "ticks": 58802,
          "time": 245.00833333333333,
          "velocity": 0.4409448818897638
        },
        {
          "duration": 0.07083333333332575,
          "durationTicks": 17,
          "midi": 64,
          "name": "E4",
          "ticks": 58895,
          "time": 245.39583333333334,
          "velocity": 0.30708661417322836
        },
        {
          "duration": 0.037499999999994316,
          "durationTicks": 9,
          "midi": 71,
          "name": "B4",
          "ticks": 58951,
          "time": 245.62916666666666,
          "velocity": 0.2992125984251969
        },
        {
          "duration": 0.1916666666666913,
          "durationTicks": 46,
          "midi": 91,
          "name": "G6",
          "ticks": 59013,
          "time": 245.8875,
          "velocity": 0.23622047244094488
        },
        {
          "duration": 0.2291666666666572,
          "durationTicks": 55,
          "midi": 55,
          "name": "G3",
          "ticks": 59138,
          "time": 246.40833333333333,
          "velocity": 0.25984251968503935
        },
        {
          "duration": 0.09999999999999432,
          "durationTicks": 24,
          "midi": 91,
          "name": "G6",
          "ticks": 59375,
          "time": 247.39583333333334,
          "velocity": 0.25984251968503935
        },
        {
          "duration": 0.04999999999998295,
          "durationTicks": 12,
          "midi": 31,
          "name": "G1",
          "ticks": 59397,
          "time": 247.4875,
          "velocity": 0.25196850393700787
        },
        {
          "duration": 0.10000000000002274,
          "durationTicks": 24,
          "midi": 55,
          "name": "G3",
          "ticks": 59411,
          "time": 247.54583333333332,
          "velocity": 0.3228346456692913
        },
        {
          "duration": 0.13749999999998863,
          "durationTicks": 33,
          "midi": 52,
          "name": "E3",
          "ticks": 59498,
          "time": 247.90833333333333,
          "velocity": 0.30708661417322836
        },
        {
          "duration": 0.07916666666665151,
          "durationTicks": 19,
          "midi": 60,
          "name": "C4",
          "ticks": 59503,
          "time": 247.92916666666667,
          "velocity": 0.2755905511811024
        },
        {
          "duration": 0.27916666666666856,
          "durationTicks": 67,
          "midi": 45,
          "name": "A2",
          "ticks": 59522,
          "time": 248.00833333333333,
          "velocity": 0.4409448818897638
        },
        {
          "duration": 0.07083333333332575,
          "durationTicks": 17,
          "midi": 76,
          "name": "E5",
          "ticks": 59536,
          "time": 248.06666666666666,
          "velocity": 0.3700787401574803
        },
        {
          "duration": 0.11249999999998295,
          "durationTicks": 27,
          "midi": 83,
          "name": "B5",
          "ticks": 59699,
          "time": 248.74583333333334,
          "velocity": 0.33858267716535434
        },
        {
          "duration": 0.05000000000001137,
          "durationTicks": 12,
          "midi": 31,
          "name": "G1",
          "ticks": 59793,
          "time": 249.1375,
          "velocity": 0.25984251968503935
        },
        {
          "duration": 0.05833333333333712,
          "durationTicks": 14,
          "midi": 59,
          "name": "B3",
          "ticks": 61063,
          "time": 254.42916666666667,
          "velocity": 0.23622047244094488
        },
        {
          "duration": 0.12916666666666288,
          "durationTicks": 31,
          "midi": 81,
          "name": "A5",
          "ticks": 61502,
          "time": 256.2583333333333,
          "velocity": 0.2677165354330709
        },
        {
          "duration": 0.20833333333337123,
          "durationTicks": 50,
          "midi": 76,
          "name": "E5",
          "ticks": 61567,
          "time": 256.52916666666664,
          "velocity": 0.1968503937007874
        },
        {
          "duration": 0.09166666666664014,
          "durationTicks": 22,
          "midi": 55,
          "name": "G3",
          "ticks": 62320,
          "time": 259.6666666666667,
          "velocity": 0.30708661417322836
        },
        {
          "duration": 0.05000000000001137,
          "durationTicks": 12,
          "midi": 50,
          "name": "D3",
          "ticks": 62337,
          "time": 259.7375,
          "velocity": 0.2283464566929134
        },
        {
          "duration": 0.11666666666667425,
          "durationTicks": 28,
          "midi": 76,
          "name": "E5",
          "ticks": 62407,
          "time": 260.02916666666664,
          "velocity": 0.3937007874015748
        },
        {
          "duration": 0.05000000000001137,
          "durationTicks": 12,
          "midi": 94,
          "name": "A#6",
          "ticks": 62433,
          "time": 260.1375,
          "velocity": 0.2677165354330709
        },
        {
          "duration": 0.14999999999997726,
          "durationTicks": 36,
          "midi": 62,
          "name": "D4",
          "ticks": 62757,
          "time": 261.4875,
          "velocity": 0.14173228346456693
        },
        {
          "duration": 0.14166666666670835,
          "durationTicks": 34,
          "midi": 48,
          "name": "C3",
          "ticks": 63112,
          "time": 262.96666666666664,
          "velocity": 0.28346456692913385
        },
        {
          "duration": 0.21249999999997726,
          "durationTicks": 51,
          "midi": 60,
          "name": "C4",
          "ticks": 65171,
          "time": 271.54583333333335,
          "velocity": 0.12598425196850394
        },
        {
          "duration": 0.35000000000002274,
          "durationTicks": 84,
          "midi": 60,
          "name": "C4",
          "ticks": 65270,
          "time": 271.9583333333333,
          "velocity": 0.07874015748031496
        },
        {
          "duration": 0.22083333333335986,
          "durationTicks": 53,
          "midi": 60,
          "name": "C4",
          "ticks": 66741,
          "time": 278.0875,
          "velocity": 0.12598425196850394
        },
        {
          "duration": 0.22916666666668561,
          "durationTicks": 55,
          "midi": 60,
          "name": "C4",
          "ticks": 67262,
          "time": 280.2583333333333,
          "velocity": 0.2283464566929134
        },
        {
          "duration": 0.11250000000001137,
          "durationTicks": 27,
          "midi": 79,
          "name": "G5",
          "ticks": 68668,
          "time": 286.1166666666667,
          "velocity": 0.08661417322834646
        },
        {
          "duration": 0.10833333333329165,
          "durationTicks": 26,
          "midi": 76,
          "name": "E5",
          "ticks": 69355,
          "time": 288.9791666666667,
          "velocity": 0.2047244094488189
        },
        {
          "duration": 0.27916666666664014,
          "durationTicks": 67,
          "midi": 69,
          "name": "A4",
          "ticks": 69477,
          "time": 289.4875,
          "velocity": 0.1732283464566929
        },
        {
          "duration": 0.20833333333331439,
          "durationTicks": 50,
          "midi": 57,
          "name": "A3",
          "ticks": 69494,
          "time": 289.55833333333334,
          "velocity": 0.1732283464566929
        },
        {
          "duration": 0.17916666666667425,
          "durationTicks": 43,
          "midi": 60,
          "name": "C4",
          "ticks": 69580,
          "time": 289.9166666666667,
          "velocity": 0.11811023622047244
        },
        {
          "duration": 0.19999999999998863,
          "durationTicks": 48,
          "midi": 59,
          "name": "B3",
          "ticks": 69887,
          "time": 291.1958333333333,
          "velocity": 0.18110236220472442
        },
        {
          "duration": 0.0708333333333826,
          "durationTicks": 17,
          "midi": 79,
          "name": "G5",
          "ticks": 70401,
          "time": 293.3375,
          "velocity": 0.2047244094488189
        },
        {
          "duration": 0.11666666666667425,
          "durationTicks": 28,
          "midi": 83,
          "name": "B5",
          "ticks": 70435,
          "time": 293.4791666666667,
          "velocity": 0.13385826771653545
        },
        {
          "duration": 0.16250000000002274,
          "durationTicks": 39,
          "midi": 72,
          "name": "C5",
          "ticks": 70924,
          "time": 295.51666666666665,
          "velocity": 0.13385826771653545
        },
        {
          "duration": 0.1875,
          "durationTicks": 45,
          "midi": 76,
          "name": "E5",
          "ticks": 71455,
          "time": 297.7291666666667,
          "velocity": 0.2047244094488189
        },
        {
          "duration": 0.28750000000002274,
          "durationTicks": 69,
          "midi": 60,
          "name": "C4",
          "ticks": 71551,
          "time": 298.12916666666666,
          "velocity": 0.1968503937007874
        },
        {
          "duration": 0.07083333333332575,
          "durationTicks": 17,
          "midi": 64,
          "name": "E4",
          "ticks": 71555,
          "time": 298.1458333333333,
          "velocity": 0.1968503937007874
        },
        {
          "duration": 0.041666666666685614,
          "durationTicks": 10,
          "midi": 62,
          "name": "D4",
          "ticks": 71973,
          "time": 299.8875,
          "velocity": 0.11023622047244094
        },
        {
          "duration": 0.1875,
          "durationTicks": 45,
          "midi": 62,
          "name": "D4",
          "ticks": 72115,
          "time": 300.4791666666667,
          "velocity": 0.08661417322834646
        },
        {
          "duration": 0.04166666666662877,
          "durationTicks": 10,
          "midi": 60,
          "name": "C4",
          "ticks": 72503,
          "time": 302.09583333333336,
          "velocity": 0.12598425196850394
        },
        {
          "duration": 0.23750000000001137,
          "durationTicks": 57,
          "midi": 71,
          "name": "B4",
          "ticks": 72619,
          "time": 302.57916666666665,
          "velocity": 0.13385826771653545
        },
        {
          "duration": 0.05833333333333712,
          "durationTicks": 14,
          "midi": 67,
          "name": "G4",
          "ticks": 72669,
          "time": 302.7875,
          "velocity": 0.14173228346456693
        },
        {
          "duration": 0.07083333333332575,
          "durationTicks": 17,
          "midi": 69,
          "name": "A4",
          "ticks": 73125,
          "time": 304.6875,
          "velocity": 0.08661417322834646
        }
      ],
      "endOfTrackTicks": 73142
    },
    {
      "channel": 3,
      "controlChanges": {},
      "pitchBends": [],
      "instrument": {
        "family": "piano",
        "number": 0,
        "name": "acoustic grand piano"
      },
      "name": "",
      "notes": [
        {
          "duration": 0.07083333333333286,
          "durationTicks": 17,
          "midi": 45,
          "name": "A2",
          "ticks": 5291,
          "time": 22.045833333333334,
          "velocity": 0.1732283464566929
        },
        {
          "duration": 0.1374999999999993,
          "durationTicks": 33,
          "midi": 85,
          "name": "C#6",
          "ticks": 6595,
          "time": 27.479166666666668,
          "velocity": 0.2047244094488189
        },
        {
          "duration": 0.03750000000000142,
          "durationTicks": 9,
          "midi": 86,
          "name": "D6",
          "ticks": 10214,
          "time": 42.55833333333333,
          "velocity": 0.16535433070866143
        },
        {
          "duration": 0.04999999999999716,
          "durationTicks": 12,
          "midi": 31,
          "name": "G1",
          "ticks": 10708,
          "time": 44.61666666666667,
          "velocity": 0.2125984251968504
        },
        {
          "duration": 0.09166666666666146,
          "durationTicks": 22,
          "midi": 93,
          "name": "A6",
          "ticks": 10912,
          "time": 45.46666666666667,
          "velocity": 0.25196850393700787
        },
        {
          "duration": 0.11250000000000426,
          "durationTicks": 27,
          "midi": 55,
          "name": "G3",
          "ticks": 11063,
          "time": 46.09583333333333,
          "velocity": 0.1968503937007874
        },
        {
          "duration": 0.05000000000000426,
          "durationTicks": 12,
          "midi": 52,
          "name": "E3",
          "ticks": 12295,
          "time": 51.229166666666664,
          "velocity": 0.2677165354330709
        },
        {
          "duration": 0.06666666666666288,
          "durationTicks": 16,
          "midi": 93,
          "name": "A6",
          "ticks": 12883,
          "time": 53.67916666666667,
          "velocity": 0.25984251968503935
        },
        {
          "duration": 0.05833333333333712,
          "durationTicks": 14,
          "midi": 38,
          "name": "D2",
          "ticks": 13159,
          "time": 54.829166666666666,
          "velocity": 0.15748031496062992
        },
        {
          "duration": 0.05833333333333712,
          "durationTicks": 14,
          "midi": 31,
          "name": "G1",
          "ticks": 13879,
          "time": 57.829166666666666,
          "velocity": 0.2047244094488189
        },
        {
          "duration": 0.14166666666666572,
          "durationTicks": 34,
          "midi": 71,
          "name": "B4",
          "ticks": 14123,
          "time": 58.84583333333333,
          "velocity": 0.2440944881889764
        },
        {
          "duration": 0.07083333333333997,
          "durationTicks": 17,
          "midi": 59,
          "name": "B3",
          "ticks": 14234,
          "time": 59.30833333333333,
          "velocity": 0.25196850393700787
        },
        {
          "duration": 0.09166666666666856,
          "durationTicks": 22,
          "midi": 74,
          "name": "D5",
          "ticks": 14644,
          "time": 61.016666666666666,
          "velocity": 0.36220472440944884
        },
        {
          "duration": 0.12083333333333002,
          "durationTicks": 29,
          "midi": 31,
          "name": "G1",
          "ticks": 14930,
          "time": 62.208333333333336,
          "velocity": 0.13385826771653545
        },
        {
          "duration": 0.12083333333333002,
          "durationTicks": 29,
          "midi": 65,
          "name": "F4",
          "ticks": 15172,
          "time": 63.21666666666667,
          "velocity": 0.1968503937007874
        },
        {
          "duration": 0.12916666666666998,
          "durationTicks": 31,
          "midi": 55,
          "name": "G3",
          "ticks": 15254,
          "time": 63.55833333333333,
          "velocity": 0.30708661417322836
        },
        {
          "duration": 0.10833333333333428,
          "durationTicks": 26,
          "midi": 55,
          "name": "G3",
          "ticks": 16339,
          "time": 68.07916666666667,
          "velocity": 0.3700787401574803
        },
        {
          "duration": 0.04166666666665719,
          "durationTicks": 10,
          "midi": 31,
          "name": "G1",
          "ticks": 16487,
          "time": 68.69583333333334,
          "velocity": 0.2204724409448819
        },
        {
          "duration": 0.07083333333333997,
          "durationTicks": 17,
          "midi": 52,
          "name": "E3",
          "ticks": 16583,
          "time": 69.09583333333333,
          "velocity": 0.29133858267716534
        },
        {
          "duration": 0.04999999999999716,
          "durationTicks": 12,
          "midi": 55,
          "name": "G3",
          "ticks": 16600,
          "time": 69.16666666666667,
          "velocity": 0.1968503937007874
        },
        {
          "duration": 0.09999999999999432,
          "durationTicks": 24,
          "midi": 31,
          "name": "G1",
          "ticks": 16742,
          "time": 69.75833333333334,
          "velocity": 0.28346456692913385
        },
        {
          "duration": 0.05000000000001137,
          "durationTicks": 12,
          "midi": 52,
          "name": "E3",
          "ticks": 16749,
          "time": 69.7875,
          "velocity": 0.25984251968503935
        },
        {
          "duration": 0.09999999999999432,
          "durationTicks": 24,
          "midi": 91,
          "name": "G6",
          "ticks": 17687,
          "time": 73.69583333333334,
          "velocity": 0.2677165354330709
        },
        {
          "duration": 0.09166666666666856,
          "durationTicks": 22,
          "midi": 71,
          "name": "B4",
          "ticks": 18112,
          "time": 75.46666666666667,
          "velocity": 0.3858267716535433
        },
        {
          "duration": 0.1875,
          "durationTicks": 45,
          "midi": 50,
          "name": "D3",
          "ticks": 18127,
          "time": 75.52916666666667,
          "velocity": 0.33858267716535434
        },
        {
          "duration": 0.11666666666667425,
          "durationTicks": 28,
          "midi": 52,
          "name": "E3",
          "ticks": 18403,
          "time": 76.67916666666666,
          "velocity": 0.14960629921259844
        },
        {
          "duration": 0.041666666666671404,
          "durationTicks": 10,
          "midi": 62,
          "name": "D4",
          "ticks": 18971,
          "time": 79.04583333333333,
          "velocity": 0.15748031496062992
        },
        {
          "duration": 0.14166666666666572,
          "durationTicks": 34,
          "midi": 84,
          "name": "C6",
          "ticks": 19103,
          "time": 79.59583333333333,
          "velocity": 0.3464566929133858
        },
        {
          "duration": 0.09166666666666856,
          "durationTicks": 22,
          "midi": 32,
          "name": "G#1",
          "ticks": 19360,
          "time": 80.66666666666667,
          "velocity": 0.3464566929133858
        },
        {
          "duration": 0.05833333333333712,
          "durationTicks": 14,
          "midi": 43,
          "name": "G2",
          "ticks": 19387,
          "time": 80.77916666666667,
          "velocity": 0.12598425196850394
        },
        {
          "duration": 0.05000000000001137,
          "durationTicks": 12,
          "midi": 76,
          "name": "E5",
          "ticks": 19783,
          "time": 82.42916666666666,
          "velocity": 0.29133858267716534
        },
        {
          "duration": 0.0625,
          "durationTicks": 15,
          "midi": 50,
          "name": "D3",
          "ticks": 20224,
          "time": 84.26666666666667,
          "velocity": 0.3228346456692913
        },
        {
          "duration": 0.07916666666666572,
          "durationTicks": 19,
          "midi": 57,
          "name": "A3",
          "ticks": 20786,
          "time": 86.60833333333333,
          "velocity": 0.29133858267716534
        },
        {
          "duration": 0.07916666666666572,
          "durationTicks": 19,
          "midi": 34,
          "name": "A#1",
          "ticks": 20822,
          "time": 86.75833333333334,
          "velocity": 0.36220472440944884
        },
        {
          "duration": 0.09166666666666856,
          "durationTicks": 22,
          "midi": 64,
          "name": "E4",
          "ticks": 20932,
          "time": 87.21666666666667,
          "velocity": 0.2047244094488189
        },
        {
          "duration": 0.13333333333333997,
          "durationTicks": 32,
          "midi": 76,
          "name": "E5",
          "ticks": 23663,
          "time": 98.59583333333333,
          "velocity": 0.3937007874015748
        },
        {
          "duration": 0.05833333333333712,
          "durationTicks": 14,
          "midi": 94,
          "name": "A#6",
          "ticks": 23690,
          "time": 98.70833333333333,
          "velocity": 0.2283464566929134
        },
        {
          "duration": 0.14166666666666572,
          "durationTicks": 34,
          "midi": 81,
          "name": "A5",
          "ticks": 25307,
          "time": 105.44583333333334,
          "velocity": 0.08661417322834646
        },
        {
          "duration": 0.10833333333333428,
          "durationTicks": 26,
          "midi": 83,
          "name": "B5",
          "ticks": 27055,
          "time": 112.72916666666667,
          "velocity": 0.15748031496062992
        },
        {
          "duration": 0.041666666666671404,
          "durationTicks": 10,
          "midi": 102,
          "name": "F#7",
          "ticks": 27095,
          "time": 112.89583333333333,
          "velocity": 0.25196850393700787
        },
        {
          "duration": 0.0625,
          "durationTicks": 15,
          "midi": 64,
          "name": "E4",
          "ticks": 27112,
          "time": 112.96666666666667,
          "velocity": 0.08661417322834646
        },
        {
          "duration": 0.037499999999994316,
          "durationTicks": 9,
          "midi": 100,
          "name": "E7",
          "ticks": 27866,
          "time": 116.10833333333333,
          "velocity": 0.2204724409448819
        },
        {
          "duration": 0.041666666666671404,
          "durationTicks": 10,
          "midi": 96,
          "name": "C7",
          "ticks": 28665,
          "time": 119.4375,
          "velocity": 0.11811023622047244
        },
        {
          "duration": 0.07083333333333997,
          "durationTicks": 17,
          "midi": 52,
          "name": "E3",
          "ticks": 29049,
          "time": 121.0375,
          "velocity": 0.18110236220472442
        },
        {
          "duration": 0.24166666666666003,
          "durationTicks": 58,
          "midi": 92,
          "name": "G#6",
          "ticks": 29687,
          "time": 123.69583333333334,
          "velocity": 0.25984251968503935
        },
        {
          "duration": 0.04999999999999716,
          "durationTicks": 12,
          "midi": 86,
          "name": "D6",
          "ticks": 29687,
          "time": 123.69583333333334,
          "velocity": 0.11023622047244094
        },
        {
          "duration": 0.037499999999994316,
          "durationTicks": 9,
          "midi": 100,
          "name": "E7",
          "ticks": 29959,
          "time": 124.82916666666667,
          "velocity": 0.2440944881889764
        },
        {
          "duration": 0.07916666666666572,
          "durationTicks": 19,
          "midi": 37,
          "name": "C#2",
          "ticks": 30470,
          "time": 126.95833333333333,
          "velocity": 0.10236220472440945
        },
        {
          "duration": 0.05000000000001137,
          "durationTicks": 12,
          "midi": 57,
          "name": "A3",
          "ticks": 31240,
          "time": 130.16666666666666,
          "velocity": 0.11023622047244094
        },
        {
          "duration": 0.1291666666666913,
          "durationTicks": 31,
          "midi": 72,
          "name": "C5",
          "ticks": 31286,
          "time": 130.35833333333332,
          "velocity": 0.16535433070866143
        },
        {
          "duration": 0.05833333333333712,
          "durationTicks": 14,
          "midi": 72,
          "name": "C5",
          "ticks": 32294,
          "time": 134.55833333333334,
          "velocity": 0.09448818897637795
        },
        {
          "duration": 0.1416666666666515,
          "durationTicks": 34,
          "midi": 72,
          "name": "C5",
          "ticks": 33244,
          "time": 138.51666666666668,
          "velocity": 0.13385826771653545
        },
        {
          "duration": 0.07916666666665151,
          "durationTicks": 19,
          "midi": 64,
          "name": "E4",
          "ticks": 33254,
          "time": 138.55833333333334,
          "velocity": 0.11811023622047244
        },
        {
          "duration": 0.11666666666667425,
          "durationTicks": 28,
          "midi": 71,
          "name": "B4",
          "ticks": 33907,
          "time": 141.27916666666667,
          "velocity": 0.08661417322834646
        },
        {
          "duration": 0.11249999999998295,
          "durationTicks": 27,
          "midi": 55,
          "name": "G3",
          "ticks": 37228,
          "time": 155.11666666666667,
          "velocity": 0.2755905511811024
        },
        {
          "duration": 0.26249999999998863,
          "durationTicks": 63,
          "midi": 76,
          "name": "E5",
          "ticks": 37415,
          "time": 155.89583333333334,
          "velocity": 0.18110236220472442
        },
        {
          "duration": 0.2708333333333428,
          "durationTicks": 65,
          "midi": 79,
          "name": "G5",
          "ticks": 37473,
          "time": 156.1375,
          "velocity": 0.14960629921259844
        },
        {
          "duration": 0.15000000000000568,
          "durationTicks": 36,
          "midi": 83,
          "name": "B5",
          "ticks": 37636,
          "time": 156.81666666666666,
          "velocity": 0.09448818897637795
        },
        {
          "duration": 0.12916666666666288,
          "durationTicks": 31,
          "midi": 45,
          "name": "A2",
          "ticks": 38284,
          "time": 159.51666666666668,
          "velocity": 0.08661417322834646
        },
        {
          "duration": 0.24166666666664582,
          "durationTicks": 58,
          "midi": 69,
          "name": "A4",
          "ticks": 39568,
          "time": 164.86666666666667,
          "velocity": 0.12598425196850394
        },
        {
          "duration": 0.05000000000001137,
          "durationTicks": 12,
          "midi": 62,
          "name": "D4",
          "ticks": 40305,
          "time": 167.9375,
          "velocity": 0.2992125984251969
        },
        {
          "duration": 0.04999999999998295,
          "durationTicks": 12,
          "midi": 76,
          "name": "E5",
          "ticks": 40579,
          "time": 169.07916666666668,
          "velocity": 0.18110236220472442
        },
        {
          "duration": 0.05000000000001137,
          "durationTicks": 12,
          "midi": 64,
          "name": "E4",
          "ticks": 42803,
          "time": 178.34583333333333,
          "velocity": 0.1732283464566929
        },
        {
          "duration": 0.05833333333333712,
          "durationTicks": 14,
          "midi": 41,
          "name": "F2",
          "ticks": 44049,
          "time": 183.5375,
          "velocity": 0.3228346456692913
        },
        {
          "duration": 0.05000000000001137,
          "durationTicks": 12,
          "midi": 50,
          "name": "D3",
          "ticks": 44498,
          "time": 185.40833333333333,
          "velocity": 0.10236220472440945
        },
        {
          "duration": 0.2291666666666572,
          "durationTicks": 55,
          "midi": 59,
          "name": "B3",
          "ticks": 44572,
          "time": 185.71666666666667,
          "velocity": 0.31496062992125984
        },
        {
          "duration": 0.1416666666666515,
          "durationTicks": 34,
          "midi": 31,
          "name": "G1",
          "ticks": 44608,
          "time": 185.86666666666667,
          "velocity": 0.2440944881889764
        },
        {
          "duration": 0.09166666666666856,
          "durationTicks": 22,
          "midi": 72,
          "name": "C5",
          "ticks": 44615,
          "time": 185.89583333333334,
          "velocity": 0.2204724409448819
        },
        {
          "duration": 0.07083333333332575,
          "durationTicks": 17,
          "midi": 87,
          "name": "D#6",
          "ticks": 45023,
          "time": 187.59583333333333,
          "velocity": 0.33070866141732286
        },
        {
          "duration": 0.10833333333334849,
          "durationTicks": 26,
          "midi": 76,
          "name": "E5",
          "ticks": 45266,
          "time": 188.60833333333332,
          "velocity": 0.3858267716535433
        },
        {
          "duration": 0.12083333333333712,
          "durationTicks": 29,
          "midi": 71,
          "name": "B4",
          "ticks": 45542,
          "time": 189.75833333333333,
          "velocity": 0.11023622047244094
        },
        {
          "duration": 0.03750000000002274,
          "durationTicks": 9,
          "midi": 79,
          "name": "G5",
          "ticks": 45835,
          "time": 190.97916666666666,
          "velocity": 0.2677165354330709
        },
        {
          "duration": 0.07916666666665151,
          "durationTicks": 19,
          "midi": 91,
          "name": "G6",
          "ticks": 45967,
          "time": 191.52916666666667,
          "velocity": 0.2755905511811024
        },
        {
          "duration": 0.12083333333333712,
          "durationTicks": 29,
          "midi": 60,
          "name": "C4",
          "ticks": 46703,
          "time": 194.59583333333333,
          "velocity": 0.31496062992125984
        },
        {
          "duration": 0.12916666666666288,
          "durationTicks": 31,
          "midi": 88,
          "name": "E6",
          "ticks": 46999,
          "time": 195.82916666666668,
          "velocity": 0.28346456692913385
        },
        {
          "duration": 0.14166666666667993,
          "durationTicks": 34,
          "midi": 57,
          "name": "A3",
          "ticks": 47373,
          "time": 197.3875,
          "velocity": 0.3937007874015748
        },
        {
          "duration": 0.07083333333332575,
          "durationTicks": 17,
          "midi": 57,
          "name": "A3",
          "ticks": 47519,
          "time": 197.99583333333334,
          "velocity": 0.14173228346456693
        },
        {
          "duration": 0.04166666666665719,
          "durationTicks": 10,
          "midi": 83,
          "name": "B5",
          "ticks": 48023,
          "time": 200.09583333333333,
          "velocity": 0.1968503937007874
        },
        {
          "duration": 0.09999999999999432,
          "durationTicks": 24,
          "midi": 53,
          "name": "F3",
          "ticks": 48254,
          "time": 201.05833333333334,
          "velocity": 0.2440944881889764
        },
        {
          "duration": 0.037499999999994316,
          "durationTicks": 9,
          "midi": 59,
          "name": "B3",
          "ticks": 48818,
          "time": 203.40833333333333,
          "velocity": 0.14173228346456693
        },
        {
          "duration": 0.04999999999998295,
          "durationTicks": 12,
          "midi": 102,
          "name": "F#7",
          "ticks": 48839,
          "time": 203.49583333333334,
          "velocity": 0.4015748031496063
        },
        {
          "duration": 0.08750000000000568,
          "durationTicks": 21,
          "midi": 69,
          "name": "A4",
          "ticks": 49495,
          "time": 206.22916666666666,
          "velocity": 0.4566929133858268
        },
        {
          "duration": 0.07916666666665151,
          "durationTicks": 19,
          "midi": 50,
          "name": "D3",
          "ticks": 49732,
          "time": 207.21666666666667,
          "velocity": 0.14960629921259844
        },
        {
          "duration": 0.05833333333333712,
          "durationTicks": 14,
          "midi": 81,
          "name": "A5",
          "ticks": 49761,
          "time": 207.3375,
          "velocity": 0.13385826771653545
        },
        {
          "duration": 0.04166666666665719,
          "durationTicks": 10,
          "midi": 35,
          "name": "B1",
          "ticks": 49883,
          "time": 207.84583333333333,
          "velocity": 0.3858267716535433
        },
        {
          "duration": 0.08749999999997726,
          "durationTicks": 21,
          "midi": 86,
          "name": "D6",
          "ticks": 50030,
          "time": 208.45833333333334,
          "velocity": 0.2283464566929134
        },
        {
          "duration": 0.05000000000001137,
          "durationTicks": 12,
          "midi": 88,
          "name": "E6",
          "ticks": 50087,
          "time": 208.69583333333333,
          "velocity": 0.12598425196850394
        },
        {
          "duration": 0.05000000000001137,
          "durationTicks": 12,
          "midi": 93,
          "name": "A6",
          "ticks": 51203,
          "time": 213.34583333333333,
          "velocity": 0.2283464566929134
        },
        {
          "duration": 0.07083333333332575,
          "durationTicks": 17,
          "midi": 69,
          "name": "A4",
          "ticks": 52972,
          "time": 220.71666666666667,
          "velocity": 0.3228346456692913
        },
        {
          "duration": 0.05833333333333712,
          "durationTicks": 14,
          "midi": 52,
          "name": "E3",
          "ticks": 52989,
          "time": 220.7875,
          "velocity": 0.11811023622047244
        },
        {
          "duration": 0.0625,
          "durationTicks": 15,
          "midi": 67,
          "name": "G4",
          "ticks": 53063,
          "time": 221.09583333333333,
          "velocity": 0.3228346456692913
        },
        {
          "duration": 0.05000000000001137,
          "durationTicks": 12,
          "midi": 84,
          "name": "C6",
          "ticks": 53656,
          "time": 223.56666666666666,
          "velocity": 0.2047244094488189
        },
        {
          "duration": 0.07916666666665151,
          "durationTicks": 19,
          "midi": 55,
          "name": "G3",
          "ticks": 54117,
          "time": 225.4875,
          "velocity": 0.29133858267716534
        },
        {
          "duration": 0.14999999999997726,
          "durationTicks": 36,
          "midi": 83,
          "name": "B5",
          "ticks": 54290,
          "time": 226.20833333333334,
          "velocity": 0.2992125984251969
        },
        {
          "duration": 0.04999999999998295,
          "durationTicks": 12,
          "midi": 103,
          "name": "G7",
          "ticks": 55079,
          "time": 229.49583333333334,
          "velocity": 0.29133858267716534
        },
        {
          "duration": 0.17916666666667425,
          "durationTicks": 43,
          "midi": 57,
          "name": "A3",
          "ticks": 55420,
          "time": 230.91666666666666,
          "velocity": 0.1889763779527559
        },
        {
          "duration": 0.07083333333335418,
          "durationTicks": 17,
          "midi": 69,
          "name": "A4",
          "ticks": 55451,
          "time": 231.04583333333332,
          "velocity": 0.10236220472440945
        },
        {
          "duration": 0.07083333333335418,
          "durationTicks": 17,
          "midi": 69,
          "name": "A4",
          "ticks": 55600,
          "time": 231.66666666666666,
          "velocity": 0.13385826771653545
        },
        {
          "duration": 0.04166666666665719,
          "durationTicks": 10,
          "midi": 64,
          "name": "E4",
          "ticks": 55617,
          "time": 231.7375,
          "velocity": 0.07874015748031496
        },
        {
          "duration": 0.03750000000002274,
          "durationTicks": 9,
          "midi": 93,
          "name": "A6",
          "ticks": 55675,
          "time": 231.97916666666666,
          "velocity": 0.28346456692913385
        },
        {
          "duration": 0.07083333333332575,
          "durationTicks": 17,
          "midi": 29,
          "name": "F1",
          "ticks": 56325,
          "time": 234.6875,
          "velocity": 0.2283464566929134
        },
        {
          "duration": 0.12083333333333712,
          "durationTicks": 29,
          "midi": 83,
          "name": "B5",
          "ticks": 56378,
          "time": 234.90833333333333,
          "velocity": 0.3228346456692913
        },
        {
          "duration": 0.15000000000000568,
          "durationTicks": 36,
          "midi": 48,
          "name": "C3",
          "ticks": 56627,
          "time": 235.94583333333333,
          "velocity": 0.3228346456692913
        },
        {
          "duration": 0.08750000000000568,
          "durationTicks": 21,
          "midi": 88,
          "name": "E6",
          "ticks": 56707,
          "time": 236.27916666666667,
          "velocity": 0.3937007874015748
        },
        {
          "duration": 0.22916666666668561,
          "durationTicks": 55,
          "midi": 93,
          "name": "A6",
          "ticks": 56755,
          "time": 236.47916666666666,
          "velocity": 0.3937007874015748
        },
        {
          "duration": 0.07083333333335418,
          "durationTicks": 17,
          "midi": 88,
          "name": "E6",
          "ticks": 56793,
          "time": 236.6375,
          "velocity": 0.2677165354330709
        },
        {
          "duration": 0.07916666666667993,
          "durationTicks": 19,
          "midi": 93,
          "name": "A6",
          "ticks": 56851,
          "time": 236.87916666666666,
          "velocity": 0.2125984251968504
        },
        {
          "duration": 0.2083333333333428,
          "durationTicks": 50,
          "midi": 59,
          "name": "B3",
          "ticks": 57127,
          "time": 238.02916666666667,
          "velocity": 0.28346456692913385
        },
        {
          "duration": 0.20000000000001705,
          "durationTicks": 48,
          "midi": 52,
          "name": "E3",
          "ticks": 57151,
          "time": 238.12916666666666,
          "velocity": 0.16535433070866143
        },
        {
          "duration": 0.09999999999999432,
          "durationTicks": 24,
          "midi": 90,
          "name": "F#6",
          "ticks": 57916,
          "time": 241.31666666666666,
          "velocity": 0.29133858267716534
        },
        {
          "duration": 0.08750000000000568,
          "durationTicks": 21,
          "midi": 79,
          "name": "G5",
          "ticks": 58094,
          "time": 242.05833333333334,
          "velocity": 0.2125984251968504
        },
        {
          "duration": 0.21250000000000568,
          "durationTicks": 51,
          "midi": 67,
          "name": "G4",
          "ticks": 58096,
          "time": 242.06666666666666,
          "velocity": 0.2677165354330709
        },
        {
          "duration": 0.0625,
          "durationTicks": 15,
          "midi": 81,
          "name": "A5",
          "ticks": 58139,
          "time": 242.24583333333334,
          "velocity": 0.2440944881889764
        },
        {
          "duration": 0.10833333333332007,
          "durationTicks": 26,
          "midi": 67,
          "name": "G4",
          "ticks": 58387,
          "time": 243.27916666666667,
          "velocity": 0.2047244094488189
        },
        {
          "duration": 0.05000000000001137,
          "durationTicks": 12,
          "midi": 94,
          "name": "A#6",
          "ticks": 58725,
          "time": 244.6875,
          "velocity": 0.23622047244094488
        },
        {
          "duration": 0.08750000000000568,
          "durationTicks": 21,
          "midi": 41,
          "name": "F2",
          "ticks": 58735,
          "time": 244.72916666666666,
          "velocity": 0.2283464566929134
        },
        {
          "duration": 0.09166666666666856,
          "durationTicks": 22,
          "midi": 98,
          "name": "D7",
          "ticks": 59176,
          "time": 246.56666666666666,
          "velocity": 0.14173228346456693
        },
        {
          "duration": 0.06666666666666288,
          "durationTicks": 16,
          "midi": 95,
          "name": "B6",
          "ticks": 59383,
          "time": 247.42916666666667,
          "velocity": 0.2047244094488189
        },
        {
          "duration": 0.23333333333332007,
          "durationTicks": 56,
          "midi": 55,
          "name": "G3",
          "ticks": 59495,
          "time": 247.89583333333334,
          "velocity": 0.36220472440944884
        },
        {
          "duration": 0.037499999999994316,
          "durationTicks": 9,
          "midi": 52,
          "name": "E3",
          "ticks": 59587,
          "time": 248.27916666666667,
          "velocity": 0.3700787401574803
        },
        {
          "duration": 0.09999999999999432,
          "durationTicks": 24,
          "midi": 86,
          "name": "D6",
          "ticks": 59702,
          "time": 248.75833333333333,
          "velocity": 0.2755905511811024
        },
        {
          "duration": 0.05000000000001137,
          "durationTicks": 12,
          "midi": 38,
          "name": "D2",
          "ticks": 59800,
          "time": 249.16666666666666,
          "velocity": 0.2125984251968504
        },
        {
          "duration": 0.12916666666666288,
          "durationTicks": 31,
          "midi": 64,
          "name": "E4",
          "ticks": 61562,
          "time": 256.5083333333333,
          "velocity": 0.18110236220472442
        },
        {
          "duration": 0.0625,
          "durationTicks": 15,
          "midi": 81,
          "name": "A5",
          "ticks": 61600,
          "time": 256.6666666666667,
          "velocity": 0.16535433070866143
        },
        {
          "duration": 0.05000000000001137,
          "durationTicks": 12,
          "midi": 91,
          "name": "G6",
          "ticks": 62397,
          "time": 259.9875,
          "velocity": 0.2440944881889764
        },
        {
          "duration": 0.10000000000002274,
          "durationTicks": 24,
          "midi": 67,
          "name": "G4",
          "ticks": 62416,
          "time": 260.06666666666666,
          "velocity": 0.3779527559055118
        },
        {
          "duration": 0.049999999999954525,
          "durationTicks": 12,
          "midi": 91,
          "name": "G6",
          "ticks": 63143,
          "time": 263.09583333333336,
          "velocity": 0.2440944881889764
        },
        {
          "duration": 0.07916666666665151,
          "durationTicks": 19,
          "midi": 52,
          "name": "E3",
          "ticks": 67276,
          "time": 280.31666666666666,
          "velocity": 0.11811023622047244
        },
        {
          "duration": 0.04166666666662877,
          "durationTicks": 10,
          "midi": 52,
          "name": "E3",
          "ticks": 69371,
          "time": 289.04583333333335,
          "velocity": 0.18110236220472442
        },
        {
          "duration": 0.17916666666667425,
          "durationTicks": 43,
          "midi": 64,
          "name": "E4",
          "ticks": 69501,
          "time": 289.5875,
          "velocity": 0.15748031496062992
        },
        {
          "duration": 0.24166666666667425,
          "durationTicks": 58,
          "midi": 72,
          "name": "C5",
          "ticks": 70401,
          "time": 293.3375,
          "velocity": 0.1968503937007874
        },
        {
          "duration": 0.07083333333332575,
          "durationTicks": 17,
          "midi": 64,
          "name": "E4",
          "ticks": 70442,
          "time": 293.5083333333333,
          "velocity": 0.10236220472440945
        },
        {
          "duration": 0.10833333333329165,
          "durationTicks": 26,
          "midi": 79,
          "name": "G5",
          "ticks": 70958,
          "time": 295.65833333333336,
          "velocity": 0.09448818897637795
        },
        {
          "duration": 0.05000000000001137,
          "durationTicks": 12,
          "midi": 64,
          "name": "E4",
          "ticks": 71457,
          "time": 297.7375,
          "velocity": 0.15748031496062992
        },
        {
          "duration": 0.17916666666667425,
          "durationTicks": 43,
          "midi": 60,
          "name": "C4",
          "ticks": 71462,
          "time": 297.7583333333333,
          "velocity": 0.1968503937007874
        },
        {
          "duration": 0.27083333333337123,
          "durationTicks": 65,
          "midi": 69,
          "name": "A4",
          "ticks": 71572,
          "time": 298.21666666666664,
          "velocity": 0.15748031496062992
        }
      ],
      "endOfTrackTicks": 71637
    },
    {
      "channel": 3,
      "controlChanges": {},
      "pitchBends": [],
      "instrument": {
        "family": "piano",
        "number": 0,
        "name": "acoustic grand piano"
      },
      "name": "",
      "notes": [
        {
          "duration": 0.04166666666666785,
          "durationTicks": 10,
          "midi": 71,
          "name": "B4",
          "ticks": 6604,
          "time": 27.516666666666666,
          "velocity": 0.2047244094488189
        },
        {
          "duration": 0.03750000000000142,
          "durationTicks": 9,
          "midi": 59,
          "name": "B3",
          "ticks": 13159,
          "time": 54.829166666666666,
          "velocity": 0.11811023622047244
        },
        {
          "duration": 0.16249999999999432,
          "durationTicks": 39,
          "midi": 31,
          "name": "G1",
          "ticks": 14236,
          "time": 59.31666666666667,
          "velocity": 0.23622047244094488
        },
        {
          "duration": 0.11250000000000426,
          "durationTicks": 27,
          "midi": 31,
          "name": "G1",
          "ticks": 14644,
          "time": 61.016666666666666,
          "velocity": 0.33858267716535434
        },
        {
          "duration": 0.12916666666666998,
          "durationTicks": 31,
          "midi": 59,
          "name": "B3",
          "ticks": 15244,
          "time": 63.516666666666666,
          "velocity": 0.28346456692913385
        },
        {
          "duration": 0.15000000000000568,
          "durationTicks": 36,
          "midi": 60,
          "name": "C4",
          "ticks": 16324,
          "time": 68.01666666666667,
          "velocity": 0.3228346456692913
        },
        {
          "duration": 0.07083333333332575,
          "durationTicks": 17,
          "midi": 79,
          "name": "G5",
          "ticks": 19120,
          "time": 79.66666666666667,
          "velocity": 0.30708661417322836
        },
        {
          "duration": 0.07916666666666572,
          "durationTicks": 19,
          "midi": 50,
          "name": "D3",
          "ticks": 19365,
          "time": 80.6875,
          "velocity": 0.2125984251968504
        },
        {
          "duration": 0.12083333333333712,
          "durationTicks": 29,
          "midi": 86,
          "name": "D6",
          "ticks": 20786,
          "time": 86.60833333333333,
          "velocity": 0.2125984251968504
        },
        {
          "duration": 0.04999999999999716,
          "durationTicks": 12,
          "midi": 93,
          "name": "A6",
          "ticks": 20834,
          "time": 86.80833333333334,
          "velocity": 0.2283464566929134
        },
        {
          "duration": 0.3083333333333371,
          "durationTicks": 74,
          "midi": 96,
          "name": "C7",
          "ticks": 23611,
          "time": 98.37916666666666,
          "velocity": 0.28346456692913385
        },
        {
          "duration": 0.05000000000001137,
          "durationTicks": 12,
          "midi": 96,
          "name": "C7",
          "ticks": 27095,
          "time": 112.89583333333333,
          "velocity": 0.14173228346456693
        },
        {
          "duration": 0.25,
          "durationTicks": 60,
          "midi": 59,
          "name": "B3",
          "ticks": 29661,
          "time": 123.5875,
          "velocity": 0.10236220472440945
        },
        {
          "duration": 0.2333333333333485,
          "durationTicks": 56,
          "midi": 60,
          "name": "C4",
          "ticks": 31247,
          "time": 130.19583333333333,
          "velocity": 0.13385826771653545
        },
        {
          "duration": 0.15000000000000568,
          "durationTicks": 36,
          "midi": 60,
          "name": "C4",
          "ticks": 37454,
          "time": 156.05833333333334,
          "velocity": 0.13385826771653545
        },
        {
          "duration": 0.05000000000001137,
          "durationTicks": 12,
          "midi": 74,
          "name": "D5",
          "ticks": 37646,
          "time": 156.85833333333332,
          "velocity": 0.07874015748031496
        },
        {
          "duration": 0.05833333333333712,
          "durationTicks": 14,
          "midi": 86,
          "name": "D6",
          "ticks": 40303,
          "time": 167.92916666666667,
          "velocity": 0.28346456692913385
        },
        {
          "duration": 0.20000000000001705,
          "durationTicks": 48,
          "midi": 52,
          "name": "E3",
          "ticks": 44591,
          "time": 185.79583333333332,
          "velocity": 0.2440944881889764
        },
        {
          "duration": 0.12916666666666288,
          "durationTicks": 31,
          "midi": 34,
          "name": "A#1",
          "ticks": 45016,
          "time": 187.56666666666666,
          "velocity": 0.33070866141732286
        },
        {
          "duration": 0.05833333333333712,
          "durationTicks": 14,
          "midi": 88,
          "name": "E6",
          "ticks": 45273,
          "time": 188.6375,
          "velocity": 0.23622047244094488
        },
        {
          "duration": 0.05000000000001137,
          "durationTicks": 12,
          "midi": 67,
          "name": "G4",
          "ticks": 45969,
          "time": 191.5375,
          "velocity": 0.2204724409448819
        },
        {
          "duration": 0.11249999999998295,
          "durationTicks": 27,
          "midi": 52,
          "name": "E3",
          "ticks": 46679,
          "time": 194.49583333333334,
          "velocity": 0.25196850393700787
        },
        {
          "duration": 0.03750000000002274,
          "durationTicks": 9,
          "midi": 103,
          "name": "G7",
          "ticks": 46706,
          "time": 194.60833333333332,
          "velocity": 0.2677165354330709
        },
        {
          "duration": 0.07916666666667993,
          "durationTicks": 19,
          "midi": 34,
          "name": "A#1",
          "ticks": 47006,
          "time": 195.85833333333332,
          "velocity": 0.2677165354330709
        },
        {
          "duration": 0.05000000000001137,
          "durationTicks": 12,
          "midi": 45,
          "name": "A2",
          "ticks": 47387,
          "time": 197.44583333333333,
          "velocity": 0.23622047244094488
        },
        {
          "duration": 0.041666666666685614,
          "durationTicks": 10,
          "midi": 59,
          "name": "B3",
          "ticks": 48849,
          "time": 203.5375,
          "velocity": 0.3937007874015748
        },
        {
          "duration": 0.15000000000000568,
          "durationTicks": 36,
          "midi": 84,
          "name": "C6",
          "ticks": 49466,
          "time": 206.10833333333332,
          "velocity": 0.44881889763779526
        },
        {
          "duration": 0.12083333333333712,
          "durationTicks": 29,
          "midi": 76,
          "name": "E5",
          "ticks": 49739,
          "time": 207.24583333333334,
          "velocity": 0.11811023622047244
        },
        {
          "duration": 0.07916666666665151,
          "durationTicks": 19,
          "midi": 67,
          "name": "G4",
          "ticks": 51199,
          "time": 213.32916666666668,
          "velocity": 0.2125984251968504
        },
        {
          "duration": 0.25,
          "durationTicks": 60,
          "midi": 59,
          "name": "B3",
          "ticks": 52953,
          "time": 220.6375,
          "velocity": 0.30708661417322836
        },
        {
          "duration": 0.14999999999997726,
          "durationTicks": 36,
          "midi": 47,
          "name": "B2",
          "ticks": 53044,
          "time": 221.01666666666668,
          "velocity": 0.25196850393700787
        },
        {
          "duration": 0.03750000000002274,
          "durationTicks": 9,
          "midi": 45,
          "name": "A2",
          "ticks": 53666,
          "time": 223.60833333333332,
          "velocity": 0.1968503937007874
        },
        {
          "duration": 0.15833333333333144,
          "durationTicks": 38,
          "midi": 52,
          "name": "E3",
          "ticks": 55051,
          "time": 229.37916666666666,
          "velocity": 0.2677165354330709
        },
        {
          "duration": 0.037499999999994316,
          "durationTicks": 9,
          "midi": 93,
          "name": "A6",
          "ticks": 55063,
          "time": 229.42916666666667,
          "velocity": 0.2204724409448819
        },
        {
          "duration": 0.19166666666666288,
          "durationTicks": 46,
          "midi": 86,
          "name": "D6",
          "ticks": 55420,
          "time": 230.91666666666666,
          "velocity": 0.18110236220472442
        },
        {
          "duration": 0.04166666666665719,
          "durationTicks": 10,
          "midi": 57,
          "name": "A3",
          "ticks": 55605,
          "time": 231.6875,
          "velocity": 0.08661417322834646
        },
        {
          "duration": 0.04999999999998295,
          "durationTicks": 12,
          "midi": 87,
          "name": "D#6",
          "ticks": 55663,
          "time": 231.92916666666667,
          "velocity": 0.2677165354330709
        },
        {
          "duration": 0.09999999999999432,
          "durationTicks": 24,
          "midi": 45,
          "name": "A2",
          "ticks": 55672,
          "time": 231.96666666666667,
          "velocity": 0.2677165354330709
        },
        {
          "duration": 0.04999999999998295,
          "durationTicks": 12,
          "midi": 50,
          "name": "D3",
          "ticks": 55679,
          "time": 231.99583333333334,
          "velocity": 0.10236220472440945
        },
        {
          "duration": 0.1708333333333485,
          "durationTicks": 41,
          "midi": 55,
          "name": "G3",
          "ticks": 56327,
          "time": 234.69583333333333,
          "velocity": 0.18110236220472442
        },
        {
          "duration": 0.07083333333332575,
          "durationTicks": 17,
          "midi": 64,
          "name": "E4",
          "ticks": 56337,
          "time": 234.7375,
          "velocity": 0.1732283464566929
        },
        {
          "duration": 0.08749999999997726,
          "durationTicks": 21,
          "midi": 93,
          "name": "A6",
          "ticks": 56659,
          "time": 236.07916666666668,
          "velocity": 0.2755905511811024
        },
        {
          "duration": 0.04166666666665719,
          "durationTicks": 10,
          "midi": 59,
          "name": "B3",
          "ticks": 57196,
          "time": 238.31666666666666,
          "velocity": 0.10236220472440945
        },
        {
          "duration": 0.17083333333332007,
          "durationTicks": 41,
          "midi": 93,
          "name": "A6",
          "ticks": 58094,
          "time": 242.05833333333334,
          "velocity": 0.2440944881889764
        },
        {
          "duration": 0.05000000000001137,
          "durationTicks": 12,
          "midi": 50,
          "name": "D3",
          "ticks": 58111,
          "time": 242.12916666666666,
          "velocity": 0.15748031496062992
        },
        {
          "duration": 0.06666666666666288,
          "durationTicks": 16,
          "midi": 59,
          "name": "B3",
          "ticks": 58399,
          "time": 243.32916666666668,
          "velocity": 0.18110236220472442
        },
        {
          "duration": 0.037499999999994316,
          "durationTicks": 9,
          "midi": 57,
          "name": "A3",
          "ticks": 59534,
          "time": 248.05833333333334,
          "velocity": 0.2677165354330709
        },
        {
          "duration": 0.11250000000001137,
          "durationTicks": 27,
          "midi": 86,
          "name": "D6",
          "ticks": 59536,
          "time": 248.06666666666666,
          "velocity": 0.36220472440944884
        },
        {
          "duration": 0.04166666666665719,
          "durationTicks": 10,
          "midi": 34,
          "name": "A#1",
          "ticks": 59579,
          "time": 248.24583333333334,
          "velocity": 0.2440944881889764
        },
        {
          "duration": 0.1708333333333485,
          "durationTicks": 41,
          "midi": 81,
          "name": "A5",
          "ticks": 61550,
          "time": 256.4583333333333,
          "velocity": 0.15748031496062992
        },
        {
          "duration": 0.09166666666669698,
          "durationTicks": 22,
          "midi": 79,
          "name": "G5",
          "ticks": 61595,
          "time": 256.6458333333333,
          "velocity": 0.14960629921259844
        },
        {
          "duration": 0.279166666666697,
          "durationTicks": 67,
          "midi": 96,
          "name": "C7",
          "ticks": 62359,
          "time": 259.82916666666665,
          "velocity": 0.29133858267716534
        },
        {
          "duration": 0.15833333333330302,
          "durationTicks": 38,
          "midi": 60,
          "name": "C4",
          "ticks": 69506,
          "time": 289.60833333333335,
          "velocity": 0.13385826771653545
        },
        {
          "duration": 0.05000000000001137,
          "durationTicks": 12,
          "midi": 52,
          "name": "E3",
          "ticks": 71467,
          "time": 297.77916666666664,
          "velocity": 0.16535433070866143
        }
      ],
      "endOfTrackTicks": 71479
    },
    {
      "channel": 4,
      "controlChanges": {},
      "pitchBends": [],
      "instrument": {
        "family": "piano",
        "number": 0,
        "name": "acoustic grand piano"
      },
      "name": "",
      "notes": [
        {
          "duration": 0.04999999999999716,
          "durationTicks": 12,
          "midi": 62,
          "name": "D4",
          "ticks": 14231,
          "time": 59.295833333333334,
          "velocity": 0.2125984251968504
        },
        {
          "duration": 0.09166666666666856,
          "durationTicks": 22,
          "midi": 87,
          "name": "D#6",
          "ticks": 14649,
          "time": 61.0375,
          "velocity": 0.31496062992125984
        },
        {
          "duration": 0.11249999999999716,
          "durationTicks": 27,
          "midi": 31,
          "name": "G1",
          "ticks": 16331,
          "time": 68.04583333333333,
          "velocity": 0.2677165354330709
        },
        {
          "duration": 0.05833333333333712,
          "durationTicks": 14,
          "midi": 67,
          "name": "G4",
          "ticks": 20829,
          "time": 86.7875,
          "velocity": 0.1968503937007874
        },
        {
          "duration": 0.07916666666667993,
          "durationTicks": 19,
          "midi": 81,
          "name": "A5",
          "ticks": 31293,
          "time": 130.3875,
          "velocity": 0.08661417322834646
        },
        {
          "duration": 0.11250000000001137,
          "durationTicks": 27,
          "midi": 79,
          "name": "G5",
          "ticks": 37432,
          "time": 155.96666666666667,
          "velocity": 0.11811023622047244
        },
        {
          "duration": 0.05000000000001137,
          "durationTicks": 12,
          "midi": 93,
          "name": "A6",
          "ticks": 44587,
          "time": 185.77916666666667,
          "velocity": 0.18110236220472442
        },
        {
          "duration": 0.037499999999994316,
          "durationTicks": 9,
          "midi": 47,
          "name": "B2",
          "ticks": 44599,
          "time": 185.82916666666668,
          "velocity": 0.2047244094488189
        },
        {
          "duration": 0.09999999999999432,
          "durationTicks": 24,
          "midi": 31,
          "name": "G1",
          "ticks": 45016,
          "time": 187.56666666666666,
          "velocity": 0.28346456692913385
        },
        {
          "duration": 0.09999999999999432,
          "durationTicks": 24,
          "midi": 31,
          "name": "G1",
          "ticks": 46703,
          "time": 194.59583333333333,
          "velocity": 0.2677165354330709
        },
        {
          "duration": 0.041666666666685614,
          "durationTicks": 10,
          "midi": 84,
          "name": "C6",
          "ticks": 47020,
          "time": 195.91666666666666,
          "velocity": 0.2047244094488189
        },
        {
          "duration": 0.08749999999997726,
          "durationTicks": 21,
          "midi": 50,
          "name": "D3",
          "ticks": 47390,
          "time": 197.45833333333334,
          "velocity": 0.1968503937007874
        },
        {
          "duration": 0.07083333333332575,
          "durationTicks": 17,
          "midi": 34,
          "name": "A#1",
          "ticks": 51194,
          "time": 213.30833333333334,
          "velocity": 0.2047244094488189
        },
        {
          "duration": 0.0625,
          "durationTicks": 15,
          "midi": 91,
          "name": "G6",
          "ticks": 52972,
          "time": 220.71666666666667,
          "velocity": 0.2755905511811024
        }
      ],
      "endOfTrackTicks": 52987
    }
  ]
}