{
  "tracks": [
    {
      "instrument": {
        "name": "vocal"
      },
      "notes": [
        {
          "midi": 57,
          "time": 2.451,
          "duration": 0.488,
          "velocity": 0.483,
          "name": ""
        },
        {
          "midi": 69,
          "time": 2.66,
          "duration": 0.174,
          "velocity": 0.41,
          "name": ""
        },
        {
          "midi": 81,
          "time": 2.927,
          "duration": 0.116,
          "velocity": 0.288,
          "name": ""
        },
        {
          "midi": 57,
          "time": 2.939,
          "duration": 0.186,
          "velocity": 0.546,
          "name": ""
        },
        {
          "midi": 59,
          "time": 3.159,
          "duration": 0.232,
          "velocity": 0.509,
          "name": ""
        },
        {
          "midi": 78,
          "time": 3.171,
          "duration": 0.058,
          "velocity": 0.302,
          "name": ""
        },
        {
          "midi": 74,
          "time": 3.438,
          "duration": 0.139,
          "velocity": 0.379,
          "name": ""
        },
        {
          "midi": 62,
          "time": 3.449,
          "duration": 0.499,
          "velocity": 0.432,
          "name": ""
        },
        {
          "midi": 59,
          "time": 3.74,
          "duration": 0.151,
          "velocity": 0.436,
          "name": ""
        },
        {
          "midi": 74,
          "time": 3.949,
          "duration": 0.187,
          "velocity": 0.35,
          "name": ""
        },
        {
          "midi": 62,
          "time": 3.949,
          "duration": 0.222,
          "velocity": 0.545,
          "name": ""
        },
        {
          "midi": 64,
          "time": 4.217,
          "duration": 0.244,
          "velocity": 0.5,
          "name": ""
        },
        {
          "midi": 64,
          "time": 4.461,
          "duration": 0.29,
          "velocity": 0.435,
          "name": ""
        },
        {
          "midi": 92,
          "time": 4.739,
          "duration": 0.232,
          "velocity": 0.283,
          "name": ""
        },
        {
          "midi": 64,
          "time": 4.751,
          "duration": 0.418,
          "velocity": 0.663,
          "name": ""
        },
        {
          "midi": 74,
          "time": 5.227,
          "duration": 0.174,
          "velocity": 0.339,
          "name": ""
        },
        {
          "midi": 62,
          "time": 5.227,
          "duration": 0.163,
          "velocity": 0.512,
          "name": ""
        },
        {
          "midi": 62,
          "time": 5.529,
          "duration": 0.081,
          "velocity": 0.406,
          "name": ""
        },
        {
          "midi": 64,
          "time": 5.575,
          "duration": 0.139,
          "velocity": 0.314,
          "name": ""
        },
        {
          "midi": 59,
          "time": 5.726,
          "duration": 0.07,
          "velocity": 0.323,
          "name": ""
        },
        {
          "midi": 57,
          "time": 5.877,
          "duration": 0.326,
          "velocity": 0.387,
          "name": ""
        },
        {
          "midi": 57,
          "time": 6.703,
          "duration": 0.151,
          "velocity": 0.409,
          "name": ""
        },
        {
          "midi": 59,
          "time": 6.97,
          "duration": 0.522,
          "velocity": 0.698,
          "name": ""
        },
        {
          "midi": 71,
          "time": 7.295,
          "duration": 0.116,
          "velocity": 0.409,
          "name": ""
        },
        {
          "midi": 60,
          "time": 7.492,
          "duration": 0.267,
          "velocity": 0.587,
          "name": ""
        },
        {
          "midi": 60,
          "time": 7.958,
          "duration": 0.221,
          "velocity": 0.569,
          "name": ""
        },
        {
          "midi": 62,
          "time": 8.26,
          "duration": 0.197,
          "velocity": 0.701,
          "name": ""
        },
        {
          "midi": 62,
          "time": 8.457,
          "duration": 0.29,
          "velocity": 0.55,
          "name": ""
        },
        {
          "midi": 74,
          "time": 8.736,
          "duration": 0.128,
          "velocity": 0.367,
          "name": ""
        },
        {
          "midi": 62,
          "time": 8.747,
          "duration": 0.372,
          "velocity": 0.611,
          "name": ""
        },
        {
          "midi": 57,
          "time": 9.258,
          "duration": 0.139,
          "velocity": 0.563,
          "name": ""
        },
        {
          "midi": 59,
          "time": 9.444,
          "duration": 0.209,
          "velocity": 0.576,
          "name": ""
        },
        {
          "midi": 57,
          "time": 9.665,
          "duration": 0.151,
          "velocity": 0.347,
          "name": ""
        },
        {
          "midi": 55,
          "time": 9.968,
          "duration": 1.068,
          "velocity": 0.53,
          "name": ""
        },
        {
          "midi": 74,
          "time": 11.954,
          "duration": 0.232,
          "velocity": 0.456,
          "name": ""
        },
        {
          "midi": 62,
          "time": 11.978,
          "duration": 0.244,
          "velocity": 0.605,
          "name": ""
        },
        {
          "midi": 76,
          "time": 12.221,
          "duration": 0.081,
          "velocity": 0.332,
          "name": ""
        },
        {
          "midi": 64,
          "time": 12.233,
          "duration": 0.116,
          "velocity": 0.471,
          "name": ""
        },
        {
          "midi": 62,
          "time": 12.442,
          "duration": 0.116,
          "velocity": 0.52,
          "name": ""
        },
        {
          "midi": 74,
          "time": 13.707,
          "duration": 0.408,
          "velocity": 0.459,
          "name": ""
        },
        {
          "midi": 62,
          "time": 13.707,
          "duration": 0.547,
          "velocity": 0.537,
          "name": ""
        },
        {
          "midi": 86,
          "time": 13.882,
          "duration": 0.059,
          "velocity": 0.354,
          "name": ""
        },
        {
          "midi": 62,
          "time": 14.254,
          "duration": 0.151,
          "velocity": 0.549,
          "name": ""
        },
        {
          "midi": 59,
          "time": 14.394,
          "duration": 0.081,
          "velocity": 0.277,
          "name": ""
        },
        {
          "midi": 57,
          "time": 14.51,
          "duration": 0.07,
          "velocity": 0.353,
          "name": ""
        },
        {
          "midi": 57,
          "time": 14.58,
          "duration": 0.139,
          "velocity": 0.691,
          "name": ""
        },
        {
          "midi": 57,
          "time": 14.719,
          "duration": 0.151,
          "velocity": 0.659,
          "name": ""
        },
        {
          "midi": 57,
          "time": 14.87,
          "duration": 0.372,
          "velocity": 0.644,
          "name": ""
        },
        {
          "midi": 95,
          "time": 14.986,
          "duration": 0.07,
          "velocity": 0.339,
          "name": ""
        },
        {
          "midi": 57,
          "time": 15.241,
          "duration": 0.348,
          "velocity": 0.655,
          "name": ""
        },
        {
          "midi": 57,
          "time": 15.694,
          "duration": 0.257,
          "velocity": 0.594,
          "name": ""
        },
        {
          "midi": 59,
          "time": 15.951,
          "duration": 0.534,
          "velocity": 0.524,
          "name": ""
        },
        {
          "midi": 59,
          "time": 16.485,
          "duration": 1.115,
          "velocity": 0.671,
          "name": ""
        },
        {
          "midi": 54,
          "time": 18.332,
          "duration": 0.174,
          "velocity": 0.455,
          "name": ""
        },
        {
          "midi": 52,
          "time": 18.529,
          "duration": 0.302,
          "velocity": 0.502,
          "name": ""
        },
        {
          "midi": 59,
          "time": 18.994,
          "duration": 0.395,
          "velocity": 0.637,
          "name": ""
        },
        {
          "midi": 74,
          "time": 19.47,
          "duration": 0.302,
          "velocity": 0.458,
          "name": ""
        },
        {
          "midi": 62,
          "time": 19.481,
          "duration": 0.477,
          "velocity": 0.618,
          "name": ""
        },
        {
          "midi": 90,
          "time": 19.959,
          "duration": 0.058,
          "velocity": 0.279,
          "name": ""
        },
        {
          "midi": 62,
          "time": 19.959,
          "duration": 0.255,
          "velocity": 0.603,
          "name": ""
        },
        {
          "midi": 92,
          "time": 20.226,
          "duration": 0.116,
          "velocity": 0.323,
          "name": ""
        },
        {
          "midi": 83,
          "time": 20.226,
          "duration": 0.116,
          "velocity": 0.316,
          "name": ""
        },
        {
          "midi": 64,
          "time": 20.226,
          "duration": 0.232,
          "velocity": 0.601,
          "name": ""
        },
        {
          "midi": 64,
          "time": 20.458,
          "duration": 0.58,
          "velocity": 0.647,
          "name": ""
        },
        {
          "midi": 74,
          "time": 21.247,
          "duration": 0.186,
          "velocity": 0.316,
          "name": ""
        },
        {
          "midi": 62,
          "time": 21.247,
          "duration": 0.325,
          "velocity": 0.463,
          "name": ""
        },
        {
          "midi": 62,
          "time": 21.573,
          "duration": 0.104,
          "velocity": 0.439,
          "name": ""
        },
        {
          "midi": 64,
          "time": 22.027,
          "duration": 0.081,
          "velocity": 0.369,
          "name": ""
        },
        {
          "midi": 74,
          "time": 23.466,
          "duration": 0.058,
          "velocity": 0.35,
          "name": ""
        },
        {
          "midi": 62,
          "time": 23.478,
          "duration": 0.244,
          "velocity": 0.436,
          "name": ""
        },
        {
          "midi": 74,
          "time": 23.722,
          "duration": 0.257,
          "velocity": 0.37,
          "name": ""
        },
        {
          "midi": 62,
          "time": 23.722,
          "duration": 0.257,
          "velocity": 0.685,
          "name": ""
        },
        {
          "midi": 74,
          "time": 23.978,
          "duration": 0.07,
          "velocity": 0.417,
          "name": ""
        },
        {
          "midi": 62,
          "time": 23.978,
          "duration": 0.116,
          "velocity": 0.67,
          "name": ""
        },
        {
          "midi": 62,
          "time": 24.094,
          "duration": 0.395,
          "velocity": 0.643,
          "name": ""
        },
        {
          "midi": 62,
          "time": 24.489,
          "duration": 0.209,
          "velocity": 0.642,
          "name": ""
        },
        {
          "midi": 59,
          "time": 24.756,
          "duration": 0.116,
          "velocity": 0.592,
          "name": ""
        },
        {
          "midi": 57,
          "time": 24.896,
          "duration": 0.824,
          "velocity": 0.658,
          "name": ""
        },
        {
          "midi": 59,
          "time": 25.953,
          "duration": 0.441,
          "velocity": 0.437,
          "name": ""
        },
        {
          "midi": 59,
          "time": 26.522,
          "duration": 0.302,
          "velocity": 0.527,
          "name": ""
        },
        {
          "midi": 78,
          "time": 27.928,
          "duration": 0.104,
          "velocity": 0.349,
          "name": ""
        },
        {
          "midi": 66,
          "time": 27.928,
          "duration": 0.163,
          "velocity": 0.543,
          "name": ""
        },
        {
          "midi": 78,
          "time": 28.242,
          "duration": 0.104,
          "velocity": 0.384,
          "name": ""
        },
        {
          "midi": 66,
          "time": 28.242,
          "duration": 0.221,
          "velocity": 0.458,
          "name": ""
        },
        {
          "midi": 78,
          "time": 28.509,
          "duration": 0.093,
          "velocity": 0.355,
          "name": ""
        },
        {
          "midi": 64,
          "time": 28.532,
          "duration": 0.081,
          "velocity": 0.364,
          "name": ""
        },
        {
          "midi": 64,
          "time": 28.729,
          "duration": 0.104,
          "velocity": 0.322,
          "name": ""
        },
        {
          "midi": 64,
          "time": 28.962,
          "duration": 0.104,
          "velocity": 0.324,
          "name": ""
        },
        {
          "midi": 62,
          "time": 29.496,
          "duration": 0.197,
          "velocity": 0.51,
          "name": ""
        },
        {
          "midi": 74,
          "time": 29.693,
          "duration": 0.104,
          "velocity": 0.438,
          "name": ""
        },
        {
          "midi": 62,
          "time": 29.693,
          "duration": 0.117,
          "velocity": 0.485,
          "name": ""
        },
        {
          "midi": 74,
          "time": 29.985,
          "duration": 0.232,
          "velocity": 0.366,
          "name": ""
        },
        {
          "midi": 62,
          "time": 29.985,
          "duration": 0.36,
          "velocity": 0.59,
          "name": ""
        },
        {
          "midi": 59,
          "time": 30.426,
          "duration": 0.07,
          "velocity": 0.297,
          "name": ""
        },
        {
          "midi": 57,
          "time": 30.67,
          "duration": 0.07,
          "velocity": 0.643,
          "name": ""
        },
        {
          "midi": 57,
          "time": 30.739,
          "duration": 0.499,
          "velocity": 0.624,
          "name": ""
        },
        {
          "midi": 57,
          "time": 31.238,
          "duration": 0.174,
          "velocity": 0.598,
          "name": ""
        },
        {
          "midi": 59,
          "time": 31.447,
          "duration": 0.186,
          "velocity": 0.537,
          "name": ""
        },
        {
          "midi": 74,
          "time": 31.726,
          "duration": 0.233,
          "velocity": 0.374,
          "name": ""
        },
        {
          "midi": 62,
          "time": 31.738,
          "duration": 0.315,
          "velocity": 0.603,
          "name": ""
        },
        {
          "midi": 64,
          "time": 32.076,
          "duration": 1.72,
          "velocity": 0.709,
          "name": ""
        },
        {
          "midi": 76,
          "time": 32.169,
          "duration": 0.325,
          "velocity": 0.327,
          "name": ""
        },
        {
          "midi": 76,
          "time": 32.633,
          "duration": 0.116,
          "velocity": 0.362,
          "name": ""
        },
        {
          "midi": 61,
          "time": 34.527,
          "duration": 0.07,
          "velocity": 0.428,
          "name": ""
        },
        {
          "midi": 45,
          "time": 37.5,
          "duration": 0.442,
          "velocity": 0.74,
          "name": ""
        },
        {
          "midi": 45,
          "time": 37.943,
          "duration": 0.267,
          "velocity": 0.658,
          "name": ""
        },
        {
          "midi": 47,
          "time": 38.152,
          "duration": 0.07,
          "velocity": 0.566,
          "name": ""
        },
        {
          "midi": 47,
          "time": 38.233,
          "duration": 0.151,
          "velocity": 0.791,
          "name": ""
        },
        {
          "midi": 47,
          "time": 38.384,
          "duration": 0.267,
          "velocity": 0.71,
          "name": ""
        },
        {
          "midi": 45,
          "time": 38.628,
          "duration": 0.128,
          "velocity": 0.451,
          "name": ""
        },
        {
          "midi": 45,
          "time": 39.092,
          "duration": 0.139,
          "velocity": 0.595,
          "name": ""
        },
        {
          "midi": 47,
          "time": 39.243,
          "duration": 0.139,
          "velocity": 0.42,
          "name": ""
        },
        {
          "midi": 47,
          "time": 40.15,
          "duration": 0.163,
          "velocity": 0.585,
          "name": ""
        },
        {
          "midi": 52,
          "time": 40.417,
          "duration": 0.348,
          "velocity": 0.548,
          "name": ""
        },
        {
          "midi": 52,
          "time": 40.765,
          "duration": 0.313,
          "velocity": 0.73,
          "name": ""
        },
        {
          "midi": 54,
          "time": 41.055,
          "duration": 0.279,
          "velocity": 0.627,
          "name": ""
        },
        {
          "midi": 54,
          "time": 41.823,
          "duration": 0.186,
          "velocity": 0.698,
          "name": ""
        },
        {
          "midi": 50,
          "time": 42.078,
          "duration": 0.197,
          "velocity": 0.699,
          "name": ""
        },
        {
          "midi": 47,
          "time": 42.276,
          "duration": 0.221,
          "velocity": 0.474,
          "name": ""
        },
        {
          "midi": 47,
          "time": 42.496,
          "duration": 0.174,
          "velocity": 0.544,
          "name": ""
        },
        {
          "midi": 50,
          "time": 42.961,
          "duration": 0.337,
          "velocity": 0.678,
          "name": ""
        },
        {
          "midi": 50,
          "time": 44.413,
          "duration": 0.267,
          "velocity": 0.717,
          "name": ""
        },
        {
          "midi": 52,
          "time": 44.657,
          "duration": 0.151,
          "velocity": 0.49,
          "name": ""
        },
        {
          "midi": 52,
          "time": 44.808,
          "duration": 0.464,
          "velocity": 0.618,
          "name": ""
        },
        {
          "midi": 52,
          "time": 45.272,
          "duration": 0.209,
          "velocity": 0.71,
          "name": ""
        },
        {
          "midi": 50,
          "time": 45.458,
          "duration": 0.209,
          "velocity": 0.802,
          "name": ""
        },
        {
          "midi": 50,
          "time": 45.667,
          "duration": 0.257,
          "velocity": 0.692,
          "name": ""
        },
        {
          "midi": 50,
          "time": 45.924,
          "duration": 0.244,
          "velocity": 0.704,
          "name": ""
        },
        {
          "midi": 52,
          "time": 46.133,
          "duration": 0.058,
          "velocity": 0.653,
          "name": ""
        },
        {
          "midi": 52,
          "time": 46.191,
          "duration": 0.058,
          "velocity": 0.768,
          "name": ""
        },
        {
          "midi": 52,
          "time": 46.249,
          "duration": 0.279,
          "velocity": 0.697,
          "name": ""
        },
        {
          "midi": 50,
          "time": 46.992,
          "duration": 0.244,
          "velocity": 0.63,
          "name": ""
        },
        {
          "midi": 50,
          "time": 47.236,
          "duration": 0.232,
          "velocity": 0.72,
          "name": ""
        },
        {
          "midi": 52,
          "time": 47.456,
          "duration": 0.222,
          "velocity": 0.663,
          "name": ""
        },
        {
          "midi": 45,
          "time": 47.759,
          "duration": 0.058,
          "velocity": 0.348,
          "name": ""
        },
        {
          "midi": 45,
          "time": 47.817,
          "duration": 0.07,
          "velocity": 0.702,
          "name": ""
        },
        {
          "midi": 45,
          "time": 47.887,
          "duration": 0.139,
          "velocity": 0.641,
          "name": ""
        },
        {
          "midi": 47,
          "time": 48.026,
          "duration": 0.197,
          "velocity": 0.632,
          "name": ""
        },
        {
          "midi": 45,
          "time": 48.189,
          "duration": 0.07,
          "velocity": 0.266,
          "name": ""
        },
        {
          "midi": 45,
          "time": 48.259,
          "duration": 0.232,
          "velocity": 0.617,
          "name": ""
        },
        {
          "midi": 43,
          "time": 48.468,
          "duration": 0.221,
          "velocity": 0.582,
          "name": ""
        },
        {
          "midi": 43,
          "time": 48.688,
          "duration": 0.406,
          "velocity": 0.69,
          "name": ""
        },
        {
          "midi": 45,
          "time": 49.176,
          "duration": 0.186,
          "velocity": 0.73,
          "name": ""
        },
        {
          "midi": 45,
          "time": 49.362,
          "duration": 0.255,
          "velocity": 0.7,
          "name": ""
        },
        {
          "midi": 47,
          "time": 49.64,
          "duration": 0.083,
          "velocity": 0.365,
          "name": ""
        },
        {
          "midi": 45,
          "time": 51.244,
          "duration": 0.116,
          "velocity": 0.556,
          "name": ""
        },
        {
          "midi": 45,
          "time": 51.36,
          "duration": 0.116,
          "velocity": 0.526,
          "name": ""
        },
        {
          "midi": 47,
          "time": 51.406,
          "duration": 0.104,
          "velocity": 0.36,
          "name": ""
        },
        {
          "midi": 47,
          "time": 51.511,
          "duration": 0.164,
          "velocity": 0.768,
          "name": ""
        },
        {
          "midi": 47,
          "time": 51.675,
          "duration": 0.464,
          "velocity": 0.737,
          "name": ""
        },
        {
          "midi": 47,
          "time": 52.139,
          "duration": 0.081,
          "velocity": 0.779,
          "name": ""
        },
        {
          "midi": 47,
          "time": 52.22,
          "duration": 0.174,
          "velocity": 0.625,
          "name": ""
        },
        {
          "midi": 45,
          "time": 52.36,
          "duration": 0.186,
          "velocity": 0.609,
          "name": ""
        },
        {
          "midi": 45,
          "time": 52.545,
          "duration": 0.186,
          "velocity": 0.532,
          "name": ""
        },
        {
          "midi": 47,
          "time": 52.847,
          "duration": 0.058,
          "velocity": 0.44,
          "name": ""
        },
        {
          "midi": 47,
          "time": 52.905,
          "duration": 0.197,
          "velocity": 0.584,
          "name": ""
        },
        {
          "midi": 47,
          "time": 53.789,
          "duration": 0.058,
          "velocity": 0.712,
          "name": ""
        },
        {
          "midi": 47,
          "time": 53.847,
          "duration": 0.209,
          "velocity": 0.705,
          "name": ""
        },
        {
          "midi": 47,
          "time": 54.056,
          "duration": 0.151,
          "velocity": 0.573,
          "name": ""
        },
        {
          "midi": 52,
          "time": 54.242,
          "duration": 0.209,
          "velocity": 0.513,
          "name": ""
        },
        {
          "midi": 52,
          "time": 54.451,
          "duration": 0.325,
          "velocity": 0.696,
          "name": ""
        },
        {
          "midi": 54,
          "time": 54.752,
          "duration": 0.244,
          "velocity": 0.601,
          "name": ""
        },
        {
          "midi": 54,
          "time": 55.507,
          "duration": 0.21,
          "velocity": 0.719,
          "name": ""
        },
        {
          "midi": 50,
          "time": 55.799,
          "duration": 0.197,
          "velocity": 0.703,
          "name": ""
        },
        {
          "midi": 47,
          "time": 55.973,
          "duration": 0.221,
          "velocity": 0.481,
          "name": ""
        },
        {
          "midi": 47,
          "time": 56.193,
          "duration": 0.325,
          "velocity": 0.662,
          "name": ""
        },
        {
          "midi": 50,
          "time": 56.611,
          "duration": 0.546,
          "velocity": 0.624,
          "name": ""
        },
        {
          "midi": 79,
          "time": 58.157,
          "duration": 0.128,
          "velocity": 0.368,
          "name": ""
        },
        {
          "midi": 55,
          "time": 58.157,
          "duration": 0.546,
          "velocity": 0.741,
          "name": ""
        },
        {
          "midi": 52,
          "time": 58.714,
          "duration": 0.07,
          "velocity": 0.267,
          "name": ""
        },
        {
          "midi": 52,
          "time": 58.784,
          "duration": 0.313,
          "velocity": 0.577,
          "name": ""
        },
        {
          "midi": 55,
          "time": 59.028,
          "duration": 0.058,
          "velocity": 0.335,
          "name": ""
        },
        {
          "midi": 55,
          "time": 59.411,
          "duration": 0.315,
          "velocity": 0.731,
          "name": ""
        },
        {
          "midi": 52,
          "time": 59.853,
          "duration": 0.255,
          "velocity": 0.735,
          "name": ""
        },
        {
          "midi": 54,
          "time": 60.109,
          "duration": 0.232,
          "velocity": 0.688,
          "name": ""
        },
        {
          "midi": 50,
          "time": 60.701,
          "duration": 0.43,
          "velocity": 0.727,
          "name": ""
        },
        {
          "midi": 47,
          "time": 61.246,
          "duration": 0.07,
          "velocity": 0.424,
          "name": ""
        },
        {
          "midi": 47,
          "time": 61.316,
          "duration": 0.197,
          "velocity": 0.618,
          "name": ""
        },
        {
          "midi": 45,
          "time": 61.455,
          "duration": 0.058,
          "velocity": 0.355,
          "name": ""
        },
        {
          "midi": 45,
          "time": 61.513,
          "duration": 0.07,
          "velocity": 0.654,
          "name": ""
        },
        {
          "midi": 45,
          "time": 61.583,
          "duration": 0.21,
          "velocity": 0.708,
          "name": ""
        },
        {
          "midi": 47,
          "time": 61.805,
          "duration": 0.325,
          "velocity": 0.632,
          "name": ""
        },
        {
          "midi": 50,
          "time": 62.142,
          "duration": 0.267,
          "velocity": 0.69,
          "name": ""
        },
        {
          "midi": 52,
          "time": 62.42,
          "duration": 0.058,
          "velocity": 0.569,
          "name": ""
        },
        {
          "midi": 52,
          "time": 62.478,
          "duration": 0.987,
          "velocity": 0.591,
          "name": ""
        },
        {
          "midi": 40,
          "time": 62.594,
          "duration": 0.848,
          "velocity": 0.348,
          "name": ""
        },
        {
          "midi": 45,
          "time": 64.976,
          "duration": 0.186,
          "velocity": 0.518,
          "name": ""
        },
        {
          "midi": 47,
          "time": 65.161,
          "duration": 0.093,
          "velocity": 0.417,
          "name": ""
        },
        {
          "midi": 47,
          "time": 65.394,
          "duration": 0.058,
          "velocity": 0.514,
          "name": ""
        },
        {
          "midi": 47,
          "time": 65.463,
          "duration": 0.373,
          "velocity": 0.592,
          "name": ""
        },
        {
          "midi": 47,
          "time": 65.836,
          "duration": 0.325,
          "velocity": 0.69,
          "name": ""
        },
        {
          "midi": 45,
          "time": 66.231,
          "duration": 0.081,
          "velocity": 0.339,
          "name": ""
        },
        {
          "midi": 45,
          "time": 66.428,
          "duration": 0.07,
          "velocity": 0.43,
          "name": ""
        },
        {
          "midi": 45,
          "time": 66.498,
          "duration": 0.221,
          "velocity": 0.649,
          "name": ""
        },
        {
          "midi": 47,
          "time": 66.742,
          "duration": 0.116,
          "velocity": 0.394,
          "name": ""
        },
        {
          "midi": 45,
          "time": 67.113,
          "duration": 0.232,
          "velocity": 0.599,
          "name": ""
        },
        {
          "midi": 47,
          "time": 67.544,
          "duration": 0.128,
          "velocity": 0.295,
          "name": ""
        },
        {
          "midi": 47,
          "time": 67.672,
          "duration": 0.267,
          "velocity": 0.705,
          "name": ""
        },
        {
          "midi": 47,
          "time": 67.939,
          "duration": 0.128,
          "velocity": 0.608,
          "name": ""
        },
        {
          "midi": 52,
          "time": 68.067,
          "duration": 0.163,
          "velocity": 0.626,
          "name": ""
        },
        {
          "midi": 52,
          "time": 68.392,
          "duration": 0.186,
          "velocity": 0.722,
          "name": ""
        },
        {
          "midi": 54,
          "time": 68.589,
          "duration": 0.209,
          "velocity": 0.725,
          "name": ""
        },
        {
          "midi": 54,
          "time": 68.798,
          "duration": 0.279,
          "velocity": 0.596,
          "name": ""
        },
        {
          "midi": 54,
          "time": 69.181,
          "duration": 0.07,
          "velocity": 0.516,
          "name": ""
        },
        {
          "midi": 54,
          "time": 69.251,
          "duration": 0.197,
          "velocity": 0.758,
          "name": ""
        },
        {
          "midi": 50,
          "time": 69.542,
          "duration": 0.221,
          "velocity": 0.665,
          "name": ""
        },
        {
          "midi": 47,
          "time": 70.053,
          "duration": 0.255,
          "velocity": 0.429,
          "name": ""
        },
        {
          "midi": 50,
          "time": 70.401,
          "duration": 0.488,
          "velocity": 0.524,
          "name": ""
        },
        {
          "midi": 54,
          "time": 70.587,
          "duration": 0.209,
          "velocity": 0.346,
          "name": ""
        },
        {
          "midi": 50,
          "time": 71.68,
          "duration": 0.093,
          "velocity": 0.43,
          "name": ""
        },
        {
          "midi": 50,
          "time": 71.773,
          "duration": 0.29,
          "velocity": 0.72,
          "name": ""
        },
        {
          "midi": 52,
          "time": 72.249,
          "duration": 0.418,
          "velocity": 0.767,
          "name": ""
        },
        {
          "midi": 52,
          "time": 72.667,
          "duration": 0.29,
          "velocity": 0.688,
          "name": ""
        },
        {
          "midi": 50,
          "time": 72.91,
          "duration": 0.104,
          "velocity": 0.722,
          "name": ""
        },
        {
          "midi": 50,
          "time": 73.015,
          "duration": 0.128,
          "velocity": 0.584,
          "name": ""
        },
        {
          "midi": 50,
          "time": 73.363,
          "duration": 0.21,
          "velocity": 0.598,
          "name": ""
        },
        {
          "midi": 52,
          "time": 73.55,
          "duration": 0.348,
          "velocity": 0.584,
          "name": ""
        },
        {
          "midi": 50,
          "time": 74.398,
          "duration": 0.232,
          "velocity": 0.653,
          "name": ""
        },
        {
          "midi": 52,
          "time": 74.63,
          "duration": 0.197,
          "velocity": 0.628,
          "name": ""
        },
        {
          "midi": 50,
          "time": 74.827,
          "duration": 0.197,
          "velocity": 0.668,
          "name": ""
        },
        {
          "midi": 47,
          "time": 75.083,
          "duration": 0.197,
          "velocity": 0.679,
          "name": ""
        },
        {
          "midi": 47,
          "time": 75.28,
          "duration": 0.315,
          "velocity": 0.688,
          "name": ""
        },
        {
          "midi": 45,
          "time": 75.711,
          "duration": 0.174,
          "velocity": 0.724,
          "name": ""
        },
        {
          "midi": 44,
          "time": 75.885,
          "duration": 0.104,
          "velocity": 0.316,
          "name": ""
        },
        {
          "midi": 55,
          "time": 75.943,
          "duration": 0.07,
          "velocity": 0.303,
          "name": ""
        },
        {
          "midi": 43,
          "time": 76.141,
          "duration": 0.116,
          "velocity": 0.387,
          "name": ""
        },
        {
          "midi": 43,
          "time": 76.361,
          "duration": 0.139,
          "velocity": 0.405,
          "name": ""
        },
        {
          "midi": 45,
          "time": 76.524,
          "duration": 0.255,
          "velocity": 0.405,
          "name": ""
        },
        {
          "midi": 45,
          "time": 76.791,
          "duration": 0.302,
          "velocity": 0.531,
          "name": ""
        },
        {
          "midi": 47,
          "time": 78.638,
          "duration": 0.476,
          "velocity": 0.554,
          "name": ""
        },
        {
          "midi": 47,
          "time": 79.114,
          "duration": 0.675,
          "velocity": 0.699,
          "name": ""
        },
        {
          "midi": 45,
          "time": 79.812,
          "duration": 0.139,
          "velocity": 0.395,
          "name": ""
        },
        {
          "midi": 45,
          "time": 79.951,
          "duration": 0.244,
          "velocity": 0.709,
          "name": ""
        },
        {
          "midi": 45,
          "time": 80.195,
          "duration": 0.128,
          "velocity": 0.554,
          "name": ""
        },
        {
          "midi": 47,
          "time": 80.416,
          "duration": 0.197,
          "velocity": 0.384,
          "name": ""
        },
        {
          "midi": 45,
          "time": 80.752,
          "duration": 0.058,
          "velocity": 0.431,
          "name": ""
        },
        {
          "midi": 45,
          "time": 80.81,
          "duration": 0.43,
          "velocity": 0.709,
          "name": ""
        },
        {
          "midi": 45,
          "time": 81.24,
          "duration": 0.116,
          "velocity": 0.557,
          "name": ""
        },
        {
          "midi": 48,
          "time": 81.414,
          "duration": 0.059,
          "velocity": 0.341,
          "name": ""
        },
        {
          "midi": 47,
          "time": 81.473,
          "duration": 0.163,
          "velocity": 0.595,
          "name": ""
        },
        {
          "midi": 47,
          "time": 81.636,
          "duration": 0.151,
          "velocity": 0.566,
          "name": ""
        },
        {
          "midi": 52,
          "time": 81.787,
          "duration": 0.279,
          "velocity": 0.346,
          "name": ""
        },
        {
          "midi": 52,
          "time": 82.077,
          "duration": 0.221,
          "velocity": 0.719,
          "name": ""
        },
        {
          "midi": 54,
          "time": 82.356,
          "duration": 0.174,
          "velocity": 0.788,
          "name": ""
        },
        {
          "midi": 54,
          "time": 82.53,
          "duration": 0.372,
          "velocity": 0.683,
          "name": ""
        },
        {
          "midi": 50,
          "time": 83.11,
          "duration": 0.116,
          "velocity": 0.672,
          "name": ""
        },
        {
          "midi": 50,
          "time": 83.227,
          "duration": 0.209,
          "velocity": 0.663,
          "name": ""
        },
        {
          "midi": 47,
          "time": 83.435,
          "duration": 0.222,
          "velocity": 0.574,
          "name": ""
        },
        {
          "midi": 54,
          "time": 83.437,
          "duration": 0.267,
          "velocity": 0.519,
          "name": ""
        },
        {
          "midi": 47,
          "time": 83.657,
          "duration": 0.302,
          "velocity": 0.635,
          "name": ""
        },
        {
          "midi": 50,
          "time": 84.099,
          "duration": 0.058,
          "velocity": 0.651,
          "name": ""
        },
        {
          "midi": 50,
          "time": 84.157,
          "duration": 0.267,
          "velocity": 0.773,
          "name": ""
        },
        {
          "midi": 50,
          "time": 84.424,
          "duration": 0.313,
          "velocity": 0.592,
          "name": ""
        },
        {
          "midi": 54,
          "time": 85.516,
          "duration": 0.267,
          "velocity": 0.726,
          "name": ""
        },
        {
          "midi": 55,
          "time": 85.841,
          "duration": 0.302,
          "velocity": 0.7,
          "name": ""
        },
        {
          "midi": 52,
          "time": 86.166,
          "duration": 0.476,
          "velocity": 0.61,
          "name": ""
        },
        {
          "midi": 54,
          "time": 87.037,
          "duration": 0.116,
          "velocity": 0.491,
          "name": ""
        },
        {
          "midi": 52,
          "time": 87.235,
          "duration": 0.35,
          "velocity": 0.748,
          "name": ""
        },
        {
          "midi": 54,
          "time": 87.538,
          "duration": 0.116,
          "velocity": 0.709,
          "name": ""
        },
        {
          "midi": 54,
          "time": 87.654,
          "duration": 0.151,
          "velocity": 0.66,
          "name": ""
        },
        {
          "midi": 50,
          "time": 87.863,
          "duration": 0.232,
          "velocity": 0.611,
          "name": ""
        },
        {
          "midi": 47,
          "time": 88.583,
          "duration": 0.139,
          "velocity": 0.565,
          "name": ""
        },
        {
          "midi": 45,
          "time": 88.722,
          "duration": 0.244,
          "velocity": 0.643,
          "name": ""
        },
        {
          "midi": 45,
          "time": 88.966,
          "duration": 0.244,
          "velocity": 0.663,
          "name": ""
        },
        {
          "midi": 47,
          "time": 89.198,
          "duration": 0.257,
          "velocity": 0.685,
          "name": ""
        },
        {
          "midi": 50,
          "time": 89.582,
          "duration": 0.255,
          "velocity": 0.666,
          "name": ""
        },
        {
          "midi": 52,
          "time": 89.768,
          "duration": 0.058,
          "velocity": 0.533,
          "name": ""
        },
        {
          "midi": 52,
          "time": 89.826,
          "duration": 1.126,
          "velocity": 0.686,
          "name": ""
        },
        {
          "midi": 59,
          "time": 91.43,
          "duration": 0.186,
          "velocity": 0.783,
          "name": ""
        },
        {
          "midi": 59,
          "time": 91.615,
          "duration": 0.267,
          "velocity": 0.679,
          "name": ""
        },
        {
          "midi": 71,
          "time": 91.627,
          "duration": 0.174,
          "velocity": 0.441,
          "name": ""
        },
        {
          "midi": 62,
          "time": 91.964,
          "duration": 0.29,
          "velocity": 0.743,
          "name": ""
        },
        {
          "midi": 62,
          "time": 92.254,
          "duration": 0.139,
          "velocity": 0.691,
          "name": ""
        },
        {
          "midi": 66,
          "time": 92.405,
          "duration": 0.209,
          "velocity": 0.566,
          "name": ""
        },
        {
          "midi": 85,
          "time": 92.44,
          "duration": 0.093,
          "velocity": 0.379,
          "name": ""
        },
        {
          "midi": 67,
          "time": 92.614,
          "duration": 0.058,
          "velocity": 0.51,
          "name": ""
        },
        {
          "midi": 67,
          "time": 92.683,
          "duration": 0.139,
          "velocity": 0.482,
          "name": ""
        },
        {
          "midi": 66,
          "time": 92.846,
          "duration": 0.186,
          "velocity": 0.681,
          "name": ""
        },
        {
          "midi": 64,
          "time": 93.043,
          "duration": 0.221,
          "velocity": 0.618,
          "name": ""
        },
        {
          "midi": 64,
          "time": 93.264,
          "duration": 0.199,
          "velocity": 0.636,
          "name": ""
        },
        {
          "midi": 62,
          "time": 93.486,
          "duration": 0.232,
          "velocity": 0.839,
          "name": ""
        },
        {
          "midi": 62,
          "time": 93.718,
          "duration": 0.163,
          "velocity": 0.698,
          "name": ""
        },
        {
          "midi": 59,
          "time": 93.881,
          "duration": 0.255,
          "velocity": 0.575,
          "name": ""
        },
        {
          "midi": 59,
          "time": 94.136,
          "duration": 0.116,
          "velocity": 0.507,
          "name": ""
        },
        {
          "midi": 59,
          "time": 94.252,
          "duration": 0.708,
          "velocity": 0.727,
          "name": ""
        },
        {
          "midi": 71,
          "time": 94.612,
          "duration": 0.128,
          "velocity": 0.359,
          "name": ""
        },
        {
          "midi": 71,
          "time": 94.96,
          "duration": 0.383,
          "velocity": 0.533,
          "name": ""
        },
        {
          "midi": 59,
          "time": 94.96,
          "duration": 0.396,
          "velocity": 0.64,
          "name": ""
        },
        {
          "midi": 62,
          "time": 95.343,
          "duration": 0.303,
          "velocity": 0.705,
          "name": ""
        },
        {
          "midi": 62,
          "time": 95.647,
          "duration": 0.244,
          "velocity": 0.758,
          "name": ""
        },
        {
          "midi": 62,
          "time": 95.89,
          "duration": 0.209,
          "velocity": 0.792,
          "name": ""
        },
        {
          "midi": 62,
          "time": 96.099,
          "duration": 0.65,
          "velocity": 0.74,
          "name": ""
        },
        {
          "midi": 71,
          "time": 96.703,
          "duration": 0.221,
          "velocity": 0.481,
          "name": ""
        },
        {
          "midi": 59,
          "time": 96.831,
          "duration": 0.151,
          "velocity": 0.421,
          "name": ""
        },
        {
          "midi": 62,
          "time": 97.121,
          "duration": 0.209,
          "velocity": 0.409,
          "name": ""
        },
        {
          "midi": 62,
          "time": 97.505,
          "duration": 0.464,
          "velocity": 0.508,
          "name": ""
        },
        {
          "midi": 57,
          "time": 98.144,
          "duration": 0.104,
          "velocity": 0.471,
          "name": ""
        },
        {
          "midi": 59,
          "time": 98.365,
          "duration": 0.116,
          "velocity": 0.386,
          "name": ""
        },
        {
          "midi": 59,
          "time": 98.481,
          "duration": 0.221,
          "velocity": 0.657,
          "name": ""
        },
        {
          "midi": 74,
          "time": 98.794,
          "duration": 0.151,
          "velocity": 0.362,
          "name": ""
        },
        {
          "midi": 62,
          "time": 98.794,
          "duration": 0.43,
          "velocity": 0.704,
          "name": ""
        },
        {
          "midi": 62,
          "time": 99.224,
          "duration": 0.361,
          "velocity": 0.559,
          "name": ""
        },
        {
          "midi": 74,
          "time": 99.247,
          "duration": 0.117,
          "velocity": 0.308,
          "name": ""
        },
        {
          "midi": 90,
          "time": 99.282,
          "duration": 0.048,
          "velocity": 0.324,
          "name": ""
        },
        {
          "midi": 64,
          "time": 99.492,
          "duration": 0.174,
          "velocity": 0.248,
          "name": ""
        },
        {
          "midi": 64,
          "time": 99.678,
          "duration": 0.07,
          "velocity": 0.421,
          "name": ""
        },
        {
          "midi": 62,
          "time": 99.771,
          "duration": 0.337,
          "velocity": 0.592,
          "name": ""
        },
        {
          "midi": 62,
          "time": 100.107,
          "duration": 0.534,
          "velocity": 0.491,
          "name": ""
        },
        {
          "midi": 74,
          "time": 100.119,
          "duration": 0.07,
          "velocity": 0.306,
          "name": ""
        },
        {
          "midi": 64,
          "time": 100.316,
          "duration": 0.116,
          "velocity": 0.415,
          "name": ""
        },
        {
          "midi": 64,
          "time": 100.432,
          "duration": 0.116,
          "velocity": 0.468,
          "name": ""
        },
        {
          "midi": 64,
          "time": 100.549,
          "duration": 0.07,
          "velocity": 0.394,
          "name": ""
        },
        {
          "midi": 62,
          "time": 100.641,
          "duration": 0.255,
          "velocity": 0.68,
          "name": ""
        },
        {
          "midi": 55,
          "time": 100.932,
          "duration": 0.163,
          "velocity": 0.376,
          "name": ""
        },
        {
          "midi": 57,
          "time": 101.013,
          "duration": 0.093,
          "velocity": 0.577,
          "name": ""
        },
        {
          "midi": 55,
          "time": 101.094,
          "duration": 0.64,
          "velocity": 0.613,
          "name": ""
        },
        {
          "midi": 67,
          "time": 101.734,
          "duration": 0.07,
          "velocity": 0.208,
          "name": ""
        },
        {
          "midi": 55,
          "time": 101.734,
          "duration": 0.07,
          "velocity": 0.782,
          "name": ""
        },
        {
          "midi": 67,
          "time": 101.804,
          "duration": 0.07,
          "velocity": 0.352,
          "name": ""
        },
        {
          "midi": 55,
          "time": 101.804,
          "duration": 0.221,
          "velocity": 0.703,
          "name": ""
        },
        {
          "midi": 57,
          "time": 102.129,
          "duration": 0.116,
          "velocity": 0.767,
          "name": ""
        },
        {
          "midi": 57,
          "time": 102.245,
          "duration": 0.244,
          "velocity": 0.737,
          "name": ""
        },
        {
          "midi": 57,
          "time": 102.489,
          "duration": 0.209,
          "velocity": 0.696,
          "name": ""
        },
        {
          "midi": 59,
          "time": 102.756,
          "duration": 0.232,
          "velocity": 0.688,
          "name": ""
        },
        {
          "midi": 59,
          "time": 102.988,
          "duration": 0.116,
          "velocity": 0.8,
          "name": ""
        },
        {
          "midi": 59,
          "time": 103.104,
          "duration": 0.104,
          "velocity": 0.76,
          "name": ""
        },
        {
          "midi": 59,
          "time": 103.209,
          "duration": 0.175,
          "velocity": 0.784,
          "name": ""
        },
        {
          "midi": 59,
          "time": 103.384,
          "duration": 0.615,
          "velocity": 0.816,
          "name": ""
        },
        {
          "midi": 59,
          "time": 103.999,
          "duration": 0.592,
          "velocity": 0.597,
          "name": ""
        },
        {
          "midi": 57,
          "time": 104.812,
          "duration": 0.197,
          "velocity": 0.565,
          "name": ""
        },
        {
          "midi": 57,
          "time": 105.009,
          "duration": 0.221,
          "velocity": 0.669,
          "name": ""
        },
        {
          "midi": 57,
          "time": 105.23,
          "duration": 0.152,
          "velocity": 0.51,
          "name": ""
        },
        {
          "midi": 59,
          "time": 105.405,
          "duration": 0.209,
          "velocity": 0.642,
          "name": ""
        },
        {
          "midi": 74,
          "time": 105.649,
          "duration": 0.174,
          "velocity": 0.355,
          "name": ""
        },
        {
          "midi": 62,
          "time": 105.661,
          "duration": 0.29,
          "velocity": 0.604,
          "name": ""
        },
        {
          "midi": 81,
          "time": 105.73,
          "duration": 0.07,
          "velocity": 0.372,
          "name": ""
        },
        {
          "midi": 66,
          "time": 105.997,
          "duration": 0.093,
          "velocity": 0.612,
          "name": ""
        },
        {
          "midi": 78,
          "time": 106.09,
          "duration": 0.139,
          "velocity": 0.373,
          "name": ""
        },
        {
          "midi": 74,
          "time": 106.09,
          "duration": 0.081,
          "velocity": 0.377,
          "name": ""
        },
        {
          "midi": 66,
          "time": 106.09,
          "duration": 0.163,
          "velocity": 0.69,
          "name": ""
        },
        {
          "midi": 79,
          "time": 106.253,
          "duration": 0.174,
          "velocity": 0.419,
          "name": ""
        },
        {
          "midi": 67,
          "time": 106.253,
          "duration": 0.279,
          "velocity": 0.666,
          "name": ""
        },
        {
          "midi": 62,
          "time": 106.288,
          "duration": 0.151,
          "velocity": 0.419,
          "name": ""
        },
        {
          "midi": 67,
          "time": 106.532,
          "duration": 0.093,
          "velocity": 0.713,
          "name": ""
        },
        {
          "midi": 66,
          "time": 106.624,
          "duration": 0.163,
          "velocity": 0.647,
          "name": ""
        },
        {
          "midi": 83,
          "time": 106.775,
          "duration": 0.128,
          "velocity": 0.429,
          "name": ""
        },
        {
          "midi": 64,
          "time": 106.775,
          "duration": 0.232,
          "velocity": 0.565,
          "name": ""
        },
        {
          "midi": 76,
          "time": 106.996,
          "duration": 0.093,
          "velocity": 0.402,
          "name": ""
        },
        {
          "midi": 64,
          "time": 107.008,
          "duration": 0.501,
          "velocity": 0.599,
          "name": ""
        },
        {
          "midi": 62,
          "time": 108.263,
          "duration": 0.186,
          "velocity": 0.619,
          "name": ""
        },
        {
          "midi": 90,
          "time": 108.321,
          "duration": 0.081,
          "velocity": 0.443,
          "name": ""
        },
        {
          "midi": 64,
          "time": 108.437,
          "duration": 0.221,
          "velocity": 0.516,
          "name": ""
        },
        {
          "midi": 64,
          "time": 108.657,
          "duration": 0.464,
          "velocity": 0.677,
          "name": ""
        },
        {
          "midi": 64,
          "time": 109.122,
          "duration": 0.419,
          "velocity": 0.704,
          "name": ""
        },
        {
          "midi": 64,
          "time": 109.541,
          "duration": 0.163,
          "velocity": 0.632,
          "name": ""
        },
        {
          "midi": 66,
          "time": 109.704,
          "duration": 0.174,
          "velocity": 0.632,
          "name": ""
        },
        {
          "midi": 62,
          "time": 109.947,
          "duration": 0.139,
          "velocity": 0.554,
          "name": ""
        },
        {
          "midi": 59,
          "time": 110.156,
          "duration": 0.221,
          "velocity": 0.647,
          "name": ""
        },
        {
          "midi": 62,
          "time": 110.377,
          "duration": 0.151,
          "velocity": 0.631,
          "name": ""
        },
        {
          "midi": 63,
          "time": 110.528,
          "duration": 0.081,
          "velocity": 0.384,
          "name": ""
        },
        {
          "midi": 61,
          "time": 110.621,
          "duration": 0.07,
          "velocity": 0.401,
          "name": ""
        },
        {
          "midi": 62,
          "time": 110.69,
          "duration": 0.325,
          "velocity": 0.461,
          "name": ""
        },
        {
          "midi": 57,
          "time": 111.899,
          "duration": 0.151,
          "velocity": 0.775,
          "name": ""
        },
        {
          "midi": 57,
          "time": 112.05,
          "duration": 0.197,
          "velocity": 0.664,
          "name": ""
        },
        {
          "midi": 59,
          "time": 112.259,
          "duration": 0.151,
          "velocity": 0.709,
          "name": ""
        },
        {
          "midi": 57,
          "time": 112.549,
          "duration": 0.093,
          "velocity": 0.799,
          "name": ""
        },
        {
          "midi": 57,
          "time": 112.642,
          "duration": 0.209,
          "velocity": 0.692,
          "name": ""
        },
        {
          "midi": 55,
          "time": 112.944,
          "duration": 0.244,
          "velocity": 0.527,
          "name": ""
        },
        {
          "midi": 54,
          "time": 113.037,
          "duration": 0.104,
          "velocity": 0.528,
          "name": ""
        },
        {
          "midi": 56,
          "time": 113.188,
          "duration": 0.059,
          "velocity": 0.434,
          "name": ""
        },
        {
          "midi": 54,
          "time": 113.247,
          "duration": 0.07,
          "velocity": 0.326,
          "name": ""
        },
        {
          "midi": 55,
          "time": 113.352,
          "duration": 0.232,
          "velocity": 0.676,
          "name": ""
        },
        {
          "midi": 55,
          "time": 113.584,
          "duration": 0.279,
          "velocity": 0.599,
          "name": ""
        },
        {
          "midi": 59,
          "time": 114.257,
          "duration": 0.07,
          "velocity": 0.318,
          "name": ""
        },
        {
          "midi": 74,
          "time": 114.35,
          "duration": 0.209,
          "velocity": 0.271,
          "name": ""
        },
        {
          "midi": 62,
          "time": 114.35,
          "duration": 0.279,
          "velocity": 0.685,
          "name": ""
        },
        {
          "midi": 71,
          "time": 114.675,
          "duration": 0.128,
          "velocity": 0.501,
          "name": ""
        },
        {
          "midi": 59,
          "time": 114.675,
          "duration": 0.093,
          "velocity": 0.489,
          "name": ""
        },
        {
          "midi": 57,
          "time": 114.78,
          "duration": 0.07,
          "velocity": 0.209,
          "name": ""
        },
        {
          "midi": 57,
          "time": 114.849,
          "duration": 0.221,
          "velocity": 0.434,
          "name": ""
        },
        {
          "midi": 74,
          "time": 115.64,
          "duration": 0.522,
          "velocity": 0.407,
          "name": ""
        },
        {
          "midi": 62,
          "time": 115.64,
          "duration": 0.72,
          "velocity": 0.589,
          "name": ""
        },
        {
          "midi": 62,
          "time": 116.36,
          "duration": 0.221,
          "velocity": 0.646,
          "name": ""
        },
        {
          "midi": 74,
          "time": 116.406,
          "duration": 0.116,
          "velocity": 0.427,
          "name": ""
        },
        {
          "midi": 76,
          "time": 116.592,
          "duration": 1.545,
          "velocity": 0.531,
          "name": ""
        },
        {
          "midi": 64,
          "time": 116.592,
          "duration": 1.952,
          "velocity": 0.667,
          "name": ""
        },
        {
          "midi": 57,
          "time": 118.532,
          "duration": 0.313,
          "velocity": 0.675,
          "name": ""
        },
        {
          "midi": 69,
          "time": 118.544,
          "duration": 0.058,
          "velocity": 0.363,
          "name": ""
        },
        {
          "midi": 59,
          "time": 118.95,
          "duration": 0.57,
          "velocity": 0.722,
          "name": ""
        },
        {
          "midi": 71,
          "time": 119.171,
          "duration": 0.257,
          "velocity": 0.406,
          "name": ""
        },
        {
          "midi": 62,
          "time": 119.52,
          "duration": 0.174,
          "velocity": 0.507,
          "name": ""
        },
        {
          "midi": 66,
          "time": 119.834,
          "duration": 0.186,
          "velocity": 0.743,
          "name": ""
        },
        {
          "midi": 62,
          "time": 119.915,
          "duration": 0.186,
          "velocity": 0.33,
          "name": ""
        },
        {
          "midi": 67,
          "time": 120.02,
          "duration": 0.104,
          "velocity": 0.792,
          "name": ""
        },
        {
          "midi": 67,
          "time": 120.124,
          "duration": 0.151,
          "velocity": 0.649,
          "name": ""
        },
        {
          "midi": 66,
          "time": 120.275,
          "duration": 0.209,
          "velocity": 0.696,
          "name": ""
        },
        {
          "midi": 78,
          "time": 120.275,
          "duration": 0.104,
          "velocity": 0.375,
          "name": ""
        },
        {
          "midi": 64,
          "time": 120.461,
          "duration": 0.232,
          "velocity": 0.554,
          "name": ""
        },
        {
          "midi": 64,
          "time": 120.693,
          "duration": 0.197,
          "velocity": 0.655,
          "name": ""
        },
        {
          "midi": 66,
          "time": 120.89,
          "duration": 0.139,
          "velocity": 0.395,
          "name": ""
        },
        {
          "midi": 62,
          "time": 120.902,
          "duration": 0.232,
          "velocity": 0.771,
          "name": ""
        },
        {
          "midi": 62,
          "time": 121.134,
          "duration": 0.152,
          "velocity": 0.7,
          "name": ""
        },
        {
          "midi": 59,
          "time": 121.298,
          "duration": 0.29,
          "velocity": 0.517,
          "name": ""
        },
        {
          "midi": 59,
          "time": 121.588,
          "duration": 0.081,
          "velocity": 0.74,
          "name": ""
        },
        {
          "midi": 59,
          "time": 121.67,
          "duration": 0.731,
          "velocity": 0.709,
          "name": ""
        },
        {
          "midi": 62,
          "time": 121.821,
          "duration": 0.07,
          "velocity": 0.334,
          "name": ""
        },
        {
          "midi": 71,
          "time": 122.401,
          "duration": 0.163,
          "velocity": 0.425,
          "name": ""
        },
        {
          "midi": 59,
          "time": 122.401,
          "duration": 0.302,
          "velocity": 0.65,
          "name": ""
        },
        {
          "midi": 62,
          "time": 122.633,
          "duration": 0.07,
          "velocity": 0.744,
          "name": ""
        },
        {
          "midi": 62,
          "time": 122.703,
          "duration": 0.36,
          "velocity": 0.776,
          "name": ""
        },
        {
          "midi": 59,
          "time": 122.703,
          "duration": 0.279,
          "velocity": 0.627,
          "name": ""
        },
        {
          "midi": 74,
          "time": 123.063,
          "duration": 0.222,
          "velocity": 0.291,
          "name": ""
        },
        {
          "midi": 62,
          "time": 123.063,
          "duration": 1.29,
          "velocity": 0.76,
          "name": ""
        },
        {
          "midi": 59,
          "time": 123.121,
          "duration": 0.071,
          "velocity": 0.355,
          "name": ""
        },
        {
          "midi": 59,
          "time": 124.121,
          "duration": 0.174,
          "velocity": 0.385,
          "name": ""
        },
        {
          "midi": 62,
          "time": 124.353,
          "duration": 0.348,
          "velocity": 0.635,
          "name": ""
        },
        {
          "midi": 59,
          "time": 125.411,
          "duration": 0.093,
          "velocity": 0.47,
          "name": ""
        },
        {
          "midi": 57,
          "time": 125.492,
          "duration": 0.267,
          "velocity": 0.786,
          "name": ""
        },
        {
          "midi": 57,
          "time": 125.759,
          "duration": 0.128,
          "velocity": 0.584,
          "name": ""
        },
        {
          "midi": 59,
          "time": 125.898,
          "duration": 0.244,
          "velocity": 0.684,
          "name": ""
        },
        {
          "midi": 62,
          "time": 126.223,
          "duration": 0.406,
          "velocity": 0.763,
          "name": ""
        },
        {
          "midi": 81,
          "time": 126.618,
          "duration": 0.186,
          "velocity": 0.284,
          "name": ""
        },
        {
          "midi": 74,
          "time": 126.618,
          "duration": 0.197,
          "velocity": 0.352,
          "name": ""
        },
        {
          "midi": 62,
          "time": 126.63,
          "duration": 0.255,
          "velocity": 0.629,
          "name": ""
        },
        {
          "midi": 64,
          "time": 126.897,
          "duration": 0.104,
          "velocity": 0.46,
          "name": ""
        },
        {
          "midi": 62,
          "time": 127.059,
          "duration": 0.199,
          "velocity": 0.786,
          "name": ""
        },
        {
          "midi": 74,
          "time": 127.258,
          "duration": 0.104,
          "velocity": 0.234,
          "name": ""
        },
        {
          "midi": 62,
          "time": 127.258,
          "duration": 0.279,
          "velocity": 0.568,
          "name": ""
        },
        {
          "midi": 62,
          "time": 127.537,
          "duration": 0.186,
          "velocity": 0.658,
          "name": ""
        },
        {
          "midi": 64,
          "time": 127.734,
          "duration": 0.128,
          "velocity": 0.603,
          "name": ""
        },
        {
          "midi": 62,
          "time": 127.873,
          "duration": 0.29,
          "velocity": 0.594,
          "name": ""
        },
        {
          "midi": 62,
          "time": 128.163,
          "duration": 0.116,
          "velocity": 0.79,
          "name": ""
        },
        {
          "midi": 61,
          "time": 128.28,
          "duration": 0.07,
          "velocity": 0.287,
          "name": ""
        },
        {
          "midi": 59,
          "time": 128.361,
          "duration": 0.128,
          "velocity": 0.627,
          "name": ""
        },
        {
          "midi": 55,
          "time": 128.523,
          "duration": 0.29,
          "velocity": 0.601,
          "name": ""
        },
        {
          "midi": 55,
          "time": 128.814,
          "duration": 0.313,
          "velocity": 0.767,
          "name": ""
        },
        {
          "midi": 59,
          "time": 129.198,
          "duration": 0.186,
          "velocity": 0.675,
          "name": ""
        },
        {
          "midi": 62,
          "time": 129.419,
          "duration": 0.383,
          "velocity": 0.677,
          "name": ""
        },
        {
          "midi": 59,
          "time": 129.825,
          "duration": 0.186,
          "velocity": 0.778,
          "name": ""
        },
        {
          "midi": 59,
          "time": 130.011,
          "duration": 0.209,
          "velocity": 0.707,
          "name": ""
        },
        {
          "midi": 59,
          "time": 130.22,
          "duration": 0.325,
          "velocity": 0.783,
          "name": ""
        },
        {
          "midi": 59,
          "time": 130.545,
          "duration": 0.441,
          "velocity": 0.819,
          "name": ""
        },
        {
          "midi": 59,
          "time": 130.986,
          "duration": 0.965,
          "velocity": 0.681,
          "name": ""
        },
        {
          "midi": 57,
          "time": 132.253,
          "duration": 0.151,
          "velocity": 0.781,
          "name": ""
        },
        {
          "midi": 57,
          "time": 132.404,
          "duration": 0.279,
          "velocity": 0.721,
          "name": ""
        },
        {
          "midi": 57,
          "time": 132.682,
          "duration": 0.116,
          "velocity": 0.569,
          "name": ""
        },
        {
          "midi": 59,
          "time": 132.787,
          "duration": 0.232,
          "velocity": 0.719,
          "name": ""
        },
        {
          "midi": 74,
          "time": 133.113,
          "duration": 0.081,
          "velocity": 0.36,
          "name": ""
        },
        {
          "midi": 62,
          "time": 133.113,
          "duration": 0.731,
          "velocity": 0.548,
          "name": ""
        },
        {
          "midi": 78,
          "time": 133.554,
          "duration": 0.058,
          "velocity": 0.283,
          "name": ""
        },
        {
          "midi": 66,
          "time": 133.554,
          "duration": 0.128,
          "velocity": 0.685,
          "name": ""
        },
        {
          "midi": 67,
          "time": 133.682,
          "duration": 0.279,
          "velocity": 0.754,
          "name": ""
        },
        {
          "midi": 79,
          "time": 133.763,
          "duration": 0.081,
          "velocity": 0.335,
          "name": ""
        },
        {
          "midi": 67,
          "time": 133.961,
          "duration": 0.116,
          "velocity": 0.776,
          "name": ""
        },
        {
          "midi": 66,
          "time": 134.077,
          "duration": 0.163,
          "velocity": 0.615,
          "name": ""
        },
        {
          "midi": 78,
          "time": 134.1,
          "duration": 0.081,
          "velocity": 0.407,
          "name": ""
        },
        {
          "midi": 83,
          "time": 134.228,
          "duration": 0.116,
          "velocity": 0.241,
          "name": ""
        },
        {
          "midi": 64,
          "time": 134.228,
          "duration": 0.511,
          "velocity": 0.592,
          "name": ""
        },
        {
          "midi": 64,
          "time": 135.669,
          "duration": 0.163,
          "velocity": 0.612,
          "name": ""
        },
        {
          "midi": 62,
          "time": 135.854,
          "duration": 0.244,
          "velocity": 0.79,
          "name": ""
        },
        {
          "midi": 74,
          "time": 136.098,
          "duration": 0.128,
          "velocity": 0.433,
          "name": ""
        },
        {
          "midi": 62,
          "time": 136.098,
          "duration": 0.279,
          "velocity": 0.678,
          "name": ""
        },
        {
          "midi": 64,
          "time": 136.272,
          "duration": 0.081,
          "velocity": 0.56,
          "name": ""
        },
        {
          "midi": 64,
          "time": 136.365,
          "duration": 0.163,
          "velocity": 0.483,
          "name": ""
        },
        {
          "midi": 64,
          "time": 136.528,
          "duration": 0.43,
          "velocity": 0.735,
          "name": ""
        },
        {
          "midi": 76,
          "time": 136.539,
          "duration": 0.093,
          "velocity": 0.364,
          "name": ""
        },
        {
          "midi": 64,
          "time": 136.957,
          "duration": 0.164,
          "velocity": 0.69,
          "name": ""
        },
        {
          "midi": 66,
          "time": 137.121,
          "duration": 0.221,
          "velocity": 0.71,
          "name": ""
        },
        {
          "midi": 62,
          "time": 137.4,
          "duration": 0.174,
          "velocity": 0.623,
          "name": ""
        },
        {
          "midi": 59,
          "time": 137.597,
          "duration": 0.221,
          "velocity": 0.621,
          "name": ""
        },
        {
          "midi": 59,
          "time": 137.818,
          "duration": 0.29,
          "velocity": 0.714,
          "name": ""
        },
        {
          "midi": 59,
          "time": 138.108,
          "duration": 0.476,
          "velocity": 0.6,
          "name": ""
        },
        {
          "midi": 57,
          "time": 139.34,
          "duration": 0.174,
          "velocity": 0.793,
          "name": ""
        },
        {
          "midi": 57,
          "time": 139.514,
          "duration": 0.174,
          "velocity": 0.708,
          "name": ""
        },
        {
          "midi": 59,
          "time": 139.723,
          "duration": 0.255,
          "velocity": 0.736,
          "name": ""
        },
        {
          "midi": 59,
          "time": 139.978,
          "duration": 0.116,
          "velocity": 0.649,
          "name": ""
        },
        {
          "midi": 57,
          "time": 140.071,
          "duration": 0.221,
          "velocity": 0.672,
          "name": ""
        },
        {
          "midi": 55,
          "time": 140.362,
          "duration": 0.07,
          "velocity": 0.698,
          "name": ""
        },
        {
          "midi": 55,
          "time": 140.431,
          "duration": 0.081,
          "velocity": 0.708,
          "name": ""
        },
        {
          "midi": 54,
          "time": 140.513,
          "duration": 0.058,
          "velocity": 0.48,
          "name": ""
        },
        {
          "midi": 55,
          "time": 140.571,
          "duration": 0.151,
          "velocity": 0.732,
          "name": ""
        },
        {
          "midi": 54,
          "time": 140.722,
          "duration": 0.197,
          "velocity": 0.292,
          "name": ""
        },
        {
          "midi": 56,
          "time": 140.826,
          "duration": 0.081,
          "velocity": 0.416,
          "name": ""
        },
        {
          "midi": 54,
          "time": 140.919,
          "duration": 0.093,
          "velocity": 0.446,
          "name": ""
        },
        {
          "midi": 55,
          "time": 141.012,
          "duration": 0.454,
          "velocity": 0.599,
          "name": ""
        },
        {
          "midi": 62,
          "time": 141.675,
          "duration": 0.139,
          "velocity": 0.722,
          "name": ""
        },
        {
          "midi": 74,
          "time": 141.814,
          "duration": 0.302,
          "velocity": 0.357,
          "name": ""
        },
        {
          "midi": 62,
          "time": 141.814,
          "duration": 0.697,
          "velocity": 0.734,
          "name": ""
        },
        {
          "midi": 62,
          "time": 142.511,
          "duration": 0.209,
          "velocity": 0.627,
          "name": ""
        },
        {
          "midi": 59,
          "time": 142.743,
          "duration": 0.093,
          "velocity": 0.694,
          "name": ""
        },
        {
          "midi": 58,
          "time": 142.836,
          "duration": 0.058,
          "velocity": 0.338,
          "name": ""
        },
        {
          "midi": 57,
          "time": 142.894,
          "duration": 0.257,
          "velocity": 0.72,
          "name": ""
        },
        {
          "midi": 57,
          "time": 143.151,
          "duration": 0.383,
          "velocity": 0.664,
          "name": ""
        },
        {
          "midi": 59,
          "time": 143.592,
          "duration": 0.174,
          "velocity": 0.687,
          "name": ""
        },
        {
          "midi": 62,
          "time": 143.801,
          "duration": 0.221,
          "velocity": 0.62,
          "name": ""
        },
        {
          "midi": 64,
          "time": 144.021,
          "duration": 3.102,
          "velocity": 0.7,
          "name": ""
        },
        {
          "midi": 76,
          "time": 144.265,
          "duration": 2.451,
          "velocity": 0.448,
          "name": ""
        },
        {
          "midi": 71,
          "time": 144.416,
          "duration": 0.174,
          "velocity": 0.375,
          "name": ""
        },
        {
          "midi": 92,
          "time": 144.671,
          "duration": 0.058,
          "velocity": 0.352,
          "name": ""
        },
        {
          "midi": 83,
          "time": 145.369,
          "duration": 0.128,
          "velocity": 0.282,
          "name": ""
        },
        {
          "midi": 76,
          "time": 146.855,
          "duration": 0.373,
          "velocity": 0.365,
          "name": ""
        },
        {
          "midi": 64,
          "time": 147.286,
          "duration": 0.081,
          "velocity": 0.368,
          "name": ""
        },
        {
          "midi": 64,
          "time": 147.786,
          "duration": 0.313,
          "velocity": 0.502,
          "name": ""
        },
        {
          "midi": 81,
          "time": 147.786,
          "duration": 0.197,
          "velocity": 0.464,
          "name": ""
        },
        {
          "midi": 92,
          "time": 147.983,
          "duration": 0.093,
          "velocity": 0.369,
          "name": ""
        },
        {
          "midi": 48,
          "time": 148.145,
          "duration": 0.72,
          "velocity": 0.334,
          "name": ""
        },
        {
          "midi": 64,
          "time": 148.54,
          "duration": 0.081,
          "velocity": 0.333,
          "name": ""
        },
        {
          "midi": 59,
          "time": 149.25,
          "duration": 0.279,
          "velocity": 0.379,
          "name": ""
        },
        {
          "midi": 48,
          "time": 149.25,
          "duration": 1.324,
          "velocity": 0.583,
          "name": ""
        },
        {
          "midi": 36,
          "time": 149.25,
          "duration": 0.395,
          "velocity": 0.343,
          "name": ""
        },
        {
          "midi": 55,
          "time": 149.261,
          "duration": 0.453,
          "velocity": 0.384,
          "name": ""
        },
        {
          "midi": 79,
          "time": 149.377,
          "duration": 0.104,
          "velocity": 0.484,
          "name": ""
        },
        {
          "midi": 67,
          "time": 149.401,
          "duration": 0.081,
          "velocity": 0.357,
          "name": ""
        },
        {
          "midi": 64,
          "time": 149.784,
          "duration": 0.406,
          "velocity": 0.391,
          "name": ""
        },
        {
          "midi": 76,
          "time": 149.807,
          "duration": 0.406,
          "velocity": 0.569,
          "name": ""
        },
        {
          "midi": 64,
          "time": 150.202,
          "duration": 0.441,
          "velocity": 0.631,
          "name": ""
        },
        {
          "midi": 52,
          "time": 150.225,
          "duration": 0.337,
          "velocity": 0.592,
          "name": ""
        },
        {
          "midi": 71,
          "time": 150.237,
          "duration": 0.128,
          "velocity": 0.463,
          "name": ""
        },
        {
          "midi": 59,
          "time": 150.271,
          "duration": 0.174,
          "velocity": 0.349,
          "name": ""
        },
        {
          "midi": 36,
          "time": 150.306,
          "duration": 0.209,
          "velocity": 0.369,
          "name": ""
        },
        {
          "midi": 81,
          "time": 150.666,
          "duration": 0.255,
          "velocity": 0.427,
          "name": ""
        },
        {
          "midi": 69,
          "time": 150.666,
          "duration": 0.524,
          "velocity": 0.428,
          "name": ""
        },
        {
          "midi": 62,
          "time": 150.666,
          "duration": 1.29,
          "velocity": 0.616,
          "name": ""
        },
        {
          "midi": 57,
          "time": 150.666,
          "duration": 2.592,
          "velocity": 0.533,
          "name": ""
        },
        {
          "midi": 47,
          "time": 150.666,
          "duration": 2.94,
          "velocity": 0.538,
          "name": ""
        },
        {
          "midi": 74,
          "time": 150.666,
          "duration": 0.116,
          "velocity": 0.433,
          "name": ""
        },
        {
          "midi": 43,
          "time": 150.817,
          "duration": 0.164,
          "velocity": 0.423,
          "name": ""
        },
        {
          "midi": 66,
          "time": 151.085,
          "duration": 0.476,
          "velocity": 0.42,
          "name": ""
        },
        {
          "midi": 54,
          "time": 151.097,
          "duration": 1.091,
          "velocity": 0.538,
          "name": ""
        },
        {
          "midi": 62,
          "time": 151.956,
          "duration": 0.418,
          "velocity": 0.596,
          "name": ""
        },
        {
          "midi": 81,
          "time": 152.374,
          "duration": 0.128,
          "velocity": 0.409,
          "name": ""
        },
        {
          "midi": 62,
          "time": 152.374,
          "duration": 0.64,
          "velocity": 0.555,
          "name": ""
        },
        {
          "midi": 69,
          "time": 152.374,
          "duration": 0.476,
          "velocity": 0.43,
          "name": ""
        },
        {
          "midi": 54,
          "time": 152.386,
          "duration": 0.186,
          "velocity": 0.397,
          "name": ""
        },
        {
          "midi": 62,
          "time": 153.2,
          "duration": 0.58,
          "velocity": 0.449,
          "name": ""
        },
        {
          "midi": 74,
          "time": 153.223,
          "duration": 0.499,
          "velocity": 0.419,
          "name": ""
        },
        {
          "midi": 57,
          "time": 153.652,
          "duration": 0.116,
          "velocity": 0.37,
          "name": ""
        },
        {
          "midi": 60,
          "time": 154.059,
          "duration": 1.302,
          "velocity": 0.485,
          "name": ""
        },
        {
          "midi": 67,
          "time": 154.082,
          "duration": 0.348,
          "velocity": 0.431,
          "name": ""
        },
        {
          "midi": 64,
          "time": 154.082,
          "duration": 0.209,
          "velocity": 0.507,
          "name": ""
        },
        {
          "midi": 57,
          "time": 154.082,
          "duration": 0.546,
          "velocity": 0.522,
          "name": ""
        },
        {
          "midi": 45,
          "time": 154.105,
          "duration": 1.267,
          "velocity": 0.559,
          "name": ""
        },
        {
          "midi": 48,
          "time": 154.245,
          "duration": 0.383,
          "velocity": 0.34,
          "name": ""
        },
        {
          "midi": 81,
          "time": 154.314,
          "duration": 0.244,
          "velocity": 0.557,
          "name": ""
        },
        {
          "midi": 69,
          "time": 154.326,
          "duration": 0.395,
          "velocity": 0.339,
          "name": ""
        },
        {
          "midi": 64,
          "time": 154.523,
          "duration": 0.093,
          "velocity": 0.393,
          "name": ""
        },
        {
          "midi": 52,
          "time": 154.535,
          "duration": 0.802,
          "velocity": 0.512,
          "name": ""
        },
        {
          "midi": 76,
          "time": 154.953,
          "duration": 0.21,
          "velocity": 0.444,
          "name": ""
        },
        {
          "midi": 57,
          "time": 154.954,
          "duration": 0.104,
          "velocity": 0.344,
          "name": ""
        },
        {
          "midi": 55,
          "time": 154.966,
          "duration": 0.917,
          "velocity": 0.385,
          "name": ""
        },
        {
          "midi": 48,
          "time": 155.059,
          "duration": 0.093,
          "velocity": 0.329,
          "name": ""
        },
        {
          "midi": 78,
          "time": 155.163,
          "duration": 0.221,
          "velocity": 0.569,
          "name": ""
        },
        {
          "midi": 60,
          "time": 155.372,
          "duration": 0.221,
          "velocity": 0.612,
          "name": ""
        },
        {
          "midi": 79,
          "time": 155.384,
          "duration": 0.058,
          "velocity": 0.359,
          "name": ""
        },
        {
          "midi": 45,
          "time": 155.384,
          "duration": 0.604,
          "velocity": 0.475,
          "name": ""
        },
        {
          "midi": 36,
          "time": 155.453,
          "duration": 0.163,
          "velocity": 0.352,
          "name": ""
        },
        {
          "midi": 81,
          "time": 155.593,
          "duration": 0.221,
          "velocity": 0.572,
          "name": ""
        },
        {
          "midi": 69,
          "time": 155.593,
          "duration": 0.058,
          "velocity": 0.37,
          "name": ""
        },
        {
          "midi": 60,
          "time": 155.72,
          "duration": 1.662,
          "velocity": 0.47,
          "name": ""
        },
        {
          "midi": 57,
          "time": 155.79,
          "duration": 0.128,
          "velocity": 0.446,
          "name": ""
        },
        {
          "midi": 64,
          "time": 155.802,
          "duration": 0.789,
          "velocity": 0.448,
          "name": ""
        },
        {
          "midi": 50,
          "time": 155.802,
          "duration": 1.603,
          "velocity": 0.52,
          "name": ""
        },
        {
          "midi": 67,
          "time": 155.813,
          "duration": 0.43,
          "velocity": 0.516,
          "name": ""
        },
        {
          "midi": 57,
          "time": 156.208,
          "duration": 0.383,
          "velocity": 0.495,
          "name": ""
        },
        {
          "midi": 81,
          "time": 156.243,
          "duration": 0.174,
          "velocity": 0.47,
          "name": ""
        },
        {
          "midi": 62,
          "time": 156.672,
          "duration": 0.408,
          "velocity": 0.565,
          "name": ""
        },
        {
          "midi": 55,
          "time": 156.707,
          "duration": 0.221,
          "velocity": 0.367,
          "name": ""
        },
        {
          "midi": 57,
          "time": 157.068,
          "duration": 0.418,
          "velocity": 0.376,
          "name": ""
        },
        {
          "midi": 81,
          "time": 157.08,
          "duration": 0.209,
          "velocity": 0.373,
          "name": ""
        },
        {
          "midi": 62,
          "time": 157.08,
          "duration": 0.441,
          "velocity": 0.565,
          "name": ""
        },
        {
          "midi": 43,
          "time": 157.103,
          "duration": 0.116,
          "velocity": 0.346,
          "name": ""
        },
        {
          "midi": 43,
          "time": 157.405,
          "duration": 0.104,
          "velocity": 0.484,
          "name": ""
        },
        {
          "midi": 78,
          "time": 157.521,
          "duration": 0.186,
          "velocity": 0.486,
          "name": ""
        },
        {
          "midi": 66,
          "time": 157.521,
          "duration": 0.836,
          "velocity": 0.496,
          "name": ""
        },
        {
          "midi": 62,
          "time": 157.521,
          "duration": 0.279,
          "velocity": 0.455,
          "name": ""
        },
        {
          "midi": 43,
          "time": 157.521,
          "duration": 1.522,
          "velocity": 0.524,
          "name": ""
        },
        {
          "midi": 59,
          "time": 157.521,
          "duration": 0.848,
          "velocity": 0.651,
          "name": ""
        },
        {
          "midi": 54,
          "time": 157.533,
          "duration": 0.081,
          "velocity": 0.351,
          "name": ""
        },
        {
          "midi": 50,
          "time": 157.544,
          "duration": 0.174,
          "velocity": 0.466,
          "name": ""
        },
        {
          "midi": 50,
          "time": 157.893,
          "duration": 1.267,
          "velocity": 0.548,
          "name": ""
        },
        {
          "midi": 59,
          "time": 158.38,
          "duration": 1.22,
          "velocity": 0.592,
          "name": ""
        },
        {
          "midi": 74,
          "time": 158.81,
          "duration": 0.104,
          "velocity": 0.404,
          "name": ""
        },
        {
          "midi": 62,
          "time": 158.81,
          "duration": 0.338,
          "velocity": 0.623,
          "name": ""
        },
        {
          "midi": 54,
          "time": 159.299,
          "duration": 0.174,
          "velocity": 0.345,
          "name": ""
        },
        {
          "midi": 59,
          "time": 160.193,
          "duration": 0.163,
          "velocity": 0.368,
          "name": ""
        },
        {
          "midi": 59,
          "time": 160.669,
          "duration": 0.139,
          "velocity": 0.434,
          "name": ""
        },
        {
          "midi": 64,
          "time": 160.96,
          "duration": 0.348,
          "velocity": 0.319,
          "name": ""
        },
        {
          "midi": 60,
          "time": 160.983,
          "duration": 0.476,
          "velocity": 0.364,
          "name": ""
        },
        {
          "midi": 33,
          "time": 160.995,
          "duration": 1.382,
          "velocity": 0.576,
          "name": ""
        },
        {
          "midi": 45,
          "time": 161.274,
          "duration": 0.058,
          "velocity": 0.363,
          "name": ""
        },
        {
          "midi": 52,
          "time": 161.448,
          "duration": 0.29,
          "velocity": 0.355,
          "name": ""
        },
        {
          "midi": 64,
          "time": 161.494,
          "duration": 0.232,
          "velocity": 0.379,
          "name": ""
        },
        {
          "midi": 45,
          "time": 161.506,
          "duration": 0.29,
          "velocity": 0.429,
          "name": ""
        },
        {
          "midi": 60,
          "time": 161.808,
          "duration": 0.186,
          "velocity": 0.454,
          "name": ""
        },
        {
          "midi": 55,
          "time": 161.924,
          "duration": 0.07,
          "velocity": 0.353,
          "name": ""
        },
        {
          "midi": 55,
          "time": 162.133,
          "duration": 0.232,
          "velocity": 0.332,
          "name": ""
        },
        {
          "midi": 45,
          "time": 162.237,
          "duration": 0.093,
          "velocity": 0.345,
          "name": ""
        },
        {
          "midi": 38,
          "time": 162.725,
          "duration": 1.348,
          "velocity": 0.43,
          "name": ""
        },
        {
          "midi": 64,
          "time": 162.853,
          "duration": 0.257,
          "velocity": 0.403,
          "name": ""
        },
        {
          "midi": 66,
          "time": 163.527,
          "duration": 0.139,
          "velocity": 0.633,
          "name": ""
        },
        {
          "midi": 69,
          "time": 165.096,
          "duration": 0.058,
          "velocity": 0.376,
          "name": ""
        },
        {
          "midi": 74,
          "time": 165.119,
          "duration": 0.081,
          "velocity": 0.367,
          "name": ""
        },
        {
          "midi": 75,
          "time": 165.526,
          "duration": 0.07,
          "velocity": 0.388,
          "name": ""
        },
        {
          "midi": 40,
          "time": 166.245,
          "duration": 0.464,
          "velocity": 0.328,
          "name": ""
        },
        {
          "midi": 66,
          "time": 167.373,
          "duration": 0.43,
          "velocity": 0.521,
          "name": ""
        },
        {
          "midi": 33,
          "time": 168.058,
          "duration": 0.697,
          "velocity": 0.336,
          "name": ""
        },
        {
          "midi": 33,
          "time": 168.93,
          "duration": 0.441,
          "velocity": 0.496,
          "name": ""
        },
        {
          "midi": 76,
          "time": 169.034,
          "duration": 0.058,
          "velocity": 0.501,
          "name": ""
        },
        {
          "midi": 60,
          "time": 169.127,
          "duration": 0.267,
          "velocity": 0.434,
          "name": ""
        },
        {
          "midi": 74,
          "time": 169.522,
          "duration": 0.441,
          "velocity": 0.402,
          "name": ""
        },
        {
          "midi": 35,
          "time": 169.522,
          "duration": 1.453,
          "velocity": 0.593,
          "name": ""
        },
        {
          "midi": 62,
          "time": 169.545,
          "duration": 0.221,
          "velocity": 0.378,
          "name": ""
        },
        {
          "midi": 54,
          "time": 169.545,
          "duration": 0.174,
          "velocity": 0.356,
          "name": ""
        },
        {
          "midi": 47,
          "time": 169.568,
          "duration": 0.186,
          "velocity": 0.486,
          "name": ""
        },
        {
          "midi": 66,
          "time": 170.369,
          "duration": 0.104,
          "velocity": 0.418,
          "name": ""
        },
        {
          "midi": 78,
          "time": 170.381,
          "duration": 0.116,
          "velocity": 0.305,
          "name": ""
        },
        {
          "midi": 62,
          "time": 170.381,
          "duration": 0.501,
          "velocity": 0.567,
          "name": ""
        },
        {
          "midi": 40,
          "time": 171.253,
          "duration": 0.731,
          "velocity": 0.52,
          "name": ""
        },
        {
          "midi": 52,
          "time": 172.159,
          "duration": 0.197,
          "velocity": 0.411,
          "name": ""
        },
        {
          "midi": 59,
          "time": 172.182,
          "duration": 0.163,
          "velocity": 0.434,
          "name": ""
        },
        {
          "midi": 54,
          "time": 172.611,
          "duration": 0.104,
          "velocity": 0.417,
          "name": ""
        },
        {
          "midi": 66,
          "time": 172.611,
          "duration": 0.093,
          "velocity": 0.371,
          "name": ""
        },
        {
          "midi": 52,
          "time": 172.774,
          "duration": 0.058,
          "velocity": 0.283,
          "name": ""
        },
        {
          "midi": 59,
          "time": 172.774,
          "duration": 0.106,
          "velocity": 0.427,
          "name": ""
        },
        {
          "midi": 53,
          "time": 172.857,
          "duration": 0.093,
          "velocity": 0.429,
          "name": ""
        },
        {
          "midi": 52,
          "time": 173.391,
          "duration": 0.093,
          "velocity": 0.389,
          "name": ""
        },
        {
          "midi": 76,
          "time": 174.087,
          "duration": 0.116,
          "velocity": 0.393,
          "name": ""
        },
        {
          "midi": 45,
          "time": 174.726,
          "duration": 0.175,
          "velocity": 0.585,
          "name": ""
        },
        {
          "midi": 47,
          "time": 175.11,
          "duration": 0.476,
          "velocity": 0.563,
          "name": ""
        },
        {
          "midi": 47,
          "time": 175.586,
          "duration": 0.302,
          "velocity": 0.651,
          "name": ""
        },
        {
          "midi": 45,
          "time": 175.911,
          "duration": 0.058,
          "velocity": 0.332,
          "name": ""
        },
        {
          "midi": 45,
          "time": 175.981,
          "duration": 0.232,
          "velocity": 0.319,
          "name": ""
        },
        {
          "midi": 45,
          "time": 176.213,
          "duration": 0.221,
          "velocity": 0.611,
          "name": ""
        },
        {
          "midi": 45,
          "time": 176.712,
          "duration": 0.106,
          "velocity": 0.307,
          "name": ""
        },
        {
          "midi": 45,
          "time": 176.818,
          "duration": 0.255,
          "velocity": 0.652,
          "name": ""
        },
        {
          "midi": 47,
          "time": 177.271,
          "duration": 0.151,
          "velocity": 0.253,
          "name": ""
        },
        {
          "midi": 47,
          "time": 177.422,
          "duration": 0.36,
          "velocity": 0.684,
          "name": ""
        },
        {
          "midi": 52,
          "time": 177.817,
          "duration": 0.163,
          "velocity": 0.625,
          "name": ""
        },
        {
          "midi": 52,
          "time": 178.142,
          "duration": 0.186,
          "velocity": 0.696,
          "name": ""
        },
        {
          "midi": 54,
          "time": 178.351,
          "duration": 0.174,
          "velocity": 0.744,
          "name": ""
        },
        {
          "midi": 54,
          "time": 178.525,
          "duration": 0.209,
          "velocity": 0.68,
          "name": ""
        },
        {
          "midi": 54,
          "time": 178.99,
          "duration": 0.186,
          "velocity": 0.733,
          "name": ""
        },
        {
          "midi": 50,
          "time": 179.281,
          "duration": 0.255,
          "velocity": 0.656,
          "name": ""
        },
        {
          "midi": 47,
          "time": 179.861,
          "duration": 0.093,
          "velocity": 0.361,
          "name": ""
        },
        {
          "midi": 50,
          "time": 180.117,
          "duration": 0.418,
          "velocity": 0.585,
          "name": ""
        },
        {
          "midi": 54,
          "time": 180.233,
          "duration": 0.128,
          "velocity": 0.404,
          "name": ""
        },
        {
          "midi": 50,
          "time": 181.488,
          "duration": 0.104,
          "velocity": 0.605,
          "name": ""
        },
        {
          "midi": 50,
          "time": 181.592,
          "duration": 0.232,
          "velocity": 0.653,
          "name": ""
        },
        {
          "midi": 52,
          "time": 182.01,
          "duration": 0.418,
          "velocity": 0.728,
          "name": ""
        },
        {
          "midi": 52,
          "time": 182.428,
          "duration": 0.279,
          "velocity": 0.656,
          "name": ""
        },
        {
          "midi": 50,
          "time": 182.661,
          "duration": 0.106,
          "velocity": 0.558,
          "name": ""
        },
        {
          "midi": 50,
          "time": 182.766,
          "duration": 0.163,
          "velocity": 0.561,
          "name": ""
        },
        {
          "midi": 50,
          "time": 183.126,
          "duration": 0.128,
          "velocity": 0.579,
          "name": ""
        },
        {
          "midi": 52,
          "time": 183.289,
          "duration": 0.348,
          "velocity": 0.579,
          "name": ""
        },
        {
          "midi": 50,
          "time": 184.09,
          "duration": 0.255,
          "velocity": 0.624,
          "name": ""
        },
        {
          "midi": 52,
          "time": 184.345,
          "duration": 0.221,
          "velocity": 0.664,
          "name": ""
        },
        {
          "midi": 50,
          "time": 184.577,
          "duration": 0.163,
          "velocity": 0.627,
          "name": ""
        },
        {
          "midi": 47,
          "time": 184.799,
          "duration": 0.221,
          "velocity": 0.756,
          "name": ""
        },
        {
          "midi": 47,
          "time": 185.02,
          "duration": 0.29,
          "velocity": 0.667,
          "name": ""
        },
        {
          "midi": 45,
          "time": 185.438,
          "duration": 0.197,
          "velocity": 0.56,
          "name": ""
        },
        {
          "midi": 43,
          "time": 185.635,
          "duration": 0.302,
          "velocity": 0.407,
          "name": ""
        },
        {
          "midi": 59,
          "time": 185.844,
          "duration": 0.104,
          "velocity": 0.36,
          "name": ""
        },
        {
          "midi": 45,
          "time": 186.529,
          "duration": 0.116,
          "velocity": 0.442,
          "name": ""
        },
        {
          "midi": 47,
          "time": 186.715,
          "duration": 0.384,
          "velocity": 0.466,
          "name": ""
        },
        {
          "midi": 47,
          "time": 188.376,
          "duration": 0.302,
          "velocity": 0.656,
          "name": ""
        },
        {
          "midi": 47,
          "time": 188.865,
          "duration": 0.731,
          "velocity": 0.71,
          "name": ""
        },
        {
          "midi": 59,
          "time": 189.516,
          "duration": 0.07,
          "velocity": 0.336,
          "name": ""
        },
        {
          "midi": 45,
          "time": 189.562,
          "duration": 0.139,
          "velocity": 0.262,
          "name": ""
        },
        {
          "midi": 45,
          "time": 189.713,
          "duration": 0.337,
          "velocity": 0.674,
          "name": ""
        },
        {
          "midi": 45,
          "time": 190.56,
          "duration": 0.408,
          "velocity": 0.745,
          "name": ""
        },
        {
          "midi": 45,
          "time": 190.968,
          "duration": 0.151,
          "velocity": 0.672,
          "name": ""
        },
        {
          "midi": 47,
          "time": 191.165,
          "duration": 0.221,
          "velocity": 0.681,
          "name": ""
        },
        {
          "midi": 47,
          "time": 191.386,
          "duration": 0.163,
          "velocity": 0.592,
          "name": ""
        },
        {
          "midi": 52,
          "time": 191.792,
          "duration": 0.232,
          "velocity": 0.717,
          "name": ""
        },
        {
          "midi": 54,
          "time": 192.071,
          "duration": 0.232,
          "velocity": 0.66,
          "name": ""
        },
        {
          "midi": 50,
          "time": 192.839,
          "duration": 0.116,
          "velocity": 0.674,
          "name": ""
        },
        {
          "midi": 50,
          "time": 192.955,
          "duration": 0.151,
          "velocity": 0.701,
          "name": ""
        },
        {
          "midi": 49,
          "time": 193.106,
          "duration": 0.081,
          "velocity": 0.357,
          "name": ""
        },
        {
          "midi": 67,
          "time": 193.14,
          "duration": 0.221,
          "velocity": 0.351,
          "name": ""
        },
        {
          "midi": 47,
          "time": 193.175,
          "duration": 0.209,
          "velocity": 0.586,
          "name": ""
        },
        {
          "midi": 47,
          "time": 193.384,
          "duration": 0.232,
          "velocity": 0.63,
          "name": ""
        },
        {
          "midi": 67,
          "time": 193.582,
          "duration": 0.209,
          "velocity": 0.466,
          "name": ""
        },
        {
          "midi": 50,
          "time": 193.86,
          "duration": 0.29,
          "velocity": 0.724,
          "name": ""
        },
        {
          "midi": 67,
          "time": 194.046,
          "duration": 0.279,
          "velocity": 0.43,
          "name": ""
        },
        {
          "midi": 50,
          "time": 194.15,
          "duration": 0.174,
          "velocity": 0.547,
          "name": ""
        },
        {
          "midi": 69,
          "time": 194.406,
          "duration": 0.081,
          "velocity": 0.39,
          "name": ""
        },
        {
          "midi": 54,
          "time": 195.243,
          "duration": 0.267,
          "velocity": 0.762,
          "name": ""
        },
        {
          "midi": 55,
          "time": 195.591,
          "duration": 0.313,
          "velocity": 0.719,
          "name": ""
        },
        {
          "midi": 52,
          "time": 195.87,
          "duration": 0.058,
          "velocity": 0.468,
          "name": ""
        },
        {
          "midi": 52,
          "time": 195.94,
          "duration": 0.209,
          "velocity": 0.695,
          "name": ""
        },
        {
          "midi": 52,
          "time": 196.149,
          "duration": 0.547,
          "velocity": 0.514,
          "name": ""
        },
        {
          "midi": 52,
          "time": 196.951,
          "duration": 0.348,
          "velocity": 0.727,
          "name": ""
        },
        {
          "midi": 54,
          "time": 197.23,
          "duration": 0.104,
          "velocity": 0.683,
          "name": ""
        },
        {
          "midi": 54,
          "time": 197.334,
          "duration": 0.186,
          "velocity": 0.613,
          "name": ""
        },
        {
          "midi": 50,
          "time": 197.566,
          "duration": 0.29,
          "velocity": 0.623,
          "name": ""
        },
        {
          "midi": 54,
          "time": 197.868,
          "duration": 0.07,
          "velocity": 0.385,
          "name": ""
        },
        {
          "midi": 47,
          "time": 198.205,
          "duration": 0.058,
          "velocity": 0.367,
          "name": ""
        },
        {
          "midi": 47,
          "time": 198.263,
          "duration": 0.174,
          "velocity": 0.616,
          "name": ""
        },
        {
          "midi": 45,
          "time": 198.414,
          "duration": 0.28,
          "velocity": 0.623,
          "name": ""
        },
        {
          "midi": 45,
          "time": 198.694,
          "duration": 0.197,
          "velocity": 0.6,
          "name": ""
        },
        {
          "midi": 47,
          "time": 198.822,
          "duration": 0.093,
          "velocity": 0.383,
          "name": ""
        },
        {
          "midi": 47,
          "time": 198.914,
          "duration": 0.267,
          "velocity": 0.683,
          "name": ""
        },
        {
          "midi": 50,
          "time": 199.321,
          "duration": 0.255,
          "velocity": 0.671,
          "name": ""
        },
        {
          "midi": 52,
          "time": 199.553,
          "duration": 0.952,
          "velocity": 0.688,
          "name": ""
        },
        {
          "midi": 59,
          "time": 201.156,
          "duration": 0.139,
          "velocity": 0.811,
          "name": ""
        },
        {
          "midi": 71,
          "time": 201.296,
          "duration": 0.058,
          "velocity": 0.419,
          "name": ""
        },
        {
          "midi": 59,
          "time": 201.296,
          "duration": 0.279,
          "velocity": 0.689,
          "name": ""
        },
        {
          "midi": 71,
          "time": 201.354,
          "duration": 0.151,
          "velocity": 0.458,
          "name": ""
        },
        {
          "midi": 62,
          "time": 201.656,
          "duration": 0.836,
          "velocity": 0.549,
          "name": ""
        },
        {
          "midi": 66,
          "time": 202.108,
          "duration": 0.221,
          "velocity": 0.612,
          "name": ""
        },
        {
          "midi": 59,
          "time": 202.108,
          "duration": 0.116,
          "velocity": 0.349,
          "name": ""
        },
        {
          "midi": 78,
          "time": 202.12,
          "duration": 0.163,
          "velocity": 0.303,
          "name": ""
        },
        {
          "midi": 85,
          "time": 202.155,
          "duration": 0.093,
          "velocity": 0.367,
          "name": ""
        },
        {
          "midi": 67,
          "time": 202.329,
          "duration": 0.058,
          "velocity": 0.692,
          "name": ""
        },
        {
          "midi": 67,
          "time": 202.387,
          "duration": 0.151,
          "velocity": 0.702,
          "name": ""
        },
        {
          "midi": 71,
          "time": 202.41,
          "duration": 0.093,
          "velocity": 0.38,
          "name": ""
        },
        {
          "midi": 59,
          "time": 202.422,
          "duration": 0.058,
          "velocity": 0.327,
          "name": ""
        },
        {
          "midi": 71,
          "time": 202.515,
          "duration": 0.081,
          "velocity": 0.355,
          "name": ""
        },
        {
          "midi": 78,
          "time": 202.526,
          "duration": 0.07,
          "velocity": 0.362,
          "name": ""
        },
        {
          "midi": 85,
          "time": 202.538,
          "duration": 0.058,
          "velocity": 0.316,
          "name": ""
        },
        {
          "midi": 66,
          "time": 202.538,
          "duration": 0.187,
          "velocity": 0.641,
          "name": ""
        },
        {
          "midi": 64,
          "time": 202.737,
          "duration": 0.221,
          "velocity": 0.528,
          "name": ""
        },
        {
          "midi": 67,
          "time": 202.806,
          "duration": 0.081,
          "velocity": 0.366,
          "name": ""
        },
        {
          "midi": 67,
          "time": 202.946,
          "duration": 0.186,
          "velocity": 0.312,
          "name": ""
        },
        {
          "midi": 64,
          "time": 202.957,
          "duration": 0.255,
          "velocity": 0.568,
          "name": ""
        },
        {
          "midi": 71,
          "time": 203.015,
          "duration": 0.163,
          "velocity": 0.439,
          "name": ""
        },
        {
          "midi": 62,
          "time": 203.189,
          "duration": 0.221,
          "velocity": 0.756,
          "name": ""
        },
        {
          "midi": 59,
          "time": 203.271,
          "duration": 0.104,
          "velocity": 0.348,
          "name": ""
        },
        {
          "midi": 62,
          "time": 203.41,
          "duration": 0.163,
          "velocity": 0.623,
          "name": ""
        },
        {
          "midi": 71,
          "time": 203.573,
          "duration": 0.279,
          "velocity": 0.318,
          "name": ""
        },
        {
          "midi": 59,
          "time": 203.573,
          "duration": 0.267,
          "velocity": 0.671,
          "name": ""
        },
        {
          "midi": 64,
          "time": 203.631,
          "duration": 0.174,
          "velocity": 0.412,
          "name": ""
        },
        {
          "midi": 59,
          "time": 203.84,
          "duration": 0.116,
          "velocity": 0.629,
          "name": ""
        },
        {
          "midi": 71,
          "time": 203.851,
          "duration": 0.104,
          "velocity": 0.299,
          "name": ""
        },
        {
          "midi": 62,
          "time": 203.909,
          "duration": 0.488,
          "velocity": 0.369,
          "name": ""
        },
        {
          "midi": 71,
          "time": 203.956,
          "duration": 0.698,
          "velocity": 0.508,
          "name": ""
        },
        {
          "midi": 59,
          "time": 203.956,
          "duration": 0.686,
          "velocity": 0.69,
          "name": ""
        },
        {
          "midi": 67,
          "time": 203.967,
          "duration": 0.86,
          "velocity": 0.452,
          "name": ""
        },
        {
          "midi": 55,
          "time": 204.269,
          "duration": 0.116,
          "velocity": 0.354,
          "name": ""
        },
        {
          "midi": 76,
          "time": 204.455,
          "duration": 0.093,
          "velocity": 0.331,
          "name": ""
        },
        {
          "midi": 59,
          "time": 204.642,
          "duration": 0.07,
          "velocity": 0.624,
          "name": ""
        },
        {
          "midi": 71,
          "time": 204.654,
          "duration": 0.07,
          "velocity": 0.612,
          "name": ""
        },
        {
          "midi": 59,
          "time": 204.712,
          "duration": 0.639,
          "velocity": 0.615,
          "name": ""
        },
        {
          "midi": 72,
          "time": 204.723,
          "duration": 0.058,
          "velocity": 0.358,
          "name": ""
        },
        {
          "midi": 71,
          "time": 204.781,
          "duration": 0.244,
          "velocity": 0.517,
          "name": ""
        },
        {
          "midi": 81,
          "time": 204.955,
          "duration": 0.07,
          "velocity": 0.323,
          "name": ""
        },
        {
          "midi": 62,
          "time": 205.037,
          "duration": 0.093,
          "velocity": 0.623,
          "name": ""
        },
        {
          "midi": 62,
          "time": 205.13,
          "duration": 0.221,
          "velocity": 0.651,
          "name": ""
        },
        {
          "midi": 62,
          "time": 205.35,
          "duration": 0.232,
          "velocity": 0.706,
          "name": ""
        },
        {
          "midi": 59,
          "time": 205.35,
          "duration": 0.116,
          "velocity": 0.386,
          "name": ""
        },
        {
          "midi": 66,
          "time": 205.559,
          "duration": 0.778,
          "velocity": 0.463,
          "name": ""
        },
        {
          "midi": 62,
          "time": 205.582,
          "duration": 0.232,
          "velocity": 0.785,
          "name": ""
        },
        {
          "midi": 69,
          "time": 205.675,
          "duration": 1.116,
          "velocity": 0.381,
          "name": ""
        },
        {
          "midi": 74,
          "time": 205.815,
          "duration": 0.244,
          "velocity": 0.308,
          "name": ""
        },
        {
          "midi": 62,
          "time": 205.815,
          "duration": 1.371,
          "velocity": 0.609,
          "name": ""
        },
        {
          "midi": 74,
          "time": 206.325,
          "duration": 0.104,
          "velocity": 0.384,
          "name": ""
        },
        {
          "midi": 71,
          "time": 206.43,
          "duration": 0.268,
          "velocity": 0.445,
          "name": ""
        },
        {
          "midi": 81,
          "time": 206.64,
          "duration": 0.128,
          "velocity": 0.368,
          "name": ""
        },
        {
          "midi": 71,
          "time": 207.244,
          "duration": 0.499,
          "velocity": 0.426,
          "name": ""
        },
        {
          "midi": 67,
          "time": 207.279,
          "duration": 0.662,
          "velocity": 0.618,
          "name": ""
        },
        {
          "midi": 79,
          "time": 207.372,
          "duration": 0.43,
          "velocity": 0.41,
          "name": ""
        },
        {
          "midi": 86,
          "time": 207.569,
          "duration": 0.221,
          "velocity": 0.361,
          "name": ""
        },
        {
          "midi": 57,
          "time": 207.882,
          "duration": 0.093,
          "velocity": 0.474,
          "name": ""
        },
        {
          "midi": 59,
          "time": 208.091,
          "duration": 0.163,
          "velocity": 0.468,
          "name": ""
        },
        {
          "midi": 76,
          "time": 208.149,
          "duration": 0.302,
          "velocity": 0.248,
          "name": ""
        },
        {
          "midi": 69,
          "time": 208.149,
          "duration": 0.313,
          "velocity": 0.247,
          "name": ""
        },
        {
          "midi": 81,
          "time": 208.184,
          "duration": 0.255,
          "velocity": 0.41,
          "name": ""
        },
        {
          "midi": 66,
          "time": 208.196,
          "duration": 0.255,
          "velocity": 0.296,
          "name": ""
        },
        {
          "midi": 71,
          "time": 208.208,
          "duration": 0.209,
          "velocity": 0.307,
          "name": ""
        },
        {
          "midi": 59,
          "time": 208.254,
          "duration": 0.221,
          "velocity": 0.635,
          "name": ""
        },
        {
          "midi": 81,
          "time": 208.533,
          "duration": 0.106,
          "velocity": 0.343,
          "name": ""
        },
        {
          "midi": 74,
          "time": 208.533,
          "duration": 0.152,
          "velocity": 0.358,
          "name": ""
        },
        {
          "midi": 62,
          "time": 208.533,
          "duration": 0.419,
          "velocity": 0.711,
          "name": ""
        },
        {
          "midi": 62,
          "time": 208.952,
          "duration": 0.406,
          "velocity": 0.535,
          "name": ""
        },
        {
          "midi": 66,
          "time": 208.963,
          "duration": 0.174,
          "velocity": 0.464,
          "name": ""
        },
        {
          "midi": 74,
          "time": 208.987,
          "duration": 0.244,
          "velocity": 0.427,
          "name": ""
        },
        {
          "midi": 71,
          "time": 208.998,
          "duration": 0.395,
          "velocity": 0.447,
          "name": ""
        },
        {
          "midi": 64,
          "time": 209.184,
          "duration": 0.081,
          "velocity": 0.26,
          "name": ""
        },
        {
          "midi": 71,
          "time": 209.405,
          "duration": 0.395,
          "velocity": 0.444,
          "name": ""
        },
        {
          "midi": 64,
          "time": 209.405,
          "duration": 0.07,
          "velocity": 0.389,
          "name": ""
        },
        {
          "midi": 62,
          "time": 209.498,
          "duration": 0.337,
          "velocity": 0.63,
          "name": ""
        },
        {
          "midi": 62,
          "time": 209.834,
          "duration": 0.488,
          "velocity": 0.565,
          "name": ""
        },
        {
          "midi": 74,
          "time": 209.846,
          "duration": 0.163,
          "velocity": 0.39,
          "name": ""
        },
        {
          "midi": 71,
          "time": 209.974,
          "duration": 0.302,
          "velocity": 0.416,
          "name": ""
        },
        {
          "midi": 67,
          "time": 210.008,
          "duration": 0.406,
          "velocity": 0.394,
          "name": ""
        },
        {
          "midi": 64,
          "time": 210.043,
          "duration": 0.197,
          "velocity": 0.465,
          "name": ""
        },
        {
          "midi": 64,
          "time": 210.241,
          "duration": 0.081,
          "velocity": 0.402,
          "name": ""
        },
        {
          "midi": 71,
          "time": 210.287,
          "duration": 0.232,
          "velocity": 0.483,
          "name": ""
        },
        {
          "midi": 62,
          "time": 210.322,
          "duration": 0.058,
          "velocity": 0.527,
          "name": ""
        },
        {
          "midi": 62,
          "time": 210.38,
          "duration": 0.315,
          "velocity": 0.626,
          "name": ""
        },
        {
          "midi": 55,
          "time": 210.59,
          "duration": 0.221,
          "velocity": 0.316,
          "name": ""
        },
        {
          "midi": 57,
          "time": 210.718,
          "duration": 0.104,
          "velocity": 0.518,
          "name": ""
        },
        {
          "midi": 55,
          "time": 210.822,
          "duration": 0.639,
          "velocity": 0.586,
          "name": ""
        },
        {
          "midi": 55,
          "time": 211.461,
          "duration": 0.07,
          "velocity": 0.717,
          "name": ""
        },
        {
          "midi": 67,
          "time": 211.519,
          "duration": 0.116,
          "velocity": 0.301,
          "name": ""
        },
        {
          "midi": 55,
          "time": 211.531,
          "duration": 0.232,
          "velocity": 0.715,
          "name": ""
        },
        {
          "midi": 57,
          "time": 211.774,
          "duration": 0.163,
          "velocity": 0.486,
          "name": ""
        },
        {
          "midi": 57,
          "time": 211.949,
          "duration": 0.163,
          "velocity": 0.765,
          "name": ""
        },
        {
          "midi": 57,
          "time": 212.111,
          "duration": 0.104,
          "velocity": 0.636,
          "name": ""
        },
        {
          "midi": 57,
          "time": 212.216,
          "duration": 0.093,
          "velocity": 0.718,
          "name": ""
        },
        {
          "midi": 57,
          "time": 212.308,
          "duration": 0.139,
          "velocity": 0.639,
          "name": ""
        },
        {
          "midi": 59,
          "time": 212.471,
          "duration": 0.245,
          "velocity": 0.693,
          "name": ""
        },
        {
          "midi": 59,
          "time": 212.716,
          "duration": 0.221,
          "velocity": 0.798,
          "name": ""
        },
        {
          "midi": 59,
          "time": 212.937,
          "duration": 0.998,
          "velocity": 0.691,
          "name": ""
        },
        {
          "midi": 59,
          "time": 213.935,
          "duration": 0.174,
          "velocity": 0.469,
          "name": ""
        },
        {
          "midi": 59,
          "time": 214.109,
          "duration": 0.221,
          "velocity": 0.513,
          "name": ""
        },
        {
          "midi": 66,
          "time": 214.121,
          "duration": 0.07,
          "velocity": 0.373,
          "name": ""
        },
        {
          "midi": 67,
          "time": 214.191,
          "duration": 0.547,
          "velocity": 0.539,
          "name": ""
        },
        {
          "midi": 71,
          "time": 214.26,
          "duration": 0.186,
          "velocity": 0.407,
          "name": ""
        },
        {
          "midi": 57,
          "time": 214.55,
          "duration": 0.175,
          "velocity": 0.502,
          "name": ""
        },
        {
          "midi": 57,
          "time": 214.726,
          "duration": 0.232,
          "velocity": 0.664,
          "name": ""
        },
        {
          "midi": 57,
          "time": 214.958,
          "duration": 0.174,
          "velocity": 0.561,
          "name": ""
        },
        {
          "midi": 59,
          "time": 215.144,
          "duration": 0.209,
          "velocity": 0.613,
          "name": ""
        },
        {
          "midi": 81,
          "time": 215.388,
          "duration": 0.36,
          "velocity": 0.381,
          "name": ""
        },
        {
          "midi": 74,
          "time": 215.388,
          "duration": 0.174,
          "velocity": 0.349,
          "name": ""
        },
        {
          "midi": 62,
          "time": 215.388,
          "duration": 0.882,
          "velocity": 0.499,
          "name": ""
        },
        {
          "midi": 66,
          "time": 215.724,
          "duration": 0.104,
          "velocity": 0.378,
          "name": ""
        },
        {
          "midi": 74,
          "time": 215.817,
          "duration": 0.093,
          "velocity": 0.353,
          "name": ""
        },
        {
          "midi": 66,
          "time": 215.829,
          "duration": 0.151,
          "velocity": 0.613,
          "name": ""
        },
        {
          "midi": 78,
          "time": 215.852,
          "duration": 0.104,
          "velocity": 0.398,
          "name": ""
        },
        {
          "midi": 71,
          "time": 215.852,
          "duration": 0.186,
          "velocity": 0.327,
          "name": ""
        },
        {
          "midi": 79,
          "time": 215.991,
          "duration": 0.186,
          "velocity": 0.418,
          "name": ""
        },
        {
          "midi": 67,
          "time": 215.991,
          "duration": 0.29,
          "velocity": 0.699,
          "name": ""
        },
        {
          "midi": 67,
          "time": 216.282,
          "duration": 0.081,
          "velocity": 0.664,
          "name": ""
        },
        {
          "midi": 66,
          "time": 216.363,
          "duration": 0.163,
          "velocity": 0.589,
          "name": ""
        },
        {
          "midi": 74,
          "time": 216.374,
          "duration": 0.139,
          "velocity": 0.377,
          "name": ""
        },
        {
          "midi": 71,
          "time": 216.467,
          "duration": 0.21,
          "velocity": 0.454,
          "name": ""
        },
        {
          "midi": 83,
          "time": 216.502,
          "duration": 0.164,
          "velocity": 0.488,
          "name": ""
        },
        {
          "midi": 64,
          "time": 216.514,
          "duration": 0.21,
          "velocity": 0.526,
          "name": ""
        },
        {
          "midi": 67,
          "time": 216.643,
          "duration": 0.267,
          "velocity": 0.435,
          "name": ""
        },
        {
          "midi": 64,
          "time": 216.724,
          "duration": 0.383,
          "velocity": 0.561,
          "name": ""
        },
        {
          "midi": 76,
          "time": 216.736,
          "duration": 0.081,
          "velocity": 0.411,
          "name": ""
        },
        {
          "midi": 71,
          "time": 216.817,
          "duration": 0.104,
          "velocity": 0.332,
          "name": ""
        },
        {
          "midi": 79,
          "time": 216.817,
          "duration": 0.081,
          "velocity": 0.334,
          "name": ""
        },
        {
          "midi": 83,
          "time": 217.038,
          "duration": 0.07,
          "velocity": 0.338,
          "name": ""
        },
        {
          "midi": 90,
          "time": 217.99,
          "duration": 0.174,
          "velocity": 0.315,
          "name": ""
        },
        {
          "midi": 81,
          "time": 217.99,
          "duration": 0.07,
          "velocity": 0.267,
          "name": ""
        },
        {
          "midi": 62,
          "time": 217.99,
          "duration": 0.244,
          "velocity": 0.621,
          "name": ""
        },
        {
          "midi": 64,
          "time": 218.164,
          "duration": 0.232,
          "velocity": 0.372,
          "name": ""
        },
        {
          "midi": 71,
          "time": 218.164,
          "duration": 0.116,
          "velocity": 0.436,
          "name": ""
        },
        {
          "midi": 71,
          "time": 218.396,
          "duration": 0.454,
          "velocity": 0.368,
          "name": ""
        },
        {
          "midi": 67,
          "time": 218.396,
          "duration": 0.081,
          "velocity": 0.375,
          "name": ""
        },
        {
          "midi": 64,
          "time": 218.396,
          "duration": 0.454,
          "velocity": 0.608,
          "name": ""
        },
        {
          "midi": 76,
          "time": 218.525,
          "duration": 0.081,
          "velocity": 0.351,
          "name": ""
        },
        {
          "midi": 71,
          "time": 218.85,
          "duration": 0.43,
          "velocity": 0.46,
          "name": ""
        },
        {
          "midi": 64,
          "time": 218.85,
          "duration": 0.43,
          "velocity": 0.635,
          "name": ""
        },
        {
          "midi": 59,
          "time": 218.85,
          "duration": 0.29,
          "velocity": 0.426,
          "name": ""
        },
        {
          "midi": 67,
          "time": 218.896,
          "duration": 0.221,
          "velocity": 0.462,
          "name": ""
        },
        {
          "midi": 76,
          "time": 219.036,
          "duration": 0.058,
          "velocity": 0.324,
          "name": ""
        },
        {
          "midi": 71,
          "time": 219.28,
          "duration": 0.139,
          "velocity": 0.562,
          "name": ""
        },
        {
          "midi": 64,
          "time": 219.28,
          "duration": 0.163,
          "velocity": 0.583,
          "name": ""
        },
        {
          "midi": 72,
          "time": 219.43,
          "duration": 0.151,
          "velocity": 0.472,
          "name": ""
        },
        {
          "midi": 66,
          "time": 219.442,
          "duration": 0.186,
          "velocity": 0.575,
          "name": ""
        },
        {
          "midi": 62,
          "time": 219.686,
          "duration": 0.139,
          "velocity": 0.593,
          "name": ""
        },
        {
          "midi": 69,
          "time": 219.732,
          "duration": 0.104,
          "velocity": 0.404,
          "name": ""
        },
        {
          "midi": 59,
          "time": 219.895,
          "duration": 0.174,
          "velocity": 0.592,
          "name": ""
        },
        {
          "midi": 62,
          "time": 220.115,
          "duration": 0.337,
          "velocity": 0.457,
          "name": ""
        },
        {
          "midi": 66,
          "time": 220.301,
          "duration": 0.21,
          "velocity": 0.386,
          "name": ""
        },
        {
          "midi": 62,
          "time": 220.452,
          "duration": 0.094,
          "velocity": 0.542,
          "name": ""
        },
        {
          "midi": 62,
          "time": 220.546,
          "duration": 1.161,
          "velocity": 0.561,
          "name": ""
        },
        {
          "midi": 57,
          "time": 221.638,
          "duration": 0.151,
          "velocity": 0.742,
          "name": ""
        },
        {
          "midi": 57,
          "time": 221.789,
          "duration": 0.186,
          "velocity": 0.66,
          "name": ""
        },
        {
          "midi": 59,
          "time": 221.986,
          "duration": 0.174,
          "velocity": 0.655,
          "name": ""
        },
        {
          "midi": 57,
          "time": 222.288,
          "duration": 0.28,
          "velocity": 0.711,
          "name": ""
        },
        {
          "midi": 55,
          "time": 222.661,
          "duration": 0.209,
          "velocity": 0.622,
          "name": ""
        },
        {
          "midi": 54,
          "time": 222.754,
          "duration": 0.093,
          "velocity": 0.377,
          "name": ""
        },
        {
          "midi": 71,
          "time": 222.823,
          "duration": 0.163,
          "velocity": 0.366,
          "name": ""
        },
        {
          "midi": 55,
          "time": 222.87,
          "duration": 0.093,
          "velocity": 0.644,
          "name": ""
        },
        {
          "midi": 55,
          "time": 222.962,
          "duration": 0.128,
          "velocity": 0.635,
          "name": ""
        },
        {
          "midi": 55,
          "time": 223.09,
          "duration": 0.789,
          "velocity": 0.513,
          "name": ""
        },
        {
          "midi": 71,
          "time": 223.462,
          "duration": 0.07,
          "velocity": 0.34,
          "name": ""
        },
        {
          "midi": 67,
          "time": 223.485,
          "duration": 0.128,
          "velocity": 0.476,
          "name": ""
        },
        {
          "midi": 59,
          "time": 223.996,
          "duration": 0.058,
          "velocity": 0.308,
          "name": ""
        },
        {
          "midi": 74,
          "time": 224.077,
          "duration": 0.232,
          "velocity": 0.319,
          "name": ""
        },
        {
          "midi": 62,
          "time": 224.089,
          "duration": 0.267,
          "velocity": 0.686,
          "name": ""
        },
        {
          "midi": 71,
          "time": 224.414,
          "duration": 0.117,
          "velocity": 0.537,
          "name": ""
        },
        {
          "midi": 59,
          "time": 224.414,
          "duration": 0.083,
          "velocity": 0.506,
          "name": ""
        },
        {
          "midi": 57,
          "time": 224.566,
          "duration": 0.209,
          "velocity": 0.531,
          "name": ""
        },
        {
          "midi": 74,
          "time": 225.367,
          "duration": 0.081,
          "velocity": 0.513,
          "name": ""
        },
        {
          "midi": 62,
          "time": 225.379,
          "duration": 0.708,
          "velocity": 0.563,
          "name": ""
        },
        {
          "midi": 74,
          "time": 225.448,
          "duration": 0.639,
          "velocity": 0.462,
          "name": ""
        },
        {
          "midi": 66,
          "time": 225.564,
          "duration": 0.081,
          "velocity": 0.336,
          "name": ""
        },
        {
          "midi": 81,
          "time": 225.762,
          "duration": 0.07,
          "velocity": 0.318,
          "name": ""
        },
        {
          "midi": 74,
          "time": 226.087,
          "duration": 0.186,
          "velocity": 0.447,
          "name": ""
        },
        {
          "midi": 62,
          "time": 226.087,
          "duration": 0.221,
          "velocity": 0.626,
          "name": ""
        },
        {
          "midi": 76,
          "time": 226.342,
          "duration": 1.58,
          "velocity": 0.488,
          "name": ""
        },
        {
          "midi": 67,
          "time": 226.342,
          "duration": 0.141,
          "velocity": 0.384,
          "name": ""
        },
        {
          "midi": 64,
          "time": 226.342,
          "duration": 1.371,
          "velocity": 0.631,
          "name": ""
        },
        {
          "midi": 71,
          "time": 226.458,
          "duration": 0.466,
          "velocity": 0.406,
          "name": ""
        },
        {
          "midi": 67,
          "time": 226.738,
          "duration": 0.546,
          "velocity": 0.374,
          "name": ""
        },
        {
          "midi": 71,
          "time": 227.435,
          "duration": 0.325,
          "velocity": 0.392,
          "name": ""
        },
        {
          "midi": 67,
          "time": 227.481,
          "duration": 0.778,
          "velocity": 0.515,
          "name": ""
        },
        {
          "midi": 64,
          "time": 227.714,
          "duration": 0.557,
          "velocity": 0.507,
          "name": ""
        },
        {
          "midi": 71,
          "time": 228.085,
          "duration": 0.221,
          "velocity": 0.286,
          "name": ""
        },
        {
          "midi": 76,
          "time": 228.143,
          "duration": 0.07,
          "velocity": 0.377,
          "name": ""
        },
        {
          "midi": 57,
          "time": 228.271,
          "duration": 0.315,
          "velocity": 0.689,
          "name": ""
        },
        {
          "midi": 59,
          "time": 228.597,
          "duration": 0.07,
          "velocity": 0.483,
          "name": ""
        },
        {
          "midi": 59,
          "time": 228.678,
          "duration": 0.778,
          "velocity": 0.647,
          "name": ""
        },
        {
          "midi": 71,
          "time": 228.853,
          "duration": 0.313,
          "velocity": 0.453,
          "name": ""
        },
        {
          "midi": 62,
          "time": 229.305,
          "duration": 0.128,
          "velocity": 0.567,
          "name": ""
        },
        {
          "midi": 66,
          "time": 229.561,
          "duration": 0.128,
          "velocity": 0.728,
          "name": ""
        },
        {
          "midi": 71,
          "time": 229.665,
          "duration": 0.267,
          "velocity": 0.479,
          "name": ""
        },
        {
          "midi": 67,
          "time": 229.689,
          "duration": 0.163,
          "velocity": 0.661,
          "name": ""
        },
        {
          "midi": 67,
          "time": 229.851,
          "duration": 0.151,
          "velocity": 0.649,
          "name": ""
        },
        {
          "midi": 71,
          "time": 229.99,
          "duration": 0.441,
          "velocity": 0.373,
          "name": ""
        },
        {
          "midi": 85,
          "time": 230.002,
          "duration": 0.07,
          "velocity": 0.309,
          "name": ""
        },
        {
          "midi": 78,
          "time": 230.002,
          "duration": 0.116,
          "velocity": 0.417,
          "name": ""
        },
        {
          "midi": 66,
          "time": 230.002,
          "duration": 0.232,
          "velocity": 0.645,
          "name": ""
        },
        {
          "midi": 67,
          "time": 230.234,
          "duration": 0.093,
          "velocity": 0.461,
          "name": ""
        },
        {
          "midi": 64,
          "time": 230.246,
          "duration": 0.174,
          "velocity": 0.521,
          "name": ""
        },
        {
          "midi": 76,
          "time": 230.246,
          "duration": 0.058,
          "velocity": 0.327,
          "name": ""
        },
        {
          "midi": 71,
          "time": 230.432,
          "duration": 0.141,
          "velocity": 0.332,
          "name": ""
        },
        {
          "midi": 64,
          "time": 230.432,
          "duration": 0.187,
          "velocity": 0.632,
          "name": ""
        },
        {
          "midi": 59,
          "time": 230.468,
          "duration": 0.372,
          "velocity": 0.358,
          "name": ""
        },
        {
          "midi": 62,
          "time": 230.63,
          "duration": 0.221,
          "velocity": 0.722,
          "name": ""
        },
        {
          "midi": 62,
          "time": 230.851,
          "duration": 0.174,
          "velocity": 0.672,
          "name": ""
        },
        {
          "midi": 59,
          "time": 230.979,
          "duration": 0.058,
          "velocity": 0.5,
          "name": ""
        },
        {
          "midi": 71,
          "time": 230.979,
          "duration": 0.221,
          "velocity": 0.366,
          "name": ""
        },
        {
          "midi": 67,
          "time": 231.013,
          "duration": 0.267,
          "velocity": 0.371,
          "name": ""
        },
        {
          "midi": 59,
          "time": 231.037,
          "duration": 0.279,
          "velocity": 0.59,
          "name": ""
        },
        {
          "midi": 76,
          "time": 231.118,
          "duration": 0.116,
          "velocity": 0.376,
          "name": ""
        },
        {
          "midi": 64,
          "time": 231.257,
          "duration": 0.093,
          "velocity": 0.344,
          "name": ""
        },
        {
          "midi": 67,
          "time": 231.292,
          "duration": 0.848,
          "velocity": 0.519,
          "name": ""
        },
        {
          "midi": 71,
          "time": 231.315,
          "duration": 0.836,
          "velocity": 0.377,
          "name": ""
        },
        {
          "midi": 62,
          "time": 231.315,
          "duration": 0.093,
          "velocity": 0.268,
          "name": ""
        },
        {
          "midi": 59,
          "time": 231.315,
          "duration": 0.836,
          "velocity": 0.673,
          "name": ""
        },
        {
          "midi": 76,
          "time": 231.443,
          "duration": 0.557,
          "velocity": 0.375,
          "name": ""
        },
        {
          "midi": 62,
          "time": 231.536,
          "duration": 0.07,
          "velocity": 0.31,
          "name": ""
        },
        {
          "midi": 79,
          "time": 231.582,
          "duration": 0.476,
          "velocity": 0.318,
          "name": ""
        },
        {
          "midi": 67,
          "time": 232.139,
          "duration": 0.501,
          "velocity": 0.417,
          "name": ""
        },
        {
          "midi": 71,
          "time": 232.151,
          "duration": 0.116,
          "velocity": 0.374,
          "name": ""
        },
        {
          "midi": 59,
          "time": 232.151,
          "duration": 0.232,
          "velocity": 0.67,
          "name": ""
        },
        {
          "midi": 78,
          "time": 232.244,
          "duration": 0.187,
          "velocity": 0.431,
          "name": ""
        },
        {
          "midi": 72,
          "time": 232.267,
          "duration": 0.199,
          "velocity": 0.411,
          "name": ""
        },
        {
          "midi": 62,
          "time": 232.36,
          "duration": 0.419,
          "velocity": 0.756,
          "name": ""
        },
        {
          "midi": 81,
          "time": 232.36,
          "duration": 0.141,
          "velocity": 0.41,
          "name": ""
        },
        {
          "midi": 59,
          "time": 232.383,
          "duration": 0.559,
          "velocity": 0.646,
          "name": ""
        },
        {
          "midi": 84,
          "time": 232.407,
          "duration": 0.164,
          "velocity": 0.4,
          "name": ""
        },
        {
          "midi": 62,
          "time": 232.779,
          "duration": 0.197,
          "velocity": 0.7,
          "name": ""
        },
        {
          "midi": 72,
          "time": 232.803,
          "duration": 0.093,
          "velocity": 0.415,
          "name": ""
        },
        {
          "midi": 74,
          "time": 232.953,
          "duration": 0.07,
          "velocity": 0.333,
          "name": ""
        },
        {
          "midi": 69,
          "time": 232.977,
          "duration": 0.848,
          "velocity": 0.474,
          "name": ""
        },
        {
          "midi": 62,
          "time": 232.977,
          "duration": 1.464,
          "velocity": 0.664,
          "name": ""
        },
        {
          "midi": 66,
          "time": 232.977,
          "duration": 0.395,
          "velocity": 0.493,
          "name": ""
        },
        {
          "midi": 74,
          "time": 233.488,
          "duration": 0.139,
          "velocity": 0.472,
          "name": ""
        },
        {
          "midi": 86,
          "time": 233.557,
          "duration": 0.267,
          "velocity": 0.371,
          "name": ""
        },
        {
          "midi": 66,
          "time": 233.592,
          "duration": 0.07,
          "velocity": 0.337,
          "name": ""
        },
        {
          "midi": 81,
          "time": 233.801,
          "duration": 0.07,
          "velocity": 0.336,
          "name": ""
        },
        {
          "midi": 71,
          "time": 233.847,
          "duration": 0.139,
          "velocity": 0.477,
          "name": ""
        },
        {
          "midi": 69,
          "time": 234.045,
          "duration": 0.058,
          "velocity": 0.311,
          "name": ""
        },
        {
          "midi": 66,
          "time": 234.231,
          "duration": 0.093,
          "velocity": 0.395,
          "name": ""
        },
        {
          "midi": 62,
          "time": 234.719,
          "duration": 0.07,
          "velocity": 0.345,
          "name": ""
        },
        {
          "midi": 59,
          "time": 235.149,
          "duration": 0.093,
          "velocity": 0.518,
          "name": ""
        },
        {
          "midi": 57,
          "time": 235.23,
          "duration": 0.29,
          "velocity": 0.769,
          "name": ""
        },
        {
          "midi": 69,
          "time": 235.486,
          "duration": 0.058,
          "velocity": 0.393,
          "name": ""
        },
        {
          "midi": 57,
          "time": 235.521,
          "duration": 0.104,
          "velocity": 0.552,
          "name": ""
        },
        {
          "midi": 71,
          "time": 235.637,
          "duration": 0.302,
          "velocity": 0.341,
          "name": ""
        },
        {
          "midi": 59,
          "time": 235.637,
          "duration": 0.255,
          "velocity": 0.668,
          "name": ""
        },
        {
          "midi": 62,
          "time": 235.962,
          "duration": 0.406,
          "velocity": 0.753,
          "name": ""
        },
        {
          "midi": 74,
          "time": 236.368,
          "duration": 0.199,
          "velocity": 0.361,
          "name": ""
        },
        {
          "midi": 62,
          "time": 236.368,
          "duration": 0.419,
          "velocity": 0.556,
          "name": ""
        },
        {
          "midi": 66,
          "time": 236.403,
          "duration": 0.106,
          "velocity": 0.392,
          "name": ""
        },
        {
          "midi": 86,
          "time": 236.439,
          "duration": 0.116,
          "velocity": 0.392,
          "name": ""
        },
        {
          "midi": 81,
          "time": 236.451,
          "duration": 0.07,
          "velocity": 0.327,
          "name": ""
        },
        {
          "midi": 71,
          "time": 236.544,
          "duration": 0.302,
          "velocity": 0.465,
          "name": ""
        },
        {
          "midi": 64,
          "time": 236.625,
          "duration": 0.093,
          "velocity": 0.399,
          "name": ""
        },
        {
          "midi": 62,
          "time": 236.787,
          "duration": 0.209,
          "velocity": 0.747,
          "name": ""
        },
        {
          "midi": 62,
          "time": 236.996,
          "duration": 0.267,
          "velocity": 0.604,
          "name": ""
        },
        {
          "midi": 74,
          "time": 237.263,
          "duration": 0.128,
          "velocity": 0.351,
          "name": ""
        },
        {
          "midi": 62,
          "time": 237.263,
          "duration": 0.186,
          "velocity": 0.651,
          "name": ""
        },
        {
          "midi": 64,
          "time": 237.449,
          "duration": 0.163,
          "velocity": 0.61,
          "name": ""
        },
        {
          "midi": 62,
          "time": 237.612,
          "duration": 0.279,
          "velocity": 0.573,
          "name": ""
        },
        {
          "midi": 62,
          "time": 237.89,
          "duration": 0.186,
          "velocity": 0.672,
          "name": ""
        },
        {
          "midi": 59,
          "time": 238.099,
          "duration": 0.139,
          "velocity": 0.6,
          "name": ""
        },
        {
          "midi": 55,
          "time": 238.215,
          "duration": 0.07,
          "velocity": 0.679,
          "name": ""
        },
        {
          "midi": 55,
          "time": 238.285,
          "duration": 0.245,
          "velocity": 0.511,
          "name": ""
        },
        {
          "midi": 55,
          "time": 238.53,
          "duration": 0.337,
          "velocity": 0.749,
          "name": ""
        },
        {
          "midi": 59,
          "time": 238.936,
          "duration": 0.174,
          "velocity": 0.689,
          "name": ""
        },
        {
          "midi": 62,
          "time": 239.157,
          "duration": 0.372,
          "velocity": 0.733,
          "name": ""
        },
        {
          "midi": 59,
          "time": 239.563,
          "duration": 0.72,
          "velocity": 0.77,
          "name": ""
        },
        {
          "midi": 59,
          "time": 240.283,
          "duration": 0.28,
          "velocity": 0.773,
          "name": ""
        },
        {
          "midi": 59,
          "time": 240.563,
          "duration": 0.592,
          "velocity": 0.585,
          "name": ""
        },
        {
          "midi": 59,
          "time": 241.515,
          "duration": 0.383,
          "velocity": 0.494,
          "name": ""
        },
        {
          "midi": 67,
          "time": 241.596,
          "duration": 0.522,
          "velocity": 0.522,
          "name": ""
        },
        {
          "midi": 71,
          "time": 241.689,
          "duration": 0.279,
          "velocity": 0.478,
          "name": ""
        },
        {
          "midi": 57,
          "time": 241.98,
          "duration": 0.163,
          "velocity": 0.674,
          "name": ""
        },
        {
          "midi": 57,
          "time": 242.142,
          "duration": 0.257,
          "velocity": 0.622,
          "name": ""
        },
        {
          "midi": 57,
          "time": 242.399,
          "duration": 0.093,
          "velocity": 0.45,
          "name": ""
        },
        {
          "midi": 59,
          "time": 242.515,
          "duration": 0.221,
          "velocity": 0.678,
          "name": ""
        },
        {
          "midi": 74,
          "time": 242.828,
          "duration": 0.07,
          "velocity": 0.308,
          "name": ""
        },
        {
          "midi": 62,
          "time": 242.852,
          "duration": 0.848,
          "velocity": 0.538,
          "name": ""
        },
        {
          "midi": 81,
          "time": 242.863,
          "duration": 0.186,
          "velocity": 0.331,
          "name": ""
        },
        {
          "midi": 74,
          "time": 243.258,
          "duration": 0.36,
          "velocity": 0.441,
          "name": ""
        },
        {
          "midi": 66,
          "time": 243.281,
          "duration": 0.139,
          "velocity": 0.658,
          "name": ""
        },
        {
          "midi": 71,
          "time": 243.339,
          "duration": 0.104,
          "velocity": 0.333,
          "name": ""
        },
        {
          "midi": 67,
          "time": 243.42,
          "duration": 0.279,
          "velocity": 0.693,
          "name": ""
        },
        {
          "midi": 79,
          "time": 243.49,
          "duration": 0.093,
          "velocity": 0.387,
          "name": ""
        },
        {
          "midi": 67,
          "time": 243.699,
          "duration": 0.116,
          "velocity": 0.708,
          "name": ""
        },
        {
          "midi": 71,
          "time": 243.711,
          "duration": 0.36,
          "velocity": 0.336,
          "name": ""
        },
        {
          "midi": 66,
          "time": 243.815,
          "duration": 0.151,
          "velocity": 0.633,
          "name": ""
        },
        {
          "midi": 78,
          "time": 243.827,
          "duration": 0.07,
          "velocity": 0.372,
          "name": ""
        },
        {
          "midi": 83,
          "time": 243.966,
          "duration": 0.104,
          "velocity": 0.316,
          "name": ""
        },
        {
          "midi": 76,
          "time": 243.966,
          "duration": 0.221,
          "velocity": 0.342,
          "name": ""
        },
        {
          "midi": 64,
          "time": 243.966,
          "duration": 0.524,
          "velocity": 0.522,
          "name": ""
        },
        {
          "midi": 67,
          "time": 244.013,
          "duration": 0.605,
          "velocity": 0.354,
          "name": ""
        },
        {
          "midi": 86,
          "time": 244.233,
          "duration": 0.058,
          "velocity": 0.318,
          "name": ""
        },
        {
          "midi": 64,
          "time": 245.395,
          "duration": 0.163,
          "velocity": 0.58,
          "name": ""
        },
        {
          "midi": 71,
          "time": 245.407,
          "duration": 0.058,
          "velocity": 0.366,
          "name": ""
        },
        {
          "midi": 66,
          "time": 245.488,
          "duration": 0.174,
          "velocity": 0.282,
          "name": ""
        },
        {
          "midi": 62,
          "time": 245.593,
          "duration": 0.221,
          "velocity": 0.734,
          "name": ""
        },
        {
          "midi": 74,
          "time": 245.604,
          "duration": 0.07,
          "velocity": 0.345,
          "name": ""
        },
        {
          "midi": 62,
          "time": 245.813,
          "duration": 0.395,
          "velocity": 0.524,
          "name": ""
        },
        {
          "midi": 74,
          "time": 245.837,
          "duration": 0.151,
          "velocity": 0.468,
          "name": ""
        },
        {
          "midi": 64,
          "time": 245.999,
          "duration": 0.058,
          "velocity": 0.489,
          "name": ""
        },
        {
          "midi": 64,
          "time": 246.057,
          "duration": 0.221,
          "velocity": 0.488,
          "name": ""
        },
        {
          "midi": 62,
          "time": 246.208,
          "duration": 0.058,
          "velocity": 0.338,
          "name": ""
        },
        {
          "midi": 76,
          "time": 246.278,
          "duration": 0.094,
          "velocity": 0.343,
          "name": ""
        },
        {
          "midi": 64,
          "time": 246.278,
          "duration": 0.419,
          "velocity": 0.649,
          "name": ""
        },
        {
          "midi": 71,
          "time": 246.278,
          "duration": 0.419,
          "velocity": 0.43,
          "name": ""
        },
        {
          "midi": 67,
          "time": 246.324,
          "duration": 0.164,
          "velocity": 0.463,
          "name": ""
        },
        {
          "midi": 64,
          "time": 246.697,
          "duration": 0.163,
          "velocity": 0.696,
          "name": ""
        },
        {
          "midi": 71,
          "time": 246.709,
          "duration": 0.093,
          "velocity": 0.453,
          "name": ""
        },
        {
          "midi": 66,
          "time": 246.848,
          "duration": 0.221,
          "velocity": 0.678,
          "name": ""
        },
        {
          "midi": 62,
          "time": 247.127,
          "duration": 0.197,
          "velocity": 0.592,
          "name": ""
        },
        {
          "midi": 59,
          "time": 247.336,
          "duration": 0.081,
          "velocity": 0.571,
          "name": ""
        },
        {
          "midi": 59,
          "time": 247.417,
          "duration": 0.128,
          "velocity": 0.547,
          "name": ""
        },
        {
          "midi": 59,
          "time": 247.545,
          "duration": 0.174,
          "velocity": 0.606,
          "name": ""
        },
        {
          "midi": 59,
          "time": 247.719,
          "duration": 0.081,
          "velocity": 0.643,
          "name": ""
        },
        {
          "midi": 59,
          "time": 247.8,
          "duration": 0.197,
          "velocity": 0.704,
          "name": ""
        },
        {
          "midi": 59,
          "time": 247.997,
          "duration": 0.163,
          "velocity": 0.555,
          "name": ""
        },
        {
          "midi": 62,
          "time": 248.009,
          "duration": 0.07,
          "velocity": 0.293,
          "name": ""
        },
        {
          "midi": 59,
          "time": 248.16,
          "duration": 0.315,
          "velocity": 0.366,
          "name": ""
        },
        {
          "midi": 57,
          "time": 249.078,
          "duration": 0.163,
          "velocity": 0.806,
          "name": ""
        },
        {
          "midi": 57,
          "time": 249.241,
          "duration": 0.174,
          "velocity": 0.729,
          "name": ""
        },
        {
          "midi": 59,
          "time": 249.45,
          "duration": 0.255,
          "velocity": 0.723,
          "name": ""
        },
        {
          "midi": 59,
          "time": 249.705,
          "duration": 0.128,
          "velocity": 0.684,
          "name": ""
        },
        {
          "midi": 57,
          "time": 249.81,
          "duration": 0.221,
          "velocity": 0.702,
          "name": ""
        },
        {
          "midi": 55,
          "time": 250.088,
          "duration": 0.209,
          "velocity": 0.663,
          "name": ""
        },
        {
          "midi": 55,
          "time": 250.297,
          "duration": 0.152,
          "velocity": 0.702,
          "name": ""
        },
        {
          "midi": 54,
          "time": 250.45,
          "duration": 0.058,
          "velocity": 0.43,
          "name": ""
        },
        {
          "midi": 55,
          "time": 250.508,
          "duration": 0.128,
          "velocity": 0.437,
          "name": ""
        },
        {
          "midi": 55,
          "time": 250.635,
          "duration": 0.093,
          "velocity": 0.517,
          "name": ""
        },
        {
          "midi": 67,
          "time": 250.635,
          "duration": 0.186,
          "velocity": 0.424,
          "name": ""
        },
        {
          "midi": 79,
          "time": 250.67,
          "duration": 0.104,
          "velocity": 0.382,
          "name": ""
        },
        {
          "midi": 55,
          "time": 250.728,
          "duration": 0.197,
          "velocity": 0.566,
          "name": ""
        },
        {
          "midi": 66,
          "time": 251.019,
          "duration": 0.07,
          "velocity": 0.406,
          "name": ""
        },
        {
          "midi": 67,
          "time": 251.39,
          "duration": 0.116,
          "velocity": 0.382,
          "name": ""
        },
        {
          "midi": 62,
          "time": 251.402,
          "duration": 0.151,
          "velocity": 0.631,
          "name": ""
        },
        {
          "midi": 74,
          "time": 251.553,
          "duration": 0.522,
          "velocity": 0.36,
          "name": ""
        },
        {
          "midi": 62,
          "time": 251.553,
          "duration": 0.697,
          "velocity": 0.682,
          "name": ""
        },
        {
          "midi": 81,
          "time": 252.226,
          "duration": 0.058,
          "velocity": 0.288,
          "name": ""
        },
        {
          "midi": 62,
          "time": 252.249,
          "duration": 0.21,
          "velocity": 0.663,
          "name": ""
        },
        {
          "midi": 59,
          "time": 252.471,
          "duration": 0.139,
          "velocity": 0.654,
          "name": ""
        },
        {
          "midi": 57,
          "time": 252.61,
          "duration": 0.279,
          "velocity": 0.711,
          "name": ""
        },
        {
          "midi": 69,
          "time": 252.889,
          "duration": 0.186,
          "velocity": 0.301,
          "name": ""
        },
        {
          "midi": 57,
          "time": 252.889,
          "duration": 0.395,
          "velocity": 0.688,
          "name": ""
        },
        {
          "midi": 59,
          "time": 253.33,
          "duration": 0.197,
          "velocity": 0.699,
          "name": ""
        },
        {
          "midi": 62,
          "time": 253.539,
          "duration": 0.197,
          "velocity": 0.653,
          "name": ""
        },
        {
          "midi": 64,
          "time": 253.76,
          "duration": 0.675,
          "velocity": 0.55,
          "name": ""
        },
        {
          "midi": 76,
          "time": 253.934,
          "duration": 2.045,
          "velocity": 0.437,
          "name": ""
        },
        {
          "midi": 83,
          "time": 254.365,
          "duration": 0.058,
          "velocity": 0.319,
          "name": ""
        },
        {
          "midi": 64,
          "time": 254.434,
          "duration": 1.73,
          "velocity": 0.668,
          "name": ""
        },
        {
          "midi": 71,
          "time": 254.667,
          "duration": 0.07,
          "velocity": 0.316,
          "name": ""
        },
        {
          "midi": 71,
          "time": 254.91,
          "duration": 0.081,
          "velocity": 0.349,
          "name": ""
        },
        {
          "midi": 59,
          "time": 255.897,
          "duration": 0.151,
          "velocity": 0.787,
          "name": ""
        },
        {
          "midi": 59,
          "time": 256.048,
          "duration": 0.104,
          "velocity": 0.803,
          "name": ""
        },
        {
          "midi": 71,
          "time": 256.153,
          "duration": 0.199,
          "velocity": 0.288,
          "name": ""
        },
        {
          "midi": 59,
          "time": 256.153,
          "duration": 0.384,
          "velocity": 0.668,
          "name": ""
        },
        {
          "midi": 62,
          "time": 256.537,
          "duration": 0.07,
          "velocity": 0.785,
          "name": ""
        },
        {
          "midi": 59,
          "time": 256.537,
          "duration": 0.279,
          "velocity": 0.422,
          "name": ""
        },
        {
          "midi": 62,
          "time": 256.607,
          "duration": 0.337,
          "velocity": 0.735,
          "name": ""
        },
        {
          "midi": 66,
          "time": 256.967,
          "duration": 0.232,
          "velocity": 0.713,
          "name": ""
        },
        {
          "midi": 62,
          "time": 257.176,
          "duration": 0.128,
          "velocity": 0.416,
          "name": ""
        },
        {
          "midi": 67,
          "time": 257.199,
          "duration": 0.221,
          "velocity": 0.636,
          "name": ""
        },
        {
          "midi": 66,
          "time": 257.431,
          "duration": 0.163,
          "velocity": 0.701,
          "name": ""
        },
        {
          "midi": 64,
          "time": 257.582,
          "duration": 0.244,
          "velocity": 0.674,
          "name": ""
        },
        {
          "midi": 64,
          "time": 257.826,
          "duration": 0.302,
          "velocity": 0.446,
          "name": ""
        },
        {
          "midi": 62,
          "time": 258.023,
          "duration": 0.232,
          "velocity": 0.715,
          "name": ""
        },
        {
          "midi": 62,
          "time": 258.255,
          "duration": 0.141,
          "velocity": 0.58,
          "name": ""
        },
        {
          "midi": 59,
          "time": 258.419,
          "duration": 0.279,
          "velocity": 0.47,
          "name": ""
        },
        {
          "midi": 59,
          "time": 258.698,
          "duration": 0.104,
          "velocity": 0.504,
          "name": ""
        },
        {
          "midi": 59,
          "time": 258.814,
          "duration": 0.081,
          "velocity": 0.491,
          "name": ""
        },
        {
          "midi": 59,
          "time": 258.895,
          "duration": 0.348,
          "velocity": 0.721,
          "name": ""
        },
        {
          "midi": 59,
          "time": 259.522,
          "duration": 0.406,
          "velocity": 0.628,
          "name": ""
        },
        {
          "midi": 62,
          "time": 259.824,
          "duration": 0.36,
          "velocity": 0.696,
          "name": ""
        },
        {
          "midi": 62,
          "time": 260.184,
          "duration": 0.628,
          "velocity": 0.726,
          "name": ""
        },
        {
          "midi": 59,
          "time": 260.568,
          "duration": 0.058,
          "velocity": 0.352,
          "name": ""
        },
        {
          "midi": 85,
          "time": 260.777,
          "duration": 0.348,
          "velocity": 0.437,
          "name": ""
        },
        {
          "midi": 90,
          "time": 260.789,
          "duration": 0.104,
          "velocity": 0.384,
          "name": ""
        },
        {
          "midi": 62,
          "time": 260.812,
          "duration": 0.221,
          "velocity": 0.695,
          "name": ""
        },
        {
          "midi": 66,
          "time": 260.824,
          "duration": 0.789,
          "velocity": 0.491,
          "name": ""
        },
        {
          "midi": 74,
          "time": 261.01,
          "duration": 0.058,
          "velocity": 0.333,
          "name": ""
        },
        {
          "midi": 62,
          "time": 261.033,
          "duration": 1.091,
          "velocity": 0.538,
          "name": ""
        },
        {
          "midi": 90,
          "time": 261.056,
          "duration": 0.255,
          "velocity": 0.367,
          "name": ""
        },
        {
          "midi": 59,
          "time": 261.288,
          "duration": 0.116,
          "velocity": 0.397,
          "name": ""
        },
        {
          "midi": 78,
          "time": 261.416,
          "duration": 0.139,
          "velocity": 0.363,
          "name": ""
        },
        {
          "midi": 85,
          "time": 261.416,
          "duration": 0.058,
          "velocity": 0.338,
          "name": ""
        },
        {
          "midi": 74,
          "time": 261.462,
          "duration": 0.534,
          "velocity": 0.397,
          "name": ""
        },
        {
          "midi": 59,
          "time": 263.066,
          "duration": 0.209,
          "velocity": 0.624,
          "name": ""
        },
        {
          "midi": 74,
          "time": 263.379,
          "duration": 0.058,
          "velocity": 0.287,
          "name": ""
        },
        {
          "midi": 62,
          "time": 263.379,
          "duration": 0.43,
          "velocity": 0.729,
          "name": ""
        },
        {
          "midi": 62,
          "time": 263.809,
          "duration": 0.431,
          "velocity": 0.562,
          "name": ""
        },
        {
          "midi": 74,
          "time": 263.844,
          "duration": 0.093,
          "velocity": 0.293,
          "name": ""
        },
        {
          "midi": 64,
          "time": 264.076,
          "duration": 0.116,
          "velocity": 0.532,
          "name": ""
        },
        {
          "midi": 62,
          "time": 264.24,
          "duration": 0.441,
          "velocity": 0.7,
          "name": ""
        },
        {
          "midi": 62,
          "time": 264.681,
          "duration": 0.221,
          "velocity": 0.619,
          "name": ""
        },
        {
          "midi": 64,
          "time": 264.867,
          "duration": 0.058,
          "velocity": 0.46,
          "name": ""
        },
        {
          "midi": 64,
          "time": 264.936,
          "duration": 0.186,
          "velocity": 0.698,
          "name": ""
        },
        {
          "midi": 64,
          "time": 265.122,
          "duration": 0.081,
          "velocity": 0.521,
          "name": ""
        },
        {
          "midi": 62,
          "time": 265.203,
          "duration": 0.29,
          "velocity": 0.67,
          "name": ""
        },
        {
          "midi": 55,
          "time": 265.482,
          "duration": 0.197,
          "velocity": 0.266,
          "name": ""
        },
        {
          "midi": 57,
          "time": 265.586,
          "duration": 0.093,
          "velocity": 0.521,
          "name": ""
        },
        {
          "midi": 55,
          "time": 265.679,
          "duration": 0.313,
          "velocity": 0.633,
          "name": ""
        },
        {
          "midi": 55,
          "time": 266.377,
          "duration": 0.244,
          "velocity": 0.746,
          "name": ""
        },
        {
          "midi": 57,
          "time": 266.633,
          "duration": 0.348,
          "velocity": 0.746,
          "name": ""
        },
        {
          "midi": 57,
          "time": 266.981,
          "duration": 0.673,
          "velocity": 0.482,
          "name": ""
        },
        {
          "midi": 59,
          "time": 267.225,
          "duration": 0.731,
          "velocity": 0.636,
          "name": ""
        },
        {
          "midi": 59,
          "time": 267.956,
          "duration": 0.419,
          "velocity": 0.579,
          "name": ""
        },
        {
          "midi": 71,
          "time": 268.142,
          "duration": 0.117,
          "velocity": 0.414,
          "name": ""
        },
        {
          "midi": 59,
          "time": 268.375,
          "duration": 0.174,
          "velocity": 0.532,
          "name": ""
        },
        {
          "midi": 57,
          "time": 269.385,
          "duration": 0.186,
          "velocity": 0.503,
          "name": ""
        },
        {
          "midi": 57,
          "time": 269.571,
          "duration": 0.221,
          "velocity": 0.705,
          "name": ""
        },
        {
          "midi": 57,
          "time": 269.792,
          "duration": 0.186,
          "velocity": 0.546,
          "name": ""
        },
        {
          "midi": 59,
          "time": 269.978,
          "duration": 0.21,
          "velocity": 0.657,
          "name": ""
        },
        {
          "midi": 62,
          "time": 270.223,
          "duration": 0.279,
          "velocity": 0.685,
          "name": ""
        },
        {
          "midi": 69,
          "time": 270.316,
          "duration": 0.139,
          "velocity": 0.355,
          "name": ""
        },
        {
          "midi": 70,
          "time": 270.455,
          "duration": 0.081,
          "velocity": 0.482,
          "name": ""
        },
        {
          "midi": 66,
          "time": 270.571,
          "duration": 0.104,
          "velocity": 0.575,
          "name": ""
        },
        {
          "midi": 78,
          "time": 270.664,
          "duration": 0.116,
          "velocity": 0.298,
          "name": ""
        },
        {
          "midi": 66,
          "time": 270.675,
          "duration": 0.151,
          "velocity": 0.674,
          "name": ""
        },
        {
          "midi": 79,
          "time": 270.826,
          "duration": 0.174,
          "velocity": 0.402,
          "name": ""
        },
        {
          "midi": 67,
          "time": 270.826,
          "duration": 0.29,
          "velocity": 0.719,
          "name": ""
        },
        {
          "midi": 67,
          "time": 271.117,
          "duration": 0.081,
          "velocity": 0.768,
          "name": ""
        },
        {
          "midi": 66,
          "time": 271.198,
          "duration": 0.139,
          "velocity": 0.67,
          "name": ""
        },
        {
          "midi": 83,
          "time": 271.337,
          "duration": 0.139,
          "velocity": 0.473,
          "name": ""
        },
        {
          "midi": 71,
          "time": 271.337,
          "duration": 0.942,
          "velocity": 0.463,
          "name": ""
        },
        {
          "midi": 64,
          "time": 271.337,
          "duration": 0.221,
          "velocity": 0.511,
          "name": ""
        },
        {
          "midi": 67,
          "time": 271.523,
          "duration": 0.511,
          "velocity": 0.414,
          "name": ""
        },
        {
          "midi": 64,
          "time": 271.558,
          "duration": 0.441,
          "velocity": 0.593,
          "name": ""
        },
        {
          "midi": 76,
          "time": 271.569,
          "duration": 0.093,
          "velocity": 0.455,
          "name": ""
        },
        {
          "midi": 90,
          "time": 272.859,
          "duration": 0.104,
          "velocity": 0.268,
          "name": ""
        },
        {
          "midi": 62,
          "time": 272.859,
          "duration": 0.232,
          "velocity": 0.592,
          "name": ""
        },
        {
          "midi": 76,
          "time": 273.01,
          "duration": 0.093,
          "velocity": 0.261,
          "name": ""
        },
        {
          "midi": 64,
          "time": 273.01,
          "duration": 0.255,
          "velocity": 0.515,
          "name": ""
        },
        {
          "midi": 64,
          "time": 273.266,
          "duration": 0.43,
          "velocity": 0.636,
          "name": ""
        },
        {
          "midi": 64,
          "time": 273.695,
          "duration": 0.418,
          "velocity": 0.695,
          "name": ""
        },
        {
          "midi": 62,
          "time": 274.032,
          "duration": 0.093,
          "velocity": 0.54,
          "name": ""
        },
        {
          "midi": 64,
          "time": 274.113,
          "duration": 0.164,
          "velocity": 0.712,
          "name": ""
        },
        {
          "midi": 66,
          "time": 274.266,
          "duration": 0.174,
          "velocity": 0.661,
          "name": ""
        },
        {
          "midi": 62,
          "time": 274.44,
          "duration": 0.081,
          "velocity": 0.405,
          "name": ""
        },
        {
          "midi": 62,
          "time": 274.521,
          "duration": 0.128,
          "velocity": 0.627,
          "name": ""
        },
        {
          "midi": 59,
          "time": 274.73,
          "duration": 0.221,
          "velocity": 0.662,
          "name": ""
        },
        {
          "midi": 62,
          "time": 274.951,
          "duration": 0.197,
          "velocity": 0.757,
          "name": ""
        },
        {
          "midi": 62,
          "time": 275.148,
          "duration": 0.395,
          "velocity": 0.605,
          "name": ""
        },
        {
          "midi": 57,
          "time": 276.461,
          "duration": 0.209,
          "velocity": 0.802,
          "name": ""
        },
        {
          "midi": 57,
          "time": 276.67,
          "duration": 0.163,
          "velocity": 0.646,
          "name": ""
        },
        {
          "midi": 59,
          "time": 276.856,
          "duration": 0.244,
          "velocity": 0.504,
          "name": ""
        },
        {
          "midi": 59,
          "time": 277.1,
          "duration": 0.104,
          "velocity": 0.575,
          "name": ""
        },
        {
          "midi": 57,
          "time": 277.181,
          "duration": 0.279,
          "velocity": 0.644,
          "name": ""
        },
        {
          "midi": 55,
          "time": 277.529,
          "duration": 0.116,
          "velocity": 0.642,
          "name": ""
        },
        {
          "midi": 54,
          "time": 277.645,
          "duration": 0.116,
          "velocity": 0.396,
          "name": ""
        },
        {
          "midi": 55,
          "time": 277.761,
          "duration": 0.209,
          "velocity": 0.531,
          "name": ""
        },
        {
          "midi": 54,
          "time": 277.854,
          "duration": 0.081,
          "velocity": 0.304,
          "name": ""
        },
        {
          "midi": 55,
          "time": 277.97,
          "duration": 0.245,
          "velocity": 0.513,
          "name": ""
        },
        {
          "midi": 62,
          "time": 278.935,
          "duration": 0.255,
          "velocity": 0.639,
          "name": ""
        },
        {
          "midi": 71,
          "time": 279.249,
          "duration": 0.093,
          "velocity": 0.44,
          "name": ""
        },
        {
          "midi": 59,
          "time": 279.249,
          "duration": 0.093,
          "velocity": 0.381,
          "name": ""
        },
        {
          "midi": 57,
          "time": 279.4,
          "duration": 0.522,
          "velocity": 0.571,
          "name": ""
        },
        {
          "midi": 74,
          "time": 280.225,
          "duration": 0.615,
          "velocity": 0.568,
          "name": ""
        },
        {
          "midi": 62,
          "time": 280.225,
          "duration": 0.685,
          "velocity": 0.59,
          "name": ""
        },
        {
          "midi": 78,
          "time": 280.237,
          "duration": 0.07,
          "velocity": 0.335,
          "name": ""
        },
        {
          "midi": 81,
          "time": 280.283,
          "duration": 0.151,
          "velocity": 0.459,
          "name": ""
        },
        {
          "midi": 66,
          "time": 280.307,
          "duration": 0.43,
          "velocity": 0.431,
          "name": ""
        },
        {
          "midi": 78,
          "time": 280.608,
          "duration": 0.174,
          "velocity": 0.381,
          "name": ""
        },
        {
          "midi": 81,
          "time": 280.655,
          "duration": 0.186,
          "velocity": 0.436,
          "name": ""
        },
        {
          "midi": 74,
          "time": 280.899,
          "duration": 0.221,
          "velocity": 0.458,
          "name": ""
        },
        {
          "midi": 62,
          "time": 280.91,
          "duration": 0.232,
          "velocity": 0.656,
          "name": ""
        },
        {
          "midi": 71,
          "time": 281.119,
          "duration": 0.697,
          "velocity": 0.472,
          "name": ""
        },
        {
          "midi": 76,
          "time": 281.154,
          "duration": 2.927,
          "velocity": 0.521,
          "name": ""
        },
        {
          "midi": 64,
          "time": 281.154,
          "duration": 2.37,
          "velocity": 0.625,
          "name": ""
        },
        {
          "midi": 67,
          "time": 282.094,
          "duration": 0.268,
          "velocity": 0.339,
          "name": ""
        },
        {
          "midi": 83,
          "time": 282.223,
          "duration": 0.058,
          "velocity": 0.338,
          "name": ""
        },
        {
          "midi": 71,
          "time": 282.432,
          "duration": 0.174,
          "velocity": 0.441,
          "name": ""
        },
        {
          "midi": 67,
          "time": 282.502,
          "duration": 0.557,
          "velocity": 0.395,
          "name": ""
        },
        {
          "midi": 57,
          "time": 283.152,
          "duration": 0.244,
          "velocity": 0.644,
          "name": ""
        },
        {
          "midi": 69,
          "time": 283.234,
          "duration": 0.07,
          "velocity": 0.352,
          "name": ""
        },
        {
          "midi": 59,
          "time": 283.501,
          "duration": 0.675,
          "velocity": 0.56,
          "name": ""
        },
        {
          "midi": 81,
          "time": 283.628,
          "duration": 0.081,
          "velocity": 0.366,
          "name": ""
        },
        {
          "midi": 71,
          "time": 283.698,
          "duration": 0.325,
          "velocity": 0.45,
          "name": ""
        },
        {
          "midi": 74,
          "time": 284.0,
          "duration": 0.373,
          "velocity": 0.492,
          "name": ""
        },
        {
          "midi": 76,
          "time": 284.081,
          "duration": 0.547,
          "velocity": 0.438,
          "name": ""
        },
        {
          "midi": 62,
          "time": 284.106,
          "duration": 0.186,
          "velocity": 0.453,
          "name": ""
        },
        {
          "midi": 86,
          "time": 284.198,
          "duration": 0.128,
          "velocity": 0.476,
          "name": ""
        },
        {
          "midi": 66,
          "time": 284.384,
          "duration": 0.163,
          "velocity": 0.634,
          "name": ""
        },
        {
          "midi": 67,
          "time": 284.57,
          "duration": 0.058,
          "velocity": 0.592,
          "name": ""
        },
        {
          "midi": 71,
          "time": 284.616,
          "duration": 0.209,
          "velocity": 0.397,
          "name": ""
        },
        {
          "midi": 79,
          "time": 284.616,
          "duration": 0.081,
          "velocity": 0.362,
          "name": ""
        },
        {
          "midi": 76,
          "time": 284.628,
          "duration": 0.174,
          "velocity": 0.561,
          "name": ""
        },
        {
          "midi": 67,
          "time": 284.628,
          "duration": 0.197,
          "velocity": 0.708,
          "name": ""
        },
        {
          "midi": 66,
          "time": 284.825,
          "duration": 0.186,
          "velocity": 0.683,
          "name": ""
        },
        {
          "midi": 88,
          "time": 284.918,
          "duration": 0.348,
          "velocity": 0.504,
          "name": ""
        },
        {
          "midi": 79,
          "time": 284.953,
          "duration": 0.093,
          "velocity": 0.33,
          "name": ""
        },
        {
          "midi": 67,
          "time": 285.011,
          "duration": 0.639,
          "velocity": 0.397,
          "name": ""
        },
        {
          "midi": 64,
          "time": 285.011,
          "duration": 0.255,
          "velocity": 0.553,
          "name": ""
        },
        {
          "midi": 76,
          "time": 285.011,
          "duration": 0.244,
          "velocity": 0.43,
          "name": ""
        },
        {
          "midi": 76,
          "time": 285.267,
          "duration": 2.01,
          "velocity": 0.541,
          "name": ""
        },
        {
          "midi": 64,
          "time": 285.267,
          "duration": 0.232,
          "velocity": 0.61,
          "name": ""
        },
        {
          "midi": 71,
          "time": 285.336,
          "duration": 0.07,
          "velocity": 0.356,
          "name": ""
        },
        {
          "midi": 88,
          "time": 285.429,
          "duration": 0.255,
          "velocity": 0.414,
          "name": ""
        },
        {
          "midi": 62,
          "time": 285.476,
          "duration": 0.372,
          "velocity": 0.673,
          "name": ""
        },
        {
          "midi": 79,
          "time": 285.534,
          "duration": 0.081,
          "velocity": 0.331,
          "name": ""
        },
        {
          "midi": 88,
          "time": 285.754,
          "duration": 0.128,
          "velocity": 0.319,
          "name": ""
        },
        {
          "midi": 67,
          "time": 285.824,
          "duration": 0.303,
          "velocity": 0.419,
          "name": ""
        },
        {
          "midi": 59,
          "time": 285.882,
          "duration": 0.257,
          "velocity": 0.505,
          "name": ""
        },
        {
          "midi": 79,
          "time": 285.986,
          "duration": 0.094,
          "velocity": 0.328,
          "name": ""
        },
        {
          "midi": 64,
          "time": 285.998,
          "duration": 0.129,
          "velocity": 0.442,
          "name": ""
        },
        {
          "midi": 88,
          "time": 286.115,
          "duration": 0.36,
          "velocity": 0.401,
          "name": ""
        },
        {
          "midi": 67,
          "time": 286.139,
          "duration": 0.824,
          "velocity": 0.484,
          "name": ""
        },
        {
          "midi": 64,
          "time": 286.139,
          "duration": 0.209,
          "velocity": 0.473,
          "name": ""
        },
        {
          "midi": 59,
          "time": 286.139,
          "duration": 0.813,
          "velocity": 0.589,
          "name": ""
        },
        {
          "midi": 71,
          "time": 286.15,
          "duration": 0.94,
          "velocity": 0.355,
          "name": ""
        },
        {
          "midi": 79,
          "time": 286.243,
          "duration": 0.673,
          "velocity": 0.37,
          "name": ""
        },
        {
          "midi": 64,
          "time": 286.557,
          "duration": 0.116,
          "velocity": 0.344,
          "name": ""
        },
        {
          "midi": 59,
          "time": 286.951,
          "duration": 0.673,
          "velocity": 0.565,
          "name": ""
        },
        {
          "midi": 67,
          "time": 286.963,
          "duration": 0.569,
          "velocity": 0.401,
          "name": ""
        },
        {
          "midi": 64,
          "time": 286.986,
          "duration": 0.128,
          "velocity": 0.448,
          "name": ""
        },
        {
          "midi": 83,
          "time": 287.021,
          "duration": 0.093,
          "velocity": 0.332,
          "name": ""
        },
        {
          "midi": 72,
          "time": 287.091,
          "duration": 0.128,
          "velocity": 0.478,
          "name": ""
        },
        {
          "midi": 81,
          "time": 287.172,
          "duration": 0.499,
          "velocity": 0.359,
          "name": ""
        },
        {
          "midi": 62,
          "time": 287.207,
          "duration": 0.418,
          "velocity": 0.744,
          "name": ""
        },
        {
          "midi": 84,
          "time": 287.276,
          "duration": 0.302,
          "velocity": 0.394,
          "name": ""
        },
        {
          "midi": 76,
          "time": 287.427,
          "duration": 0.058,
          "velocity": 0.479,
          "name": ""
        },
        {
          "midi": 76,
          "time": 287.497,
          "duration": 0.128,
          "velocity": 0.533,
          "name": ""
        },
        {
          "midi": 62,
          "time": 287.625,
          "duration": 0.221,
          "velocity": 0.61,
          "name": ""
        },
        {
          "midi": 59,
          "time": 287.625,
          "duration": 0.163,
          "velocity": 0.516,
          "name": ""
        },
        {
          "midi": 72,
          "time": 287.625,
          "duration": 0.128,
          "velocity": 0.4,
          "name": ""
        },
        {
          "midi": 75,
          "time": 287.636,
          "duration": 0.093,
          "velocity": 0.478,
          "name": ""
        },
        {
          "midi": 66,
          "time": 287.845,
          "duration": 0.384,
          "velocity": 0.486,
          "name": ""
        },
        {
          "midi": 62,
          "time": 287.845,
          "duration": 1.987,
          "velocity": 0.57,
          "name": ""
        },
        {
          "midi": 74,
          "time": 287.857,
          "duration": 1.987,
          "velocity": 0.567,
          "name": ""
        },
        {
          "midi": 69,
          "time": 288.043,
          "duration": 0.988,
          "velocity": 0.416,
          "name": ""
        },
        {
          "midi": 67,
          "time": 289.565,
          "duration": 0.313,
          "velocity": 0.5,
          "name": ""
        },
        {
          "midi": 59,
          "time": 290.006,
          "duration": 0.094,
          "velocity": 0.542,
          "name": ""
        },
        {
          "midi": 57,
          "time": 290.089,
          "duration": 0.395,
          "velocity": 0.717,
          "name": ""
        },
        {
          "midi": 59,
          "time": 290.495,
          "duration": 0.255,
          "velocity": 0.683,
          "name": ""
        },
        {
          "midi": 71,
          "time": 290.646,
          "duration": 0.104,
          "velocity": 0.472,
          "name": ""
        },
        {
          "midi": 62,
          "time": 290.82,
          "duration": 0.395,
          "velocity": 0.767,
          "name": ""
        },
        {
          "midi": 74,
          "time": 291.215,
          "duration": 0.221,
          "velocity": 0.397,
          "name": ""
        },
        {
          "midi": 62,
          "time": 291.215,
          "duration": 0.279,
          "velocity": 0.647,
          "name": ""
        },
        {
          "midi": 86,
          "time": 291.308,
          "duration": 0.139,
          "velocity": 0.427,
          "name": ""
        },
        {
          "midi": 64,
          "time": 291.493,
          "duration": 0.151,
          "velocity": 0.524,
          "name": ""
        },
        {
          "midi": 62,
          "time": 291.656,
          "duration": 0.221,
          "velocity": 0.782,
          "name": ""
        },
        {
          "midi": 62,
          "time": 291.877,
          "duration": 0.268,
          "velocity": 0.588,
          "name": ""
        },
        {
          "midi": 74,
          "time": 292.145,
          "duration": 0.116,
          "velocity": 0.422,
          "name": ""
        },
        {
          "midi": 62,
          "time": 292.145,
          "duration": 0.186,
          "velocity": 0.693,
          "name": ""
        },
        {
          "midi": 64,
          "time": 292.331,
          "duration": 0.151,
          "velocity": 0.622,
          "name": ""
        },
        {
          "midi": 62,
          "time": 292.482,
          "duration": 0.279,
          "velocity": 0.576,
          "name": ""
        },
        {
          "midi": 62,
          "time": 292.76,
          "duration": 0.116,
          "velocity": 0.712,
          "name": ""
        },
        {
          "midi": 61,
          "time": 292.876,
          "duration": 0.058,
          "velocity": 0.262,
          "name": ""
        },
        {
          "midi": 59,
          "time": 292.981,
          "duration": 0.104,
          "velocity": 0.617,
          "name": ""
        },
        {
          "midi": 55,
          "time": 293.085,
          "duration": 0.325,
          "velocity": 0.561,
          "name": ""
        },
        {
          "midi": 55,
          "time": 293.41,
          "duration": 0.337,
          "velocity": 0.739,
          "name": ""
        },
        {
          "midi": 59,
          "time": 293.805,
          "duration": 0.186,
          "velocity": 0.654,
          "name": ""
        },
        {
          "midi": 62,
          "time": 294.027,
          "duration": 0.36,
          "velocity": 0.648,
          "name": ""
        },
        {
          "midi": 50,
          "time": 294.131,
          "duration": 0.163,
          "velocity": 0.385,
          "name": ""
        },
        {
          "midi": 59,
          "time": 294.422,
          "duration": 0.174,
          "velocity": 0.816,
          "name": ""
        },
        {
          "midi": 59,
          "time": 294.596,
          "duration": 0.174,
          "velocity": 0.668,
          "name": ""
        },
        {
          "midi": 59,
          "time": 294.77,
          "duration": 0.197,
          "velocity": 0.673,
          "name": ""
        },
        {
          "midi": 59,
          "time": 294.967,
          "duration": 0.163,
          "velocity": 0.782,
          "name": ""
        },
        {
          "midi": 59,
          "time": 295.13,
          "duration": 0.778,
          "velocity": 0.791,
          "name": ""
        },
        {
          "midi": 59,
          "time": 295.908,
          "duration": 0.303,
          "velocity": 0.673,
          "name": ""
        },
        {
          "midi": 59,
          "time": 296.362,
          "duration": 0.232,
          "velocity": 0.399,
          "name": ""
        },
        {
          "midi": 67,
          "time": 296.455,
          "duration": 0.07,
          "velocity": 0.441,
          "name": ""
        },
        {
          "midi": 71,
          "time": 296.513,
          "duration": 0.325,
          "velocity": 0.53,
          "name": ""
        },
        {
          "midi": 67,
          "time": 296.536,
          "duration": 0.325,
          "velocity": 0.601,
          "name": ""
        },
        {
          "midi": 57,
          "time": 296.849,
          "duration": 0.151,
          "velocity": 0.693,
          "name": ""
        },
        {
          "midi": 57,
          "time": 297.0,
          "duration": 0.279,
          "velocity": 0.712,
          "name": ""
        },
        {
          "midi": 57,
          "time": 297.279,
          "duration": 0.116,
          "velocity": 0.492,
          "name": ""
        },
        {
          "midi": 59,
          "time": 297.395,
          "duration": 0.244,
          "velocity": 0.672,
          "name": ""
        },
        {
          "midi": 81,
          "time": 297.709,
          "duration": 0.315,
          "velocity": 0.38,
          "name": ""
        },
        {
          "midi": 74,
          "time": 297.72,
          "duration": 0.07,
          "velocity": 0.364,
          "name": ""
        },
        {
          "midi": 62,
          "time": 297.72,
          "duration": 0.408,
          "velocity": 0.659,
          "name": ""
        },
        {
          "midi": 78,
          "time": 297.767,
          "duration": 0.093,
          "velocity": 0.36,
          "name": ""
        },
        {
          "midi": 67,
          "time": 298.163,
          "duration": 0.116,
          "velocity": 0.61,
          "name": ""
        },
        {
          "midi": 74,
          "time": 298.174,
          "duration": 0.139,
          "velocity": 0.382,
          "name": ""
        },
        {
          "midi": 62,
          "time": 298.256,
          "duration": 0.151,
          "velocity": 0.411,
          "name": ""
        },
        {
          "midi": 79,
          "time": 298.279,
          "duration": 0.209,
          "velocity": 0.297,
          "name": ""
        },
        {
          "midi": 67,
          "time": 298.279,
          "duration": 0.29,
          "velocity": 0.759,
          "name": ""
        },
        {
          "midi": 67,
          "time": 298.569,
          "duration": 0.116,
          "velocity": 0.725,
          "name": ""
        },
        {
          "midi": 78,
          "time": 298.685,
          "duration": 0.104,
          "velocity": 0.412,
          "name": ""
        },
        {
          "midi": 66,
          "time": 298.685,
          "duration": 0.139,
          "velocity": 0.619,
          "name": ""
        },
        {
          "midi": 83,
          "time": 298.836,
          "duration": 0.093,
          "velocity": 0.33,
          "name": ""
        },
        {
          "midi": 76,
          "time": 298.836,
          "duration": 0.197,
          "velocity": 0.289,
          "name": ""
        },
        {
          "midi": 64,
          "time": 298.836,
          "duration": 0.499,
          "velocity": 0.506,
          "name": ""
        },
        {
          "midi": 76,
          "time": 299.033,
          "duration": 0.07,
          "velocity": 0.376,
          "name": ""
        },
        {
          "midi": 67,
          "time": 299.335,
          "duration": 0.093,
          "velocity": 0.364,
          "name": ""
        },
        {
          "midi": 74,
          "time": 299.44,
          "duration": 0.163,
          "velocity": 0.458,
          "name": ""
        },
        {
          "midi": 67,
          "time": 299.834,
          "duration": 0.058,
          "velocity": 0.344,
          "name": ""
        },
        {
          "midi": 76,
          "time": 299.998,
          "duration": 0.174,
          "velocity": 0.375,
          "name": ""
        },
        {
          "midi": 64,
          "time": 300.265,
          "duration": 0.174,
          "velocity": 0.591,
          "name": ""
        },
        {
          "midi": 62,
          "time": 300.381,
          "duration": 0.081,
          "velocity": 0.423,
          "name": ""
        },
        {
          "midi": 62,
          "time": 300.463,
          "duration": 0.232,
          "velocity": 0.715,
          "name": ""
        },
        {
          "midi": 69,
          "time": 300.463,
          "duration": 0.081,
          "velocity": 0.36,
          "name": ""
        },
        {
          "midi": 62,
          "time": 300.695,
          "duration": 0.232,
          "velocity": 0.63,
          "name": ""
        },
        {
          "midi": 74,
          "time": 300.707,
          "duration": 0.139,
          "velocity": 0.468,
          "name": ""
        },
        {
          "midi": 71,
          "time": 300.741,
          "duration": 0.697,
          "velocity": 0.375,
          "name": ""
        },
        {
          "midi": 64,
          "time": 300.869,
          "duration": 0.209,
          "velocity": 0.584,
          "name": ""
        },
        {
          "midi": 62,
          "time": 301.055,
          "duration": 0.058,
          "velocity": 0.317,
          "name": ""
        },
        {
          "midi": 67,
          "time": 301.066,
          "duration": 0.302,
          "velocity": 0.349,
          "name": ""
        },
        {
          "midi": 64,
          "time": 301.124,
          "duration": 0.441,
          "velocity": 0.62,
          "name": ""
        },
        {
          "midi": 76,
          "time": 301.136,
          "duration": 0.093,
          "velocity": 0.406,
          "name": ""
        },
        {
          "midi": 64,
          "time": 301.566,
          "duration": 0.174,
          "velocity": 0.638,
          "name": ""
        },
        {
          "midi": 66,
          "time": 301.74,
          "duration": 0.186,
          "velocity": 0.583,
          "name": ""
        },
        {
          "midi": 62,
          "time": 301.997,
          "duration": 0.174,
          "velocity": 0.586,
          "name": ""
        },
        {
          "midi": 59,
          "time": 302.194,
          "duration": 0.221,
          "velocity": 0.557,
          "name": ""
        },
        {
          "midi": 59,
          "time": 302.414,
          "duration": 0.685,
          "velocity": 0.488,
          "name": ""
        },
        {
          "midi": 76,
          "time": 302.6,
          "duration": 0.592,
          "velocity": 0.468,
          "name": ""
        },
        {
          "midi": 62,
          "time": 302.879,
          "duration": 0.313,
          "velocity": 0.358,
          "name": ""
        },
        {
          "midi": 62,
          "time": 303.192,
          "duration": 0.151,
          "velocity": 0.438,
          "name": ""
        },
        {
          "midi": 74,
          "time": 303.216,
          "duration": 0.511,
          "velocity": 0.418,
          "name": ""
        },
        {
          "midi": 62,
          "time": 303.634,
          "duration": 0.163,
          "velocity": 0.367,
          "name": ""
        },
        {
          "midi": 57,
          "time": 303.947,
          "duration": 0.175,
          "velocity": 0.78,
          "name": ""
        },
        {
          "midi": 57,
          "time": 304.122,
          "duration": 0.186,
          "velocity": 0.649,
          "name": ""
        },
        {
          "midi": 59,
          "time": 304.308,
          "duration": 0.255,
          "velocity": 0.761,
          "name": ""
        },
        {
          "midi": 59,
          "time": 304.564,
          "duration": 0.128,
          "velocity": 0.621,
          "name": ""
        },
        {
          "midi": 57,
          "time": 304.668,
          "duration": 0.232,
          "velocity": 0.656,
          "name": ""
        },
        {
          "midi": 69,
          "time": 304.68,
          "duration": 0.174,
          "velocity": 0.293,
          "name": ""
        },
        {
          "midi": 55,
          "time": 304.947,
          "duration": 0.07,
          "velocity": 0.559,
          "name": ""
        },
        {
          "midi": 67,
          "time": 305.016,
          "duration": 0.209,
          "velocity": 0.245,
          "name": ""
        },
        {
          "midi": 55,
          "time": 305.016,
          "duration": 0.139,
          "velocity": 0.715,
          "name": ""
        },
        {
          "midi": 55,
          "time": 305.156,
          "duration": 0.093,
          "velocity": 0.664,
          "name": ""
        },
        {
          "midi": 55,
          "time": 305.249,
          "duration": 0.244,
          "velocity": 0.576,
          "name": ""
        },
        {
          "midi": 67,
          "time": 305.365,
          "duration": 0.209,
          "velocity": 0.332,
          "name": ""
        },
        {
          "midi": 55,
          "time": 305.492,
          "duration": 0.104,
          "velocity": 0.605,
          "name": ""
        },
        {
          "midi": 67,
          "time": 305.585,
          "duration": 0.139,
          "velocity": 0.484,
          "name": ""
        },
        {
          "midi": 55,
          "time": 305.597,
          "duration": 0.197,
          "velocity": 0.601,
          "name": ""
        },
        {
          "midi": 67,
          "time": 306.086,
          "duration": 0.279,
          "velocity": 0.442,
          "name": ""
        },
        {
          "midi": 55,
          "time": 306.109,
          "duration": 0.174,
          "velocity": 0.399,
          "name": ""
        },
        {
          "midi": 71,
          "time": 306.179,
          "duration": 0.07,
          "velocity": 0.378,
          "name": ""
        },
        {
          "midi": 62,
          "time": 306.248,
          "duration": 0.174,
          "velocity": 0.627,
          "name": ""
        },
        {
          "midi": 62,
          "time": 306.422,
          "duration": 0.685,
          "velocity": 0.688,
          "name": ""
        },
        {
          "midi": 74,
          "time": 306.434,
          "duration": 0.65,
          "velocity": 0.395,
          "name": ""
        },
        {
          "midi": 74,
          "time": 307.084,
          "duration": 0.139,
          "velocity": 0.445,
          "name": ""
        },
        {
          "midi": 62,
          "time": 307.107,
          "duration": 0.221,
          "velocity": 0.668,
          "name": ""
        },
        {
          "midi": 59,
          "time": 307.34,
          "duration": 0.093,
          "velocity": 0.63,
          "name": ""
        },
        {
          "midi": 58,
          "time": 307.433,
          "duration": 0.058,
          "velocity": 0.426,
          "name": ""
        },
        {
          "midi": 57,
          "time": 307.491,
          "duration": 0.267,
          "velocity": 0.716,
          "name": ""
        },
        {
          "midi": 57,
          "time": 307.758,
          "duration": 0.373,
          "velocity": 0.678,
          "name": ""
        },
        {
          "midi": 71,
          "time": 308.014,
          "duration": 0.151,
          "velocity": 0.366,
          "name": ""
        },
        {
          "midi": 59,
          "time": 308.177,
          "duration": 0.209,
          "velocity": 0.672,
          "name": ""
        },
        {
          "midi": 74,
          "time": 308.409,
          "duration": 0.104,
          "velocity": 0.448,
          "name": ""
        },
        {
          "midi": 62,
          "time": 308.409,
          "duration": 0.221,
          "velocity": 0.644,
          "name": ""
        },
        {
          "midi": 76,
          "time": 308.63,
          "duration": 2.103,
          "velocity": 0.449,
          "name": ""
        },
        {
          "midi": 64,
          "time": 308.63,
          "duration": 2.3,
          "velocity": 0.643,
          "name": ""
        },
        {
          "midi": 83,
          "time": 308.839,
          "duration": 0.058,
          "velocity": 0.331,
          "name": ""
        },
        {
          "midi": 83,
          "time": 310.105,
          "duration": 0.07,
          "velocity": 0.374,
          "name": ""
        },
        {
          "midi": 57,
          "time": 310.756,
          "duration": 0.372,
          "velocity": 0.748,
          "name": ""
        },
        {
          "midi": 59,
          "time": 311.127,
          "duration": 0.267,
          "velocity": 0.775,
          "name": ""
        },
        {
          "midi": 59,
          "time": 311.394,
          "duration": 0.128,
          "velocity": 0.62,
          "name": ""
        },
        {
          "midi": 57,
          "time": 311.487,
          "duration": 0.244,
          "velocity": 0.694,
          "name": ""
        },
        {
          "midi": 55,
          "time": 311.708,
          "duration": 0.07,
          "velocity": 0.236,
          "name": ""
        },
        {
          "midi": 55,
          "time": 311.777,
          "duration": 0.164,
          "velocity": 0.73,
          "name": ""
        },
        {
          "midi": 54,
          "time": 311.941,
          "duration": 0.058,
          "velocity": 0.554,
          "name": ""
        },
        {
          "midi": 55,
          "time": 311.999,
          "duration": 0.255,
          "velocity": 0.617,
          "name": ""
        },
        {
          "midi": 54,
          "time": 312.127,
          "duration": 0.104,
          "velocity": 0.487,
          "name": ""
        },
        {
          "midi": 55,
          "time": 312.255,
          "duration": 0.174,
          "velocity": 0.649,
          "name": ""
        },
        {
          "midi": 55,
          "time": 312.429,
          "duration": 0.476,
          "velocity": 0.623,
          "name": ""
        },
        {
          "midi": 62,
          "time": 313.009,
          "duration": 0.186,
          "velocity": 0.796,
          "name": ""
        },
        {
          "midi": 62,
          "time": 313.195,
          "duration": 0.488,
          "velocity": 0.777,
          "name": ""
        },
        {
          "midi": 74,
          "time": 313.207,
          "duration": 0.325,
          "velocity": 0.349,
          "name": ""
        },
        {
          "midi": 62,
          "time": 313.683,
          "duration": 2.777,
          "velocity": 0.722,
          "name": ""
        },
        {
          "midi": 62,
          "time": 317.598,
          "duration": 0.28,
          "velocity": 0.735,
          "name": ""
        },
        {
          "midi": 59,
          "time": 317.901,
          "duration": 0.163,
          "velocity": 0.695,
          "name": ""
        },
        {
          "midi": 57,
          "time": 318.029,
          "duration": 0.151,
          "velocity": 0.772,
          "name": ""
        },
        {
          "midi": 57,
          "time": 318.179,
          "duration": 0.522,
          "velocity": 0.725,
          "name": ""
        },
        {
          "midi": 57,
          "time": 319.422,
          "duration": 0.07,
          "velocity": 0.498,
          "name": ""
        },
        {
          "midi": 57,
          "time": 319.491,
          "duration": 0.186,
          "velocity": 0.802,
          "name": ""
        },
        {
          "midi": 69,
          "time": 319.677,
          "duration": 0.07,
          "velocity": 0.365,
          "name": ""
        },
        {
          "midi": 57,
          "time": 319.677,
          "duration": 0.268,
          "velocity": 0.715,
          "name": ""
        },
        {
          "midi": 59,
          "time": 319.934,
          "duration": 1.103,
          "velocity": 0.652,
          "name": ""
        },
        {
          "midi": 62,
          "time": 321.072,
          "duration": 0.255,
          "velocity": 0.814,
          "name": ""
        },
        {
          "midi": 62,
          "time": 321.327,
          "duration": 0.255,
          "velocity": 0.725,
          "name": ""
        },
        {
          "midi": 64,
          "time": 321.559,
          "duration": 2.417,
          "velocity": 0.805,
          "name": ""
        },
        {
          "midi": 64,
          "time": 323.977,
          "duration": 2.405,
          "velocity": 0.661,
          "name": ""
        },
        {
          "midi": 62,
          "time": 323.977,
          "duration": 0.139,
          "velocity": 0.379,
          "name": ""
        },
        {
          "midi": 62,
          "time": 324.337,
          "duration": 0.511,
          "velocity": 0.463,
          "name": ""
        },
        {
          "midi": 62,
          "time": 324.847,
          "duration": 0.488,
          "velocity": 0.516,
          "name": ""
        },
        {
          "midi": 64,
          "time": 326.381,
          "duration": 0.232,
          "velocity": 0.564,
          "name": ""
        },
        {
          "midi": 74,
          "time": 328.02,
          "duration": 0.104,
          "velocity": 0.404,
          "name": ""
        },
        {
          "midi": 59,
          "time": 328.02,
          "duration": 0.081,
          "velocity": 0.356,
          "name": ""
        },
        {
          "midi": 79,
          "time": 328.205,
          "duration": 0.081,
          "velocity": 0.35,
          "name": ""
        },
        {
          "midi": 79,
          "time": 328.786,
          "duration": 0.116,
          "velocity": 0.475,
          "name": ""
        },
        {
          "midi": 78,
          "time": 329.424,
          "duration": 0.419,
          "velocity": 0.494,
          "name": ""
        },
        {
          "midi": 66,
          "time": 330.877,
          "duration": 0.209,
          "velocity": 0.475,
          "name": ""
        },
        {
          "midi": 28,
          "time": 330.993,
          "duration": 4.53,
          "velocity": 0.751,
          "name": ""
        },
        {
          "midi": 52,
          "time": 331.202,
          "duration": 0.232,
          "velocity": 0.527,
          "name": ""
        },
        {
          "midi": 76,
          "time": 331.214,
          "duration": 0.453,
          "velocity": 0.379,
          "name": ""
        },
        {
          "midi": 47,
          "time": 331.225,
          "duration": 0.151,
          "velocity": 0.463,
          "name": ""
        },
        {
          "midi": 47,
          "time": 333.595,
          "duration": 0.093,
          "velocity": 0.352,
          "name": ""
        },
        {
          "midi": 28,
          "time": 336.221,
          "duration": 0.104,
          "velocity": 0.49,
          "name": ""
        },
        {
          "midi": 29,
          "time": 336.337,
          "duration": 0.232,
          "velocity": 0.332,
          "name": ""
        },
        {
          "midi": 29,
          "time": 339.067,
          "duration": 0.36,
          "velocity": 0.684,
          "name": ""
        }
      ]
    }
  ]
}