{
  "tracks": [
    {
      "instrument": {
        "name": "vocal"
      },
      "notes": [
        {
          "midi": 29,
          "time": 0.012,
          "duration": 7.748,
          "velocity": 0.52,
          "name": ""
        },
        {
          "midi": 29,
          "time": 8.097,
          "duration": 3.962,
          "velocity": 0.775,
          "name": ""
        },
        {
          "midi": 53,
          "time": 11.651,
          "duration": 0.93,
          "velocity": 0.445,
          "name": ""
        },
        {
          "midi": 75,
          "time": 11.767,
          "duration": 0.35,
          "velocity": 0.377,
          "name": ""
        },
        {
          "midi": 41,
          "time": 11.791,
          "duration": 0.268,
          "velocity": 0.518,
          "name": ""
        },
        {
          "midi": 58,
          "time": 12.07,
          "duration": 1.335,
          "velocity": 0.497,
          "name": ""
        },
        {
          "midi": 77,
          "time": 12.105,
          "duration": 0.128,
          "velocity": 0.452,
          "name": ""
        },
        {
          "midi": 77,
          "time": 12.372,
          "duration": 0.174,
          "velocity": 0.348,
          "name": ""
        },
        {
          "midi": 72,
          "time": 12.825,
          "duration": 0.104,
          "velocity": 0.309,
          "name": ""
        },
        {
          "midi": 80,
          "time": 13.673,
          "duration": 0.93,
          "velocity": 0.561,
          "name": ""
        },
        {
          "midi": 68,
          "time": 13.684,
          "duration": 0.547,
          "velocity": 0.401,
          "name": ""
        },
        {
          "midi": 58,
          "time": 13.696,
          "duration": 0.197,
          "velocity": 0.327,
          "name": ""
        },
        {
          "midi": 68,
          "time": 14.417,
          "duration": 0.128,
          "velocity": 0.356,
          "name": ""
        },
        {
          "midi": 60,
          "time": 14.533,
          "duration": 0.081,
          "velocity": 0.309,
          "name": ""
        },
        {
          "midi": 67,
          "time": 14.823,
          "duration": 0.209,
          "velocity": 0.397,
          "name": ""
        },
        {
          "midi": 60,
          "time": 14.847,
          "duration": 0.197,
          "velocity": 0.376,
          "name": ""
        },
        {
          "midi": 75,
          "time": 14.858,
          "duration": 0.151,
          "velocity": 0.364,
          "name": ""
        },
        {
          "midi": 60,
          "time": 15.264,
          "duration": 0.174,
          "velocity": 0.402,
          "name": ""
        },
        {
          "midi": 67,
          "time": 15.276,
          "duration": 0.139,
          "velocity": 0.339,
          "name": ""
        },
        {
          "midi": 67,
          "time": 15.671,
          "duration": 0.151,
          "velocity": 0.357,
          "name": ""
        },
        {
          "midi": 60,
          "time": 15.752,
          "duration": 0.058,
          "velocity": 0.318,
          "name": ""
        },
        {
          "midi": 75,
          "time": 16.183,
          "duration": 0.975,
          "velocity": 0.517,
          "name": ""
        },
        {
          "midi": 53,
          "time": 17.007,
          "duration": 1.65,
          "velocity": 0.465,
          "name": ""
        },
        {
          "midi": 75,
          "time": 17.158,
          "duration": 0.348,
          "velocity": 0.398,
          "name": ""
        },
        {
          "midi": 63,
          "time": 17.158,
          "duration": 1.499,
          "velocity": 0.479,
          "name": ""
        },
        {
          "midi": 51,
          "time": 17.17,
          "duration": 0.163,
          "velocity": 0.64,
          "name": ""
        },
        {
          "midi": 72,
          "time": 17.274,
          "duration": 0.163,
          "velocity": 0.286,
          "name": ""
        },
        {
          "midi": 75,
          "time": 17.727,
          "duration": 0.116,
          "velocity": 0.358,
          "name": ""
        },
        {
          "midi": 75,
          "time": 18.692,
          "duration": 0.43,
          "velocity": 0.44,
          "name": ""
        },
        {
          "midi": 71,
          "time": 18.704,
          "duration": 0.058,
          "velocity": 0.476,
          "name": ""
        },
        {
          "midi": 51,
          "time": 18.75,
          "duration": 0.43,
          "velocity": 0.61,
          "name": ""
        },
        {
          "midi": 70,
          "time": 18.901,
          "duration": 0.337,
          "velocity": 0.42,
          "name": ""
        },
        {
          "midi": 32,
          "time": 19.18,
          "duration": 0.093,
          "velocity": 0.409,
          "name": ""
        },
        {
          "midi": 75,
          "time": 19.319,
          "duration": 0.244,
          "velocity": 0.463,
          "name": ""
        },
        {
          "midi": 67,
          "time": 19.365,
          "duration": 0.221,
          "velocity": 0.614,
          "name": ""
        },
        {
          "midi": 63,
          "time": 19.365,
          "duration": 0.163,
          "velocity": 0.367,
          "name": ""
        },
        {
          "midi": 75,
          "time": 19.725,
          "duration": 0.222,
          "velocity": 0.444,
          "name": ""
        },
        {
          "midi": 67,
          "time": 19.737,
          "duration": 0.245,
          "velocity": 0.607,
          "name": ""
        },
        {
          "midi": 63,
          "time": 19.749,
          "duration": 1.847,
          "velocity": 0.557,
          "name": ""
        },
        {
          "midi": 29,
          "time": 19.795,
          "duration": 1.534,
          "velocity": 0.412,
          "name": ""
        },
        {
          "midi": 67,
          "time": 20.133,
          "duration": 0.232,
          "velocity": 0.528,
          "name": ""
        },
        {
          "midi": 67,
          "time": 20.562,
          "duration": 0.186,
          "velocity": 0.465,
          "name": ""
        },
        {
          "midi": 58,
          "time": 20.609,
          "duration": 0.882,
          "velocity": 0.44,
          "name": ""
        },
        {
          "midi": 67,
          "time": 20.98,
          "duration": 0.151,
          "velocity": 0.39,
          "name": ""
        },
        {
          "midi": 60,
          "time": 21.631,
          "duration": 0.361,
          "velocity": 0.376,
          "name": ""
        },
        {
          "midi": 58,
          "time": 21.816,
          "duration": 0.129,
          "velocity": 0.327,
          "name": ""
        },
        {
          "midi": 63,
          "time": 21.899,
          "duration": 0.313,
          "velocity": 0.768,
          "name": ""
        },
        {
          "midi": 63,
          "time": 22.212,
          "duration": 0.209,
          "velocity": 0.601,
          "name": ""
        },
        {
          "midi": 56,
          "time": 22.212,
          "duration": 2.196,
          "velocity": 0.506,
          "name": ""
        },
        {
          "midi": 53,
          "time": 22.224,
          "duration": 2.497,
          "velocity": 0.602,
          "name": ""
        },
        {
          "midi": 44,
          "time": 22.224,
          "duration": 0.128,
          "velocity": 0.472,
          "name": ""
        },
        {
          "midi": 34,
          "time": 22.259,
          "duration": 0.267,
          "velocity": 0.415,
          "name": ""
        },
        {
          "midi": 46,
          "time": 22.41,
          "duration": 1.638,
          "velocity": 0.603,
          "name": ""
        },
        {
          "midi": 61,
          "time": 24.083,
          "duration": 0.383,
          "velocity": 0.693,
          "name": ""
        },
        {
          "midi": 46,
          "time": 24.269,
          "duration": 0.372,
          "velocity": 0.365,
          "name": ""
        },
        {
          "midi": 37,
          "time": 24.303,
          "duration": 0.372,
          "velocity": 0.454,
          "name": ""
        },
        {
          "midi": 68,
          "time": 24.408,
          "duration": 0.221,
          "velocity": 0.484,
          "name": ""
        },
        {
          "midi": 56,
          "time": 24.408,
          "duration": 0.36,
          "velocity": 0.368,
          "name": ""
        },
        {
          "midi": 49,
          "time": 24.408,
          "duration": 0.325,
          "velocity": 0.584,
          "name": ""
        },
        {
          "midi": 61,
          "time": 24.663,
          "duration": 0.07,
          "velocity": 0.346,
          "name": ""
        },
        {
          "midi": 58,
          "time": 24.733,
          "duration": 2.207,
          "velocity": 0.414,
          "name": ""
        },
        {
          "midi": 63,
          "time": 24.745,
          "duration": 0.546,
          "velocity": 0.469,
          "name": ""
        },
        {
          "midi": 48,
          "time": 24.756,
          "duration": 2.625,
          "velocity": 0.554,
          "name": ""
        },
        {
          "midi": 39,
          "time": 24.861,
          "duration": 0.789,
          "velocity": 0.403,
          "name": ""
        },
        {
          "midi": 63,
          "time": 25.476,
          "duration": 0.186,
          "velocity": 0.429,
          "name": ""
        },
        {
          "midi": 63,
          "time": 26.313,
          "duration": 0.65,
          "velocity": 0.532,
          "name": ""
        },
        {
          "midi": 39,
          "time": 26.313,
          "duration": 0.29,
          "velocity": 0.399,
          "name": ""
        },
        {
          "midi": 29,
          "time": 26.754,
          "duration": 0.511,
          "velocity": 0.381,
          "name": ""
        },
        {
          "midi": 41,
          "time": 27.056,
          "duration": 2.463,
          "velocity": 0.714,
          "name": ""
        },
        {
          "midi": 63,
          "time": 27.091,
          "duration": 0.139,
          "velocity": 0.467,
          "name": ""
        },
        {
          "midi": 58,
          "time": 27.184,
          "duration": 2.346,
          "velocity": 0.494,
          "name": ""
        },
        {
          "midi": 29,
          "time": 28.602,
          "duration": 0.093,
          "velocity": 0.324,
          "name": ""
        },
        {
          "midi": 29,
          "time": 29.205,
          "duration": 0.128,
          "velocity": 0.352,
          "name": ""
        },
        {
          "midi": 41,
          "time": 29.961,
          "duration": 0.209,
          "velocity": 0.391,
          "name": ""
        },
        {
          "midi": 41,
          "time": 30.426,
          "duration": 0.081,
          "velocity": 0.335,
          "name": ""
        },
        {
          "midi": 93,
          "time": 31.076,
          "duration": 0.093,
          "velocity": 0.46,
          "name": ""
        },
        {
          "midi": 48,
          "time": 31.54,
          "duration": 0.116,
          "velocity": 0.702,
          "name": ""
        },
        {
          "midi": 48,
          "time": 31.656,
          "duration": 0.233,
          "velocity": 0.704,
          "name": ""
        },
        {
          "midi": 51,
          "time": 32.041,
          "duration": 0.441,
          "velocity": 0.75,
          "name": ""
        },
        {
          "midi": 53,
          "time": 32.505,
          "duration": 0.139,
          "velocity": 0.577,
          "name": ""
        },
        {
          "midi": 53,
          "time": 32.645,
          "duration": 0.302,
          "velocity": 0.611,
          "name": ""
        },
        {
          "midi": 53,
          "time": 32.946,
          "duration": 0.255,
          "velocity": 0.607,
          "name": ""
        },
        {
          "midi": 53,
          "time": 33.202,
          "duration": 0.058,
          "velocity": 0.566,
          "name": ""
        },
        {
          "midi": 53,
          "time": 33.26,
          "duration": 0.255,
          "velocity": 0.444,
          "name": ""
        },
        {
          "midi": 53,
          "time": 33.515,
          "duration": 0.058,
          "velocity": 0.497,
          "name": ""
        },
        {
          "midi": 53,
          "time": 33.573,
          "duration": 0.326,
          "velocity": 0.612,
          "name": ""
        },
        {
          "midi": 58,
          "time": 34.039,
          "duration": 0.174,
          "velocity": 0.699,
          "name": ""
        },
        {
          "midi": 60,
          "time": 34.213,
          "duration": 0.337,
          "velocity": 0.719,
          "name": ""
        },
        {
          "midi": 58,
          "time": 34.654,
          "duration": 0.372,
          "velocity": 0.793,
          "name": ""
        },
        {
          "midi": 58,
          "time": 35.026,
          "duration": 0.151,
          "velocity": 0.708,
          "name": ""
        },
        {
          "midi": 56,
          "time": 35.154,
          "duration": 0.116,
          "velocity": 0.546,
          "name": ""
        },
        {
          "midi": 55,
          "time": 35.27,
          "duration": 0.093,
          "velocity": 0.458,
          "name": ""
        },
        {
          "midi": 55,
          "time": 35.548,
          "duration": 0.081,
          "velocity": 0.353,
          "name": ""
        },
        {
          "midi": 53,
          "time": 35.898,
          "duration": 0.232,
          "velocity": 0.72,
          "name": ""
        },
        {
          "midi": 55,
          "time": 36.13,
          "duration": 0.313,
          "velocity": 0.696,
          "name": ""
        },
        {
          "midi": 51,
          "time": 36.548,
          "duration": 0.221,
          "velocity": 0.765,
          "name": ""
        },
        {
          "midi": 51,
          "time": 36.769,
          "duration": 0.337,
          "velocity": 0.728,
          "name": ""
        },
        {
          "midi": 50,
          "time": 37.152,
          "duration": 0.093,
          "velocity": 0.504,
          "name": ""
        },
        {
          "midi": 49,
          "time": 37.245,
          "duration": 0.07,
          "velocity": 0.445,
          "name": ""
        },
        {
          "midi": 48,
          "time": 37.314,
          "duration": 0.058,
          "velocity": 0.518,
          "name": ""
        },
        {
          "midi": 48,
          "time": 37.372,
          "duration": 1.0,
          "velocity": 0.785,
          "name": ""
        },
        {
          "midi": 67,
          "time": 37.663,
          "duration": 0.07,
          "velocity": 0.308,
          "name": ""
        },
        {
          "midi": 60,
          "time": 38.035,
          "duration": 0.058,
          "velocity": 0.31,
          "name": ""
        },
        {
          "midi": 48,
          "time": 38.372,
          "duration": 0.244,
          "velocity": 0.809,
          "name": ""
        },
        {
          "midi": 48,
          "time": 38.616,
          "duration": 0.534,
          "velocity": 0.75,
          "name": ""
        },
        {
          "midi": 55,
          "time": 39.371,
          "duration": 0.081,
          "velocity": 0.472,
          "name": ""
        },
        {
          "midi": 43,
          "time": 39.417,
          "duration": 0.151,
          "velocity": 0.361,
          "name": ""
        },
        {
          "midi": 41,
          "time": 39.941,
          "duration": 0.128,
          "velocity": 0.36,
          "name": ""
        },
        {
          "midi": 41,
          "time": 40.219,
          "duration": 0.209,
          "velocity": 0.418,
          "name": ""
        },
        {
          "midi": 41,
          "time": 40.603,
          "duration": 0.151,
          "velocity": 0.365,
          "name": ""
        },
        {
          "midi": 56,
          "time": 40.846,
          "duration": 0.151,
          "velocity": 0.412,
          "name": ""
        },
        {
          "midi": 48,
          "time": 41.613,
          "duration": 0.07,
          "velocity": 0.443,
          "name": ""
        },
        {
          "midi": 48,
          "time": 41.682,
          "duration": 0.419,
          "velocity": 0.609,
          "name": ""
        },
        {
          "midi": 56,
          "time": 41.788,
          "duration": 0.081,
          "velocity": 0.318,
          "name": ""
        },
        {
          "midi": 51,
          "time": 42.241,
          "duration": 0.081,
          "velocity": 0.673,
          "name": ""
        },
        {
          "midi": 51,
          "time": 42.322,
          "duration": 0.279,
          "velocity": 0.708,
          "name": ""
        },
        {
          "midi": 53,
          "time": 42.601,
          "duration": 0.081,
          "velocity": 0.701,
          "name": ""
        },
        {
          "midi": 53,
          "time": 42.682,
          "duration": 0.093,
          "velocity": 0.703,
          "name": ""
        },
        {
          "midi": 53,
          "time": 42.775,
          "duration": 0.313,
          "velocity": 0.529,
          "name": ""
        },
        {
          "midi": 53,
          "time": 43.088,
          "duration": 0.232,
          "velocity": 0.648,
          "name": ""
        },
        {
          "midi": 53,
          "time": 43.379,
          "duration": 0.058,
          "velocity": 0.447,
          "name": ""
        },
        {
          "midi": 53,
          "time": 43.437,
          "duration": 0.244,
          "velocity": 0.694,
          "name": ""
        },
        {
          "midi": 51,
          "time": 43.751,
          "duration": 0.197,
          "velocity": 0.672,
          "name": ""
        },
        {
          "midi": 53,
          "time": 43.949,
          "duration": 0.174,
          "velocity": 0.643,
          "name": ""
        },
        {
          "midi": 56,
          "time": 44.239,
          "duration": 0.464,
          "velocity": 0.558,
          "name": ""
        },
        {
          "midi": 56,
          "time": 44.703,
          "duration": 0.325,
          "velocity": 0.725,
          "name": ""
        },
        {
          "midi": 80,
          "time": 44.715,
          "duration": 0.139,
          "velocity": 0.345,
          "name": ""
        },
        {
          "midi": 58,
          "time": 45.029,
          "duration": 0.232,
          "velocity": 0.736,
          "name": ""
        },
        {
          "midi": 56,
          "time": 45.296,
          "duration": 0.07,
          "velocity": 0.732,
          "name": ""
        },
        {
          "midi": 55,
          "time": 45.365,
          "duration": 0.104,
          "velocity": 0.533,
          "name": ""
        },
        {
          "midi": 55,
          "time": 45.47,
          "duration": 0.151,
          "velocity": 0.665,
          "name": ""
        },
        {
          "midi": 67,
          "time": 45.621,
          "duration": 0.106,
          "velocity": 0.319,
          "name": ""
        },
        {
          "midi": 55,
          "time": 45.621,
          "duration": 0.268,
          "velocity": 0.728,
          "name": ""
        },
        {
          "midi": 53,
          "time": 45.854,
          "duration": 0.081,
          "velocity": 0.474,
          "name": ""
        },
        {
          "midi": 53,
          "time": 45.935,
          "duration": 0.267,
          "velocity": 0.7,
          "name": ""
        },
        {
          "midi": 55,
          "time": 46.26,
          "duration": 0.302,
          "velocity": 0.739,
          "name": ""
        },
        {
          "midi": 55,
          "time": 46.562,
          "duration": 0.325,
          "velocity": 0.705,
          "name": ""
        },
        {
          "midi": 56,
          "time": 46.887,
          "duration": 0.221,
          "velocity": 0.72,
          "name": ""
        },
        {
          "midi": 55,
          "time": 47.108,
          "duration": 0.07,
          "velocity": 0.679,
          "name": ""
        },
        {
          "midi": 55,
          "time": 47.178,
          "duration": 0.36,
          "velocity": 0.795,
          "name": ""
        },
        {
          "midi": 56,
          "time": 47.538,
          "duration": 1.917,
          "velocity": 0.719,
          "name": ""
        },
        {
          "midi": 56,
          "time": 49.454,
          "duration": 0.139,
          "velocity": 0.879,
          "name": ""
        },
        {
          "midi": 56,
          "time": 49.594,
          "duration": 0.477,
          "velocity": 0.679,
          "name": ""
        },
        {
          "midi": 58,
          "time": 52.22,
          "duration": 0.395,
          "velocity": 0.801,
          "name": ""
        },
        {
          "midi": 58,
          "time": 52.615,
          "duration": 0.128,
          "velocity": 0.682,
          "name": ""
        },
        {
          "midi": 60,
          "time": 52.766,
          "duration": 0.128,
          "velocity": 0.685,
          "name": ""
        },
        {
          "midi": 60,
          "time": 52.894,
          "duration": 0.337,
          "velocity": 0.616,
          "name": ""
        },
        {
          "midi": 60,
          "time": 53.23,
          "duration": 0.267,
          "velocity": 0.815,
          "name": ""
        },
        {
          "midi": 60,
          "time": 53.497,
          "duration": 0.116,
          "velocity": 0.696,
          "name": ""
        },
        {
          "midi": 58,
          "time": 53.579,
          "duration": 0.233,
          "velocity": 0.682,
          "name": ""
        },
        {
          "midi": 58,
          "time": 53.812,
          "duration": 0.209,
          "velocity": 0.723,
          "name": ""
        },
        {
          "midi": 60,
          "time": 54.009,
          "duration": 0.406,
          "velocity": 0.593,
          "name": ""
        },
        {
          "midi": 56,
          "time": 54.474,
          "duration": 0.116,
          "velocity": 0.817,
          "name": ""
        },
        {
          "midi": 56,
          "time": 54.59,
          "duration": 0.221,
          "velocity": 0.526,
          "name": ""
        },
        {
          "midi": 56,
          "time": 54.811,
          "duration": 0.29,
          "velocity": 0.705,
          "name": ""
        },
        {
          "midi": 58,
          "time": 55.112,
          "duration": 0.151,
          "velocity": 0.745,
          "name": ""
        },
        {
          "midi": 58,
          "time": 55.263,
          "duration": 0.337,
          "velocity": 0.682,
          "name": ""
        },
        {
          "midi": 58,
          "time": 56.008,
          "duration": 0.348,
          "velocity": 0.608,
          "name": ""
        },
        {
          "midi": 58,
          "time": 56.356,
          "duration": 0.325,
          "velocity": 0.742,
          "name": ""
        },
        {
          "midi": 60,
          "time": 56.669,
          "duration": 0.058,
          "velocity": 0.672,
          "name": ""
        },
        {
          "midi": 60,
          "time": 56.727,
          "duration": 0.255,
          "velocity": 0.791,
          "name": ""
        },
        {
          "midi": 63,
          "time": 56.994,
          "duration": 0.232,
          "velocity": 0.65,
          "name": ""
        },
        {
          "midi": 58,
          "time": 57.343,
          "duration": 0.104,
          "velocity": 0.734,
          "name": ""
        },
        {
          "midi": 58,
          "time": 57.447,
          "duration": 0.104,
          "velocity": 0.689,
          "name": ""
        },
        {
          "midi": 60,
          "time": 57.552,
          "duration": 0.28,
          "velocity": 0.712,
          "name": ""
        },
        {
          "midi": 58,
          "time": 57.971,
          "duration": 0.104,
          "velocity": 0.466,
          "name": ""
        },
        {
          "midi": 58,
          "time": 58.389,
          "duration": 0.174,
          "velocity": 0.7,
          "name": ""
        },
        {
          "midi": 58,
          "time": 58.563,
          "duration": 0.058,
          "velocity": 0.787,
          "name": ""
        },
        {
          "midi": 58,
          "time": 58.621,
          "duration": 0.221,
          "velocity": 0.66,
          "name": ""
        },
        {
          "midi": 56,
          "time": 58.9,
          "duration": 0.163,
          "velocity": 0.657,
          "name": ""
        },
        {
          "midi": 58,
          "time": 59.062,
          "duration": 0.244,
          "velocity": 0.72,
          "name": ""
        },
        {
          "midi": 56,
          "time": 59.283,
          "duration": 0.07,
          "velocity": 0.594,
          "name": ""
        },
        {
          "midi": 56,
          "time": 59.353,
          "duration": 0.058,
          "velocity": 0.704,
          "name": ""
        },
        {
          "midi": 55,
          "time": 59.411,
          "duration": 0.21,
          "velocity": 0.625,
          "name": ""
        },
        {
          "midi": 56,
          "time": 59.888,
          "duration": 0.859,
          "velocity": 0.777,
          "name": ""
        },
        {
          "midi": 56,
          "time": 60.747,
          "duration": 0.116,
          "velocity": 0.81,
          "name": ""
        },
        {
          "midi": 55,
          "time": 60.863,
          "duration": 0.081,
          "velocity": 0.335,
          "name": ""
        },
        {
          "midi": 56,
          "time": 60.944,
          "duration": 0.29,
          "velocity": 0.756,
          "name": ""
        },
        {
          "midi": 58,
          "time": 61.2,
          "duration": 0.081,
          "velocity": 0.364,
          "name": ""
        },
        {
          "midi": 55,
          "time": 62.351,
          "duration": 0.058,
          "velocity": 0.491,
          "name": ""
        },
        {
          "midi": 55,
          "time": 62.409,
          "duration": 0.29,
          "velocity": 0.634,
          "name": ""
        },
        {
          "midi": 55,
          "time": 62.699,
          "duration": 0.151,
          "velocity": 0.777,
          "name": ""
        },
        {
          "midi": 56,
          "time": 62.85,
          "duration": 0.151,
          "velocity": 0.802,
          "name": ""
        },
        {
          "midi": 55,
          "time": 63.001,
          "duration": 0.081,
          "velocity": 0.704,
          "name": ""
        },
        {
          "midi": 55,
          "time": 63.082,
          "duration": 0.221,
          "velocity": 0.64,
          "name": ""
        },
        {
          "midi": 53,
          "time": 63.384,
          "duration": 0.524,
          "velocity": 0.781,
          "name": ""
        },
        {
          "midi": 53,
          "time": 64.604,
          "duration": 0.313,
          "velocity": 0.618,
          "name": ""
        },
        {
          "midi": 53,
          "time": 64.918,
          "duration": 0.279,
          "velocity": 0.714,
          "name": ""
        },
        {
          "midi": 53,
          "time": 65.196,
          "duration": 0.151,
          "velocity": 0.632,
          "name": ""
        },
        {
          "midi": 55,
          "time": 65.347,
          "duration": 0.174,
          "velocity": 0.779,
          "name": ""
        },
        {
          "midi": 55,
          "time": 65.521,
          "duration": 0.117,
          "velocity": 0.655,
          "name": ""
        },
        {
          "midi": 53,
          "time": 65.616,
          "duration": 0.197,
          "velocity": 0.695,
          "name": ""
        },
        {
          "midi": 51,
          "time": 65.859,
          "duration": 0.151,
          "velocity": 0.611,
          "name": ""
        },
        {
          "midi": 51,
          "time": 66.196,
          "duration": 0.07,
          "velocity": 0.207,
          "name": ""
        },
        {
          "midi": 51,
          "time": 66.266,
          "duration": 0.209,
          "velocity": 0.704,
          "name": ""
        },
        {
          "midi": 51,
          "time": 66.475,
          "duration": 0.221,
          "velocity": 0.814,
          "name": ""
        },
        {
          "midi": 51,
          "time": 66.695,
          "duration": 0.104,
          "velocity": 0.783,
          "name": ""
        },
        {
          "midi": 51,
          "time": 66.8,
          "duration": 0.186,
          "velocity": 0.689,
          "name": ""
        },
        {
          "midi": 48,
          "time": 67.508,
          "duration": 0.152,
          "velocity": 0.31,
          "name": ""
        },
        {
          "midi": 51,
          "time": 68.043,
          "duration": 0.232,
          "velocity": 0.701,
          "name": ""
        },
        {
          "midi": 53,
          "time": 68.275,
          "duration": 2.277,
          "velocity": 0.79,
          "name": ""
        },
        {
          "midi": 89,
          "time": 68.473,
          "duration": 0.441,
          "velocity": 0.352,
          "name": ""
        },
        {
          "midi": 55,
          "time": 71.133,
          "duration": 0.36,
          "velocity": 0.637,
          "name": ""
        },
        {
          "midi": 56,
          "time": 71.493,
          "duration": 0.071,
          "velocity": 0.518,
          "name": ""
        },
        {
          "midi": 55,
          "time": 71.564,
          "duration": 0.232,
          "velocity": 0.711,
          "name": ""
        },
        {
          "midi": 53,
          "time": 71.773,
          "duration": 0.232,
          "velocity": 0.67,
          "name": ""
        },
        {
          "midi": 53,
          "time": 72.005,
          "duration": 0.104,
          "velocity": 0.711,
          "name": ""
        },
        {
          "midi": 65,
          "time": 72.109,
          "duration": 0.116,
          "velocity": 0.348,
          "name": ""
        },
        {
          "midi": 53,
          "time": 72.109,
          "duration": 0.058,
          "velocity": 0.781,
          "name": ""
        },
        {
          "midi": 53,
          "time": 72.167,
          "duration": 0.499,
          "velocity": 0.772,
          "name": ""
        },
        {
          "midi": 63,
          "time": 72.783,
          "duration": 0.197,
          "velocity": 0.765,
          "name": ""
        },
        {
          "midi": 65,
          "time": 72.968,
          "duration": 0.593,
          "velocity": 0.701,
          "name": ""
        },
        {
          "midi": 89,
          "time": 73.189,
          "duration": 0.116,
          "velocity": 0.373,
          "name": ""
        },
        {
          "midi": 68,
          "time": 73.433,
          "duration": 0.07,
          "velocity": 0.37,
          "name": ""
        },
        {
          "midi": 63,
          "time": 73.678,
          "duration": 0.348,
          "velocity": 0.616,
          "name": ""
        },
        {
          "midi": 63,
          "time": 74.026,
          "duration": 0.221,
          "velocity": 0.739,
          "name": ""
        },
        {
          "midi": 84,
          "time": 74.247,
          "duration": 0.07,
          "velocity": 0.274,
          "name": ""
        },
        {
          "midi": 65,
          "time": 74.247,
          "duration": 0.337,
          "velocity": 0.724,
          "name": ""
        },
        {
          "midi": 53,
          "time": 74.955,
          "duration": 0.139,
          "velocity": 0.532,
          "name": ""
        },
        {
          "midi": 58,
          "time": 75.303,
          "duration": 0.128,
          "velocity": 0.648,
          "name": ""
        },
        {
          "midi": 60,
          "time": 75.443,
          "duration": 0.152,
          "velocity": 0.652,
          "name": ""
        },
        {
          "midi": 58,
          "time": 75.572,
          "duration": 0.058,
          "velocity": 0.268,
          "name": ""
        },
        {
          "midi": 58,
          "time": 75.63,
          "duration": 0.163,
          "velocity": 0.645,
          "name": ""
        },
        {
          "midi": 59,
          "time": 75.943,
          "duration": 0.07,
          "velocity": 0.471,
          "name": ""
        },
        {
          "midi": 58,
          "time": 76.013,
          "duration": 0.093,
          "velocity": 0.648,
          "name": ""
        },
        {
          "midi": 60,
          "time": 76.094,
          "duration": 0.186,
          "velocity": 0.679,
          "name": ""
        },
        {
          "midi": 59,
          "time": 76.361,
          "duration": 0.058,
          "velocity": 0.378,
          "name": ""
        },
        {
          "midi": 58,
          "time": 76.419,
          "duration": 0.07,
          "velocity": 0.746,
          "name": ""
        },
        {
          "midi": 58,
          "time": 76.489,
          "duration": 0.151,
          "velocity": 0.661,
          "name": ""
        },
        {
          "midi": 53,
          "time": 76.86,
          "duration": 0.116,
          "velocity": 0.479,
          "name": ""
        },
        {
          "midi": 65,
          "time": 77.185,
          "duration": 0.128,
          "velocity": 0.694,
          "name": ""
        },
        {
          "midi": 67,
          "time": 77.302,
          "duration": 0.174,
          "velocity": 0.708,
          "name": ""
        },
        {
          "midi": 79,
          "time": 77.313,
          "duration": 0.093,
          "velocity": 0.302,
          "name": ""
        },
        {
          "midi": 68,
          "time": 77.512,
          "duration": 0.244,
          "velocity": 0.648,
          "name": ""
        },
        {
          "midi": 65,
          "time": 77.802,
          "duration": 0.174,
          "velocity": 0.691,
          "name": ""
        },
        {
          "midi": 79,
          "time": 77.976,
          "duration": 0.07,
          "velocity": 0.287,
          "name": ""
        },
        {
          "midi": 67,
          "time": 77.976,
          "duration": 0.186,
          "velocity": 0.679,
          "name": ""
        },
        {
          "midi": 65,
          "time": 78.174,
          "duration": 0.209,
          "velocity": 0.729,
          "name": ""
        },
        {
          "midi": 63,
          "time": 78.371,
          "duration": 0.07,
          "velocity": 0.522,
          "name": ""
        },
        {
          "midi": 63,
          "time": 78.441,
          "duration": 0.313,
          "velocity": 0.662,
          "name": ""
        },
        {
          "midi": 60,
          "time": 78.801,
          "duration": 0.128,
          "velocity": 0.589,
          "name": ""
        },
        {
          "midi": 63,
          "time": 79.102,
          "duration": 0.373,
          "velocity": 0.876,
          "name": ""
        },
        {
          "midi": 63,
          "time": 79.475,
          "duration": 0.255,
          "velocity": 0.776,
          "name": ""
        },
        {
          "midi": 58,
          "time": 80.032,
          "duration": 0.116,
          "velocity": 0.819,
          "name": ""
        },
        {
          "midi": 58,
          "time": 80.149,
          "duration": 0.221,
          "velocity": 0.52,
          "name": ""
        },
        {
          "midi": 58,
          "time": 80.369,
          "duration": 0.058,
          "velocity": 0.775,
          "name": ""
        },
        {
          "midi": 58,
          "time": 80.427,
          "duration": 0.116,
          "velocity": 0.654,
          "name": ""
        },
        {
          "midi": 60,
          "time": 80.543,
          "duration": 0.151,
          "velocity": 0.79,
          "name": ""
        },
        {
          "midi": 59,
          "time": 80.694,
          "duration": 0.07,
          "velocity": 0.305,
          "name": ""
        },
        {
          "midi": 58,
          "time": 80.799,
          "duration": 0.139,
          "velocity": 0.205,
          "name": ""
        },
        {
          "midi": 60,
          "time": 80.857,
          "duration": 0.093,
          "velocity": 0.549,
          "name": ""
        },
        {
          "midi": 58,
          "time": 80.938,
          "duration": 0.209,
          "velocity": 0.674,
          "name": ""
        },
        {
          "midi": 56,
          "time": 81.135,
          "duration": 0.279,
          "velocity": 0.77,
          "name": ""
        },
        {
          "midi": 56,
          "time": 81.414,
          "duration": 0.094,
          "velocity": 0.803,
          "name": ""
        },
        {
          "midi": 55,
          "time": 81.449,
          "duration": 0.048,
          "velocity": 0.277,
          "name": ""
        },
        {
          "midi": 56,
          "time": 81.508,
          "duration": 0.186,
          "velocity": 0.774,
          "name": ""
        },
        {
          "midi": 55,
          "time": 81.613,
          "duration": 0.058,
          "velocity": 0.298,
          "name": ""
        },
        {
          "midi": 56,
          "time": 81.694,
          "duration": 0.139,
          "velocity": 0.568,
          "name": ""
        },
        {
          "midi": 55,
          "time": 82.344,
          "duration": 0.197,
          "velocity": 0.702,
          "name": ""
        },
        {
          "midi": 56,
          "time": 82.542,
          "duration": 0.07,
          "velocity": 0.596,
          "name": ""
        },
        {
          "midi": 55,
          "time": 82.611,
          "duration": 0.128,
          "velocity": 0.502,
          "name": ""
        },
        {
          "midi": 75,
          "time": 82.89,
          "duration": 0.07,
          "velocity": 0.304,
          "name": ""
        },
        {
          "midi": 63,
          "time": 82.89,
          "duration": 0.186,
          "velocity": 0.722,
          "name": ""
        },
        {
          "midi": 84,
          "time": 83.064,
          "duration": 0.104,
          "velocity": 0.282,
          "name": ""
        },
        {
          "midi": 65,
          "time": 83.064,
          "duration": 0.255,
          "velocity": 0.779,
          "name": ""
        },
        {
          "midi": 65,
          "time": 83.319,
          "duration": 0.164,
          "velocity": 0.607,
          "name": ""
        },
        {
          "midi": 65,
          "time": 83.483,
          "duration": 0.139,
          "velocity": 0.761,
          "name": ""
        },
        {
          "midi": 65,
          "time": 83.623,
          "duration": 0.139,
          "velocity": 0.545,
          "name": ""
        },
        {
          "midi": 65,
          "time": 83.762,
          "duration": 0.058,
          "velocity": 0.491,
          "name": ""
        },
        {
          "midi": 65,
          "time": 83.82,
          "duration": 0.186,
          "velocity": 0.709,
          "name": ""
        },
        {
          "midi": 79,
          "time": 84.006,
          "duration": 0.267,
          "velocity": 0.366,
          "name": ""
        },
        {
          "midi": 67,
          "time": 84.006,
          "duration": 0.418,
          "velocity": 0.722,
          "name": ""
        },
        {
          "midi": 65,
          "time": 84.4,
          "duration": 0.163,
          "velocity": 0.675,
          "name": ""
        },
        {
          "midi": 67,
          "time": 84.575,
          "duration": 0.128,
          "velocity": 0.402,
          "name": ""
        },
        {
          "midi": 63,
          "time": 84.749,
          "duration": 0.058,
          "velocity": 0.622,
          "name": ""
        },
        {
          "midi": 63,
          "time": 84.818,
          "duration": 0.081,
          "velocity": 0.856,
          "name": ""
        },
        {
          "midi": 63,
          "time": 84.9,
          "duration": 0.151,
          "velocity": 0.714,
          "name": ""
        },
        {
          "midi": 58,
          "time": 85.085,
          "duration": 0.174,
          "velocity": 0.649,
          "name": ""
        },
        {
          "midi": 60,
          "time": 85.271,
          "duration": 0.384,
          "velocity": 0.767,
          "name": ""
        },
        {
          "midi": 59,
          "time": 85.656,
          "duration": 0.058,
          "velocity": 0.588,
          "name": ""
        },
        {
          "midi": 60,
          "time": 85.714,
          "duration": 0.081,
          "velocity": 0.551,
          "name": ""
        },
        {
          "midi": 58,
          "time": 85.795,
          "duration": 0.255,
          "velocity": 0.684,
          "name": ""
        },
        {
          "midi": 68,
          "time": 86.375,
          "duration": 0.07,
          "velocity": 0.375,
          "name": ""
        },
        {
          "midi": 56,
          "time": 86.375,
          "duration": 0.07,
          "velocity": 0.769,
          "name": ""
        },
        {
          "midi": 56,
          "time": 86.445,
          "duration": 0.07,
          "velocity": 0.843,
          "name": ""
        },
        {
          "midi": 56,
          "time": 86.515,
          "duration": 0.139,
          "velocity": 0.746,
          "name": ""
        },
        {
          "midi": 56,
          "time": 86.654,
          "duration": 0.36,
          "velocity": 0.76,
          "name": ""
        },
        {
          "midi": 56,
          "time": 87.014,
          "duration": 0.267,
          "velocity": 0.62,
          "name": ""
        },
        {
          "midi": 58,
          "time": 87.316,
          "duration": 0.28,
          "velocity": 0.762,
          "name": ""
        },
        {
          "midi": 58,
          "time": 87.596,
          "duration": 0.197,
          "velocity": 0.63,
          "name": ""
        },
        {
          "midi": 60,
          "time": 87.805,
          "duration": 1.627,
          "velocity": 0.797,
          "name": ""
        },
        {
          "midi": 60,
          "time": 89.431,
          "duration": 0.174,
          "velocity": 0.823,
          "name": ""
        },
        {
          "midi": 60,
          "time": 89.606,
          "duration": 0.093,
          "velocity": 0.831,
          "name": ""
        },
        {
          "midi": 60,
          "time": 89.698,
          "duration": 0.255,
          "velocity": 0.792,
          "name": ""
        },
        {
          "midi": 60,
          "time": 89.954,
          "duration": 0.104,
          "velocity": 0.825,
          "name": ""
        },
        {
          "midi": 60,
          "time": 90.058,
          "duration": 0.093,
          "velocity": 0.889,
          "name": ""
        },
        {
          "midi": 60,
          "time": 90.151,
          "duration": 0.348,
          "velocity": 0.735,
          "name": ""
        },
        {
          "midi": 61,
          "time": 90.499,
          "duration": 0.313,
          "velocity": 0.617,
          "name": ""
        },
        {
          "midi": 55,
          "time": 91.383,
          "duration": 0.139,
          "velocity": 0.777,
          "name": ""
        },
        {
          "midi": 56,
          "time": 91.522,
          "duration": 0.116,
          "velocity": 0.818,
          "name": ""
        },
        {
          "midi": 56,
          "time": 91.639,
          "duration": 0.058,
          "velocity": 0.781,
          "name": ""
        },
        {
          "midi": 56,
          "time": 91.697,
          "duration": 0.116,
          "velocity": 0.736,
          "name": ""
        },
        {
          "midi": 55,
          "time": 91.813,
          "duration": 0.255,
          "velocity": 0.662,
          "name": ""
        },
        {
          "midi": 53,
          "time": 92.091,
          "duration": 0.197,
          "velocity": 0.468,
          "name": ""
        },
        {
          "midi": 52,
          "time": 92.324,
          "duration": 0.081,
          "velocity": 0.339,
          "name": ""
        },
        {
          "midi": 53,
          "time": 92.509,
          "duration": 0.221,
          "velocity": 0.574,
          "name": ""
        },
        {
          "midi": 63,
          "time": 92.974,
          "duration": 0.186,
          "velocity": 0.715,
          "name": ""
        },
        {
          "midi": 65,
          "time": 93.159,
          "duration": 0.419,
          "velocity": 0.756,
          "name": ""
        },
        {
          "midi": 63,
          "time": 93.555,
          "duration": 0.36,
          "velocity": 0.757,
          "name": ""
        },
        {
          "midi": 63,
          "time": 93.915,
          "duration": 0.313,
          "velocity": 0.761,
          "name": ""
        },
        {
          "midi": 63,
          "time": 94.229,
          "duration": 0.221,
          "velocity": 0.76,
          "name": ""
        },
        {
          "midi": 65,
          "time": 94.438,
          "duration": 0.731,
          "velocity": 0.638,
          "name": ""
        },
        {
          "midi": 58,
          "time": 95.204,
          "duration": 0.164,
          "velocity": 0.676,
          "name": ""
        },
        {
          "midi": 60,
          "time": 95.356,
          "duration": 0.221,
          "velocity": 0.673,
          "name": ""
        },
        {
          "midi": 60,
          "time": 95.577,
          "duration": 0.221,
          "velocity": 0.708,
          "name": ""
        },
        {
          "midi": 58,
          "time": 95.763,
          "duration": 0.058,
          "velocity": 0.285,
          "name": ""
        },
        {
          "midi": 58,
          "time": 95.821,
          "duration": 0.128,
          "velocity": 0.672,
          "name": ""
        },
        {
          "midi": 58,
          "time": 95.948,
          "duration": 0.139,
          "velocity": 0.581,
          "name": ""
        },
        {
          "midi": 58,
          "time": 96.471,
          "duration": 0.186,
          "velocity": 0.675,
          "name": ""
        },
        {
          "midi": 65,
          "time": 96.784,
          "duration": 0.163,
          "velocity": 0.674,
          "name": ""
        },
        {
          "midi": 79,
          "time": 96.935,
          "duration": 0.081,
          "velocity": 0.325,
          "name": ""
        },
        {
          "midi": 67,
          "time": 96.935,
          "duration": 0.454,
          "velocity": 0.755,
          "name": ""
        },
        {
          "midi": 68,
          "time": 97.389,
          "duration": 0.325,
          "velocity": 0.825,
          "name": ""
        },
        {
          "midi": 67,
          "time": 97.714,
          "duration": 0.279,
          "velocity": 0.605,
          "name": ""
        },
        {
          "midi": 65,
          "time": 98.051,
          "duration": 0.163,
          "velocity": 0.694,
          "name": ""
        },
        {
          "midi": 67,
          "time": 98.202,
          "duration": 0.186,
          "velocity": 0.708,
          "name": ""
        },
        {
          "midi": 65,
          "time": 98.376,
          "duration": 0.116,
          "velocity": 0.658,
          "name": ""
        },
        {
          "midi": 65,
          "time": 98.492,
          "duration": 0.197,
          "velocity": 0.711,
          "name": ""
        },
        {
          "midi": 63,
          "time": 98.69,
          "duration": 0.267,
          "velocity": 0.684,
          "name": ""
        },
        {
          "midi": 63,
          "time": 98.957,
          "duration": 0.093,
          "velocity": 0.455,
          "name": ""
        },
        {
          "midi": 60,
          "time": 99.073,
          "duration": 0.128,
          "velocity": 0.499,
          "name": ""
        },
        {
          "midi": 63,
          "time": 99.27,
          "duration": 0.058,
          "velocity": 0.478,
          "name": ""
        },
        {
          "midi": 63,
          "time": 99.328,
          "duration": 0.315,
          "velocity": 0.812,
          "name": ""
        },
        {
          "midi": 62,
          "time": 99.55,
          "duration": 0.07,
          "velocity": 0.285,
          "name": ""
        },
        {
          "midi": 63,
          "time": 99.643,
          "duration": 0.209,
          "velocity": 0.532,
          "name": ""
        },
        {
          "midi": 65,
          "time": 100.293,
          "duration": 0.128,
          "velocity": 0.727,
          "name": ""
        },
        {
          "midi": 79,
          "time": 100.409,
          "duration": 0.279,
          "velocity": 0.437,
          "name": ""
        },
        {
          "midi": 67,
          "time": 100.409,
          "duration": 0.174,
          "velocity": 0.814,
          "name": ""
        },
        {
          "midi": 67,
          "time": 100.583,
          "duration": 0.313,
          "velocity": 0.756,
          "name": ""
        },
        {
          "midi": 79,
          "time": 100.885,
          "duration": 0.221,
          "velocity": 0.387,
          "name": ""
        },
        {
          "midi": 67,
          "time": 100.897,
          "duration": 0.116,
          "velocity": 0.79,
          "name": ""
        },
        {
          "midi": 67,
          "time": 101.013,
          "duration": 0.128,
          "velocity": 0.717,
          "name": ""
        },
        {
          "midi": 68,
          "time": 101.141,
          "duration": 3.23,
          "velocity": 0.751,
          "name": ""
        },
        {
          "midi": 80,
          "time": 102.953,
          "duration": 0.302,
          "velocity": 0.372,
          "name": ""
        },
        {
          "midi": 53,
          "time": 104.951,
          "duration": 0.139,
          "velocity": 0.578,
          "name": ""
        },
        {
          "midi": 53,
          "time": 105.289,
          "duration": 0.151,
          "velocity": 0.429,
          "name": ""
        },
        {
          "midi": 63,
          "time": 105.638,
          "duration": 0.104,
          "velocity": 0.821,
          "name": ""
        },
        {
          "midi": 63,
          "time": 105.742,
          "duration": 0.151,
          "velocity": 0.717,
          "name": ""
        },
        {
          "midi": 65,
          "time": 105.881,
          "duration": 0.267,
          "velocity": 0.808,
          "name": ""
        },
        {
          "midi": 65,
          "time": 106.148,
          "duration": 0.418,
          "velocity": 0.823,
          "name": ""
        },
        {
          "midi": 65,
          "time": 106.566,
          "duration": 0.093,
          "velocity": 0.827,
          "name": ""
        },
        {
          "midi": 65,
          "time": 106.659,
          "duration": 0.128,
          "velocity": 0.674,
          "name": ""
        },
        {
          "midi": 67,
          "time": 106.764,
          "duration": 0.325,
          "velocity": 0.649,
          "name": ""
        },
        {
          "midi": 79,
          "time": 106.775,
          "duration": 0.197,
          "velocity": 0.41,
          "name": ""
        },
        {
          "midi": 63,
          "time": 107.228,
          "duration": 0.373,
          "velocity": 0.725,
          "name": ""
        },
        {
          "midi": 62,
          "time": 107.601,
          "duration": 0.104,
          "velocity": 0.452,
          "name": ""
        },
        {
          "midi": 63,
          "time": 107.624,
          "duration": 0.058,
          "velocity": 0.36,
          "name": ""
        },
        {
          "midi": 60,
          "time": 107.705,
          "duration": 0.383,
          "velocity": 0.671,
          "name": ""
        },
        {
          "midi": 63,
          "time": 108.147,
          "duration": 0.093,
          "velocity": 0.677,
          "name": ""
        },
        {
          "midi": 64,
          "time": 108.239,
          "duration": 0.058,
          "velocity": 0.329,
          "name": ""
        },
        {
          "midi": 63,
          "time": 108.298,
          "duration": 0.081,
          "velocity": 0.822,
          "name": ""
        },
        {
          "midi": 63,
          "time": 108.379,
          "duration": 0.081,
          "velocity": 0.852,
          "name": ""
        },
        {
          "midi": 63,
          "time": 108.46,
          "duration": 0.104,
          "velocity": 0.791,
          "name": ""
        },
        {
          "midi": 63,
          "time": 108.565,
          "duration": 0.43,
          "velocity": 0.654,
          "name": ""
        },
        {
          "midi": 65,
          "time": 109.379,
          "duration": 0.197,
          "velocity": 0.725,
          "name": ""
        },
        {
          "midi": 67,
          "time": 109.564,
          "duration": 0.395,
          "velocity": 0.785,
          "name": ""
        },
        {
          "midi": 66,
          "time": 109.959,
          "duration": 0.104,
          "velocity": 0.69,
          "name": ""
        },
        {
          "midi": 67,
          "time": 110.064,
          "duration": 0.29,
          "velocity": 0.695,
          "name": ""
        },
        {
          "midi": 65,
          "time": 110.319,
          "duration": 0.07,
          "velocity": 0.593,
          "name": ""
        },
        {
          "midi": 65,
          "time": 110.389,
          "duration": 0.186,
          "velocity": 0.693,
          "name": ""
        },
        {
          "midi": 63,
          "time": 110.586,
          "duration": 0.058,
          "velocity": 0.388,
          "name": ""
        },
        {
          "midi": 63,
          "time": 110.644,
          "duration": 0.174,
          "velocity": 0.711,
          "name": ""
        },
        {
          "midi": 65,
          "time": 110.807,
          "duration": 1.046,
          "velocity": 0.824,
          "name": ""
        },
        {
          "midi": 65,
          "time": 111.853,
          "duration": 0.755,
          "velocity": 0.852,
          "name": ""
        },
        {
          "midi": 65,
          "time": 112.607,
          "duration": 0.464,
          "velocity": 0.844,
          "name": ""
        },
        {
          "midi": 65,
          "time": 113.072,
          "duration": 0.245,
          "velocity": 0.86,
          "name": ""
        },
        {
          "midi": 65,
          "time": 113.317,
          "duration": 0.546,
          "velocity": 0.858,
          "name": ""
        },
        {
          "midi": 65,
          "time": 113.863,
          "duration": 0.151,
          "velocity": 0.838,
          "name": ""
        },
        {
          "midi": 65,
          "time": 114.013,
          "duration": 0.197,
          "velocity": 0.878,
          "name": ""
        },
        {
          "midi": 65,
          "time": 114.211,
          "duration": 0.639,
          "velocity": 0.789,
          "name": ""
        },
        {
          "midi": 65,
          "time": 114.849,
          "duration": 0.267,
          "velocity": 0.71,
          "name": ""
        },
        {
          "midi": 65,
          "time": 115.116,
          "duration": 0.175,
          "velocity": 0.626,
          "name": ""
        },
        {
          "midi": 65,
          "time": 115.292,
          "duration": 0.755,
          "velocity": 0.512,
          "name": ""
        },
        {
          "midi": 48,
          "time": 117.627,
          "duration": 0.128,
          "velocity": 0.442,
          "name": ""
        },
        {
          "midi": 48,
          "time": 117.754,
          "duration": 0.104,
          "velocity": 0.533,
          "name": ""
        },
        {
          "midi": 51,
          "time": 117.917,
          "duration": 0.151,
          "velocity": 0.58,
          "name": ""
        },
        {
          "midi": 51,
          "time": 118.219,
          "duration": 0.209,
          "velocity": 0.65,
          "name": ""
        },
        {
          "midi": 53,
          "time": 118.567,
          "duration": 0.151,
          "velocity": 0.635,
          "name": ""
        },
        {
          "midi": 53,
          "time": 118.892,
          "duration": 0.279,
          "velocity": 0.553,
          "name": ""
        },
        {
          "midi": 53,
          "time": 119.171,
          "duration": 0.048,
          "velocity": 0.72,
          "name": ""
        },
        {
          "midi": 53,
          "time": 119.219,
          "duration": 0.267,
          "velocity": 0.75,
          "name": ""
        },
        {
          "midi": 53,
          "time": 119.486,
          "duration": 0.267,
          "velocity": 0.652,
          "name": ""
        },
        {
          "midi": 58,
          "time": 119.869,
          "duration": 0.174,
          "velocity": 0.73,
          "name": ""
        },
        {
          "midi": 60,
          "time": 120.043,
          "duration": 0.372,
          "velocity": 0.755,
          "name": ""
        },
        {
          "midi": 58,
          "time": 120.461,
          "duration": 0.197,
          "velocity": 0.815,
          "name": ""
        },
        {
          "midi": 58,
          "time": 120.658,
          "duration": 0.186,
          "velocity": 0.649,
          "name": ""
        },
        {
          "midi": 56,
          "time": 121.123,
          "duration": 0.058,
          "velocity": 0.511,
          "name": ""
        },
        {
          "midi": 55,
          "time": 121.181,
          "duration": 0.071,
          "velocity": 0.84,
          "name": ""
        },
        {
          "midi": 67,
          "time": 121.217,
          "duration": 0.104,
          "velocity": 0.373,
          "name": ""
        },
        {
          "midi": 55,
          "time": 121.252,
          "duration": 0.139,
          "velocity": 0.683,
          "name": ""
        },
        {
          "midi": 55,
          "time": 121.391,
          "duration": 0.302,
          "velocity": 0.72,
          "name": ""
        },
        {
          "midi": 74,
          "time": 121.414,
          "duration": 0.058,
          "velocity": 0.3,
          "name": ""
        },
        {
          "midi": 53,
          "time": 121.693,
          "duration": 0.221,
          "velocity": 0.723,
          "name": ""
        },
        {
          "midi": 55,
          "time": 121.89,
          "duration": 0.058,
          "velocity": 0.562,
          "name": ""
        },
        {
          "midi": 55,
          "time": 121.96,
          "duration": 0.476,
          "velocity": 0.721,
          "name": ""
        },
        {
          "midi": 55,
          "time": 122.61,
          "duration": 0.279,
          "velocity": 0.396,
          "name": ""
        },
        {
          "midi": 51,
          "time": 123.063,
          "duration": 0.117,
          "velocity": 0.795,
          "name": ""
        },
        {
          "midi": 63,
          "time": 123.074,
          "duration": 0.093,
          "velocity": 0.351,
          "name": ""
        },
        {
          "midi": 51,
          "time": 123.18,
          "duration": 0.43,
          "velocity": 0.748,
          "name": ""
        },
        {
          "midi": 50,
          "time": 123.645,
          "duration": 0.104,
          "velocity": 0.392,
          "name": ""
        },
        {
          "midi": 49,
          "time": 123.668,
          "duration": 0.07,
          "velocity": 0.285,
          "name": ""
        },
        {
          "midi": 48,
          "time": 123.737,
          "duration": 0.255,
          "velocity": 0.516,
          "name": ""
        },
        {
          "midi": 48,
          "time": 123.993,
          "duration": 0.383,
          "velocity": 0.744,
          "name": ""
        },
        {
          "midi": 48,
          "time": 124.376,
          "duration": 0.418,
          "velocity": 0.763,
          "name": ""
        },
        {
          "midi": 48,
          "time": 124.794,
          "duration": 0.209,
          "velocity": 0.801,
          "name": ""
        },
        {
          "midi": 48,
          "time": 125.003,
          "duration": 0.489,
          "velocity": 0.716,
          "name": ""
        },
        {
          "midi": 49,
          "time": 127.722,
          "duration": 0.104,
          "velocity": 0.502,
          "name": ""
        },
        {
          "midi": 51,
          "time": 127.745,
          "duration": 0.29,
          "velocity": 0.535,
          "name": ""
        },
        {
          "midi": 51,
          "time": 128.036,
          "duration": 0.325,
          "velocity": 0.585,
          "name": ""
        },
        {
          "midi": 51,
          "time": 128.361,
          "duration": 0.139,
          "velocity": 0.605,
          "name": ""
        },
        {
          "midi": 53,
          "time": 128.512,
          "duration": 0.151,
          "velocity": 0.709,
          "name": ""
        },
        {
          "midi": 53,
          "time": 128.663,
          "duration": 0.337,
          "velocity": 0.627,
          "name": ""
        },
        {
          "midi": 53,
          "time": 128.999,
          "duration": 0.315,
          "velocity": 0.588,
          "name": ""
        },
        {
          "midi": 53,
          "time": 129.314,
          "duration": 0.232,
          "velocity": 0.696,
          "name": ""
        },
        {
          "midi": 51,
          "time": 129.628,
          "duration": 0.232,
          "velocity": 0.72,
          "name": ""
        },
        {
          "midi": 53,
          "time": 129.848,
          "duration": 0.209,
          "velocity": 0.655,
          "name": ""
        },
        {
          "midi": 56,
          "time": 130.138,
          "duration": 0.116,
          "velocity": 0.739,
          "name": ""
        },
        {
          "midi": 56,
          "time": 130.255,
          "duration": 0.232,
          "velocity": 0.634,
          "name": ""
        },
        {
          "midi": 55,
          "time": 130.347,
          "duration": 0.07,
          "velocity": 0.304,
          "name": ""
        },
        {
          "midi": 56,
          "time": 130.649,
          "duration": 0.325,
          "velocity": 0.713,
          "name": ""
        },
        {
          "midi": 68,
          "time": 130.661,
          "duration": 0.058,
          "velocity": 0.382,
          "name": ""
        },
        {
          "midi": 58,
          "time": 130.951,
          "duration": 0.233,
          "velocity": 0.661,
          "name": ""
        },
        {
          "midi": 56,
          "time": 131.219,
          "duration": 0.081,
          "velocity": 0.725,
          "name": ""
        },
        {
          "midi": 67,
          "time": 131.289,
          "duration": 0.267,
          "velocity": 0.332,
          "name": ""
        },
        {
          "midi": 55,
          "time": 131.301,
          "duration": 0.081,
          "velocity": 0.69,
          "name": ""
        },
        {
          "midi": 55,
          "time": 131.382,
          "duration": 0.395,
          "velocity": 0.754,
          "name": ""
        },
        {
          "midi": 53,
          "time": 131.846,
          "duration": 0.29,
          "velocity": 0.701,
          "name": ""
        },
        {
          "midi": 55,
          "time": 132.148,
          "duration": 0.174,
          "velocity": 0.657,
          "name": ""
        },
        {
          "midi": 56,
          "time": 132.322,
          "duration": 0.07,
          "velocity": 0.365,
          "name": ""
        },
        {
          "midi": 55,
          "time": 132.903,
          "duration": 0.199,
          "velocity": 0.315,
          "name": ""
        },
        {
          "midi": 55,
          "time": 133.113,
          "duration": 0.337,
          "velocity": 0.788,
          "name": ""
        },
        {
          "midi": 56,
          "time": 133.45,
          "duration": 0.221,
          "velocity": 0.743,
          "name": ""
        },
        {
          "midi": 55,
          "time": 133.67,
          "duration": 0.081,
          "velocity": 0.621,
          "name": ""
        },
        {
          "midi": 55,
          "time": 133.752,
          "duration": 0.232,
          "velocity": 0.763,
          "name": ""
        },
        {
          "midi": 56,
          "time": 134.054,
          "duration": 0.604,
          "velocity": 0.742,
          "name": ""
        },
        {
          "midi": 68,
          "time": 134.448,
          "duration": 0.104,
          "velocity": 0.346,
          "name": ""
        },
        {
          "midi": 56,
          "time": 134.657,
          "duration": 0.372,
          "velocity": 0.751,
          "name": ""
        },
        {
          "midi": 58,
          "time": 135.029,
          "duration": 0.454,
          "velocity": 0.805,
          "name": ""
        },
        {
          "midi": 60,
          "time": 135.46,
          "duration": 0.209,
          "velocity": 0.646,
          "name": ""
        },
        {
          "midi": 58,
          "time": 135.657,
          "duration": 0.07,
          "velocity": 0.625,
          "name": ""
        },
        {
          "midi": 58,
          "time": 135.727,
          "duration": 0.163,
          "velocity": 0.683,
          "name": ""
        },
        {
          "midi": 60,
          "time": 135.831,
          "duration": 0.104,
          "velocity": 0.603,
          "name": ""
        },
        {
          "midi": 60,
          "time": 135.936,
          "duration": 0.197,
          "velocity": 0.776,
          "name": ""
        },
        {
          "midi": 60,
          "time": 136.133,
          "duration": 0.255,
          "velocity": 0.772,
          "name": ""
        },
        {
          "midi": 60,
          "time": 136.388,
          "duration": 0.139,
          "velocity": 0.823,
          "name": ""
        },
        {
          "midi": 60,
          "time": 136.528,
          "duration": 0.232,
          "velocity": 0.764,
          "name": ""
        },
        {
          "midi": 58,
          "time": 136.748,
          "duration": 0.128,
          "velocity": 0.607,
          "name": ""
        },
        {
          "midi": 60,
          "time": 136.76,
          "duration": 1.267,
          "velocity": 0.597,
          "name": ""
        },
        {
          "midi": 58,
          "time": 137.342,
          "duration": 0.104,
          "velocity": 0.45,
          "name": ""
        },
        {
          "midi": 58,
          "time": 138.131,
          "duration": 0.232,
          "velocity": 0.661,
          "name": ""
        },
        {
          "midi": 58,
          "time": 138.468,
          "duration": 0.093,
          "velocity": 0.378,
          "name": ""
        },
        {
          "midi": 60,
          "time": 138.596,
          "duration": 0.209,
          "velocity": 0.76,
          "name": ""
        },
        {
          "midi": 60,
          "time": 138.805,
          "duration": 0.268,
          "velocity": 0.708,
          "name": ""
        },
        {
          "midi": 60,
          "time": 139.073,
          "duration": 0.232,
          "velocity": 0.634,
          "name": ""
        },
        {
          "midi": 58,
          "time": 139.363,
          "duration": 0.36,
          "velocity": 0.624,
          "name": ""
        },
        {
          "midi": 58,
          "time": 139.723,
          "duration": 0.267,
          "velocity": 0.42,
          "name": ""
        },
        {
          "midi": 60,
          "time": 139.851,
          "duration": 0.163,
          "velocity": 0.694,
          "name": ""
        },
        {
          "midi": 58,
          "time": 139.99,
          "duration": 0.139,
          "velocity": 0.62,
          "name": ""
        },
        {
          "midi": 56,
          "time": 140.095,
          "duration": 0.244,
          "velocity": 0.461,
          "name": ""
        },
        {
          "midi": 56,
          "time": 140.338,
          "duration": 0.186,
          "velocity": 0.685,
          "name": ""
        },
        {
          "midi": 56,
          "time": 140.687,
          "duration": 0.186,
          "velocity": 0.798,
          "name": ""
        },
        {
          "midi": 56,
          "time": 140.872,
          "duration": 0.116,
          "velocity": 0.678,
          "name": ""
        },
        {
          "midi": 58,
          "time": 141.0,
          "duration": 0.106,
          "velocity": 0.708,
          "name": ""
        },
        {
          "midi": 58,
          "time": 141.106,
          "duration": 0.313,
          "velocity": 0.631,
          "name": ""
        },
        {
          "midi": 58,
          "time": 141.919,
          "duration": 0.325,
          "velocity": 0.477,
          "name": ""
        },
        {
          "midi": 58,
          "time": 142.244,
          "duration": 0.267,
          "velocity": 0.738,
          "name": ""
        },
        {
          "midi": 70,
          "time": 142.255,
          "duration": 0.093,
          "velocity": 0.488,
          "name": ""
        },
        {
          "midi": 70,
          "time": 142.348,
          "duration": 0.093,
          "velocity": 0.401,
          "name": ""
        },
        {
          "midi": 72,
          "time": 142.522,
          "duration": 0.07,
          "velocity": 0.35,
          "name": ""
        },
        {
          "midi": 60,
          "time": 142.522,
          "duration": 0.221,
          "velocity": 0.6,
          "name": ""
        },
        {
          "midi": 63,
          "time": 142.847,
          "duration": 0.081,
          "velocity": 0.788,
          "name": ""
        },
        {
          "midi": 63,
          "time": 142.929,
          "duration": 0.152,
          "velocity": 0.71,
          "name": ""
        },
        {
          "midi": 58,
          "time": 143.22,
          "duration": 0.209,
          "velocity": 0.652,
          "name": ""
        },
        {
          "midi": 60,
          "time": 143.429,
          "duration": 0.337,
          "velocity": 0.604,
          "name": ""
        },
        {
          "midi": 58,
          "time": 143.824,
          "duration": 0.302,
          "velocity": 0.683,
          "name": ""
        },
        {
          "midi": 58,
          "time": 144.126,
          "duration": 0.325,
          "velocity": 0.514,
          "name": ""
        },
        {
          "midi": 70,
          "time": 144.451,
          "duration": 0.116,
          "velocity": 0.291,
          "name": ""
        },
        {
          "midi": 65,
          "time": 144.451,
          "duration": 0.093,
          "velocity": 0.486,
          "name": ""
        },
        {
          "midi": 58,
          "time": 144.451,
          "duration": 0.116,
          "velocity": 0.791,
          "name": ""
        },
        {
          "midi": 70,
          "time": 144.567,
          "duration": 0.093,
          "velocity": 0.387,
          "name": ""
        },
        {
          "midi": 58,
          "time": 144.567,
          "duration": 0.093,
          "velocity": 0.802,
          "name": ""
        },
        {
          "midi": 58,
          "time": 144.66,
          "duration": 0.093,
          "velocity": 0.56,
          "name": ""
        },
        {
          "midi": 56,
          "time": 144.776,
          "duration": 0.151,
          "velocity": 0.67,
          "name": ""
        },
        {
          "midi": 58,
          "time": 144.939,
          "duration": 0.175,
          "velocity": 0.515,
          "name": ""
        },
        {
          "midi": 56,
          "time": 145.172,
          "duration": 0.104,
          "velocity": 0.572,
          "name": ""
        },
        {
          "midi": 55,
          "time": 145.276,
          "duration": 0.255,
          "velocity": 0.689,
          "name": ""
        },
        {
          "midi": 56,
          "time": 145.741,
          "duration": 0.29,
          "velocity": 0.822,
          "name": ""
        },
        {
          "midi": 56,
          "time": 146.031,
          "duration": 0.279,
          "velocity": 0.766,
          "name": ""
        },
        {
          "midi": 55,
          "time": 146.31,
          "duration": 0.058,
          "velocity": 0.605,
          "name": ""
        },
        {
          "midi": 56,
          "time": 146.368,
          "duration": 0.081,
          "velocity": 0.573,
          "name": ""
        },
        {
          "midi": 55,
          "time": 146.449,
          "duration": 0.186,
          "velocity": 0.665,
          "name": ""
        },
        {
          "midi": 53,
          "time": 146.612,
          "duration": 0.174,
          "velocity": 0.613,
          "name": ""
        },
        {
          "midi": 51,
          "time": 146.786,
          "duration": 0.151,
          "velocity": 0.592,
          "name": ""
        },
        {
          "midi": 56,
          "time": 147.31,
          "duration": 0.104,
          "velocity": 0.43,
          "name": ""
        },
        {
          "midi": 56,
          "time": 147.96,
          "duration": 0.197,
          "velocity": 0.474,
          "name": ""
        },
        {
          "midi": 56,
          "time": 148.32,
          "duration": 0.128,
          "velocity": 0.379,
          "name": ""
        },
        {
          "midi": 55,
          "time": 148.447,
          "duration": 0.116,
          "velocity": 0.306,
          "name": ""
        },
        {
          "midi": 55,
          "time": 148.575,
          "duration": 0.36,
          "velocity": 0.672,
          "name": ""
        },
        {
          "midi": 55,
          "time": 148.935,
          "duration": 0.094,
          "velocity": 0.475,
          "name": ""
        },
        {
          "midi": 53,
          "time": 149.215,
          "duration": 0.128,
          "velocity": 0.56,
          "name": ""
        },
        {
          "midi": 53,
          "time": 149.389,
          "duration": 0.221,
          "velocity": 0.58,
          "name": ""
        },
        {
          "midi": 53,
          "time": 150.863,
          "duration": 0.21,
          "velocity": 0.77,
          "name": ""
        },
        {
          "midi": 53,
          "time": 151.074,
          "duration": 0.058,
          "velocity": 0.776,
          "name": ""
        },
        {
          "midi": 53,
          "time": 151.132,
          "duration": 0.116,
          "velocity": 0.624,
          "name": ""
        },
        {
          "midi": 55,
          "time": 151.259,
          "duration": 0.139,
          "velocity": 0.732,
          "name": ""
        },
        {
          "midi": 55,
          "time": 151.399,
          "duration": 0.116,
          "velocity": 0.569,
          "name": ""
        },
        {
          "midi": 53,
          "time": 151.48,
          "duration": 0.209,
          "velocity": 0.572,
          "name": ""
        },
        {
          "midi": 51,
          "time": 151.712,
          "duration": 0.313,
          "velocity": 0.746,
          "name": ""
        },
        {
          "midi": 51,
          "time": 152.026,
          "duration": 0.221,
          "velocity": 0.667,
          "name": ""
        },
        {
          "midi": 51,
          "time": 152.467,
          "duration": 0.232,
          "velocity": 0.58,
          "name": ""
        },
        {
          "midi": 49,
          "time": 152.769,
          "duration": 0.07,
          "velocity": 0.42,
          "name": ""
        },
        {
          "midi": 50,
          "time": 152.838,
          "duration": 0.128,
          "velocity": 0.612,
          "name": ""
        },
        {
          "midi": 48,
          "time": 152.943,
          "duration": 0.106,
          "velocity": 0.387,
          "name": ""
        },
        {
          "midi": 51,
          "time": 153.362,
          "duration": 0.244,
          "velocity": 0.719,
          "name": ""
        },
        {
          "midi": 53,
          "time": 153.629,
          "duration": 0.07,
          "velocity": 0.648,
          "name": ""
        },
        {
          "midi": 53,
          "time": 153.699,
          "duration": 0.592,
          "velocity": 0.742,
          "name": ""
        },
        {
          "midi": 65,
          "time": 153.71,
          "duration": 0.58,
          "velocity": 0.376,
          "name": ""
        },
        {
          "midi": 65,
          "time": 154.291,
          "duration": 0.406,
          "velocity": 0.312,
          "name": ""
        },
        {
          "midi": 53,
          "time": 154.291,
          "duration": 0.174,
          "velocity": 0.745,
          "name": ""
        },
        {
          "midi": 53,
          "time": 154.465,
          "duration": 0.116,
          "velocity": 0.781,
          "name": ""
        },
        {
          "midi": 53,
          "time": 154.581,
          "duration": 0.058,
          "velocity": 0.811,
          "name": ""
        },
        {
          "midi": 53,
          "time": 154.639,
          "duration": 0.093,
          "velocity": 0.816,
          "name": ""
        },
        {
          "midi": 53,
          "time": 154.732,
          "duration": 0.163,
          "velocity": 0.724,
          "name": ""
        },
        {
          "midi": 53,
          "time": 154.895,
          "duration": 0.059,
          "velocity": 0.779,
          "name": ""
        },
        {
          "midi": 53,
          "time": 154.954,
          "duration": 0.093,
          "velocity": 0.804,
          "name": ""
        },
        {
          "midi": 53,
          "time": 155.047,
          "duration": 0.174,
          "velocity": 0.797,
          "name": ""
        },
        {
          "midi": 53,
          "time": 155.221,
          "duration": 0.151,
          "velocity": 0.708,
          "name": ""
        },
        {
          "midi": 53,
          "time": 155.372,
          "duration": 0.209,
          "velocity": 0.613,
          "name": ""
        },
        {
          "midi": 55,
          "time": 155.581,
          "duration": 0.511,
          "velocity": 0.428,
          "name": ""
        },
        {
          "midi": 55,
          "time": 157.068,
          "duration": 0.174,
          "velocity": 0.757,
          "name": ""
        },
        {
          "midi": 56,
          "time": 157.242,
          "duration": 0.07,
          "velocity": 0.71,
          "name": ""
        },
        {
          "midi": 55,
          "time": 157.312,
          "duration": 0.058,
          "velocity": 0.432,
          "name": ""
        },
        {
          "midi": 56,
          "time": 157.37,
          "duration": 0.104,
          "velocity": 0.69,
          "name": ""
        },
        {
          "midi": 55,
          "time": 157.475,
          "duration": 0.232,
          "velocity": 0.712,
          "name": ""
        },
        {
          "midi": 53,
          "time": 157.684,
          "duration": 0.163,
          "velocity": 0.611,
          "name": ""
        },
        {
          "midi": 53,
          "time": 157.846,
          "duration": 0.174,
          "velocity": 0.661,
          "name": ""
        },
        {
          "midi": 65,
          "time": 158.02,
          "duration": 0.522,
          "velocity": 0.401,
          "name": ""
        },
        {
          "midi": 53,
          "time": 158.02,
          "duration": 0.557,
          "velocity": 0.764,
          "name": ""
        },
        {
          "midi": 63,
          "time": 158.647,
          "duration": 0.163,
          "velocity": 0.753,
          "name": ""
        },
        {
          "midi": 65,
          "time": 158.798,
          "duration": 0.559,
          "velocity": 0.782,
          "name": ""
        },
        {
          "midi": 77,
          "time": 159.032,
          "duration": 0.07,
          "velocity": 0.31,
          "name": ""
        },
        {
          "midi": 89,
          "time": 159.125,
          "duration": 0.139,
          "velocity": 0.431,
          "name": ""
        },
        {
          "midi": 65,
          "time": 159.357,
          "duration": 0.209,
          "velocity": 0.691,
          "name": ""
        },
        {
          "midi": 63,
          "time": 159.612,
          "duration": 0.104,
          "velocity": 0.626,
          "name": ""
        },
        {
          "midi": 63,
          "time": 159.717,
          "duration": 0.221,
          "velocity": 0.351,
          "name": ""
        },
        {
          "midi": 63,
          "time": 159.937,
          "duration": 0.209,
          "velocity": 0.686,
          "name": ""
        },
        {
          "midi": 84,
          "time": 160.146,
          "duration": 0.267,
          "velocity": 0.38,
          "name": ""
        },
        {
          "midi": 65,
          "time": 160.146,
          "duration": 0.29,
          "velocity": 0.649,
          "name": ""
        },
        {
          "midi": 87,
          "time": 160.169,
          "duration": 0.104,
          "velocity": 0.337,
          "name": ""
        },
        {
          "midi": 65,
          "time": 160.901,
          "duration": 0.071,
          "velocity": 0.322,
          "name": ""
        },
        {
          "midi": 53,
          "time": 160.901,
          "duration": 0.129,
          "velocity": 0.567,
          "name": ""
        },
        {
          "midi": 58,
          "time": 161.192,
          "duration": 0.139,
          "velocity": 0.657,
          "name": ""
        },
        {
          "midi": 60,
          "time": 161.332,
          "duration": 0.139,
          "velocity": 0.611,
          "name": ""
        },
        {
          "midi": 58,
          "time": 161.506,
          "duration": 0.313,
          "velocity": 0.586,
          "name": ""
        },
        {
          "midi": 58,
          "time": 161.819,
          "duration": 0.128,
          "velocity": 0.647,
          "name": ""
        },
        {
          "midi": 60,
          "time": 161.97,
          "duration": 0.128,
          "velocity": 0.608,
          "name": ""
        },
        {
          "midi": 58,
          "time": 162.156,
          "duration": 0.186,
          "velocity": 0.646,
          "name": ""
        },
        {
          "midi": 58,
          "time": 162.342,
          "duration": 0.07,
          "velocity": 0.456,
          "name": ""
        },
        {
          "midi": 53,
          "time": 162.795,
          "duration": 0.104,
          "velocity": 0.583,
          "name": ""
        },
        {
          "midi": 65,
          "time": 163.063,
          "duration": 0.104,
          "velocity": 0.565,
          "name": ""
        },
        {
          "midi": 67,
          "time": 163.167,
          "duration": 0.209,
          "velocity": 0.621,
          "name": ""
        },
        {
          "midi": 68,
          "time": 163.411,
          "duration": 0.128,
          "velocity": 0.721,
          "name": ""
        },
        {
          "midi": 72,
          "time": 163.469,
          "duration": 0.093,
          "velocity": 0.343,
          "name": ""
        },
        {
          "midi": 68,
          "time": 163.539,
          "duration": 0.128,
          "velocity": 0.614,
          "name": ""
        },
        {
          "midi": 65,
          "time": 163.725,
          "duration": 0.116,
          "velocity": 0.456,
          "name": ""
        },
        {
          "midi": 79,
          "time": 163.864,
          "duration": 0.058,
          "velocity": 0.311,
          "name": ""
        },
        {
          "midi": 67,
          "time": 163.864,
          "duration": 0.255,
          "velocity": 0.521,
          "name": ""
        },
        {
          "midi": 65,
          "time": 164.143,
          "duration": 0.151,
          "velocity": 0.592,
          "name": ""
        },
        {
          "midi": 68,
          "time": 164.189,
          "duration": 0.07,
          "velocity": 0.327,
          "name": ""
        },
        {
          "midi": 63,
          "time": 164.282,
          "duration": 0.081,
          "velocity": 0.256,
          "name": ""
        },
        {
          "midi": 63,
          "time": 164.363,
          "duration": 0.186,
          "velocity": 0.69,
          "name": ""
        },
        {
          "midi": 62,
          "time": 164.642,
          "duration": 0.07,
          "velocity": 0.427,
          "name": ""
        },
        {
          "midi": 60,
          "time": 164.712,
          "duration": 0.104,
          "velocity": 0.5,
          "name": ""
        },
        {
          "midi": 79,
          "time": 164.968,
          "duration": 0.081,
          "velocity": 0.325,
          "name": ""
        },
        {
          "midi": 63,
          "time": 164.968,
          "duration": 0.325,
          "velocity": 0.787,
          "name": ""
        },
        {
          "midi": 67,
          "time": 165.038,
          "duration": 0.104,
          "velocity": 0.423,
          "name": ""
        },
        {
          "midi": 79,
          "time": 165.27,
          "duration": 0.151,
          "velocity": 0.416,
          "name": ""
        },
        {
          "midi": 63,
          "time": 165.293,
          "duration": 0.081,
          "velocity": 0.767,
          "name": ""
        },
        {
          "midi": 63,
          "time": 165.375,
          "duration": 0.116,
          "velocity": 0.59,
          "name": ""
        },
        {
          "midi": 58,
          "time": 165.92,
          "duration": 0.151,
          "velocity": 0.74,
          "name": ""
        },
        {
          "midi": 67,
          "time": 165.978,
          "duration": 0.081,
          "velocity": 0.411,
          "name": ""
        },
        {
          "midi": 58,
          "time": 166.071,
          "duration": 0.186,
          "velocity": 0.376,
          "name": ""
        },
        {
          "midi": 67,
          "time": 166.257,
          "duration": 0.058,
          "velocity": 0.35,
          "name": ""
        },
        {
          "midi": 58,
          "time": 166.257,
          "duration": 0.139,
          "velocity": 0.548,
          "name": ""
        },
        {
          "midi": 60,
          "time": 166.419,
          "duration": 0.29,
          "velocity": 0.559,
          "name": ""
        },
        {
          "midi": 58,
          "time": 166.64,
          "duration": 0.151,
          "velocity": 0.262,
          "name": ""
        },
        {
          "midi": 60,
          "time": 166.71,
          "duration": 0.081,
          "velocity": 0.441,
          "name": ""
        },
        {
          "midi": 58,
          "time": 166.791,
          "duration": 0.199,
          "velocity": 0.67,
          "name": ""
        },
        {
          "midi": 56,
          "time": 166.978,
          "duration": 0.186,
          "velocity": 0.737,
          "name": ""
        },
        {
          "midi": 56,
          "time": 167.164,
          "duration": 0.104,
          "velocity": 0.806,
          "name": ""
        },
        {
          "midi": 55,
          "time": 167.268,
          "duration": 0.093,
          "velocity": 0.426,
          "name": ""
        },
        {
          "midi": 56,
          "time": 167.361,
          "duration": 0.174,
          "velocity": 0.68,
          "name": ""
        },
        {
          "midi": 56,
          "time": 167.535,
          "duration": 0.128,
          "velocity": 0.548,
          "name": ""
        },
        {
          "midi": 55,
          "time": 168.209,
          "duration": 0.29,
          "velocity": 0.659,
          "name": ""
        },
        {
          "midi": 55,
          "time": 168.499,
          "duration": 0.174,
          "velocity": 0.447,
          "name": ""
        },
        {
          "midi": 63,
          "time": 168.778,
          "duration": 0.164,
          "velocity": 0.598,
          "name": ""
        },
        {
          "midi": 75,
          "time": 168.789,
          "duration": 0.094,
          "velocity": 0.34,
          "name": ""
        },
        {
          "midi": 84,
          "time": 168.953,
          "duration": 0.174,
          "velocity": 0.247,
          "name": ""
        },
        {
          "midi": 65,
          "time": 168.953,
          "duration": 0.464,
          "velocity": 0.687,
          "name": ""
        },
        {
          "midi": 77,
          "time": 169.15,
          "duration": 0.081,
          "velocity": 0.364,
          "name": ""
        },
        {
          "midi": 65,
          "time": 169.417,
          "duration": 0.116,
          "velocity": 0.478,
          "name": ""
        },
        {
          "midi": 65,
          "time": 169.534,
          "duration": 0.232,
          "velocity": 0.375,
          "name": ""
        },
        {
          "midi": 65,
          "time": 169.766,
          "duration": 0.139,
          "velocity": 0.654,
          "name": ""
        },
        {
          "midi": 75,
          "time": 169.87,
          "duration": 0.441,
          "velocity": 0.334,
          "name": ""
        },
        {
          "midi": 79,
          "time": 169.917,
          "duration": 0.232,
          "velocity": 0.47,
          "name": ""
        },
        {
          "midi": 67,
          "time": 169.917,
          "duration": 0.93,
          "velocity": 0.534,
          "name": ""
        },
        {
          "midi": 63,
          "time": 170.033,
          "duration": 0.313,
          "velocity": 0.488,
          "name": ""
        },
        {
          "midi": 63,
          "time": 170.671,
          "duration": 0.093,
          "velocity": 0.725,
          "name": ""
        },
        {
          "midi": 63,
          "time": 170.764,
          "duration": 0.21,
          "velocity": 0.566,
          "name": ""
        },
        {
          "midi": 63,
          "time": 170.974,
          "duration": 0.093,
          "velocity": 0.424,
          "name": ""
        },
        {
          "midi": 58,
          "time": 170.974,
          "duration": 0.151,
          "velocity": 0.649,
          "name": ""
        },
        {
          "midi": 60,
          "time": 171.125,
          "duration": 0.383,
          "velocity": 0.751,
          "name": ""
        },
        {
          "midi": 77,
          "time": 171.265,
          "duration": 0.186,
          "velocity": 0.376,
          "name": ""
        },
        {
          "midi": 59,
          "time": 171.509,
          "duration": 0.058,
          "velocity": 0.384,
          "name": ""
        },
        {
          "midi": 60,
          "time": 171.567,
          "duration": 0.07,
          "velocity": 0.371,
          "name": ""
        },
        {
          "midi": 58,
          "time": 171.671,
          "duration": 0.209,
          "velocity": 0.594,
          "name": ""
        },
        {
          "midi": 56,
          "time": 172.252,
          "duration": 0.29,
          "velocity": 0.699,
          "name": ""
        },
        {
          "midi": 60,
          "time": 172.53,
          "duration": 0.116,
          "velocity": 0.405,
          "name": ""
        },
        {
          "midi": 56,
          "time": 172.542,
          "duration": 0.35,
          "velocity": 0.717,
          "name": ""
        },
        {
          "midi": 56,
          "time": 172.891,
          "duration": 0.151,
          "velocity": 0.571,
          "name": ""
        },
        {
          "midi": 58,
          "time": 173.182,
          "duration": 0.104,
          "velocity": 0.748,
          "name": ""
        },
        {
          "midi": 58,
          "time": 173.286,
          "duration": 0.209,
          "velocity": 0.636,
          "name": ""
        },
        {
          "midi": 58,
          "time": 173.495,
          "duration": 0.139,
          "velocity": 0.603,
          "name": ""
        },
        {
          "midi": 60,
          "time": 173.646,
          "duration": 0.174,
          "velocity": 0.618,
          "name": ""
        },
        {
          "midi": 58,
          "time": 173.832,
          "duration": 0.163,
          "velocity": 0.663,
          "name": ""
        },
        {
          "midi": 60,
          "time": 174.006,
          "duration": 1.696,
          "velocity": 0.76,
          "name": ""
        },
        {
          "midi": 79,
          "time": 174.192,
          "duration": 0.232,
          "velocity": 0.342,
          "name": ""
        },
        {
          "midi": 75,
          "time": 175.145,
          "duration": 0.209,
          "velocity": 0.338,
          "name": ""
        },
        {
          "midi": 63,
          "time": 175.354,
          "duration": 0.244,
          "velocity": 0.42,
          "name": ""
        },
        {
          "midi": 63,
          "time": 175.609,
          "duration": 0.081,
          "velocity": 0.373,
          "name": ""
        },
        {
          "midi": 60,
          "time": 175.702,
          "duration": 0.209,
          "velocity": 0.671,
          "name": ""
        },
        {
          "midi": 60,
          "time": 175.911,
          "duration": 0.093,
          "velocity": 0.716,
          "name": ""
        },
        {
          "midi": 60,
          "time": 176.004,
          "duration": 0.093,
          "velocity": 0.782,
          "name": ""
        },
        {
          "midi": 60,
          "time": 176.097,
          "duration": 0.186,
          "velocity": 0.778,
          "name": ""
        },
        {
          "midi": 60,
          "time": 176.283,
          "duration": 0.174,
          "velocity": 0.794,
          "name": ""
        },
        {
          "midi": 75,
          "time": 176.306,
          "duration": 0.174,
          "velocity": 0.334,
          "name": ""
        },
        {
          "midi": 60,
          "time": 176.457,
          "duration": 0.197,
          "velocity": 0.709,
          "name": ""
        },
        {
          "midi": 56,
          "time": 177.271,
          "duration": 0.151,
          "velocity": 0.791,
          "name": ""
        },
        {
          "midi": 56,
          "time": 177.422,
          "duration": 0.093,
          "velocity": 0.77,
          "name": ""
        },
        {
          "midi": 55,
          "time": 177.515,
          "duration": 0.081,
          "velocity": 0.532,
          "name": ""
        },
        {
          "midi": 56,
          "time": 177.596,
          "duration": 0.07,
          "velocity": 0.591,
          "name": ""
        },
        {
          "midi": 55,
          "time": 177.666,
          "duration": 0.232,
          "velocity": 0.787,
          "name": ""
        },
        {
          "midi": 56,
          "time": 177.898,
          "duration": 0.081,
          "velocity": 0.534,
          "name": ""
        },
        {
          "midi": 55,
          "time": 177.979,
          "duration": 0.116,
          "velocity": 0.56,
          "name": ""
        },
        {
          "midi": 53,
          "time": 178.095,
          "duration": 0.174,
          "velocity": 0.626,
          "name": ""
        },
        {
          "midi": 53,
          "time": 178.269,
          "duration": 0.174,
          "velocity": 0.685,
          "name": ""
        },
        {
          "midi": 72,
          "time": 178.432,
          "duration": 0.07,
          "velocity": 0.295,
          "name": ""
        },
        {
          "midi": 53,
          "time": 178.444,
          "duration": 0.267,
          "velocity": 0.662,
          "name": ""
        },
        {
          "midi": 63,
          "time": 178.863,
          "duration": 0.186,
          "velocity": 0.672,
          "name": ""
        },
        {
          "midi": 75,
          "time": 178.874,
          "duration": 0.058,
          "velocity": 0.346,
          "name": ""
        },
        {
          "midi": 65,
          "time": 179.037,
          "duration": 0.476,
          "velocity": 0.696,
          "name": ""
        },
        {
          "midi": 63,
          "time": 179.513,
          "duration": 0.313,
          "velocity": 0.786,
          "name": ""
        },
        {
          "midi": 63,
          "time": 179.826,
          "duration": 0.232,
          "velocity": 0.767,
          "name": ""
        },
        {
          "midi": 63,
          "time": 180.059,
          "duration": 0.139,
          "velocity": 0.678,
          "name": ""
        },
        {
          "midi": 63,
          "time": 180.198,
          "duration": 0.116,
          "velocity": 0.634,
          "name": ""
        },
        {
          "midi": 65,
          "time": 180.314,
          "duration": 0.302,
          "velocity": 0.589,
          "name": ""
        },
        {
          "midi": 58,
          "time": 181.14,
          "duration": 0.093,
          "velocity": 0.585,
          "name": ""
        },
        {
          "midi": 60,
          "time": 181.256,
          "duration": 0.279,
          "velocity": 0.778,
          "name": ""
        },
        {
          "midi": 60,
          "time": 181.534,
          "duration": 0.151,
          "velocity": 0.717,
          "name": ""
        },
        {
          "midi": 58,
          "time": 181.732,
          "duration": 0.058,
          "velocity": 0.542,
          "name": ""
        },
        {
          "midi": 58,
          "time": 181.79,
          "duration": 0.093,
          "velocity": 0.725,
          "name": ""
        },
        {
          "midi": 58,
          "time": 181.883,
          "duration": 0.139,
          "velocity": 0.568,
          "name": ""
        },
        {
          "midi": 58,
          "time": 182.382,
          "duration": 0.128,
          "velocity": 0.625,
          "name": ""
        },
        {
          "midi": 65,
          "time": 182.684,
          "duration": 0.106,
          "velocity": 0.571,
          "name": ""
        },
        {
          "midi": 86,
          "time": 182.813,
          "duration": 0.302,
          "velocity": 0.33,
          "name": ""
        },
        {
          "midi": 67,
          "time": 182.824,
          "duration": 0.43,
          "velocity": 0.691,
          "name": ""
        },
        {
          "midi": 80,
          "time": 183.289,
          "duration": 0.406,
          "velocity": 0.478,
          "name": ""
        },
        {
          "midi": 68,
          "time": 183.289,
          "duration": 0.546,
          "velocity": 0.657,
          "name": ""
        },
        {
          "midi": 87,
          "time": 183.451,
          "duration": 0.081,
          "velocity": 0.324,
          "name": ""
        },
        {
          "midi": 65,
          "time": 183.95,
          "duration": 0.128,
          "velocity": 0.574,
          "name": ""
        },
        {
          "midi": 67,
          "time": 184.09,
          "duration": 0.186,
          "velocity": 0.657,
          "name": ""
        },
        {
          "midi": 67,
          "time": 184.276,
          "duration": 0.151,
          "velocity": 0.637,
          "name": ""
        },
        {
          "midi": 65,
          "time": 184.392,
          "duration": 0.163,
          "velocity": 0.614,
          "name": ""
        },
        {
          "midi": 63,
          "time": 184.589,
          "duration": 0.187,
          "velocity": 0.627,
          "name": ""
        },
        {
          "midi": 62,
          "time": 184.834,
          "duration": 0.093,
          "velocity": 0.539,
          "name": ""
        },
        {
          "midi": 60,
          "time": 184.927,
          "duration": 0.139,
          "velocity": 0.53,
          "name": ""
        },
        {
          "midi": 63,
          "time": 185.182,
          "duration": 0.279,
          "velocity": 0.801,
          "name": ""
        },
        {
          "midi": 63,
          "time": 185.461,
          "duration": 0.197,
          "velocity": 0.713,
          "name": ""
        },
        {
          "midi": 65,
          "time": 186.1,
          "duration": 0.139,
          "velocity": 0.619,
          "name": ""
        },
        {
          "midi": 91,
          "time": 186.262,
          "duration": 0.221,
          "velocity": 0.323,
          "name": ""
        },
        {
          "midi": 67,
          "time": 186.274,
          "duration": 0.464,
          "velocity": 0.724,
          "name": ""
        },
        {
          "midi": 79,
          "time": 186.448,
          "duration": 0.081,
          "velocity": 0.365,
          "name": ""
        },
        {
          "midi": 67,
          "time": 186.738,
          "duration": 0.187,
          "velocity": 0.626,
          "name": ""
        },
        {
          "midi": 68,
          "time": 186.925,
          "duration": 3.229,
          "velocity": 0.615,
          "name": ""
        },
        {
          "midi": 87,
          "time": 187.099,
          "duration": 0.07,
          "velocity": 0.352,
          "name": ""
        },
        {
          "midi": 80,
          "time": 187.215,
          "duration": 0.929,
          "velocity": 0.352,
          "name": ""
        },
        {
          "midi": 80,
          "time": 188.307,
          "duration": 1.058,
          "velocity": 0.336,
          "name": ""
        },
        {
          "midi": 87,
          "time": 188.655,
          "duration": 0.199,
          "velocity": 0.298,
          "name": ""
        },
        {
          "midi": 80,
          "time": 189.492,
          "duration": 0.151,
          "velocity": 0.379,
          "name": ""
        },
        {
          "midi": 80,
          "time": 189.783,
          "duration": 0.534,
          "velocity": 0.383,
          "name": ""
        },
        {
          "midi": 80,
          "time": 190.572,
          "duration": 0.093,
          "velocity": 0.413,
          "name": ""
        },
        {
          "midi": 53,
          "time": 190.665,
          "duration": 0.199,
          "velocity": 0.719,
          "name": ""
        },
        {
          "midi": 53,
          "time": 190.864,
          "duration": 0.337,
          "velocity": 0.599,
          "name": ""
        },
        {
          "midi": 53,
          "time": 191.2,
          "duration": 0.209,
          "velocity": 0.637,
          "name": ""
        },
        {
          "midi": 63,
          "time": 191.549,
          "duration": 0.221,
          "velocity": 0.715,
          "name": ""
        },
        {
          "midi": 65,
          "time": 191.758,
          "duration": 0.673,
          "velocity": 0.794,
          "name": ""
        },
        {
          "midi": 101,
          "time": 191.978,
          "duration": 0.058,
          "velocity": 0.327,
          "name": ""
        },
        {
          "midi": 65,
          "time": 192.431,
          "duration": 0.186,
          "velocity": 0.701,
          "name": ""
        },
        {
          "midi": 67,
          "time": 192.605,
          "duration": 0.268,
          "velocity": 0.62,
          "name": ""
        },
        {
          "midi": 63,
          "time": 193.024,
          "duration": 0.499,
          "velocity": 0.653,
          "name": ""
        },
        {
          "midi": 62,
          "time": 193.524,
          "duration": 0.07,
          "velocity": 0.385,
          "name": ""
        },
        {
          "midi": 60,
          "time": 193.593,
          "duration": 0.325,
          "velocity": 0.532,
          "name": ""
        },
        {
          "midi": 63,
          "time": 194.0,
          "duration": 0.151,
          "velocity": 0.694,
          "name": ""
        },
        {
          "midi": 63,
          "time": 194.15,
          "duration": 0.814,
          "velocity": 0.634,
          "name": ""
        },
        {
          "midi": 65,
          "time": 195.278,
          "duration": 0.174,
          "velocity": 0.616,
          "name": ""
        },
        {
          "midi": 67,
          "time": 195.464,
          "duration": 0.882,
          "velocity": 0.645,
          "name": ""
        },
        {
          "midi": 65,
          "time": 196.172,
          "duration": 0.29,
          "velocity": 0.696,
          "name": ""
        },
        {
          "midi": 67,
          "time": 196.346,
          "duration": 0.186,
          "velocity": 0.355,
          "name": ""
        },
        {
          "midi": 63,
          "time": 196.543,
          "duration": 0.187,
          "velocity": 0.657,
          "name": ""
        },
        {
          "midi": 79,
          "time": 196.555,
          "duration": 0.058,
          "velocity": 0.338,
          "name": ""
        },
        {
          "midi": 65,
          "time": 196.742,
          "duration": 3.996,
          "velocity": 0.741,
          "name": ""
        },
        {
          "midi": 89,
          "time": 196.754,
          "duration": 1.975,
          "velocity": 0.458,
          "name": ""
        },
        {
          "midi": 89,
          "time": 199.054,
          "duration": 0.789,
          "velocity": 0.359,
          "name": ""
        },
        {
          "midi": 34,
          "time": 201.76,
          "duration": 0.197,
          "velocity": 0.321,
          "name": ""
        },
        {
          "midi": 65,
          "time": 202.074,
          "duration": 0.093,
          "velocity": 0.371,
          "name": ""
        },
        {
          "midi": 67,
          "time": 202.236,
          "duration": 0.605,
          "velocity": 0.473,
          "name": ""
        },
        {
          "midi": 34,
          "time": 202.631,
          "duration": 0.059,
          "velocity": 0.326,
          "name": ""
        },
        {
          "midi": 65,
          "time": 202.841,
          "duration": 0.058,
          "velocity": 0.522,
          "name": ""
        },
        {
          "midi": 65,
          "time": 202.911,
          "duration": 0.592,
          "velocity": 0.559,
          "name": ""
        },
        {
          "midi": 68,
          "time": 203.364,
          "duration": 0.592,
          "velocity": 0.468,
          "name": ""
        },
        {
          "midi": 70,
          "time": 203.642,
          "duration": 0.36,
          "velocity": 0.475,
          "name": ""
        },
        {
          "midi": 35,
          "time": 204.443,
          "duration": 0.559,
          "velocity": 0.348,
          "name": ""
        },
        {
          "midi": 64,
          "time": 205.014,
          "duration": 0.313,
          "velocity": 0.356,
          "name": ""
        },
        {
          "midi": 61,
          "time": 205.014,
          "duration": 0.325,
          "velocity": 0.514,
          "name": ""
        },
        {
          "midi": 35,
          "time": 205.014,
          "duration": 0.348,
          "velocity": 0.761,
          "name": ""
        },
        {
          "midi": 54,
          "time": 205.014,
          "duration": 0.128,
          "velocity": 0.433,
          "name": ""
        },
        {
          "midi": 57,
          "time": 205.014,
          "duration": 0.186,
          "velocity": 0.398,
          "name": ""
        },
        {
          "midi": 35,
          "time": 205.362,
          "duration": 0.824,
          "velocity": 0.634,
          "name": ""
        },
        {
          "midi": 66,
          "time": 205.385,
          "duration": 0.267,
          "velocity": 0.496,
          "name": ""
        },
        {
          "midi": 62,
          "time": 205.408,
          "duration": 0.522,
          "velocity": 0.463,
          "name": ""
        },
        {
          "midi": 54,
          "time": 205.408,
          "duration": 0.557,
          "velocity": 0.444,
          "name": ""
        },
        {
          "midi": 57,
          "time": 205.443,
          "duration": 0.499,
          "velocity": 0.456,
          "name": ""
        },
        {
          "midi": 47,
          "time": 205.455,
          "duration": 0.058,
          "velocity": 0.361,
          "name": ""
        },
        {
          "midi": 42,
          "time": 205.513,
          "duration": 0.859,
          "velocity": 0.503,
          "name": ""
        },
        {
          "midi": 30,
          "time": 205.942,
          "duration": 0.325,
          "velocity": 0.557,
          "name": ""
        },
        {
          "midi": 64,
          "time": 205.989,
          "duration": 0.163,
          "velocity": 0.48,
          "name": ""
        },
        {
          "midi": 49,
          "time": 206.0,
          "duration": 0.395,
          "velocity": 0.518,
          "name": ""
        },
        {
          "midi": 68,
          "time": 206.024,
          "duration": 0.104,
          "velocity": 0.361,
          "name": ""
        },
        {
          "midi": 62,
          "time": 206.082,
          "duration": 0.348,
          "velocity": 0.382,
          "name": ""
        },
        {
          "midi": 40,
          "time": 206.105,
          "duration": 0.488,
          "velocity": 0.519,
          "name": ""
        },
        {
          "midi": 37,
          "time": 206.116,
          "duration": 0.197,
          "velocity": 0.342,
          "name": ""
        },
        {
          "midi": 45,
          "time": 206.175,
          "duration": 0.081,
          "velocity": 0.354,
          "name": ""
        },
        {
          "midi": 34,
          "time": 206.186,
          "duration": 0.186,
          "velocity": 0.342,
          "name": ""
        },
        {
          "midi": 54,
          "time": 206.302,
          "duration": 0.07,
          "velocity": 0.336,
          "name": ""
        },
        {
          "midi": 37,
          "time": 206.325,
          "duration": 0.267,
          "velocity": 0.356,
          "name": ""
        },
        {
          "midi": 68,
          "time": 206.337,
          "duration": 0.081,
          "velocity": 0.407,
          "name": ""
        },
        {
          "midi": 29,
          "time": 206.349,
          "duration": 0.081,
          "velocity": 0.622,
          "name": ""
        },
        {
          "midi": 47,
          "time": 206.349,
          "duration": 0.186,
          "velocity": 0.435,
          "name": ""
        },
        {
          "midi": 35,
          "time": 206.383,
          "duration": 0.081,
          "velocity": 0.353,
          "name": ""
        },
        {
          "midi": 29,
          "time": 206.43,
          "duration": 0.222,
          "velocity": 0.553,
          "name": ""
        },
        {
          "midi": 35,
          "time": 206.465,
          "duration": 0.187,
          "velocity": 0.556,
          "name": ""
        },
        {
          "midi": 56,
          "time": 207.581,
          "duration": 0.221,
          "velocity": 0.62,
          "name": ""
        },
        {
          "midi": 57,
          "time": 207.801,
          "duration": 0.093,
          "velocity": 0.473,
          "name": ""
        },
        {
          "midi": 57,
          "time": 207.894,
          "duration": 0.104,
          "velocity": 0.659,
          "name": ""
        },
        {
          "midi": 56,
          "time": 207.999,
          "duration": 0.116,
          "velocity": 0.716,
          "name": ""
        },
        {
          "midi": 56,
          "time": 208.115,
          "duration": 0.104,
          "velocity": 0.556,
          "name": ""
        },
        {
          "midi": 64,
          "time": 208.149,
          "duration": 0.093,
          "velocity": 0.459,
          "name": ""
        },
        {
          "midi": 71,
          "time": 208.254,
          "duration": 0.151,
          "velocity": 0.418,
          "name": ""
        },
        {
          "midi": 78,
          "time": 208.266,
          "duration": 0.232,
          "velocity": 0.542,
          "name": ""
        },
        {
          "midi": 66,
          "time": 208.266,
          "duration": 0.29,
          "velocity": 0.511,
          "name": ""
        },
        {
          "midi": 71,
          "time": 208.521,
          "duration": 0.058,
          "velocity": 0.333,
          "name": ""
        },
        {
          "midi": 68,
          "time": 208.579,
          "duration": 0.326,
          "velocity": 0.629,
          "name": ""
        },
        {
          "midi": 66,
          "time": 208.813,
          "duration": 0.151,
          "velocity": 0.292,
          "name": ""
        },
        {
          "midi": 87,
          "time": 208.905,
          "duration": 0.081,
          "velocity": 0.275,
          "name": ""
        },
        {
          "midi": 80,
          "time": 208.905,
          "duration": 0.116,
          "velocity": 0.377,
          "name": ""
        },
        {
          "midi": 68,
          "time": 208.905,
          "duration": 0.255,
          "velocity": 0.691,
          "name": ""
        },
        {
          "midi": 64,
          "time": 209.138,
          "duration": 0.058,
          "velocity": 0.649,
          "name": ""
        },
        {
          "midi": 69,
          "time": 209.161,
          "duration": 0.94,
          "velocity": 0.652,
          "name": ""
        },
        {
          "midi": 81,
          "time": 209.184,
          "duration": 0.72,
          "velocity": 0.436,
          "name": ""
        },
        {
          "midi": 64,
          "time": 209.196,
          "duration": 0.116,
          "velocity": 0.644,
          "name": ""
        },
        {
          "midi": 78,
          "time": 209.323,
          "duration": 0.163,
          "velocity": 0.321,
          "name": ""
        },
        {
          "midi": 66,
          "time": 209.323,
          "duration": 0.627,
          "velocity": 0.549,
          "name": ""
        },
        {
          "midi": 88,
          "time": 209.439,
          "duration": 0.372,
          "velocity": 0.307,
          "name": ""
        },
        {
          "midi": 78,
          "time": 209.73,
          "duration": 0.116,
          "velocity": 0.36,
          "name": ""
        },
        {
          "midi": 81,
          "time": 209.915,
          "duration": 0.557,
          "velocity": 0.542,
          "name": ""
        },
        {
          "midi": 68,
          "time": 210.101,
          "duration": 0.128,
          "velocity": 0.452,
          "name": ""
        },
        {
          "midi": 64,
          "time": 210.101,
          "duration": 0.104,
          "velocity": 0.772,
          "name": ""
        },
        {
          "midi": 64,
          "time": 210.206,
          "duration": 0.244,
          "velocity": 0.44,
          "name": ""
        },
        {
          "midi": 69,
          "time": 210.229,
          "duration": 0.384,
          "velocity": 0.46,
          "name": ""
        },
        {
          "midi": 64,
          "time": 210.45,
          "duration": 0.164,
          "velocity": 0.659,
          "name": ""
        },
        {
          "midi": 81,
          "time": 210.473,
          "duration": 0.245,
          "velocity": 0.545,
          "name": ""
        },
        {
          "midi": 88,
          "time": 210.473,
          "duration": 0.07,
          "velocity": 0.362,
          "name": ""
        },
        {
          "midi": 78,
          "time": 210.613,
          "duration": 0.174,
          "velocity": 0.271,
          "name": ""
        },
        {
          "midi": 85,
          "time": 210.625,
          "duration": 0.209,
          "velocity": 0.496,
          "name": ""
        },
        {
          "midi": 78,
          "time": 210.788,
          "duration": 0.07,
          "velocity": 0.376,
          "name": ""
        },
        {
          "midi": 66,
          "time": 210.788,
          "duration": 0.081,
          "velocity": 0.386,
          "name": ""
        },
        {
          "midi": 80,
          "time": 210.88,
          "duration": 0.151,
          "velocity": 0.389,
          "name": ""
        },
        {
          "midi": 68,
          "time": 210.892,
          "duration": 0.174,
          "velocity": 0.6,
          "name": ""
        },
        {
          "midi": 81,
          "time": 211.055,
          "duration": 0.163,
          "velocity": 0.523,
          "name": ""
        },
        {
          "midi": 69,
          "time": 211.066,
          "duration": 0.267,
          "velocity": 0.484,
          "name": ""
        },
        {
          "midi": 81,
          "time": 211.217,
          "duration": 0.128,
          "velocity": 0.551,
          "name": ""
        },
        {
          "midi": 66,
          "time": 211.38,
          "duration": 0.116,
          "velocity": 0.521,
          "name": ""
        },
        {
          "midi": 68,
          "time": 211.519,
          "duration": 0.174,
          "velocity": 0.573,
          "name": ""
        },
        {
          "midi": 60,
          "time": 211.681,
          "duration": 0.058,
          "velocity": 0.33,
          "name": ""
        },
        {
          "midi": 67,
          "time": 211.705,
          "duration": 0.128,
          "velocity": 0.459,
          "name": ""
        },
        {
          "midi": 59,
          "time": 211.74,
          "duration": 0.093,
          "velocity": 0.526,
          "name": ""
        },
        {
          "midi": 66,
          "time": 211.844,
          "duration": 0.163,
          "velocity": 0.429,
          "name": ""
        },
        {
          "midi": 61,
          "time": 211.856,
          "duration": 0.128,
          "velocity": 0.607,
          "name": ""
        },
        {
          "midi": 78,
          "time": 211.867,
          "duration": 0.104,
          "velocity": 0.378,
          "name": ""
        },
        {
          "midi": 59,
          "time": 211.983,
          "duration": 0.07,
          "velocity": 0.442,
          "name": ""
        },
        {
          "midi": 64,
          "time": 212.03,
          "duration": 0.279,
          "velocity": 0.572,
          "name": ""
        },
        {
          "midi": 76,
          "time": 212.041,
          "duration": 0.197,
          "velocity": 0.435,
          "name": ""
        },
        {
          "midi": 59,
          "time": 212.053,
          "duration": 0.128,
          "velocity": 0.644,
          "name": ""
        },
        {
          "midi": 83,
          "time": 212.099,
          "duration": 0.163,
          "velocity": 0.456,
          "name": ""
        },
        {
          "midi": 80,
          "time": 212.123,
          "duration": 0.151,
          "velocity": 0.456,
          "name": ""
        },
        {
          "midi": 59,
          "time": 212.181,
          "duration": 0.081,
          "velocity": 0.476,
          "name": ""
        },
        {
          "midi": 76,
          "time": 212.239,
          "duration": 0.07,
          "velocity": 0.415,
          "name": ""
        },
        {
          "midi": 60,
          "time": 212.343,
          "duration": 0.081,
          "velocity": 0.342,
          "name": ""
        },
        {
          "midi": 78,
          "time": 212.39,
          "duration": 0.116,
          "velocity": 0.317,
          "name": ""
        },
        {
          "midi": 66,
          "time": 212.448,
          "duration": 0.058,
          "velocity": 0.35,
          "name": ""
        },
        {
          "midi": 85,
          "time": 212.471,
          "duration": 0.07,
          "velocity": 0.373,
          "name": ""
        },
        {
          "midi": 61,
          "time": 212.483,
          "duration": 0.199,
          "velocity": 0.557,
          "name": ""
        },
        {
          "midi": 73,
          "time": 212.517,
          "duration": 0.083,
          "velocity": 0.338,
          "name": ""
        },
        {
          "midi": 64,
          "time": 212.552,
          "duration": 0.117,
          "velocity": 0.39,
          "name": ""
        },
        {
          "midi": 80,
          "time": 212.588,
          "duration": 0.36,
          "velocity": 0.37,
          "name": ""
        },
        {
          "midi": 64,
          "time": 212.67,
          "duration": 0.104,
          "velocity": 0.459,
          "name": ""
        },
        {
          "midi": 59,
          "time": 212.763,
          "duration": 0.221,
          "velocity": 0.505,
          "name": ""
        },
        {
          "midi": 64,
          "time": 212.774,
          "duration": 0.522,
          "velocity": 0.594,
          "name": ""
        },
        {
          "midi": 80,
          "time": 213.099,
          "duration": 0.07,
          "velocity": 0.3,
          "name": ""
        },
        {
          "midi": 76,
          "time": 213.111,
          "duration": 0.139,
          "velocity": 0.377,
          "name": ""
        },
        {
          "midi": 71,
          "time": 213.262,
          "duration": 0.313,
          "velocity": 0.538,
          "name": ""
        },
        {
          "midi": 66,
          "time": 213.262,
          "duration": 0.128,
          "velocity": 0.466,
          "name": ""
        },
        {
          "midi": 54,
          "time": 213.262,
          "duration": 0.116,
          "velocity": 0.394,
          "name": ""
        },
        {
          "midi": 59,
          "time": 213.355,
          "duration": 0.128,
          "velocity": 0.435,
          "name": ""
        },
        {
          "midi": 66,
          "time": 213.552,
          "duration": 0.081,
          "velocity": 0.38,
          "name": ""
        },
        {
          "midi": 87,
          "time": 213.645,
          "duration": 0.116,
          "velocity": 0.314,
          "name": ""
        },
        {
          "midi": 80,
          "time": 213.645,
          "duration": 0.081,
          "velocity": 0.286,
          "name": ""
        },
        {
          "midi": 68,
          "time": 213.645,
          "duration": 0.209,
          "velocity": 0.581,
          "name": ""
        },
        {
          "midi": 64,
          "time": 213.645,
          "duration": 0.139,
          "velocity": 0.511,
          "name": ""
        },
        {
          "midi": 76,
          "time": 213.668,
          "duration": 0.104,
          "velocity": 0.411,
          "name": ""
        },
        {
          "midi": 83,
          "time": 213.691,
          "duration": 0.093,
          "velocity": 0.628,
          "name": ""
        },
        {
          "midi": 71,
          "time": 213.703,
          "duration": 0.116,
          "velocity": 0.31,
          "name": ""
        },
        {
          "midi": 83,
          "time": 213.784,
          "duration": 0.139,
          "velocity": 0.502,
          "name": ""
        },
        {
          "midi": 76,
          "time": 213.784,
          "duration": 0.093,
          "velocity": 0.419,
          "name": ""
        },
        {
          "midi": 64,
          "time": 213.796,
          "duration": 0.128,
          "velocity": 0.595,
          "name": ""
        },
        {
          "midi": 81,
          "time": 213.912,
          "duration": 0.104,
          "velocity": 0.308,
          "name": ""
        },
        {
          "midi": 69,
          "time": 213.912,
          "duration": 0.151,
          "velocity": 0.791,
          "name": ""
        },
        {
          "midi": 76,
          "time": 213.97,
          "duration": 0.104,
          "velocity": 0.369,
          "name": ""
        },
        {
          "midi": 69,
          "time": 214.063,
          "duration": 0.081,
          "velocity": 0.509,
          "name": ""
        },
        {
          "midi": 83,
          "time": 214.132,
          "duration": 0.36,
          "velocity": 0.45,
          "name": ""
        },
        {
          "midi": 71,
          "time": 214.132,
          "duration": 0.232,
          "velocity": 0.698,
          "name": ""
        },
        {
          "midi": 67,
          "time": 214.214,
          "duration": 0.093,
          "velocity": 0.473,
          "name": ""
        },
        {
          "midi": 90,
          "time": 214.341,
          "duration": 0.093,
          "velocity": 0.352,
          "name": ""
        },
        {
          "midi": 71,
          "time": 214.365,
          "duration": 0.174,
          "velocity": 0.741,
          "name": ""
        },
        {
          "midi": 68,
          "time": 214.365,
          "duration": 0.186,
          "velocity": 0.576,
          "name": ""
        },
        {
          "midi": 64,
          "time": 214.376,
          "duration": 0.163,
          "velocity": 0.419,
          "name": ""
        },
        {
          "midi": 80,
          "time": 214.539,
          "duration": 0.071,
          "velocity": 0.411,
          "name": ""
        },
        {
          "midi": 71,
          "time": 214.539,
          "duration": 0.617,
          "velocity": 0.699,
          "name": ""
        },
        {
          "midi": 68,
          "time": 214.55,
          "duration": 0.117,
          "velocity": 0.578,
          "name": ""
        },
        {
          "midi": 66,
          "time": 214.656,
          "duration": 0.104,
          "velocity": 0.632,
          "name": ""
        },
        {
          "midi": 83,
          "time": 214.714,
          "duration": 0.128,
          "velocity": 0.396,
          "name": ""
        },
        {
          "midi": 90,
          "time": 214.749,
          "duration": 0.081,
          "velocity": 0.356,
          "name": ""
        },
        {
          "midi": 66,
          "time": 214.761,
          "duration": 0.058,
          "velocity": 0.522,
          "name": ""
        },
        {
          "midi": 64,
          "time": 214.807,
          "duration": 0.058,
          "velocity": 0.63,
          "name": ""
        },
        {
          "midi": 68,
          "time": 214.807,
          "duration": 0.139,
          "velocity": 0.366,
          "name": ""
        },
        {
          "midi": 64,
          "time": 214.865,
          "duration": 0.29,
          "velocity": 0.57,
          "name": ""
        },
        {
          "midi": 59,
          "time": 215.005,
          "duration": 0.29,
          "velocity": 0.421,
          "name": ""
        },
        {
          "midi": 71,
          "time": 215.155,
          "duration": 0.221,
          "velocity": 0.573,
          "name": ""
        },
        {
          "midi": 64,
          "time": 215.155,
          "duration": 0.07,
          "velocity": 0.435,
          "name": ""
        },
        {
          "midi": 61,
          "time": 215.225,
          "duration": 0.081,
          "velocity": 0.389,
          "name": ""
        },
        {
          "midi": 66,
          "time": 215.237,
          "duration": 0.093,
          "velocity": 0.368,
          "name": ""
        },
        {
          "midi": 59,
          "time": 215.295,
          "duration": 0.07,
          "velocity": 0.41,
          "name": ""
        },
        {
          "midi": 73,
          "time": 215.411,
          "duration": 0.081,
          "velocity": 0.365,
          "name": ""
        },
        {
          "midi": 83,
          "time": 215.492,
          "duration": 0.104,
          "velocity": 0.29,
          "name": ""
        },
        {
          "midi": 64,
          "time": 215.504,
          "duration": 0.093,
          "velocity": 0.394,
          "name": ""
        },
        {
          "midi": 83,
          "time": 215.597,
          "duration": 0.313,
          "velocity": 0.45,
          "name": ""
        },
        {
          "midi": 64,
          "time": 215.597,
          "duration": 0.337,
          "velocity": 0.575,
          "name": ""
        },
        {
          "midi": 80,
          "time": 215.643,
          "duration": 0.104,
          "velocity": 0.366,
          "name": ""
        },
        {
          "midi": 73,
          "time": 215.806,
          "duration": 0.255,
          "velocity": 0.391,
          "name": ""
        },
        {
          "midi": 78,
          "time": 215.968,
          "duration": 0.07,
          "velocity": 0.281,
          "name": ""
        },
        {
          "midi": 66,
          "time": 215.968,
          "duration": 0.139,
          "velocity": 0.427,
          "name": ""
        },
        {
          "midi": 73,
          "time": 216.061,
          "duration": 0.093,
          "velocity": 0.46,
          "name": ""
        },
        {
          "midi": 71,
          "time": 216.2,
          "duration": 0.174,
          "velocity": 0.654,
          "name": ""
        },
        {
          "midi": 66,
          "time": 216.247,
          "duration": 0.058,
          "velocity": 0.363,
          "name": ""
        },
        {
          "midi": 69,
          "time": 216.374,
          "duration": 0.07,
          "velocity": 0.371,
          "name": ""
        },
        {
          "midi": 59,
          "time": 216.421,
          "duration": 0.373,
          "velocity": 0.329,
          "name": ""
        },
        {
          "midi": 69,
          "time": 216.444,
          "duration": 0.07,
          "velocity": 0.396,
          "name": ""
        },
        {
          "midi": 71,
          "time": 216.479,
          "duration": 0.071,
          "velocity": 0.399,
          "name": ""
        },
        {
          "midi": 71,
          "time": 216.55,
          "duration": 0.151,
          "velocity": 0.586,
          "name": ""
        },
        {
          "midi": 69,
          "time": 216.701,
          "duration": 0.058,
          "velocity": 0.307,
          "name": ""
        },
        {
          "midi": 59,
          "time": 216.794,
          "duration": 0.104,
          "velocity": 0.574,
          "name": ""
        },
        {
          "midi": 61,
          "time": 216.91,
          "duration": 0.197,
          "velocity": 0.627,
          "name": ""
        },
        {
          "midi": 69,
          "time": 216.945,
          "duration": 0.151,
          "velocity": 0.426,
          "name": ""
        },
        {
          "midi": 81,
          "time": 217.072,
          "duration": 0.093,
          "velocity": 0.388,
          "name": ""
        },
        {
          "midi": 59,
          "time": 217.107,
          "duration": 0.209,
          "velocity": 0.263,
          "name": ""
        },
        {
          "midi": 69,
          "time": 217.316,
          "duration": 0.058,
          "velocity": 0.376,
          "name": ""
        },
        {
          "midi": 59,
          "time": 217.316,
          "duration": 0.267,
          "velocity": 0.702,
          "name": ""
        },
        {
          "midi": 81,
          "time": 217.351,
          "duration": 0.151,
          "velocity": 0.338,
          "name": ""
        },
        {
          "midi": 59,
          "time": 217.583,
          "duration": 0.104,
          "velocity": 0.48,
          "name": ""
        },
        {
          "midi": 69,
          "time": 217.688,
          "duration": 0.07,
          "velocity": 0.39,
          "name": ""
        },
        {
          "midi": 57,
          "time": 217.723,
          "duration": 0.093,
          "velocity": 0.579,
          "name": ""
        },
        {
          "midi": 57,
          "time": 217.815,
          "duration": 0.267,
          "velocity": 0.559,
          "name": ""
        },
        {
          "midi": 73,
          "time": 217.85,
          "duration": 0.104,
          "velocity": 0.337,
          "name": ""
        },
        {
          "midi": 69,
          "time": 217.897,
          "duration": 0.07,
          "velocity": 0.368,
          "name": ""
        },
        {
          "midi": 69,
          "time": 217.978,
          "duration": 0.058,
          "velocity": 0.394,
          "name": ""
        },
        {
          "midi": 57,
          "time": 218.082,
          "duration": 0.139,
          "velocity": 0.529,
          "name": ""
        },
        {
          "midi": 67,
          "time": 218.524,
          "duration": 0.071,
          "velocity": 0.427,
          "name": ""
        },
        {
          "midi": 56,
          "time": 218.641,
          "duration": 0.116,
          "velocity": 0.536,
          "name": ""
        },
        {
          "midi": 56,
          "time": 218.757,
          "duration": 0.163,
          "velocity": 0.779,
          "name": ""
        },
        {
          "midi": 57,
          "time": 218.92,
          "duration": 0.093,
          "velocity": 0.567,
          "name": ""
        },
        {
          "midi": 56,
          "time": 219.013,
          "duration": 0.104,
          "velocity": 0.324,
          "name": ""
        },
        {
          "midi": 64,
          "time": 219.256,
          "duration": 0.139,
          "velocity": 0.621,
          "name": ""
        },
        {
          "midi": 76,
          "time": 219.268,
          "duration": 0.07,
          "velocity": 0.313,
          "name": ""
        },
        {
          "midi": 88,
          "time": 219.291,
          "duration": 0.07,
          "velocity": 0.373,
          "name": ""
        },
        {
          "midi": 68,
          "time": 219.291,
          "duration": 0.058,
          "velocity": 0.344,
          "name": ""
        },
        {
          "midi": 78,
          "time": 219.407,
          "duration": 0.07,
          "velocity": 0.287,
          "name": ""
        },
        {
          "midi": 66,
          "time": 219.407,
          "duration": 0.325,
          "velocity": 0.523,
          "name": ""
        },
        {
          "midi": 85,
          "time": 219.547,
          "duration": 0.093,
          "velocity": 0.341,
          "name": ""
        },
        {
          "midi": 61,
          "time": 219.651,
          "duration": 0.081,
          "velocity": 0.56,
          "name": ""
        },
        {
          "midi": 61,
          "time": 219.732,
          "duration": 0.209,
          "velocity": 0.503,
          "name": ""
        },
        {
          "midi": 66,
          "time": 219.895,
          "duration": 0.081,
          "velocity": 0.411,
          "name": ""
        },
        {
          "midi": 78,
          "time": 219.906,
          "duration": 0.104,
          "velocity": 0.378,
          "name": ""
        },
        {
          "midi": 61,
          "time": 219.941,
          "duration": 0.163,
          "velocity": 0.521,
          "name": ""
        },
        {
          "midi": 66,
          "time": 219.976,
          "duration": 0.081,
          "velocity": 0.502,
          "name": ""
        },
        {
          "midi": 66,
          "time": 220.232,
          "duration": 0.128,
          "velocity": 0.555,
          "name": ""
        },
        {
          "midi": 78,
          "time": 220.255,
          "duration": 0.07,
          "velocity": 0.422,
          "name": ""
        },
        {
          "midi": 80,
          "time": 220.394,
          "duration": 0.361,
          "velocity": 0.44,
          "name": ""
        },
        {
          "midi": 68,
          "time": 220.394,
          "duration": 0.396,
          "velocity": 0.671,
          "name": ""
        },
        {
          "midi": 71,
          "time": 220.429,
          "duration": 0.081,
          "velocity": 0.377,
          "name": ""
        },
        {
          "midi": 64,
          "time": 220.487,
          "duration": 0.083,
          "velocity": 0.421,
          "name": ""
        },
        {
          "midi": 64,
          "time": 220.581,
          "duration": 0.569,
          "velocity": 0.481,
          "name": ""
        },
        {
          "midi": 83,
          "time": 220.767,
          "duration": 0.221,
          "velocity": 0.355,
          "name": ""
        },
        {
          "midi": 76,
          "time": 220.779,
          "duration": 0.151,
          "velocity": 0.376,
          "name": ""
        },
        {
          "midi": 85,
          "time": 220.802,
          "duration": 0.174,
          "velocity": 0.357,
          "name": ""
        },
        {
          "midi": 66,
          "time": 220.802,
          "duration": 0.139,
          "velocity": 0.562,
          "name": ""
        },
        {
          "midi": 66,
          "time": 221.08,
          "duration": 0.081,
          "velocity": 0.312,
          "name": ""
        },
        {
          "midi": 64,
          "time": 221.15,
          "duration": 0.116,
          "velocity": 0.629,
          "name": ""
        },
        {
          "midi": 59,
          "time": 221.162,
          "duration": 0.128,
          "velocity": 0.361,
          "name": ""
        },
        {
          "midi": 68,
          "time": 221.243,
          "duration": 0.116,
          "velocity": 0.479,
          "name": ""
        },
        {
          "midi": 64,
          "time": 221.266,
          "duration": 0.058,
          "velocity": 0.701,
          "name": ""
        },
        {
          "midi": 64,
          "time": 221.324,
          "duration": 0.104,
          "velocity": 0.52,
          "name": ""
        },
        {
          "midi": 59,
          "time": 221.498,
          "duration": 0.116,
          "velocity": 0.452,
          "name": ""
        },
        {
          "midi": 61,
          "time": 221.638,
          "duration": 0.174,
          "velocity": 0.703,
          "name": ""
        },
        {
          "midi": 66,
          "time": 221.731,
          "duration": 0.209,
          "velocity": 0.487,
          "name": ""
        },
        {
          "midi": 62,
          "time": 221.812,
          "duration": 0.07,
          "velocity": 0.367,
          "name": ""
        },
        {
          "midi": 78,
          "time": 221.823,
          "duration": 0.128,
          "velocity": 0.34,
          "name": ""
        },
        {
          "midi": 61,
          "time": 221.881,
          "duration": 0.139,
          "velocity": 0.787,
          "name": ""
        },
        {
          "midi": 61,
          "time": 222.021,
          "duration": 0.081,
          "velocity": 0.682,
          "name": ""
        },
        {
          "midi": 61,
          "time": 222.102,
          "duration": 0.128,
          "velocity": 0.591,
          "name": ""
        },
        {
          "midi": 59,
          "time": 222.218,
          "duration": 0.163,
          "velocity": 0.582,
          "name": ""
        },
        {
          "midi": 78,
          "time": 222.23,
          "duration": 0.139,
          "velocity": 0.43,
          "name": ""
        },
        {
          "midi": 59,
          "time": 222.381,
          "duration": 0.07,
          "velocity": 0.459,
          "name": ""
        },
        {
          "midi": 61,
          "time": 222.427,
          "duration": 0.222,
          "velocity": 0.619,
          "name": ""
        },
        {
          "midi": 69,
          "time": 222.777,
          "duration": 0.255,
          "velocity": 0.353,
          "name": ""
        },
        {
          "midi": 57,
          "time": 222.777,
          "duration": 0.128,
          "velocity": 0.712,
          "name": ""
        },
        {
          "midi": 61,
          "time": 222.87,
          "duration": 0.07,
          "velocity": 0.327,
          "name": ""
        },
        {
          "midi": 57,
          "time": 222.904,
          "duration": 0.186,
          "velocity": 0.69,
          "name": ""
        },
        {
          "midi": 57,
          "time": 223.09,
          "duration": 0.174,
          "velocity": 0.491,
          "name": ""
        },
        {
          "midi": 64,
          "time": 223.113,
          "duration": 0.279,
          "velocity": 0.608,
          "name": ""
        },
        {
          "midi": 83,
          "time": 223.16,
          "duration": 0.058,
          "velocity": 0.389,
          "name": ""
        },
        {
          "midi": 57,
          "time": 223.264,
          "duration": 0.128,
          "velocity": 0.471,
          "name": ""
        },
        {
          "midi": 57,
          "time": 223.392,
          "duration": 0.186,
          "velocity": 0.622,
          "name": ""
        },
        {
          "midi": 62,
          "time": 223.52,
          "duration": 0.07,
          "velocity": 0.638,
          "name": ""
        },
        {
          "midi": 57,
          "time": 223.578,
          "duration": 0.104,
          "velocity": 0.486,
          "name": ""
        },
        {
          "midi": 61,
          "time": 223.589,
          "duration": 0.104,
          "velocity": 0.587,
          "name": ""
        },
        {
          "midi": 61,
          "time": 223.694,
          "duration": 0.07,
          "velocity": 0.449,
          "name": ""
        },
        {
          "midi": 59,
          "time": 223.764,
          "duration": 0.104,
          "velocity": 0.495,
          "name": ""
        },
        {
          "midi": 57,
          "time": 223.88,
          "duration": 0.128,
          "velocity": 0.5,
          "name": ""
        },
        {
          "midi": 59,
          "time": 223.984,
          "duration": 0.116,
          "velocity": 0.287,
          "name": ""
        },
        {
          "midi": 59,
          "time": 224.1,
          "duration": 0.058,
          "velocity": 0.425,
          "name": ""
        },
        {
          "midi": 61,
          "time": 224.193,
          "duration": 0.128,
          "velocity": 0.499,
          "name": ""
        },
        {
          "midi": 60,
          "time": 224.321,
          "duration": 0.058,
          "velocity": 0.461,
          "name": ""
        },
        {
          "midi": 59,
          "time": 224.379,
          "duration": 0.093,
          "velocity": 0.452,
          "name": ""
        },
        {
          "midi": 61,
          "time": 224.472,
          "duration": 0.175,
          "velocity": 0.585,
          "name": ""
        },
        {
          "midi": 83,
          "time": 224.67,
          "duration": 0.43,
          "velocity": 0.371,
          "name": ""
        },
        {
          "midi": 64,
          "time": 224.67,
          "duration": 0.627,
          "velocity": 0.728,
          "name": ""
        },
        {
          "midi": 78,
          "time": 225.297,
          "duration": 0.093,
          "velocity": 0.393,
          "name": ""
        },
        {
          "midi": 66,
          "time": 225.297,
          "duration": 0.209,
          "velocity": 0.628,
          "name": ""
        },
        {
          "midi": 64,
          "time": 225.495,
          "duration": 0.128,
          "velocity": 0.631,
          "name": ""
        },
        {
          "midi": 61,
          "time": 225.646,
          "duration": 0.139,
          "velocity": 0.5,
          "name": ""
        },
        {
          "midi": 59,
          "time": 225.797,
          "duration": 0.174,
          "velocity": 0.723,
          "name": ""
        },
        {
          "midi": 61,
          "time": 225.971,
          "duration": 0.29,
          "velocity": 0.489,
          "name": ""
        },
        {
          "midi": 59,
          "time": 226.157,
          "duration": 0.104,
          "velocity": 0.58,
          "name": ""
        },
        {
          "midi": 73,
          "time": 226.261,
          "duration": 0.209,
          "velocity": 0.422,
          "name": ""
        },
        {
          "midi": 61,
          "time": 226.261,
          "duration": 0.233,
          "velocity": 0.63,
          "name": ""
        },
        {
          "midi": 76,
          "time": 226.518,
          "duration": 0.255,
          "velocity": 0.396,
          "name": ""
        },
        {
          "midi": 64,
          "time": 226.518,
          "duration": 0.302,
          "velocity": 0.526,
          "name": ""
        },
        {
          "midi": 88,
          "time": 226.622,
          "duration": 0.07,
          "velocity": 0.325,
          "name": ""
        },
        {
          "midi": 83,
          "time": 226.634,
          "duration": 0.174,
          "velocity": 0.468,
          "name": ""
        },
        {
          "midi": 66,
          "time": 226.854,
          "duration": 0.197,
          "velocity": 0.652,
          "name": ""
        },
        {
          "midi": 78,
          "time": 226.866,
          "duration": 0.151,
          "velocity": 0.339,
          "name": ""
        },
        {
          "midi": 66,
          "time": 227.052,
          "duration": 0.07,
          "velocity": 0.492,
          "name": ""
        },
        {
          "midi": 64,
          "time": 227.121,
          "duration": 0.128,
          "velocity": 0.415,
          "name": ""
        },
        {
          "midi": 66,
          "time": 227.284,
          "duration": 0.174,
          "velocity": 0.582,
          "name": ""
        },
        {
          "midi": 80,
          "time": 227.481,
          "duration": 0.104,
          "velocity": 0.293,
          "name": ""
        },
        {
          "midi": 68,
          "time": 227.481,
          "duration": 0.151,
          "velocity": 0.731,
          "name": ""
        },
        {
          "midi": 69,
          "time": 227.632,
          "duration": 0.488,
          "velocity": 0.617,
          "name": ""
        },
        {
          "midi": 81,
          "time": 227.679,
          "duration": 0.313,
          "velocity": 0.457,
          "name": ""
        },
        {
          "midi": 76,
          "time": 227.911,
          "duration": 0.07,
          "velocity": 0.361,
          "name": ""
        },
        {
          "midi": 92,
          "time": 228.236,
          "duration": 0.139,
          "velocity": 0.295,
          "name": ""
        },
        {
          "midi": 68,
          "time": 228.248,
          "duration": 0.116,
          "velocity": 0.578,
          "name": ""
        },
        {
          "midi": 68,
          "time": 228.364,
          "duration": 0.081,
          "velocity": 0.662,
          "name": ""
        },
        {
          "midi": 68,
          "time": 228.445,
          "duration": 0.094,
          "velocity": 0.573,
          "name": ""
        },
        {
          "midi": 78,
          "time": 228.551,
          "duration": 0.116,
          "velocity": 0.376,
          "name": ""
        },
        {
          "midi": 73,
          "time": 228.551,
          "duration": 0.232,
          "velocity": 0.397,
          "name": ""
        },
        {
          "midi": 66,
          "time": 228.551,
          "duration": 0.151,
          "velocity": 0.59,
          "name": ""
        },
        {
          "midi": 54,
          "time": 228.551,
          "duration": 0.07,
          "velocity": 0.314,
          "name": ""
        },
        {
          "midi": 64,
          "time": 228.725,
          "duration": 0.209,
          "velocity": 0.68,
          "name": ""
        },
        {
          "midi": 73,
          "time": 228.783,
          "duration": 0.081,
          "velocity": 0.468,
          "name": ""
        },
        {
          "midi": 64,
          "time": 228.934,
          "duration": 0.139,
          "velocity": 0.638,
          "name": ""
        },
        {
          "midi": 83,
          "time": 229.062,
          "duration": 0.093,
          "velocity": 0.376,
          "name": ""
        },
        {
          "midi": 76,
          "time": 229.062,
          "duration": 0.128,
          "velocity": 0.393,
          "name": ""
        },
        {
          "midi": 88,
          "time": 229.073,
          "duration": 0.058,
          "velocity": 0.323,
          "name": ""
        },
        {
          "midi": 71,
          "time": 229.073,
          "duration": 0.139,
          "velocity": 0.531,
          "name": ""
        },
        {
          "midi": 64,
          "time": 229.073,
          "duration": 0.302,
          "velocity": 0.457,
          "name": ""
        },
        {
          "midi": 66,
          "time": 229.259,
          "duration": 0.093,
          "velocity": 0.43,
          "name": ""
        },
        {
          "midi": 78,
          "time": 229.271,
          "duration": 0.093,
          "velocity": 0.38,
          "name": ""
        },
        {
          "midi": 68,
          "time": 229.375,
          "duration": 0.139,
          "velocity": 0.394,
          "name": ""
        },
        {
          "midi": 64,
          "time": 229.375,
          "duration": 0.174,
          "velocity": 0.565,
          "name": ""
        },
        {
          "midi": 76,
          "time": 229.421,
          "duration": 0.081,
          "velocity": 0.307,
          "name": ""
        },
        {
          "midi": 94,
          "time": 229.572,
          "duration": 0.197,
          "velocity": 0.276,
          "name": ""
        },
        {
          "midi": 78,
          "time": 229.572,
          "duration": 0.197,
          "velocity": 0.34,
          "name": ""
        },
        {
          "midi": 66,
          "time": 229.572,
          "duration": 0.406,
          "velocity": 0.651,
          "name": ""
        },
        {
          "midi": 69,
          "time": 229.665,
          "duration": 0.151,
          "velocity": 0.34,
          "name": ""
        },
        {
          "midi": 78,
          "time": 229.77,
          "duration": 0.197,
          "velocity": 0.422,
          "name": ""
        },
        {
          "midi": 81,
          "time": 229.781,
          "duration": 0.081,
          "velocity": 0.358,
          "name": ""
        },
        {
          "midi": 78,
          "time": 229.967,
          "duration": 0.186,
          "velocity": 0.522,
          "name": ""
        },
        {
          "midi": 83,
          "time": 229.979,
          "duration": 0.151,
          "velocity": 0.269,
          "name": ""
        },
        {
          "midi": 64,
          "time": 229.979,
          "duration": 0.139,
          "velocity": 0.711,
          "name": ""
        },
        {
          "midi": 64,
          "time": 230.118,
          "duration": 0.128,
          "velocity": 0.754,
          "name": ""
        },
        {
          "midi": 78,
          "time": 230.153,
          "duration": 0.07,
          "velocity": 0.392,
          "name": ""
        },
        {
          "midi": 64,
          "time": 230.246,
          "duration": 0.093,
          "velocity": 0.741,
          "name": ""
        },
        {
          "midi": 78,
          "time": 230.315,
          "duration": 0.384,
          "velocity": 0.379,
          "name": ""
        },
        {
          "midi": 64,
          "time": 230.339,
          "duration": 0.199,
          "velocity": 0.664,
          "name": ""
        },
        {
          "midi": 66,
          "time": 230.444,
          "duration": 0.058,
          "velocity": 0.359,
          "name": ""
        },
        {
          "midi": 64,
          "time": 230.537,
          "duration": 0.104,
          "velocity": 0.676,
          "name": ""
        },
        {
          "midi": 64,
          "time": 230.642,
          "duration": 0.174,
          "velocity": 0.653,
          "name": ""
        },
        {
          "midi": 78,
          "time": 230.7,
          "duration": 0.116,
          "velocity": 0.419,
          "name": ""
        },
        {
          "midi": 78,
          "time": 230.816,
          "duration": 0.07,
          "velocity": 0.523,
          "name": ""
        },
        {
          "midi": 66,
          "time": 230.816,
          "duration": 0.093,
          "velocity": 0.586,
          "name": ""
        },
        {
          "midi": 94,
          "time": 230.828,
          "duration": 0.093,
          "velocity": 0.373,
          "name": ""
        },
        {
          "midi": 78,
          "time": 230.886,
          "duration": 0.313,
          "velocity": 0.404,
          "name": ""
        },
        {
          "midi": 66,
          "time": 230.909,
          "duration": 0.209,
          "velocity": 0.57,
          "name": ""
        },
        {
          "midi": 59,
          "time": 231.605,
          "duration": 0.139,
          "velocity": 0.561,
          "name": ""
        },
        {
          "midi": 73,
          "time": 231.756,
          "duration": 0.093,
          "velocity": 0.31,
          "name": ""
        },
        {
          "midi": 61,
          "time": 231.756,
          "duration": 0.232,
          "velocity": 0.535,
          "name": ""
        },
        {
          "midi": 73,
          "time": 231.989,
          "duration": 0.116,
          "velocity": 0.389,
          "name": ""
        },
        {
          "midi": 61,
          "time": 231.989,
          "duration": 0.209,
          "velocity": 0.665,
          "name": ""
        },
        {
          "midi": 59,
          "time": 232.244,
          "duration": 0.104,
          "velocity": 0.47,
          "name": ""
        },
        {
          "midi": 59,
          "time": 232.348,
          "duration": 0.117,
          "velocity": 0.476,
          "name": ""
        },
        {
          "midi": 71,
          "time": 232.861,
          "duration": 0.104,
          "velocity": 0.263,
          "name": ""
        },
        {
          "midi": 59,
          "time": 232.861,
          "duration": 0.197,
          "velocity": 0.669,
          "name": ""
        },
        {
          "midi": 66,
          "time": 233.151,
          "duration": 0.163,
          "velocity": 0.645,
          "name": ""
        },
        {
          "midi": 71,
          "time": 233.197,
          "duration": 0.163,
          "velocity": 0.388,
          "name": ""
        },
        {
          "midi": 80,
          "time": 233.337,
          "duration": 0.186,
          "velocity": 0.367,
          "name": ""
        },
        {
          "midi": 68,
          "time": 233.348,
          "duration": 0.418,
          "velocity": 0.673,
          "name": ""
        },
        {
          "midi": 71,
          "time": 233.615,
          "duration": 0.07,
          "velocity": 0.367,
          "name": ""
        },
        {
          "midi": 69,
          "time": 233.789,
          "duration": 0.418,
          "velocity": 0.706,
          "name": ""
        },
        {
          "midi": 81,
          "time": 233.801,
          "duration": 0.337,
          "velocity": 0.415,
          "name": ""
        },
        {
          "midi": 66,
          "time": 234.416,
          "duration": 0.129,
          "velocity": 0.495,
          "name": ""
        },
        {
          "midi": 71,
          "time": 234.511,
          "duration": 0.116,
          "velocity": 0.288,
          "name": ""
        },
        {
          "midi": 80,
          "time": 234.569,
          "duration": 0.151,
          "velocity": 0.365,
          "name": ""
        },
        {
          "midi": 68,
          "time": 234.58,
          "duration": 0.313,
          "velocity": 0.637,
          "name": ""
        },
        {
          "midi": 66,
          "time": 234.905,
          "duration": 0.174,
          "velocity": 0.663,
          "name": ""
        },
        {
          "midi": 64,
          "time": 235.091,
          "duration": 0.186,
          "velocity": 0.695,
          "name": ""
        },
        {
          "midi": 63,
          "time": 235.381,
          "duration": 0.07,
          "velocity": 0.464,
          "name": ""
        },
        {
          "midi": 61,
          "time": 235.451,
          "duration": 0.139,
          "velocity": 0.572,
          "name": ""
        },
        {
          "midi": 64,
          "time": 235.706,
          "duration": 0.093,
          "velocity": 0.742,
          "name": ""
        },
        {
          "midi": 68,
          "time": 235.73,
          "duration": 0.313,
          "velocity": 0.427,
          "name": ""
        },
        {
          "midi": 64,
          "time": 235.799,
          "duration": 0.209,
          "velocity": 0.789,
          "name": ""
        },
        {
          "midi": 76,
          "time": 235.927,
          "duration": 0.163,
          "velocity": 0.464,
          "name": ""
        },
        {
          "midi": 83,
          "time": 235.939,
          "duration": 0.081,
          "velocity": 0.339,
          "name": ""
        },
        {
          "midi": 71,
          "time": 235.997,
          "duration": 0.116,
          "velocity": 0.401,
          "name": ""
        },
        {
          "midi": 64,
          "time": 236.008,
          "duration": 0.128,
          "velocity": 0.566,
          "name": ""
        },
        {
          "midi": 69,
          "time": 236.636,
          "duration": 0.174,
          "velocity": 0.742,
          "name": ""
        },
        {
          "midi": 83,
          "time": 236.799,
          "duration": 0.267,
          "velocity": 0.475,
          "name": ""
        },
        {
          "midi": 71,
          "time": 236.799,
          "duration": 0.151,
          "velocity": 0.801,
          "name": ""
        },
        {
          "midi": 71,
          "time": 236.95,
          "duration": 0.29,
          "velocity": 0.788,
          "name": ""
        },
        {
          "midi": 83,
          "time": 237.24,
          "duration": 0.139,
          "velocity": 0.454,
          "name": ""
        },
        {
          "midi": 71,
          "time": 237.24,
          "duration": 0.197,
          "velocity": 0.707,
          "name": ""
        },
        {
          "midi": 80,
          "time": 237.414,
          "duration": 0.221,
          "velocity": 0.551,
          "name": ""
        },
        {
          "midi": 73,
          "time": 237.426,
          "duration": 0.197,
          "velocity": 0.709,
          "name": ""
        },
        {
          "midi": 71,
          "time": 237.612,
          "duration": 0.267,
          "velocity": 0.684,
          "name": ""
        },
        {
          "midi": 69,
          "time": 237.96,
          "duration": 0.116,
          "velocity": 0.708,
          "name": ""
        },
        {
          "midi": 69,
          "time": 238.076,
          "duration": 0.431,
          "velocity": 0.738,
          "name": ""
        },
        {
          "midi": 81,
          "time": 238.273,
          "duration": 0.152,
          "velocity": 0.435,
          "name": ""
        },
        {
          "midi": 66,
          "time": 238.507,
          "duration": 0.139,
          "velocity": 0.651,
          "name": ""
        },
        {
          "midi": 78,
          "time": 238.519,
          "duration": 0.058,
          "velocity": 0.347,
          "name": ""
        },
        {
          "midi": 80,
          "time": 238.646,
          "duration": 0.104,
          "velocity": 0.257,
          "name": ""
        },
        {
          "midi": 68,
          "time": 238.646,
          "duration": 0.197,
          "velocity": 0.713,
          "name": ""
        },
        {
          "midi": 69,
          "time": 238.844,
          "duration": 0.116,
          "velocity": 0.706,
          "name": ""
        },
        {
          "midi": 68,
          "time": 238.96,
          "duration": 0.209,
          "velocity": 0.663,
          "name": ""
        },
        {
          "midi": 78,
          "time": 239.157,
          "duration": 1.232,
          "velocity": 0.391,
          "name": ""
        },
        {
          "midi": 66,
          "time": 239.157,
          "duration": 1.219,
          "velocity": 0.783,
          "name": ""
        },
        {
          "midi": 66,
          "time": 240.376,
          "duration": 0.559,
          "velocity": 0.703,
          "name": ""
        },
        {
          "midi": 78,
          "time": 240.668,
          "duration": 0.093,
          "velocity": 0.38,
          "name": ""
        },
        {
          "midi": 54,
          "time": 241.271,
          "duration": 0.163,
          "velocity": 0.539,
          "name": ""
        },
        {
          "midi": 54,
          "time": 241.434,
          "duration": 0.139,
          "velocity": 0.589,
          "name": ""
        },
        {
          "midi": 54,
          "time": 241.724,
          "duration": 0.186,
          "velocity": 0.666,
          "name": ""
        },
        {
          "midi": 66,
          "time": 241.736,
          "duration": 0.081,
          "velocity": 0.45,
          "name": ""
        },
        {
          "midi": 65,
          "time": 242.096,
          "duration": 0.07,
          "velocity": 0.401,
          "name": ""
        },
        {
          "midi": 64,
          "time": 242.165,
          "duration": 0.151,
          "velocity": 0.754,
          "name": ""
        },
        {
          "midi": 66,
          "time": 242.316,
          "duration": 0.094,
          "velocity": 0.838,
          "name": ""
        },
        {
          "midi": 66,
          "time": 242.41,
          "duration": 0.58,
          "velocity": 0.783,
          "name": ""
        },
        {
          "midi": 66,
          "time": 242.991,
          "duration": 0.163,
          "velocity": 0.677,
          "name": ""
        },
        {
          "midi": 68,
          "time": 243.153,
          "duration": 0.313,
          "velocity": 0.683,
          "name": ""
        },
        {
          "midi": 64,
          "time": 243.618,
          "duration": 0.395,
          "velocity": 0.759,
          "name": ""
        },
        {
          "midi": 61,
          "time": 243.989,
          "duration": 0.139,
          "velocity": 0.234,
          "name": ""
        },
        {
          "midi": 63,
          "time": 244.059,
          "duration": 0.081,
          "velocity": 0.479,
          "name": ""
        },
        {
          "midi": 61,
          "time": 244.129,
          "duration": 0.338,
          "velocity": 0.595,
          "name": ""
        },
        {
          "midi": 64,
          "time": 244.525,
          "duration": 0.209,
          "velocity": 0.822,
          "name": ""
        },
        {
          "midi": 64,
          "time": 244.734,
          "duration": 0.163,
          "velocity": 0.864,
          "name": ""
        },
        {
          "midi": 64,
          "time": 244.896,
          "duration": 0.116,
          "velocity": 0.855,
          "name": ""
        },
        {
          "midi": 64,
          "time": 245.012,
          "duration": 0.476,
          "velocity": 0.683,
          "name": ""
        },
        {
          "midi": 67,
          "time": 246.115,
          "duration": 0.151,
          "velocity": 0.259,
          "name": ""
        },
        {
          "midi": 68,
          "time": 246.266,
          "duration": 0.175,
          "velocity": 0.831,
          "name": ""
        },
        {
          "midi": 69,
          "time": 246.442,
          "duration": 0.081,
          "velocity": 0.498,
          "name": ""
        },
        {
          "midi": 68,
          "time": 246.523,
          "duration": 0.511,
          "velocity": 0.77,
          "name": ""
        },
        {
          "midi": 66,
          "time": 247.022,
          "duration": 0.302,
          "velocity": 0.729,
          "name": ""
        },
        {
          "midi": 64,
          "time": 247.324,
          "duration": 0.081,
          "velocity": 0.485,
          "name": ""
        },
        {
          "midi": 64,
          "time": 247.405,
          "duration": 0.174,
          "velocity": 0.716,
          "name": ""
        },
        {
          "midi": 78,
          "time": 247.568,
          "duration": 0.837,
          "velocity": 0.427,
          "name": ""
        },
        {
          "midi": 66,
          "time": 247.568,
          "duration": 1.522,
          "velocity": 0.771,
          "name": ""
        },
        {
          "midi": 78,
          "time": 248.405,
          "duration": 0.418,
          "velocity": 0.396,
          "name": ""
        },
        {
          "midi": 78,
          "time": 248.951,
          "duration": 0.232,
          "velocity": 0.329,
          "name": ""
        },
        {
          "midi": 66,
          "time": 249.09,
          "duration": 0.07,
          "velocity": 0.827,
          "name": ""
        },
        {
          "midi": 66,
          "time": 249.16,
          "duration": 0.104,
          "velocity": 0.82,
          "name": ""
        },
        {
          "midi": 66,
          "time": 249.264,
          "duration": 0.093,
          "velocity": 0.804,
          "name": ""
        },
        {
          "midi": 66,
          "time": 249.357,
          "duration": 0.197,
          "velocity": 0.858,
          "name": ""
        },
        {
          "midi": 66,
          "time": 249.554,
          "duration": 0.116,
          "velocity": 0.847,
          "name": ""
        },
        {
          "midi": 66,
          "time": 249.671,
          "duration": 0.07,
          "velocity": 0.839,
          "name": ""
        },
        {
          "midi": 66,
          "time": 249.74,
          "duration": 0.186,
          "velocity": 0.841,
          "name": ""
        },
        {
          "midi": 66,
          "time": 249.926,
          "duration": 0.57,
          "velocity": 0.733,
          "name": ""
        },
        {
          "midi": 66,
          "time": 250.786,
          "duration": 0.104,
          "velocity": 0.411,
          "name": ""
        },
        {
          "midi": 66,
          "time": 250.937,
          "duration": 0.29,
          "velocity": 0.506,
          "name": ""
        },
        {
          "midi": 66,
          "time": 251.228,
          "duration": 0.128,
          "velocity": 0.702,
          "name": ""
        },
        {
          "midi": 66,
          "time": 251.355,
          "duration": 0.151,
          "velocity": 0.8,
          "name": ""
        },
        {
          "midi": 66,
          "time": 251.506,
          "duration": 0.209,
          "velocity": 0.712,
          "name": ""
        },
        {
          "midi": 66,
          "time": 251.715,
          "duration": 0.139,
          "velocity": 0.582,
          "name": ""
        },
        {
          "midi": 78,
          "time": 251.82,
          "duration": 0.139,
          "velocity": 0.354,
          "name": ""
        },
        {
          "midi": 66,
          "time": 251.854,
          "duration": 0.325,
          "velocity": 0.523,
          "name": ""
        },
        {
          "midi": 78,
          "time": 252.075,
          "duration": 0.058,
          "velocity": 0.323,
          "name": ""
        },
        {
          "midi": 54,
          "time": 254.201,
          "duration": 0.106,
          "velocity": 0.313,
          "name": ""
        },
        {
          "midi": 54,
          "time": 254.307,
          "duration": 0.139,
          "velocity": 0.489,
          "name": ""
        },
        {
          "midi": 64,
          "time": 254.678,
          "duration": 0.197,
          "velocity": 0.752,
          "name": ""
        },
        {
          "midi": 78,
          "time": 254.864,
          "duration": 0.174,
          "velocity": 0.342,
          "name": ""
        },
        {
          "midi": 66,
          "time": 254.864,
          "duration": 0.441,
          "velocity": 0.637,
          "name": ""
        },
        {
          "midi": 66,
          "time": 255.305,
          "duration": 0.36,
          "velocity": 0.53,
          "name": ""
        },
        {
          "midi": 66,
          "time": 255.665,
          "duration": 0.151,
          "velocity": 0.718,
          "name": ""
        },
        {
          "midi": 68,
          "time": 255.816,
          "duration": 0.197,
          "velocity": 0.778,
          "name": ""
        },
        {
          "midi": 69,
          "time": 256.013,
          "duration": 0.093,
          "velocity": 0.467,
          "name": ""
        },
        {
          "midi": 64,
          "time": 256.257,
          "duration": 0.117,
          "velocity": 0.811,
          "name": ""
        },
        {
          "midi": 64,
          "time": 256.375,
          "duration": 0.325,
          "velocity": 0.661,
          "name": ""
        },
        {
          "midi": 61,
          "time": 256.827,
          "duration": 0.197,
          "velocity": 0.701,
          "name": ""
        },
        {
          "midi": 64,
          "time": 257.35,
          "duration": 0.197,
          "velocity": 0.786,
          "name": ""
        },
        {
          "midi": 64,
          "time": 257.547,
          "duration": 0.814,
          "velocity": 0.783,
          "name": ""
        },
        {
          "midi": 66,
          "time": 259.209,
          "duration": 0.186,
          "velocity": 0.71,
          "name": ""
        },
        {
          "midi": 68,
          "time": 259.406,
          "duration": 0.081,
          "velocity": 0.788,
          "name": ""
        },
        {
          "midi": 68,
          "time": 259.487,
          "duration": 0.499,
          "velocity": 0.773,
          "name": ""
        },
        {
          "midi": 69,
          "time": 259.987,
          "duration": 0.07,
          "velocity": 0.762,
          "name": ""
        },
        {
          "midi": 68,
          "time": 260.056,
          "duration": 0.163,
          "velocity": 0.661,
          "name": ""
        },
        {
          "midi": 78,
          "time": 260.207,
          "duration": 0.048,
          "velocity": 0.308,
          "name": ""
        },
        {
          "midi": 66,
          "time": 260.207,
          "duration": 0.164,
          "velocity": 0.66,
          "name": ""
        },
        {
          "midi": 64,
          "time": 260.603,
          "duration": 0.197,
          "velocity": 0.739,
          "name": ""
        },
        {
          "midi": 66,
          "time": 260.789,
          "duration": 2.149,
          "velocity": 0.783,
          "name": ""
        },
        {
          "midi": 78,
          "time": 261.149,
          "duration": 0.116,
          "velocity": 0.356,
          "name": ""
        },
        {
          "midi": 66,
          "time": 262.938,
          "duration": 0.244,
          "velocity": 0.646,
          "name": ""
        },
        {
          "midi": 64,
          "time": 263.112,
          "duration": 0.244,
          "velocity": 0.796,
          "name": ""
        },
        {
          "midi": 64,
          "time": 263.356,
          "duration": 0.139,
          "velocity": 0.823,
          "name": ""
        },
        {
          "midi": 83,
          "time": 263.449,
          "duration": 0.29,
          "velocity": 0.366,
          "name": ""
        },
        {
          "midi": 64,
          "time": 263.495,
          "duration": 0.733,
          "velocity": 0.819,
          "name": ""
        },
        {
          "midi": 59,
          "time": 263.507,
          "duration": 0.104,
          "velocity": 0.373,
          "name": ""
        },
        {
          "midi": 64,
          "time": 264.228,
          "duration": 0.255,
          "velocity": 0.791,
          "name": ""
        },
        {
          "midi": 64,
          "time": 264.484,
          "duration": 0.139,
          "velocity": 0.804,
          "name": ""
        },
        {
          "midi": 64,
          "time": 264.623,
          "duration": 0.163,
          "velocity": 0.805,
          "name": ""
        },
        {
          "midi": 64,
          "time": 264.785,
          "duration": 0.197,
          "velocity": 0.797,
          "name": ""
        },
        {
          "midi": 64,
          "time": 264.983,
          "duration": 0.302,
          "velocity": 0.526,
          "name": ""
        },
        {
          "midi": 66,
          "time": 265.157,
          "duration": 0.685,
          "velocity": 0.365,
          "name": ""
        },
        {
          "midi": 64,
          "time": 265.703,
          "duration": 0.07,
          "velocity": 0.607,
          "name": ""
        },
        {
          "midi": 64,
          "time": 265.772,
          "duration": 0.337,
          "velocity": 0.626,
          "name": ""
        },
        {
          "midi": 64,
          "time": 266.109,
          "duration": 0.373,
          "velocity": 0.529,
          "name": ""
        },
        {
          "midi": 64,
          "time": 266.482,
          "duration": 0.859,
          "velocity": 0.472,
          "name": ""
        },
        {
          "midi": 64,
          "time": 267.341,
          "duration": 0.151,
          "velocity": 0.724,
          "name": ""
        },
        {
          "midi": 64,
          "time": 267.492,
          "duration": 0.791,
          "velocity": 0.538,
          "name": ""
        },
        {
          "midi": 64,
          "time": 268.283,
          "duration": 1.892,
          "velocity": 0.558,
          "name": ""
        },
        {
          "midi": 59,
          "time": 270.583,
          "duration": 0.116,
          "velocity": 0.458,
          "name": ""
        },
        {
          "midi": 64,
          "time": 270.617,
          "duration": 0.139,
          "velocity": 0.425,
          "name": ""
        },
        {
          "midi": 61,
          "time": 270.617,
          "duration": 0.128,
          "velocity": 0.356,
          "name": ""
        }
      ]
    }
  ]
}